,midi_note,onset,duration,velocity,pitch_class,interval,root,relative_pitch,relative_pitch_class,parsons_code,parsons_cumsum
0,62,0,0,105,2,0,7,-5,7,0,0
1,64,0,0,80,4,2,7,-3,9,1,1
2,66,1,0,80,6,2,7,-1,11,1,2
3,67,2,2,105,7,1,7,0,0,1,3
4,71,4,1,80,11,4,7,4,4,1,4
5,67,5,1,80,7,-4,7,0,0,-1,3
6,74,6,1,95,2,7,7,7,7,1,4
7,67,7,1,80,7,-7,7,0,0,-1,3
8,71,8,1,80,11,4,7,4,4,1,4
9,67,9,1,80,7,-4,7,0,0,-1,3
10,72,10,1,105,0,5,7,5,5,1,4
11,71,11,1,80,11,-1,7,4,4,-1,3
12,72,12,1,80,0,1,7,5,5,1,4
13,74,13,1,80,2,2,7,7,7,1,5
14,76,14,1,95,4,2,7,9,9,1,6
15,78,15,1,80,6,2,7,11,11,1,7
16,79,16,1,80,7,1,7,12,0,1,8
17,76,17,1,80,4,-3,7,9,9,-1,7
18,74,18,2,105,2,-2,7,7,7,-1,6
19,71,20,1,80,11,-3,7,4,4,-1,5
20,67,21,1,80,7,-4,7,0,0,-1,4
21,74,22,1,95,2,7,7,7,7,1,5
22,67,23,1,80,7,-7,7,0,0,-1,4
23,71,24,1,80,11,4,7,4,4,1,5
24,67,25,1,80,7,-4,7,0,0,-1,4
25,66,26,0,105,6,-1,7,-1,11,-1,3
26,64,26,0,80,4,-2,7,-3,9,-1,2
27,62,27,0,80,2,-2,7,-5,7,-1,1
28,69,28,1,80,9,7,7,2,2,1,2
29,66,29,1,80,6,-3,7,-1,11,-1,1
30,71,30,1,95,11,5,7,4,4,1,2
31,72,31,1,80,0,1,7,5,5,1,3
32,69,32,1,80,9,-3,7,2,2,-1,2
33,66,33,1,80,6,-3,7,-1,11,-1,1
34,67,34,1,105,7,1,7,0,0,1,2
35,69,35,1,80,9,2,7,2,2,1,3
36,71,36,1,80,11,2,7,4,4,1,4
37,67,37,1,80,7,-4,7,0,0,-1,3
38,74,38,1,95,2,7,7,7,7,1,4
39,67,39,1,80,7,-7,7,0,0,-1,3
40,71,40,1,80,11,4,7,4,4,1,4
41,67,41,1,80,7,-4,7,0,0,-1,3
42,72,42,1,105,0,5,7,5,5,1,4
43,71,43,1,80,11,-1,7,4,4,-1,3
44,72,44,1,80,0,1,7,5,5,1,4
45,74,45,1,80,2,2,7,7,7,1,5
46,76,46,1,95,4,2,7,9,9,1,6
47,78,47,1,80,6,2,7,11,11,1,7
48,79,48,1,80,7,1,7,12,0,1,8
49,76,49,1,80,4,-3,7,9,9,-1,7
50,74,50,1,105,2,-2,7,7,7,-1,6
51,79,51,1,80,7,5,7,12,0,1,7
52,78,52,1,80,6,-1,7,11,11,-1,6
53,83,53,1,80,11,5,7,16,4,1,7
54,76,54,1,95,4,-7,7,9,9,-1,6
55,72,55,1,80,0,-4,7,5,5,-1,5
56,69,56,1,80,9,-3,7,2,2,-1,4
57,66,57,1,80,6,-3,7,-1,11,-1,3
58,67,58,1,105,7,1,7,0,0,1,4
59,71,59,1,80,11,4,7,4,4,1,5
60,69,60,1,80,9,-2,7,2,2,-1,4
61,66,61,1,80,6,-3,7,-1,11,-1,3
62,67,62,2,95,7,1,7,0,0,1,4
63,62,64,0,80,2,-5,7,-5,7,-1,3
64,64,64,0,80,4,2,7,-3,9,1,4
65,66,65,0,80,6,2,7,-1,11,1,5
66,67,66,2,105,7,1,7,0,0,1,6
67,71,68,1,80,11,4,7,4,4,1,7
68,67,69,1,80,7,-4,7,0,0,-1,6
69,74,70,1,95,2,7,7,7,7,1,7
70,67,71,1,80,7,-7,7,0,0,-1,6
71,71,72,1,80,11,4,7,4,4,1,7
72,67,73,1,80,7,-4,7,0,0,-1,6
73,72,74,1,105,0,5,7,5,5,1,7
74,71,75,1,80,11,-1,7,4,4,-1,6
75,72,76,1,80,0,1,7,5,5,1,7
76,74,77,1,80,2,2,7,7,7,1,8
77,76,78,1,95,4,2,7,9,9,1,9
78,78,79,1,80,6,2,7,11,11,1,10
79,79,80,1,80,7,1,7,12,0,1,11
80,76,81,1,80,4,-3,7,9,9,-1,10
81,74,82,2,105,2,-2,7,7,7,-1,9
82,71,84,1,80,11,-3,7,4,4,-1,8
83,67,85,1,80,7,-4,7,0,0,-1,7
84,74,86,1,95,2,7,7,7,7,1,8
85,67,87,1,80,7,-7,7,0,0,-1,7
86,71,88,1,80,11,4,7,4,4,1,8
87,67,89,1,80,7,-4,7,0,0,-1,7
88,66,90,0,105,6,-1,7,-1,11,-1,6
89,64,90,0,80,4,-2,7,-3,9,-1,5
90,62,91,0,80,2,-2,7,-5,7,-1,4
91,69,92,1,80,9,7,7,2,2,1,5
92,66,93,1,80,6,-3,7,-1,11,-1,4
93,71,94,1,95,11,5,7,4,4,1,5
94,72,95,1,80,0,1,7,5,5,1,6
95,69,96,1,80,9,-3,7,2,2,-1,5
96,66,97,1,80,6,-3,7,-1,11,-1,4
97,67,98,1,105,7,1,7,0,0,1,5
98,69,99,1,80,9,2,7,2,2,1,6
99,71,100,1,80,11,2,7,4,4,1,7
100,67,101,1,80,7,-4,7,0,0,-1,6
101,74,102,1,95,2,7,7,7,7,1,7
102,67,103,1,80,7,-7,7,0,0,-1,6
103,71,104,1,80,11,4,7,4,4,1,7
104,67,105,1,80,7,-4,7,0,0,-1,6
105,72,106,1,105,0,5,7,5,5,1,7
106,71,107,1,80,11,-1,7,4,4,-1,6
107,72,108,1,80,0,1,7,5,5,1,7
108,74,109,1,80,2,2,7,7,7,1,8
109,76,110,1,95,4,2,7,9,9,1,9
110,78,111,1,80,6,2,7,11,11,1,10
111,79,112,1,80,7,1,7,12,0,1,11
112,76,113,1,80,4,-3,7,9,9,-1,10
113,74,114,1,105,2,-2,7,7,7,-1,9
114,79,115,1,80,7,5,7,12,0,1,10
115,78,116,1,80,6,-1,7,11,11,-1,9
116,83,117,1,80,11,5,7,16,4,1,10
117,76,118,1,95,4,-7,7,9,9,-1,9
118,72,119,1,80,0,-4,7,5,5,-1,8
119,69,120,1,80,9,-3,7,2,2,-1,7
120,66,121,1,80,6,-3,7,-1,11,-1,6
121,67,122,1,105,7,1,7,0,0,1,7
122,71,123,1,80,11,4,7,4,4,1,8
123,69,124,1,80,9,-2,7,2,2,-1,7
124,66,125,1,80,6,-3,7,-1,11,-1,6
125,67,126,2,95,7,1,7,0,0,1,7
126,74,128,1,80,2,7,7,7,7,1,8
127,71,129,1,80,11,-3,7,4,4,-1,7
128,79,130,2,105,7,8,7,12,0,1,8
129,79,132,1,80,7,0,7,12,0,0,8
130,78,133,1,80,6,-1,7,11,11,-1,7
131,76,134,1,95,4,-2,7,9,9,-1,6
132,74,135,1,80,2,-2,7,7,7,-1,5
133,73,136,1,80,1,-1,7,6,6,-1,4
134,76,137,1,80,4,3,7,9,9,1,5
135,74,138,1,105,2,-2,7,7,7,-1,4
136,78,139,1,80,6,4,7,11,11,1,5
137,81,140,1,80,9,3,7,14,2,1,6
138,83,141,1,80,11,2,7,16,4,1,7
139,81,142,1,95,9,-2,7,14,2,-1,6
140,78,143,1,80,6,-3,7,11,11,-1,5
141,74,144,1,80,2,-4,7,7,7,-1,4
142,78,145,1,80,6,4,7,11,11,1,5
143,83,146,1,105,11,5,7,16,4,1,6
144,81,147,1,80,9,-2,7,14,2,-1,5
145,79,148,1,80,7,-2,7,12,0,-1,4
146,78,149,1,80,6,-1,7,11,11,-1,3
147,79,150,1,95,7,1,7,12,0,1,4
148,74,151,1,80,2,-5,7,7,7,-1,3
149,71,152,1,80,11,-3,7,4,4,-1,2
150,67,153,1,80,7,-4,7,0,0,-1,1
151,66,154,1,105,6,-1,7,-1,11,-1,0
152,62,155,1,80,2,-4,7,-5,7,-1,-1
153,69,156,1,80,9,7,7,2,2,1,0
154,66,157,1,80,6,-3,7,-1,11,-1,-1
155,71,158,1,95,11,5,7,4,4,1,0
156,72,159,1,80,0,1,7,5,5,1,1
157,69,160,1,80,9,-3,7,2,2,-1,0
158,66,161,1,80,6,-3,7,-1,11,-1,-1
159,67,162,2,105,7,1,7,0,0,1,0
160,71,164,1,80,11,4,7,4,4,1,1
161,67,165,1,80,7,-4,7,0,0,-1,0
162,74,166,1,95,2,7,7,7,7,1,1
163,67,167,1,80,7,-7,7,0,0,-1,0
164,71,168,1,80,11,4,7,4,4,1,1
165,67,169,1,80,7,-4,7,0,0,-1,0
166,72,170,1,105,0,5,7,5,5,1,1
167,71,171,1,80,11,-1,7,4,4,-1,0
168,72,172,1,80,0,1,7,5,5,1,1
169,74,173,1,80,2,2,7,7,7,1,2
170,76,174,1,95,4,2,7,9,9,1,3
171,78,175,1,80,6,2,7,11,11,1,4
172,79,176,1,80,7,1,7,12,0,1,5
173,76,177,1,80,4,-3,7,9,9,-1,4
174,74,178,1,105,2,-2,7,7,7,-1,3
175,79,179,1,80,7,5,7,12,0,1,4
176,78,180,1,80,6,-1,7,11,11,-1,3
177,83,181,1,80,11,5,7,16,4,1,4
178,76,182,1,95,4,-7,7,9,9,-1,3
179,72,183,1,80,0,-4,7,5,5,-1,2
180,69,184,1,80,9,-3,7,2,2,-1,1
181,66,185,1,80,6,-3,7,-1,11,-1,0
182,67,186,1,105,7,1,7,0,0,1,1
183,71,187,1,80,11,4,7,4,4,1,2
184,69,188,1,80,9,-2,7,2,2,-1,1
185,66,189,1,80,6,-3,7,-1,11,-1,0
186,67,190,2,95,7,1,7,0,0,1,1
187,74,192,1,80,2,7,7,7,7,1,2
188,71,193,1,80,11,-3,7,4,4,-1,1
189,79,194,2,105,7,8,7,12,0,1,2
190,79,196,1,80,7,0,7,12,0,0,2
191,78,197,1,80,6,-1,7,11,11,-1,1
192,76,198,1,95,4,-2,7,9,9,-1,0
193,74,199,1,80,2,-2,7,7,7,-1,-1
194,73,200,1,80,1,-1,7,6,6,-1,-2
195,76,201,1,80,4,3,7,9,9,1,-1
196,74,202,1,105,2,-2,7,7,7,-1,-2
197,78,203,1,80,6,4,7,11,11,1,-1
198,81,204,1,80,9,3,7,14,2,1,0
199,83,205,1,80,11,2,7,16,4,1,1
200,81,206,1,95,9,-2,7,14,2,-1,0
201,78,207,1,80,6,-3,7,11,11,-1,-1
202,74,208,1,80,2,-4,7,7,7,-1,-2
203,78,209,1,80,6,4,7,11,11,1,-1
204,83,210,1,105,11,5,7,16,4,1,0
205,81,211,1,80,9,-2,7,14,2,-1,-1
206,79,212,1,80,7,-2,7,12,0,-1,-2
207,78,213,1,80,6,-1,7,11,11,-1,-3
208,79,214,1,95,7,1,7,12,0,1,-2
209,74,215,1,80,2,-5,7,7,7,-1,-3
210,71,216,1,80,11,-3,7,4,4,-1,-4
211,67,217,1,80,7,-4,7,0,0,-1,-5
212,66,218,1,105,6,-1,7,-1,11,-1,-6
213,62,219,1,80,2,-4,7,-5,7,-1,-7
214,69,220,1,80,9,7,7,2,2,1,-6
215,66,221,1,80,6,-3,7,-1,11,-1,-7
216,71,222,1,95,11,5,7,4,4,1,-6
217,72,223,1,80,0,1,7,5,5,1,-5
218,69,224,1,80,9,-3,7,2,2,-1,-6
219,66,225,1,80,6,-3,7,-1,11,-1,-7
220,67,226,2,105,7,1,7,0,0,1,-6
221,71,228,1,80,11,4,7,4,4,1,-5
222,67,229,1,80,7,-4,7,0,0,-1,-6
223,74,230,1,95,2,7,7,7,7,1,-5
224,67,231,1,80,7,-7,7,0,0,-1,-6
225,71,232,1,80,11,4,7,4,4,1,-5
226,67,233,1,80,7,-4,7,0,0,-1,-6
227,72,234,1,105,0,5,7,5,5,1,-5
228,71,235,1,80,11,-1,7,4,4,-1,-6
229,72,236,1,80,0,1,7,5,5,1,-5
230,74,237,1,80,2,2,7,7,7,1,-4
231,76,238,1,95,4,2,7,9,9,1,-3
232,78,239,1,80,6,2,7,11,11,1,-2
233,79,240,1,80,7,1,7,12,0,1,-1
234,76,241,1,80,4,-3,7,9,9,-1,-2
235,74,242,1,105,2,-2,7,7,7,-1,-3
236,79,243,1,80,7,5,7,12,0,1,-2
237,78,244,1,80,6,-1,7,11,11,-1,-3
238,83,245,1,80,11,5,7,16,4,1,-2
239,76,246,1,95,4,-7,7,9,9,-1,-3
240,72,247,1,80,0,-4,7,5,5,-1,-4
241,69,248,1,80,9,-3,7,2,2,-1,-5
242,66,249,1,80,6,-3,7,-1,11,-1,-6
243,67,250,1,105,7,1,7,0,0,1,-5
244,71,251,1,80,11,4,7,4,4,1,-4
245,69,252,1,80,9,-2,7,2,2,-1,-5
246,66,253,1,80,6,-3,7,-1,11,-1,-6
247,67,254,2,95,7,1,7,0,0,1,-5
