,midi_note,onset,duration,velocity,pitch_class,interval,root,relative_pitch,relative_pitch_class,parsons_code,parsons_cumsum
0,69,0,1,105,9,0,7,2,2,0,0
1,71,1,1,105,11,2,7,4,4,1,1
2,67,2,1,80,7,-4,7,0,0,-1,0
3,67,3,1,80,7,0,7,0,0,0,0
4,71,4,1,80,11,4,7,4,4,1,1
5,72,5,1,95,0,1,7,5,5,1,2
6,71,6,1,80,11,-1,7,4,4,-1,1
7,69,7,1,80,9,-2,7,2,2,-1,0
8,67,8,1,80,7,-2,7,0,0,-1,-1
9,67,9,1,105,7,0,7,0,0,0,-1
10,66,10,1,80,6,-1,7,-1,11,-1,-2
11,62,11,1,80,2,-4,7,-5,7,-1,-3
12,64,12,1,80,4,2,7,-3,9,1,-2
13,66,13,1,95,6,2,7,-1,11,1,-1
14,64,14,1,80,4,-2,7,-3,9,-1,-2
15,66,15,1,80,6,2,7,-1,11,1,-1
16,62,16,1,80,2,-4,7,-5,7,-1,-2
17,62,17,1,105,2,0,7,-5,7,0,-2
18,67,18,1,80,7,5,7,0,0,1,-1
19,67,19,1,80,7,0,7,0,0,0,-1
20,69,20,1,80,9,2,7,2,2,1,0
21,71,21,1,95,11,2,7,4,4,1,1
22,69,22,1,80,9,-2,7,2,2,-1,0
23,71,23,1,80,11,2,7,4,4,1,1
24,72,24,1,80,0,1,7,5,5,1,2
25,79,25,1,105,7,7,7,12,0,1,3
26,74,26,1,80,2,-5,7,7,7,-1,2
27,72,27,1,80,0,-2,7,5,5,-1,1
28,69,28,1,80,9,-3,7,2,2,-1,0
29,71,29,1,95,11,2,7,4,4,1,1
30,67,30,1,80,7,-4,7,0,0,-1,0
31,69,31,1,80,9,2,7,2,2,1,1
32,66,32,1,80,6,-3,7,-1,11,-1,0
33,67,33,2,105,7,1,7,0,0,1,1
34,71,35,1,80,11,4,7,4,4,1,2
35,67,36,1,80,7,-4,7,0,0,-1,1
36,72,37,1,95,0,5,7,5,5,1,2
37,71,38,1,80,11,-1,7,4,4,-1,1
38,69,39,1,80,9,-2,7,2,2,-1,0
39,66,40,1,80,6,-3,7,-1,11,-1,-1
40,62,41,1,105,2,-4,7,-5,7,-1,-2
41,67,42,1,80,7,5,7,0,0,1,-1
42,67,43,1,80,7,0,7,0,0,0,-1
43,71,44,1,80,11,4,7,4,4,1,0
44,69,45,1,95,9,-2,7,2,2,-1,-1
45,67,46,1,80,7,-2,7,0,0,-1,-2
46,66,47,1,80,6,-1,7,-1,11,-1,-3
47,62,48,1,80,2,-4,7,-5,7,-1,-4
48,74,49,1,105,2,12,7,7,7,1,-3
49,78,50,1,80,6,4,7,11,11,1,-2
50,76,51,1,80,4,-2,7,9,9,-1,-3
51,73,52,1,80,1,-3,7,6,6,-1,-4
52,74,53,1,95,2,1,7,7,7,1,-3
53,72,54,1,80,0,-2,7,5,5,-1,-4
54,69,55,1,80,9,-3,7,2,2,-1,-5
55,66,56,1,80,6,-3,7,-1,11,-1,-6
56,62,57,1,105,2,-4,7,-5,7,-1,-7
57,67,58,1,80,7,5,7,0,0,1,-6
58,67,59,1,80,7,0,7,0,0,0,-6
59,66,60,1,80,6,-1,7,-1,11,-1,-7
60,67,61,3,95,7,1,7,0,0,1,-6
61,69,64,1,80,9,2,7,2,2,1,-5
62,71,65,1,105,11,2,7,4,4,1,-4
63,67,66,1,80,7,-4,7,0,0,-1,-5
64,67,67,1,80,7,0,7,0,0,0,-5
65,71,68,1,80,11,4,7,4,4,1,-4
66,72,69,1,95,0,1,7,5,5,1,-3
67,71,70,1,80,11,-1,7,4,4,-1,-4
68,69,71,1,80,9,-2,7,2,2,-1,-5
69,67,72,1,80,7,-2,7,0,0,-1,-6
70,67,73,1,105,7,0,7,0,0,0,-6
71,66,74,1,80,6,-1,7,-1,11,-1,-7
72,62,75,1,80,2,-4,7,-5,7,-1,-8
73,64,76,1,80,4,2,7,-3,9,1,-7
74,66,77,1,95,6,2,7,-1,11,1,-6
75,64,78,1,80,4,-2,7,-3,9,-1,-7
76,66,79,1,80,6,2,7,-1,11,1,-6
77,62,80,1,80,2,-4,7,-5,7,-1,-7
78,62,81,1,105,2,0,7,-5,7,0,-7
79,67,82,1,80,7,5,7,0,0,1,-6
80,67,83,1,80,7,0,7,0,0,0,-6
81,69,84,1,80,9,2,7,2,2,1,-5
82,71,85,1,95,11,2,7,4,4,1,-4
83,69,86,1,80,9,-2,7,2,2,-1,-5
84,71,87,1,80,11,2,7,4,4,1,-4
85,72,88,1,80,0,1,7,5,5,1,-3
86,79,89,1,105,7,7,7,12,0,1,-2
87,74,90,1,80,2,-5,7,7,7,-1,-3
88,72,91,1,80,0,-2,7,5,5,-1,-4
89,69,92,1,80,9,-3,7,2,2,-1,-5
90,71,93,1,95,11,2,7,4,4,1,-4
91,67,94,1,80,7,-4,7,0,0,-1,-5
92,69,95,1,80,9,2,7,2,2,1,-4
93,66,96,1,80,6,-3,7,-1,11,-1,-5
94,67,97,2,105,7,1,7,0,0,1,-4
95,71,99,1,80,11,4,7,4,4,1,-3
96,67,100,1,80,7,-4,7,0,0,-1,-4
97,72,101,1,95,0,5,7,5,5,1,-3
98,71,102,1,80,11,-1,7,4,4,-1,-4
99,69,103,1,80,9,-2,7,2,2,-1,-5
100,66,104,1,80,6,-3,7,-1,11,-1,-6
101,62,105,1,105,2,-4,7,-5,7,-1,-7
102,67,106,1,80,7,5,7,0,0,1,-6
103,67,107,1,80,7,0,7,0,0,0,-6
104,71,108,1,80,11,4,7,4,4,1,-5
105,69,109,1,95,9,-2,7,2,2,-1,-6
106,67,110,1,80,7,-2,7,0,0,-1,-7
107,66,111,1,80,6,-1,7,-1,11,-1,-8
108,62,112,1,80,2,-4,7,-5,7,-1,-9
109,74,113,1,105,2,12,7,7,7,1,-8
110,78,114,1,80,6,4,7,11,11,1,-7
111,76,115,1,80,4,-2,7,9,9,-1,-8
112,73,116,1,80,1,-3,7,6,6,-1,-9
113,74,117,1,95,2,1,7,7,7,1,-8
114,72,118,1,80,0,-2,7,5,5,-1,-9
115,69,119,1,80,9,-3,7,2,2,-1,-10
116,66,120,1,80,6,-3,7,-1,11,-1,-11
117,62,121,1,105,2,-4,7,-5,7,-1,-12
118,67,122,1,80,7,5,7,0,0,1,-11
119,67,123,1,80,7,0,7,0,0,0,-11
120,66,124,1,80,6,-1,7,-1,11,-1,-12
121,67,125,3,95,7,1,7,0,0,1,-11
122,78,128,0,80,6,11,7,11,11,1,-10
123,79,128,0,80,7,1,7,12,0,1,-9
124,81,129,1,105,9,2,7,14,2,1,-8
125,74,130,1,80,2,-7,7,7,7,-1,-9
126,74,131,1,80,2,0,7,7,7,0,-9
127,72,132,1,80,0,-2,7,5,5,-1,-10
128,79,133,1,95,7,7,7,12,0,1,-9
129,74,134,1,80,2,-5,7,7,7,-1,-10
130,72,135,1,80,0,-2,7,5,5,-1,-11
131,69,136,1,80,9,-3,7,2,2,-1,-12
132,74,137,1,105,2,5,7,7,7,1,-11
133,79,138,1,80,7,5,7,12,0,1,-10
134,78,139,1,80,6,-1,7,11,11,-1,-11
135,81,140,1,80,9,3,7,14,2,1,-10
136,79,141,2,95,7,-2,7,12,0,-1,-11
137,79,143,1,80,7,0,7,12,0,0,-11
138,81,144,1,80,9,2,7,14,2,1,-10
139,83,145,1,105,11,2,7,16,4,1,-9
140,79,146,1,80,7,-4,7,12,0,-1,-10
141,81,147,1,80,9,2,7,14,2,1,-9
142,78,148,1,80,6,-3,7,11,11,-1,-10
143,79,149,1,95,7,1,7,12,0,1,-9
144,78,150,1,80,6,-1,7,11,11,-1,-10
145,74,151,1,80,2,-4,7,7,7,-1,-11
146,72,152,1,80,0,-2,7,5,5,-1,-12
147,69,153,1,105,9,-3,7,2,2,-1,-13
148,71,154,1,80,11,2,7,4,4,1,-12
149,72,155,1,80,0,1,7,5,5,1,-11
150,69,156,1,80,9,-3,7,2,2,-1,-12
151,67,157,2,95,7,-2,7,0,0,-1,-13
152,78,159,1,80,6,11,7,11,11,1,-12
153,79,160,1,80,7,1,7,12,0,1,-11
154,81,161,1,105,9,2,7,14,2,1,-10
155,74,162,1,80,2,-7,7,7,7,-1,-11
156,74,163,1,80,2,0,7,7,7,0,-11
157,72,164,1,80,0,-2,7,5,5,-1,-12
158,79,165,1,95,7,7,7,12,0,1,-11
159,74,166,1,80,2,-5,7,7,7,-1,-12
160,72,167,1,80,0,-2,7,5,5,-1,-13
161,69,168,1,80,9,-3,7,2,2,-1,-14
162,74,169,1,105,2,5,7,7,7,1,-13
163,79,170,1,80,7,5,7,12,0,1,-12
164,79,171,1,80,7,0,7,12,0,0,-12
165,78,172,1,80,6,-1,7,11,11,-1,-13
166,79,173,1,95,7,1,7,12,0,1,-12
167,78,174,1,80,6,-1,7,11,11,-1,-13
168,79,175,1,80,7,1,7,12,0,1,-12
169,81,176,1,80,9,2,7,14,2,1,-11
170,83,177,1,105,11,2,7,16,4,1,-10
171,79,178,1,80,7,-4,7,12,0,-1,-11
172,81,179,1,80,9,2,7,14,2,1,-10
173,78,180,1,80,6,-3,7,11,11,-1,-11
174,79,181,1,95,7,1,7,12,0,1,-10
175,78,182,1,80,6,-1,7,11,11,-1,-11
176,74,183,1,80,2,-4,7,7,7,-1,-12
177,72,184,1,80,0,-2,7,5,5,-1,-13
178,69,185,1,105,9,-3,7,2,2,-1,-14
179,71,186,1,80,11,2,7,4,4,1,-13
180,72,187,1,80,0,1,7,5,5,1,-12
181,69,188,1,80,9,-3,7,2,2,-1,-13
182,67,189,3,95,7,-2,7,0,0,-1,-14
183,78,192,0,80,6,11,7,11,11,1,-13
184,79,192,0,80,7,1,7,12,0,1,-12
185,81,193,1,105,9,2,7,14,2,1,-11
186,74,194,1,80,2,-7,7,7,7,-1,-12
187,74,195,1,80,2,0,7,7,7,0,-12
188,72,196,1,80,0,-2,7,5,5,-1,-13
189,79,197,1,95,7,7,7,12,0,1,-12
190,74,198,1,80,2,-5,7,7,7,-1,-13
191,72,199,1,80,0,-2,7,5,5,-1,-14
192,69,200,1,80,9,-3,7,2,2,-1,-15
193,74,201,1,105,2,5,7,7,7,1,-14
194,79,202,1,80,7,5,7,12,0,1,-13
195,78,203,1,80,6,-1,7,11,11,-1,-14
196,81,204,1,80,9,3,7,14,2,1,-13
197,79,205,2,95,7,-2,7,12,0,-1,-14
198,79,207,1,80,7,0,7,12,0,0,-14
199,81,208,1,80,9,2,7,14,2,1,-13
200,83,209,1,105,11,2,7,16,4,1,-12
201,79,210,1,80,7,-4,7,12,0,-1,-13
202,81,211,1,80,9,2,7,14,2,1,-12
203,78,212,1,80,6,-3,7,11,11,-1,-13
204,79,213,1,95,7,1,7,12,0,1,-12
205,78,214,1,80,6,-1,7,11,11,-1,-13
206,74,215,1,80,2,-4,7,7,7,-1,-14
207,72,216,1,80,0,-2,7,5,5,-1,-15
208,69,217,1,105,9,-3,7,2,2,-1,-16
209,71,218,1,80,11,2,7,4,4,1,-15
210,72,219,1,80,0,1,7,5,5,1,-14
211,69,220,1,80,9,-3,7,2,2,-1,-15
212,67,221,2,95,7,-2,7,0,0,-1,-16
213,78,223,1,80,6,11,7,11,11,1,-15
214,79,224,1,80,7,1,7,12,0,1,-14
215,81,225,1,105,9,2,7,14,2,1,-13
216,74,226,1,80,2,-7,7,7,7,-1,-14
217,74,227,1,80,2,0,7,7,7,0,-14
218,72,228,1,80,0,-2,7,5,5,-1,-15
219,79,229,1,95,7,7,7,12,0,1,-14
220,74,230,1,80,2,-5,7,7,7,-1,-15
221,72,231,1,80,0,-2,7,5,5,-1,-16
222,69,232,1,80,9,-3,7,2,2,-1,-17
223,74,233,1,105,2,5,7,7,7,1,-16
224,79,234,1,80,7,5,7,12,0,1,-15
225,79,235,1,80,7,0,7,12,0,0,-15
226,78,236,1,80,6,-1,7,11,11,-1,-16
227,79,237,1,95,7,1,7,12,0,1,-15
228,78,238,1,80,6,-1,7,11,11,-1,-16
229,79,239,1,80,7,1,7,12,0,1,-15
230,81,240,1,80,9,2,7,14,2,1,-14
231,83,241,1,105,11,2,7,16,4,1,-13
232,79,242,1,80,7,-4,7,12,0,-1,-14
233,81,243,1,80,9,2,7,14,2,1,-13
234,78,244,1,80,6,-3,7,11,11,-1,-14
235,79,245,1,95,7,1,7,12,0,1,-13
236,78,246,1,80,6,-1,7,11,11,-1,-14
237,74,247,1,80,2,-4,7,7,7,-1,-15
238,72,248,1,80,0,-2,7,5,5,-1,-16
239,69,249,1,105,9,-3,7,2,2,-1,-17
240,71,250,1,80,11,2,7,4,4,1,-16
241,72,251,1,80,0,1,7,5,5,1,-15
242,69,252,1,80,9,-3,7,2,2,-1,-16
243,67,253,3,95,7,-2,7,0,0,-1,-17
