,midi_note,onset,duration,velocity,pitch_class,interval,root,relative_pitch,relative_pitch_class,parsons_code,parsons_cumsum
0,69,0,1,105,9,0,9,0,0,0,0
1,71,1,1,80,11,2,9,2,2,1,1
2,69,2,1,80,9,-2,9,0,0,-1,0
3,69,3,1,95,9,0,9,0,0,0,0
4,71,4,1,80,11,2,9,2,2,1,1
5,79,5,1,80,7,8,9,10,10,1,2
6,76,6,1,105,4,-3,9,7,7,-1,1
7,74,7,1,80,2,-2,9,5,5,-1,0
8,71,8,1,80,11,-3,9,2,2,-1,-1
9,79,9,1,95,7,8,9,10,10,1,0
10,74,10,1,80,2,-5,9,5,5,-1,-1
11,71,11,1,80,11,-3,9,2,2,-1,-2
12,67,12,3,105,7,-4,9,-2,10,-1,-3
13,71,15,1,95,11,4,9,2,2,1,-2
14,69,16,1,80,9,-2,9,0,0,-1,-3
15,67,17,1,80,7,-2,9,-2,10,-1,-4
16,74,18,1,105,2,7,9,5,5,1,-3
17,71,19,1,80,11,-3,9,2,2,-1,-4
18,67,20,1,80,7,-4,9,-2,10,-1,-5
19,69,21,1,95,9,2,9,0,0,1,-4
20,67,22,1,80,7,-2,9,-2,10,-1,-5
21,64,23,1,80,4,-3,9,-5,7,-1,-6
22,69,24,1,105,9,5,9,0,0,1,-5
23,71,25,1,80,11,2,9,2,2,1,-4
24,69,26,1,80,9,-2,9,0,0,-1,-5
25,69,27,1,95,9,0,9,0,0,0,-5
26,71,28,1,80,11,2,9,2,2,1,-4
27,79,29,1,80,7,8,9,10,10,1,-3
28,76,30,1,105,4,-3,9,7,7,-1,-4
29,74,31,1,80,2,-2,9,5,5,-1,-5
30,71,32,1,80,11,-3,9,2,2,-1,-6
31,74,33,1,95,2,3,9,5,5,1,-5
32,76,34,1,80,4,2,9,7,7,1,-4
33,78,35,1,80,6,2,9,9,9,1,-3
34,79,36,1,105,7,1,9,10,10,1,-2
35,78,37,1,80,6,-1,9,9,9,-1,-3
36,76,38,1,80,4,-2,9,7,7,-1,-4
37,78,39,1,95,6,2,9,9,9,1,-3
38,74,40,1,80,2,-4,9,5,5,-1,-4
39,71,41,1,80,11,-3,9,2,2,-1,-5
40,71,42,1,105,11,0,9,2,2,0,-5
41,69,43,1,80,9,-2,9,0,0,-1,-6
42,67,44,1,80,7,-2,9,-2,10,-1,-7
43,69,45,3,95,9,2,9,0,0,1,-6
44,69,48,1,105,9,0,9,0,0,0,-6
45,71,49,1,80,11,2,9,2,2,1,-5
46,69,50,1,80,9,-2,9,0,0,-1,-6
47,69,51,1,95,9,0,9,0,0,0,-6
48,71,52,1,80,11,2,9,2,2,1,-5
49,79,53,1,80,7,8,9,10,10,1,-4
50,76,54,1,105,4,-3,9,7,7,-1,-5
51,74,55,1,80,2,-2,9,5,5,-1,-6
52,71,56,1,80,11,-3,9,2,2,-1,-7
53,79,57,1,95,7,8,9,10,10,1,-6
54,74,58,1,80,2,-5,9,5,5,-1,-7
55,71,59,1,80,11,-3,9,2,2,-1,-8
56,67,60,3,105,7,-4,9,-2,10,-1,-9
57,71,63,1,95,11,4,9,2,2,1,-8
58,69,64,1,80,9,-2,9,0,0,-1,-9
59,67,65,1,80,7,-2,9,-2,10,-1,-10
60,74,66,1,105,2,7,9,5,5,1,-9
61,71,67,1,80,11,-3,9,2,2,-1,-10
62,67,68,1,80,7,-4,9,-2,10,-1,-11
63,69,69,1,95,9,2,9,0,0,1,-10
64,67,70,1,80,7,-2,9,-2,10,-1,-11
65,64,71,1,80,4,-3,9,-5,7,-1,-12
66,69,72,1,105,9,5,9,0,0,1,-11
67,71,73,1,80,11,2,9,2,2,1,-10
68,69,74,1,80,9,-2,9,0,0,-1,-11
69,69,75,1,95,9,0,9,0,0,0,-11
70,71,76,1,80,11,2,9,2,2,1,-10
71,79,77,1,80,7,8,9,10,10,1,-9
72,76,78,1,105,4,-3,9,7,7,-1,-10
73,74,79,1,80,2,-2,9,5,5,-1,-11
74,71,80,1,80,11,-3,9,2,2,-1,-12
75,74,81,1,95,2,3,9,5,5,1,-11
76,76,82,1,80,4,2,9,7,7,1,-10
77,78,83,1,80,6,2,9,9,9,1,-9
78,79,84,1,105,7,1,9,10,10,1,-8
79,78,85,1,80,6,-1,9,9,9,-1,-9
80,76,86,1,80,4,-2,9,7,7,-1,-10
81,78,87,1,95,6,2,9,9,9,1,-9
82,74,88,1,80,2,-4,9,5,5,-1,-10
83,71,89,1,80,11,-3,9,2,2,-1,-11
84,71,90,1,105,11,0,9,2,2,0,-11
85,69,91,1,80,9,-2,9,0,0,-1,-12
86,67,92,1,80,7,-2,9,-2,10,-1,-13
87,69,93,3,95,9,2,9,0,0,1,-12
88,81,96,3,105,9,12,9,12,0,1,-11
89,81,99,1,95,9,0,9,12,0,0,-11
90,79,100,1,80,7,-2,9,10,10,-1,-12
91,76,101,1,80,4,-3,9,7,7,-1,-13
92,81,102,1,105,9,5,9,12,0,1,-12
93,83,103,1,80,11,2,9,14,2,1,-11
94,81,104,1,80,9,-2,9,12,0,-1,-12
95,81,105,1,95,9,0,9,12,0,0,-12
96,79,106,1,80,7,-2,9,10,10,-1,-13
97,76,107,1,80,4,-3,9,7,7,-1,-14
98,79,108,3,105,7,3,9,10,10,1,-13
99,79,111,1,95,7,0,9,10,10,0,-13
100,74,112,1,80,2,-5,9,5,5,-1,-14
101,71,113,1,80,11,-3,9,2,2,-1,-15
102,67,114,1,105,7,-4,9,-2,10,-1,-16
103,69,115,1,80,9,2,9,0,0,1,-15
104,71,116,1,80,11,2,9,2,2,1,-14
105,74,117,1,95,2,3,9,5,5,1,-13
106,76,118,1,80,4,2,9,7,7,1,-12
107,78,119,1,80,6,2,9,9,9,1,-11
108,81,120,3,105,9,3,9,12,0,1,-10
109,81,123,1,95,9,0,9,12,0,0,-10
110,79,124,1,80,7,-2,9,10,10,-1,-11
111,76,125,1,80,4,-3,9,7,7,-1,-12
112,76,126,1,105,4,0,9,7,7,0,-12
113,74,127,1,80,2,-2,9,5,5,-1,-13
114,71,128,1,80,11,-3,9,2,2,-1,-14
115,74,129,1,95,2,3,9,5,5,1,-13
116,76,130,1,80,4,2,9,7,7,1,-12
117,78,131,1,80,6,2,9,9,9,1,-11
118,79,132,1,105,7,1,9,10,10,1,-10
119,78,133,1,80,6,-1,9,9,9,-1,-11
120,76,134,1,80,4,-2,9,7,7,-1,-12
121,78,135,1,95,6,2,9,9,9,1,-11
122,74,136,1,80,2,-4,9,5,5,-1,-12
123,71,137,1,80,11,-3,9,2,2,-1,-13
124,71,138,1,105,11,0,9,2,2,0,-13
125,69,139,1,80,9,-2,9,0,0,-1,-14
126,67,140,1,80,7,-2,9,-2,10,-1,-15
127,69,141,3,95,9,2,9,0,0,1,-14
128,81,144,3,105,9,12,9,12,0,1,-13
129,81,147,1,95,9,0,9,12,0,0,-13
130,79,148,1,80,7,-2,9,10,10,-1,-14
131,76,149,1,80,4,-3,9,7,7,-1,-15
132,81,150,1,105,9,5,9,12,0,1,-14
133,83,151,1,80,11,2,9,14,2,1,-13
134,81,152,1,80,9,-2,9,12,0,-1,-14
135,81,153,1,95,9,0,9,12,0,0,-14
136,79,154,1,80,7,-2,9,10,10,-1,-15
137,76,155,1,80,4,-3,9,7,7,-1,-16
138,79,156,3,105,7,3,9,10,10,1,-15
139,79,159,1,95,7,0,9,10,10,0,-15
140,74,160,1,80,2,-5,9,5,5,-1,-16
141,71,161,1,80,11,-3,9,2,2,-1,-17
142,67,162,1,105,7,-4,9,-2,10,-1,-18
143,69,163,1,80,9,2,9,0,0,1,-17
144,71,164,1,80,11,2,9,2,2,1,-16
145,74,165,1,95,2,3,9,5,5,1,-15
146,76,166,1,80,4,2,9,7,7,1,-14
147,78,167,1,80,6,2,9,9,9,1,-13
148,81,168,3,105,9,3,9,12,0,1,-12
149,81,171,1,95,9,0,9,12,0,0,-12
150,79,172,1,80,7,-2,9,10,10,-1,-13
151,76,173,1,80,4,-3,9,7,7,-1,-14
152,76,174,1,105,4,0,9,7,7,0,-14
153,74,175,1,80,2,-2,9,5,5,-1,-15
154,71,176,1,80,11,-3,9,2,2,-1,-16
155,74,177,1,95,2,3,9,5,5,1,-15
156,76,178,1,80,4,2,9,7,7,1,-14
157,78,179,1,80,6,2,9,9,9,1,-13
158,79,180,1,105,7,1,9,10,10,1,-12
159,78,181,1,80,6,-1,9,9,9,-1,-13
160,76,182,1,80,4,-2,9,7,7,-1,-14
161,78,183,1,95,6,2,9,9,9,1,-13
162,74,184,1,80,2,-4,9,5,5,-1,-14
163,71,185,1,80,11,-3,9,2,2,-1,-15
164,71,186,1,105,11,0,9,2,2,0,-15
165,69,187,1,80,9,-2,9,0,0,-1,-16
166,67,188,1,80,7,-2,9,-2,10,-1,-17
167,69,189,3,95,9,2,9,0,0,1,-16
