,midi_note,onset,duration,velocity,pitch_class,interval,root,relative_pitch,relative_pitch_class,parsons_code,parsons_cumsum
0,74,0,0,105,2,0,7,7,7,0,0
1,72,0,0,80,0,-2,7,5,5,-1,-1
2,71,1,1,105,11,-1,7,4,4,-1,-2
3,67,2,1,80,7,-4,7,0,0,-1,-3
4,67,3,1,80,7,0,7,0,0,0,-3
5,62,4,1,95,2,-5,7,-5,7,-1,-4
6,67,5,1,80,7,5,7,0,0,1,-3
7,67,6,1,80,7,0,7,0,0,0,-3
8,64,7,1,105,4,-3,7,-3,9,-1,-4
9,67,8,1,80,7,3,7,0,0,1,-3
10,64,9,1,80,4,-3,7,-3,9,-1,-4
11,62,10,1,95,2,-2,7,-5,7,-1,-5
12,59,11,1,80,11,-3,7,-8,4,-1,-6
13,55,12,1,80,7,-4,7,-12,0,-1,-7
14,60,13,1,105,0,5,7,-7,5,1,-6
15,64,14,1,80,4,4,7,-3,9,1,-5
16,67,15,1,80,7,3,7,0,0,1,-4
17,59,16,1,95,11,-8,7,-8,4,-1,-5
18,62,17,1,80,2,3,7,-5,7,1,-4
19,67,18,1,80,7,5,7,0,0,1,-3
20,64,19,1,105,4,-3,7,-3,9,-1,-4
21,66,20,1,80,6,2,7,-1,11,1,-3
22,67,21,1,80,7,1,7,0,0,1,-2
23,69,22,2,95,9,2,7,2,2,1,-1
24,74,24,0,80,2,5,7,7,7,1,0
25,72,24,0,80,0,-2,7,5,5,-1,-1
26,71,25,1,105,11,-1,7,4,4,-1,-2
27,67,26,1,80,7,-4,7,0,0,-1,-3
28,67,27,1,80,7,0,7,0,0,0,-3
29,62,28,1,95,2,-5,7,-5,7,-1,-4
30,67,29,1,80,7,5,7,0,0,1,-3
31,67,30,1,80,7,0,7,0,0,0,-3
32,64,31,1,105,4,-3,7,-3,9,-1,-4
33,67,32,1,80,7,3,7,0,0,1,-3
34,64,33,1,80,4,-3,7,-3,9,-1,-4
35,62,34,1,95,2,-2,7,-5,7,-1,-5
36,59,35,1,80,11,-3,7,-8,4,-1,-6
37,55,36,1,80,7,-4,7,-12,0,-1,-7
38,60,37,1,105,0,5,7,-7,5,1,-6
39,64,38,1,80,4,4,7,-3,9,1,-5
40,67,39,1,80,7,3,7,0,0,1,-4
41,62,40,1,95,2,-5,7,-5,7,-1,-5
42,67,41,1,80,7,5,7,0,0,1,-4
43,71,42,1,80,11,4,7,4,4,1,-3
44,69,43,1,105,9,-2,7,2,2,-1,-4
45,66,44,1,80,6,-3,7,-1,11,-1,-5
46,62,45,1,80,2,-4,7,-5,7,-1,-6
47,67,46,2,95,7,5,7,0,0,1,-5
48,74,48,0,80,2,7,7,7,7,1,-4
49,72,48,0,80,0,-2,7,5,5,-1,-5
50,71,49,1,105,11,-1,7,4,4,-1,-6
51,67,50,1,80,7,-4,7,0,0,-1,-7
52,67,51,1,80,7,0,7,0,0,0,-7
53,62,52,1,95,2,-5,7,-5,7,-1,-8
54,67,53,1,80,7,5,7,0,0,1,-7
55,67,54,1,80,7,0,7,0,0,0,-7
56,64,55,1,105,4,-3,7,-3,9,-1,-8
57,67,56,1,80,7,3,7,0,0,1,-7
58,64,57,1,80,4,-3,7,-3,9,-1,-8
59,62,58,1,95,2,-2,7,-5,7,-1,-9
60,59,59,1,80,11,-3,7,-8,4,-1,-10
61,55,60,1,80,7,-4,7,-12,0,-1,-11
62,60,61,1,105,0,5,7,-7,5,1,-10
63,64,62,1,80,4,4,7,-3,9,1,-9
64,67,63,1,80,7,3,7,0,0,1,-8
65,59,64,1,95,11,-8,7,-8,4,-1,-9
66,62,65,1,80,2,3,7,-5,7,1,-8
67,67,66,1,80,7,5,7,0,0,1,-7
68,64,67,1,105,4,-3,7,-3,9,-1,-8
69,66,68,1,80,6,2,7,-1,11,1,-7
70,67,69,1,80,7,1,7,0,0,1,-6
71,69,70,2,95,9,2,7,2,2,1,-5
72,74,72,0,80,2,5,7,7,7,1,-4
73,72,72,0,80,0,-2,7,5,5,-1,-5
74,71,73,1,105,11,-1,7,4,4,-1,-6
75,67,74,1,80,7,-4,7,0,0,-1,-7
76,67,75,1,80,7,0,7,0,0,0,-7
77,62,76,1,95,2,-5,7,-5,7,-1,-8
78,67,77,1,80,7,5,7,0,0,1,-7
79,67,78,1,80,7,0,7,0,0,0,-7
80,64,79,1,105,4,-3,7,-3,9,-1,-8
81,67,80,1,80,7,3,7,0,0,1,-7
82,64,81,1,80,4,-3,7,-3,9,-1,-8
83,62,82,1,95,2,-2,7,-5,7,-1,-9
84,59,83,1,80,11,-3,7,-8,4,-1,-10
85,55,84,1,80,7,-4,7,-12,0,-1,-11
86,60,85,1,105,0,5,7,-7,5,1,-10
87,64,86,1,80,4,4,7,-3,9,1,-9
88,67,87,1,80,7,3,7,0,0,1,-8
89,62,88,1,95,2,-5,7,-5,7,-1,-9
90,67,89,1,80,7,5,7,0,0,1,-8
91,71,90,1,80,11,4,7,4,4,1,-7
92,69,91,1,105,9,-2,7,2,2,-1,-8
93,66,92,1,80,6,-3,7,-1,11,-1,-9
94,62,93,1,80,2,-4,7,-5,7,-1,-10
95,67,94,2,95,7,5,7,0,0,1,-9
96,71,96,0,80,11,4,7,4,4,1,-8
97,72,96,0,80,0,1,7,5,5,1,-7
98,74,97,1,105,2,2,7,7,7,1,-6
99,79,98,1,80,7,5,7,12,0,1,-5
100,74,99,1,80,2,-5,7,7,7,-1,-6
101,76,100,1,95,4,2,7,9,9,1,-5
102,72,101,1,80,0,-4,7,5,5,-1,-6
103,69,102,1,80,9,-3,7,2,2,-1,-7
104,74,103,1,105,2,5,7,7,7,1,-6
105,71,104,1,80,11,-3,7,4,4,-1,-7
106,67,105,1,80,7,-4,7,0,0,-1,-8
107,69,106,1,95,9,2,7,2,2,1,-7
108,66,107,1,80,6,-3,7,-1,11,-1,-8
109,62,108,1,80,2,-4,7,-5,7,-1,-9
110,74,109,1,105,2,12,7,7,7,1,-8
111,79,110,1,80,7,5,7,12,0,1,-7
112,74,111,1,80,2,-5,7,7,7,-1,-8
113,76,112,1,95,4,2,7,9,9,1,-7
114,81,113,1,80,9,5,7,14,2,1,-6
115,79,114,1,80,7,-2,7,12,0,-1,-7
116,78,115,1,105,6,-1,7,11,11,-1,-8
117,76,116,1,80,4,-2,7,9,9,-1,-9
118,78,117,1,80,6,2,7,11,11,1,-8
119,79,118,2,95,7,1,7,12,0,1,-7
120,78,120,0,80,6,-1,7,11,11,-1,-8
121,79,120,0,80,7,1,7,12,0,1,-7
122,81,121,1,105,9,2,7,14,2,1,-6
123,78,122,1,80,6,-3,7,11,11,-1,-7
124,74,123,1,80,2,-4,7,7,7,-1,-8
125,79,124,1,95,7,5,7,12,0,1,-7
126,74,125,1,80,2,-5,7,7,7,-1,-8
127,71,126,1,80,11,-3,7,4,4,-1,-9
128,76,127,1,105,4,5,7,9,9,1,-8
129,72,128,1,80,0,-4,7,5,5,-1,-9
130,69,129,1,80,9,-3,7,2,2,-1,-10
131,74,130,1,95,2,5,7,7,7,1,-9
132,71,131,1,80,11,-3,7,4,4,-1,-10
133,67,132,1,80,7,-4,7,0,0,-1,-11
134,64,133,1,105,4,-3,7,-3,9,-1,-12
135,66,134,1,80,6,2,7,-1,11,1,-11
136,67,135,1,80,7,1,7,0,0,1,-10
137,69,136,1,95,9,2,7,2,2,1,-9
138,74,137,1,80,2,5,7,7,7,1,-8
139,72,138,1,80,0,-2,7,5,5,-1,-9
140,71,139,1,105,11,-1,7,4,4,-1,-10
141,67,140,1,80,7,-4,7,0,0,-1,-11
142,67,141,1,80,7,0,7,0,0,0,-11
143,67,142,2,95,7,0,7,0,0,0,-11
144,71,144,0,80,11,4,7,4,4,1,-10
145,72,144,0,80,0,1,7,5,5,1,-9
146,74,145,1,105,2,2,7,7,7,1,-8
147,79,146,1,80,7,5,7,12,0,1,-7
148,74,147,1,80,2,-5,7,7,7,-1,-8
149,76,148,1,95,4,2,7,9,9,1,-7
150,72,149,1,80,0,-4,7,5,5,-1,-8
151,69,150,1,80,9,-3,7,2,2,-1,-9
152,74,151,1,105,2,5,7,7,7,1,-8
153,71,152,1,80,11,-3,7,4,4,-1,-9
154,67,153,1,80,7,-4,7,0,0,-1,-10
155,69,154,1,95,9,2,7,2,2,1,-9
156,66,155,1,80,6,-3,7,-1,11,-1,-10
157,62,156,1,80,2,-4,7,-5,7,-1,-11
158,74,157,1,105,2,12,7,7,7,1,-10
159,79,158,1,80,7,5,7,12,0,1,-9
160,74,159,1,80,2,-5,7,7,7,-1,-10
161,76,160,1,95,4,2,7,9,9,1,-9
162,81,161,1,80,9,5,7,14,2,1,-8
163,79,162,1,80,7,-2,7,12,0,-1,-9
164,78,163,1,105,6,-1,7,11,11,-1,-10
165,76,164,1,80,4,-2,7,9,9,-1,-11
166,78,165,1,80,6,2,7,11,11,1,-10
167,79,166,2,95,7,1,7,12,0,1,-9
168,78,168,0,80,6,-1,7,11,11,-1,-10
169,79,168,0,80,7,1,7,12,0,1,-9
170,81,169,1,105,9,2,7,14,2,1,-8
171,78,170,1,80,6,-3,7,11,11,-1,-9
172,74,171,1,80,2,-4,7,7,7,-1,-10
173,79,172,1,95,7,5,7,12,0,1,-9
174,74,173,1,80,2,-5,7,7,7,-1,-10
175,71,174,1,80,11,-3,7,4,4,-1,-11
176,76,175,1,105,4,5,7,9,9,1,-10
177,72,176,1,80,0,-4,7,5,5,-1,-11
178,69,177,1,80,9,-3,7,2,2,-1,-12
179,74,178,1,95,2,5,7,7,7,1,-11
180,71,179,1,80,11,-3,7,4,4,-1,-12
181,67,180,1,80,7,-4,7,0,0,-1,-13
182,64,181,1,105,4,-3,7,-3,9,-1,-14
183,66,182,1,80,6,2,7,-1,11,1,-13
184,67,183,1,80,7,1,7,0,0,1,-12
185,69,184,1,95,9,2,7,2,2,1,-11
186,74,185,1,80,2,5,7,7,7,1,-10
187,72,186,1,80,0,-2,7,5,5,-1,-11
188,71,187,1,105,11,-1,7,4,4,-1,-12
189,67,188,1,80,7,-4,7,0,0,-1,-13
190,67,189,1,80,7,0,7,0,0,0,-13
191,67,190,2,95,7,0,7,0,0,0,-13
