,midi_note,onset,duration,velocity,pitch_class,interval,root,relative_pitch,relative_pitch_class,parsons_code,parsons_cumsum
0,74,0,1,105,2,0,2,12,0,0,0
1,71,1,1,80,11,-3,2,9,9,-1,-1
2,69,2,1,105,9,-2,2,7,7,-1,-2
3,66,3,1,80,6,-3,2,4,4,-1,-3
4,66,4,0,80,6,0,2,4,4,0,-3
5,66,4,0,80,6,0,2,4,4,0,-3
6,66,5,0,80,6,0,2,4,4,0,-3
7,69,6,1,95,9,3,2,7,7,1,-2
8,66,7,1,80,6,-3,2,4,4,-1,-3
9,69,8,1,80,9,3,2,7,7,1,-2
10,71,9,1,80,11,2,2,9,9,1,-1
11,74,10,1,105,2,3,2,12,0,1,0
12,76,11,1,80,4,2,2,14,2,1,1
13,78,12,1,80,6,2,2,16,4,1,2
14,74,13,1,80,2,-4,2,12,0,-1,1
15,76,14,1,95,4,2,2,14,2,1,2
16,78,15,1,80,6,2,2,16,4,1,3
17,74,16,1,80,2,-4,2,12,0,-1,2
18,71,17,1,80,11,-3,2,9,9,-1,1
19,69,18,1,105,9,-2,2,7,7,-1,0
20,66,19,1,80,6,-3,2,4,4,-1,-1
21,66,20,0,80,6,0,2,4,4,0,-1
22,66,20,0,80,6,0,2,4,4,0,-1
23,66,21,0,80,6,0,2,4,4,0,-1
24,62,22,1,95,2,-4,2,0,0,-1,-2
25,66,23,1,80,6,4,2,4,4,1,-1
26,66,24,0,80,6,0,2,4,4,0,-1
27,66,24,0,80,6,0,2,4,4,0,-1
28,66,25,0,80,6,0,2,4,4,0,-1
29,74,26,1,105,2,8,2,12,0,1,0
30,66,27,1,80,6,-8,2,4,4,-1,-1
31,66,28,0,80,6,0,2,4,4,0,-1
32,66,28,0,80,6,0,2,4,4,0,-1
33,66,29,0,80,6,0,2,4,4,0,-1
34,64,30,1,95,4,-2,2,2,2,-1,-2
35,66,31,1,80,6,2,2,4,4,1,-1
36,67,32,1,80,7,1,2,5,5,1,0
37,71,33,1,80,11,4,2,9,9,1,1
38,69,34,1,105,9,-2,2,7,7,-1,0
39,66,35,1,80,6,-3,2,4,4,-1,-1
40,66,36,0,80,6,0,2,4,4,0,-1
41,66,36,0,80,6,0,2,4,4,0,-1
42,66,37,0,80,6,0,2,4,4,0,-1
43,69,38,1,95,9,3,2,7,7,1,0
44,66,39,1,80,6,-3,2,4,4,-1,-1
45,69,40,1,80,9,3,2,7,7,1,0
46,71,41,1,80,11,2,2,9,9,1,1
47,74,42,1,105,2,3,2,12,0,1,2
48,76,43,1,80,4,2,2,14,2,1,3
49,78,44,1,80,6,2,2,16,4,1,4
50,74,45,1,80,2,-4,2,12,0,-1,3
51,76,46,1,95,4,2,2,14,2,1,4
52,78,47,1,80,6,2,2,16,4,1,5
53,74,48,1,80,2,-4,2,12,0,-1,4
54,71,49,1,80,11,-3,2,9,9,-1,3
55,69,50,1,105,9,-2,2,7,7,-1,2
56,66,51,1,80,6,-3,2,4,4,-1,1
57,66,52,0,80,6,0,2,4,4,0,1
58,66,52,0,80,6,0,2,4,4,0,1
59,66,53,0,80,6,0,2,4,4,0,1
60,74,54,1,95,2,8,2,12,0,1,2
61,66,55,1,80,6,-8,2,4,4,-1,1
62,66,56,0,80,6,0,2,4,4,0,1
63,66,56,0,80,6,0,2,4,4,0,1
64,66,57,0,80,6,0,2,4,4,0,1
65,67,58,1,105,7,1,2,5,5,1,2
66,66,59,1,80,6,-1,2,4,4,-1,1
67,64,60,1,80,4,-2,2,2,2,-1,0
68,67,61,1,80,7,3,2,5,5,1,1
69,66,62,1,95,6,-1,2,4,4,-1,0
70,62,63,1,80,2,-4,2,0,0,-1,-1
71,64,64,0,80,4,2,2,2,2,1,0
72,66,64,0,80,6,2,2,4,4,1,1
73,67,65,0,80,7,1,2,5,5,1,2
74,69,66,1,105,9,2,2,7,7,1,3
75,66,67,1,80,6,-3,2,4,4,-1,2
76,67,68,1,80,7,1,2,5,5,1,3
77,71,69,1,80,11,4,2,9,9,1,4
78,69,70,1,95,9,-2,2,7,7,-1,3
79,62,71,1,80,2,-7,2,0,0,-1,2
80,66,72,1,80,6,4,2,4,4,1,3
81,69,73,1,80,9,3,2,7,7,1,4
82,74,74,1,105,2,5,2,12,0,1,5
83,76,75,1,80,4,2,2,14,2,1,6
84,73,76,1,80,1,-3,2,11,11,-1,5
85,74,77,1,80,2,1,2,12,0,1,6
86,71,78,1,95,11,-3,2,9,9,-1,5
87,73,79,1,80,1,2,2,11,11,1,6
88,74,80,1,80,2,1,2,12,0,1,7
89,71,81,1,80,11,-3,2,9,9,-1,6
90,69,82,1,105,9,-2,2,7,7,-1,5
91,66,83,1,80,6,-3,2,4,4,-1,4
92,62,84,1,80,2,-4,2,0,0,-1,3
93,66,85,1,80,6,4,2,4,4,1,4
94,69,86,1,95,9,3,2,7,7,1,5
95,66,87,1,80,6,-3,2,4,4,-1,4
96,62,88,1,80,2,-4,2,0,0,-1,3
97,66,89,1,80,6,4,2,4,4,1,4
98,67,90,0,105,7,1,2,5,5,1,5
99,66,90,0,80,6,-1,2,4,4,-1,4
100,64,91,0,80,4,-2,2,2,2,-1,3
101,66,92,1,80,6,2,2,4,4,1,4
102,62,93,1,80,2,-4,2,0,0,-1,3
103,64,94,1,95,4,2,2,2,2,1,4
104,66,95,1,80,6,2,2,4,4,1,5
105,67,96,1,80,7,1,2,5,5,1,6
106,71,97,1,80,11,4,2,9,9,1,7
107,69,98,0,105,9,-2,2,7,7,-1,6
108,71,98,0,80,11,2,2,9,9,1,7
109,69,99,0,80,9,-2,2,7,7,-1,6
110,67,100,1,80,7,-2,2,5,5,-1,5
111,71,101,1,80,11,4,2,9,9,1,6
112,69,102,1,95,9,-2,2,7,7,-1,5
113,71,103,1,80,11,2,2,9,9,1,6
114,73,104,1,80,1,2,2,11,11,1,7
115,69,105,1,80,9,-4,2,7,7,-1,6
116,74,106,1,105,2,5,2,12,0,1,7
117,76,107,1,80,4,2,2,14,2,1,8
118,78,108,1,80,6,2,2,16,4,1,9
119,74,109,1,80,2,-4,2,12,0,-1,8
120,71,110,1,95,11,-3,2,9,9,-1,7
121,73,111,1,80,1,2,2,11,11,1,8
122,74,112,1,80,2,1,2,12,0,1,9
123,71,113,1,80,11,-3,2,9,9,-1,8
124,69,114,1,105,9,-2,2,7,7,-1,7
125,66,115,1,80,6,-3,2,4,4,-1,6
126,66,116,0,80,6,0,2,4,4,0,6
127,66,116,0,80,6,0,2,4,4,0,6
128,66,117,0,80,6,0,2,4,4,0,6
129,62,118,1,95,2,-4,2,0,0,-1,5
130,66,119,1,80,6,4,2,4,4,1,6
131,66,120,0,80,6,0,2,4,4,0,6
132,66,120,0,80,6,0,2,4,4,0,6
133,66,121,0,80,6,0,2,4,4,0,6
134,67,122,1,105,7,1,2,5,5,1,7
135,66,123,1,80,6,-1,2,4,4,-1,6
136,64,124,1,80,4,-2,2,2,2,-1,5
137,67,125,1,80,7,3,2,5,5,1,6
138,66,126,1,95,6,-1,2,4,4,-1,5
139,62,127,1,80,2,-4,2,0,0,-1,4
140,66,128,1,80,6,4,2,4,4,1,5
141,64,129,1,80,4,-2,2,2,2,-1,4
142,62,130,1,105,2,-2,2,0,0,-1,3
143,81,131,1,80,9,19,2,19,7,1,4
144,81,132,1,80,9,0,2,19,7,0,4
145,79,133,1,80,7,-2,2,17,5,-1,3
146,78,134,1,95,6,-1,2,16,4,-1,2
147,79,135,1,80,7,1,2,17,5,1,3
148,76,136,1,80,4,-3,2,14,2,-1,2
149,73,137,1,80,1,-3,2,11,11,-1,1
150,74,138,1,105,2,1,2,12,0,1,2
151,76,139,1,80,4,2,2,14,2,1,3
152,78,140,1,80,6,2,2,16,4,1,4
153,74,141,1,80,2,-4,2,12,0,-1,3
154,71,142,1,95,11,-3,2,9,9,-1,2
155,73,143,1,80,1,2,2,11,11,1,3
156,74,144,1,80,2,1,2,12,0,1,4
157,71,145,1,80,11,-3,2,9,9,-1,3
158,69,146,1,105,9,-2,2,7,7,-1,2
159,66,147,1,80,6,-3,2,4,4,-1,1
160,66,148,0,80,6,0,2,4,4,0,1
161,66,148,0,80,6,0,2,4,4,0,1
162,66,149,0,80,6,0,2,4,4,0,1
163,74,150,1,95,2,8,2,12,0,1,2
164,66,151,1,80,6,-8,2,4,4,-1,1
165,66,152,0,80,6,0,2,4,4,0,1
166,66,152,0,80,6,0,2,4,4,0,1
167,66,153,0,80,6,0,2,4,4,0,1
168,64,154,3,105,4,-2,2,2,2,-1,0
169,66,157,1,80,6,2,2,4,4,1,1
170,64,158,2,95,4,-2,2,2,2,-1,0
171,66,160,1,80,6,2,2,4,4,1,1
172,64,161,1,80,4,-2,2,2,2,-1,0
173,62,162,1,105,2,-2,2,0,0,-1,-1
174,81,163,1,80,9,19,2,19,7,1,0
175,81,164,1,80,9,0,2,19,7,0,0
176,79,165,1,80,7,-2,2,17,5,-1,-1
177,78,166,1,95,6,-1,2,16,4,-1,-2
178,79,167,1,80,7,1,2,17,5,1,-1
179,76,168,1,80,4,-3,2,14,2,-1,-2
180,73,169,1,80,1,-3,2,11,11,-1,-3
181,74,170,1,105,2,1,2,12,0,1,-2
182,76,171,1,80,4,2,2,14,2,1,-1
183,78,172,1,80,6,2,2,16,4,1,0
184,74,173,1,80,2,-4,2,12,0,-1,-1
185,71,174,1,95,11,-3,2,9,9,-1,-2
186,73,175,1,80,1,2,2,11,11,1,-1
187,74,176,1,80,2,1,2,12,0,1,0
188,71,177,1,80,11,-3,2,9,9,-1,-1
189,69,178,1,105,9,-2,2,7,7,-1,-2
190,66,179,1,80,6,-3,2,4,4,-1,-3
191,66,180,0,80,6,0,2,4,4,0,-3
192,66,180,0,80,6,0,2,4,4,0,-3
193,66,181,0,80,6,0,2,4,4,0,-3
194,74,182,1,95,2,8,2,12,0,1,-2
195,66,183,1,80,6,-8,2,4,4,-1,-3
196,66,184,0,80,6,0,2,4,4,0,-3
197,66,184,0,80,6,0,2,4,4,0,-3
198,66,185,0,80,6,0,2,4,4,0,-3
199,67,186,1,105,7,1,2,5,5,1,-2
200,66,187,1,80,6,-1,2,4,4,-1,-3
201,64,188,1,80,4,-2,2,2,2,-1,-4
202,67,189,1,80,7,3,2,5,5,1,-3
203,66,190,1,95,6,-1,2,4,4,-1,-4
204,62,191,1,80,2,-4,2,0,0,-1,-5
205,62,192,2,80,2,0,2,0,0,0,-5
206,62,194,1,105,2,0,2,0,0,0,-5
207,81,195,1,80,9,19,2,19,7,1,-4
208,81,196,1,80,9,0,2,19,7,0,-4
209,79,197,1,80,7,-2,2,17,5,-1,-5
210,78,198,1,95,6,-1,2,16,4,-1,-6
211,79,199,1,80,7,1,2,17,5,1,-5
212,76,200,1,80,4,-3,2,14,2,-1,-6
213,73,201,1,80,1,-3,2,11,11,-1,-7
214,74,202,1,105,2,1,2,12,0,1,-6
215,76,203,1,80,4,2,2,14,2,1,-5
216,78,204,1,80,6,2,2,16,4,1,-4
217,74,205,1,80,2,-4,2,12,0,-1,-5
218,71,206,1,95,11,-3,2,9,9,-1,-6
219,73,207,1,80,1,2,2,11,11,1,-5
220,74,208,1,80,2,1,2,12,0,1,-4
221,71,209,1,80,11,-3,2,9,9,-1,-5
222,69,210,1,105,9,-2,2,7,7,-1,-6
223,66,211,1,80,6,-3,2,4,4,-1,-7
224,66,212,0,80,6,0,2,4,4,0,-7
225,66,212,0,80,6,0,2,4,4,0,-7
226,66,213,0,80,6,0,2,4,4,0,-7
227,74,214,1,95,2,8,2,12,0,1,-6
228,66,215,1,80,6,-8,2,4,4,-1,-7
229,66,216,0,80,6,0,2,4,4,0,-7
230,66,216,0,80,6,0,2,4,4,0,-7
231,66,217,0,80,6,0,2,4,4,0,-7
232,64,218,3,105,4,-2,2,2,2,-1,-8
233,66,221,1,80,6,2,2,4,4,1,-7
234,64,222,3,95,4,-2,2,2,2,-1,-8
235,62,225,1,80,2,-2,2,0,0,-1,-9
236,78,226,0,105,6,16,2,16,4,1,-8
237,79,226,0,80,7,1,2,17,5,1,-7
238,78,227,0,80,6,-1,2,16,4,-1,-8
239,79,228,1,80,7,1,2,17,5,1,-7
240,78,229,1,80,6,-1,2,16,4,-1,-8
241,76,230,1,95,4,-2,2,14,2,-1,-9
242,79,231,1,80,7,3,2,17,5,1,-8
243,78,232,1,80,6,-1,2,16,4,-1,-9
244,76,233,1,80,4,-2,2,14,2,-1,-10
245,74,234,1,105,2,-2,2,12,0,-1,-11
246,76,235,1,80,4,2,2,14,2,1,-10
247,78,236,1,80,6,2,2,16,4,1,-9
248,74,237,1,80,2,-4,2,12,0,-1,-10
249,73,238,1,95,1,-1,2,11,11,-1,-11
250,74,239,1,80,2,1,2,12,0,1,-10
251,71,240,1,80,11,-3,2,9,9,-1,-11
252,73,241,1,80,1,2,2,11,11,1,-10
253,69,242,1,105,9,-4,2,7,7,-1,-11
254,66,243,1,80,6,-3,2,4,4,-1,-12
255,66,244,0,80,6,0,2,4,4,0,-12
256,66,244,0,80,6,0,2,4,4,0,-12
257,66,245,0,80,6,0,2,4,4,0,-12
258,62,246,1,95,2,-4,2,0,0,-1,-13
259,66,247,1,80,6,4,2,4,4,1,-12
260,66,248,0,80,6,0,2,4,4,0,-12
261,66,248,0,80,6,0,2,4,4,0,-12
262,66,249,0,80,6,0,2,4,4,0,-12
263,67,250,1,105,7,1,2,5,5,1,-11
264,66,251,1,80,6,-1,2,4,4,-1,-12
265,64,252,1,80,4,-2,2,2,2,-1,-13
266,67,253,1,80,7,3,2,5,5,1,-12
267,66,254,1,95,6,-1,2,4,4,-1,-13
268,62,255,1,80,2,-4,2,0,0,-1,-14
269,62,256,2,80,2,0,2,0,0,0,-14
