,midi_note,onset,duration,velocity,pitch_class,interval,root,relative_pitch,relative_pitch_class,parsons_code,parsons_cumsum
0,74,0,1,105,2,0,7,7,7,0,0
1,71,1,1,105,11,-3,7,4,4,-1,-1
2,67,2,1,80,7,-4,7,0,0,-1,-2
3,71,3,1,80,11,4,7,4,4,1,-1
4,74,4,1,95,2,3,7,7,7,1,0
5,71,5,1,80,11,-3,7,4,4,-1,-1
6,67,6,1,80,7,-4,7,0,0,-1,-2
7,72,7,1,105,0,5,7,5,5,1,-1
8,69,8,1,80,9,-3,7,2,2,-1,-2
9,67,9,1,80,7,-2,7,0,0,-1,-3
10,66,10,1,95,6,-1,7,-1,11,-1,-4
11,67,11,1,80,7,1,7,0,0,1,-3
12,69,12,1,80,9,2,7,2,2,1,-2
13,71,13,1,105,11,2,7,4,4,1,-1
14,67,14,1,80,7,-4,7,0,0,-1,-2
15,71,15,1,80,11,4,7,4,4,1,-1
16,74,16,1,95,2,3,7,7,7,1,0
17,71,17,1,80,11,-3,7,4,4,-1,-1
18,67,18,1,80,7,-4,7,0,0,-1,-2
19,72,19,1,105,0,5,7,5,5,1,-1
20,69,20,1,80,9,-3,7,2,2,-1,-2
21,66,21,1,80,6,-3,7,-1,11,-1,-3
22,67,22,2,95,7,1,7,0,0,1,-2
23,69,24,1,80,9,2,7,2,2,1,-1
24,71,25,1,105,11,2,7,4,4,1,0
25,67,26,1,80,7,-4,7,0,0,-1,-1
26,71,27,1,80,11,4,7,4,4,1,0
27,71,28,1,95,11,0,7,4,4,0,0
28,67,29,1,80,7,-4,7,0,0,-1,-1
29,71,30,1,80,11,4,7,4,4,1,0
30,69,31,1,105,9,-2,7,2,2,-1,-1
31,66,32,1,80,6,-3,7,-1,11,-1,-2
32,69,33,1,80,9,3,7,2,2,1,-1
33,69,34,1,95,9,0,7,2,2,0,-1
34,66,35,1,80,6,-3,7,-1,11,-1,-2
35,69,36,1,80,9,3,7,2,2,1,-1
36,74,37,1,105,2,5,7,7,7,1,0
37,76,38,1,80,4,2,7,9,9,1,1
38,78,39,1,80,6,2,7,11,11,1,2
39,79,40,1,95,7,1,7,12,0,1,3
40,74,41,1,80,2,-5,7,7,7,-1,2
41,71,42,1,80,11,-3,7,4,4,-1,1
42,72,43,1,105,0,1,7,5,5,1,2
43,69,44,1,80,9,-3,7,2,2,-1,1
44,66,45,1,80,6,-3,7,-1,11,-1,0
45,67,46,2,95,7,1,7,0,0,1,1
46,69,48,1,80,9,2,7,2,2,1,2
47,67,49,1,105,7,-2,7,0,0,-1,1
48,71,50,1,80,11,4,7,4,4,1,2
49,74,51,1,80,2,3,7,7,7,1,3
50,74,52,1,95,2,0,7,7,7,0,3
51,76,53,1,80,4,2,7,9,9,1,4
52,74,54,1,80,2,-2,7,7,7,-1,3
53,72,55,1,105,0,-2,7,5,5,-1,2
54,69,56,1,80,9,-3,7,2,2,-1,1
55,67,57,1,80,7,-2,7,0,0,-1,0
56,66,58,1,95,6,-1,7,-1,11,-1,-1
57,67,59,1,80,7,1,7,0,0,1,0
58,69,60,1,80,9,2,7,2,2,1,1
59,67,61,1,105,7,-2,7,0,0,-1,0
60,71,62,1,80,11,4,7,4,4,1,1
61,74,63,1,80,2,3,7,7,7,1,2
62,67,64,1,95,7,-7,7,0,0,-1,1
63,71,65,1,80,11,4,7,4,4,1,2
64,74,66,1,80,2,3,7,7,7,1,3
65,72,67,1,105,0,-2,7,5,5,-1,2
66,69,68,1,80,9,-3,7,2,2,-1,1
67,66,69,1,80,6,-3,7,-1,11,-1,0
68,67,70,2,95,7,1,7,0,0,1,1
69,74,72,1,80,2,7,7,7,7,1,2
70,67,73,2,105,7,-7,7,0,0,-1,1
71,74,75,1,80,2,7,7,7,7,1,2
72,74,76,1,95,2,0,7,7,7,0,2
73,76,77,1,80,4,2,7,9,9,1,3
74,74,78,1,80,2,-2,7,7,7,-1,2
75,72,79,1,105,0,-2,7,5,5,-1,1
76,69,80,1,80,9,-3,7,2,2,-1,0
77,67,81,1,80,7,-2,7,0,0,-1,-1
78,66,82,1,95,6,-1,7,-1,11,-1,-2
79,67,83,1,80,7,1,7,0,0,1,-1
80,69,84,1,80,9,2,7,2,2,1,0
81,74,85,1,105,2,5,7,7,7,1,1
82,76,86,1,80,4,2,7,9,9,1,2
83,78,87,1,80,6,2,7,11,11,1,3
84,79,88,1,95,7,1,7,12,0,1,4
85,74,89,1,80,2,-5,7,7,7,-1,3
86,71,90,1,80,11,-3,7,4,4,-1,2
87,72,91,1,105,0,1,7,5,5,1,3
88,69,92,1,80,9,-3,7,2,2,-1,2
89,66,93,1,80,6,-3,7,-1,11,-1,1
90,67,94,2,95,7,1,7,0,0,1,2
91,69,96,1,80,9,2,7,2,2,1,3
92,71,97,1,105,11,2,7,4,4,1,4
93,67,98,1,80,7,-4,7,0,0,-1,3
94,71,99,1,80,11,4,7,4,4,1,4
95,74,100,1,95,2,3,7,7,7,1,5
96,71,101,1,80,11,-3,7,4,4,-1,4
97,67,102,1,80,7,-4,7,0,0,-1,3
98,72,103,1,105,0,5,7,5,5,1,4
99,69,104,1,80,9,-3,7,2,2,-1,3
100,67,105,1,80,7,-2,7,0,0,-1,2
101,66,106,1,95,6,-1,7,-1,11,-1,1
102,67,107,1,80,7,1,7,0,0,1,2
103,69,108,1,80,9,2,7,2,2,1,3
104,71,109,1,105,11,2,7,4,4,1,4
105,67,110,1,80,7,-4,7,0,0,-1,3
106,67,111,1,80,7,0,7,0,0,0,3
107,74,112,1,95,2,7,7,7,7,1,4
108,71,113,1,80,11,-3,7,4,4,-1,3
109,67,114,1,80,7,-4,7,0,0,-1,2
110,72,115,1,105,0,5,7,5,5,1,3
111,69,116,1,80,9,-3,7,2,2,-1,2
112,66,117,1,80,6,-3,7,-1,11,-1,1
113,67,118,2,95,7,1,7,0,0,1,2
114,69,120,1,80,9,2,7,2,2,1,3
115,71,121,1,105,11,2,7,4,4,1,4
116,67,122,1,80,7,-4,7,0,0,-1,3
117,71,123,1,80,11,4,7,4,4,1,4
118,74,124,1,95,2,3,7,7,7,1,5
119,71,125,1,80,11,-3,7,4,4,-1,4
120,67,126,1,80,7,-4,7,0,0,-1,3
121,72,127,1,105,0,5,7,5,5,1,4
122,69,128,1,80,9,-3,7,2,2,-1,3
123,67,129,1,80,7,-2,7,0,0,-1,2
124,66,130,1,95,6,-1,7,-1,11,-1,1
125,67,131,1,80,7,1,7,0,0,1,2
126,69,132,1,80,9,2,7,2,2,1,3
127,74,133,2,105,2,5,7,7,7,1,4
128,76,135,1,80,4,2,7,9,9,1,5
129,78,136,1,95,6,2,7,11,11,1,6
130,74,137,1,80,2,-4,7,7,7,-1,5
131,71,138,1,80,11,-3,7,4,4,-1,4
132,72,139,1,105,0,1,7,5,5,1,5
133,69,140,1,80,9,-3,7,2,2,-1,4
134,66,141,1,80,6,-3,7,-1,11,-1,3
135,67,142,3,95,7,1,7,0,0,1,4
