,midi_note,onset,duration,velocity,pitch_class,interval,root,relative_pitch,relative_pitch_class,parsons_code,parsons_cumsum
0,62,0,1,105,2,0,7,-5,7,0,0
1,64,1,0,80,4,2,7,-3,9,1,1
2,66,1,0,80,6,2,7,-1,11,1,2
3,67,2,2,105,7,1,7,0,0,1,3
4,69,4,1,80,9,2,7,2,2,1,4
5,67,5,0,80,7,-2,7,0,0,-1,3
6,64,6,1,95,4,-3,7,-3,9,-1,2
7,62,7,0,80,2,-2,7,-5,7,-1,1
8,64,8,1,80,4,2,7,-3,9,1,2
9,66,9,0,80,6,2,7,-1,11,1,3
10,67,10,2,105,7,1,7,0,0,1,4
11,71,12,1,80,11,4,7,4,4,1,5
12,74,13,0,80,2,3,7,7,7,1,6
13,76,14,1,95,4,2,7,9,9,1,7
14,78,15,0,80,6,2,7,11,11,1,8
15,79,16,1,80,7,1,7,12,0,1,9
16,76,17,0,80,4,-3,7,9,9,-1,8
17,74,18,2,105,2,-2,7,7,7,-1,7
18,71,20,1,80,11,-3,7,4,4,-1,6
19,67,21,0,80,7,-4,7,0,0,-1,5
20,69,22,1,95,9,2,7,2,2,1,6
21,67,23,0,80,7,-2,7,0,0,-1,5
22,64,24,1,80,4,-3,7,-3,9,-1,4
23,67,25,0,80,7,3,7,0,0,1,5
24,69,26,1,105,9,2,7,2,2,1,6
25,72,27,0,80,0,3,7,5,5,1,7
26,71,28,1,80,11,-1,7,4,4,-1,6
27,69,29,0,80,9,-2,7,2,2,-1,5
28,69,30,1,95,9,0,7,2,2,0,5
29,67,31,0,80,7,-2,7,0,0,-1,4
30,64,32,1,80,4,-3,7,-3,9,-1,3
31,62,33,0,80,2,-2,7,-5,7,-1,2
32,67,34,2,105,7,5,7,0,0,1,3
33,69,36,1,80,9,2,7,2,2,1,4
34,67,37,0,80,7,-2,7,0,0,-1,3
35,64,38,1,95,4,-3,7,-3,9,-1,2
36,62,39,0,80,2,-2,7,-5,7,-1,1
37,64,40,1,80,4,2,7,-3,9,1,2
38,66,41,0,80,6,2,7,-1,11,1,3
39,67,42,2,105,7,1,7,0,0,1,4
40,71,44,1,80,11,4,7,4,4,1,5
41,74,45,0,80,2,3,7,7,7,1,6
42,76,46,1,95,4,2,7,9,9,1,7
43,78,47,0,80,6,2,7,11,11,1,8
44,79,48,1,80,7,1,7,12,0,1,9
45,76,49,0,80,4,-3,7,9,9,-1,8
46,74,50,2,105,2,-2,7,7,7,-1,7
47,71,52,1,80,11,-3,7,4,4,-1,6
48,67,53,0,80,7,-4,7,0,0,-1,5
49,69,54,1,95,9,2,7,2,2,1,6
50,67,55,0,80,7,-2,7,0,0,-1,5
51,64,56,1,80,4,-3,7,-3,9,-1,4
52,66,57,0,80,6,2,7,-1,11,1,5
53,67,58,2,105,7,1,7,0,0,1,6
54,67,60,1,80,7,0,7,0,0,0,6
55,66,61,0,80,6,-1,7,-1,11,-1,5
56,67,62,2,95,7,1,7,0,0,1,6
57,62,64,1,80,2,-5,7,-5,7,-1,5
58,64,65,0,80,4,2,7,-3,9,1,6
59,66,65,0,80,6,2,7,-1,11,1,7
60,67,66,2,105,7,1,7,0,0,1,8
61,69,68,1,80,9,2,7,2,2,1,9
62,67,69,0,80,7,-2,7,0,0,-1,8
63,64,70,1,95,4,-3,7,-3,9,-1,7
64,62,71,0,80,2,-2,7,-5,7,-1,6
65,64,72,1,80,4,2,7,-3,9,1,7
66,66,73,0,80,6,2,7,-1,11,1,8
67,67,74,2,105,7,1,7,0,0,1,9
68,71,76,1,80,11,4,7,4,4,1,10
69,74,77,0,80,2,3,7,7,7,1,11
70,76,78,1,95,4,2,7,9,9,1,12
71,78,79,0,80,6,2,7,11,11,1,13
72,79,80,1,80,7,1,7,12,0,1,14
73,76,81,0,80,4,-3,7,9,9,-1,13
74,74,82,2,105,2,-2,7,7,7,-1,12
75,71,84,1,80,11,-3,7,4,4,-1,11
76,67,85,0,80,7,-4,7,0,0,-1,10
77,69,86,1,95,9,2,7,2,2,1,11
78,67,87,0,80,7,-2,7,0,0,-1,10
79,64,88,1,80,4,-3,7,-3,9,-1,9
80,67,89,0,80,7,3,7,0,0,1,10
81,69,90,1,105,9,2,7,2,2,1,11
82,72,91,0,80,0,3,7,5,5,1,12
83,71,92,1,80,11,-1,7,4,4,-1,11
84,69,93,0,80,9,-2,7,2,2,-1,10
85,69,94,1,95,9,0,7,2,2,0,10
86,67,95,0,80,7,-2,7,0,0,-1,9
87,64,96,1,80,4,-3,7,-3,9,-1,8
88,62,97,0,80,2,-2,7,-5,7,-1,7
89,67,98,2,105,7,5,7,0,0,1,8
90,69,100,1,80,9,2,7,2,2,1,9
91,67,101,0,80,7,-2,7,0,0,-1,8
92,64,102,1,95,4,-3,7,-3,9,-1,7
93,62,103,0,80,2,-2,7,-5,7,-1,6
94,64,104,1,80,4,2,7,-3,9,1,7
95,66,105,0,80,6,2,7,-1,11,1,8
96,67,106,2,105,7,1,7,0,0,1,9
97,71,108,1,80,11,4,7,4,4,1,10
98,74,109,0,80,2,3,7,7,7,1,11
99,76,110,1,95,4,2,7,9,9,1,12
100,78,111,0,80,6,2,7,11,11,1,13
101,79,112,1,80,7,1,7,12,0,1,14
102,76,113,0,80,4,-3,7,9,9,-1,13
103,74,114,2,105,2,-2,7,7,7,-1,12
104,71,116,1,80,11,-3,7,4,4,-1,11
105,67,117,0,80,7,-4,7,0,0,-1,10
106,69,118,1,95,9,2,7,2,2,1,11
107,67,119,0,80,7,-2,7,0,0,-1,10
108,64,120,1,80,4,-3,7,-3,9,-1,9
109,66,121,0,80,6,2,7,-1,11,1,10
110,67,122,2,105,7,1,7,0,0,1,11
111,67,124,1,80,7,0,7,0,0,0,11
112,66,125,0,80,6,-1,7,-1,11,-1,10
113,67,126,2,95,7,1,7,0,0,1,11
114,76,128,1,80,4,9,7,9,9,1,12
115,78,129,0,80,6,2,7,11,11,1,13
116,79,130,2,105,7,1,7,12,0,1,14
117,78,132,1,80,6,-1,7,11,11,-1,13
118,74,133,0,80,2,-4,7,7,7,-1,12
119,76,134,1,95,4,2,7,9,9,1,13
120,74,135,0,80,2,-2,7,7,7,-1,12
121,71,136,1,80,11,-3,7,4,4,-1,11
122,74,137,0,80,2,3,7,7,7,1,12
123,79,138,2,105,7,5,7,12,0,1,13
124,81,140,1,80,9,2,7,14,2,1,14
125,78,141,0,80,6,-3,7,11,11,-1,13
126,79,142,1,95,7,1,7,12,0,1,14
127,78,143,0,80,6,-1,7,11,11,-1,13
128,76,144,1,80,4,-2,7,9,9,-1,12
129,78,145,0,80,6,2,7,11,11,1,13
130,79,146,2,105,7,1,7,12,0,1,14
131,78,148,1,80,6,-1,7,11,11,-1,13
132,74,149,0,80,2,-4,7,7,7,-1,12
133,76,150,1,95,4,2,7,9,9,1,13
134,74,151,0,80,2,-2,7,7,7,-1,12
135,71,152,1,80,11,-3,7,4,4,-1,11
136,67,153,0,80,7,-4,7,0,0,-1,10
137,69,154,1,105,9,2,7,2,2,1,11
138,72,155,0,80,0,3,7,5,5,1,12
139,71,156,1,80,11,-1,7,4,4,-1,11
140,67,157,0,80,7,-4,7,0,0,-1,10
141,69,158,1,95,9,2,7,2,2,1,11
142,67,159,0,80,7,-2,7,0,0,-1,10
143,64,160,1,80,4,-3,7,-3,9,-1,9
144,62,161,0,80,2,-2,7,-5,7,-1,8
145,67,162,2,105,7,5,7,0,0,1,9
146,69,164,1,80,9,2,7,2,2,1,10
147,67,165,0,80,7,-2,7,0,0,-1,9
148,64,166,1,95,4,-3,7,-3,9,-1,8
149,62,167,0,80,2,-2,7,-5,7,-1,7
150,64,168,1,80,4,2,7,-3,9,1,8
151,66,169,0,80,6,2,7,-1,11,1,9
152,67,170,2,105,7,1,7,0,0,1,10
153,71,172,1,80,11,4,7,4,4,1,11
154,74,173,0,80,2,3,7,7,7,1,12
155,76,174,1,95,4,2,7,9,9,1,13
156,78,175,0,80,6,2,7,11,11,1,14
157,79,176,1,80,7,1,7,12,0,1,15
158,76,177,0,80,4,-3,7,9,9,-1,14
159,74,178,2,105,2,-2,7,7,7,-1,13
160,71,180,1,80,11,-3,7,4,4,-1,12
161,67,181,0,80,7,-4,7,0,0,-1,11
162,69,182,1,95,9,2,7,2,2,1,12
163,67,183,0,80,7,-2,7,0,0,-1,11
164,64,184,1,80,4,-3,7,-3,9,-1,10
165,66,185,0,80,6,2,7,-1,11,1,11
166,67,186,2,105,7,1,7,0,0,1,12
167,67,188,1,80,7,0,7,0,0,0,12
168,66,189,0,80,6,-1,7,-1,11,-1,11
169,67,190,2,95,7,1,7,0,0,1,12
170,76,192,1,80,4,9,7,9,9,1,13
171,78,193,0,80,6,2,7,11,11,1,14
172,79,194,2,105,7,1,7,12,0,1,15
173,78,196,1,80,6,-1,7,11,11,-1,14
174,74,197,0,80,2,-4,7,7,7,-1,13
175,76,198,1,95,4,2,7,9,9,1,14
176,74,199,0,80,2,-2,7,7,7,-1,13
177,71,200,1,80,11,-3,7,4,4,-1,12
178,74,201,0,80,2,3,7,7,7,1,13
179,79,202,2,105,7,5,7,12,0,1,14
180,81,204,1,80,9,2,7,14,2,1,15
181,78,205,0,80,6,-3,7,11,11,-1,14
182,79,206,1,95,7,1,7,12,0,1,15
183,78,207,0,80,6,-1,7,11,11,-1,14
184,76,208,1,80,4,-2,7,9,9,-1,13
185,78,209,0,80,6,2,7,11,11,1,14
186,79,210,2,105,7,1,7,12,0,1,15
187,78,212,1,80,6,-1,7,11,11,-1,14
188,74,213,0,80,2,-4,7,7,7,-1,13
189,76,214,1,95,4,2,7,9,9,1,14
190,74,215,0,80,2,-2,7,7,7,-1,13
191,71,216,1,80,11,-3,7,4,4,-1,12
192,67,217,0,80,7,-4,7,0,0,-1,11
193,69,218,1,105,9,2,7,2,2,1,12
194,72,219,0,80,0,3,7,5,5,1,13
195,71,220,1,80,11,-1,7,4,4,-1,12
196,67,221,0,80,7,-4,7,0,0,-1,11
197,69,222,1,95,9,2,7,2,2,1,12
198,67,223,0,80,7,-2,7,0,0,-1,11
199,64,224,1,80,4,-3,7,-3,9,-1,10
200,62,225,0,80,2,-2,7,-5,7,-1,9
201,67,226,2,105,7,5,7,0,0,1,10
202,69,228,1,80,9,2,7,2,2,1,11
203,67,229,0,80,7,-2,7,0,0,-1,10
204,64,230,1,95,4,-3,7,-3,9,-1,9
205,62,231,0,80,2,-2,7,-5,7,-1,8
206,64,232,1,80,4,2,7,-3,9,1,9
207,66,233,0,80,6,2,7,-1,11,1,10
208,67,234,2,105,7,1,7,0,0,1,11
209,71,236,1,80,11,4,7,4,4,1,12
210,74,237,0,80,2,3,7,7,7,1,13
211,76,238,1,95,4,2,7,9,9,1,14
212,78,239,0,80,6,2,7,11,11,1,15
213,79,240,1,80,7,1,7,12,0,1,16
214,76,241,0,80,4,-3,7,9,9,-1,15
215,74,242,2,105,2,-2,7,7,7,-1,14
216,71,244,1,80,11,-3,7,4,4,-1,13
217,67,245,0,80,7,-4,7,0,0,-1,12
218,69,246,1,95,9,2,7,2,2,1,13
219,67,247,0,80,7,-2,7,0,0,-1,12
220,64,248,1,80,4,-3,7,-3,9,-1,11
221,66,249,0,80,6,2,7,-1,11,1,12
222,67,250,2,105,7,1,7,0,0,1,13
223,67,252,1,80,7,0,7,0,0,0,13
224,66,253,0,80,6,-1,7,-1,11,-1,12
225,67,254,2,95,7,1,7,0,0,1,13
