,midi_note,onset,duration,velocity,pitch_class,interval,root,relative_pitch,relative_pitch_class,parsons_code,parsons_cumsum
0,69,0,0,105,9,0,2,7,7,0,0
1,71,0,0,80,11,2,2,9,9,1,1
2,73,1,0,80,1,2,2,11,11,1,2
3,74,2,1,105,2,1,2,12,0,1,3
4,72,3,1,80,0,-2,2,10,10,-1,2
5,69,4,1,80,9,-3,2,7,7,-1,1
6,67,5,1,80,7,-2,2,5,5,-1,0
7,66,6,2,95,6,-1,2,4,4,-1,-1
8,62,8,1,80,2,-4,2,0,0,-1,-2
9,64,9,1,80,4,2,2,2,2,1,-1
10,66,10,1,105,6,2,2,4,4,1,0
11,69,11,1,80,9,3,2,7,7,1,1
12,67,12,1,80,7,-2,2,5,5,-1,0
13,64,13,1,80,4,-3,2,2,2,-1,-1
14,66,14,2,95,6,2,2,4,4,1,0
15,64,16,1,80,4,-2,2,2,2,-1,-1
16,62,17,1,80,2,-2,2,0,0,-1,-2
17,72,18,1,105,0,10,2,10,10,1,-1
18,69,19,1,80,9,-3,2,7,7,-1,-2
19,69,20,1,80,9,0,2,7,7,0,-2
20,67,21,1,80,7,-2,2,5,5,-1,-3
21,66,22,2,95,6,-1,2,4,4,-1,-4
22,64,24,1,80,4,-2,2,2,2,-1,-5
23,66,25,1,80,6,2,2,4,4,1,-4
24,62,26,1,105,2,-4,2,0,0,-1,-5
25,74,27,1,80,2,12,2,12,0,1,-4
26,74,28,1,80,2,0,2,12,0,0,-4
27,73,29,1,80,1,-1,2,11,11,-1,-5
28,74,30,1,95,2,1,2,12,0,1,-4
29,76,31,1,80,4,2,2,14,2,1,-3
30,78,32,1,80,6,2,2,16,4,1,-2
31,76,33,1,80,4,-2,2,14,2,-1,-3
32,74,34,1,105,2,-2,2,12,0,-1,-4
33,72,35,1,80,0,-2,2,10,10,-1,-5
34,69,36,1,80,9,-3,2,7,7,-1,-6
35,67,37,1,80,7,-2,2,5,5,-1,-7
36,66,38,2,95,6,-1,2,4,4,-1,-8
37,62,40,1,80,2,-4,2,0,0,-1,-9
38,64,41,1,80,4,2,2,2,2,1,-8
39,66,42,1,105,6,2,2,4,4,1,-7
40,69,43,1,80,9,3,2,7,7,1,-6
41,67,44,1,80,7,-2,2,5,5,-1,-7
42,64,45,1,80,4,-3,2,2,2,-1,-8
43,66,46,1,95,6,2,2,4,4,1,-7
44,64,47,1,80,4,-2,2,2,2,-1,-8
45,64,48,1,80,4,0,2,2,2,0,-8
46,62,49,1,80,2,-2,2,0,0,-1,-9
47,72,50,1,105,0,10,2,10,10,1,-8
48,71,51,1,80,11,-1,2,9,9,-1,-9
49,72,52,1,80,0,1,2,10,10,1,-8
50,74,53,1,80,2,2,2,12,0,1,-7
51,72,54,1,95,0,-2,2,10,10,-1,-8
52,69,55,1,80,9,-3,2,7,7,-1,-9
53,67,56,1,80,7,-2,2,5,5,-1,-10
54,71,57,1,80,11,4,2,9,9,1,-9
55,69,58,1,105,9,-2,2,7,7,-1,-10
56,74,59,1,80,2,5,2,12,0,1,-9
57,74,60,1,80,2,0,2,12,0,0,-9
58,73,61,1,80,1,-1,2,11,11,-1,-10
59,74,62,2,95,2,1,2,12,0,1,-9
60,74,64,1,80,2,0,2,12,0,0,-9
61,76,65,1,80,4,2,2,14,2,1,-8
62,78,66,1,105,6,2,2,16,4,1,-7
63,76,67,1,80,4,-2,2,14,2,-1,-8
64,74,68,1,80,2,-2,2,12,0,-1,-9
65,76,69,1,80,4,2,2,14,2,1,-8
66,78,70,1,95,6,2,2,16,4,1,-7
67,81,71,1,80,9,3,2,19,7,1,-6
68,79,72,1,80,7,-2,2,17,5,-1,-7
69,76,73,1,80,4,-3,2,14,2,-1,-8
70,78,74,1,105,6,2,2,16,4,1,-7
71,76,75,1,80,4,-2,2,14,2,-1,-8
72,74,76,1,80,2,-2,2,12,0,-1,-9
73,78,77,1,80,6,4,2,16,4,1,-8
74,81,78,2,95,9,3,2,19,7,1,-7
75,79,80,1,80,7,-2,2,17,5,-1,-8
76,76,81,1,80,4,-3,2,14,2,-1,-9
77,78,82,1,105,6,2,2,16,4,1,-8
78,76,83,1,80,4,-2,2,14,2,-1,-9
79,74,84,1,80,2,-2,2,12,0,-1,-10
80,76,85,1,80,4,2,2,14,2,1,-9
81,78,86,1,95,6,2,2,16,4,1,-8
82,76,87,1,80,4,-2,2,14,2,-1,-9
83,78,88,1,80,6,2,2,16,4,1,-8
84,79,89,1,80,7,1,2,17,5,1,-7
85,81,90,1,105,9,2,2,19,7,1,-6
86,79,91,1,80,7,-2,2,17,5,-1,-7
87,76,92,1,80,4,-3,2,14,2,-1,-8
88,73,93,1,80,1,-3,2,11,11,-1,-9
89,74,94,2,95,2,1,2,12,0,1,-8
90,74,96,1,80,2,0,2,12,0,0,-8
91,76,97,1,80,4,2,2,14,2,1,-7
92,78,98,1,105,6,2,2,16,4,1,-6
93,76,99,1,80,4,-2,2,14,2,-1,-7
94,74,100,1,80,2,-2,2,12,0,-1,-8
95,76,101,1,80,4,2,2,14,2,1,-7
96,78,102,1,95,6,2,2,16,4,1,-6
97,81,103,1,80,9,3,2,19,7,1,-5
98,79,104,1,80,7,-2,2,17,5,-1,-6
99,76,105,1,80,4,-3,2,14,2,-1,-7
100,78,106,1,105,6,2,2,16,4,1,-6
101,76,107,1,80,4,-2,2,14,2,-1,-7
102,74,108,1,80,2,-2,2,12,0,-1,-8
103,78,109,1,80,6,4,2,16,4,1,-7
104,81,110,2,95,9,3,2,19,7,1,-6
105,78,112,1,80,6,-3,2,16,4,-1,-7
106,79,113,1,80,7,1,2,17,5,1,-6
107,81,114,1,105,9,2,2,19,7,1,-5
108,78,115,1,80,6,-3,2,16,4,-1,-6
109,79,116,1,80,7,1,2,17,5,1,-5
110,76,117,1,80,4,-3,2,14,2,-1,-6
111,78,118,0,95,6,2,2,16,4,1,-5
112,79,118,0,80,7,1,2,17,5,1,-4
113,78,119,0,80,6,-1,2,16,4,-1,-5
114,76,120,0,80,4,-2,2,14,2,-1,-6
115,78,120,0,80,6,2,2,16,4,1,-5
116,76,121,0,80,4,-2,2,14,2,-1,-6
117,74,122,1,105,2,-2,2,12,0,-1,-7
118,73,123,1,80,1,-1,2,11,11,-1,-8
119,69,124,1,80,9,-4,2,7,7,-1,-9
120,71,125,1,80,11,2,2,9,9,1,-8
121,73,126,2,95,1,2,2,11,11,1,-7
