,midi_note,onset,duration,velocity,pitch_class,interval,root,relative_pitch,relative_pitch_class,parsons_code,parsons_cumsum
0,69,1,1,105,9,0,2,7,7,0,0
1,74,2,1,80,2,5,2,12,0,1,1
2,74,3,1,80,2,0,2,12,0,0,1
3,72,4,1,80,0,-2,2,10,10,-1,0
4,74,5,1,95,2,2,2,12,0,1,1
5,76,6,1,80,4,2,2,14,2,1,2
6,78,7,1,80,6,2,2,16,4,1,3
7,74,8,1,80,2,-4,2,12,0,-1,2
8,72,9,1,105,0,-2,2,10,10,-1,1
9,69,10,1,80,9,-3,2,7,7,-1,0
10,71,11,1,80,11,2,2,9,9,1,1
11,67,12,1,80,7,-4,2,5,5,-1,0
12,64,13,1,95,4,-3,2,2,2,-1,-1
13,66,14,1,80,6,2,2,4,4,1,0
14,67,15,1,80,7,1,2,5,5,1,1
15,64,16,1,80,4,-3,2,2,2,-1,0
16,62,17,2,105,2,-2,2,0,0,-1,-1
17,74,19,1,80,2,12,2,12,0,1,0
18,72,20,1,80,0,-2,2,10,10,-1,-1
19,74,21,1,95,2,2,2,12,0,1,0
20,76,22,1,80,4,2,2,14,2,1,1
21,78,23,1,80,6,2,2,16,4,1,2
22,79,24,1,80,7,1,2,17,5,1,3
23,81,25,1,105,9,2,2,19,7,1,4
24,78,26,1,80,6,-3,2,16,4,-1,3
25,79,27,0,80,7,1,2,17,5,1,4
26,78,27,0,80,6,-1,2,16,4,-1,3
27,76,28,0,80,4,-2,2,14,2,-1,2
28,78,29,1,95,6,2,2,16,4,1,3
29,74,30,1,80,2,-4,2,12,0,-1,2
30,76,31,1,80,4,2,2,14,2,1,3
31,72,32,1,80,0,-4,2,10,10,-1,2
32,69,33,1,105,9,-3,2,7,7,-1,1
33,74,34,1,80,2,5,2,12,0,1,2
34,74,35,1,80,2,0,2,12,0,0,2
35,72,36,1,80,0,-2,2,10,10,-1,1
36,74,37,1,95,2,2,2,12,0,1,2
37,76,38,1,80,4,2,2,14,2,1,3
38,78,39,1,80,6,2,2,16,4,1,4
39,74,40,1,80,2,-4,2,12,0,-1,3
40,72,41,1,105,0,-2,2,10,10,-1,2
41,69,42,1,80,9,-3,2,7,7,-1,1
42,71,43,1,80,11,2,2,9,9,1,2
43,67,44,1,80,7,-4,2,5,5,-1,1
44,64,45,1,95,4,-3,2,2,2,-1,0
45,66,46,1,80,6,2,2,4,4,1,1
46,67,47,1,80,7,1,2,5,5,1,2
47,64,48,1,80,4,-3,2,2,2,-1,1
48,62,49,1,105,2,-2,2,0,0,-1,0
49,74,50,1,80,2,12,2,12,0,1,1
50,74,51,1,80,2,0,2,12,0,0,1
51,72,52,1,80,0,-2,2,10,10,-1,0
52,74,53,1,95,2,2,2,12,0,1,1
53,76,54,1,80,4,2,2,14,2,1,2
54,78,55,1,80,6,2,2,16,4,1,3
55,74,56,1,80,2,-4,2,12,0,-1,2
56,79,57,1,105,7,5,2,17,5,1,3
57,76,58,1,80,4,-3,2,14,2,-1,2
58,72,59,1,80,0,-4,2,10,10,-1,1
59,74,60,1,80,2,2,2,12,0,1,2
60,76,61,1,95,4,2,2,14,2,1,3
61,74,62,1,80,2,-2,2,12,0,-1,2
62,74,63,1,80,2,0,2,12,0,0,2
63,69,65,1,105,9,-5,2,7,7,-1,1
64,74,66,1,80,2,5,2,12,0,1,2
65,74,67,1,80,2,0,2,12,0,0,2
66,72,68,1,80,0,-2,2,10,10,-1,1
67,74,69,1,95,2,2,2,12,0,1,2
68,76,70,1,80,4,2,2,14,2,1,3
69,78,71,1,80,6,2,2,16,4,1,4
70,74,72,1,80,2,-4,2,12,0,-1,3
71,72,73,1,105,0,-2,2,10,10,-1,2
72,69,74,1,80,9,-3,2,7,7,-1,1
73,71,75,1,80,11,2,2,9,9,1,2
74,67,76,1,80,7,-4,2,5,5,-1,1
75,64,77,1,95,4,-3,2,2,2,-1,0
76,66,78,1,80,6,2,2,4,4,1,1
77,67,79,1,80,7,1,2,5,5,1,2
78,64,80,1,80,4,-3,2,2,2,-1,1
79,62,81,2,105,2,-2,2,0,0,-1,0
80,74,83,1,80,2,12,2,12,0,1,1
81,72,84,1,80,0,-2,2,10,10,-1,0
82,74,85,1,95,2,2,2,12,0,1,1
83,76,86,1,80,4,2,2,14,2,1,2
84,78,87,1,80,6,2,2,16,4,1,3
85,79,88,1,80,7,1,2,17,5,1,4
86,81,89,1,105,9,2,2,19,7,1,5
87,78,90,1,80,6,-3,2,16,4,-1,4
88,79,91,0,80,7,1,2,17,5,1,5
89,78,91,0,80,6,-1,2,16,4,-1,4
90,76,92,0,80,4,-2,2,14,2,-1,3
91,78,93,1,95,6,2,2,16,4,1,4
92,74,94,1,80,2,-4,2,12,0,-1,3
93,76,95,1,80,4,2,2,14,2,1,4
94,72,96,1,80,0,-4,2,10,10,-1,3
95,69,97,1,105,9,-3,2,7,7,-1,2
96,74,98,1,80,2,5,2,12,0,1,3
97,74,99,1,80,2,0,2,12,0,0,3
98,72,100,1,80,0,-2,2,10,10,-1,2
99,74,101,1,95,2,2,2,12,0,1,3
100,76,102,1,80,4,2,2,14,2,1,4
101,78,103,1,80,6,2,2,16,4,1,5
102,74,104,1,80,2,-4,2,12,0,-1,4
103,72,105,1,105,0,-2,2,10,10,-1,3
104,69,106,1,80,9,-3,2,7,7,-1,2
105,71,107,1,80,11,2,2,9,9,1,3
106,67,108,1,80,7,-4,2,5,5,-1,2
107,64,109,1,95,4,-3,2,2,2,-1,1
108,66,110,1,80,6,2,2,4,4,1,2
109,67,111,1,80,7,1,2,5,5,1,3
110,64,112,1,80,4,-3,2,2,2,-1,2
111,62,113,1,105,2,-2,2,0,0,-1,1
112,74,114,1,80,2,12,2,12,0,1,2
113,74,115,1,80,2,0,2,12,0,0,2
114,72,116,1,80,0,-2,2,10,10,-1,1
115,74,117,1,95,2,2,2,12,0,1,2
116,76,118,1,80,4,2,2,14,2,1,3
117,78,119,1,80,6,2,2,16,4,1,4
118,74,120,1,80,2,-4,2,12,0,-1,3
119,79,121,1,105,7,5,2,17,5,1,4
120,76,122,1,80,4,-3,2,14,2,-1,3
121,72,123,1,80,0,-4,2,10,10,-1,2
122,74,124,1,80,2,2,2,12,0,1,3
123,76,125,1,95,4,2,2,14,2,1,4
124,74,126,1,80,2,-2,2,12,0,-1,3
125,74,127,1,80,2,0,2,12,0,0,3
126,69,128,1,80,9,-5,2,7,7,-1,2
127,74,129,1,105,2,5,2,12,0,1,3
128,76,130,1,80,4,2,2,14,2,1,4
129,78,131,1,80,6,2,2,16,4,1,5
130,79,132,1,80,7,1,2,17,5,1,6
131,81,133,1,95,9,2,2,19,7,1,7
132,78,134,1,80,6,-3,2,16,4,-1,6
133,74,135,1,80,2,-4,2,12,0,-1,5
134,71,136,1,80,11,-3,2,9,9,-1,4
135,72,137,1,105,0,1,2,10,10,1,5
136,74,138,1,80,2,2,2,12,0,1,6
137,76,139,1,80,4,2,2,14,2,1,7
138,78,140,1,80,6,2,2,16,4,1,8
139,79,141,1,95,7,1,2,17,5,1,9
140,76,142,1,80,4,-3,2,14,2,-1,8
141,72,143,1,80,0,-4,2,10,10,-1,7
142,76,144,1,80,4,4,2,14,2,1,8
143,74,145,1,105,2,-2,2,12,0,-1,7
144,72,146,1,80,0,-2,2,10,10,-1,6
145,74,147,1,80,2,2,2,12,0,1,7
146,78,148,1,80,6,4,2,16,4,1,8
147,81,149,1,95,9,3,2,19,7,1,9
148,78,150,1,80,6,-3,2,16,4,-1,8
149,74,151,1,80,2,-4,2,12,0,-1,7
150,78,152,1,80,6,4,2,16,4,1,8
151,79,153,1,105,7,1,2,17,5,1,9
152,76,154,1,80,4,-3,2,14,2,-1,8
153,72,155,1,80,0,-4,2,10,10,-1,7
154,74,156,1,80,2,2,2,12,0,1,8
155,76,157,1,95,4,2,2,14,2,1,9
156,74,158,1,80,2,-2,2,12,0,-1,8
157,74,159,1,80,2,0,2,12,0,0,8
158,76,160,1,80,4,2,2,14,2,1,9
159,78,161,0,105,6,2,2,16,4,1,10
160,79,161,0,80,7,1,2,17,5,1,11
161,78,162,0,80,6,-1,2,16,4,-1,10
162,74,163,1,80,2,-4,2,12,0,-1,9
163,78,164,1,80,6,4,2,16,4,1,10
164,81,165,1,95,9,3,2,19,7,1,11
165,78,166,1,80,6,-3,2,16,4,-1,10
166,74,167,1,80,2,-4,2,12,0,-1,9
167,78,168,1,80,6,4,2,16,4,1,10
168,79,169,1,105,7,1,2,17,5,1,11
169,76,170,1,80,4,-3,2,14,2,-1,10
170,72,171,1,80,0,-4,2,10,10,-1,9
171,76,172,1,80,4,4,2,14,2,1,10
172,79,173,1,95,7,3,2,17,5,1,11
173,78,174,1,80,6,-1,2,16,4,-1,10
174,79,175,1,80,7,1,2,17,5,1,11
175,76,176,1,80,4,-3,2,14,2,-1,10
176,74,177,1,105,2,-2,2,12,0,-1,9
177,76,178,1,80,4,2,2,14,2,1,10
178,78,179,1,80,6,2,2,16,4,1,11
179,79,180,1,80,7,1,2,17,5,1,12
180,81,181,3,95,9,2,2,19,7,1,13
181,78,184,1,80,6,-3,2,16,4,-1,12
182,79,185,1,105,7,1,2,17,5,1,13
183,76,186,1,80,4,-3,2,14,2,-1,12
184,72,187,1,80,0,-4,2,10,10,-1,11
185,76,188,1,80,4,4,2,14,2,1,12
186,76,189,1,95,4,0,2,14,2,0,12
187,74,190,1,80,2,-2,2,12,0,-1,11
188,74,191,1,80,2,0,2,12,0,0,11
189,72,192,1,80,0,-2,2,10,10,-1,10
190,74,193,3,105,2,2,2,12,0,1,11
191,78,196,1,80,6,4,2,16,4,1,12
192,81,197,1,95,9,3,2,19,7,1,13
193,78,198,1,80,6,-3,2,16,4,-1,12
194,74,199,1,80,2,-4,2,12,0,-1,11
195,71,200,1,80,11,-3,2,9,9,-1,10
196,72,201,3,105,0,1,2,10,10,1,11
197,74,204,1,80,2,2,2,12,0,1,12
198,79,205,1,95,7,5,2,17,5,1,13
199,76,206,1,80,4,-3,2,14,2,-1,12
200,73,207,1,80,1,-3,2,11,11,-1,11
201,76,208,1,80,4,3,2,14,2,1,12
202,74,209,3,105,2,-2,2,12,0,-1,11
203,79,212,1,80,7,5,2,17,5,1,12
204,78,213,0,95,6,-1,2,16,4,-1,11
205,79,213,0,80,7,1,2,17,5,1,12
206,81,214,0,80,9,2,2,19,7,1,13
207,74,215,1,80,2,-7,2,12,0,-1,12
208,78,216,1,80,6,4,2,16,4,1,13
209,79,217,1,105,7,1,2,17,5,1,14
210,76,218,1,80,4,-3,2,14,2,-1,13
211,72,219,1,80,0,-4,2,10,10,-1,12
212,76,220,1,80,4,4,2,14,2,1,13
213,76,221,1,95,4,0,2,14,2,0,13
214,74,222,1,80,2,-2,2,12,0,-1,12
215,74,223,1,80,2,0,2,12,0,0,12
216,79,224,1,80,7,5,2,17,5,1,13
217,78,225,1,105,6,-1,2,16,4,-1,12
218,81,226,1,80,9,3,2,19,7,1,13
219,74,227,1,80,2,-7,2,12,0,-1,12
220,78,228,1,80,6,4,2,16,4,1,13
221,81,229,1,95,9,3,2,19,7,1,14
222,78,230,1,80,6,-3,2,16,4,-1,13
223,74,231,1,80,2,-4,2,12,0,-1,12
224,78,232,1,80,6,4,2,16,4,1,13
225,79,233,1,105,7,1,2,17,5,1,14
226,76,234,1,80,4,-3,2,14,2,-1,13
227,72,235,1,80,0,-4,2,10,10,-1,12
228,76,236,1,80,4,4,2,14,2,1,13
229,79,237,1,95,7,3,2,17,5,1,14
230,78,238,1,80,6,-1,2,16,4,-1,13
231,79,239,1,80,7,1,2,17,5,1,14
232,76,240,1,80,4,-3,2,14,2,-1,13
233,74,241,1,105,2,-2,2,12,0,-1,12
234,76,242,1,80,4,2,2,14,2,1,13
235,78,243,1,80,6,2,2,16,4,1,14
236,79,244,1,80,7,1,2,17,5,1,15
237,81,245,3,95,9,2,2,19,7,1,16
238,78,248,1,80,6,-3,2,16,4,-1,15
239,79,249,2,105,7,1,2,17,5,1,16
240,81,251,1,80,9,2,2,19,7,1,17
241,79,252,1,80,7,-2,2,17,5,-1,16
242,76,253,1,95,4,-3,2,14,2,-1,15
243,74,254,1,80,2,-2,2,12,0,-1,14
244,72,255,1,80,0,-2,2,10,10,-1,13
245,69,256,1,80,9,-3,2,7,7,-1,12
246,62,257,16,105,2,-7,2,0,0,-1,11
