,midi_note,onset,duration,velocity,pitch_class,interval,root,relative_pitch,relative_pitch_class,parsons_code,parsons_cumsum
0,69,0,1,105,9,0,9,0,0,0,0
1,66,1,1,80,6,-3,9,-3,9,-1,-1
2,64,2,1,80,4,-2,9,-5,7,-1,-2
3,66,3,1,80,6,2,9,-3,9,1,-1
4,69,4,1,105,9,3,9,0,0,1,0
5,71,5,1,80,11,2,9,2,2,1,1
6,73,6,1,80,1,2,9,4,4,1,2
7,76,7,1,80,4,3,9,7,7,1,3
8,78,8,1,105,6,2,9,9,9,1,4
9,76,9,1,80,4,-2,9,7,7,-1,3
10,73,10,1,80,1,-3,9,4,4,-1,2
11,76,11,0,80,4,3,9,7,7,1,3
12,73,11,0,80,1,-3,9,4,4,-1,2
13,71,12,1,105,11,-2,9,2,2,-1,1
14,69,13,1,80,9,-2,9,0,0,-1,0
15,66,14,2,80,6,-3,9,-3,9,-1,-1
16,69,16,1,105,9,3,9,0,0,1,0
17,66,17,1,80,6,-3,9,-3,9,-1,-1
18,64,18,1,80,4,-2,9,-5,7,-1,-2
19,66,19,1,80,6,2,9,-3,9,1,-1
20,69,20,1,105,9,3,9,0,0,1,0
21,71,21,1,80,11,2,9,2,2,1,1
22,73,22,1,80,1,2,9,4,4,1,2
23,76,23,1,80,4,3,9,7,7,1,3
24,78,24,1,105,6,2,9,9,9,1,4
25,76,25,1,80,4,-2,9,7,7,-1,3
26,73,26,1,80,1,-3,9,4,4,-1,2
27,76,27,0,80,4,3,9,7,7,1,3
28,73,27,0,80,1,-3,9,4,4,-1,2
29,71,28,1,105,11,-2,9,2,2,-1,1
30,69,29,1,80,9,-2,9,0,0,-1,0
31,69,30,2,80,9,0,9,0,0,0,0
32,69,32,1,105,9,0,9,0,0,0,0
33,66,33,1,80,6,-3,9,-3,9,-1,-1
34,64,34,1,80,4,-2,9,-5,7,-1,-2
35,66,35,1,80,6,2,9,-3,9,1,-1
36,69,36,1,105,9,3,9,0,0,1,0
37,71,37,1,80,11,2,9,2,2,1,1
38,73,38,1,80,1,2,9,4,4,1,2
39,76,39,1,80,4,3,9,7,7,1,3
40,78,40,1,105,6,2,9,9,9,1,4
41,76,41,1,80,4,-2,9,7,7,-1,3
42,73,42,1,80,1,-3,9,4,4,-1,2
43,76,43,0,80,4,3,9,7,7,1,3
44,73,43,0,80,1,-3,9,4,4,-1,2
45,71,44,1,105,11,-2,9,2,2,-1,1
46,69,45,1,80,9,-2,9,0,0,-1,0
47,66,46,2,80,6,-3,9,-3,9,-1,-1
48,69,48,1,105,9,3,9,0,0,1,0
49,66,49,1,80,6,-3,9,-3,9,-1,-1
50,64,50,1,80,4,-2,9,-5,7,-1,-2
51,66,51,1,80,6,2,9,-3,9,1,-1
52,69,52,1,105,9,3,9,0,0,1,0
53,71,53,1,80,11,2,9,2,2,1,1
54,73,54,1,80,1,2,9,4,4,1,2
55,76,55,1,80,4,3,9,7,7,1,3
56,78,56,1,105,6,2,9,9,9,1,4
57,76,57,1,80,4,-2,9,7,7,-1,3
58,73,58,1,80,1,-3,9,4,4,-1,2
59,76,59,0,80,4,3,9,7,7,1,3
60,73,59,0,80,1,-3,9,4,4,-1,2
61,71,60,1,105,11,-2,9,2,2,-1,1
62,69,61,1,80,9,-2,9,0,0,-1,0
63,69,62,2,80,9,0,9,0,0,0,0
64,78,64,1,105,6,9,9,9,9,1,1
65,76,65,1,80,4,-2,9,7,7,-1,0
66,73,66,1,80,1,-3,9,4,4,-1,-1
67,76,67,1,80,4,3,9,7,7,1,0
68,78,68,1,105,6,2,9,9,9,1,1
69,76,69,1,80,4,-2,9,7,7,-1,0
70,78,70,1,80,6,2,9,9,9,1,1
71,81,71,1,80,9,3,9,12,0,1,2
72,78,72,1,105,6,-3,9,9,9,-1,1
73,76,73,1,80,4,-2,9,7,7,-1,0
74,73,74,1,80,1,-3,9,4,4,-1,-1
75,76,75,0,80,4,3,9,7,7,1,0
76,73,75,0,80,1,-3,9,4,4,-1,-1
77,71,76,1,105,11,-2,9,2,2,-1,-2
78,69,77,1,80,9,-2,9,0,0,-1,-3
79,66,78,2,80,6,-3,9,-3,9,-1,-4
80,69,80,1,105,9,3,9,0,0,1,-3
81,66,81,1,80,6,-3,9,-3,9,-1,-4
82,64,82,1,80,4,-2,9,-5,7,-1,-5
83,66,83,1,80,6,2,9,-3,9,1,-4
84,69,84,1,105,9,3,9,0,0,1,-3
85,71,85,1,80,11,2,9,2,2,1,-2
86,73,86,1,80,1,2,9,4,4,1,-1
87,76,87,1,80,4,3,9,7,7,1,0
88,78,88,1,105,6,2,9,9,9,1,1
89,76,89,1,80,4,-2,9,7,7,-1,0
90,73,90,1,80,1,-3,9,4,4,-1,-1
91,76,91,0,80,4,3,9,7,7,1,0
92,73,91,0,80,1,-3,9,4,4,-1,-1
93,71,92,1,105,11,-2,9,2,2,-1,-2
94,69,93,1,80,9,-2,9,0,0,-1,-3
95,69,94,2,80,9,0,9,0,0,0,-3
96,78,96,1,105,6,9,9,9,9,1,-2
97,76,97,1,80,4,-2,9,7,7,-1,-3
98,73,98,1,80,1,-3,9,4,4,-1,-4
99,76,99,1,80,4,3,9,7,7,1,-3
100,78,100,1,105,6,2,9,9,9,1,-2
101,76,101,1,80,4,-2,9,7,7,-1,-3
102,78,102,1,80,6,2,9,9,9,1,-2
103,81,103,1,80,9,3,9,12,0,1,-1
104,78,104,1,105,6,-3,9,9,9,-1,-2
105,76,105,1,80,4,-2,9,7,7,-1,-3
106,73,106,1,80,1,-3,9,4,4,-1,-4
107,76,107,0,80,4,3,9,7,7,1,-3
108,73,107,0,80,1,-3,9,4,4,-1,-4
109,71,108,1,105,11,-2,9,2,2,-1,-5
110,69,109,1,80,9,-2,9,0,0,-1,-6
111,66,110,2,80,6,-3,9,-3,9,-1,-7
112,69,112,1,105,9,3,9,0,0,1,-6
113,66,113,1,80,6,-3,9,-3,9,-1,-7
114,64,114,1,80,4,-2,9,-5,7,-1,-8
115,66,115,1,80,6,2,9,-3,9,1,-7
116,69,116,1,105,9,3,9,0,0,1,-6
117,71,117,1,80,11,2,9,2,2,1,-5
118,73,118,1,80,1,2,9,4,4,1,-4
119,76,119,1,80,4,3,9,7,7,1,-3
120,78,120,1,105,6,2,9,9,9,1,-2
121,76,121,1,80,4,-2,9,7,7,-1,-3
122,73,122,1,80,1,-3,9,4,4,-1,-4
123,76,123,0,80,4,3,9,7,7,1,-3
124,73,123,0,80,1,-3,9,4,4,-1,-4
125,71,124,1,105,11,-2,9,2,2,-1,-5
126,69,125,1,80,9,-2,9,0,0,-1,-6
127,69,126,2,80,9,0,9,0,0,0,-6
