,midi_note,onset,duration,velocity,pitch_class,interval,root,relative_pitch,relative_pitch_class,parsons_code,parsons_cumsum
0,69,0,0,105,9,0,9,0,0,0,0
1,71,0,0,80,11,2,9,2,2,1,1
2,69,1,0,80,9,-2,9,0,0,-1,0
3,66,1,0,80,6,-3,9,-3,9,-1,-1
4,64,2,1,80,4,-2,9,-5,7,-1,-2
5,66,3,1,80,6,2,9,-3,9,1,-1
6,69,4,1,105,9,3,9,0,0,1,0
7,71,5,1,80,11,2,9,2,2,1,1
8,73,6,1,80,1,2,9,4,4,1,2
9,76,7,1,80,4,3,9,7,7,1,3
10,78,8,1,105,6,2,9,9,9,1,4
11,76,9,1,80,4,-2,9,7,7,-1,3
12,73,10,1,80,1,-3,9,4,4,-1,2
13,69,11,0,80,9,-4,9,0,0,-1,1
14,73,11,0,80,1,4,9,4,4,1,2
15,71,12,1,105,11,-2,9,2,2,-1,1
16,69,13,1,80,9,-2,9,0,0,-1,0
17,66,14,2,80,6,-3,9,-3,9,-1,-1
18,69,16,0,105,9,3,9,0,0,1,0
19,71,16,0,80,11,2,9,2,2,1,1
20,69,17,0,80,9,-2,9,0,0,-1,0
21,66,17,0,80,6,-3,9,-3,9,-1,-1
22,64,18,1,80,4,-2,9,-5,7,-1,-2
23,66,19,1,80,6,2,9,-3,9,1,-1
24,69,20,1,105,9,3,9,0,0,1,0
25,71,21,1,80,11,2,9,2,2,1,1
26,73,22,1,80,1,2,9,4,4,1,2
27,76,23,1,80,4,3,9,7,7,1,3
28,78,24,1,105,6,2,9,9,9,1,4
29,76,25,1,80,4,-2,9,7,7,-1,3
30,73,26,1,80,1,-3,9,4,4,-1,2
31,69,27,0,80,9,-4,9,0,0,-1,1
32,73,27,0,80,1,4,9,4,4,1,2
33,71,28,1,105,11,-2,9,2,2,-1,1
34,69,29,1,80,9,-2,9,0,0,-1,0
35,69,30,2,80,9,0,9,0,0,0,0
36,69,32,0,105,9,0,9,0,0,0,0
37,71,32,0,80,11,2,9,2,2,1,1
38,69,33,0,80,9,-2,9,0,0,-1,0
39,66,33,0,80,6,-3,9,-3,9,-1,-1
40,64,34,1,80,4,-2,9,-5,7,-1,-2
41,66,35,1,80,6,2,9,-3,9,1,-1
42,69,36,1,105,9,3,9,0,0,1,0
43,71,37,1,80,11,2,9,2,2,1,1
44,73,38,1,80,1,2,9,4,4,1,2
45,76,39,1,80,4,3,9,7,7,1,3
46,78,40,1,105,6,2,9,9,9,1,4
47,76,41,1,80,4,-2,9,7,7,-1,3
48,73,42,1,80,1,-3,9,4,4,-1,2
49,69,43,0,80,9,-4,9,0,0,-1,1
50,73,43,0,80,1,4,9,4,4,1,2
51,71,44,1,105,11,-2,9,2,2,-1,1
52,69,45,1,80,9,-2,9,0,0,-1,0
53,66,46,2,80,6,-3,9,-3,9,-1,-1
54,69,48,0,105,9,3,9,0,0,1,0
55,71,48,0,80,11,2,9,2,2,1,1
56,69,49,0,80,9,-2,9,0,0,-1,0
57,66,49,0,80,6,-3,9,-3,9,-1,-1
58,64,50,1,80,4,-2,9,-5,7,-1,-2
59,66,51,1,80,6,2,9,-3,9,1,-1
60,69,52,1,105,9,3,9,0,0,1,0
61,71,53,1,80,11,2,9,2,2,1,1
62,73,54,1,80,1,2,9,4,4,1,2
63,76,55,1,80,4,3,9,7,7,1,3
64,78,56,1,105,6,2,9,9,9,1,4
65,76,57,1,80,4,-2,9,7,7,-1,3
66,73,58,1,80,1,-3,9,4,4,-1,2
67,69,59,0,80,9,-4,9,0,0,-1,1
68,73,59,0,80,1,4,9,4,4,1,2
69,71,60,1,105,11,-2,9,2,2,-1,1
70,69,61,1,80,9,-2,9,0,0,-1,0
71,69,62,2,80,9,0,9,0,0,0,0
72,76,64,1,105,4,7,9,7,7,1,1
73,78,65,0,80,6,2,9,9,9,1,2
74,76,65,0,80,4,-2,9,7,7,-1,1
75,73,66,1,80,1,-3,9,4,4,-1,0
76,76,67,1,80,4,3,9,7,7,1,1
77,78,68,1,105,6,2,9,9,9,1,2
78,76,69,1,80,4,-2,9,7,7,-1,1
79,76,70,2,80,4,0,9,7,7,0,1
80,81,72,1,105,9,5,9,12,0,1,2
81,81,73,0,80,9,0,9,12,0,0,2
82,78,73,0,80,6,-3,9,9,9,-1,1
83,76,74,1,80,4,-2,9,7,7,-1,0
84,73,75,1,80,1,-3,9,4,4,-1,-1
85,71,76,1,105,11,-2,9,2,2,-1,-2
86,69,77,1,80,9,-2,9,0,0,-1,-3
87,66,78,2,80,6,-3,9,-3,9,-1,-4
88,69,80,0,105,9,3,9,0,0,1,-3
89,71,80,0,80,11,2,9,2,2,1,-2
90,69,81,0,80,9,-2,9,0,0,-1,-3
91,66,81,0,80,6,-3,9,-3,9,-1,-4
92,64,82,1,80,4,-2,9,-5,7,-1,-5
93,66,83,1,80,6,2,9,-3,9,1,-4
94,69,84,1,105,9,3,9,0,0,1,-3
95,71,85,1,80,11,2,9,2,2,1,-2
96,73,86,1,80,1,2,9,4,4,1,-1
97,76,87,1,80,4,3,9,7,7,1,0
98,78,88,1,105,6,2,9,9,9,1,1
99,76,89,1,80,4,-2,9,7,7,-1,0
100,73,90,1,80,1,-3,9,4,4,-1,-1
101,69,91,0,80,9,-4,9,0,0,-1,-2
102,73,91,0,80,1,4,9,4,4,1,-1
103,71,92,1,105,11,-2,9,2,2,-1,-2
104,69,93,1,80,9,-2,9,0,0,-1,-3
105,69,94,2,80,9,0,9,0,0,0,-3
106,76,96,1,105,4,7,9,7,7,1,-2
107,78,97,0,80,6,2,9,9,9,1,-1
108,76,97,0,80,4,-2,9,7,7,-1,-2
109,73,98,1,80,1,-3,9,4,4,-1,-3
110,76,99,1,80,4,3,9,7,7,1,-2
111,78,100,1,105,6,2,9,9,9,1,-1
112,76,101,1,80,4,-2,9,7,7,-1,-2
113,76,102,2,80,4,0,9,7,7,0,-2
114,81,104,1,105,9,5,9,12,0,1,-1
115,81,105,0,80,9,0,9,12,0,0,-1
116,78,105,0,80,6,-3,9,9,9,-1,-2
117,76,106,1,80,4,-2,9,7,7,-1,-3
118,73,107,1,80,1,-3,9,4,4,-1,-4
119,71,108,1,105,11,-2,9,2,2,-1,-5
120,69,109,1,80,9,-2,9,0,0,-1,-6
121,66,110,2,80,6,-3,9,-3,9,-1,-7
122,69,112,0,105,9,3,9,0,0,1,-6
123,71,112,0,80,11,2,9,2,2,1,-5
124,69,113,0,80,9,-2,9,0,0,-1,-6
125,66,113,0,80,6,-3,9,-3,9,-1,-7
126,64,114,1,80,4,-2,9,-5,7,-1,-8
127,66,115,1,80,6,2,9,-3,9,1,-7
128,69,116,1,105,9,3,9,0,0,1,-6
129,71,117,1,80,11,2,9,2,2,1,-5
130,73,118,1,80,1,2,9,4,4,1,-4
131,76,119,1,80,4,3,9,7,7,1,-3
132,78,120,1,105,6,2,9,9,9,1,-2
133,76,121,1,80,4,-2,9,7,7,-1,-3
134,73,122,1,80,1,-3,9,4,4,-1,-4
135,69,123,0,80,9,-4,9,0,0,-1,-5
136,73,123,0,80,1,4,9,4,4,1,-4
137,71,124,1,105,11,-2,9,2,2,-1,-5
138,69,125,1,80,9,-2,9,0,0,-1,-6
139,69,126,2,80,9,0,9,0,0,0,-6
