,midi_note,onset,duration,velocity,pitch_class,interval,root,relative_pitch,relative_pitch_class,parsons_code,parsons_cumsum
0,74,0,1,105,2,0,2,12,0,0,0
1,71,1,1,80,11,-3,2,9,9,-1,-1
2,69,2,1,105,9,-2,2,7,7,-1,-2
3,66,3,1,80,6,-3,2,4,4,-1,-3
4,67,4,0,80,7,1,2,5,5,1,-2
5,66,4,1,80,6,-1,2,4,4,-1,-3
6,62,6,1,95,2,-4,2,0,0,-1,-4
7,66,7,1,80,6,4,2,4,4,1,-3
8,69,8,1,80,9,3,2,7,7,1,-2
9,66,9,1,80,6,-3,2,4,4,-1,-3
10,62,10,1,105,2,-4,2,0,0,-1,-4
11,64,11,1,80,4,2,2,2,2,1,-3
12,66,12,1,80,6,2,2,4,4,1,-2
13,69,13,1,80,9,3,2,7,7,1,-1
14,71,14,3,95,11,2,2,9,9,1,0
15,74,17,1,80,2,3,2,12,0,1,1
16,76,18,1,105,4,2,2,14,2,1,2
17,71,19,1,80,11,-5,2,9,9,-1,1
18,73,20,0,80,1,2,2,11,11,1,2
19,71,20,1,80,11,-2,2,9,9,-1,1
20,76,22,1,95,4,5,2,14,2,1,2
21,79,23,1,80,7,3,2,17,5,1,3
22,78,24,1,80,6,-1,2,16,4,-1,2
23,76,25,1,80,4,-2,2,14,2,-1,1
24,74,26,1,105,2,-2,2,12,0,-1,0
25,76,27,1,80,4,2,2,14,2,1,1
26,78,28,1,80,6,2,2,16,4,1,2
27,74,29,1,80,2,-4,2,12,0,-1,1
28,71,30,1,95,11,-3,2,9,9,-1,0
29,73,31,1,80,1,2,2,11,11,1,1
30,74,32,1,80,2,1,2,12,0,1,2
31,71,33,1,80,11,-3,2,9,9,-1,1
32,69,34,1,105,9,-2,2,7,7,-1,0
33,66,35,1,80,6,-3,2,4,4,-1,-1
34,67,36,0,80,7,1,2,5,5,1,0
35,66,36,1,80,6,-1,2,4,4,-1,-1
36,62,38,1,95,2,-4,2,0,0,-1,-2
37,66,39,1,80,6,4,2,4,4,1,-1
38,69,40,1,80,9,3,2,7,7,1,0
39,66,41,1,80,6,-3,2,4,4,-1,-1
40,62,42,1,105,2,-4,2,0,0,-1,-2
41,64,43,1,80,4,2,2,2,2,1,-1
42,66,44,1,80,6,2,2,4,4,1,0
43,69,45,1,80,9,3,2,7,7,1,1
44,71,46,2,95,11,2,2,9,9,1,2
45,71,48,1,80,11,0,2,9,9,0,2
46,74,49,1,80,2,3,2,12,0,1,3
47,76,50,1,105,4,2,2,14,2,1,4
48,79,51,1,80,7,3,2,17,5,1,5
49,78,52,1,80,6,-1,2,16,4,-1,4
50,79,53,1,80,7,1,2,17,5,1,5
51,76,54,1,95,4,-3,2,14,2,-1,4
52,78,55,1,80,6,2,2,16,4,1,5
53,74,56,1,80,2,-4,2,12,0,-1,4
54,71,57,1,80,11,-3,2,9,9,-1,3
55,69,58,1,105,9,-2,2,7,7,-1,2
56,66,59,1,80,6,-3,2,4,4,-1,1
57,67,60,1,80,7,1,2,5,5,1,2
58,64,61,1,80,4,-3,2,2,2,-1,1
59,62,62,2,95,2,-2,2,0,0,-1,0
60,74,64,1,80,2,12,2,12,0,1,1
61,71,65,1,80,11,-3,2,9,9,-1,0
62,69,66,1,105,9,-2,2,7,7,-1,-1
63,66,67,1,80,6,-3,2,4,4,-1,-2
64,67,68,0,80,7,1,2,5,5,1,-1
65,66,68,1,80,6,-1,2,4,4,-1,-2
66,62,70,1,95,2,-4,2,0,0,-1,-3
67,66,71,1,80,6,4,2,4,4,1,-2
68,69,72,1,80,9,3,2,7,7,1,-1
69,66,73,1,80,6,-3,2,4,4,-1,-2
70,62,74,1,105,2,-4,2,0,0,-1,-3
71,64,75,1,80,4,2,2,2,2,1,-2
72,66,76,1,80,6,2,2,4,4,1,-1
73,69,77,1,80,9,3,2,7,7,1,0
74,71,78,3,95,11,2,2,9,9,1,1
75,74,81,1,80,2,3,2,12,0,1,2
76,76,82,1,105,4,2,2,14,2,1,3
77,71,83,1,80,11,-5,2,9,9,-1,2
78,73,84,0,80,1,2,2,11,11,1,3
79,71,84,1,80,11,-2,2,9,9,-1,2
80,76,86,1,95,4,5,2,14,2,1,3
81,79,87,1,80,7,3,2,17,5,1,4
82,78,88,1,80,6,-1,2,16,4,-1,3
83,76,89,1,80,4,-2,2,14,2,-1,2
84,74,90,1,105,2,-2,2,12,0,-1,1
85,76,91,1,80,4,2,2,14,2,1,2
86,78,92,1,80,6,2,2,16,4,1,3
87,74,93,1,80,2,-4,2,12,0,-1,2
88,71,94,1,95,11,-3,2,9,9,-1,1
89,73,95,1,80,1,2,2,11,11,1,2
90,74,96,1,80,2,1,2,12,0,1,3
91,71,97,1,80,11,-3,2,9,9,-1,2
92,69,98,1,105,9,-2,2,7,7,-1,1
93,66,99,1,80,6,-3,2,4,4,-1,0
94,67,100,0,80,7,1,2,5,5,1,1
95,66,100,1,80,6,-1,2,4,4,-1,0
96,62,102,1,95,2,-4,2,0,0,-1,-1
97,66,103,1,80,6,4,2,4,4,1,0
98,69,104,1,80,9,3,2,7,7,1,1
99,66,105,1,80,6,-3,2,4,4,-1,0
100,62,106,1,105,2,-4,2,0,0,-1,-1
101,64,107,1,80,4,2,2,2,2,1,0
102,66,108,1,80,6,2,2,4,4,1,1
103,69,109,1,80,9,3,2,7,7,1,2
104,71,110,2,95,11,2,2,9,9,1,3
105,71,112,1,80,11,0,2,9,9,0,3
106,74,113,1,80,2,3,2,12,0,1,4
107,76,114,1,105,4,2,2,14,2,1,5
108,79,115,1,80,7,3,2,17,5,1,6
109,78,116,1,80,6,-1,2,16,4,-1,5
110,79,117,1,80,7,1,2,17,5,1,6
111,76,118,1,95,4,-3,2,14,2,-1,5
112,78,119,1,80,6,2,2,16,4,1,6
113,74,120,1,80,2,-4,2,12,0,-1,5
114,71,121,1,80,11,-3,2,9,9,-1,4
115,69,122,1,105,9,-2,2,7,7,-1,3
116,66,123,1,80,6,-3,2,4,4,-1,2
117,67,124,1,80,7,1,2,5,5,1,3
118,64,125,1,80,4,-3,2,2,2,-1,2
119,62,126,3,95,2,-2,2,0,0,-1,1
120,69,129,1,80,9,7,2,7,7,1,2
121,74,130,1,105,2,5,2,12,0,1,3
122,73,131,1,80,1,-1,2,11,11,-1,2
123,74,132,1,80,2,1,2,12,0,1,3
124,76,133,1,80,4,2,2,14,2,1,4
125,78,134,2,95,6,2,2,16,4,1,5
126,78,136,1,80,6,0,2,16,4,0,5
127,79,137,1,80,7,1,2,17,5,1,6
128,81,138,2,105,9,2,2,19,7,1,7
129,83,140,1,80,11,2,2,21,9,1,8
130,83,141,1,80,11,0,2,21,9,0,8
131,81,142,1,95,9,-2,2,19,7,-1,7
132,79,143,1,80,7,-2,2,17,5,-1,6
133,78,144,1,80,6,-1,2,16,4,-1,5
134,79,145,1,80,7,1,2,17,5,1,6
135,76,146,1,105,4,-3,2,14,2,-1,5
136,71,147,1,80,11,-5,2,9,9,-1,4
137,73,148,0,80,1,2,2,11,11,1,5
138,71,148,1,80,11,-2,2,9,9,-1,4
139,79,150,1,95,7,8,2,17,5,1,5
140,71,151,1,80,11,-8,2,9,9,-1,4
141,73,152,0,80,1,2,2,11,11,1,5
142,71,152,1,80,11,-2,2,9,9,-1,4
143,76,154,1,105,4,5,2,14,2,1,5
144,78,155,1,80,6,2,2,16,4,1,6
145,78,156,1,80,6,0,2,16,4,0,6
146,78,157,1,80,6,0,2,16,4,0,6
147,76,158,1,95,4,-2,2,14,2,-1,5
148,73,159,1,80,1,-3,2,11,11,-1,4
149,74,160,1,80,2,1,2,12,0,1,5
150,71,161,1,80,11,-3,2,9,9,-1,4
151,69,162,1,105,9,-2,2,7,7,-1,3
152,66,163,1,80,6,-3,2,4,4,-1,2
153,67,164,0,80,7,1,2,5,5,1,3
154,66,164,1,80,6,-1,2,4,4,-1,2
155,69,166,1,95,9,3,2,7,7,1,3
156,71,167,1,80,11,2,2,9,9,1,4
157,74,168,1,80,2,3,2,12,0,1,5
158,78,169,1,80,6,4,2,16,4,1,6
159,81,170,2,105,9,3,2,19,7,1,7
160,83,172,1,80,11,2,2,21,9,1,8
161,83,173,1,80,11,0,2,21,9,0,8
162,81,174,1,95,9,-2,2,19,7,-1,7
163,79,175,1,80,7,-2,2,17,5,-1,6
164,78,176,1,80,6,-1,2,16,4,-1,5
165,78,177,1,80,6,0,2,16,4,0,5
166,79,178,2,105,7,1,2,17,5,1,6
167,78,180,1,80,6,-1,2,16,4,-1,5
168,79,181,1,80,7,1,2,17,5,1,6
169,76,182,1,95,4,-3,2,14,2,-1,5
170,78,183,1,80,6,2,2,16,4,1,6
171,74,184,1,80,2,-4,2,12,0,-1,5
172,71,185,1,80,11,-3,2,9,9,-1,4
173,69,186,1,105,9,-2,2,7,7,-1,3
174,66,187,1,80,6,-3,2,4,4,-1,2
175,67,188,1,80,7,1,2,5,5,1,3
176,64,189,1,80,4,-3,2,2,2,-1,2
177,62,190,3,95,2,-2,2,0,0,-1,1
178,69,193,1,80,9,7,2,7,7,1,2
179,74,194,1,105,2,5,2,12,0,1,3
180,73,195,1,80,1,-1,2,11,11,-1,2
181,74,196,1,80,2,1,2,12,0,1,3
182,76,197,1,80,4,2,2,14,2,1,4
183,78,198,2,95,6,2,2,16,4,1,5
184,78,200,1,80,6,0,2,16,4,0,5
185,79,201,1,80,7,1,2,17,5,1,6
186,81,202,2,105,9,2,2,19,7,1,7
187,83,204,1,80,11,2,2,21,9,1,8
188,83,205,1,80,11,0,2,21,9,0,8
189,81,206,1,95,9,-2,2,19,7,-1,7
190,79,207,1,80,7,-2,2,17,5,-1,6
191,78,208,1,80,6,-1,2,16,4,-1,5
192,79,209,1,80,7,1,2,17,5,1,6
193,76,210,1,105,4,-3,2,14,2,-1,5
194,71,211,1,80,11,-5,2,9,9,-1,4
195,73,212,0,80,1,2,2,11,11,1,5
196,71,212,1,80,11,-2,2,9,9,-1,4
197,79,214,1,95,7,8,2,17,5,1,5
198,71,215,1,80,11,-8,2,9,9,-1,4
199,73,216,0,80,1,2,2,11,11,1,5
200,71,216,1,80,11,-2,2,9,9,-1,4
201,76,218,1,105,4,5,2,14,2,1,5
202,78,219,1,80,6,2,2,16,4,1,6
203,78,220,1,80,6,0,2,16,4,0,6
204,78,221,1,80,6,0,2,16,4,0,6
205,76,222,1,95,4,-2,2,14,2,-1,5
206,73,223,1,80,1,-3,2,11,11,-1,4
207,74,224,1,80,2,1,2,12,0,1,5
208,71,225,1,80,11,-3,2,9,9,-1,4
209,69,226,1,105,9,-2,2,7,7,-1,3
210,66,227,1,80,6,-3,2,4,4,-1,2
211,67,228,0,80,7,1,2,5,5,1,3
212,66,228,1,80,6,-1,2,4,4,-1,2
213,69,230,1,95,9,3,2,7,7,1,3
214,71,231,1,80,11,2,2,9,9,1,4
215,74,232,1,80,2,3,2,12,0,1,5
216,78,233,1,80,6,4,2,16,4,1,6
217,81,234,2,105,9,3,2,19,7,1,7
218,83,236,1,80,11,2,2,21,9,1,8
219,83,237,1,80,11,0,2,21,9,0,8
220,81,238,1,95,9,-2,2,19,7,-1,7
221,79,239,1,80,7,-2,2,17,5,-1,6
222,78,240,1,80,6,-1,2,16,4,-1,5
223,78,241,1,80,6,0,2,16,4,0,5
224,79,242,2,105,7,1,2,17,5,1,6
225,78,244,1,80,6,-1,2,16,4,-1,5
226,79,245,1,80,7,1,2,17,5,1,6
227,76,246,1,95,4,-3,2,14,2,-1,5
228,78,247,1,80,6,2,2,16,4,1,6
229,74,248,1,80,2,-4,2,12,0,-1,5
230,71,249,1,80,11,-3,2,9,9,-1,4
231,69,250,1,105,9,-2,2,7,7,-1,3
232,66,251,1,80,6,-3,2,4,4,-1,2
233,67,252,1,80,7,1,2,5,5,1,3
234,64,253,1,80,4,-3,2,2,2,-1,2
235,62,254,3,95,2,-2,2,0,0,-1,1
