,midi_note,onset,duration,velocity,pitch_class,interval,root,relative_pitch,relative_pitch_class,parsons_code,parsons_cumsum
0,73,0,1,105,1,0,9,4,4,0,0
1,71,1,1,80,11,-2,9,2,2,-1,-1
2,69,2,1,105,9,-2,9,0,0,-1,-2
3,66,3,1,80,6,-3,9,-3,9,-1,-3
4,64,4,1,80,4,-2,9,-5,7,-1,-4
5,66,5,1,80,6,2,9,-3,9,1,-3
6,69,6,2,95,9,3,9,0,0,1,-2
7,69,8,1,80,9,0,9,0,0,0,-2
8,81,9,1,80,9,12,9,12,0,1,-1
9,78,10,1,105,6,-3,9,9,9,-1,-2
10,76,11,1,80,4,-2,9,7,7,-1,-3
11,73,12,1,80,1,-3,9,4,4,-1,-4
12,76,13,1,80,4,3,9,7,7,1,-3
13,78,14,2,95,6,2,9,9,9,1,-2
14,81,16,1,80,9,3,9,12,0,1,-1
15,78,17,1,80,6,-3,9,9,9,-1,-2
16,76,18,1,105,4,-2,9,7,7,-1,-3
17,73,19,1,80,1,-3,9,4,4,-1,-4
18,72,20,1,80,0,-1,9,3,3,-1,-5
19,73,21,1,80,1,1,9,4,4,1,-4
20,81,22,1,95,9,8,9,12,0,1,-3
21,76,23,1,80,4,-5,9,7,7,-1,-4
22,78,24,1,80,6,2,9,9,9,1,-3
23,76,25,1,80,4,-2,9,7,7,-1,-4
24,71,26,1,105,11,-5,9,2,2,-1,-5
25,69,27,1,80,9,-2,9,0,0,-1,-6
26,66,28,1,80,6,-3,9,-3,9,-1,-7
27,69,29,1,80,9,3,9,0,0,1,-6
28,71,30,1,95,11,2,9,2,2,1,-5
29,74,31,1,80,2,3,9,5,5,1,-4
30,73,32,1,80,1,-1,9,4,4,-1,-5
31,71,33,1,80,11,-2,9,2,2,-1,-6
32,69,34,1,105,9,-2,9,0,0,-1,-7
33,66,35,1,80,6,-3,9,-3,9,-1,-8
34,64,36,1,80,4,-2,9,-5,7,-1,-9
35,66,37,1,80,6,2,9,-3,9,1,-8
36,69,38,2,95,9,3,9,0,0,1,-7
37,73,40,1,80,1,4,9,4,4,1,-6
38,76,41,1,80,4,3,9,7,7,1,-5
39,78,42,1,105,6,2,9,9,9,1,-4
40,76,43,1,80,4,-2,9,7,7,-1,-5
41,73,44,1,80,1,-3,9,4,4,-1,-6
42,76,45,1,80,4,3,9,7,7,1,-5
43,78,46,2,95,6,2,9,9,9,1,-4
44,81,48,1,80,9,3,9,12,0,1,-3
45,78,49,1,80,6,-3,9,9,9,-1,-4
46,76,50,1,105,4,-2,9,7,7,-1,-5
47,73,51,1,80,1,-3,9,4,4,-1,-6
48,72,52,1,80,0,-1,9,3,3,-1,-7
49,73,53,1,80,1,1,9,4,4,1,-6
50,81,54,1,95,9,8,9,12,0,1,-5
51,76,55,1,80,4,-5,9,7,7,-1,-6
52,78,56,1,80,6,2,9,9,9,1,-5
53,76,57,1,80,4,-2,9,7,7,-1,-6
54,71,58,1,105,11,-5,9,2,2,-1,-7
55,69,59,1,80,9,-2,9,0,0,-1,-8
56,71,60,0,80,11,2,9,2,2,1,-7
57,73,60,0,80,1,2,9,4,4,1,-6
58,74,61,1,80,2,1,9,5,5,1,-5
59,69,62,2,95,9,-5,9,0,0,-1,-6
60,73,64,1,80,1,4,9,4,4,1,-5
61,71,65,1,80,11,-2,9,2,2,-1,-6
62,69,66,1,105,9,-2,9,0,0,-1,-7
63,66,67,1,80,6,-3,9,-3,9,-1,-8
64,64,68,1,80,4,-2,9,-5,7,-1,-9
65,66,69,1,80,6,2,9,-3,9,1,-8
66,69,70,2,95,9,3,9,0,0,1,-7
67,69,72,1,80,9,0,9,0,0,0,-7
68,81,73,1,80,9,12,9,12,0,1,-6
69,78,74,1,105,6,-3,9,9,9,-1,-7
70,76,75,1,80,4,-2,9,7,7,-1,-8
71,73,76,1,80,1,-3,9,4,4,-1,-9
72,76,77,1,80,4,3,9,7,7,1,-8
73,78,78,2,95,6,2,9,9,9,1,-7
74,81,80,1,80,9,3,9,12,0,1,-6
75,78,81,1,80,6,-3,9,9,9,-1,-7
76,76,82,1,105,4,-2,9,7,7,-1,-8
77,73,83,1,80,1,-3,9,4,4,-1,-9
78,72,84,1,80,0,-1,9,3,3,-1,-10
79,73,85,1,80,1,1,9,4,4,1,-9
80,81,86,1,95,9,8,9,12,0,1,-8
81,76,87,1,80,4,-5,9,7,7,-1,-9
82,78,88,1,80,6,2,9,9,9,1,-8
83,76,89,1,80,4,-2,9,7,7,-1,-9
84,71,90,1,105,11,-5,9,2,2,-1,-10
85,69,91,1,80,9,-2,9,0,0,-1,-11
86,66,92,1,80,6,-3,9,-3,9,-1,-12
87,69,93,1,80,9,3,9,0,0,1,-11
88,71,94,1,95,11,2,9,2,2,1,-10
89,74,95,1,80,2,3,9,5,5,1,-9
90,73,96,1,80,1,-1,9,4,4,-1,-10
91,71,97,1,80,11,-2,9,2,2,-1,-11
92,69,98,1,105,9,-2,9,0,0,-1,-12
93,66,99,1,80,6,-3,9,-3,9,-1,-13
94,64,100,1,80,4,-2,9,-5,7,-1,-14
95,66,101,1,80,6,2,9,-3,9,1,-13
96,69,102,2,95,9,3,9,0,0,1,-12
97,73,104,1,80,1,4,9,4,4,1,-11
98,76,105,1,80,4,3,9,7,7,1,-10
99,78,106,1,105,6,2,9,9,9,1,-9
100,76,107,1,80,4,-2,9,7,7,-1,-10
101,73,108,1,80,1,-3,9,4,4,-1,-11
102,76,109,1,80,4,3,9,7,7,1,-10
103,78,110,2,95,6,2,9,9,9,1,-9
104,81,112,1,80,9,3,9,12,0,1,-8
105,78,113,1,80,6,-3,9,9,9,-1,-9
106,76,114,1,105,4,-2,9,7,7,-1,-10
107,73,115,1,80,1,-3,9,4,4,-1,-11
108,72,116,1,80,0,-1,9,3,3,-1,-12
109,73,117,1,80,1,1,9,4,4,1,-11
110,81,118,1,95,9,8,9,12,0,1,-10
111,76,119,1,80,4,-5,9,7,7,-1,-11
112,78,120,1,80,6,2,9,9,9,1,-10
113,76,121,1,80,4,-2,9,7,7,-1,-11
114,71,122,1,105,11,-5,9,2,2,-1,-12
115,69,123,1,80,9,-2,9,0,0,-1,-13
116,71,124,0,80,11,2,9,2,2,1,-12
117,73,124,0,80,1,2,9,4,4,1,-11
118,74,125,1,80,2,1,9,5,5,1,-10
119,69,126,2,95,9,-5,9,0,0,-1,-11
120,76,128,1,80,4,7,9,7,7,1,-10
121,74,129,1,80,2,-2,9,5,5,-1,-11
122,73,130,1,105,1,-1,9,4,4,-1,-12
123,76,131,1,80,4,3,9,7,7,1,-11
124,69,132,1,80,9,-7,9,0,0,-1,-12
125,73,133,1,80,1,4,9,4,4,1,-11
126,76,134,1,95,4,3,9,7,7,1,-10
127,69,135,1,80,9,-7,9,0,0,-1,-11
128,73,136,0,80,1,4,9,4,4,1,-10
129,71,136,0,80,11,-2,9,2,2,-1,-11
130,69,137,1,80,9,-2,9,0,0,-1,-12
131,71,138,1,105,11,2,9,2,2,1,-11
132,64,139,1,80,4,-7,9,-5,7,-1,-12
133,68,140,1,80,8,4,9,-1,11,1,-11
134,64,141,1,80,4,-4,9,-5,7,-1,-12
135,71,142,1,95,11,7,9,2,2,1,-11
136,64,143,1,80,4,-7,9,-5,7,-1,-12
137,69,144,1,80,9,5,9,0,0,1,-11
138,71,145,1,80,11,2,9,2,2,1,-10
139,73,146,2,105,1,2,9,4,4,1,-9
140,69,148,1,80,9,-4,9,0,0,-1,-10
141,73,149,1,80,1,4,9,4,4,1,-9
142,73,150,2,95,1,0,9,4,4,0,-9
143,69,152,1,80,9,-4,9,0,0,-1,-10
144,73,153,1,80,1,4,9,4,4,1,-9
145,71,154,1,105,11,-2,9,2,2,-1,-10
146,69,155,1,80,9,-2,9,0,0,-1,-11
147,71,156,1,80,11,2,9,2,2,1,-10
148,73,157,1,80,1,2,9,4,4,1,-9
149,74,158,1,95,2,1,9,5,5,1,-8
150,73,159,1,80,1,-1,9,4,4,-1,-9
151,71,160,1,80,11,-2,9,2,2,-1,-10
152,69,161,1,80,9,-2,9,0,0,-1,-11
153,73,162,2,105,1,4,9,4,4,1,-10
154,69,164,1,80,9,-4,9,0,0,-1,-11
155,73,165,1,80,1,4,9,4,4,1,-10
156,73,166,2,95,1,0,9,4,4,0,-10
157,69,168,1,80,9,-4,9,0,0,-1,-11
158,73,169,1,80,1,4,9,4,4,1,-10
159,71,170,1,105,11,-2,9,2,2,-1,-11
160,64,171,1,80,4,-7,9,-5,7,-1,-12
161,68,172,1,80,8,4,9,-1,11,1,-11
162,64,173,1,80,4,-4,9,-5,7,-1,-12
163,71,174,1,95,11,7,9,2,2,1,-11
164,64,175,1,80,4,-7,9,-5,7,-1,-12
165,68,176,1,80,8,4,9,-1,11,1,-11
166,71,177,1,80,11,3,9,2,2,1,-10
167,69,178,1,105,9,-2,9,0,0,-1,-11
168,71,179,1,80,11,2,9,2,2,1,-10
169,73,180,1,80,1,2,9,4,4,1,-9
170,76,181,1,80,4,3,9,7,7,1,-8
171,78,182,1,95,6,2,9,9,9,1,-7
172,76,183,1,80,4,-2,9,7,7,-1,-8
173,78,184,1,80,6,2,9,9,9,1,-7
174,81,185,1,80,9,3,9,12,0,1,-6
175,76,186,1,105,4,-5,9,7,7,-1,-7
176,73,187,1,80,1,-3,9,4,4,-1,-8
177,71,188,0,80,11,-2,9,2,2,-1,-9
178,73,188,0,80,1,2,9,4,4,1,-8
179,74,189,1,80,2,1,9,5,5,1,-7
180,69,190,2,95,9,-5,9,0,0,-1,-8
181,76,192,1,80,4,7,9,7,7,1,-7
182,74,193,1,80,2,-2,9,5,5,-1,-8
183,73,194,1,105,1,-1,9,4,4,-1,-9
184,76,195,1,80,4,3,9,7,7,1,-8
185,69,196,1,80,9,-7,9,0,0,-1,-9
186,73,197,1,80,1,4,9,4,4,1,-8
187,76,198,1,95,4,3,9,7,7,1,-7
188,69,199,1,80,9,-7,9,0,0,-1,-8
189,73,200,0,80,1,4,9,4,4,1,-7
190,71,200,0,80,11,-2,9,2,2,-1,-8
191,69,201,1,80,9,-2,9,0,0,-1,-9
192,71,202,1,105,11,2,9,2,2,1,-8
193,64,203,1,80,4,-7,9,-5,7,-1,-9
194,68,204,1,80,8,4,9,-1,11,1,-8
195,64,205,1,80,4,-4,9,-5,7,-1,-9
196,71,206,1,95,11,7,9,2,2,1,-8
197,64,207,1,80,4,-7,9,-5,7,-1,-9
198,69,208,1,80,9,5,9,0,0,1,-8
199,71,209,1,80,11,2,9,2,2,1,-7
200,73,210,2,105,1,2,9,4,4,1,-6
201,69,212,1,80,9,-4,9,0,0,-1,-7
202,73,213,1,80,1,4,9,4,4,1,-6
203,73,214,2,95,1,0,9,4,4,0,-6
204,69,216,1,80,9,-4,9,0,0,-1,-7
205,73,217,1,80,1,4,9,4,4,1,-6
206,71,218,1,105,11,-2,9,2,2,-1,-7
207,69,219,1,80,9,-2,9,0,0,-1,-8
208,71,220,1,80,11,2,9,2,2,1,-7
209,73,221,1,80,1,2,9,4,4,1,-6
210,74,222,1,95,2,1,9,5,5,1,-5
211,73,223,1,80,1,-1,9,4,4,-1,-6
212,71,224,1,80,11,-2,9,2,2,-1,-7
213,69,225,1,80,9,-2,9,0,0,-1,-8
214,73,226,2,105,1,4,9,4,4,1,-7
215,69,228,1,80,9,-4,9,0,0,-1,-8
216,73,229,1,80,1,4,9,4,4,1,-7
217,73,230,2,95,1,0,9,4,4,0,-7
218,69,232,1,80,9,-4,9,0,0,-1,-8
219,73,233,1,80,1,4,9,4,4,1,-7
220,71,234,1,105,11,-2,9,2,2,-1,-8
221,64,235,1,80,4,-7,9,-5,7,-1,-9
222,68,236,1,80,8,4,9,-1,11,1,-8
223,64,237,1,80,4,-4,9,-5,7,-1,-9
224,71,238,1,95,11,7,9,2,2,1,-8
225,64,239,1,80,4,-7,9,-5,7,-1,-9
226,68,240,1,80,8,4,9,-1,11,1,-8
227,71,241,1,80,11,3,9,2,2,1,-7
228,69,242,1,105,9,-2,9,0,0,-1,-8
229,71,243,1,80,11,2,9,2,2,1,-7
230,73,244,1,80,1,2,9,4,4,1,-6
231,76,245,1,80,4,3,9,7,7,1,-5
232,78,246,1,95,6,2,9,9,9,1,-4
233,76,247,1,80,4,-2,9,7,7,-1,-5
234,78,248,1,80,6,2,9,9,9,1,-4
235,81,249,1,80,9,3,9,12,0,1,-3
236,76,250,1,105,4,-5,9,7,7,-1,-4
237,73,251,1,80,1,-3,9,4,4,-1,-5
238,71,252,0,80,11,-2,9,2,2,-1,-6
239,73,252,0,80,1,2,9,4,4,1,-5
240,74,253,1,80,2,1,9,5,5,1,-4
241,69,254,2,95,9,-5,9,0,0,-1,-5
