,midi_note,onset,duration,velocity,pitch_class,interval,root,relative_pitch,relative_pitch_class,parsons_code,parsons_cumsum
0,73,0,1,105,1,0,9,4,4,0,0
1,71,1,1,80,11,-2,9,2,2,-1,-1
2,69,2,1,105,9,-2,9,0,0,-1,-2
3,66,3,1,80,6,-3,9,-3,9,-1,-3
4,64,4,1,80,4,-2,9,-5,7,-1,-4
5,66,5,1,80,6,2,9,-3,9,1,-3
6,69,6,2,95,9,3,9,0,0,1,-2
7,69,8,1,80,9,0,9,0,0,0,-2
8,76,9,1,80,4,7,9,7,7,1,-1
9,78,10,1,105,6,2,9,9,9,1,0
10,76,11,1,80,4,-2,9,7,7,-1,-1
11,73,12,1,80,1,-3,9,4,4,-1,-2
12,76,13,1,80,4,3,9,7,7,1,-1
13,78,14,1,95,6,2,9,9,9,1,0
14,76,15,1,80,4,-2,9,7,7,-1,-1
15,78,16,1,80,6,2,9,9,9,1,0
16,81,17,1,80,9,3,9,12,0,1,1
17,76,18,1,105,4,-5,9,7,7,-1,0
18,73,19,1,80,1,-3,9,4,4,-1,-1
19,73,20,2,80,1,0,9,4,4,0,-1
20,81,22,1,95,9,8,9,12,0,1,0
21,73,23,1,80,1,-8,9,4,4,-1,-1
22,73,24,0,80,1,0,9,4,4,0,-1
23,71,24,0,80,11,-2,9,2,2,-1,-2
24,73,25,1,80,1,2,9,4,4,1,-1
25,71,26,2,105,11,-2,9,2,2,-1,-2
26,73,28,1,80,1,2,9,4,4,1,-1
27,71,29,1,80,11,-2,9,2,2,-1,-2
28,69,30,1,95,9,-2,9,0,0,-1,-3
29,66,31,1,80,6,-3,9,-3,9,-1,-4
30,64,32,1,80,4,-2,9,-5,7,-1,-5
31,66,33,1,80,6,2,9,-3,9,1,-4
32,69,34,1,105,9,3,9,0,0,1,-3
33,66,35,1,80,6,-3,9,-3,9,-1,-4
34,64,36,1,80,4,-2,9,-5,7,-1,-5
35,66,37,1,80,6,2,9,-3,9,1,-4
36,69,38,2,95,9,3,9,0,0,1,-3
37,69,40,1,80,9,0,9,0,0,0,-3
38,76,41,1,80,4,7,9,7,7,1,-2
39,78,42,1,105,6,2,9,9,9,1,-1
40,76,43,1,80,4,-2,9,7,7,-1,-2
41,73,44,1,80,1,-3,9,4,4,-1,-3
42,76,45,1,80,4,3,9,7,7,1,-2
43,78,46,1,95,6,2,9,9,9,1,-1
44,76,47,1,80,4,-2,9,7,7,-1,-2
45,78,48,1,80,6,2,9,9,9,1,-1
46,81,49,1,80,9,3,9,12,0,1,0
47,76,50,1,105,4,-5,9,7,7,-1,-1
48,73,51,1,80,1,-3,9,4,4,-1,-2
49,73,52,2,80,1,0,9,4,4,0,-2
50,81,54,1,95,9,8,9,12,0,1,-1
51,73,55,1,80,1,-8,9,4,4,-1,-2
52,73,56,0,80,1,0,9,4,4,0,-2
53,71,56,0,80,11,-2,9,2,2,-1,-3
54,73,57,1,80,1,2,9,4,4,1,-2
55,71,58,1,105,11,-2,9,2,2,-1,-3
56,69,59,1,80,9,-2,9,0,0,-1,-4
57,71,60,1,80,11,2,9,2,2,1,-3
58,73,61,1,80,1,2,9,4,4,1,-2
59,69,62,2,95,9,-4,9,0,0,-1,-3
60,73,64,1,80,1,4,9,4,4,1,-2
61,71,65,1,80,11,-2,9,2,2,-1,-3
62,69,66,1,105,9,-2,9,0,0,-1,-4
63,66,67,1,80,6,-3,9,-3,9,-1,-5
64,64,68,1,80,4,-2,9,-5,7,-1,-6
65,66,69,1,80,6,2,9,-3,9,1,-5
66,69,70,2,95,9,3,9,0,0,1,-4
67,69,72,1,80,9,0,9,0,0,0,-4
68,76,73,1,80,4,7,9,7,7,1,-3
69,78,74,1,105,6,2,9,9,9,1,-2
70,76,75,1,80,4,-2,9,7,7,-1,-3
71,73,76,1,80,1,-3,9,4,4,-1,-4
72,76,77,1,80,4,3,9,7,7,1,-3
73,78,78,1,95,6,2,9,9,9,1,-2
74,76,79,1,80,4,-2,9,7,7,-1,-3
75,78,80,1,80,6,2,9,9,9,1,-2
76,81,81,1,80,9,3,9,12,0,1,-1
77,76,82,1,105,4,-5,9,7,7,-1,-2
78,73,83,1,80,1,-3,9,4,4,-1,-3
79,73,84,2,80,1,0,9,4,4,0,-3
80,81,86,1,95,9,8,9,12,0,1,-2
81,73,87,1,80,1,-8,9,4,4,-1,-3
82,73,88,0,80,1,0,9,4,4,0,-3
83,71,88,0,80,11,-2,9,2,2,-1,-4
84,73,89,1,80,1,2,9,4,4,1,-3
85,71,90,2,105,11,-2,9,2,2,-1,-4
86,73,92,1,80,1,2,9,4,4,1,-3
87,71,93,1,80,11,-2,9,2,2,-1,-4
88,69,94,1,95,9,-2,9,0,0,-1,-5
89,66,95,1,80,6,-3,9,-3,9,-1,-6
90,64,96,1,80,4,-2,9,-5,7,-1,-7
91,66,97,1,80,6,2,9,-3,9,1,-6
92,69,98,1,105,9,3,9,0,0,1,-5
93,66,99,1,80,6,-3,9,-3,9,-1,-6
94,64,100,1,80,4,-2,9,-5,7,-1,-7
95,66,101,1,80,6,2,9,-3,9,1,-6
96,69,102,2,95,9,3,9,0,0,1,-5
97,69,104,1,80,9,0,9,0,0,0,-5
98,76,105,1,80,4,7,9,7,7,1,-4
99,78,106,1,105,6,2,9,9,9,1,-3
100,76,107,1,80,4,-2,9,7,7,-1,-4
101,73,108,1,80,1,-3,9,4,4,-1,-5
102,76,109,1,80,4,3,9,7,7,1,-4
103,78,110,1,95,6,2,9,9,9,1,-3
104,76,111,1,80,4,-2,9,7,7,-1,-4
105,78,112,1,80,6,2,9,9,9,1,-3
106,81,113,1,80,9,3,9,12,0,1,-2
107,76,114,1,105,4,-5,9,7,7,-1,-3
108,73,115,1,80,1,-3,9,4,4,-1,-4
109,73,116,2,80,1,0,9,4,4,0,-4
110,81,118,1,95,9,8,9,12,0,1,-3
111,73,119,1,80,1,-8,9,4,4,-1,-4
112,73,120,0,80,1,0,9,4,4,0,-4
113,71,120,0,80,11,-2,9,2,2,-1,-5
114,73,121,1,80,1,2,9,4,4,1,-4
115,71,122,1,105,11,-2,9,2,2,-1,-5
116,69,123,1,80,9,-2,9,0,0,-1,-6
117,71,124,1,80,11,2,9,2,2,1,-5
118,73,125,1,80,1,2,9,4,4,1,-4
119,69,126,2,95,9,-4,9,0,0,-1,-5
120,69,128,1,80,9,0,9,0,0,0,-5
121,71,129,1,80,11,2,9,2,2,1,-4
122,73,130,2,105,1,2,9,4,4,1,-3
123,69,132,1,80,9,-4,9,0,0,-1,-4
124,73,133,1,80,1,4,9,4,4,1,-3
125,76,134,1,95,4,3,9,7,7,1,-2
126,73,135,1,80,1,-3,9,4,4,-1,-3
127,69,136,1,80,9,-4,9,0,0,-1,-4
128,73,137,1,80,1,4,9,4,4,1,-3
129,71,138,1,105,11,-2,9,2,2,-1,-4
130,64,139,1,80,4,-7,9,-5,7,-1,-5
131,64,140,1,80,4,0,9,-5,7,0,-5
132,62,141,1,80,2,-2,9,-7,5,-1,-6
133,71,142,1,95,11,9,9,2,2,1,-5
134,64,143,1,80,4,-7,9,-5,7,-1,-6
135,64,144,1,80,4,0,9,-5,7,0,-6
136,62,145,1,80,2,-2,9,-7,5,-1,-7
137,73,146,2,105,1,11,9,4,4,1,-6
138,69,148,1,80,9,-4,9,0,0,-1,-7
139,61,149,1,80,1,-8,9,-8,4,-1,-8
140,76,150,1,95,4,15,9,7,7,1,-7
141,73,151,1,80,1,-3,9,4,4,-1,-8
142,69,152,1,80,9,-4,9,0,0,-1,-9
143,73,153,1,80,1,4,9,4,4,1,-8
144,71,154,1,105,11,-2,9,2,2,-1,-9
145,69,155,1,80,9,-2,9,0,0,-1,-10
146,71,156,1,80,11,2,9,2,2,1,-9
147,73,157,1,80,1,2,9,4,4,1,-8
148,74,158,1,95,2,1,9,5,5,1,-7
149,73,159,1,80,1,-1,9,4,4,-1,-8
150,71,160,1,80,11,-2,9,2,2,-1,-9
151,69,161,1,80,9,-2,9,0,0,-1,-10
152,73,162,1,105,1,4,9,4,4,1,-9
153,76,163,1,80,4,3,9,7,7,1,-8
154,69,164,1,80,9,-7,9,0,0,-1,-9
155,76,165,1,80,4,7,9,7,7,1,-8
156,73,166,1,95,1,-3,9,4,4,-1,-9
157,76,167,1,80,4,3,9,7,7,1,-8
158,69,168,1,80,9,-7,9,0,0,-1,-9
159,76,169,1,80,4,7,9,7,7,1,-8
160,71,170,1,105,11,-5,9,2,2,-1,-9
161,64,171,1,80,4,-7,9,-5,7,-1,-10
162,64,172,2,80,4,0,9,-5,7,0,-10
163,73,174,1,95,1,9,9,4,4,1,-9
164,64,175,1,80,4,-9,9,-5,7,-1,-10
165,64,176,2,80,4,0,9,-5,7,0,-10
166,69,178,1,105,9,5,9,0,0,1,-9
167,71,179,1,80,11,2,9,2,2,1,-8
168,73,180,1,80,1,2,9,4,4,1,-7
169,76,181,1,80,4,3,9,7,7,1,-6
170,78,182,2,95,6,2,9,9,9,1,-5
171,81,184,1,80,9,3,9,12,0,1,-4
172,78,185,1,80,6,-3,9,9,9,-1,-5
173,76,186,1,105,4,-2,9,7,7,-1,-6
174,73,187,1,80,1,-3,9,4,4,-1,-7
175,73,188,1,80,1,0,9,4,4,0,-7
176,71,189,1,80,11,-2,9,2,2,-1,-8
177,73,190,2,95,1,2,9,4,4,1,-7
178,69,192,1,80,9,-4,9,0,0,-1,-8
179,71,193,1,80,11,2,9,2,2,1,-7
180,73,194,2,105,1,2,9,4,4,1,-6
181,69,196,1,80,9,-4,9,0,0,-1,-7
182,73,197,1,80,1,4,9,4,4,1,-6
183,76,198,1,95,4,3,9,7,7,1,-5
184,73,199,1,80,1,-3,9,4,4,-1,-6
185,69,200,1,80,9,-4,9,0,0,-1,-7
186,73,201,1,80,1,4,9,4,4,1,-6
187,71,202,1,105,11,-2,9,2,2,-1,-7
188,64,203,1,80,4,-7,9,-5,7,-1,-8
189,64,204,1,80,4,0,9,-5,7,0,-8
190,62,205,1,80,2,-2,9,-7,5,-1,-9
191,71,206,1,95,11,9,9,2,2,1,-8
192,64,207,1,80,4,-7,9,-5,7,-1,-9
193,64,208,1,80,4,0,9,-5,7,0,-9
194,62,209,1,80,2,-2,9,-7,5,-1,-10
195,73,210,2,105,1,11,9,4,4,1,-9
196,69,212,1,80,9,-4,9,0,0,-1,-10
197,61,213,1,80,1,-8,9,-8,4,-1,-11
198,76,214,1,95,4,15,9,7,7,1,-10
199,73,215,1,80,1,-3,9,4,4,-1,-11
200,69,216,1,80,9,-4,9,0,0,-1,-12
201,73,217,1,80,1,4,9,4,4,1,-11
202,71,218,1,105,11,-2,9,2,2,-1,-12
203,69,219,1,80,9,-2,9,0,0,-1,-13
204,71,220,1,80,11,2,9,2,2,1,-12
205,73,221,1,80,1,2,9,4,4,1,-11
206,74,222,1,95,2,1,9,5,5,1,-10
207,73,223,1,80,1,-1,9,4,4,-1,-11
208,71,224,1,80,11,-2,9,2,2,-1,-12
209,69,225,1,80,9,-2,9,0,0,-1,-13
210,73,226,1,105,1,4,9,4,4,1,-12
211,76,227,1,80,4,3,9,7,7,1,-11
212,69,228,1,80,9,-7,9,0,0,-1,-12
213,76,229,1,80,4,7,9,7,7,1,-11
214,73,230,1,95,1,-3,9,4,4,-1,-12
215,76,231,1,80,4,3,9,7,7,1,-11
216,69,232,1,80,9,-7,9,0,0,-1,-12
217,76,233,1,80,4,7,9,7,7,1,-11
218,71,234,1,105,11,-5,9,2,2,-1,-12
219,64,235,1,80,4,-7,9,-5,7,-1,-13
220,64,236,2,80,4,0,9,-5,7,0,-13
221,73,238,1,95,1,9,9,4,4,1,-12
222,64,239,1,80,4,-9,9,-5,7,-1,-13
223,64,240,2,80,4,0,9,-5,7,0,-13
224,69,242,1,105,9,5,9,0,0,1,-12
225,71,243,1,80,11,2,9,2,2,1,-11
226,73,244,1,80,1,2,9,4,4,1,-10
227,76,245,1,80,4,3,9,7,7,1,-9
228,78,246,2,95,6,2,9,9,9,1,-8
229,81,248,1,80,9,3,9,12,0,1,-7
230,78,249,1,80,6,-3,9,9,9,-1,-8
231,76,250,1,105,4,-2,9,7,7,-1,-9
232,73,251,1,80,1,-3,9,4,4,-1,-10
233,73,252,1,80,1,0,9,4,4,0,-10
234,71,253,1,80,11,-2,9,2,2,-1,-11
235,73,254,2,95,1,2,9,4,4,1,-10
236,73,256,1,80,1,0,9,4,4,0,-10
237,71,257,1,80,11,-2,9,2,2,-1,-11
238,69,258,8,105,9,-2,9,0,0,-1,-12
