,midi_note,onset,duration,velocity,pitch_class,interval,root,relative_pitch,relative_pitch_class,parsons_code,parsons_cumsum
0,74,0,1,105,2,0,7,7,7,0,0
1,72,1,1,80,0,-2,7,5,5,-1,-1
2,71,2,1,105,11,-1,7,4,4,-1,-2
3,74,3,1,80,2,3,7,7,7,1,-1
4,74,4,1,80,2,0,7,7,7,0,-1
5,79,5,1,80,7,5,7,12,0,1,0
6,76,6,2,95,4,-3,7,9,9,-1,-1
7,74,8,1,80,2,-2,7,7,7,-1,-2
8,72,9,1,80,0,-2,7,5,5,-1,-3
9,71,10,1,105,11,-1,7,4,4,-1,-4
10,67,11,1,80,7,-4,7,0,0,-1,-5
11,69,12,1,80,9,2,7,2,2,1,-4
12,66,13,1,80,6,-3,7,-1,11,-1,-5
13,67,14,1,95,7,1,7,0,0,1,-4
14,66,15,1,80,6,-1,7,-1,11,-1,-5
15,64,16,1,80,4,-2,7,-3,9,-1,-6
16,62,17,1,80,2,-2,7,-5,7,-1,-7
17,71,18,1,105,11,9,7,4,4,1,-6
18,74,19,1,80,2,3,7,7,7,1,-5
19,74,20,1,80,2,0,7,7,7,0,-5
20,79,21,1,80,7,5,7,12,0,1,-4
21,76,22,2,95,4,-3,7,9,9,-1,-5
22,74,24,1,80,2,-2,7,7,7,-1,-6
23,72,25,1,80,0,-2,7,5,5,-1,-7
24,71,26,1,105,11,-1,7,4,4,-1,-8
25,67,27,1,80,7,-4,7,0,0,-1,-9
26,69,28,1,80,9,2,7,2,2,1,-8
27,66,29,1,80,6,-3,7,-1,11,-1,-9
28,67,30,2,95,7,1,7,0,0,1,-8
29,74,32,1,80,2,7,7,7,7,1,-7
30,72,33,1,80,0,-2,7,5,5,-1,-8
31,71,34,1,105,11,-1,7,4,4,-1,-9
32,74,35,1,80,2,3,7,7,7,1,-8
33,74,36,1,80,2,0,7,7,7,0,-8
34,79,37,1,80,7,5,7,12,0,1,-7
35,76,38,2,95,4,-3,7,9,9,-1,-8
36,74,40,1,80,2,-2,7,7,7,-1,-9
37,72,41,1,80,0,-2,7,5,5,-1,-10
38,71,42,1,105,11,-1,7,4,4,-1,-11
39,67,43,1,80,7,-4,7,0,0,-1,-12
40,69,44,1,80,9,2,7,2,2,1,-11
41,66,45,1,80,6,-3,7,-1,11,-1,-12
42,67,46,1,95,7,1,7,0,0,1,-11
43,66,47,1,80,6,-1,7,-1,11,-1,-12
44,64,48,1,80,4,-2,7,-3,9,-1,-13
45,62,49,1,80,2,-2,7,-5,7,-1,-14
46,71,50,1,105,11,9,7,4,4,1,-13
47,74,51,1,80,2,3,7,7,7,1,-12
48,74,52,1,80,2,0,7,7,7,0,-12
49,79,53,1,80,7,5,7,12,0,1,-11
50,76,54,2,95,4,-3,7,9,9,-1,-12
51,74,56,1,80,2,-2,7,7,7,-1,-13
52,72,57,1,80,0,-2,7,5,5,-1,-14
53,71,58,1,105,11,-1,7,4,4,-1,-15
54,67,59,1,80,7,-4,7,0,0,-1,-16
55,69,60,1,80,9,2,7,2,2,1,-15
56,66,61,1,80,6,-3,7,-1,11,-1,-16
57,67,62,2,95,7,1,7,0,0,1,-15
58,76,64,1,80,4,9,7,9,9,1,-14
59,78,65,1,80,6,2,7,11,11,1,-13
60,79,66,2,105,7,1,7,12,0,1,-12
61,79,68,1,80,7,0,7,12,0,0,-12
62,78,69,1,80,6,-1,7,11,11,-1,-13
63,76,70,2,95,4,-2,7,9,9,-1,-14
64,76,72,1,80,4,0,7,9,9,0,-14
65,79,73,1,80,7,3,7,12,0,1,-13
66,78,74,1,105,6,-1,7,11,11,-1,-14
67,79,75,1,80,7,1,7,12,0,1,-13
68,81,76,1,80,9,2,7,14,2,1,-12
69,78,77,1,80,6,-3,7,11,11,-1,-13
70,79,78,1,95,7,1,7,12,0,1,-12
71,78,79,1,80,6,-1,7,11,11,-1,-13
72,76,80,1,80,4,-2,7,9,9,-1,-14
73,74,81,1,80,2,-2,7,7,7,-1,-15
74,79,82,2,105,7,5,7,12,0,1,-14
75,79,84,1,80,7,0,7,12,0,0,-14
76,78,85,1,80,6,-1,7,11,11,-1,-15
77,76,86,1,95,4,-2,7,9,9,-1,-16
78,81,87,1,80,9,5,7,14,2,1,-15
79,81,88,1,80,9,0,7,14,2,0,-15
80,79,89,1,80,7,-2,7,12,0,-1,-16
81,78,90,1,105,6,-1,7,11,11,-1,-17
82,74,91,1,80,2,-4,7,7,7,-1,-18
83,76,92,1,80,4,2,7,9,9,1,-17
84,78,93,1,80,6,2,7,11,11,1,-16
85,79,94,2,95,7,1,7,12,0,1,-15
86,81,96,0,80,9,2,7,14,2,1,-14
87,79,96,1,80,7,-2,7,12,0,-1,-15
88,71,98,1,105,11,-8,7,4,4,-1,-16
89,83,99,1,80,11,12,7,16,4,1,-15
90,84,100,0,80,0,1,7,17,5,1,-14
91,83,100,1,80,11,-1,7,16,4,-1,-15
92,69,102,1,95,9,-14,7,2,2,-1,-16
93,81,103,1,80,9,12,7,14,2,1,-15
94,81,104,1,80,9,0,7,14,2,0,-15
95,78,105,1,80,6,-3,7,11,11,-1,-16
96,74,106,1,105,2,-4,7,7,7,-1,-17
97,78,107,1,80,6,4,7,11,11,1,-16
98,79,108,1,80,7,1,7,12,0,1,-15
99,76,109,1,80,4,-3,7,9,9,-1,-16
100,74,110,1,95,2,-2,7,7,7,-1,-17
101,72,111,1,80,0,-2,7,5,5,-1,-18
102,71,112,1,80,11,-1,7,4,4,-1,-19
103,69,113,1,80,9,-2,7,2,2,-1,-20
104,71,114,1,105,11,2,7,4,4,1,-19
105,74,115,1,80,2,3,7,7,7,1,-18
106,74,116,1,80,2,0,7,7,7,0,-18
107,79,117,1,80,7,5,7,12,0,1,-17
108,76,118,2,95,4,-3,7,9,9,-1,-18
109,74,120,1,80,2,-2,7,7,7,-1,-19
110,72,121,1,80,0,-2,7,5,5,-1,-20
111,71,122,1,105,11,-1,7,4,4,-1,-21
112,67,123,1,80,7,-4,7,0,0,-1,-22
113,69,124,1,80,9,2,7,2,2,1,-21
114,66,125,1,80,6,-3,7,-1,11,-1,-22
115,67,126,4,95,7,1,7,0,0,1,-21
