,midi_note,onset,duration,velocity,pitch_class,interval,root,relative_pitch,relative_pitch_class,parsons_code,parsons_cumsum
0,71,0,1,105,11,0,7,4,4,0,0
1,72,1,1,80,0,1,7,5,5,1,1
2,74,2,1,105,2,2,7,7,7,1,2
3,79,3,1,80,7,5,7,12,0,1,3
4,76,4,1,80,4,-3,7,9,9,-1,2
5,71,5,1,80,11,-5,7,4,4,-1,1
6,74,6,1,95,2,3,7,7,7,1,2
7,71,7,1,80,11,-3,7,4,4,-1,1
8,69,8,1,80,9,-2,7,2,2,-1,0
9,71,9,1,80,11,2,7,4,4,1,1
10,67,10,1,105,7,-4,7,0,0,-1,0
11,69,11,1,80,9,2,7,2,2,1,1
12,71,12,1,80,11,2,7,4,4,1,2
13,67,13,1,80,7,-4,7,0,0,-1,1
14,64,14,1,95,4,-3,7,-3,9,-1,0
15,62,15,1,80,2,-2,7,-5,7,-1,-1
16,59,16,1,80,11,-3,7,-8,4,-1,-2
17,62,17,1,80,2,3,7,-5,7,1,-1
18,62,18,2,105,2,0,7,-5,7,0,-1
19,67,20,1,80,7,5,7,0,0,1,0
20,71,21,1,80,11,4,7,4,4,1,1
21,72,22,1,95,0,1,7,5,5,1,2
22,71,23,1,80,11,-1,7,4,4,-1,1
23,69,24,1,80,9,-2,7,2,2,-1,0
24,67,25,1,80,7,-2,7,0,0,-1,-1
25,66,26,1,105,6,-1,7,-1,11,-1,-2
26,67,27,1,80,7,1,7,0,0,1,-1
27,69,28,1,80,9,2,7,2,2,1,0
28,71,29,1,80,11,2,7,4,4,1,1
29,72,30,1,95,0,1,7,5,5,1,2
30,69,31,1,80,9,-3,7,2,2,-1,1
31,66,32,1,80,6,-3,7,-1,11,-1,0
32,62,33,1,80,2,-4,7,-5,7,-1,-1
33,74,34,1,105,2,12,7,7,7,1,0
34,79,35,1,80,7,5,7,12,0,1,1
35,76,36,1,80,4,-3,7,9,9,-1,0
36,71,37,1,80,11,-5,7,4,4,-1,-1
37,74,38,1,95,2,3,7,7,7,1,0
38,71,39,1,80,11,-3,7,4,4,-1,-1
39,69,40,1,80,9,-2,7,2,2,-1,-2
40,71,41,1,80,11,2,7,4,4,1,-1
41,67,42,2,105,7,-4,7,0,0,-1,-2
42,71,44,1,80,11,4,7,4,4,1,-1
43,67,45,1,80,7,-4,7,0,0,-1,-2
44,64,46,1,95,4,-3,7,-3,9,-1,-3
45,62,47,1,80,2,-2,7,-5,7,-1,-4
46,59,48,1,80,11,-3,7,-8,4,-1,-5
47,62,49,1,80,2,3,7,-5,7,1,-4
48,67,50,1,105,7,5,7,0,0,1,-3
49,62,51,1,80,2,-5,7,-5,7,-1,-4
50,59,52,1,80,11,-3,7,-8,4,-1,-5
51,62,53,1,80,2,3,7,-5,7,1,-4
52,67,54,1,95,7,5,7,0,0,1,-3
53,71,55,1,80,11,4,7,4,4,1,-2
54,74,56,1,80,2,3,7,7,7,1,-1
55,71,57,1,80,11,-3,7,4,4,-1,-2
56,72,58,0,105,0,1,7,5,5,1,-1
57,71,58,0,80,11,-1,7,4,4,-1,-2
58,69,59,0,80,9,-2,7,2,2,-1,-3
59,66,60,1,80,6,-3,7,-1,11,-1,-4
60,69,61,1,80,9,3,7,2,2,1,-3
61,67,62,2,95,7,-2,7,0,0,-1,-4
62,71,64,1,80,11,4,7,4,4,1,-3
63,72,65,1,80,0,1,7,5,5,1,-2
64,74,66,1,105,2,2,7,7,7,1,-1
65,79,67,1,80,7,5,7,12,0,1,0
66,76,68,1,80,4,-3,7,9,9,-1,-1
67,71,69,1,80,11,-5,7,4,4,-1,-2
68,74,70,1,95,2,3,7,7,7,1,-1
69,71,71,1,80,11,-3,7,4,4,-1,-2
70,69,72,1,80,9,-2,7,2,2,-1,-3
71,71,73,1,80,11,2,7,4,4,1,-2
72,67,74,1,105,7,-4,7,0,0,-1,-3
73,69,75,1,80,9,2,7,2,2,1,-2
74,71,76,1,80,11,2,7,4,4,1,-1
75,67,77,1,80,7,-4,7,0,0,-1,-2
76,64,78,1,95,4,-3,7,-3,9,-1,-3
77,62,79,1,80,2,-2,7,-5,7,-1,-4
78,59,80,1,80,11,-3,7,-8,4,-1,-5
79,62,81,1,80,2,3,7,-5,7,1,-4
80,62,82,2,105,2,0,7,-5,7,0,-4
81,67,84,1,80,7,5,7,0,0,1,-3
82,71,85,1,80,11,4,7,4,4,1,-2
83,72,86,1,95,0,1,7,5,5,1,-1
84,71,87,1,80,11,-1,7,4,4,-1,-2
85,69,88,1,80,9,-2,7,2,2,-1,-3
86,67,89,1,80,7,-2,7,0,0,-1,-4
87,66,90,1,105,6,-1,7,-1,11,-1,-5
88,67,91,1,80,7,1,7,0,0,1,-4
89,69,92,1,80,9,2,7,2,2,1,-3
90,71,93,1,80,11,2,7,4,4,1,-2
91,72,94,1,95,0,1,7,5,5,1,-1
92,69,95,1,80,9,-3,7,2,2,-1,-2
93,66,96,1,80,6,-3,7,-1,11,-1,-3
94,62,97,1,80,2,-4,7,-5,7,-1,-4
95,74,98,1,105,2,12,7,7,7,1,-3
96,79,99,1,80,7,5,7,12,0,1,-2
97,76,100,1,80,4,-3,7,9,9,-1,-3
98,71,101,1,80,11,-5,7,4,4,-1,-4
99,74,102,1,95,2,3,7,7,7,1,-3
100,71,103,1,80,11,-3,7,4,4,-1,-4
101,69,104,1,80,9,-2,7,2,2,-1,-5
102,71,105,1,80,11,2,7,4,4,1,-4
103,67,106,2,105,7,-4,7,0,0,-1,-5
104,71,108,1,80,11,4,7,4,4,1,-4
105,67,109,1,80,7,-4,7,0,0,-1,-5
106,64,110,1,95,4,-3,7,-3,9,-1,-6
107,62,111,1,80,2,-2,7,-5,7,-1,-7
108,59,112,1,80,11,-3,7,-8,4,-1,-8
109,62,113,1,80,2,3,7,-5,7,1,-7
110,67,114,1,105,7,5,7,0,0,1,-6
111,62,115,1,80,2,-5,7,-5,7,-1,-7
112,59,116,1,80,11,-3,7,-8,4,-1,-8
113,62,117,1,80,2,3,7,-5,7,1,-7
114,67,118,1,95,7,5,7,0,0,1,-6
115,71,119,1,80,11,4,7,4,4,1,-5
116,74,120,1,80,2,3,7,7,7,1,-4
117,71,121,1,80,11,-3,7,4,4,-1,-5
118,72,122,0,105,0,1,7,5,5,1,-4
119,71,122,0,80,11,-1,7,4,4,-1,-5
120,69,123,0,80,9,-2,7,2,2,-1,-6
121,66,124,1,80,6,-3,7,-1,11,-1,-7
122,69,125,1,80,9,3,7,2,2,1,-6
123,67,126,2,95,7,-2,7,0,0,-1,-7
124,71,128,1,80,11,4,7,4,4,1,-6
125,72,129,1,80,0,1,7,5,5,1,-5
126,74,130,1,105,2,2,7,7,7,1,-4
127,71,131,1,80,11,-3,7,4,4,-1,-5
128,72,132,0,80,0,1,7,5,5,1,-4
129,71,132,1,80,11,-1,7,4,4,-1,-5
130,79,134,1,95,7,8,7,12,0,1,-4
131,74,135,1,80,2,-5,7,7,7,-1,-5
132,71,136,1,80,11,-3,7,4,4,-1,-6
133,74,137,1,80,2,3,7,7,7,1,-5
134,74,138,1,105,2,0,7,7,7,0,-5
135,71,139,1,80,11,-3,7,4,4,-1,-6
136,72,140,0,80,0,1,7,5,5,1,-5
137,71,140,1,80,11,-1,7,4,4,-1,-6
138,79,142,1,95,7,8,7,12,0,1,-5
139,74,143,1,80,2,-5,7,7,7,-1,-6
140,71,144,1,80,11,-3,7,4,4,-1,-7
141,74,145,1,80,2,3,7,7,7,1,-6
142,62,146,2,105,2,-12,7,-5,7,-1,-7
143,67,148,1,80,7,5,7,0,0,1,-6
144,71,149,1,80,11,4,7,4,4,1,-5
145,72,150,1,95,0,1,7,5,5,1,-4
146,71,151,1,80,11,-1,7,4,4,-1,-5
147,69,152,1,80,9,-2,7,2,2,-1,-6
148,67,153,1,80,7,-2,7,0,0,-1,-7
149,66,154,1,105,6,-1,7,-1,11,-1,-8
150,67,155,1,80,7,1,7,0,0,1,-7
151,69,156,1,80,9,2,7,2,2,1,-6
152,71,157,1,80,11,2,7,4,4,1,-5
153,72,158,1,95,0,1,7,5,5,1,-4
154,76,159,1,80,4,4,7,9,9,1,-3
155,74,160,1,80,2,-2,7,7,7,-1,-4
156,72,161,1,80,0,-2,7,5,5,-1,-5
157,74,162,1,105,2,2,7,7,7,1,-4
158,71,163,1,80,11,-3,7,4,4,-1,-5
159,72,164,0,80,0,1,7,5,5,1,-4
160,71,164,1,80,11,-1,7,4,4,-1,-5
161,79,166,1,95,7,8,7,12,0,1,-4
162,74,167,1,80,2,-5,7,7,7,-1,-5
163,71,168,1,80,11,-3,7,4,4,-1,-6
164,74,169,1,80,2,3,7,7,7,1,-5
165,74,170,1,105,2,0,7,7,7,0,-5
166,71,171,1,80,11,-3,7,4,4,-1,-6
167,72,172,0,80,0,1,7,5,5,1,-5
168,71,172,1,80,11,-1,7,4,4,-1,-6
169,79,174,1,95,7,8,7,12,0,1,-5
170,74,175,1,80,2,-5,7,7,7,-1,-6
171,71,176,1,80,11,-3,7,4,4,-1,-7
172,74,177,1,80,2,3,7,7,7,1,-6
173,67,178,1,105,7,-7,7,0,0,-1,-7
174,62,179,1,80,2,-5,7,-5,7,-1,-8
175,59,180,1,80,11,-3,7,-8,4,-1,-9
176,62,181,1,80,2,3,7,-5,7,1,-8
177,67,182,1,95,7,5,7,0,0,1,-7
178,71,183,1,80,11,4,7,4,4,1,-6
179,74,184,1,80,2,3,7,7,7,1,-5
180,71,185,1,80,11,-3,7,4,4,-1,-6
181,72,186,0,105,0,1,7,5,5,1,-5
182,71,186,0,80,11,-1,7,4,4,-1,-6
183,69,187,0,80,9,-2,7,2,2,-1,-7
184,66,188,1,80,6,-3,7,-1,11,-1,-8
185,69,189,1,80,9,3,7,2,2,1,-7
186,67,190,2,95,7,-2,7,0,0,-1,-8
187,71,192,1,80,11,4,7,4,4,1,-7
188,72,193,1,80,0,1,7,5,5,1,-6
189,74,194,1,105,2,2,7,7,7,1,-5
190,71,195,1,80,11,-3,7,4,4,-1,-6
191,72,196,0,80,0,1,7,5,5,1,-5
192,71,196,1,80,11,-1,7,4,4,-1,-6
193,79,198,1,95,7,8,7,12,0,1,-5
194,74,199,1,80,2,-5,7,7,7,-1,-6
195,71,200,1,80,11,-3,7,4,4,-1,-7
196,74,201,1,80,2,3,7,7,7,1,-6
197,74,202,1,105,2,0,7,7,7,0,-6
198,71,203,1,80,11,-3,7,4,4,-1,-7
199,72,204,0,80,0,1,7,5,5,1,-6
200,71,204,1,80,11,-1,7,4,4,-1,-7
201,79,206,1,95,7,8,7,12,0,1,-6
202,74,207,1,80,2,-5,7,7,7,-1,-7
203,71,208,1,80,11,-3,7,4,4,-1,-8
204,74,209,1,80,2,3,7,7,7,1,-7
205,62,210,2,105,2,-12,7,-5,7,-1,-8
206,67,212,1,80,7,5,7,0,0,1,-7
207,71,213,1,80,11,4,7,4,4,1,-6
208,72,214,1,95,0,1,7,5,5,1,-5
209,71,215,1,80,11,-1,7,4,4,-1,-6
210,69,216,1,80,9,-2,7,2,2,-1,-7
211,67,217,1,80,7,-2,7,0,0,-1,-8
212,66,218,1,105,6,-1,7,-1,11,-1,-9
213,67,219,1,80,7,1,7,0,0,1,-8
214,69,220,1,80,9,2,7,2,2,1,-7
215,71,221,1,80,11,2,7,4,4,1,-6
216,72,222,1,95,0,1,7,5,5,1,-5
217,76,223,1,80,4,4,7,9,9,1,-4
218,74,224,1,80,2,-2,7,7,7,-1,-5
219,72,225,1,80,0,-2,7,5,5,-1,-6
220,74,226,1,105,2,2,7,7,7,1,-5
221,71,227,1,80,11,-3,7,4,4,-1,-6
222,72,228,0,80,0,1,7,5,5,1,-5
223,71,228,1,80,11,-1,7,4,4,-1,-6
224,79,230,1,95,7,8,7,12,0,1,-5
225,74,231,1,80,2,-5,7,7,7,-1,-6
226,71,232,1,80,11,-3,7,4,4,-1,-7
227,74,233,1,80,2,3,7,7,7,1,-6
228,74,234,1,105,2,0,7,7,7,0,-6
229,71,235,1,80,11,-3,7,4,4,-1,-7
230,72,236,0,80,0,1,7,5,5,1,-6
231,71,236,1,80,11,-1,7,4,4,-1,-7
232,79,238,1,95,7,8,7,12,0,1,-6
233,74,239,1,80,2,-5,7,7,7,-1,-7
234,71,240,1,80,11,-3,7,4,4,-1,-8
235,74,241,1,80,2,3,7,7,7,1,-7
236,67,242,1,105,7,-7,7,0,0,-1,-8
237,62,243,1,80,2,-5,7,-5,7,-1,-9
238,59,244,1,80,11,-3,7,-8,4,-1,-10
239,62,245,1,80,2,3,7,-5,7,1,-9
240,67,246,1,95,7,5,7,0,0,1,-8
241,71,247,1,80,11,4,7,4,4,1,-7
242,74,248,1,80,2,3,7,7,7,1,-6
243,71,249,1,80,11,-3,7,4,4,-1,-7
244,72,250,0,105,0,1,7,5,5,1,-6
245,71,250,0,80,11,-1,7,4,4,-1,-7
246,69,251,0,80,9,-2,7,2,2,-1,-8
247,66,252,1,80,6,-3,7,-1,11,-1,-9
248,69,253,1,80,9,3,7,2,2,1,-8
249,67,254,12,95,7,-2,7,0,0,-1,-9
