,midi_note,onset,duration,velocity,pitch_class,interval,root,relative_pitch,relative_pitch_class,parsons_code,parsons_cumsum
0,69,0,2,105,9,0,2,7,7,0,0
1,71,2,1,80,11,2,2,9,9,1,1
2,74,3,2,95,2,3,2,12,0,1,2
3,76,5,1,80,4,2,2,14,2,1,3
4,78,6,2,95,6,2,2,16,4,1,4
5,78,8,1,80,6,0,2,16,4,0,4
6,78,9,1,95,6,0,2,16,4,0,4
7,76,10,1,80,4,-2,2,14,2,-1,3
8,74,11,1,80,2,-2,2,12,0,-1,2
9,81,12,2,105,9,7,2,19,7,1,3
10,81,14,1,80,9,0,2,19,7,0,3
11,81,15,1,95,9,0,2,19,7,0,3
12,79,16,1,80,7,-2,2,17,5,-1,2
13,78,17,1,80,6,-1,2,16,4,-1,1
14,76,18,1,95,4,-2,2,14,2,-1,0
15,74,19,1,80,2,-2,2,12,0,-1,-1
16,76,20,1,80,4,2,2,14,2,1,0
17,78,21,1,95,6,2,2,16,4,1,1
18,76,22,1,80,4,-2,2,14,2,-1,0
19,74,23,1,80,2,-2,2,12,0,-1,-1
20,69,24,1,105,9,-5,2,7,7,-1,-2
21,71,25,1,80,11,2,2,9,9,1,-1
22,73,26,1,80,1,2,2,11,11,1,0
23,74,27,1,95,2,1,2,12,0,1,1
24,76,28,1,80,4,2,2,14,2,1,2
25,78,29,1,80,6,2,2,16,4,1,3
26,79,30,2,95,7,1,2,17,5,1,4
27,79,32,1,80,7,0,2,17,5,0,4
28,79,33,1,95,7,0,2,17,5,0,4
29,81,34,1,80,9,2,2,19,7,1,5
30,83,35,1,80,11,2,2,21,9,1,6
31,81,36,1,105,9,-2,2,19,7,-1,5
32,78,37,1,80,6,-3,2,16,4,-1,4
33,74,38,1,80,2,-4,2,12,0,-1,3
34,76,39,2,95,4,2,2,14,2,1,4
35,74,41,1,80,2,-2,2,12,0,-1,3
36,71,42,3,95,11,-3,2,9,9,-1,2
37,74,45,3,95,2,3,2,12,0,1,3
38,69,48,2,105,9,-5,2,7,7,-1,2
39,71,50,1,80,11,2,2,9,9,1,3
40,74,51,2,95,2,3,2,12,0,1,4
41,76,53,1,80,4,2,2,14,2,1,5
42,78,54,2,95,6,2,2,16,4,1,6
43,78,56,1,80,6,0,2,16,4,0,6
44,78,57,1,95,6,0,2,16,4,0,6
45,76,58,1,80,4,-2,2,14,2,-1,5
46,74,59,1,80,2,-2,2,12,0,-1,4
47,81,60,2,105,9,7,2,19,7,1,5
48,81,62,1,80,9,0,2,19,7,0,5
49,81,63,1,95,9,0,2,19,7,0,5
50,79,64,1,80,7,-2,2,17,5,-1,4
51,78,65,1,80,6,-1,2,16,4,-1,3
52,76,66,1,95,4,-2,2,14,2,-1,2
53,74,67,1,80,2,-2,2,12,0,-1,1
54,76,68,1,80,4,2,2,14,2,1,2
55,78,69,1,95,6,2,2,16,4,1,3
56,76,70,1,80,4,-2,2,14,2,-1,2
57,74,71,1,80,2,-2,2,12,0,-1,1
58,69,72,1,105,9,-5,2,7,7,-1,0
59,71,73,1,80,11,2,2,9,9,1,1
60,73,74,1,80,1,2,2,11,11,1,2
61,74,75,1,95,2,1,2,12,0,1,3
62,76,76,1,80,4,2,2,14,2,1,4
63,78,77,1,80,6,2,2,16,4,1,5
64,79,78,2,95,7,1,2,17,5,1,6
65,79,80,1,80,7,0,2,17,5,0,6
66,79,81,1,95,7,0,2,17,5,0,6
67,81,82,1,80,9,2,2,19,7,1,7
68,83,83,1,80,11,2,2,21,9,1,8
69,81,84,1,105,9,-2,2,19,7,-1,7
70,78,85,1,80,6,-3,2,16,4,-1,6
71,74,86,1,80,2,-4,2,12,0,-1,5
72,76,87,2,95,4,2,2,14,2,1,6
73,74,89,1,80,2,-2,2,12,0,-1,5
74,71,90,3,95,11,-3,2,9,9,-1,4
75,74,93,3,95,2,3,2,12,0,1,5
76,78,96,1,105,6,4,2,16,4,1,6
77,79,97,1,80,7,1,2,17,5,1,7
78,81,98,1,80,9,2,2,19,7,1,8
79,81,99,1,95,9,0,2,19,7,0,8
80,79,100,1,80,7,-2,2,17,5,-1,7
81,78,101,1,80,6,-1,2,16,4,-1,6
82,79,102,1,95,7,1,2,17,5,1,7
83,81,103,1,80,9,2,2,19,7,1,8
84,83,104,1,80,11,2,2,21,9,1,9
85,83,105,1,95,11,0,2,21,9,0,9
86,81,106,1,80,9,-2,2,19,7,-1,8
87,79,107,1,80,7,-2,2,17,5,-1,7
88,78,108,1,105,6,-1,2,16,4,-1,6
89,79,109,1,80,7,1,2,17,5,1,7
90,81,110,1,80,9,2,2,19,7,1,8
91,81,111,1,95,9,0,2,19,7,0,8
92,79,112,1,80,7,-2,2,17,5,-1,7
93,78,113,1,80,6,-1,2,16,4,-1,6
94,79,114,1,95,7,1,2,17,5,1,7
95,76,115,1,80,4,-3,2,14,2,-1,6
96,76,116,1,80,4,0,2,14,2,0,6
97,76,117,1,95,4,0,2,14,2,0,6
98,74,118,1,80,2,-2,2,12,0,-1,5
99,76,119,1,80,4,2,2,14,2,1,6
100,78,120,1,105,6,2,2,16,4,1,7
101,79,121,1,80,7,1,2,17,5,1,8
102,81,122,1,80,9,2,2,19,7,1,9
103,81,123,1,95,9,0,2,19,7,0,9
104,79,124,1,80,7,-2,2,17,5,-1,8
105,78,125,1,80,6,-1,2,16,4,-1,7
106,79,126,1,95,7,1,2,17,5,1,8
107,81,127,1,80,9,2,2,19,7,1,9
108,83,128,1,80,11,2,2,21,9,1,10
109,83,129,1,95,11,0,2,21,9,0,10
110,81,130,1,80,9,-2,2,19,7,-1,9
111,79,131,1,80,7,-2,2,17,5,-1,8
112,81,132,1,105,9,2,2,19,7,1,9
113,78,133,1,80,6,-3,2,16,4,-1,8
114,74,134,1,80,2,-4,2,12,0,-1,7
115,76,135,2,95,4,2,2,14,2,1,8
116,74,137,1,80,2,-2,2,12,0,-1,7
117,71,138,3,95,11,-3,2,9,9,-1,6
118,74,141,3,95,2,3,2,12,0,1,7
119,78,144,1,105,6,4,2,16,4,1,8
120,79,145,1,80,7,1,2,17,5,1,9
121,81,146,1,80,9,2,2,19,7,1,10
122,81,147,1,95,9,0,2,19,7,0,10
123,79,148,1,80,7,-2,2,17,5,-1,9
124,78,149,1,80,6,-1,2,16,4,-1,8
125,79,150,1,95,7,1,2,17,5,1,9
126,81,151,1,80,9,2,2,19,7,1,10
127,83,152,1,80,11,2,2,21,9,1,11
128,83,153,1,95,11,0,2,21,9,0,11
129,81,154,1,80,9,-2,2,19,7,-1,10
130,79,155,1,80,7,-2,2,17,5,-1,9
131,78,156,1,105,6,-1,2,16,4,-1,8
132,79,157,1,80,7,1,2,17,5,1,9
133,81,158,1,80,9,2,2,19,7,1,10
134,81,159,1,95,9,0,2,19,7,0,10
135,79,160,1,80,7,-2,2,17,5,-1,9
136,78,161,1,80,6,-1,2,16,4,-1,8
137,79,162,1,95,7,1,2,17,5,1,9
138,76,163,1,80,4,-3,2,14,2,-1,8
139,76,164,1,80,4,0,2,14,2,0,8
140,76,165,1,95,4,0,2,14,2,0,8
141,74,166,1,80,2,-2,2,12,0,-1,7
142,76,167,1,80,4,2,2,14,2,1,8
143,78,168,1,105,6,2,2,16,4,1,9
144,79,169,1,80,7,1,2,17,5,1,10
145,81,170,1,80,9,2,2,19,7,1,11
146,81,171,1,95,9,0,2,19,7,0,11
147,79,172,1,80,7,-2,2,17,5,-1,10
148,78,173,1,80,6,-1,2,16,4,-1,9
149,79,174,1,95,7,1,2,17,5,1,10
150,81,175,1,80,9,2,2,19,7,1,11
151,83,176,1,80,11,2,2,21,9,1,12
152,83,177,1,95,11,0,2,21,9,0,12
153,81,178,1,80,9,-2,2,19,7,-1,11
154,79,179,1,80,7,-2,2,17,5,-1,10
155,81,180,1,105,9,2,2,19,7,1,11
156,78,181,1,80,6,-3,2,16,4,-1,10
157,74,182,1,80,2,-4,2,12,0,-1,9
158,76,183,2,95,4,2,2,14,2,1,10
159,74,185,1,80,2,-2,2,12,0,-1,9
160,71,186,3,95,11,-3,2,9,9,-1,8
161,74,189,3,95,2,3,2,12,0,1,9
