,midi_note,onset,duration,velocity,pitch_class,interval,root,relative_pitch,relative_pitch_class,parsons_code,parsons_cumsum
0,71,0,1,105,11,0,7,4,4,0,0
1,72,1,0,80,0,1,7,5,5,1,1
2,74,2,1,105,2,2,7,7,7,1,2
3,71,3,0,80,11,-3,7,4,4,-1,1
4,67,4,1,80,7,-4,7,0,0,-1,0
5,71,5,0,80,11,4,7,4,4,1,1
6,69,6,1,95,9,-2,7,2,2,-1,0
7,66,7,0,80,6,-3,7,-1,11,-1,-1
8,62,8,1,80,2,-4,7,-5,7,-1,-2
9,60,9,0,80,0,-2,7,-7,5,-1,-3
10,59,10,1,105,11,-1,7,-8,4,-1,-4
11,62,11,0,80,2,3,7,-5,7,1,-3
12,64,12,1,80,4,2,7,-3,9,1,-2
13,66,13,0,80,6,2,7,-1,11,1,-1
14,67,14,1,95,7,1,7,0,0,1,0
15,69,15,0,80,9,2,7,2,2,1,1
16,71,16,1,80,11,2,7,4,4,1,2
17,72,17,0,80,0,1,7,5,5,1,3
18,74,18,1,105,2,2,7,7,7,1,4
19,79,19,0,80,7,5,7,12,0,1,5
20,78,20,1,80,6,-1,7,11,11,-1,4
21,79,21,0,80,7,1,7,12,0,1,5
22,76,22,1,95,4,-3,7,9,9,-1,4
23,78,23,0,80,6,2,7,11,11,1,5
24,79,24,1,80,7,1,7,12,0,1,6
25,76,25,0,80,4,-3,7,9,9,-1,5
26,74,26,1,105,2,-2,7,7,7,-1,4
27,71,27,0,80,11,-3,7,4,4,-1,3
28,67,28,1,80,7,-4,7,0,0,-1,2
29,71,29,0,80,11,4,7,4,4,1,3
30,69,30,2,95,9,-2,7,2,2,-1,2
31,71,32,1,80,11,2,7,4,4,1,3
32,72,33,0,80,0,1,7,5,5,1,4
33,74,34,1,105,2,2,7,7,7,1,5
34,71,35,0,80,11,-3,7,4,4,-1,4
35,67,36,1,80,7,-4,7,0,0,-1,3
36,71,37,0,80,11,4,7,4,4,1,4
37,69,38,1,95,9,-2,7,2,2,-1,3
38,66,39,0,80,6,-3,7,-1,11,-1,2
39,62,40,1,80,2,-4,7,-5,7,-1,1
40,60,41,0,80,0,-2,7,-7,5,-1,0
41,59,42,1,105,11,-1,7,-8,4,-1,-1
42,62,43,0,80,2,3,7,-5,7,1,0
43,64,44,1,80,4,2,7,-3,9,1,1
44,66,45,0,80,6,2,7,-1,11,1,2
45,67,46,1,95,7,1,7,0,0,1,3
46,69,47,0,80,9,2,7,2,2,1,4
47,71,48,1,80,11,2,7,4,4,1,5
48,72,49,0,80,0,1,7,5,5,1,6
49,74,50,1,105,2,2,7,7,7,1,7
50,79,51,0,80,7,5,7,12,0,1,8
51,78,52,1,80,6,-1,7,11,11,-1,7
52,79,53,0,80,7,1,7,12,0,1,8
53,76,54,1,95,4,-3,7,9,9,-1,7
54,72,55,0,80,0,-4,7,5,5,-1,6
55,69,56,1,80,9,-3,7,2,2,-1,5
56,66,57,0,80,6,-3,7,-1,11,-1,4
57,67,58,2,105,7,1,7,0,0,1,5
58,67,60,2,80,7,0,7,0,0,0,5
59,67,62,2,95,7,0,7,0,0,0,5
60,71,64,1,80,11,4,7,4,4,1,6
61,72,65,0,80,0,1,7,5,5,1,7
62,74,66,1,105,2,2,7,7,7,1,8
63,71,67,0,80,11,-3,7,4,4,-1,7
64,67,68,1,80,7,-4,7,0,0,-1,6
65,71,69,0,80,11,4,7,4,4,1,7
66,69,70,1,95,9,-2,7,2,2,-1,6
67,66,71,0,80,6,-3,7,-1,11,-1,5
68,62,72,1,80,2,-4,7,-5,7,-1,4
69,60,73,0,80,0,-2,7,-7,5,-1,3
70,59,74,1,105,11,-1,7,-8,4,-1,2
71,62,75,0,80,2,3,7,-5,7,1,3
72,64,76,1,80,4,2,7,-3,9,1,4
73,66,77,0,80,6,2,7,-1,11,1,5
74,67,78,1,95,7,1,7,0,0,1,6
75,69,79,0,80,9,2,7,2,2,1,7
76,71,80,1,80,11,2,7,4,4,1,8
77,72,81,0,80,0,1,7,5,5,1,9
78,74,82,1,105,2,2,7,7,7,1,10
79,79,83,0,80,7,5,7,12,0,1,11
80,78,84,1,80,6,-1,7,11,11,-1,10
81,79,85,0,80,7,1,7,12,0,1,11
82,76,86,1,95,4,-3,7,9,9,-1,10
83,78,87,0,80,6,2,7,11,11,1,11
84,79,88,1,80,7,1,7,12,0,1,12
85,76,89,0,80,4,-3,7,9,9,-1,11
86,74,90,1,105,2,-2,7,7,7,-1,10
87,71,91,0,80,11,-3,7,4,4,-1,9
88,67,92,1,80,7,-4,7,0,0,-1,8
89,71,93,0,80,11,4,7,4,4,1,9
90,69,94,2,95,9,-2,7,2,2,-1,8
91,71,96,1,80,11,2,7,4,4,1,9
92,72,97,0,80,0,1,7,5,5,1,10
93,74,98,1,105,2,2,7,7,7,1,11
94,71,99,0,80,11,-3,7,4,4,-1,10
95,67,100,1,80,7,-4,7,0,0,-1,9
96,71,101,0,80,11,4,7,4,4,1,10
97,69,102,1,95,9,-2,7,2,2,-1,9
98,66,103,0,80,6,-3,7,-1,11,-1,8
99,62,104,1,80,2,-4,7,-5,7,-1,7
100,60,105,0,80,0,-2,7,-7,5,-1,6
101,59,106,1,105,11,-1,7,-8,4,-1,5
102,62,107,0,80,2,3,7,-5,7,1,6
103,64,108,1,80,4,2,7,-3,9,1,7
104,66,109,0,80,6,2,7,-1,11,1,8
105,67,110,1,95,7,1,7,0,0,1,9
106,69,111,0,80,9,2,7,2,2,1,10
107,71,112,1,80,11,2,7,4,4,1,11
108,72,113,0,80,0,1,7,5,5,1,12
109,74,114,1,105,2,2,7,7,7,1,13
110,79,115,0,80,7,5,7,12,0,1,14
111,78,116,1,80,6,-1,7,11,11,-1,13
112,79,117,0,80,7,1,7,12,0,1,14
113,76,118,1,95,4,-3,7,9,9,-1,13
114,72,119,0,80,0,-4,7,5,5,-1,12
115,69,120,1,80,9,-3,7,2,2,-1,11
116,66,121,0,80,6,-3,7,-1,11,-1,10
117,67,122,2,105,7,1,7,0,0,1,11
118,67,124,2,80,7,0,7,0,0,0,11
119,67,126,2,95,7,0,7,0,0,0,11
120,71,128,1,80,11,4,7,4,4,1,12
121,72,129,0,80,0,1,7,5,5,1,13
122,74,130,1,105,2,2,7,7,7,1,14
123,79,131,0,80,7,5,7,12,0,1,15
124,78,132,1,80,6,-1,7,11,11,-1,14
125,79,133,0,80,7,1,7,12,0,1,15
126,76,134,1,95,4,-3,7,9,9,-1,14
127,78,135,0,80,6,2,7,11,11,1,15
128,79,136,1,80,7,1,7,12,0,1,16
129,76,137,0,80,4,-3,7,9,9,-1,15
130,74,138,1,105,2,-2,7,7,7,-1,14
131,79,139,0,80,7,5,7,12,0,1,15
132,78,140,1,80,6,-1,7,11,11,-1,14
133,79,141,0,80,7,1,7,12,0,1,15
134,76,142,1,95,4,-3,7,9,9,-1,14
135,78,143,0,80,6,2,7,11,11,1,15
136,79,144,2,80,7,1,7,12,0,1,16
137,79,146,2,105,7,0,7,12,0,0,16
138,78,148,1,80,6,-1,7,11,11,-1,15
139,79,149,0,80,7,1,7,12,0,1,16
140,76,150,1,95,4,-3,7,9,9,-1,15
141,78,151,0,80,6,2,7,11,11,1,16
142,79,152,1,80,7,1,7,12,0,1,17
143,76,153,0,80,4,-3,7,9,9,-1,16
144,74,154,1,105,2,-2,7,7,7,-1,15
145,71,155,0,80,11,-3,7,4,4,-1,14
146,67,156,1,80,7,-4,7,0,0,-1,13
147,71,157,0,80,11,4,7,4,4,1,14
148,69,158,2,95,9,-2,7,2,2,-1,13
149,71,160,1,80,11,2,7,4,4,1,14
150,72,161,0,80,0,1,7,5,5,1,15
151,74,162,1,105,2,2,7,7,7,1,16
152,71,163,0,80,11,-3,7,4,4,-1,15
153,67,164,1,80,7,-4,7,0,0,-1,14
154,71,165,0,80,11,4,7,4,4,1,15
155,69,166,1,95,9,-2,7,2,2,-1,14
156,66,167,0,80,6,-3,7,-1,11,-1,13
157,62,168,1,80,2,-4,7,-5,7,-1,12
158,60,169,0,80,0,-2,7,-7,5,-1,11
159,59,170,1,105,11,-1,7,-8,4,-1,10
160,62,171,0,80,2,3,7,-5,7,1,11
161,64,172,1,80,4,2,7,-3,9,1,12
162,66,173,0,80,6,2,7,-1,11,1,13
163,67,174,1,95,7,1,7,0,0,1,14
164,69,175,0,80,9,2,7,2,2,1,15
165,71,176,1,80,11,2,7,4,4,1,16
166,72,177,0,80,0,1,7,5,5,1,17
167,74,178,1,105,2,2,7,7,7,1,18
168,79,179,0,80,7,5,7,12,0,1,19
169,78,180,1,80,6,-1,7,11,11,-1,18
170,79,181,0,80,7,1,7,12,0,1,19
171,76,182,1,95,4,-3,7,9,9,-1,18
172,72,183,0,80,0,-4,7,5,5,-1,17
173,69,184,1,80,9,-3,7,2,2,-1,16
174,66,185,0,80,6,-3,7,-1,11,-1,15
175,67,186,2,105,7,1,7,0,0,1,16
176,67,188,2,80,7,0,7,0,0,0,16
177,67,190,2,95,7,0,7,0,0,0,16
178,71,192,1,80,11,4,7,4,4,1,17
179,72,193,0,80,0,1,7,5,5,1,18
180,74,194,1,105,2,2,7,7,7,1,19
181,79,195,0,80,7,5,7,12,0,1,20
182,78,196,1,80,6,-1,7,11,11,-1,19
183,79,197,0,80,7,1,7,12,0,1,20
184,76,198,1,95,4,-3,7,9,9,-1,19
185,78,199,0,80,6,2,7,11,11,1,20
186,79,200,1,80,7,1,7,12,0,1,21
187,76,201,0,80,4,-3,7,9,9,-1,20
188,74,202,1,105,2,-2,7,7,7,-1,19
189,79,203,0,80,7,5,7,12,0,1,20
190,78,204,1,80,6,-1,7,11,11,-1,19
191,79,205,0,80,7,1,7,12,0,1,20
192,76,206,1,95,4,-3,7,9,9,-1,19
193,78,207,0,80,6,2,7,11,11,1,20
194,79,208,2,80,7,1,7,12,0,1,21
195,79,210,2,105,7,0,7,12,0,0,21
196,78,212,1,80,6,-1,7,11,11,-1,20
197,79,213,0,80,7,1,7,12,0,1,21
198,76,214,1,95,4,-3,7,9,9,-1,20
199,78,215,0,80,6,2,7,11,11,1,21
200,79,216,1,80,7,1,7,12,0,1,22
201,76,217,0,80,4,-3,7,9,9,-1,21
202,74,218,1,105,2,-2,7,7,7,-1,20
203,71,219,0,80,11,-3,7,4,4,-1,19
204,67,220,1,80,7,-4,7,0,0,-1,18
205,71,221,0,80,11,4,7,4,4,1,19
206,69,222,2,95,9,-2,7,2,2,-1,18
207,71,224,1,80,11,2,7,4,4,1,19
208,72,225,0,80,0,1,7,5,5,1,20
209,74,226,1,105,2,2,7,7,7,1,21
210,71,227,0,80,11,-3,7,4,4,-1,20
211,67,228,1,80,7,-4,7,0,0,-1,19
212,71,229,0,80,11,4,7,4,4,1,20
213,69,230,1,95,9,-2,7,2,2,-1,19
214,66,231,0,80,6,-3,7,-1,11,-1,18
215,62,232,1,80,2,-4,7,-5,7,-1,17
216,60,233,0,80,0,-2,7,-7,5,-1,16
217,59,234,1,105,11,-1,7,-8,4,-1,15
218,62,235,0,80,2,3,7,-5,7,1,16
219,64,236,1,80,4,2,7,-3,9,1,17
220,66,237,0,80,6,2,7,-1,11,1,18
221,67,238,1,95,7,1,7,0,0,1,19
222,69,239,0,80,9,2,7,2,2,1,20
223,71,240,1,80,11,2,7,4,4,1,21
224,72,241,0,80,0,1,7,5,5,1,22
225,74,242,1,105,2,2,7,7,7,1,23
226,79,243,0,80,7,5,7,12,0,1,24
227,78,244,1,80,6,-1,7,11,11,-1,23
228,79,245,0,80,7,1,7,12,0,1,24
229,76,246,1,95,4,-3,7,9,9,-1,23
230,72,247,0,80,0,-4,7,5,5,-1,22
231,69,248,1,80,9,-3,7,2,2,-1,21
232,66,249,0,80,6,-3,7,-1,11,-1,20
233,67,250,2,105,7,1,7,0,0,1,21
234,67,252,2,80,7,0,7,0,0,0,21
235,67,254,2,95,7,0,7,0,0,0,21
