,midi_note,onset,duration,velocity,pitch_class,interval,root,relative_pitch,relative_pitch_class,parsons_code,parsons_cumsum
0,66,0,1,105,6,0,9,-3,9,0,0
1,69,1,2,105,9,3,9,0,0,1,1
2,69,3,1,80,9,0,9,0,0,0,1
3,66,4,1,80,6,-3,9,-3,9,-1,0
4,69,5,3,95,9,3,9,0,0,1,1
5,71,8,1,80,11,2,9,2,2,1,2
6,73,9,1,105,1,2,9,4,4,1,3
7,71,10,1,80,11,-2,9,2,2,-1,2
8,69,11,1,80,9,-2,9,0,0,-1,1
9,71,12,1,80,11,2,9,2,2,1,2
10,73,13,1,95,1,2,9,4,4,1,3
11,71,14,1,80,11,-2,9,2,2,-1,2
12,73,15,0,80,1,2,9,4,4,1,3
13,71,15,1,80,11,-2,9,2,2,-1,2
14,69,17,1,105,9,-2,9,0,0,-1,1
15,66,18,1,80,6,-3,9,-3,9,-1,0
16,66,19,2,80,6,0,9,-3,9,0,0
17,69,21,3,95,9,3,9,0,0,1,1
18,71,24,1,80,11,2,9,2,2,1,2
19,73,25,1,105,1,2,9,4,4,1,3
20,71,26,1,80,11,-2,9,2,2,-1,2
21,69,27,1,80,9,-2,9,0,0,-1,1
22,66,28,1,80,6,-3,9,-3,9,-1,0
23,66,29,1,95,6,0,9,-3,9,0,0
24,64,30,1,80,4,-2,9,-5,7,-1,-1
25,64,31,1,80,4,0,9,-5,7,0,-1
26,66,32,1,80,6,2,9,-3,9,1,0
27,69,33,3,105,9,3,9,0,0,1,1
28,66,36,1,80,6,-3,9,-3,9,-1,0
29,69,37,3,95,9,3,9,0,0,1,1
30,71,40,1,80,11,2,9,2,2,1,2
31,73,41,1,105,1,2,9,4,4,1,3
32,71,42,1,80,11,-2,9,2,2,-1,2
33,69,43,1,80,9,-2,9,0,0,-1,1
34,71,44,1,80,11,2,9,2,2,1,2
35,73,45,1,95,1,2,9,4,4,1,3
36,71,46,1,80,11,-2,9,2,2,-1,2
37,71,47,2,80,11,0,9,2,2,0,2
38,73,49,1,105,1,2,9,4,4,1,3
39,76,50,1,80,4,3,9,7,7,1,4
40,76,51,2,80,4,0,9,7,7,0,4
41,78,53,1,95,6,2,9,9,9,1,5
42,73,54,1,80,1,-5,9,4,4,-1,4
43,76,55,1,80,4,3,9,7,7,1,5
44,73,56,1,80,1,-3,9,4,4,-1,4
45,74,57,0,105,2,1,9,5,5,1,5
46,73,57,0,80,1,-1,9,4,4,-1,4
47,71,58,0,80,11,-2,9,2,2,-1,3
48,69,59,1,80,9,-2,9,0,0,-1,2
49,66,60,1,80,6,-3,9,-3,9,-1,1
50,66,61,1,95,6,0,9,-3,9,0,1
51,64,62,1,80,4,-2,9,-5,7,-1,0
52,64,63,1,80,4,0,9,-5,7,0,0
53,66,64,1,80,6,2,9,-3,9,1,1
54,69,65,2,105,9,3,9,0,0,1,2
55,69,67,1,80,9,0,9,0,0,0,2
56,66,68,1,80,6,-3,9,-3,9,-1,1
57,69,69,3,95,9,3,9,0,0,1,2
58,71,72,1,80,11,2,9,2,2,1,3
59,73,73,1,105,1,2,9,4,4,1,4
60,71,74,1,80,11,-2,9,2,2,-1,3
61,69,75,1,80,9,-2,9,0,0,-1,2
62,71,76,1,80,11,2,9,2,2,1,3
63,73,77,1,95,1,2,9,4,4,1,4
64,71,78,1,80,11,-2,9,2,2,-1,3
65,73,79,0,80,1,2,9,4,4,1,4
66,71,79,1,80,11,-2,9,2,2,-1,3
67,69,81,1,105,9,-2,9,0,0,-1,2
68,66,82,1,80,6,-3,9,-3,9,-1,1
69,66,83,2,80,6,0,9,-3,9,0,1
70,69,85,3,95,9,3,9,0,0,1,2
71,71,88,1,80,11,2,9,2,2,1,3
72,73,89,1,105,1,2,9,4,4,1,4
73,71,90,1,80,11,-2,9,2,2,-1,3
74,69,91,1,80,9,-2,9,0,0,-1,2
75,66,92,1,80,6,-3,9,-3,9,-1,1
76,66,93,1,95,6,0,9,-3,9,0,1
77,64,94,1,80,4,-2,9,-5,7,-1,0
78,64,95,1,80,4,0,9,-5,7,0,0
79,66,96,1,80,6,2,9,-3,9,1,1
80,69,97,3,105,9,3,9,0,0,1,2
81,66,100,1,80,6,-3,9,-3,9,-1,1
82,69,101,3,95,9,3,9,0,0,1,2
83,71,104,1,80,11,2,9,2,2,1,3
84,73,105,1,105,1,2,9,4,4,1,4
85,71,106,1,80,11,-2,9,2,2,-1,3
86,69,107,1,80,9,-2,9,0,0,-1,2
87,71,108,1,80,11,2,9,2,2,1,3
88,73,109,1,95,1,2,9,4,4,1,4
89,71,110,1,80,11,-2,9,2,2,-1,3
90,71,111,2,80,11,0,9,2,2,0,3
91,73,113,1,105,1,2,9,4,4,1,4
92,76,114,1,80,4,3,9,7,7,1,5
93,76,115,2,80,4,0,9,7,7,0,5
94,78,117,1,95,6,2,9,9,9,1,6
95,73,118,1,80,1,-5,9,4,4,-1,5
96,76,119,1,80,4,3,9,7,7,1,6
97,73,120,1,80,1,-3,9,4,4,-1,5
98,74,121,0,105,2,1,9,5,5,1,6
99,73,121,0,80,1,-1,9,4,4,-1,5
100,71,122,0,80,11,-2,9,2,2,-1,4
101,69,123,1,80,9,-2,9,0,0,-1,3
102,66,124,1,80,6,-3,9,-3,9,-1,2
103,66,125,1,95,6,0,9,-3,9,0,2
104,64,126,1,80,4,-2,9,-5,7,-1,1
105,64,127,1,80,4,0,9,-5,7,0,1
106,71,128,1,80,11,7,9,2,2,1,2
107,73,129,1,105,1,2,9,4,4,1,3
108,76,130,1,80,4,3,9,7,7,1,4
109,76,131,1,80,4,0,9,7,7,0,4
110,73,132,1,80,1,-3,9,4,4,-1,3
111,69,133,3,95,9,-4,9,0,0,-1,2
112,71,136,1,80,11,2,9,2,2,1,3
113,73,137,1,105,1,2,9,4,4,1,4
114,76,138,1,80,4,3,9,7,7,1,5
115,76,139,1,80,4,0,9,7,7,0,5
116,73,140,1,80,1,-3,9,4,4,-1,4
117,74,141,0,95,2,1,9,5,5,1,5
118,73,141,0,80,1,-1,9,4,4,-1,4
119,71,142,0,80,11,-2,9,2,2,-1,3
120,71,143,2,80,11,0,9,2,2,0,3
121,73,145,1,105,1,2,9,4,4,1,4
122,76,146,1,80,4,3,9,7,7,1,5
123,76,147,1,80,4,0,9,7,7,0,5
124,73,148,1,80,1,-3,9,4,4,-1,4
125,69,149,3,95,9,-4,9,0,0,-1,3
126,71,152,1,80,11,2,9,2,2,1,4
127,73,153,1,105,1,2,9,4,4,1,5
128,71,154,1,80,11,-2,9,2,2,-1,4
129,69,155,1,80,9,-2,9,0,0,-1,3
130,66,156,1,80,6,-3,9,-3,9,-1,2
131,66,157,1,95,6,0,9,-3,9,0,2
132,64,158,1,80,4,-2,9,-5,7,-1,1
133,64,159,1,80,4,0,9,-5,7,0,1
134,71,160,1,80,11,7,9,2,2,1,2
135,73,161,1,105,1,2,9,4,4,1,3
136,76,162,1,80,4,3,9,7,7,1,4
137,76,163,1,80,4,0,9,7,7,0,4
138,73,164,1,80,1,-3,9,4,4,-1,3
139,69,165,3,95,9,-4,9,0,0,-1,2
140,71,168,1,80,11,2,9,2,2,1,3
141,73,169,1,105,1,2,9,4,4,1,4
142,76,170,1,80,4,3,9,7,7,1,5
143,76,171,1,80,4,0,9,7,7,0,5
144,73,172,1,80,1,-3,9,4,4,-1,4
145,74,173,0,95,2,1,9,5,5,1,5
146,73,173,0,80,1,-1,9,4,4,-1,4
147,71,174,0,80,11,-2,9,2,2,-1,3
148,71,175,2,80,11,0,9,2,2,0,3
149,73,177,1,105,1,2,9,4,4,1,4
150,76,178,1,80,4,3,9,7,7,1,5
151,76,179,2,80,4,0,9,7,7,0,5
152,78,181,1,95,6,2,9,9,9,1,6
153,73,182,1,80,1,-5,9,4,4,-1,5
154,76,183,1,80,4,3,9,7,7,1,6
155,73,184,1,80,1,-3,9,4,4,-1,5
156,74,185,0,105,2,1,9,5,5,1,6
157,73,185,0,80,1,-1,9,4,4,-1,5
158,71,186,0,80,11,-2,9,2,2,-1,4
159,69,187,1,80,9,-2,9,0,0,-1,3
160,66,188,1,80,6,-3,9,-3,9,-1,2
161,66,189,1,95,6,0,9,-3,9,0,2
162,64,190,1,80,4,-2,9,-5,7,-1,1
163,64,191,1,80,4,0,9,-5,7,0,1
164,71,192,1,80,11,7,9,2,2,1,2
165,73,193,1,105,1,2,9,4,4,1,3
166,76,194,1,80,4,3,9,7,7,1,4
167,76,195,1,80,4,0,9,7,7,0,4
168,73,196,1,80,1,-3,9,4,4,-1,3
169,69,197,3,95,9,-4,9,0,0,-1,2
170,71,200,1,80,11,2,9,2,2,1,3
171,73,201,1,105,1,2,9,4,4,1,4
172,76,202,1,80,4,3,9,7,7,1,5
173,76,203,1,80,4,0,9,7,7,0,5
174,73,204,1,80,1,-3,9,4,4,-1,4
175,74,205,0,95,2,1,9,5,5,1,5
176,73,205,0,80,1,-1,9,4,4,-1,4
177,71,206,0,80,11,-2,9,2,2,-1,3
178,71,207,2,80,11,0,9,2,2,0,3
179,73,209,1,105,1,2,9,4,4,1,4
180,76,210,1,80,4,3,9,7,7,1,5
181,76,211,1,80,4,0,9,7,7,0,5
182,73,212,1,80,1,-3,9,4,4,-1,4
183,69,213,3,95,9,-4,9,0,0,-1,3
184,71,216,1,80,11,2,9,2,2,1,4
185,73,217,1,105,1,2,9,4,4,1,5
186,71,218,1,80,11,-2,9,2,2,-1,4
187,69,219,1,80,9,-2,9,0,0,-1,3
188,66,220,1,80,6,-3,9,-3,9,-1,2
189,66,221,1,95,6,0,9,-3,9,0,2
190,64,222,1,80,4,-2,9,-5,7,-1,1
191,64,223,1,80,4,0,9,-5,7,0,1
192,71,224,1,80,11,7,9,2,2,1,2
193,73,225,1,105,1,2,9,4,4,1,3
194,76,226,1,80,4,3,9,7,7,1,4
195,76,227,1,80,4,0,9,7,7,0,4
196,73,228,1,80,1,-3,9,4,4,-1,3
197,69,229,3,95,9,-4,9,0,0,-1,2
198,71,232,1,80,11,2,9,2,2,1,3
199,73,233,1,105,1,2,9,4,4,1,4
200,76,234,1,80,4,3,9,7,7,1,5
201,76,235,1,80,4,0,9,7,7,0,5
202,73,236,1,80,1,-3,9,4,4,-1,4
203,74,237,0,95,2,1,9,5,5,1,5
204,73,237,0,80,1,-1,9,4,4,-1,4
205,71,238,0,80,11,-2,9,2,2,-1,3
206,71,239,2,80,11,0,9,2,2,0,3
207,73,241,1,105,1,2,9,4,4,1,4
208,76,242,1,80,4,3,9,7,7,1,5
209,76,243,2,80,4,0,9,7,7,0,5
210,78,245,1,95,6,2,9,9,9,1,6
211,73,246,1,80,1,-5,9,4,4,-1,5
212,76,247,1,80,4,3,9,7,7,1,6
213,73,248,1,80,1,-3,9,4,4,-1,5
214,74,249,0,105,2,1,9,5,5,1,6
215,73,249,0,80,1,-1,9,4,4,-1,5
216,71,250,0,80,11,-2,9,2,2,-1,4
217,69,251,1,80,9,-2,9,0,0,-1,3
218,66,252,1,80,6,-3,9,-3,9,-1,2
219,66,253,1,95,6,0,9,-3,9,0,2
220,64,254,1,80,4,-2,9,-5,7,-1,1
221,64,255,1,80,4,0,9,-5,7,0,1
