,midi_note,onset,duration,velocity,pitch_class,interval,root,relative_pitch,relative_pitch_class,parsons_code,parsons_cumsum
0,81,0,1,105,9,0,9,12,0,0,0
1,79,1,1,80,7,-2,9,10,10,-1,-1
2,76,2,1,80,4,-3,9,7,7,-1,-2
3,74,3,1,80,2,-2,9,5,5,-1,-3
4,71,4,1,95,11,-3,9,2,2,-1,-4
5,67,5,1,80,7,-4,9,-2,10,-1,-5
6,67,6,1,80,7,0,9,-2,10,0,-5
7,66,7,1,80,6,-1,9,-3,9,-1,-6
8,67,8,2,105,7,1,9,-2,10,1,-5
9,71,10,1,80,11,4,9,2,2,1,-4
10,67,11,1,80,7,-4,9,-2,10,-1,-5
11,74,12,1,95,2,7,9,5,5,1,-4
12,67,13,1,80,7,-7,9,-2,10,-1,-5
13,76,14,2,80,4,9,9,7,7,1,-4
14,81,16,1,105,9,5,9,12,0,1,-3
15,79,17,1,80,7,-2,9,10,10,-1,-4
16,76,18,1,80,4,-3,9,7,7,-1,-5
17,74,19,1,80,2,-2,9,5,5,-1,-6
18,71,20,1,95,11,-3,9,2,2,-1,-7
19,67,21,1,80,7,-4,9,-2,10,-1,-8
20,67,22,2,80,7,0,9,-2,10,0,-8
21,71,24,1,105,11,4,9,2,2,1,-7
22,73,25,1,80,1,2,9,4,4,1,-6
23,74,26,1,80,2,1,9,5,5,1,-5
24,71,27,1,80,11,-3,9,2,2,-1,-6
25,69,28,2,95,9,-2,9,0,0,-1,-7
26,81,30,1,80,9,12,9,12,0,1,-6
27,83,31,1,80,11,2,9,14,2,1,-5
28,81,32,1,105,9,-2,9,12,0,-1,-6
29,79,33,1,80,7,-2,9,10,10,-1,-7
30,76,34,1,80,4,-3,9,7,7,-1,-8
31,74,35,1,80,2,-2,9,5,5,-1,-9
32,71,36,1,95,11,-3,9,2,2,-1,-10
33,67,37,1,80,7,-4,9,-2,10,-1,-11
34,67,38,1,80,7,0,9,-2,10,0,-11
35,69,39,1,80,9,2,9,0,0,1,-10
36,71,40,0,105,11,2,9,2,2,1,-9
37,69,40,0,80,9,-2,9,0,0,-1,-10
38,67,41,0,80,7,-2,9,-2,10,-1,-11
39,71,42,1,80,11,4,9,2,2,1,-10
40,67,43,1,80,7,-4,9,-2,10,-1,-11
41,74,44,1,95,2,7,9,5,5,1,-10
42,67,45,1,80,7,-7,9,-2,10,-1,-11
43,76,46,2,80,4,9,9,7,7,1,-10
44,81,48,1,105,9,5,9,12,0,1,-9
45,79,49,1,80,7,-2,9,10,10,-1,-10
46,76,50,1,80,4,-3,9,7,7,-1,-11
47,74,51,1,80,2,-2,9,5,5,-1,-12
48,71,52,1,95,11,-3,9,2,2,-1,-13
49,67,53,1,80,7,-4,9,-2,10,-1,-14
50,67,54,2,80,7,0,9,-2,10,0,-14
51,71,56,1,105,11,4,9,2,2,1,-13
52,73,57,1,80,1,2,9,4,4,1,-12
53,74,58,1,80,2,1,9,5,5,1,-11
54,71,59,1,80,11,-3,9,2,2,-1,-12
55,69,60,3,95,9,-2,9,0,0,-1,-13
56,76,64,1,105,4,7,9,7,7,1,-12
57,81,65,1,80,9,5,9,12,0,1,-11
58,81,66,1,80,9,0,9,12,0,0,-11
59,76,67,1,80,4,-5,9,7,7,-1,-12
60,79,68,3,95,7,3,9,10,10,1,-11
61,81,71,1,80,9,2,9,12,0,1,-10
62,76,72,1,105,4,-5,9,7,7,-1,-11
63,81,73,1,80,9,5,9,12,0,1,-10
64,81,74,1,80,9,0,9,12,0,0,-10
65,76,75,1,80,4,-5,9,7,7,-1,-11
66,79,76,1,95,7,3,9,10,10,1,-10
67,76,77,1,80,4,-3,9,7,7,-1,-11
68,74,78,1,80,2,-2,9,5,5,-1,-12
69,79,79,1,80,7,5,9,10,10,1,-11
70,76,80,1,105,4,-3,9,7,7,-1,-12
71,81,81,1,80,9,5,9,12,0,1,-11
72,81,82,2,80,9,0,9,12,0,0,-11
73,79,84,2,95,7,-2,9,10,10,-1,-12
74,81,86,1,80,9,2,9,12,0,1,-11
75,79,87,1,80,7,-2,9,10,10,-1,-12
76,76,88,1,105,4,-3,9,7,7,-1,-13
77,79,89,1,80,7,3,9,10,10,1,-12
78,74,90,1,80,2,-5,9,5,5,-1,-13
79,67,91,1,80,7,-7,9,-2,10,-1,-14
80,71,92,1,95,11,4,9,2,2,1,-13
81,69,93,1,80,9,-2,9,0,0,-1,-14
82,69,94,2,80,9,0,9,0,0,0,-14
83,81,96,3,105,9,12,9,12,0,1,-13
84,78,99,1,80,6,-3,9,9,9,-1,-14
85,79,100,3,95,7,1,9,10,10,1,-13
86,78,103,1,80,6,-1,9,9,9,-1,-14
87,81,104,3,105,9,3,9,12,0,1,-13
88,78,107,1,80,6,-3,9,9,9,-1,-14
89,79,108,1,95,7,1,9,10,10,1,-13
90,76,109,1,80,4,-3,9,7,7,-1,-14
91,74,110,2,80,2,-2,9,5,5,-1,-15
92,83,112,1,105,11,9,9,14,2,1,-14
93,79,113,1,80,7,-4,9,10,10,-1,-15
94,81,114,1,80,9,2,9,12,0,1,-14
95,79,115,1,80,7,-2,9,10,10,-1,-15
96,76,116,1,95,4,-3,9,7,7,-1,-16
97,81,117,1,80,9,5,9,12,0,1,-15
98,78,118,1,80,6,-3,9,9,9,-1,-16
99,81,119,1,80,9,3,9,12,0,1,-15
100,79,120,1,105,7,-2,9,10,10,-1,-16
101,76,121,1,80,4,-3,9,7,7,-1,-17
102,74,122,1,80,2,-2,9,5,5,-1,-18
103,71,123,1,80,11,-3,9,2,2,-1,-19
104,69,124,3,95,9,-2,9,0,0,-1,-20
