,midi_note,onset,duration,velocity,pitch_class,interval,root,relative_pitch,relative_pitch_class,parsons_code,parsons_cumsum
0,71,0,2,105,11,0,7,4,4,0,0
1,69,2,1,80,9,-2,7,2,2,-1,-1
2,72,3,1,80,0,3,7,5,5,1,0
3,71,4,1,95,11,-1,7,4,4,-1,-1
4,67,5,1,80,7,-4,7,0,0,-1,-2
5,67,6,2,80,7,0,7,0,0,0,-2
6,71,8,1,105,11,4,7,4,4,1,-1
7,67,9,1,80,7,-4,7,0,0,-1,-2
8,74,10,1,80,2,7,7,7,7,1,-1
9,67,11,1,80,7,-7,7,0,0,-1,-2
10,71,12,1,95,11,4,7,4,4,1,-1
11,67,13,1,80,7,-4,7,0,0,-1,-2
12,62,14,1,80,2,-5,7,-5,7,-1,-3
13,67,15,1,80,7,5,7,0,0,1,-2
14,71,16,2,105,11,4,7,4,4,1,-1
15,69,18,1,80,9,-2,7,2,2,-1,-2
16,72,19,1,80,0,3,7,5,5,1,-1
17,71,20,1,95,11,-1,7,4,4,-1,-2
18,67,21,1,80,7,-4,7,0,0,-1,-3
19,69,22,1,80,9,2,7,2,2,1,-2
20,67,23,1,80,7,-2,7,0,0,-1,-3
21,71,24,0,105,11,4,7,4,4,1,-2
22,72,24,0,80,0,1,7,5,5,1,-1
23,74,25,0,80,2,2,7,7,7,1,0
24,76,26,1,80,4,2,7,9,9,1,1
25,78,27,1,80,6,2,7,11,11,1,2
26,79,28,1,95,7,1,7,12,0,1,3
27,78,29,1,80,6,-1,7,11,11,-1,2
28,76,30,1,80,4,-2,7,9,9,-1,1
29,74,31,1,80,2,-2,7,7,7,-1,0
30,71,32,2,105,11,-3,7,4,4,-1,-1
31,69,34,1,80,9,-2,7,2,2,-1,-2
32,72,35,1,80,0,3,7,5,5,1,-1
33,71,36,1,95,11,-1,7,4,4,-1,-2
34,67,37,1,80,7,-4,7,0,0,-1,-3
35,71,38,0,80,11,4,7,4,4,1,-2
36,69,38,0,80,9,-2,7,2,2,-1,-3
37,67,39,0,80,7,-2,7,0,0,-1,-4
38,71,40,1,105,11,4,7,4,4,1,-3
39,67,41,1,80,7,-4,7,0,0,-1,-4
40,62,42,1,80,2,-5,7,-5,7,-1,-5
41,67,43,1,80,7,5,7,0,0,1,-4
42,71,44,1,95,11,4,7,4,4,1,-3
43,67,45,1,80,7,-4,7,0,0,-1,-4
44,67,46,1,80,7,0,7,0,0,0,-4
45,71,48,0,105,11,4,7,4,4,1,-3
46,72,48,0,80,0,1,7,5,5,1,-2
47,71,49,0,80,11,-1,7,4,4,-1,-3
48,69,50,1,80,9,-2,7,2,2,-1,-4
49,72,51,1,80,0,3,7,5,5,1,-3
50,71,52,1,95,11,-1,7,4,4,-1,-4
51,67,53,1,80,7,-4,7,0,0,-1,-5
52,67,54,2,80,7,0,7,0,0,0,-5
53,71,56,0,105,11,4,7,4,4,1,-4
54,72,56,0,80,0,1,7,5,5,1,-3
55,74,57,0,80,2,2,7,7,7,1,-2
56,76,58,1,80,4,2,7,9,9,1,-1
57,78,59,1,80,6,2,7,11,11,1,0
58,79,60,2,95,7,1,7,12,0,1,1
59,78,62,1,80,6,-1,7,11,11,-1,0
60,79,63,1,80,7,1,7,12,0,1,1
61,81,64,2,105,9,2,7,14,2,1,2
62,81,67,1,80,9,0,7,14,2,0,2
63,81,68,2,95,9,0,7,14,2,0,2
64,81,70,1,80,9,0,7,14,2,0,2
65,79,71,1,80,7,-2,7,12,0,-1,1
66,78,72,1,105,6,-1,7,11,11,-1,0
67,79,73,1,80,7,1,7,12,0,1,1
68,81,74,1,80,9,2,7,14,2,1,2
69,83,75,1,80,11,2,7,16,4,1,3
70,84,76,0,95,0,1,7,17,5,1,4
71,83,76,0,80,11,-1,7,16,4,-1,3
72,81,77,0,80,9,-2,7,14,2,-1,2
73,83,78,0,80,11,2,7,16,4,1,3
74,81,78,0,80,9,-2,7,14,2,-1,2
75,79,79,0,80,7,-2,7,12,0,-1,1
76,81,80,2,105,9,2,7,14,2,1,2
77,81,83,1,80,9,0,7,14,2,0,2
78,81,84,2,95,9,0,7,14,2,0,2
79,81,86,1,80,9,0,7,14,2,0,2
80,79,87,1,80,7,-2,7,12,0,-1,1
81,78,88,1,105,6,-1,7,11,11,-1,0
82,74,89,1,80,2,-4,7,7,7,-1,-1
83,71,90,0,80,11,-3,7,4,4,-1,-2
84,72,90,0,80,0,1,7,5,5,1,-1
85,74,91,0,80,2,2,7,7,7,1,0
86,79,92,2,95,7,5,7,12,0,1,1
87,78,94,1,80,6,-1,7,11,11,-1,0
88,79,95,1,80,7,1,7,12,0,1,1
89,81,96,2,105,9,2,7,14,2,1,2
90,81,99,1,80,9,0,7,14,2,0,2
91,81,100,2,95,9,0,7,14,2,0,2
92,81,102,1,80,9,0,7,14,2,0,2
93,79,103,1,80,7,-2,7,12,0,-1,1
94,78,104,1,105,6,-1,7,11,11,-1,0
95,79,105,1,80,7,1,7,12,0,1,1
96,81,106,1,80,9,2,7,14,2,1,2
97,83,107,1,80,11,2,7,16,4,1,3
98,84,108,2,95,0,1,7,17,5,1,4
99,83,110,1,80,11,-1,7,16,4,-1,3
100,84,111,1,80,0,1,7,17,5,1,4
101,86,112,2,105,2,2,7,19,7,1,5
102,84,114,0,80,0,-2,7,17,5,-1,4
103,83,114,0,80,11,-1,7,16,4,-1,3
104,81,115,0,80,9,-2,7,14,2,-1,2
105,83,116,1,95,11,2,7,16,4,1,3
106,79,117,1,80,7,-4,7,12,0,-1,2
107,81,118,1,80,9,2,7,14,2,1,3
108,79,119,1,80,7,-2,7,12,0,-1,2
109,79,120,2,105,7,0,7,12,0,0,2
110,81,122,1,80,9,2,7,14,2,1,3
111,78,123,1,80,6,-3,7,11,11,-1,2
112,79,124,1,95,7,1,7,12,0,1,3
113,78,125,1,80,6,-1,7,11,11,-1,2
114,76,126,1,80,4,-2,7,9,9,-1,1
115,74,127,1,80,2,-2,7,7,7,-1,0
