,midi_note,onset,duration,velocity,pitch_class,interval,root,relative_pitch,relative_pitch_class,parsons_code,parsons_cumsum
0,66,0,1,105,6,0,2,4,4,0,0
1,67,1,3,105,7,1,2,5,5,1,1
2,69,4,1,95,9,2,2,7,7,1,2
3,67,5,1,80,7,-2,2,5,5,-1,1
4,66,6,1,80,6,-1,2,4,4,-1,0
5,67,7,2,95,7,1,2,5,5,1,1
6,74,9,1,80,2,7,2,12,0,1,2
7,79,10,2,95,7,5,2,17,5,1,3
8,74,12,1,80,2,-5,2,12,0,-1,2
9,67,13,2,105,7,-7,2,5,5,-1,1
10,71,15,1,80,11,4,2,9,9,1,2
11,67,16,2,95,7,-4,2,5,5,-1,1
12,71,18,1,80,11,4,2,9,9,1,2
13,69,19,1,95,9,-2,2,7,7,-1,1
14,66,20,1,80,6,-3,2,4,4,-1,0
15,64,21,1,80,4,-2,2,2,2,-1,-1
16,62,22,1,95,2,-2,2,0,0,-1,-2
17,64,23,1,80,4,2,2,2,2,1,-1
18,66,24,1,80,6,2,2,4,4,1,0
19,67,25,3,105,7,1,2,5,5,1,1
20,69,28,1,95,9,2,2,7,7,1,2
21,67,29,1,80,7,-2,2,5,5,-1,1
22,66,30,1,80,6,-1,2,4,4,-1,0
23,67,31,2,95,7,1,2,5,5,1,1
24,74,33,1,80,2,7,2,12,0,1,2
25,79,34,3,95,7,5,2,17,5,1,3
26,78,37,1,105,6,-1,2,16,4,-1,2
27,81,38,1,80,9,3,2,19,7,1,3
28,78,39,1,80,6,-3,2,16,4,-1,2
29,79,40,2,95,7,1,2,17,5,1,3
30,76,42,1,80,4,-3,2,14,2,-1,2
31,78,43,2,95,6,2,2,16,4,1,3
32,74,45,1,80,2,-4,2,12,0,-1,2
33,69,46,2,95,9,-5,2,7,7,-1,1
34,66,48,1,80,6,-3,2,4,4,-1,0
35,67,49,3,105,7,1,2,5,5,1,1
36,69,52,1,95,9,2,2,7,7,1,2
37,67,53,1,80,7,-2,2,5,5,-1,1
38,66,54,1,80,6,-1,2,4,4,-1,0
39,67,55,2,95,7,1,2,5,5,1,1
40,74,57,1,80,2,7,2,12,0,1,2
41,79,58,2,95,7,5,2,17,5,1,3
42,74,60,1,80,2,-5,2,12,0,-1,2
43,67,61,2,105,7,-7,2,5,5,-1,1
44,71,63,1,80,11,4,2,9,9,1,2
45,67,64,2,95,7,-4,2,5,5,-1,1
46,71,66,1,80,11,4,2,9,9,1,2
47,69,67,1,95,9,-2,2,7,7,-1,1
48,66,68,1,80,6,-3,2,4,4,-1,0
49,64,69,1,80,4,-2,2,2,2,-1,-1
50,62,70,1,95,2,-2,2,0,0,-1,-2
51,64,71,1,80,4,2,2,2,2,1,-1
52,66,72,1,80,6,2,2,4,4,1,0
53,67,73,3,105,7,1,2,5,5,1,1
54,69,76,1,95,9,2,2,7,7,1,2
55,67,77,1,80,7,-2,2,5,5,-1,1
56,66,78,1,80,6,-1,2,4,4,-1,0
57,67,79,2,95,7,1,2,5,5,1,1
58,74,81,1,80,2,7,2,12,0,1,2
59,79,82,3,95,7,5,2,17,5,1,3
60,78,85,1,105,6,-1,2,16,4,-1,2
61,81,86,1,80,9,3,2,19,7,1,3
62,78,87,1,80,6,-3,2,16,4,-1,2
63,79,88,1,95,7,1,2,17,5,1,3
64,78,89,1,80,6,-1,2,16,4,-1,2
65,76,90,1,80,4,-2,2,14,2,-1,1
66,74,91,2,95,2,-2,2,12,0,-1,0
67,76,93,1,80,4,2,2,14,2,1,1
68,78,94,2,95,6,2,2,16,4,1,2
69,79,96,1,80,7,1,2,17,5,1,3
70,81,97,2,105,9,2,2,19,7,1,4
71,78,99,1,80,6,-3,2,16,4,-1,3
72,74,100,2,95,2,-4,2,12,0,-1,2
73,78,102,1,80,6,4,2,16,4,1,3
74,81,103,1,95,9,3,2,19,7,1,4
75,83,104,1,80,11,2,2,21,9,1,5
76,81,105,1,80,9,-2,2,19,7,-1,4
77,81,106,2,95,9,0,2,19,7,0,4
78,78,108,1,80,6,-3,2,16,4,-1,3
79,81,109,2,105,9,3,2,19,7,1,4
80,78,111,1,80,6,-3,2,16,4,-1,3
81,74,112,2,95,2,-4,2,12,0,-1,2
82,78,114,1,80,6,4,2,16,4,1,3
83,76,115,1,95,4,-2,2,14,2,-1,2
84,73,116,1,80,1,-3,2,11,11,-1,1
85,71,117,1,80,11,-2,2,9,9,-1,0
86,69,118,2,95,9,-2,2,7,7,-1,-1
87,78,120,1,105,6,9,2,16,4,1,0
88,81,121,2,105,9,3,2,19,7,1,1
89,78,123,1,80,6,-3,2,16,4,-1,0
90,74,124,2,95,2,-4,2,12,0,-1,-1
91,78,126,1,80,6,4,2,16,4,1,0
92,81,127,2,95,9,3,2,19,7,1,1
93,78,129,1,80,6,-3,2,16,4,-1,0
94,83,130,2,95,11,5,2,21,9,1,1
95,79,132,1,80,7,-4,2,17,5,-1,0
96,78,133,1,105,6,-1,2,16,4,-1,-1
97,81,134,1,80,9,3,2,19,7,1,0
98,78,135,1,80,6,-3,2,16,4,-1,-1
99,79,136,1,95,7,1,2,17,5,1,0
100,78,137,1,80,6,-1,2,16,4,-1,-1
101,76,138,1,80,4,-2,2,14,2,-1,-2
102,74,139,2,95,2,-2,2,12,0,-1,-3
103,76,141,1,80,4,2,2,14,2,1,-2
104,78,142,2,95,6,2,2,16,4,1,-1
105,79,144,1,80,7,1,2,17,5,1,0
106,81,145,2,105,9,2,2,19,7,1,1
107,78,147,1,80,6,-3,2,16,4,-1,0
108,74,148,2,95,2,-4,2,12,0,-1,-1
109,78,150,1,80,6,4,2,16,4,1,0
110,81,151,1,95,9,3,2,19,7,1,1
111,83,152,1,80,11,2,2,21,9,1,2
112,81,153,1,80,9,-2,2,19,7,-1,1
113,81,154,2,95,9,0,2,19,7,0,1
114,78,156,1,80,6,-3,2,16,4,-1,0
115,81,157,2,105,9,3,2,19,7,1,1
116,78,159,1,80,6,-3,2,16,4,-1,0
117,74,160,2,95,2,-4,2,12,0,-1,-1
118,78,162,1,80,6,4,2,16,4,1,0
119,76,163,1,95,4,-2,2,14,2,-1,-1
120,73,164,1,80,1,-3,2,11,11,-1,-2
121,71,165,1,80,11,-2,2,9,9,-1,-3
122,69,166,2,95,9,-2,2,7,7,-1,-4
123,79,168,1,105,7,10,2,17,5,1,-3
124,78,169,1,105,6,-1,2,16,4,-1,-4
125,81,170,1,80,9,3,2,19,7,1,-3
126,78,171,1,80,6,-3,2,16,4,-1,-4
127,79,172,2,95,7,1,2,17,5,1,-3
128,76,174,1,80,4,-3,2,14,2,-1,-4
129,81,175,2,95,9,5,2,19,7,1,-3
130,78,177,1,80,6,-3,2,16,4,-1,-4
131,83,178,2,95,11,5,2,21,9,1,-3
132,79,180,1,80,7,-4,2,17,5,-1,-4
133,78,181,1,105,6,-1,2,16,4,-1,-5
134,81,182,1,80,9,3,2,19,7,1,-4
135,78,183,1,80,6,-3,2,16,4,-1,-5
136,79,184,2,95,7,1,2,17,5,1,-4
137,76,186,1,80,4,-3,2,14,2,-1,-5
138,74,187,6,95,2,-2,2,12,0,-1,-6
