,midi_note,onset,duration,velocity,pitch_class,interval,root,relative_pitch,relative_pitch_class,parsons_code,parsons_cumsum
0,64,0,1,105,4,0,2,2,2,0,0
1,62,1,1,105,2,-2,2,0,0,-1,-1
2,64,2,1,80,4,2,2,2,2,1,0
3,62,3,1,80,2,-2,2,0,0,-1,-1
4,74,4,2,95,2,12,2,12,0,1,0
5,71,6,1,80,11,-3,2,9,9,-1,-1
6,69,7,5,95,9,-2,2,7,7,-1,-2
7,64,12,1,80,4,-5,2,2,2,-1,-3
8,62,13,1,105,2,-2,2,0,0,-1,-4
9,64,14,1,80,4,2,2,2,2,1,-3
10,62,15,1,80,2,-2,2,0,0,-1,-4
11,74,16,2,95,2,12,2,12,0,1,-3
12,69,18,1,80,9,-5,2,7,7,-1,-4
13,71,19,2,95,11,2,2,9,9,1,-3
14,64,21,1,80,4,-7,2,2,2,-1,-4
15,64,22,3,95,4,0,2,2,2,0,-4
16,62,25,1,105,2,-2,2,0,0,-1,-5
17,64,26,1,80,4,2,2,2,2,1,-4
18,62,27,1,80,2,-2,2,0,0,-1,-5
19,74,28,2,95,2,12,2,12,0,1,-4
20,71,30,1,80,11,-3,2,9,9,-1,-5
21,69,31,3,95,9,-2,2,7,7,-1,-6
22,78,34,2,95,6,9,2,16,4,1,-5
23,79,36,1,80,7,1,2,17,5,1,-4
24,81,37,2,105,9,2,2,19,7,1,-3
25,78,39,1,80,6,-3,2,16,4,-1,-4
26,76,40,2,95,4,-2,2,14,2,-1,-5
27,79,42,1,80,7,3,2,17,5,1,-4
28,78,43,2,95,6,-1,2,16,4,-1,-5
29,74,45,1,80,2,-4,2,12,0,-1,-6
30,74,46,2,95,2,0,2,12,0,0,-6
31,64,48,1,80,4,-10,2,2,2,-1,-7
32,62,49,1,105,2,-2,2,0,0,-1,-8
33,64,50,1,80,4,2,2,2,2,1,-7
34,62,51,1,80,2,-2,2,0,0,-1,-8
35,74,52,2,95,2,12,2,12,0,1,-7
36,71,54,1,80,11,-3,2,9,9,-1,-8
37,69,55,5,95,9,-2,2,7,7,-1,-9
38,64,60,1,80,4,-5,2,2,2,-1,-10
39,62,61,1,105,2,-2,2,0,0,-1,-11
40,64,62,1,80,4,2,2,2,2,1,-10
41,62,63,1,80,2,-2,2,0,0,-1,-11
42,74,64,2,95,2,12,2,12,0,1,-10
43,69,66,1,80,9,-5,2,7,7,-1,-11
44,71,67,2,95,11,2,2,9,9,1,-10
45,64,69,1,80,4,-7,2,2,2,-1,-11
46,64,70,3,95,4,0,2,2,2,0,-11
47,62,73,1,105,2,-2,2,0,0,-1,-12
48,64,74,1,80,4,2,2,2,2,1,-11
49,62,75,1,80,2,-2,2,0,0,-1,-12
50,74,76,2,95,2,12,2,12,0,1,-11
51,71,78,1,80,11,-3,2,9,9,-1,-12
52,69,79,3,95,9,-2,2,7,7,-1,-13
53,78,82,2,95,6,9,2,16,4,1,-12
54,79,84,1,80,7,1,2,17,5,1,-11
55,81,85,2,105,9,2,2,19,7,1,-10
56,78,87,1,80,6,-3,2,16,4,-1,-11
57,76,88,2,95,4,-2,2,14,2,-1,-12
58,79,90,1,80,7,3,2,17,5,1,-11
59,78,91,2,95,6,-1,2,16,4,-1,-12
60,74,93,1,80,2,-4,2,12,0,-1,-13
61,74,94,2,95,2,0,2,12,0,0,-13
62,78,96,1,80,6,4,2,16,4,1,-12
63,81,97,2,105,9,3,2,19,7,1,-11
64,78,99,1,80,6,-3,2,16,4,-1,-12
65,74,100,2,95,2,-4,2,12,0,-1,-13
66,78,102,1,80,6,4,2,16,4,1,-12
67,79,103,3,95,7,1,2,17,5,1,-11
68,78,106,2,95,6,-1,2,16,4,-1,-12
69,79,108,1,80,7,1,2,17,5,1,-11
70,81,109,2,105,9,2,2,19,7,1,-10
71,78,111,1,80,6,-3,2,16,4,-1,-11
72,74,112,2,95,2,-4,2,12,0,-1,-12
73,78,114,1,80,6,4,2,16,4,1,-11
74,76,115,2,95,4,-2,2,14,2,-1,-12
75,73,117,1,80,1,-3,2,11,11,-1,-13
76,69,118,2,95,9,-4,2,7,7,-1,-14
77,79,120,1,80,7,10,2,17,5,1,-13
78,81,121,2,105,9,2,2,19,7,1,-12
79,78,123,1,80,6,-3,2,16,4,-1,-13
80,74,124,2,95,2,-4,2,12,0,-1,-14
81,78,126,1,80,6,4,2,16,4,1,-13
82,79,127,3,95,7,1,2,17,5,1,-12
83,78,130,2,95,6,-1,2,16,4,-1,-13
84,79,132,1,80,7,1,2,17,5,1,-12
85,81,133,2,105,9,2,2,19,7,1,-11
86,78,135,1,80,6,-3,2,16,4,-1,-12
87,76,136,2,95,4,-2,2,14,2,-1,-13
88,79,138,1,80,7,3,2,17,5,1,-12
89,78,139,2,95,6,-1,2,16,4,-1,-13
90,74,141,1,80,2,-4,2,12,0,-1,-14
91,74,142,2,95,2,0,2,12,0,0,-14
92,78,144,1,80,6,4,2,16,4,1,-13
93,81,145,2,105,9,3,2,19,7,1,-12
94,78,147,1,80,6,-3,2,16,4,-1,-13
95,74,148,2,95,2,-4,2,12,0,-1,-14
96,78,150,1,80,6,4,2,16,4,1,-13
97,79,151,3,95,7,1,2,17,5,1,-12
98,78,154,2,95,6,-1,2,16,4,-1,-13
99,79,156,1,80,7,1,2,17,5,1,-12
100,81,157,2,105,9,2,2,19,7,1,-11
101,78,159,1,80,6,-3,2,16,4,-1,-12
102,74,160,2,95,2,-4,2,12,0,-1,-13
103,78,162,1,80,6,4,2,16,4,1,-12
104,76,163,2,95,4,-2,2,14,2,-1,-13
105,73,165,1,80,1,-3,2,11,11,-1,-14
106,69,166,2,95,9,-4,2,7,7,-1,-15
107,79,168,1,80,7,10,2,17,5,1,-14
108,81,169,2,105,9,2,2,19,7,1,-13
109,78,171,1,80,6,-3,2,16,4,-1,-14
110,74,172,2,95,2,-4,2,12,0,-1,-15
111,78,174,1,80,6,4,2,16,4,1,-14
112,79,175,3,95,7,1,2,17,5,1,-13
113,78,178,2,95,6,-1,2,16,4,-1,-14
114,79,180,1,80,7,1,2,17,5,1,-13
115,81,181,2,105,9,2,2,19,7,1,-12
116,78,183,1,80,6,-3,2,16,4,-1,-13
117,76,184,2,95,4,-2,2,14,2,-1,-14
118,79,186,1,80,7,3,2,17,5,1,-13
119,78,187,2,95,6,-1,2,16,4,-1,-14
120,74,189,1,80,2,-4,2,12,0,-1,-15
121,74,190,2,95,2,0,2,12,0,0,-15
