,midi_note,onset,duration,velocity,pitch_class,interval,root,relative_pitch,relative_pitch_class,parsons_code,parsons_cumsum
0,69,0,1,105,9,0,2,7,7,0,0
1,74,1,1,105,2,5,2,12,0,1,1
2,69,2,1,80,9,-5,2,7,7,-1,0
3,66,3,1,80,6,-3,2,4,4,-1,-1
4,64,4,2,95,4,-2,2,2,2,-1,-2
5,66,6,1,80,6,2,2,4,4,1,-1
6,62,7,1,105,2,-4,2,0,0,-1,-2
7,64,8,1,80,4,2,2,2,2,1,-1
8,62,9,1,80,2,-2,2,0,0,-1,-2
9,62,10,2,95,2,0,2,0,0,0,-2
10,71,12,1,80,11,9,2,9,9,1,-1
11,69,13,1,105,9,-2,2,7,7,-1,-2
12,66,14,1,80,6,-3,2,4,4,-1,-3
13,66,15,1,80,6,0,2,4,4,0,-3
14,64,16,1,95,4,-2,2,2,2,-1,-4
15,69,17,1,80,9,5,2,7,7,1,-3
16,66,18,1,80,6,-3,2,4,4,-1,-4
17,62,19,1,105,2,-4,2,0,0,-1,-5
18,66,20,1,80,6,4,2,4,4,1,-4
19,69,21,1,80,9,3,2,7,7,1,-3
20,71,22,2,95,11,2,2,9,9,1,-2
21,69,24,1,80,9,-2,2,7,7,-1,-3
22,74,25,1,105,2,5,2,12,0,1,-2
23,69,26,1,80,9,-5,2,7,7,-1,-3
24,66,27,1,80,6,-3,2,4,4,-1,-4
25,64,28,2,95,4,-2,2,2,2,-1,-5
26,66,30,1,80,6,2,2,4,4,1,-4
27,62,31,1,105,2,-4,2,0,0,-1,-5
28,64,32,1,80,4,2,2,2,2,1,-4
29,62,33,1,80,2,-2,2,0,0,-1,-5
30,62,34,2,95,2,0,2,0,0,0,-5
31,78,36,1,80,6,16,2,16,4,1,-4
32,79,37,1,105,7,1,2,17,5,1,-3
33,78,38,1,80,6,-1,2,16,4,-1,-4
34,76,39,1,80,4,-2,2,14,2,-1,-5
35,78,40,1,95,6,2,2,16,4,1,-4
36,74,41,1,80,2,-4,2,12,0,-1,-5
37,71,42,1,80,11,-3,2,9,9,-1,-6
38,69,43,1,105,9,-2,2,7,7,-1,-7
39,66,44,1,80,6,-3,2,4,4,-1,-8
40,69,45,1,80,9,3,2,7,7,1,-7
41,71,46,2,95,11,2,2,9,9,1,-6
42,69,48,1,80,9,-2,2,7,7,-1,-7
43,74,49,1,105,2,5,2,12,0,1,-6
44,69,50,1,80,9,-5,2,7,7,-1,-7
45,66,51,1,80,6,-3,2,4,4,-1,-8
46,64,52,2,95,4,-2,2,2,2,-1,-9
47,66,54,1,80,6,2,2,4,4,1,-8
48,62,55,1,105,2,-4,2,0,0,-1,-9
49,64,56,1,80,4,2,2,2,2,1,-8
50,62,57,1,80,2,-2,2,0,0,-1,-9
51,62,58,2,95,2,0,2,0,0,0,-9
52,71,60,1,80,11,9,2,9,9,1,-8
53,69,61,1,105,9,-2,2,7,7,-1,-9
54,66,62,1,80,6,-3,2,4,4,-1,-10
55,66,63,1,80,6,0,2,4,4,0,-10
56,64,64,1,95,4,-2,2,2,2,-1,-11
57,69,65,1,80,9,5,2,7,7,1,-10
58,66,66,1,80,6,-3,2,4,4,-1,-11
59,62,67,1,105,2,-4,2,0,0,-1,-12
60,66,68,1,80,6,4,2,4,4,1,-11
61,69,69,1,80,9,3,2,7,7,1,-10
62,71,70,2,95,11,2,2,9,9,1,-9
63,69,72,1,80,9,-2,2,7,7,-1,-10
64,74,73,1,105,2,5,2,12,0,1,-9
65,69,74,1,80,9,-5,2,7,7,-1,-10
66,66,75,1,80,6,-3,2,4,4,-1,-11
67,64,76,2,95,4,-2,2,2,2,-1,-12
68,66,78,1,80,6,2,2,4,4,1,-11
69,62,79,1,105,2,-4,2,0,0,-1,-12
70,64,80,1,80,4,2,2,2,2,1,-11
71,62,81,1,80,2,-2,2,0,0,-1,-12
72,62,82,2,95,2,0,2,0,0,0,-12
73,78,84,1,80,6,16,2,16,4,1,-11
74,79,85,1,105,7,1,2,17,5,1,-10
75,78,86,1,80,6,-1,2,16,4,-1,-11
76,76,87,1,80,4,-2,2,14,2,-1,-12
77,78,88,1,95,6,2,2,16,4,1,-11
78,74,89,1,80,2,-4,2,12,0,-1,-12
79,71,90,1,80,11,-3,2,9,9,-1,-13
80,69,91,1,105,9,-2,2,7,7,-1,-14
81,66,92,1,80,6,-3,2,4,4,-1,-15
82,69,93,1,80,9,3,2,7,7,1,-14
83,71,94,2,95,11,2,2,9,9,1,-13
84,69,96,1,80,9,-2,2,7,7,-1,-14
85,74,97,1,105,2,5,2,12,0,1,-13
86,73,98,0,80,1,-1,2,11,11,-1,-14
87,74,98,0,80,2,1,2,12,0,1,-13
88,74,99,1,80,2,0,2,12,0,0,-13
89,78,100,1,95,6,4,2,16,4,1,-12
90,74,101,1,80,2,-4,2,12,0,-1,-13
91,71,102,1,80,11,-3,2,9,9,-1,-14
92,69,103,1,105,9,-2,2,7,7,-1,-15
93,66,104,1,80,6,-3,2,4,4,-1,-16
94,62,105,1,80,2,-4,2,0,0,-1,-17
95,62,106,1,95,2,0,2,0,0,0,-17
96,66,107,1,80,6,4,2,4,4,1,-16
97,69,108,1,80,9,3,2,7,7,1,-15
98,74,109,2,105,2,5,2,12,0,1,-14
99,74,111,1,80,2,0,2,12,0,0,-14
100,78,112,1,95,6,4,2,16,4,1,-13
101,74,113,1,80,2,-4,2,12,0,-1,-14
102,71,114,1,80,11,-3,2,9,9,-1,-15
103,69,115,1,105,9,-2,2,7,7,-1,-16
104,66,116,1,80,6,-3,2,4,4,-1,-17
105,69,117,1,80,9,3,2,7,7,1,-16
106,71,118,2,95,11,2,2,9,9,1,-15
107,69,120,1,80,9,-2,2,7,7,-1,-16
108,74,121,1,105,2,5,2,12,0,1,-15
109,73,122,0,80,1,-1,2,11,11,-1,-16
110,74,122,0,80,2,1,2,12,0,1,-15
111,74,123,1,80,2,0,2,12,0,0,-15
112,78,124,1,95,6,4,2,16,4,1,-14
113,74,125,1,80,2,-4,2,12,0,-1,-15
114,71,126,1,80,11,-3,2,9,9,-1,-16
115,69,127,1,105,9,-2,2,7,7,-1,-17
116,71,128,1,80,11,2,2,9,9,1,-16
117,69,129,1,80,9,-2,2,7,7,-1,-17
118,69,130,2,95,9,0,2,7,7,0,-17
119,78,132,1,80,6,9,2,16,4,1,-16
120,79,133,1,105,7,1,2,17,5,1,-15
121,78,134,1,80,6,-1,2,16,4,-1,-16
122,76,135,1,80,4,-2,2,14,2,-1,-17
123,78,136,1,95,6,2,2,16,4,1,-16
124,74,137,1,80,2,-4,2,12,0,-1,-17
125,71,138,1,80,11,-3,2,9,9,-1,-18
126,69,139,1,105,9,-2,2,7,7,-1,-19
127,66,140,1,80,6,-3,2,4,4,-1,-20
128,69,141,1,80,9,3,2,7,7,1,-19
129,71,142,2,95,11,2,2,9,9,1,-18
130,69,144,1,80,9,-2,2,7,7,-1,-19
131,74,145,1,105,2,5,2,12,0,1,-18
132,73,146,0,80,1,-1,2,11,11,-1,-19
133,74,146,0,80,2,1,2,12,0,1,-18
134,74,147,1,80,2,0,2,12,0,0,-18
135,78,148,1,95,6,4,2,16,4,1,-17
136,74,149,1,80,2,-4,2,12,0,-1,-18
137,71,150,1,80,11,-3,2,9,9,-1,-19
138,69,151,1,105,9,-2,2,7,7,-1,-20
139,66,152,1,80,6,-3,2,4,4,-1,-21
140,62,153,1,80,2,-4,2,0,0,-1,-22
141,62,154,1,95,2,0,2,0,0,0,-22
142,66,155,1,80,6,4,2,4,4,1,-21
143,69,156,1,80,9,3,2,7,7,1,-20
144,74,157,2,105,2,5,2,12,0,1,-19
145,74,159,1,80,2,0,2,12,0,0,-19
146,78,160,1,95,6,4,2,16,4,1,-18
147,74,161,1,80,2,-4,2,12,0,-1,-19
148,71,162,1,80,11,-3,2,9,9,-1,-20
149,69,163,1,105,9,-2,2,7,7,-1,-21
150,66,164,1,80,6,-3,2,4,4,-1,-22
151,69,165,1,80,9,3,2,7,7,1,-21
152,71,166,2,95,11,2,2,9,9,1,-20
153,69,168,1,80,9,-2,2,7,7,-1,-21
154,74,169,1,105,2,5,2,12,0,1,-20
155,73,170,0,80,1,-1,2,11,11,-1,-21
156,74,170,0,80,2,1,2,12,0,1,-20
157,74,171,1,80,2,0,2,12,0,0,-20
158,78,172,1,95,6,4,2,16,4,1,-19
159,74,173,1,80,2,-4,2,12,0,-1,-20
160,71,174,1,80,11,-3,2,9,9,-1,-21
161,69,175,1,105,9,-2,2,7,7,-1,-22
162,71,176,1,80,11,2,2,9,9,1,-21
163,69,177,1,80,9,-2,2,7,7,-1,-22
164,69,178,2,95,9,0,2,7,7,0,-22
165,78,180,1,80,6,9,2,16,4,1,-21
166,79,181,1,105,7,1,2,17,5,1,-20
167,78,182,1,80,6,-1,2,16,4,-1,-21
168,76,183,1,80,4,-2,2,14,2,-1,-22
169,78,184,1,95,6,2,2,16,4,1,-21
170,74,185,1,80,2,-4,2,12,0,-1,-22
171,71,186,1,80,11,-3,2,9,9,-1,-23
172,69,187,1,105,9,-2,2,7,7,-1,-24
173,66,188,1,80,6,-3,2,4,4,-1,-25
174,69,189,1,80,9,3,2,7,7,1,-24
175,71,190,2,95,11,2,2,9,9,1,-23
