,midi_note,onset,duration,velocity,pitch_class,interval,root,relative_pitch,relative_pitch_class,parsons_code,parsons_cumsum
0,59,0,1,105,11,0,2,-3,9,0,0
1,57,1,2,105,9,-2,2,-5,7,-1,-1
2,62,3,1,80,2,5,2,0,0,1,0
3,64,4,1,80,4,2,2,2,2,1,1
4,66,5,1,95,6,2,2,4,4,1,2
5,64,6,1,80,4,-2,2,2,2,-1,1
6,62,7,1,80,2,-2,2,0,0,-1,0
7,66,8,1,80,6,4,2,4,4,1,1
8,69,9,1,105,9,3,2,7,7,1,2
9,74,10,1,80,2,5,2,12,0,1,3
10,73,11,1,80,1,-1,2,11,11,-1,2
11,74,12,1,80,2,1,2,12,0,1,3
12,71,13,1,95,11,-3,2,9,9,-1,2
13,69,14,1,80,9,-2,2,7,7,-1,1
14,66,15,1,80,6,-3,2,4,4,-1,0
15,69,16,1,80,9,3,2,7,7,1,1
16,71,17,1,105,11,2,2,9,9,1,2
17,69,18,1,80,9,-2,2,7,7,-1,1
18,71,19,1,80,11,2,2,9,9,1,2
19,73,20,1,80,1,2,2,11,11,1,3
20,74,21,1,95,2,1,2,12,0,1,4
21,71,22,1,80,11,-3,2,9,9,-1,3
22,69,23,1,80,9,-2,2,7,7,-1,2
23,66,24,1,80,6,-3,2,4,4,-1,1
24,67,25,2,105,7,1,2,5,5,1,2
25,66,27,1,80,6,-1,2,4,4,-1,1
26,64,28,1,80,4,-2,2,2,2,-1,0
27,62,29,1,95,2,-2,2,0,0,-1,-1
28,59,30,1,80,11,-3,2,-3,9,-1,-2
29,57,31,1,80,9,-2,2,-5,7,-1,-3
30,59,32,1,80,11,2,2,-3,9,1,-2
31,62,33,1,105,2,3,2,0,0,1,-1
32,61,34,1,80,1,-1,2,-1,11,-1,-2
33,62,35,1,80,2,1,2,0,0,1,-1
34,64,36,1,80,4,2,2,2,2,1,0
35,66,37,1,95,6,2,2,4,4,1,1
36,64,38,1,80,4,-2,2,2,2,-1,0
37,62,39,1,80,2,-2,2,0,0,-1,-1
38,66,40,1,80,6,4,2,4,4,1,0
39,69,41,1,105,9,3,2,7,7,1,1
40,74,42,1,80,2,5,2,12,0,1,2
41,73,43,1,80,1,-1,2,11,11,-1,1
42,74,44,1,80,2,1,2,12,0,1,2
43,71,45,1,95,11,-3,2,9,9,-1,1
44,69,46,1,80,9,-2,2,7,7,-1,0
45,66,47,1,80,6,-3,2,4,4,-1,-1
46,69,48,1,80,9,3,2,7,7,1,0
47,71,49,0,105,11,2,2,9,9,1,1
48,73,49,0,80,1,2,2,11,11,1,2
49,74,50,0,80,2,1,2,12,0,1,3
50,76,51,1,80,4,2,2,14,2,1,4
51,73,52,1,80,1,-3,2,11,11,-1,3
52,74,53,1,95,2,1,2,12,0,1,4
53,71,54,1,80,11,-3,2,9,9,-1,3
54,69,55,1,80,9,-2,2,7,7,-1,2
55,67,56,1,80,7,-2,2,5,5,-1,1
56,66,57,1,105,6,-1,2,4,4,-1,0
57,67,58,1,80,7,1,2,5,5,1,1
58,64,59,1,80,4,-3,2,2,2,-1,0
59,66,60,1,80,6,2,2,4,4,1,1
60,62,61,3,95,2,-4,2,0,0,-1,0
61,59,64,1,80,11,-3,2,-3,9,-1,-1
62,57,65,2,105,9,-2,2,-5,7,-1,-2
63,62,67,1,80,2,5,2,0,0,1,-1
64,64,68,1,80,4,2,2,2,2,1,0
65,66,69,1,95,6,2,2,4,4,1,1
66,64,70,1,80,4,-2,2,2,2,-1,0
67,62,71,1,80,2,-2,2,0,0,-1,-1
68,66,72,1,80,6,4,2,4,4,1,0
69,69,73,1,105,9,3,2,7,7,1,1
70,74,74,1,80,2,5,2,12,0,1,2
71,73,75,1,80,1,-1,2,11,11,-1,1
72,74,76,1,80,2,1,2,12,0,1,2
73,71,77,1,95,11,-3,2,9,9,-1,1
74,69,78,1,80,9,-2,2,7,7,-1,0
75,66,79,1,80,6,-3,2,4,4,-1,-1
76,69,80,1,80,9,3,2,7,7,1,0
77,71,81,1,105,11,2,2,9,9,1,1
78,69,82,1,80,9,-2,2,7,7,-1,0
79,71,83,1,80,11,2,2,9,9,1,1
80,73,84,1,80,1,2,2,11,11,1,2
81,74,85,1,95,2,1,2,12,0,1,3
82,71,86,1,80,11,-3,2,9,9,-1,2
83,69,87,1,80,9,-2,2,7,7,-1,1
84,66,88,1,80,6,-3,2,4,4,-1,0
85,67,89,2,105,7,1,2,5,5,1,1
86,66,91,1,80,6,-1,2,4,4,-1,0
87,64,92,1,80,4,-2,2,2,2,-1,-1
88,62,93,1,95,2,-2,2,0,0,-1,-2
89,59,94,1,80,11,-3,2,-3,9,-1,-3
90,57,95,1,80,9,-2,2,-5,7,-1,-4
91,59,96,1,80,11,2,2,-3,9,1,-3
92,62,97,1,105,2,3,2,0,0,1,-2
93,61,98,1,80,1,-1,2,-1,11,-1,-3
94,62,99,1,80,2,1,2,0,0,1,-2
95,64,100,1,80,4,2,2,2,2,1,-1
96,66,101,1,95,6,2,2,4,4,1,0
97,64,102,1,80,4,-2,2,2,2,-1,-1
98,62,103,1,80,2,-2,2,0,0,-1,-2
99,66,104,1,80,6,4,2,4,4,1,-1
100,69,105,1,105,9,3,2,7,7,1,0
101,74,106,1,80,2,5,2,12,0,1,1
102,73,107,1,80,1,-1,2,11,11,-1,0
103,74,108,1,80,2,1,2,12,0,1,1
104,71,109,1,95,11,-3,2,9,9,-1,0
105,69,110,1,80,9,-2,2,7,7,-1,-1
106,66,111,1,80,6,-3,2,4,4,-1,-2
107,69,112,1,80,9,3,2,7,7,1,-1
108,71,113,0,105,11,2,2,9,9,1,0
109,73,113,0,80,1,2,2,11,11,1,1
110,74,114,0,80,2,1,2,12,0,1,2
111,76,115,1,80,4,2,2,14,2,1,3
112,73,116,1,80,1,-3,2,11,11,-1,2
113,74,117,1,95,2,1,2,12,0,1,3
114,71,118,1,80,11,-3,2,9,9,-1,2
115,69,119,1,80,9,-2,2,7,7,-1,1
116,67,120,1,80,7,-2,2,5,5,-1,0
117,66,121,1,105,6,-1,2,4,4,-1,-1
118,67,122,1,80,7,1,2,5,5,1,0
119,64,123,1,80,4,-3,2,2,2,-1,-1
120,66,124,1,80,6,2,2,4,4,1,0
121,62,125,3,95,2,-4,2,0,0,-1,-1
122,79,128,1,80,7,17,2,17,5,1,0
123,78,129,1,105,6,-1,2,16,4,-1,-1
124,74,130,1,80,2,-4,2,12,0,-1,-2
125,76,131,1,80,4,2,2,14,2,1,-1
126,74,132,1,80,2,-2,2,12,0,-1,-2
127,73,133,1,95,1,-1,2,11,11,-1,-3
128,69,134,1,80,9,-4,2,7,7,-1,-4
129,69,135,1,80,9,0,2,7,7,0,-4
130,79,136,1,80,7,10,2,17,5,1,-3
131,78,137,1,105,6,-1,2,16,4,-1,-4
132,74,138,1,80,2,-4,2,12,0,-1,-5
133,76,139,1,80,4,2,2,14,2,1,-4
134,78,140,1,80,6,2,2,16,4,1,-3
135,79,141,1,95,7,1,2,17,5,1,-2
136,83,142,1,80,11,4,2,21,9,1,-1
137,81,143,1,80,9,-2,2,19,7,-1,-2
138,79,144,1,80,7,-2,2,17,5,-1,-3
139,78,145,2,105,6,-1,2,16,4,-1,-4
140,76,147,1,80,4,-2,2,14,2,-1,-5
141,74,148,1,80,2,-2,2,12,0,-1,-6
142,73,149,1,95,1,-1,2,11,11,-1,-7
143,69,150,1,80,9,-4,2,7,7,-1,-8
144,69,151,1,80,9,0,2,7,7,0,-8
145,66,152,1,80,6,-3,2,4,4,-1,-9
146,67,153,1,105,7,1,2,5,5,1,-8
147,71,154,1,80,11,4,2,9,9,1,-7
148,69,155,1,80,9,-2,2,7,7,-1,-8
149,67,156,1,80,7,-2,2,5,5,-1,-9
150,66,157,1,95,6,-1,2,4,4,-1,-10
151,62,158,1,80,2,-4,2,0,0,-1,-11
152,62,159,2,80,2,0,2,0,0,0,-11
153,78,161,1,105,6,16,2,16,4,1,-10
154,74,162,1,80,2,-4,2,12,0,-1,-11
155,76,163,1,80,4,2,2,14,2,1,-10
156,74,164,1,80,2,-2,2,12,0,-1,-11
157,73,165,1,95,1,-1,2,11,11,-1,-12
158,69,166,1,80,9,-4,2,7,7,-1,-13
159,69,167,1,80,9,0,2,7,7,0,-13
160,79,168,1,80,7,10,2,17,5,1,-12
161,78,169,1,105,6,-1,2,16,4,-1,-13
162,74,170,1,80,2,-4,2,12,0,-1,-14
163,78,171,1,80,6,4,2,16,4,1,-13
164,81,172,1,80,9,3,2,19,7,1,-12
165,79,173,2,95,7,-2,2,17,5,-1,-13
166,78,175,1,80,6,-1,2,16,4,-1,-14
167,79,176,1,80,7,1,2,17,5,1,-13
168,81,177,0,105,9,2,2,19,7,1,-12
169,79,177,0,80,7,-2,2,17,5,-1,-13
170,78,178,0,80,6,-1,2,16,4,-1,-14
171,79,179,0,80,7,1,2,17,5,1,-13
172,78,179,0,80,6,-1,2,16,4,-1,-14
173,76,180,0,80,4,-2,2,14,2,-1,-15
174,78,181,1,95,6,2,2,16,4,1,-14
175,74,182,1,80,2,-4,2,12,0,-1,-15
176,76,183,1,80,4,2,2,14,2,1,-14
177,74,184,1,80,2,-2,2,12,0,-1,-15
178,73,185,1,105,1,-1,2,11,11,-1,-16
179,69,186,1,80,9,-4,2,7,7,-1,-17
180,71,187,1,80,11,2,2,9,9,1,-16
181,73,188,1,80,1,2,2,11,11,1,-15
182,74,189,2,95,2,1,2,12,0,1,-14
183,76,191,0,80,4,2,2,14,2,1,-13
184,78,191,0,80,6,2,2,16,4,1,-12
185,79,192,0,80,7,1,2,17,5,1,-11
186,78,193,1,105,6,-1,2,16,4,-1,-12
187,74,194,1,80,2,-4,2,12,0,-1,-13
188,76,195,1,80,4,2,2,14,2,1,-12
189,74,196,1,80,2,-2,2,12,0,-1,-13
190,73,197,1,95,1,-1,2,11,11,-1,-14
191,69,198,1,80,9,-4,2,7,7,-1,-15
192,69,199,1,80,9,0,2,7,7,0,-15
193,79,200,1,80,7,10,2,17,5,1,-14
194,78,201,1,105,6,-1,2,16,4,-1,-15
195,74,202,1,80,2,-4,2,12,0,-1,-16
196,76,203,1,80,4,2,2,14,2,1,-15
197,78,204,1,80,6,2,2,16,4,1,-14
198,79,205,1,95,7,1,2,17,5,1,-13
199,83,206,1,80,11,4,2,21,9,1,-12
200,81,207,1,80,9,-2,2,19,7,-1,-13
201,79,208,1,80,7,-2,2,17,5,-1,-14
202,78,209,2,105,6,-1,2,16,4,-1,-15
203,76,211,1,80,4,-2,2,14,2,-1,-16
204,74,212,1,80,2,-2,2,12,0,-1,-17
205,73,213,1,95,1,-1,2,11,11,-1,-18
206,69,214,1,80,9,-4,2,7,7,-1,-19
207,69,215,1,80,9,0,2,7,7,0,-19
208,66,216,1,80,6,-3,2,4,4,-1,-20
209,67,217,1,105,7,1,2,5,5,1,-19
210,71,218,1,80,11,4,2,9,9,1,-18
211,69,219,1,80,9,-2,2,7,7,-1,-19
212,67,220,1,80,7,-2,2,5,5,-1,-20
213,66,221,1,95,6,-1,2,4,4,-1,-21
214,62,222,1,80,2,-4,2,0,0,-1,-22
215,62,223,2,80,2,0,2,0,0,0,-22
216,78,225,1,105,6,16,2,16,4,1,-21
217,74,226,1,80,2,-4,2,12,0,-1,-22
218,76,227,1,80,4,2,2,14,2,1,-21
219,74,228,1,80,2,-2,2,12,0,-1,-22
220,73,229,1,95,1,-1,2,11,11,-1,-23
221,69,230,1,80,9,-4,2,7,7,-1,-24
222,69,231,1,80,9,0,2,7,7,0,-24
223,79,232,1,80,7,10,2,17,5,1,-23
224,78,233,1,105,6,-1,2,16,4,-1,-24
225,74,234,1,80,2,-4,2,12,0,-1,-25
226,78,235,1,80,6,4,2,16,4,1,-24
227,81,236,1,80,9,3,2,19,7,1,-23
228,79,237,2,95,7,-2,2,17,5,-1,-24
229,78,239,1,80,6,-1,2,16,4,-1,-25
230,79,240,1,80,7,1,2,17,5,1,-24
231,81,241,0,105,9,2,2,19,7,1,-23
232,79,241,0,80,7,-2,2,17,5,-1,-24
233,78,242,0,80,6,-1,2,16,4,-1,-25
234,79,243,0,80,7,1,2,17,5,1,-24
235,78,243,0,80,6,-1,2,16,4,-1,-25
236,76,244,0,80,4,-2,2,14,2,-1,-26
237,78,245,1,95,6,2,2,16,4,1,-25
238,74,246,1,80,2,-4,2,12,0,-1,-26
239,76,247,1,80,4,2,2,14,2,1,-25
240,74,248,1,80,2,-2,2,12,0,-1,-26
241,73,249,1,105,1,-1,2,11,11,-1,-27
242,69,250,1,80,9,-4,2,7,7,-1,-28
243,71,251,1,80,11,2,2,9,9,1,-27
244,73,252,1,80,1,2,2,11,11,1,-26
245,74,253,1,95,2,1,2,12,0,1,-25
246,71,254,1,80,11,-3,2,9,9,-1,-26
247,69,255,1,80,9,-2,2,7,7,-1,-27
248,66,256,1,80,6,-3,2,4,4,-1,-28
