,midi_note,onset,duration,velocity,pitch_class,interval,root,relative_pitch,relative_pitch_class,parsons_code,parsons_cumsum
0,62,0,1,105,2,0,7,-5,7,0,0
1,67,1,1,105,7,5,7,0,0,1,1
2,71,2,1,80,11,4,7,4,4,1,2
3,71,3,2,80,11,0,7,4,4,0,2
4,74,5,1,95,2,3,7,7,7,1,3
5,71,6,1,80,11,-3,7,4,4,-1,2
6,71,7,2,80,11,0,7,4,4,0,2
7,67,9,1,105,7,-4,7,0,0,-1,1
8,71,10,1,80,11,4,7,4,4,1,2
9,71,11,2,80,11,0,7,4,4,0,2
10,69,13,1,95,9,-2,7,2,2,-1,1
11,71,14,1,80,11,2,7,4,4,1,2
12,67,15,1,80,7,-4,7,0,0,-1,1
13,64,16,1,80,4,-3,7,-3,9,-1,0
14,62,17,1,105,2,-2,7,-5,7,-1,-1
15,64,18,1,80,4,2,7,-3,9,1,0
16,67,19,1,80,7,3,7,0,0,1,1
17,69,20,1,80,9,2,7,2,2,1,2
18,71,21,1,95,11,2,7,4,4,1,3
19,74,22,1,80,2,3,7,7,7,1,4
20,74,23,2,80,2,0,7,7,7,0,4
21,76,25,1,105,4,2,7,9,9,1,5
22,81,26,1,80,9,5,7,14,2,1,6
23,81,27,2,80,9,0,7,14,2,0,6
24,79,29,1,95,7,-2,7,12,0,-1,5
25,76,30,1,80,4,-3,7,9,9,-1,4
26,74,31,1,80,2,-2,7,7,7,-1,3
27,71,32,1,80,11,-3,7,4,4,-1,2
28,67,33,1,105,7,-4,7,0,0,-1,1
29,71,34,1,80,11,4,7,4,4,1,2
30,72,35,0,80,0,1,7,5,5,1,3
31,71,35,1,80,11,-1,7,4,4,-1,2
32,74,37,1,95,2,3,7,7,7,1,3
33,71,38,1,80,11,-3,7,4,4,-1,2
34,72,39,0,80,0,1,7,5,5,1,3
35,71,39,1,80,11,-1,7,4,4,-1,2
36,67,41,1,105,7,-4,7,0,0,-1,1
37,71,42,1,80,11,4,7,4,4,1,2
38,71,43,2,80,11,0,7,4,4,0,2
39,69,45,1,95,9,-2,7,2,2,-1,1
40,71,46,1,80,11,2,7,4,4,1,2
41,67,47,1,80,7,-4,7,0,0,-1,1
42,64,48,1,80,4,-3,7,-3,9,-1,0
43,62,49,1,105,2,-2,7,-5,7,-1,-1
44,64,50,1,80,4,2,7,-3,9,1,0
45,67,51,1,80,7,3,7,0,0,1,1
46,69,52,1,80,9,2,7,2,2,1,2
47,71,53,1,95,11,2,7,4,4,1,3
48,79,54,1,80,7,8,7,12,0,1,4
49,78,55,1,80,6,-1,7,11,11,-1,3
50,79,56,1,80,7,1,7,12,0,1,4
51,76,57,1,105,4,-3,7,9,9,-1,3
52,72,58,1,80,0,-4,7,5,5,-1,2
53,69,59,1,80,9,-3,7,2,2,-1,1
54,66,60,1,80,6,-3,7,-1,11,-1,0
55,67,61,3,95,7,1,7,0,0,1,1
56,62,64,1,80,2,-5,7,-5,7,-1,0
57,67,65,1,105,7,5,7,0,0,1,1
58,71,66,1,80,11,4,7,4,4,1,2
59,71,67,2,80,11,0,7,4,4,0,2
60,74,69,1,95,2,3,7,7,7,1,3
61,71,70,1,80,11,-3,7,4,4,-1,2
62,71,71,2,80,11,0,7,4,4,0,2
63,67,73,1,105,7,-4,7,0,0,-1,1
64,71,74,1,80,11,4,7,4,4,1,2
65,71,75,2,80,11,0,7,4,4,0,2
66,69,77,1,95,9,-2,7,2,2,-1,1
67,71,78,1,80,11,2,7,4,4,1,2
68,67,79,1,80,7,-4,7,0,0,-1,1
69,64,80,1,80,4,-3,7,-3,9,-1,0
70,62,81,1,105,2,-2,7,-5,7,-1,-1
71,64,82,1,80,4,2,7,-3,9,1,0
72,67,83,1,80,7,3,7,0,0,1,1
73,69,84,1,80,9,2,7,2,2,1,2
74,71,85,1,95,11,2,7,4,4,1,3
75,74,86,1,80,2,3,7,7,7,1,4
76,74,87,2,80,2,0,7,7,7,0,4
77,76,89,1,105,4,2,7,9,9,1,5
78,81,90,1,80,9,5,7,14,2,1,6
79,81,91,2,80,9,0,7,14,2,0,6
80,79,93,1,95,7,-2,7,12,0,-1,5
81,76,94,1,80,4,-3,7,9,9,-1,4
82,74,95,1,80,2,-2,7,7,7,-1,3
83,71,96,1,80,11,-3,7,4,4,-1,2
84,67,97,1,105,7,-4,7,0,0,-1,1
85,71,98,1,80,11,4,7,4,4,1,2
86,72,99,0,80,0,1,7,5,5,1,3
87,71,99,1,80,11,-1,7,4,4,-1,2
88,74,101,1,95,2,3,7,7,7,1,3
89,71,102,1,80,11,-3,7,4,4,-1,2
90,72,103,0,80,0,1,7,5,5,1,3
91,71,103,1,80,11,-1,7,4,4,-1,2
92,67,105,1,105,7,-4,7,0,0,-1,1
93,71,106,1,80,11,4,7,4,4,1,2
94,71,107,2,80,11,0,7,4,4,0,2
95,69,109,1,95,9,-2,7,2,2,-1,1
96,71,110,1,80,11,2,7,4,4,1,2
97,67,111,1,80,7,-4,7,0,0,-1,1
98,64,112,1,80,4,-3,7,-3,9,-1,0
99,62,113,1,105,2,-2,7,-5,7,-1,-1
100,64,114,1,80,4,2,7,-3,9,1,0
101,67,115,1,80,7,3,7,0,0,1,1
102,69,116,1,80,9,2,7,2,2,1,2
103,71,117,1,95,11,2,7,4,4,1,3
104,79,118,1,80,7,8,7,12,0,1,4
105,78,119,1,80,6,-1,7,11,11,-1,3
106,79,120,1,80,7,1,7,12,0,1,4
107,76,121,1,105,4,-3,7,9,9,-1,3
108,72,122,1,80,0,-4,7,5,5,-1,2
109,69,123,1,80,9,-3,7,2,2,-1,1
110,66,124,1,80,6,-3,7,-1,11,-1,0
111,67,125,2,95,7,1,7,0,0,1,1
112,71,127,1,80,11,4,7,4,4,1,2
113,74,128,1,80,2,3,7,7,7,1,3
114,79,129,2,105,7,5,7,12,0,1,4
115,79,131,1,80,7,0,7,12,0,0,4
116,78,132,1,80,6,-1,7,11,11,-1,3
117,79,133,1,95,7,1,7,12,0,1,4
118,78,134,1,80,6,-1,7,11,11,-1,3
119,76,135,1,80,4,-2,7,9,9,-1,2
120,74,136,1,80,2,-2,7,7,7,-1,1
121,71,137,1,105,11,-3,7,4,4,-1,0
122,74,138,1,80,2,3,7,7,7,1,1
123,74,139,2,80,2,0,7,7,7,0,1
124,71,141,1,95,11,-3,7,4,4,-1,0
125,74,142,1,80,2,3,7,7,7,1,1
126,76,143,1,80,4,2,7,9,9,1,2
127,78,144,1,80,6,2,7,11,11,1,3
128,79,145,1,105,7,1,7,12,0,1,4
129,78,146,1,80,6,-1,7,11,11,-1,3
130,79,147,1,80,7,1,7,12,0,1,4
131,81,148,1,80,9,2,7,14,2,1,5
132,79,149,1,95,7,-2,7,12,0,-1,4
133,78,150,1,80,6,-1,7,11,11,-1,3
134,76,151,1,80,4,-2,7,9,9,-1,2
135,74,152,1,80,2,-2,7,7,7,-1,1
136,76,153,1,105,4,2,7,9,9,1,2
137,81,154,1,80,9,5,7,14,2,1,3
138,83,155,0,80,11,2,7,16,4,1,4
139,81,155,1,80,9,-2,7,14,2,-1,3
140,76,157,1,95,4,-5,7,9,9,-1,2
141,81,158,1,80,9,5,7,14,2,1,3
142,83,159,0,80,11,2,7,16,4,1,4
143,81,159,1,80,9,-2,7,14,2,-1,3
144,79,161,2,105,7,-2,7,12,0,-1,2
145,81,163,1,80,9,2,7,14,2,1,3
146,78,164,1,80,6,-3,7,11,11,-1,2
147,79,165,1,95,7,1,7,12,0,1,3
148,78,166,1,80,6,-1,7,11,11,-1,2
149,76,167,1,80,4,-2,7,9,9,-1,1
150,74,168,1,80,2,-2,7,7,7,-1,0
151,71,169,1,105,11,-3,7,4,4,-1,-1
152,74,170,1,80,2,3,7,7,7,1,0
153,76,171,0,80,4,2,7,9,9,1,1
154,74,171,1,80,2,-2,7,7,7,-1,0
155,79,173,1,95,7,5,7,12,0,1,1
156,74,174,1,80,2,-5,7,7,7,-1,0
157,76,175,1,80,4,2,7,9,9,1,1
158,74,176,1,80,2,-2,7,7,7,-1,0
159,72,177,0,105,0,-2,7,5,5,-1,-1
160,74,177,0,80,2,2,7,7,7,1,0
161,76,178,0,80,4,2,7,9,9,1,1
162,74,179,1,80,2,-2,7,7,7,-1,0
163,71,180,1,80,11,-3,7,4,4,-1,-1
164,72,181,1,95,0,1,7,5,5,1,0
165,71,182,1,80,11,-1,7,4,4,-1,-1
166,69,183,1,80,9,-2,7,2,2,-1,-2
167,67,184,1,80,7,-2,7,0,0,-1,-3
168,66,185,1,105,6,-1,7,-1,11,-1,-4
169,62,186,1,80,2,-4,7,-5,7,-1,-5
170,64,187,1,80,4,2,7,-3,9,1,-4
171,66,188,1,80,6,2,7,-1,11,1,-3
172,67,189,2,95,7,1,7,0,0,1,-2
173,71,191,1,80,11,4,7,4,4,1,-1
174,74,192,1,80,2,3,7,7,7,1,0
175,79,193,2,105,7,5,7,12,0,1,1
176,79,195,1,80,7,0,7,12,0,0,1
177,78,196,1,80,6,-1,7,11,11,-1,0
178,79,197,1,95,7,1,7,12,0,1,1
179,78,198,1,80,6,-1,7,11,11,-1,0
180,76,199,1,80,4,-2,7,9,9,-1,-1
181,74,200,1,80,2,-2,7,7,7,-1,-2
182,71,201,1,105,11,-3,7,4,4,-1,-3
183,74,202,1,80,2,3,7,7,7,1,-2
184,74,203,2,80,2,0,7,7,7,0,-2
185,71,205,1,95,11,-3,7,4,4,-1,-3
186,74,206,1,80,2,3,7,7,7,1,-2
187,76,207,1,80,4,2,7,9,9,1,-1
188,78,208,1,80,6,2,7,11,11,1,0
189,79,209,1,105,7,1,7,12,0,1,1
190,78,210,1,80,6,-1,7,11,11,-1,0
191,79,211,1,80,7,1,7,12,0,1,1
192,81,212,1,80,9,2,7,14,2,1,2
193,79,213,1,95,7,-2,7,12,0,-1,1
194,78,214,1,80,6,-1,7,11,11,-1,0
195,76,215,1,80,4,-2,7,9,9,-1,-1
196,74,216,1,80,2,-2,7,7,7,-1,-2
197,76,217,1,105,4,2,7,9,9,1,-1
198,81,218,1,80,9,5,7,14,2,1,0
199,83,219,0,80,11,2,7,16,4,1,1
200,81,219,1,80,9,-2,7,14,2,-1,0
201,76,221,1,95,4,-5,7,9,9,-1,-1
202,81,222,1,80,9,5,7,14,2,1,0
203,83,223,0,80,11,2,7,16,4,1,1
204,81,223,1,80,9,-2,7,14,2,-1,0
205,79,225,2,105,7,-2,7,12,0,-1,-1
206,81,227,1,80,9,2,7,14,2,1,0
207,78,228,1,80,6,-3,7,11,11,-1,-1
208,79,229,1,95,7,1,7,12,0,1,0
209,78,230,1,80,6,-1,7,11,11,-1,-1
210,76,231,1,80,4,-2,7,9,9,-1,-2
211,74,232,1,80,2,-2,7,7,7,-1,-3
212,71,233,1,105,11,-3,7,4,4,-1,-4
213,74,234,1,80,2,3,7,7,7,1,-3
214,76,235,0,80,4,2,7,9,9,1,-2
215,74,235,1,80,2,-2,7,7,7,-1,-3
216,79,237,1,95,7,5,7,12,0,1,-2
217,74,238,1,80,2,-5,7,7,7,-1,-3
218,76,239,1,80,4,2,7,9,9,1,-2
219,74,240,1,80,2,-2,7,7,7,-1,-3
220,72,241,0,105,0,-2,7,5,5,-1,-4
221,74,241,0,80,2,2,7,7,7,1,-3
222,76,242,0,80,4,2,7,9,9,1,-2
223,74,243,1,80,2,-2,7,7,7,-1,-3
224,71,244,1,80,11,-3,7,4,4,-1,-4
225,72,245,1,95,0,1,7,5,5,1,-3
226,71,246,1,80,11,-1,7,4,4,-1,-4
227,69,247,1,80,9,-2,7,2,2,-1,-5
228,67,248,1,80,7,-2,7,0,0,-1,-6
229,66,249,1,105,6,-1,7,-1,11,-1,-7
230,62,250,1,80,2,-4,7,-5,7,-1,-8
231,64,251,1,80,4,2,7,-3,9,1,-7
232,66,252,1,80,6,2,7,-1,11,1,-6
233,67,253,8,95,7,1,7,0,0,1,-5
234,62,261,1,105,2,-5,7,-5,7,-1,-6
235,67,262,1,105,7,5,7,0,0,1,-5
236,71,263,1,80,11,4,7,4,4,1,-4
237,72,264,0,80,0,1,7,5,5,1,-3
238,71,264,1,80,11,-1,7,4,4,-1,-4
239,74,266,1,95,2,3,7,7,7,1,-3
240,71,267,1,80,11,-3,7,4,4,-1,-4
241,72,268,0,80,0,1,7,5,5,1,-3
242,71,268,1,80,11,-1,7,4,4,-1,-4
243,67,270,1,105,7,-4,7,0,0,-1,-5
244,69,271,1,80,9,2,7,2,2,1,-4
245,71,272,1,80,11,2,7,4,4,1,-3
246,67,273,1,80,7,-4,7,0,0,-1,-4
247,69,274,0,95,9,2,7,2,2,1,-3
248,71,274,0,80,11,2,7,4,4,1,-2
249,69,275,0,80,9,-2,7,2,2,-1,-3
250,67,276,1,80,7,-2,7,0,0,-1,-4
251,64,277,1,80,4,-3,7,-3,9,-1,-5
252,62,278,1,105,2,-2,7,-5,7,-1,-6
253,64,279,1,80,4,2,7,-3,9,1,-5
254,67,280,1,80,7,3,7,0,0,1,-4
255,69,281,1,80,9,2,7,2,2,1,-3
256,71,282,0,95,11,2,7,4,4,1,-2
257,72,282,0,80,0,1,7,5,5,1,-1
258,71,283,0,80,11,-1,7,4,4,-1,-2
259,71,284,1,80,11,0,7,4,4,0,-2
260,74,285,1,80,2,3,7,7,7,1,-1
261,76,286,1,105,4,2,7,9,9,1,0
262,81,287,1,80,9,5,7,14,2,1,1
263,83,288,0,80,11,2,7,16,4,1,2
264,81,288,1,80,9,-2,7,14,2,-1,1
265,79,290,1,95,7,-2,7,12,0,-1,0
266,76,291,1,80,4,-3,7,9,9,-1,-1
267,74,292,1,80,2,-2,7,7,7,-1,-2
268,71,293,1,80,11,-3,7,4,4,-1,-3
269,67,294,1,105,7,-4,7,0,0,-1,-4
270,71,295,1,80,11,4,7,4,4,1,-3
271,72,296,0,80,0,1,7,5,5,1,-2
272,71,296,1,80,11,-1,7,4,4,-1,-3
273,74,298,1,95,2,3,7,7,7,1,-2
274,71,299,1,80,11,-3,7,4,4,-1,-3
275,72,300,0,80,0,1,7,5,5,1,-2
276,71,300,1,80,11,-1,7,4,4,-1,-3
277,67,302,1,105,7,-4,7,0,0,-1,-4
278,69,303,1,80,9,2,7,2,2,1,-3
279,71,304,1,80,11,2,7,4,4,1,-2
280,67,305,1,80,7,-4,7,0,0,-1,-3
281,69,306,0,95,9,2,7,2,2,1,-2
282,71,306,0,80,11,2,7,4,4,1,-1
283,69,307,0,80,9,-2,7,2,2,-1,-2
284,67,308,1,80,7,-2,7,0,0,-1,-3
285,64,309,1,80,4,-3,7,-3,9,-1,-4
286,62,310,1,105,2,-2,7,-5,7,-1,-5
287,64,311,1,80,4,2,7,-3,9,1,-4
288,67,312,1,80,7,3,7,0,0,1,-3
289,69,313,1,80,9,2,7,2,2,1,-2
290,71,314,1,95,11,2,7,4,4,1,-1
291,79,315,1,80,7,8,7,12,0,1,0
292,78,316,1,80,6,-1,7,11,11,-1,-1
293,79,317,1,80,7,1,7,12,0,1,0
294,76,318,1,105,4,-3,7,9,9,-1,-1
295,72,319,1,80,0,-4,7,5,5,-1,-2
296,69,320,1,80,9,-3,7,2,2,-1,-3
297,66,321,1,80,6,-3,7,-1,11,-1,-4
298,67,322,2,95,7,1,7,0,0,1,-3
299,71,324,1,80,11,4,7,4,4,1,-2
300,74,325,1,80,2,3,7,7,7,1,-1
301,79,326,0,105,7,5,7,12,0,1,0
302,78,326,0,80,6,-1,7,11,11,-1,-1
303,79,327,0,80,7,1,7,12,0,1,0
304,81,328,0,80,9,2,7,14,2,1,1
305,79,328,0,80,7,-2,7,12,0,-1,0
306,78,329,0,80,6,-1,7,11,11,-1,-1
307,79,330,1,95,7,1,7,12,0,1,0
308,78,331,1,80,6,-1,7,11,11,-1,-1
309,76,332,1,80,4,-2,7,9,9,-1,-2
310,74,333,1,80,2,-2,7,7,7,-1,-3
311,71,334,1,105,11,-3,7,4,4,-1,-4
312,74,335,1,80,2,3,7,7,7,1,-3
313,74,336,0,80,2,0,7,7,7,0,-3
314,73,336,0,80,1,-1,7,6,6,-1,-4
315,74,337,0,80,2,1,7,7,7,1,-3
316,71,338,1,95,11,-3,7,4,4,-1,-4
317,74,339,1,80,2,3,7,7,7,1,-3
318,76,340,1,80,4,2,7,9,9,1,-2
319,78,341,1,80,6,2,7,11,11,1,-1
320,79,342,0,105,7,1,7,12,0,1,0
321,78,342,0,80,6,-1,7,11,11,-1,-1
322,79,343,0,80,7,1,7,12,0,1,0
323,81,344,0,80,9,2,7,14,2,1,1
324,79,344,0,80,7,-2,7,12,0,-1,0
325,78,345,0,80,6,-1,7,11,11,-1,-1
326,79,346,1,95,7,1,7,12,0,1,0
327,78,347,1,80,6,-1,7,11,11,-1,-1
328,76,348,1,80,4,-2,7,9,9,-1,-2
329,74,349,1,80,2,-2,7,7,7,-1,-3
330,76,350,1,105,4,2,7,9,9,1,-2
331,81,351,1,80,9,5,7,14,2,1,-1
332,81,352,1,80,9,0,7,14,2,0,-1
333,79,353,1,80,7,-2,7,12,0,-1,-2
334,81,354,1,95,9,2,7,14,2,1,-1
335,79,355,1,80,7,-2,7,12,0,-1,-2
336,76,356,1,80,4,-3,7,9,9,-1,-3
337,78,357,1,80,6,2,7,11,11,1,-2
338,79,358,2,105,7,1,7,12,0,1,-1
339,81,360,0,80,9,2,7,14,2,1,0
340,79,360,0,80,7,-2,7,12,0,-1,-1
341,78,361,0,80,6,-1,7,11,11,-1,-2
342,79,362,1,95,7,1,7,12,0,1,-1
343,78,363,1,80,6,-1,7,11,11,-1,-2
344,76,364,1,80,4,-2,7,9,9,-1,-3
345,74,365,1,80,2,-2,7,7,7,-1,-4
346,71,366,1,105,11,-3,7,4,4,-1,-5
347,74,367,1,80,2,3,7,7,7,1,-4
348,76,368,0,80,4,2,7,9,9,1,-3
349,74,368,1,80,2,-2,7,7,7,-1,-4
350,79,370,1,95,7,5,7,12,0,1,-3
351,74,371,1,80,2,-5,7,7,7,-1,-4
352,71,372,1,80,11,-3,7,4,4,-1,-5
353,74,373,1,80,2,3,7,7,7,1,-4
354,72,374,3,105,0,-2,7,5,5,-1,-5
355,71,377,1,80,11,-1,7,4,4,-1,-6
356,72,378,1,95,0,1,7,5,5,1,-5
357,71,379,1,80,11,-1,7,4,4,-1,-6
358,69,380,1,80,9,-2,7,2,2,-1,-7
359,67,381,1,80,7,-2,7,0,0,-1,-8
360,66,382,1,105,6,-1,7,-1,11,-1,-9
361,62,383,1,80,2,-4,7,-5,7,-1,-10
362,64,384,1,80,4,2,7,-3,9,1,-9
363,66,385,1,80,6,2,7,-1,11,1,-8
364,67,386,8,95,7,1,7,0,0,1,-7
