,midi_note,onset,duration,velocity,pitch_class,interval,root,relative_pitch,relative_pitch_class,parsons_code,parsons_cumsum
0,71,0,1,105,11,0,7,4,4,0,0
1,72,1,1,80,0,1,7,5,5,1,1
2,74,2,1,105,2,2,7,7,7,1,2
3,71,3,1,80,11,-3,7,4,4,-1,1
4,67,4,1,80,7,-4,7,0,0,-1,0
5,79,5,1,80,7,12,7,12,0,1,1
6,78,6,2,80,6,-1,7,11,11,-1,0
7,76,8,2,80,4,-2,7,9,9,-1,-1
8,69,10,1,105,9,-7,7,2,2,-1,-2
9,71,11,1,80,11,2,7,4,4,1,-1
10,72,12,1,80,0,1,7,5,5,1,0
11,69,13,1,80,9,-3,7,2,2,-1,-1
12,71,14,2,80,11,2,7,4,4,1,0
13,67,16,2,80,7,-4,7,0,0,-1,-1
14,64,18,1,105,4,-3,7,-3,9,-1,-2
15,66,19,1,80,6,2,7,-1,11,1,-1
16,67,20,1,80,7,1,7,0,0,1,0
17,64,21,1,80,4,-3,7,-3,9,-1,-1
18,66,22,1,80,6,2,7,-1,11,1,0
19,67,23,1,80,7,1,7,0,0,1,1
20,69,24,1,80,9,2,7,2,2,1,2
21,66,25,1,80,6,-3,7,-1,11,-1,1
22,67,26,1,105,7,1,7,0,0,1,2
23,69,27,1,80,9,2,7,2,2,1,3
24,71,28,1,80,11,2,7,4,4,1,4
25,72,29,1,80,0,1,7,5,5,1,5
26,74,30,2,80,2,2,7,7,7,1,6
27,73,32,2,80,1,-1,7,6,6,-1,5
28,74,34,1,105,2,1,7,7,7,1,6
29,71,35,1,80,11,-3,7,4,4,-1,5
30,67,36,1,80,7,-4,7,0,0,-1,4
31,79,37,1,80,7,12,7,12,0,1,5
32,78,38,2,80,6,-1,7,11,11,-1,4
33,76,40,2,80,4,-2,7,9,9,-1,3
34,69,42,1,105,9,-7,7,2,2,-1,2
35,71,43,1,80,11,2,7,4,4,1,3
36,72,44,1,80,0,1,7,5,5,1,4
37,69,45,1,80,9,-3,7,2,2,-1,3
38,71,46,2,80,11,2,7,4,4,1,4
39,67,48,2,80,7,-4,7,0,0,-1,3
40,64,50,1,105,4,-3,7,-3,9,-1,2
41,66,51,1,80,6,2,7,-1,11,1,3
42,67,52,1,80,7,1,7,0,0,1,4
43,64,53,1,80,4,-3,7,-3,9,-1,3
44,66,54,1,80,6,2,7,-1,11,1,4
45,67,55,1,80,7,1,7,0,0,1,5
46,69,56,1,80,9,2,7,2,2,1,6
47,66,57,1,80,6,-3,7,-1,11,-1,5
48,67,58,2,105,7,1,7,0,0,1,6
49,71,60,2,80,11,4,7,4,4,1,7
50,67,62,2,80,7,-4,7,0,0,-1,6
51,71,64,1,80,11,4,7,4,4,1,7
52,72,65,1,80,0,1,7,5,5,1,8
53,74,66,1,105,2,2,7,7,7,1,9
54,71,67,1,80,11,-3,7,4,4,-1,8
55,67,68,1,80,7,-4,7,0,0,-1,7
56,79,69,1,80,7,12,7,12,0,1,8
57,78,70,2,80,6,-1,7,11,11,-1,7
58,76,72,2,80,4,-2,7,9,9,-1,6
59,69,74,1,105,9,-7,7,2,2,-1,5
60,71,75,1,80,11,2,7,4,4,1,6
61,72,76,1,80,0,1,7,5,5,1,7
62,69,77,1,80,9,-3,7,2,2,-1,6
63,71,78,2,80,11,2,7,4,4,1,7
64,67,80,2,80,7,-4,7,0,0,-1,6
65,64,82,1,105,4,-3,7,-3,9,-1,5
66,66,83,1,80,6,2,7,-1,11,1,6
67,67,84,1,80,7,1,7,0,0,1,7
68,64,85,1,80,4,-3,7,-3,9,-1,6
69,66,86,1,80,6,2,7,-1,11,1,7
70,67,87,1,80,7,1,7,0,0,1,8
71,69,88,1,80,9,2,7,2,2,1,9
72,66,89,1,80,6,-3,7,-1,11,-1,8
73,67,90,1,105,7,1,7,0,0,1,9
74,69,91,1,80,9,2,7,2,2,1,10
75,71,92,1,80,11,2,7,4,4,1,11
76,72,93,1,80,0,1,7,5,5,1,12
77,74,94,2,80,2,2,7,7,7,1,13
78,73,96,2,80,1,-1,7,6,6,-1,12
79,74,98,1,105,2,1,7,7,7,1,13
80,71,99,1,80,11,-3,7,4,4,-1,12
81,67,100,1,80,7,-4,7,0,0,-1,11
82,79,101,1,80,7,12,7,12,0,1,12
83,78,102,2,80,6,-1,7,11,11,-1,11
84,76,104,2,80,4,-2,7,9,9,-1,10
85,69,106,1,105,9,-7,7,2,2,-1,9
86,71,107,1,80,11,2,7,4,4,1,10
87,72,108,1,80,0,1,7,5,5,1,11
88,69,109,1,80,9,-3,7,2,2,-1,10
89,71,110,2,80,11,2,7,4,4,1,11
90,67,112,2,80,7,-4,7,0,0,-1,10
91,64,114,1,105,4,-3,7,-3,9,-1,9
92,66,115,1,80,6,2,7,-1,11,1,10
93,67,116,1,80,7,1,7,0,0,1,11
94,64,117,1,80,4,-3,7,-3,9,-1,10
95,66,118,1,80,6,2,7,-1,11,1,11
96,67,119,1,80,7,1,7,0,0,1,12
97,69,120,1,80,9,2,7,2,2,1,13
98,66,121,1,80,6,-3,7,-1,11,-1,12
99,67,122,2,105,7,1,7,0,0,1,13
100,71,124,2,80,11,4,7,4,4,1,14
101,67,126,2,80,7,-4,7,0,0,-1,13
102,66,128,1,80,6,-1,7,-1,11,-1,12
103,67,129,1,80,7,1,7,0,0,1,13
104,69,130,1,105,9,2,7,2,2,1,14
105,68,131,1,80,8,-1,7,1,1,-1,13
106,69,132,1,80,9,1,7,2,2,1,14
107,74,133,1,80,2,5,7,7,7,1,15
108,73,134,2,80,1,-1,7,6,6,-1,14
109,71,136,2,80,11,-2,7,4,4,-1,13
110,73,138,1,105,1,2,7,6,6,1,14
111,71,139,1,80,11,-2,7,4,4,-1,13
112,69,140,1,80,9,-2,7,2,2,-1,12
113,79,141,1,80,7,10,7,12,0,1,13
114,78,142,2,80,6,-1,7,11,11,-1,12
115,76,144,2,80,4,-2,7,9,9,-1,11
116,78,146,1,105,6,2,7,11,11,1,12
117,76,147,1,80,4,-2,7,9,9,-1,11
118,78,148,1,80,6,2,7,11,11,1,12
119,74,149,1,80,2,-4,7,7,7,-1,11
120,71,150,2,80,11,-3,7,4,4,-1,10
121,76,152,2,80,4,5,7,9,9,1,11
122,73,154,1,105,1,-3,7,6,6,-1,10
123,71,155,1,80,11,-2,7,4,4,-1,9
124,73,156,1,80,1,2,7,6,6,1,10
125,69,157,1,80,9,-4,7,2,2,-1,9
126,78,158,2,80,6,9,7,11,11,1,10
127,74,160,2,80,2,-4,7,7,7,-1,9
128,69,162,1,105,9,-5,7,2,2,-1,8
129,68,163,1,80,8,-1,7,1,1,-1,7
130,69,164,1,80,9,1,7,2,2,1,8
131,74,165,1,80,2,5,7,7,7,1,9
132,73,166,2,80,1,-1,7,6,6,-1,8
133,71,168,2,80,11,-2,7,4,4,-1,7
134,73,170,1,105,1,2,7,6,6,1,8
135,71,171,1,80,11,-2,7,4,4,-1,7
136,69,172,1,80,9,-2,7,2,2,-1,6
137,79,173,1,80,7,10,7,12,0,1,7
138,78,174,2,80,6,-1,7,11,11,-1,6
139,76,176,2,80,4,-2,7,9,9,-1,5
140,78,178,1,105,6,2,7,11,11,1,6
141,76,179,1,80,4,-2,7,9,9,-1,5
142,78,180,1,80,6,2,7,11,11,1,6
143,74,181,1,80,2,-4,7,7,7,-1,5
144,71,182,2,80,11,-3,7,4,4,-1,4
145,76,184,2,80,4,5,7,9,9,1,5
146,73,186,1,105,1,-3,7,6,6,-1,4
147,71,187,1,80,11,-2,7,4,4,-1,3
148,73,188,1,80,1,2,7,6,6,1,4
149,69,189,1,80,9,-4,7,2,2,-1,3
150,74,190,2,80,2,5,7,7,7,1,4
151,66,192,1,80,6,-8,7,-1,11,-1,3
152,67,193,1,80,7,1,7,0,0,1,4
153,69,194,1,105,9,2,7,2,2,1,5
154,68,195,1,80,8,-1,7,1,1,-1,4
155,69,196,1,80,9,1,7,2,2,1,5
156,74,197,1,80,2,5,7,7,7,1,6
157,73,198,2,80,1,-1,7,6,6,-1,5
158,71,200,2,80,11,-2,7,4,4,-1,4
159,73,202,1,105,1,2,7,6,6,1,5
160,71,203,1,80,11,-2,7,4,4,-1,4
161,69,204,1,80,9,-2,7,2,2,-1,3
162,79,205,1,80,7,10,7,12,0,1,4
163,78,206,2,80,6,-1,7,11,11,-1,3
164,76,208,2,80,4,-2,7,9,9,-1,2
165,78,210,1,105,6,2,7,11,11,1,3
166,76,211,1,80,4,-2,7,9,9,-1,2
167,78,212,1,80,6,2,7,11,11,1,3
168,74,213,1,80,2,-4,7,7,7,-1,2
169,71,214,2,80,11,-3,7,4,4,-1,1
170,76,216,2,80,4,5,7,9,9,1,2
171,73,218,1,105,1,-3,7,6,6,-1,1
172,71,219,1,80,11,-2,7,4,4,-1,0
173,73,220,1,80,1,2,7,6,6,1,1
174,69,221,1,80,9,-4,7,2,2,-1,0
175,78,222,2,80,6,9,7,11,11,1,1
176,74,224,2,80,2,-4,7,7,7,-1,0
177,69,226,1,105,9,-5,7,2,2,-1,-1
178,68,227,1,80,8,-1,7,1,1,-1,-2
179,69,228,1,80,9,1,7,2,2,1,-1
180,74,229,1,80,2,5,7,7,7,1,0
181,73,230,2,80,1,-1,7,6,6,-1,-1
182,71,232,2,80,11,-2,7,4,4,-1,-2
183,73,234,1,105,1,2,7,6,6,1,-1
184,71,235,1,80,11,-2,7,4,4,-1,-2
185,69,236,1,80,9,-2,7,2,2,-1,-3
186,79,237,1,80,7,10,7,12,0,1,-2
187,78,238,2,80,6,-1,7,11,11,-1,-3
188,76,240,2,80,4,-2,7,9,9,-1,-4
189,78,242,1,105,6,2,7,11,11,1,-3
190,76,243,1,80,4,-2,7,9,9,-1,-4
191,78,244,1,80,6,2,7,11,11,1,-3
192,74,245,1,80,2,-4,7,7,7,-1,-4
193,71,246,2,80,11,-3,7,4,4,-1,-5
194,76,248,2,80,4,5,7,9,9,1,-4
195,73,250,1,105,1,-3,7,6,6,-1,-5
196,71,251,1,80,11,-2,7,4,4,-1,-6
197,73,252,1,80,1,2,7,6,6,1,-5
198,69,253,1,80,9,-4,7,2,2,-1,-6
199,74,254,2,80,2,5,7,7,7,1,-5
200,71,256,1,80,11,-3,7,4,4,-1,-6
201,72,257,1,80,0,1,7,5,5,1,-5
202,74,258,1,105,2,2,7,7,7,1,-4
203,71,259,1,80,11,-3,7,4,4,-1,-5
204,67,260,1,80,7,-4,7,0,0,-1,-6
205,79,261,1,80,7,12,7,12,0,1,-5
206,78,262,2,80,6,-1,7,11,11,-1,-6
207,76,264,2,80,4,-2,7,9,9,-1,-7
208,69,266,1,105,9,-7,7,2,2,-1,-8
209,71,267,1,80,11,2,7,4,4,1,-7
210,72,268,1,80,0,1,7,5,5,1,-6
211,69,269,1,80,9,-3,7,2,2,-1,-7
212,71,270,2,80,11,2,7,4,4,1,-6
213,67,272,2,80,7,-4,7,0,0,-1,-7
214,64,274,1,105,4,-3,7,-3,9,-1,-8
215,66,275,1,80,6,2,7,-1,11,1,-7
216,67,276,1,80,7,1,7,0,0,1,-6
217,64,277,1,80,4,-3,7,-3,9,-1,-7
218,66,278,1,80,6,2,7,-1,11,1,-6
219,67,279,1,80,7,1,7,0,0,1,-5
220,69,280,1,80,9,2,7,2,2,1,-4
221,66,281,1,80,6,-3,7,-1,11,-1,-5
222,67,282,1,105,7,1,7,0,0,1,-4
223,69,283,1,80,9,2,7,2,2,1,-3
224,71,284,1,80,11,2,7,4,4,1,-2
225,72,285,1,80,0,1,7,5,5,1,-1
226,74,286,2,80,2,2,7,7,7,1,0
227,73,288,2,80,1,-1,7,6,6,-1,-1
228,74,290,1,105,2,1,7,7,7,1,0
229,71,291,1,80,11,-3,7,4,4,-1,-1
230,67,292,1,80,7,-4,7,0,0,-1,-2
231,79,293,1,80,7,12,7,12,0,1,-1
232,78,294,2,80,6,-1,7,11,11,-1,-2
233,76,296,2,80,4,-2,7,9,9,-1,-3
234,69,298,1,105,9,-7,7,2,2,-1,-4
235,71,299,1,80,11,2,7,4,4,1,-3
236,72,300,1,80,0,1,7,5,5,1,-2
237,69,301,1,80,9,-3,7,2,2,-1,-3
238,71,302,2,80,11,2,7,4,4,1,-2
239,67,304,2,80,7,-4,7,0,0,-1,-3
240,64,306,1,105,4,-3,7,-3,9,-1,-4
241,66,307,1,80,6,2,7,-1,11,1,-3
242,67,308,1,80,7,1,7,0,0,1,-2
243,64,309,1,80,4,-3,7,-3,9,-1,-3
244,66,310,1,80,6,2,7,-1,11,1,-2
245,67,311,1,80,7,1,7,0,0,1,-1
246,69,312,1,80,9,2,7,2,2,1,0
247,66,313,1,80,6,-3,7,-1,11,-1,-1
248,67,314,2,105,7,1,7,0,0,1,0
249,71,316,2,80,11,4,7,4,4,1,1
250,67,318,8,80,7,-4,7,0,0,-1,0
