,midi_note,onset,duration,velocity,pitch_class,interval,root,relative_pitch,relative_pitch_class,parsons_code,parsons_cumsum
0,71,0,1,105,11,0,7,4,4,0,0
1,72,1,1,80,0,1,7,5,5,1,1
2,74,2,1,105,2,2,7,7,7,1,2
3,76,3,1,80,4,2,7,9,9,1,3
4,72,4,1,80,0,-4,7,5,5,-1,2
5,74,5,1,80,2,2,7,7,7,1,3
6,71,6,3,95,11,-3,7,4,4,-1,2
7,67,9,1,80,7,-4,7,0,0,-1,1
8,69,10,1,105,9,2,7,2,2,1,2
9,72,11,1,80,0,3,7,5,5,1,3
10,71,12,1,80,11,-1,7,4,4,-1,2
11,67,13,1,80,7,-4,7,0,0,-1,1
12,69,14,1,95,9,2,7,2,2,1,2
13,67,15,1,80,7,-2,7,0,0,-1,1
14,64,16,1,80,4,-3,7,-3,9,-1,0
15,66,17,1,80,6,2,7,-1,11,1,1
16,67,18,0,105,7,1,7,0,0,1,2
17,66,18,0,80,6,-1,7,-1,11,-1,1
18,64,19,0,80,4,-2,7,-3,9,-1,0
19,66,20,0,80,6,2,7,-1,11,1,1
20,64,20,0,80,4,-2,7,-3,9,-1,0
21,62,21,0,80,2,-2,7,-5,7,-1,-1
22,64,22,1,95,4,2,7,-3,9,1,0
23,66,23,1,80,6,2,7,-1,11,1,1
24,67,24,1,80,7,1,7,0,0,1,2
25,71,25,1,80,11,4,7,4,4,1,3
26,69,26,1,105,9,-2,7,2,2,-1,2
27,67,27,1,80,7,-2,7,0,0,-1,1
28,71,28,1,80,11,4,7,4,4,1,2
29,67,29,1,80,7,-4,7,0,0,-1,1
30,69,30,1,95,9,2,7,2,2,1,2
31,67,31,1,80,7,-2,7,0,0,-1,1
32,64,32,1,80,4,-3,7,-3,9,-1,0
33,67,33,1,80,7,3,7,0,0,1,1
34,72,34,1,105,0,5,7,5,5,1,2
35,74,35,1,80,2,2,7,7,7,1,3
36,72,36,1,80,0,-2,7,5,5,-1,2
37,69,37,1,80,9,-3,7,2,2,-1,1
38,71,38,3,95,11,2,7,4,4,1,2
39,67,41,1,80,7,-4,7,0,0,-1,1
40,69,42,1,105,9,2,7,2,2,1,2
41,72,43,1,80,0,3,7,5,5,1,3
42,71,44,1,80,11,-1,7,4,4,-1,2
43,67,45,1,80,7,-4,7,0,0,-1,1
44,69,46,1,95,9,2,7,2,2,1,2
45,67,47,1,80,7,-2,7,0,0,-1,1
46,64,48,1,80,4,-3,7,-3,9,-1,0
47,66,49,1,80,6,2,7,-1,11,1,1
48,67,50,0,105,7,1,7,0,0,1,2
49,66,50,0,80,6,-1,7,-1,11,-1,1
50,64,51,0,80,4,-2,7,-3,9,-1,0
51,66,52,0,80,6,2,7,-1,11,1,1
52,64,52,0,80,4,-2,7,-3,9,-1,0
53,62,53,0,80,2,-2,7,-5,7,-1,-1
54,64,54,1,95,4,2,7,-3,9,1,0
55,66,55,1,80,6,2,7,-1,11,1,1
56,67,56,1,80,7,1,7,0,0,1,2
57,71,57,1,80,11,4,7,4,4,1,3
58,69,58,1,105,9,-2,7,2,2,-1,2
59,62,59,1,80,2,-7,7,-5,7,-1,1
60,66,60,1,80,6,4,7,-1,11,1,2
61,69,61,1,80,9,3,7,2,2,1,3
62,67,62,2,95,7,-2,7,0,0,-1,2
63,71,64,1,80,11,4,7,4,4,1,3
64,72,65,1,80,0,1,7,5,5,1,4
65,74,66,1,105,2,2,7,7,7,1,5
66,76,67,1,80,4,2,7,9,9,1,6
67,72,68,1,80,0,-4,7,5,5,-1,5
68,74,69,1,80,2,2,7,7,7,1,6
69,71,70,3,95,11,-3,7,4,4,-1,5
70,67,73,1,80,7,-4,7,0,0,-1,4
71,69,74,1,105,9,2,7,2,2,1,5
72,72,75,1,80,0,3,7,5,5,1,6
73,71,76,1,80,11,-1,7,4,4,-1,5
74,67,77,1,80,7,-4,7,0,0,-1,4
75,69,78,1,95,9,2,7,2,2,1,5
76,67,79,1,80,7,-2,7,0,0,-1,4
77,64,80,1,80,4,-3,7,-3,9,-1,3
78,66,81,1,80,6,2,7,-1,11,1,4
79,67,82,0,105,7,1,7,0,0,1,5
80,66,82,0,80,6,-1,7,-1,11,-1,4
81,64,83,0,80,4,-2,7,-3,9,-1,3
82,66,84,0,80,6,2,7,-1,11,1,4
83,64,84,0,80,4,-2,7,-3,9,-1,3
84,62,85,0,80,2,-2,7,-5,7,-1,2
85,64,86,1,95,4,2,7,-3,9,1,3
86,66,87,1,80,6,2,7,-1,11,1,4
87,67,88,1,80,7,1,7,0,0,1,5
88,71,89,1,80,11,4,7,4,4,1,6
89,69,90,1,105,9,-2,7,2,2,-1,5
90,67,91,1,80,7,-2,7,0,0,-1,4
91,71,92,1,80,11,4,7,4,4,1,5
92,67,93,1,80,7,-4,7,0,0,-1,4
93,69,94,1,95,9,2,7,2,2,1,5
94,67,95,1,80,7,-2,7,0,0,-1,4
95,64,96,1,80,4,-3,7,-3,9,-1,3
96,67,97,1,80,7,3,7,0,0,1,4
97,72,98,1,105,0,5,7,5,5,1,5
98,74,99,1,80,2,2,7,7,7,1,6
99,72,100,1,80,0,-2,7,5,5,-1,5
100,69,101,1,80,9,-3,7,2,2,-1,4
101,71,102,3,95,11,2,7,4,4,1,5
102,67,105,1,80,7,-4,7,0,0,-1,4
103,69,106,1,105,9,2,7,2,2,1,5
104,72,107,1,80,0,3,7,5,5,1,6
105,71,108,1,80,11,-1,7,4,4,-1,5
106,67,109,1,80,7,-4,7,0,0,-1,4
107,69,110,1,95,9,2,7,2,2,1,5
108,67,111,1,80,7,-2,7,0,0,-1,4
109,64,112,1,80,4,-3,7,-3,9,-1,3
110,66,113,1,80,6,2,7,-1,11,1,4
111,67,114,0,105,7,1,7,0,0,1,5
112,66,114,0,80,6,-1,7,-1,11,-1,4
113,64,115,0,80,4,-2,7,-3,9,-1,3
114,66,116,0,80,6,2,7,-1,11,1,4
115,64,116,0,80,4,-2,7,-3,9,-1,3
116,62,117,0,80,2,-2,7,-5,7,-1,2
117,64,118,1,95,4,2,7,-3,9,1,3
118,66,119,1,80,6,2,7,-1,11,1,4
119,67,120,1,80,7,1,7,0,0,1,5
120,71,121,1,80,11,4,7,4,4,1,6
121,69,122,1,105,9,-2,7,2,2,-1,5
122,62,123,1,80,2,-7,7,-5,7,-1,4
123,66,124,1,80,6,4,7,-1,11,1,5
124,69,125,1,80,9,3,7,2,2,1,6
125,67,126,2,95,7,-2,7,0,0,-1,5
126,67,128,0,80,7,0,7,0,0,0,5
127,66,128,0,80,6,-1,7,-1,11,-1,4
128,67,129,0,80,7,1,7,0,0,1,5
129,67,130,1,105,7,0,7,0,0,0,5
130,69,131,1,80,9,2,7,2,2,1,6
131,71,132,1,80,11,2,7,4,4,1,7
132,72,133,1,80,0,1,7,5,5,1,8
133,74,134,2,95,2,2,7,7,7,1,9
134,76,136,1,80,4,2,7,9,9,1,10
135,78,137,1,80,6,2,7,11,11,1,11
136,79,138,3,105,7,1,7,12,0,1,12
137,76,141,1,80,4,-3,7,9,9,-1,11
138,74,142,1,95,2,-2,7,7,7,-1,10
139,71,143,1,80,11,-3,7,4,4,-1,9
140,67,144,1,80,7,-4,7,0,0,-1,8
141,71,145,1,80,11,4,7,4,4,1,9
142,72,146,1,105,0,1,7,5,5,1,10
143,74,147,1,80,2,2,7,7,7,1,11
144,72,148,1,80,0,-2,7,5,5,-1,10
145,69,149,1,80,9,-3,7,2,2,-1,9
146,71,150,3,95,11,2,7,4,4,1,10
147,67,153,1,80,7,-4,7,0,0,-1,9
148,69,154,1,105,9,2,7,2,2,1,10
149,72,155,1,80,0,3,7,5,5,1,11
150,71,156,1,80,11,-1,7,4,4,-1,10
151,67,157,1,80,7,-4,7,0,0,-1,9
152,69,158,1,95,9,2,7,2,2,1,10
153,67,159,1,80,7,-2,7,0,0,-1,9
154,64,160,1,80,4,-3,7,-3,9,-1,8
155,66,161,1,80,6,2,7,-1,11,1,9
156,67,162,1,105,7,1,7,0,0,1,10
157,69,163,1,80,9,2,7,2,2,1,11
158,71,164,1,80,11,2,7,4,4,1,12
159,72,165,1,80,0,1,7,5,5,1,13
160,74,166,2,95,2,2,7,7,7,1,14
161,76,168,1,80,4,2,7,9,9,1,15
162,78,169,1,80,6,2,7,11,11,1,16
163,79,170,3,105,7,1,7,12,0,1,17
164,76,173,1,80,4,-3,7,9,9,-1,16
165,74,174,1,95,2,-2,7,7,7,-1,15
166,71,175,1,80,11,-3,7,4,4,-1,14
167,67,176,1,80,7,-4,7,0,0,-1,13
168,71,177,1,80,11,4,7,4,4,1,14
169,72,178,1,105,0,1,7,5,5,1,15
170,76,179,1,80,4,4,7,9,9,1,16
171,72,180,1,80,0,-4,7,5,5,-1,15
172,76,181,1,80,4,4,7,9,9,1,16
173,71,182,1,95,11,-5,7,4,4,-1,15
174,74,183,1,80,2,3,7,7,7,1,16
175,71,184,1,80,11,-3,7,4,4,-1,15
176,74,185,1,80,2,3,7,7,7,1,16
177,69,186,1,105,9,-5,7,2,2,-1,15
178,62,187,1,80,2,-7,7,-5,7,-1,14
179,66,188,1,80,6,4,7,-1,11,1,15
180,69,189,1,80,9,3,7,2,2,1,16
181,67,190,2,95,7,-2,7,0,0,-1,15
182,67,192,0,80,7,0,7,0,0,0,15
183,66,192,0,80,6,-1,7,-1,11,-1,14
184,67,193,0,80,7,1,7,0,0,1,15
185,67,194,1,105,7,0,7,0,0,0,15
186,69,195,1,80,9,2,7,2,2,1,16
187,71,196,1,80,11,2,7,4,4,1,17
188,72,197,1,80,0,1,7,5,5,1,18
189,74,198,2,95,2,2,7,7,7,1,19
190,76,200,1,80,4,2,7,9,9,1,20
191,78,201,1,80,6,2,7,11,11,1,21
192,79,202,3,105,7,1,7,12,0,1,22
193,76,205,1,80,4,-3,7,9,9,-1,21
194,74,206,1,95,2,-2,7,7,7,-1,20
195,71,207,1,80,11,-3,7,4,4,-1,19
196,67,208,1,80,7,-4,7,0,0,-1,18
197,71,209,1,80,11,4,7,4,4,1,19
198,72,210,1,105,0,1,7,5,5,1,20
199,74,211,1,80,2,2,7,7,7,1,21
200,72,212,1,80,0,-2,7,5,5,-1,20
201,69,213,1,80,9,-3,7,2,2,-1,19
202,71,214,3,95,11,2,7,4,4,1,20
203,67,217,1,80,7,-4,7,0,0,-1,19
204,69,218,1,105,9,2,7,2,2,1,20
205,72,219,1,80,0,3,7,5,5,1,21
206,71,220,1,80,11,-1,7,4,4,-1,20
207,67,221,1,80,7,-4,7,0,0,-1,19
208,69,222,1,95,9,2,7,2,2,1,20
209,67,223,1,80,7,-2,7,0,0,-1,19
210,64,224,2,80,4,-3,7,-3,9,-1,18
211,79,226,1,105,7,15,7,12,0,1,19
212,78,227,1,80,6,-1,7,11,11,-1,18
213,76,228,1,80,4,-2,7,9,9,-1,17
214,74,229,1,80,2,-2,7,7,7,-1,16
215,76,230,1,95,4,2,7,9,9,1,17
216,74,231,1,80,2,-2,7,7,7,-1,16
217,71,232,1,80,11,-3,7,4,4,-1,15
218,74,233,1,80,2,3,7,7,7,1,16
219,72,234,0,105,0,-2,7,5,5,-1,15
220,71,234,0,80,11,-1,7,4,4,-1,14
221,69,235,0,80,9,-2,7,2,2,-1,13
222,71,236,1,80,11,2,7,4,4,1,14
223,67,237,1,80,7,-4,7,0,0,-1,13
224,69,238,1,95,9,2,7,2,2,1,14
225,67,239,1,80,7,-2,7,0,0,-1,13
226,64,240,1,80,4,-3,7,-3,9,-1,12
227,66,241,1,80,6,2,7,-1,11,1,13
228,67,242,0,105,7,1,7,0,0,1,14
229,66,242,0,80,6,-1,7,-1,11,-1,13
230,64,243,0,80,4,-2,7,-3,9,-1,12
231,66,244,0,80,6,2,7,-1,11,1,13
232,64,244,0,80,4,-2,7,-3,9,-1,12
233,62,245,0,80,2,-2,7,-5,7,-1,11
234,64,246,1,95,4,2,7,-3,9,1,12
235,66,247,1,80,6,2,7,-1,11,1,13
236,67,248,1,80,7,1,7,0,0,1,14
237,71,249,1,80,11,4,7,4,4,1,15
238,69,250,0,105,9,-2,7,2,2,-1,14
239,71,250,0,80,11,2,7,4,4,1,15
240,69,251,1,80,9,-2,7,2,2,-1,14
241,66,252,1,80,6,-3,7,-1,11,-1,13
242,69,253,1,80,9,3,7,2,2,1,14
243,67,254,8,95,7,-2,7,0,0,-1,13
