,midi_note,onset,duration,velocity,pitch_class,interval,root,relative_pitch,relative_pitch_class,parsons_code,parsons_cumsum
0,64,0,1,105,4,0,9,-5,7,0,0
1,57,1,1,80,9,-7,9,-12,0,-1,-1
2,57,2,2,80,9,0,9,-12,0,0,-1
3,64,4,3,95,4,7,9,-5,7,1,0
4,59,7,1,80,11,-5,9,-10,2,-1,-1
5,55,8,1,105,7,-4,9,-14,10,-1,-2
6,59,9,1,80,11,4,9,-10,2,1,-1
7,59,10,2,80,11,0,9,-10,2,0,-1
8,55,12,1,95,7,-4,9,-14,10,-1,-2
9,57,13,1,80,9,2,9,-12,0,1,-1
10,59,14,1,80,11,2,9,-10,2,1,0
11,62,15,1,80,2,3,9,-7,5,1,1
12,64,16,1,105,4,2,9,-5,7,1,2
13,57,17,1,80,9,-7,9,-12,0,-1,1
14,57,18,2,80,9,0,9,-12,0,0,1
15,64,20,1,95,4,7,9,-5,7,1,2
16,55,21,1,80,7,-9,9,-14,10,-1,1
17,59,22,1,80,11,4,9,-10,2,1,2
18,62,23,1,80,2,3,9,-7,5,1,3
19,71,24,1,105,11,9,9,2,2,1,4
20,74,25,1,80,2,3,9,5,5,1,5
21,76,26,1,80,4,2,9,7,7,1,6
22,71,27,1,80,11,-5,9,2,2,-1,5
23,74,28,1,95,2,3,9,5,5,1,6
24,71,29,1,80,11,-3,9,2,2,-1,5
25,69,30,1,80,9,-2,9,0,0,-1,4
26,71,31,1,80,11,2,9,2,2,1,5
27,76,32,1,105,4,5,9,7,7,1,6
28,71,33,1,80,11,-5,9,2,2,-1,5
29,71,34,2,80,11,0,9,2,2,0,5
30,76,36,1,95,4,5,9,7,7,1,6
31,71,37,1,80,11,-5,9,2,2,-1,5
32,74,38,1,80,2,3,9,5,5,1,6
33,71,39,1,80,11,-3,9,2,2,-1,5
34,69,40,1,105,9,-2,9,0,0,-1,4
35,64,41,1,80,4,-5,9,-5,7,-1,3
36,64,42,2,80,4,0,9,-5,7,0,3
37,62,44,1,95,2,-2,9,-7,5,-1,2
38,55,45,1,80,7,-7,9,-14,10,-1,1
39,59,46,1,80,11,4,9,-10,2,1,2
40,62,47,1,80,2,3,9,-7,5,1,3
41,57,48,1,105,9,-5,9,-12,0,-1,2
42,64,49,1,80,4,7,9,-5,7,1,3
43,64,50,2,80,4,0,9,-5,7,0,3
44,57,52,1,95,9,-7,9,-12,0,-1,2
45,64,53,1,80,4,7,9,-5,7,1,3
46,59,54,1,80,11,-5,9,-10,2,-1,2
47,62,55,1,80,2,3,9,-7,5,1,3
48,67,56,1,105,7,5,9,-2,10,1,4
49,64,57,1,80,4,-3,9,-5,7,-1,3
50,62,58,1,80,2,-2,9,-7,5,-1,2
51,59,59,1,80,11,-3,9,-10,2,-1,1
52,59,60,1,95,11,0,9,-10,2,0,1
53,57,61,1,80,9,-2,9,-12,0,-1,0
54,57,62,2,80,9,0,9,-12,0,0,0
55,64,64,1,105,4,7,9,-5,7,1,1
56,57,65,1,80,9,-7,9,-12,0,-1,0
57,57,66,2,80,9,0,9,-12,0,0,0
58,64,68,3,95,4,7,9,-5,7,1,1
59,59,71,1,80,11,-5,9,-10,2,-1,0
60,55,72,1,105,7,-4,9,-14,10,-1,-1
61,59,73,1,80,11,4,9,-10,2,1,0
62,59,74,2,80,11,0,9,-10,2,0,0
63,55,76,1,95,7,-4,9,-14,10,-1,-1
64,57,77,1,80,9,2,9,-12,0,1,0
65,59,78,1,80,11,2,9,-10,2,1,1
66,62,79,1,80,2,3,9,-7,5,1,2
67,64,80,1,105,4,2,9,-5,7,1,3
68,57,81,1,80,9,-7,9,-12,0,-1,2
69,57,82,2,80,9,0,9,-12,0,0,2
70,64,84,1,95,4,7,9,-5,7,1,3
71,55,85,1,80,7,-9,9,-14,10,-1,2
72,59,86,1,80,11,4,9,-10,2,1,3
73,62,87,1,80,2,3,9,-7,5,1,4
74,71,88,1,105,11,9,9,2,2,1,5
75,74,89,1,80,2,3,9,5,5,1,6
76,76,90,1,80,4,2,9,7,7,1,7
77,71,91,1,80,11,-5,9,2,2,-1,6
78,74,92,1,95,2,3,9,5,5,1,7
79,71,93,1,80,11,-3,9,2,2,-1,6
80,69,94,1,80,9,-2,9,0,0,-1,5
81,71,95,1,80,11,2,9,2,2,1,6
82,76,96,1,105,4,5,9,7,7,1,7
83,71,97,1,80,11,-5,9,2,2,-1,6
84,71,98,2,80,11,0,9,2,2,0,6
85,76,100,1,95,4,5,9,7,7,1,7
86,71,101,1,80,11,-5,9,2,2,-1,6
87,74,102,1,80,2,3,9,5,5,1,7
88,71,103,1,80,11,-3,9,2,2,-1,6
89,69,104,1,105,9,-2,9,0,0,-1,5
90,64,105,1,80,4,-5,9,-5,7,-1,4
91,64,106,2,80,4,0,9,-5,7,0,4
92,62,108,1,95,2,-2,9,-7,5,-1,3
93,55,109,1,80,7,-7,9,-14,10,-1,2
94,59,110,1,80,11,4,9,-10,2,1,3
95,62,111,1,80,2,3,9,-7,5,1,4
96,57,112,1,105,9,-5,9,-12,0,-1,3
97,64,113,1,80,4,7,9,-5,7,1,4
98,64,114,2,80,4,0,9,-5,7,0,4
99,57,116,1,95,9,-7,9,-12,0,-1,3
100,64,117,1,80,4,7,9,-5,7,1,4
101,59,118,1,80,11,-5,9,-10,2,-1,3
102,62,119,1,80,2,3,9,-7,5,1,4
103,67,120,1,105,7,5,9,-2,10,1,5
104,64,121,1,80,4,-3,9,-5,7,-1,4
105,62,122,1,80,2,-2,9,-7,5,-1,3
106,59,123,1,80,11,-3,9,-10,2,-1,2
107,59,124,1,95,11,0,9,-10,2,0,2
108,57,125,1,80,9,-2,9,-12,0,-1,1
109,57,126,2,80,9,0,9,-12,0,0,1
110,69,128,0,105,9,12,9,0,0,1,2
111,71,128,0,80,11,2,9,2,2,1,3
112,69,129,0,80,9,-2,9,0,0,-1,2
113,64,130,1,80,4,-5,9,-5,7,-1,1
114,69,131,1,80,9,5,9,0,0,1,2
115,71,132,1,95,11,2,9,2,2,1,3
116,69,133,1,80,9,-2,9,0,0,-1,2
117,64,134,1,80,4,-5,9,-5,7,-1,1
118,69,135,1,80,9,5,9,0,0,1,2
119,67,136,2,105,7,-2,9,-2,10,-1,1
120,62,138,1,80,2,-5,9,-7,5,-1,0
121,59,139,1,80,11,-3,9,-10,2,-1,-1
122,55,140,1,95,7,-4,9,-14,10,-1,-2
123,57,141,1,80,9,2,9,-12,0,1,-1
124,59,142,1,80,11,2,9,-10,2,1,0
125,62,143,1,80,2,3,9,-7,5,1,1
126,64,144,1,105,4,2,9,-5,7,1,2
127,69,145,1,80,9,5,9,0,0,1,3
128,69,146,2,80,9,0,9,0,0,0,3
129,64,148,1,95,4,-5,9,-5,7,-1,2
130,69,149,1,80,9,5,9,0,0,1,3
131,71,150,1,80,11,2,9,2,2,1,4
132,74,151,1,80,2,3,9,5,5,1,5
133,76,152,1,105,4,2,9,7,7,1,6
134,74,153,1,80,2,-2,9,5,5,-1,5
135,71,154,1,80,11,-3,9,2,2,-1,4
136,69,155,1,80,9,-2,9,0,0,-1,3
137,79,156,1,95,7,10,9,10,10,1,4
138,76,157,1,80,4,-3,9,7,7,-1,3
139,74,158,1,80,2,-2,9,5,5,-1,2
140,71,159,1,80,11,-3,9,2,2,-1,1
141,83,160,1,105,11,12,9,14,2,1,2
142,79,161,1,80,7,-4,9,10,10,-1,1
143,79,162,2,80,7,0,9,10,10,0,1
144,81,164,1,95,9,2,9,12,0,1,2
145,77,165,1,80,5,-4,9,8,8,-1,1
146,79,166,1,80,7,2,9,10,10,1,2
147,76,167,1,80,4,-3,9,7,7,-1,1
148,74,168,1,105,2,-2,9,5,5,-1,0
149,71,169,1,80,11,-3,9,2,2,-1,-1
150,71,170,2,80,11,0,9,2,2,0,-1
151,69,172,1,95,9,-2,9,0,0,-1,-2
152,64,173,1,80,4,-5,9,-5,7,-1,-3
153,62,174,1,80,2,-2,9,-7,5,-1,-4
154,59,175,1,80,11,-3,9,-10,2,-1,-5
155,57,176,1,105,9,-2,9,-12,0,-1,-6
156,64,177,1,80,4,7,9,-5,7,1,-5
157,64,178,2,80,4,0,9,-5,7,0,-5
158,57,180,1,95,9,-7,9,-12,0,-1,-6
159,64,181,1,80,4,7,9,-5,7,1,-5
160,59,182,1,80,11,-5,9,-10,2,-1,-6
161,62,183,1,80,2,3,9,-7,5,1,-5
162,67,184,1,105,7,5,9,-2,10,1,-4
163,64,185,1,80,4,-3,9,-5,7,-1,-5
164,62,186,1,80,2,-2,9,-7,5,-1,-6
165,59,187,1,80,11,-3,9,-10,2,-1,-7
166,59,188,1,95,11,0,9,-10,2,0,-7
167,57,189,1,80,9,-2,9,-12,0,-1,-8
168,57,190,2,80,9,0,9,-12,0,0,-8
169,69,192,0,105,9,12,9,0,0,1,-7
170,71,192,0,80,11,2,9,2,2,1,-6
171,69,193,0,80,9,-2,9,0,0,-1,-7
172,64,194,1,80,4,-5,9,-5,7,-1,-8
173,69,195,1,80,9,5,9,0,0,1,-7
174,71,196,1,95,11,2,9,2,2,1,-6
175,69,197,1,80,9,-2,9,0,0,-1,-7
176,64,198,1,80,4,-5,9,-5,7,-1,-8
177,69,199,1,80,9,5,9,0,0,1,-7
178,67,200,2,105,7,-2,9,-2,10,-1,-8
179,62,202,1,80,2,-5,9,-7,5,-1,-9
180,59,203,1,80,11,-3,9,-10,2,-1,-10
181,55,204,1,95,7,-4,9,-14,10,-1,-11
182,57,205,1,80,9,2,9,-12,0,1,-10
183,59,206,1,80,11,2,9,-10,2,1,-9
184,62,207,1,80,2,3,9,-7,5,1,-8
185,64,208,1,105,4,2,9,-5,7,1,-7
186,69,209,1,80,9,5,9,0,0,1,-6
187,69,210,2,80,9,0,9,0,0,0,-6
188,64,212,1,95,4,-5,9,-5,7,-1,-7
189,69,213,1,80,9,5,9,0,0,1,-6
190,71,214,1,80,11,2,9,2,2,1,-5
191,74,215,1,80,2,3,9,5,5,1,-4
192,76,216,1,105,4,2,9,7,7,1,-3
193,74,217,1,80,2,-2,9,5,5,-1,-4
194,71,218,1,80,11,-3,9,2,2,-1,-5
195,69,219,1,80,9,-2,9,0,0,-1,-6
196,79,220,1,95,7,10,9,10,10,1,-5
197,76,221,1,80,4,-3,9,7,7,-1,-6
198,74,222,1,80,2,-2,9,5,5,-1,-7
199,71,223,1,80,11,-3,9,2,2,-1,-8
200,83,224,1,105,11,12,9,14,2,1,-7
201,79,225,1,80,7,-4,9,10,10,-1,-8
202,79,226,2,80,7,0,9,10,10,0,-8
203,81,228,1,95,9,2,9,12,0,1,-7
204,77,229,1,80,5,-4,9,8,8,-1,-8
205,79,230,1,80,7,2,9,10,10,1,-7
206,76,231,1,80,4,-3,9,7,7,-1,-8
207,74,232,1,105,2,-2,9,5,5,-1,-9
208,71,233,1,80,11,-3,9,2,2,-1,-10
209,71,234,2,80,11,0,9,2,2,0,-10
210,69,236,1,95,9,-2,9,0,0,-1,-11
211,64,237,1,80,4,-5,9,-5,7,-1,-12
212,62,238,1,80,2,-2,9,-7,5,-1,-13
213,59,239,1,80,11,-3,9,-10,2,-1,-14
214,57,240,1,105,9,-2,9,-12,0,-1,-15
215,64,241,1,80,4,7,9,-5,7,1,-14
216,64,242,2,80,4,0,9,-5,7,0,-14
217,57,244,1,95,9,-7,9,-12,0,-1,-15
218,64,245,1,80,4,7,9,-5,7,1,-14
219,59,246,1,80,11,-5,9,-10,2,-1,-15
220,62,247,1,80,2,3,9,-7,5,1,-14
221,67,248,1,105,7,5,9,-2,10,1,-13
222,64,249,1,80,4,-3,9,-5,7,-1,-14
223,62,250,1,80,2,-2,9,-7,5,-1,-15
224,59,251,1,80,11,-3,9,-10,2,-1,-16
225,59,252,1,95,11,0,9,-10,2,0,-16
226,57,253,1,80,9,-2,9,-12,0,-1,-17
227,57,254,2,80,9,0,9,-12,0,0,-17
228,69,256,0,105,9,12,9,0,0,1,-16
229,71,256,0,80,11,2,9,2,2,1,-15
230,69,257,0,80,9,-2,9,0,0,-1,-16
231,64,258,1,80,4,-5,9,-5,7,-1,-17
232,69,259,1,80,9,5,9,0,0,1,-16
233,71,260,1,95,11,2,9,2,2,1,-15
234,69,261,1,80,9,-2,9,0,0,-1,-16
235,69,262,2,80,9,0,9,0,0,0,-16
236,81,264,1,105,9,12,9,12,0,1,-15
237,79,265,1,80,7,-2,9,10,10,-1,-16
238,76,266,1,80,4,-3,9,7,7,-1,-17
239,74,267,1,80,2,-2,9,5,5,-1,-18
240,83,268,1,95,11,9,9,14,2,1,-17
241,81,269,1,80,9,-2,9,12,0,-1,-18
242,79,270,1,80,7,-2,9,10,10,-1,-19
243,76,271,1,80,4,-3,9,7,7,-1,-20
244,67,272,2,105,7,-9,9,-2,10,-1,-21
245,71,274,1,80,11,4,9,2,2,1,-20
246,67,275,1,80,7,-4,9,-2,10,-1,-21
247,71,276,1,95,11,4,9,2,2,1,-20
248,67,277,1,80,7,-4,9,-2,10,-1,-21
249,71,278,1,80,11,4,9,2,2,1,-20
250,74,279,1,80,2,3,9,5,5,1,-19
251,79,280,1,105,7,5,9,10,10,1,-18
252,76,281,1,80,4,-3,9,7,7,-1,-19
253,74,282,1,80,2,-2,9,5,5,-1,-20
254,72,283,1,80,0,-2,9,3,3,-1,-21
255,71,284,1,95,11,-1,9,2,2,-1,-22
256,79,285,1,80,7,8,9,10,10,1,-21
257,74,286,1,80,2,-5,9,5,5,-1,-22
258,79,287,1,80,7,5,9,10,10,1,-21
259,76,288,2,105,4,-3,9,7,7,-1,-22
260,69,290,1,80,9,-7,9,0,0,-1,-23
261,76,291,1,80,4,7,9,7,7,1,-22
262,77,292,1,95,5,1,9,8,8,1,-21
263,76,293,1,80,4,-1,9,7,7,-1,-22
264,74,294,1,80,2,-2,9,5,5,-1,-23
265,71,295,1,80,11,-3,9,2,2,-1,-24
266,69,296,1,105,9,-2,9,0,0,-1,-25
267,64,297,1,80,4,-5,9,-5,7,-1,-26
268,64,298,2,80,4,0,9,-5,7,0,-26
269,62,300,1,95,2,-2,9,-7,5,-1,-27
270,55,301,1,80,7,-7,9,-14,10,-1,-28
271,59,302,1,80,11,4,9,-10,2,1,-27
272,62,303,1,80,2,3,9,-7,5,1,-26
273,57,304,2,105,9,-5,9,-12,0,-1,-27
274,64,306,2,80,4,7,9,-5,7,1,-26
275,64,308,1,95,4,0,9,-5,7,0,-26
276,62,309,1,80,2,-2,9,-7,5,-1,-27
277,64,310,1,80,4,2,9,-5,7,1,-26
278,67,311,1,80,7,3,9,-2,10,1,-25
279,62,312,1,105,2,-5,9,-7,5,-1,-26
280,59,313,1,80,11,-3,9,-10,2,-1,-27
281,67,314,1,80,7,8,9,-2,10,1,-26
282,59,315,1,80,11,-8,9,-10,2,-1,-27
283,59,316,1,95,11,0,9,-10,2,0,-27
284,57,317,1,80,9,-2,9,-12,0,-1,-28
285,57,318,2,80,9,0,9,-12,0,0,-28
286,69,320,0,105,9,12,9,0,0,1,-27
287,71,320,0,80,11,2,9,2,2,1,-26
288,69,321,0,80,9,-2,9,0,0,-1,-27
289,64,322,1,80,4,-5,9,-5,7,-1,-28
290,69,323,1,80,9,5,9,0,0,1,-27
291,71,324,1,95,11,2,9,2,2,1,-26
292,69,325,1,80,9,-2,9,0,0,-1,-27
293,69,326,2,80,9,0,9,0,0,0,-27
294,81,328,1,105,9,12,9,12,0,1,-26
295,79,329,1,80,7,-2,9,10,10,-1,-27
296,76,330,1,80,4,-3,9,7,7,-1,-28
297,74,331,1,80,2,-2,9,5,5,-1,-29
298,83,332,1,95,11,9,9,14,2,1,-28
299,81,333,1,80,9,-2,9,12,0,-1,-29
300,79,334,1,80,7,-2,9,10,10,-1,-30
301,76,335,1,80,4,-3,9,7,7,-1,-31
302,67,336,2,105,7,-9,9,-2,10,-1,-32
303,71,338,1,80,11,4,9,2,2,1,-31
304,67,339,1,80,7,-4,9,-2,10,-1,-32
305,71,340,1,95,11,4,9,2,2,1,-31
306,67,341,1,80,7,-4,9,-2,10,-1,-32
307,71,342,1,80,11,4,9,2,2,1,-31
308,74,343,1,80,2,3,9,5,5,1,-30
309,79,344,1,105,7,5,9,10,10,1,-29
310,76,345,1,80,4,-3,9,7,7,-1,-30
311,74,346,1,80,2,-2,9,5,5,-1,-31
312,72,347,1,80,0,-2,9,3,3,-1,-32
313,71,348,1,95,11,-1,9,2,2,-1,-33
314,79,349,1,80,7,8,9,10,10,1,-32
315,74,350,1,80,2,-5,9,5,5,-1,-33
316,79,351,1,80,7,5,9,10,10,1,-32
317,76,352,2,105,4,-3,9,7,7,-1,-33
318,69,354,1,80,9,-7,9,0,0,-1,-34
319,76,355,1,80,4,7,9,7,7,1,-33
320,77,356,1,95,5,1,9,8,8,1,-32
321,76,357,1,80,4,-1,9,7,7,-1,-33
322,74,358,1,80,2,-2,9,5,5,-1,-34
323,71,359,1,80,11,-3,9,2,2,-1,-35
324,69,360,1,105,9,-2,9,0,0,-1,-36
325,64,361,1,80,4,-5,9,-5,7,-1,-37
326,64,362,2,80,4,0,9,-5,7,0,-37
327,62,364,1,95,2,-2,9,-7,5,-1,-38
328,55,365,1,80,7,-7,9,-14,10,-1,-39
329,59,366,1,80,11,4,9,-10,2,1,-38
330,62,367,1,80,2,3,9,-7,5,1,-37
331,57,368,2,105,9,-5,9,-12,0,-1,-38
332,64,370,2,80,4,7,9,-5,7,1,-37
333,64,372,1,95,4,0,9,-5,7,0,-37
334,62,373,1,80,2,-2,9,-7,5,-1,-38
335,64,374,1,80,4,2,9,-5,7,1,-37
336,67,375,1,80,7,3,9,-2,10,1,-36
337,62,376,1,105,2,-5,9,-7,5,-1,-37
338,59,377,1,80,11,-3,9,-10,2,-1,-38
339,67,378,1,80,7,8,9,-2,10,1,-37
340,59,379,1,80,11,-8,9,-10,2,-1,-38
341,59,380,1,95,11,0,9,-10,2,0,-38
342,57,381,1,80,9,-2,9,-12,0,-1,-39
343,57,382,2,80,9,0,9,-12,0,0,-39
