,midi_note,onset,duration,velocity,pitch_class,interval,root,relative_pitch,relative_pitch_class,parsons_code,parsons_cumsum
0,62,1,1,105,2,0,7,-5,7,0,0
1,67,2,1,80,7,5,7,0,0,1,1
2,71,3,1,80,11,4,7,4,4,1,2
3,67,4,1,80,7,-4,7,0,0,-1,1
4,69,5,1,95,9,2,7,2,2,1,2
5,67,6,1,80,7,-2,7,0,0,-1,1
6,71,7,1,80,11,4,7,4,4,1,2
7,67,8,1,80,7,-4,7,0,0,-1,1
8,62,9,1,105,2,-5,7,-5,7,-1,0
9,67,10,1,80,7,5,7,0,0,1,1
10,71,11,1,80,11,4,7,4,4,1,2
11,67,12,1,80,7,-4,7,0,0,-1,1
12,69,13,1,95,9,2,7,2,2,1,2
13,67,14,1,80,7,-2,7,0,0,-1,1
14,64,15,1,80,4,-3,7,-3,9,-1,0
15,67,16,1,80,7,3,7,0,0,1,1
16,62,17,1,105,2,-5,7,-5,7,-1,0
17,67,18,1,80,7,5,7,0,0,1,1
18,71,19,1,80,11,4,7,4,4,1,2
19,67,20,1,80,7,-4,7,0,0,-1,1
20,69,21,1,95,9,2,7,2,2,1,2
21,67,22,1,80,7,-2,7,0,0,-1,1
22,71,23,1,80,11,4,7,4,4,1,2
23,67,24,1,80,7,-4,7,0,0,-1,1
24,74,25,1,105,2,7,7,7,7,1,2
25,71,26,1,80,11,-3,7,4,4,-1,1
26,69,27,1,80,9,-2,7,2,2,-1,0
27,71,28,1,80,11,2,7,4,4,1,1
28,67,29,1,95,7,-4,7,0,0,-1,0
29,64,30,1,80,4,-3,7,-3,9,-1,-1
30,62,31,1,80,2,-2,7,-5,7,-1,-2
31,62,33,1,105,2,0,7,-5,7,0,-2
32,67,34,1,80,7,5,7,0,0,1,-1
33,71,35,1,80,11,4,7,4,4,1,0
34,67,36,1,80,7,-4,7,0,0,-1,-1
35,69,37,1,95,9,2,7,2,2,1,0
36,67,38,1,80,7,-2,7,0,0,-1,-1
37,71,39,1,80,11,4,7,4,4,1,0
38,67,40,1,80,7,-4,7,0,0,-1,-1
39,62,41,1,105,2,-5,7,-5,7,-1,-2
40,67,42,1,80,7,5,7,0,0,1,-1
41,71,43,1,80,11,4,7,4,4,1,0
42,67,44,1,80,7,-4,7,0,0,-1,-1
43,69,45,1,95,9,2,7,2,2,1,0
44,67,46,1,80,7,-2,7,0,0,-1,-1
45,64,47,1,80,4,-3,7,-3,9,-1,-2
46,67,48,1,80,7,3,7,0,0,1,-1
47,62,49,1,105,2,-5,7,-5,7,-1,-2
48,67,50,1,80,7,5,7,0,0,1,-1
49,71,51,1,80,11,4,7,4,4,1,0
50,67,52,1,80,7,-4,7,0,0,-1,-1
51,69,53,1,95,9,2,7,2,2,1,0
52,67,54,1,80,7,-2,7,0,0,-1,-1
53,71,55,1,80,11,4,7,4,4,1,0
54,67,56,1,80,7,-4,7,0,0,-1,-1
55,74,57,1,105,2,7,7,7,7,1,0
56,71,58,1,80,11,-3,7,4,4,-1,-1
57,69,59,1,80,9,-2,7,2,2,-1,-2
58,71,60,1,80,11,2,7,4,4,1,-1
59,67,61,1,95,7,-4,7,0,0,-1,-2
60,64,62,1,80,4,-3,7,-3,9,-1,-3
61,62,63,1,80,2,-2,7,-5,7,-1,-4
62,76,64,1,80,4,14,7,9,9,1,-3
63,74,65,2,105,2,-2,7,7,7,-1,-4
64,71,67,1,80,11,-3,7,4,4,-1,-5
65,74,68,1,80,2,3,7,7,7,1,-4
66,76,69,1,95,4,2,7,9,9,1,-3
67,79,70,1,80,7,3,7,12,0,1,-2
68,79,71,1,80,7,0,7,12,0,0,-2
69,76,72,1,80,4,-3,7,9,9,-1,-3
70,74,73,2,105,2,-2,7,7,7,-1,-4
71,71,75,1,80,11,-3,7,4,4,-1,-5
72,67,76,1,80,7,-4,7,0,0,-1,-6
73,69,77,1,95,9,2,7,2,2,1,-5
74,67,78,1,80,7,-2,7,0,0,-1,-6
75,64,79,1,80,4,-3,7,-3,9,-1,-7
76,76,80,1,80,4,12,7,9,9,1,-6
77,74,81,2,105,2,-2,7,7,7,-1,-7
78,71,83,1,80,11,-3,7,4,4,-1,-8
79,74,84,1,80,2,3,7,7,7,1,-7
80,76,85,1,95,4,2,7,9,9,1,-6
81,79,86,1,80,7,3,7,12,0,1,-5
82,79,87,1,80,7,0,7,12,0,0,-5
83,83,88,1,80,11,4,7,16,4,1,-4
84,81,89,1,105,9,-2,7,14,2,-1,-5
85,79,90,1,80,7,-2,7,12,0,-1,-6
86,83,91,1,80,11,4,7,16,4,1,-5
87,79,92,1,80,7,-4,7,12,0,-1,-6
88,81,93,1,95,9,2,7,14,2,1,-5
89,79,94,1,80,7,-2,7,12,0,-1,-6
90,76,95,1,80,4,-3,7,9,9,-1,-7
91,79,96,1,80,7,3,7,12,0,1,-6
92,74,97,2,105,2,-5,7,7,7,-1,-7
93,71,99,1,80,11,-3,7,4,4,-1,-8
94,74,100,1,80,2,3,7,7,7,1,-7
95,76,101,1,95,4,2,7,9,9,1,-6
96,79,102,1,80,7,3,7,12,0,1,-5
97,79,103,1,80,7,0,7,12,0,0,-5
98,76,104,1,80,4,-3,7,9,9,-1,-6
99,74,105,2,105,2,-2,7,7,7,-1,-7
100,71,107,1,80,11,-3,7,4,4,-1,-8
101,67,108,1,80,7,-4,7,0,0,-1,-9
102,69,109,1,95,9,2,7,2,2,1,-8
103,67,110,1,80,7,-2,7,0,0,-1,-9
104,64,111,1,80,4,-3,7,-3,9,-1,-10
105,76,112,1,80,4,12,7,9,9,1,-9
106,74,113,2,105,2,-2,7,7,7,-1,-10
107,71,115,1,80,11,-3,7,4,4,-1,-11
108,74,116,1,80,2,3,7,7,7,1,-10
109,76,117,1,95,4,2,7,9,9,1,-9
110,79,118,1,80,7,3,7,12,0,1,-8
111,79,119,1,80,7,0,7,12,0,0,-8
112,83,120,1,80,11,4,7,16,4,1,-7
113,81,121,1,105,9,-2,7,14,2,-1,-8
114,79,122,1,80,7,-2,7,12,0,-1,-9
115,83,123,1,80,11,4,7,16,4,1,-8
116,79,124,1,80,7,-4,7,12,0,-1,-9
117,81,125,1,95,9,2,7,14,2,1,-8
118,79,126,1,80,7,-2,7,12,0,-1,-9
119,76,127,1,80,4,-3,7,9,9,-1,-10
120,74,128,1,80,2,-2,7,7,7,-1,-11
121,71,129,2,105,11,-3,7,4,4,-1,-12
122,71,131,1,80,11,0,7,4,4,0,-12
123,69,132,1,80,9,-2,7,2,2,-1,-13
124,71,133,1,95,11,2,7,4,4,1,-12
125,69,134,1,80,9,-2,7,2,2,-1,-13
126,67,135,1,80,7,-2,7,0,0,-1,-14
127,71,136,1,80,11,4,7,4,4,1,-13
128,69,137,2,105,9,-2,7,2,2,-1,-14
129,71,139,1,80,11,2,7,4,4,1,-13
130,67,140,1,80,7,-4,7,0,0,-1,-14
131,69,141,1,95,9,2,7,2,2,1,-13
132,67,142,1,80,7,-2,7,0,0,-1,-14
133,64,143,1,80,4,-3,7,-3,9,-1,-15
134,67,144,1,80,7,3,7,0,0,1,-14
135,71,145,2,105,11,4,7,4,4,1,-13
136,71,147,1,80,11,0,7,4,4,0,-13
137,69,148,1,80,9,-2,7,2,2,-1,-14
138,71,149,1,95,11,2,7,4,4,1,-13
139,69,150,1,80,9,-2,7,2,2,-1,-14
140,67,151,2,80,7,-2,7,0,0,-1,-15
141,69,153,0,105,9,2,7,2,2,1,-14
142,71,153,0,80,11,2,7,4,4,1,-13
143,72,154,0,80,0,1,7,5,5,1,-12
144,71,155,1,80,11,-1,7,4,4,-1,-13
145,67,156,1,80,7,-4,7,0,0,-1,-14
146,69,157,1,95,9,2,7,2,2,1,-13
147,67,158,1,80,7,-2,7,0,0,-1,-14
148,64,159,1,80,4,-3,7,-3,9,-1,-15
149,67,160,1,80,7,3,7,0,0,1,-14
150,71,161,2,105,11,4,7,4,4,1,-13
151,71,163,1,80,11,0,7,4,4,0,-13
152,69,164,1,80,9,-2,7,2,2,-1,-14
153,71,165,1,95,11,2,7,4,4,1,-13
154,69,166,1,80,9,-2,7,2,2,-1,-14
155,67,167,1,80,7,-2,7,0,0,-1,-15
156,71,168,1,80,11,4,7,4,4,1,-14
157,69,169,2,105,9,-2,7,2,2,-1,-15
158,71,171,1,80,11,2,7,4,4,1,-14
159,67,172,1,80,7,-4,7,0,0,-1,-15
160,69,173,1,95,9,2,7,2,2,1,-14
161,67,174,1,80,7,-2,7,0,0,-1,-15
162,64,175,1,80,4,-3,7,-3,9,-1,-16
163,67,176,1,80,7,3,7,0,0,1,-15
164,71,177,0,105,11,4,7,4,4,1,-14
165,73,177,0,80,1,2,7,6,6,1,-13
166,74,178,0,80,2,1,7,7,7,1,-12
167,76,179,1,80,4,2,7,9,9,1,-11
168,74,180,1,80,2,-2,7,7,7,-1,-12
169,71,181,1,95,11,-3,7,4,4,-1,-13
170,74,182,1,80,2,3,7,7,7,1,-12
171,76,183,1,80,4,2,7,9,9,1,-11
172,71,184,1,80,11,-5,7,4,4,-1,-12
173,69,185,2,105,9,-2,7,2,2,-1,-13
174,71,187,1,80,11,2,7,4,4,1,-12
175,67,188,1,80,7,-4,7,0,0,-1,-13
176,69,189,1,95,9,2,7,2,2,1,-12
177,67,190,1,80,7,-2,7,0,0,-1,-13
178,64,191,1,80,4,-3,7,-3,9,-1,-14
179,62,192,1,80,2,-2,7,-5,7,-1,-15
180,67,193,2,105,7,5,7,0,0,1,-14
181,67,195,1,80,7,0,7,0,0,0,-14
182,66,196,1,80,6,-1,7,-1,11,-1,-15
183,67,197,1,95,7,1,7,0,0,1,-14
184,71,198,1,80,11,4,7,4,4,1,-13
185,74,199,1,80,2,3,7,7,7,1,-12
186,71,200,1,80,11,-3,7,4,4,-1,-13
187,67,201,2,105,7,-4,7,0,0,-1,-14
188,71,203,1,80,11,4,7,4,4,1,-13
189,67,204,1,80,7,-4,7,0,0,-1,-14
190,69,205,1,95,9,2,7,2,2,1,-13
191,67,206,1,80,7,-2,7,0,0,-1,-14
192,64,207,1,80,4,-3,7,-3,9,-1,-15
193,66,208,1,80,6,2,7,-1,11,1,-14
194,67,209,2,105,7,1,7,0,0,1,-13
195,67,211,1,80,7,0,7,0,0,0,-13
196,66,212,1,80,6,-1,7,-1,11,-1,-14
197,67,213,1,95,7,1,7,0,0,1,-13
198,71,214,1,80,11,4,7,4,4,1,-12
199,74,215,1,80,2,3,7,7,7,1,-11
200,71,216,1,80,11,-3,7,4,4,-1,-12
201,69,217,2,105,9,-2,7,2,2,-1,-13
202,71,219,1,80,11,2,7,4,4,1,-12
203,67,220,1,80,7,-4,7,0,0,-1,-13
204,69,221,1,95,9,2,7,2,2,1,-12
205,67,222,1,80,7,-2,7,0,0,-1,-13
206,64,223,1,80,4,-3,7,-3,9,-1,-14
207,62,224,1,80,2,-2,7,-5,7,-1,-15
208,67,225,2,105,7,5,7,0,0,1,-14
209,67,227,1,80,7,0,7,0,0,0,-14
210,66,228,1,80,6,-1,7,-1,11,-1,-15
211,67,229,1,95,7,1,7,0,0,1,-14
212,71,230,1,80,11,4,7,4,4,1,-13
213,74,231,1,80,2,3,7,7,7,1,-12
214,71,232,1,80,11,-3,7,4,4,-1,-13
215,67,233,2,105,7,-4,7,0,0,-1,-14
216,71,235,1,80,11,4,7,4,4,1,-13
217,67,236,1,80,7,-4,7,0,0,-1,-14
218,69,237,1,95,9,2,7,2,2,1,-13
219,67,238,1,80,7,-2,7,0,0,-1,-14
220,64,239,1,80,4,-3,7,-3,9,-1,-15
221,66,240,1,80,6,2,7,-1,11,1,-14
222,67,241,2,105,7,1,7,0,0,1,-13
223,67,243,1,80,7,0,7,0,0,0,-13
224,66,244,1,80,6,-1,7,-1,11,-1,-14
225,67,245,1,95,7,1,7,0,0,1,-13
226,71,246,1,80,11,4,7,4,4,1,-12
227,74,247,1,80,2,3,7,7,7,1,-11
228,71,248,1,80,11,-3,7,4,4,-1,-12
229,69,249,2,105,9,-2,7,2,2,-1,-13
230,71,251,1,80,11,2,7,4,4,1,-12
231,67,252,1,80,7,-4,7,0,0,-1,-13
232,69,253,1,95,9,2,7,2,2,1,-12
233,67,254,1,80,7,-2,7,0,0,-1,-13
234,64,255,1,80,4,-3,7,-3,9,-1,-14
235,67,256,1,80,7,3,7,0,0,1,-13
236,71,257,2,105,11,4,7,4,4,1,-12
237,67,259,1,80,7,-4,7,0,0,-1,-13
238,74,260,1,80,2,7,7,7,7,1,-12
239,71,261,1,95,11,-3,7,4,4,-1,-13
240,74,262,1,80,2,3,7,7,7,1,-12
241,79,263,1,80,7,5,7,12,0,1,-11
242,74,264,1,80,2,-5,7,7,7,-1,-12
243,71,265,2,105,11,-3,7,4,4,-1,-13
244,67,267,1,80,7,-4,7,0,0,-1,-14
245,71,268,1,80,11,4,7,4,4,1,-13
246,69,269,1,95,9,-2,7,2,2,-1,-14
247,67,270,1,80,7,-2,7,0,0,-1,-15
248,64,271,1,80,4,-3,7,-3,9,-1,-16
249,67,272,1,80,7,3,7,0,0,1,-15
250,71,273,2,105,11,4,7,4,4,1,-14
251,67,275,1,80,7,-4,7,0,0,-1,-15
252,71,276,1,80,11,4,7,4,4,1,-14
253,67,277,1,95,7,-4,7,0,0,-1,-15
254,71,278,1,80,11,4,7,4,4,1,-14
255,67,279,1,80,7,-4,7,0,0,-1,-15
256,71,280,1,80,11,4,7,4,4,1,-14
257,69,281,2,105,9,-2,7,2,2,-1,-15
258,71,283,1,80,11,2,7,4,4,1,-14
259,67,284,1,80,7,-4,7,0,0,-1,-15
260,69,285,1,95,9,2,7,2,2,1,-14
261,67,286,1,80,7,-2,7,0,0,-1,-15
262,64,287,1,80,4,-3,7,-3,9,-1,-16
263,67,288,1,80,7,3,7,0,0,1,-15
264,71,289,2,105,11,4,7,4,4,1,-14
265,67,291,1,80,7,-4,7,0,0,-1,-15
266,74,292,1,80,2,7,7,7,7,1,-14
267,71,293,1,95,11,-3,7,4,4,-1,-15
268,74,294,1,80,2,3,7,7,7,1,-14
269,79,295,1,80,7,5,7,12,0,1,-13
270,74,296,1,80,2,-5,7,7,7,-1,-14
271,71,297,2,105,11,-3,7,4,4,-1,-15
272,67,299,1,80,7,-4,7,0,0,-1,-16
273,71,300,1,80,11,4,7,4,4,1,-15
274,69,301,1,95,9,-2,7,2,2,-1,-16
275,67,302,1,80,7,-2,7,0,0,-1,-17
276,64,303,1,80,4,-3,7,-3,9,-1,-18
277,67,304,1,80,7,3,7,0,0,1,-17
278,71,305,0,105,11,4,7,4,4,1,-16
279,73,305,0,80,1,2,7,6,6,1,-15
280,74,306,0,80,2,1,7,7,7,1,-14
281,79,307,1,80,7,5,7,12,0,1,-13
282,71,308,1,80,11,-8,7,4,4,-1,-14
283,79,309,1,95,7,8,7,12,0,1,-13
284,71,310,1,80,11,-8,7,4,4,-1,-14
285,79,311,1,80,7,8,7,12,0,1,-13
286,71,312,1,80,11,-8,7,4,4,-1,-14
287,69,313,2,105,9,-2,7,2,2,-1,-15
288,71,315,1,80,11,2,7,4,4,1,-14
289,67,316,1,80,7,-4,7,0,0,-1,-15
290,69,317,1,95,9,2,7,2,2,1,-14
291,67,318,1,80,7,-2,7,0,0,-1,-15
292,64,319,1,80,4,-3,7,-3,9,-1,-16
293,67,320,1,80,7,3,7,0,0,1,-15
