,midi_note,onset,duration,velocity,pitch_class,interval,root,relative_pitch,relative_pitch_class,parsons_code,parsons_cumsum
0,76,0,1,105,4,0,9,7,7,0,0
1,74,1,0,80,2,-2,9,5,5,-1,-1
2,72,2,2,105,0,-2,9,3,3,-1,-2
3,64,4,1,80,4,-8,9,-5,7,-1,-3
4,66,5,0,80,6,2,9,-3,9,1,-2
5,67,6,2,95,7,1,9,-2,10,1,-1
6,64,8,0,80,4,-3,9,-5,7,-1,-2
7,66,8,0,80,6,2,9,-3,9,1,-1
8,67,9,0,80,7,1,9,-2,10,1,0
9,69,10,1,105,9,2,9,0,0,1,1
10,71,11,0,80,11,2,9,2,2,1,2
11,69,12,1,80,9,-2,9,0,0,-1,1
12,67,13,0,80,7,-2,9,-2,10,-1,0
13,69,14,2,95,9,2,9,0,0,1,1
14,71,16,0,80,11,2,9,2,2,1,2
15,72,16,0,80,0,1,9,3,3,1,3
16,74,17,0,80,2,2,9,5,5,1,4
17,76,18,1,105,4,2,9,7,7,1,5
18,78,19,0,80,6,2,9,9,9,1,6
19,76,20,1,80,4,-2,9,7,7,-1,5
20,74,21,0,80,2,-2,9,5,5,-1,4
21,72,22,1,95,0,-2,9,3,3,-1,3
22,69,23,0,80,9,-3,9,0,0,-1,2
23,74,24,1,80,2,5,9,5,5,1,3
24,72,25,0,80,0,-2,9,3,3,-1,2
25,69,26,1,105,9,-3,9,0,0,-1,1
26,67,27,0,80,7,-2,9,-2,10,-1,0
27,64,28,1,80,4,-3,9,-5,7,-1,-1
28,66,29,0,80,6,2,9,-3,9,1,0
29,67,30,2,95,7,1,9,-2,10,1,1
30,64,32,0,80,4,-3,9,-5,7,-1,0
31,66,32,0,80,6,2,9,-3,9,1,1
32,67,33,0,80,7,1,9,-2,10,1,2
33,69,34,1,105,9,2,9,0,0,1,3
34,67,35,0,80,7,-2,9,-2,10,-1,2
35,69,36,1,80,9,2,9,0,0,1,3
36,71,37,0,80,11,2,9,2,2,1,4
37,72,38,1,95,0,1,9,3,3,1,5
38,71,39,0,80,11,-1,9,2,2,-1,4
39,72,40,1,80,0,1,9,3,3,1,5
40,69,41,0,80,9,-3,9,0,0,-1,4
41,74,42,1,105,2,5,9,5,5,1,5
42,72,43,0,80,0,-2,9,3,3,-1,4
43,74,44,1,80,2,2,9,5,5,1,5
44,76,45,0,80,4,2,9,7,7,1,6
45,78,46,2,95,6,2,9,9,9,1,7
46,76,48,0,80,4,-2,9,7,7,-1,6
47,78,48,0,80,6,2,9,9,9,1,7
48,79,49,0,80,7,1,9,10,10,1,8
49,81,50,1,105,9,2,9,12,0,1,9
50,79,51,0,80,7,-2,9,10,10,-1,8
51,76,52,1,80,4,-3,9,7,7,-1,7
52,74,53,0,80,2,-2,9,5,5,-1,6
53,72,54,0,95,0,-2,9,3,3,-1,5
54,74,54,0,80,2,2,9,5,5,1,6
55,76,55,0,80,4,2,9,7,7,1,7
56,74,56,1,80,2,-2,9,5,5,-1,6
57,72,57,0,80,0,-2,9,3,3,-1,5
58,69,58,2,105,9,-3,9,0,0,-1,4
59,69,60,2,80,9,0,9,0,0,0,4
60,69,62,2,95,9,0,9,0,0,0,4
61,76,64,1,80,4,7,9,7,7,1,5
62,74,65,0,80,2,-2,9,5,5,-1,4
63,72,66,2,105,0,-2,9,3,3,-1,3
64,64,68,1,80,4,-8,9,-5,7,-1,2
65,66,69,0,80,6,2,9,-3,9,1,3
66,67,70,2,95,7,1,9,-2,10,1,4
67,64,72,0,80,4,-3,9,-5,7,-1,3
68,66,72,0,80,6,2,9,-3,9,1,4
69,67,73,0,80,7,1,9,-2,10,1,5
70,69,74,1,105,9,2,9,0,0,1,6
71,71,75,0,80,11,2,9,2,2,1,7
72,69,76,1,80,9,-2,9,0,0,-1,6
73,67,77,0,80,7,-2,9,-2,10,-1,5
74,69,78,2,95,9,2,9,0,0,1,6
75,71,80,0,80,11,2,9,2,2,1,7
76,72,80,0,80,0,1,9,3,3,1,8
77,74,81,0,80,2,2,9,5,5,1,9
78,76,82,1,105,4,2,9,7,7,1,10
79,78,83,0,80,6,2,9,9,9,1,11
80,76,84,1,80,4,-2,9,7,7,-1,10
81,74,85,0,80,2,-2,9,5,5,-1,9
82,72,86,1,95,0,-2,9,3,3,-1,8
83,69,87,0,80,9,-3,9,0,0,-1,7
84,74,88,1,80,2,5,9,5,5,1,8
85,72,89,0,80,0,-2,9,3,3,-1,7
86,69,90,1,105,9,-3,9,0,0,-1,6
87,67,91,0,80,7,-2,9,-2,10,-1,5
88,64,92,1,80,4,-3,9,-5,7,-1,4
89,66,93,0,80,6,2,9,-3,9,1,5
90,67,94,2,95,7,1,9,-2,10,1,6
91,64,96,0,80,4,-3,9,-5,7,-1,5
92,66,96,0,80,6,2,9,-3,9,1,6
93,67,97,0,80,7,1,9,-2,10,1,7
94,69,98,1,105,9,2,9,0,0,1,8
95,67,99,0,80,7,-2,9,-2,10,-1,7
96,69,100,1,80,9,2,9,0,0,1,8
97,71,101,0,80,11,2,9,2,2,1,9
98,72,102,1,95,0,1,9,3,3,1,10
99,71,103,0,80,11,-1,9,2,2,-1,9
100,72,104,1,80,0,1,9,3,3,1,10
101,69,105,0,80,9,-3,9,0,0,-1,9
102,74,106,1,105,2,5,9,5,5,1,10
103,72,107,0,80,0,-2,9,3,3,-1,9
104,74,108,1,80,2,2,9,5,5,1,10
105,76,109,0,80,4,2,9,7,7,1,11
106,78,110,2,95,6,2,9,9,9,1,12
107,76,112,0,80,4,-2,9,7,7,-1,11
108,78,112,0,80,6,2,9,9,9,1,12
109,79,113,0,80,7,1,9,10,10,1,13
110,81,114,1,105,9,2,9,12,0,1,14
111,79,115,0,80,7,-2,9,10,10,-1,13
112,76,116,1,80,4,-3,9,7,7,-1,12
113,74,117,0,80,2,-2,9,5,5,-1,11
114,72,118,0,95,0,-2,9,3,3,-1,10
115,74,118,0,80,2,2,9,5,5,1,11
116,76,119,0,80,4,2,9,7,7,1,12
117,74,120,1,80,2,-2,9,5,5,-1,11
118,72,121,0,80,0,-2,9,3,3,-1,10
119,69,122,2,105,9,-3,9,0,0,-1,9
120,69,124,2,80,9,0,9,0,0,0,9
121,69,126,2,95,9,0,9,0,0,0,9
122,76,128,1,80,4,7,9,7,7,1,10
123,78,129,0,80,6,2,9,9,9,1,11
124,79,130,1,105,7,1,9,10,10,1,12
125,78,131,0,80,6,-1,9,9,9,-1,11
126,79,132,1,80,7,1,9,10,10,1,12
127,81,133,0,80,9,2,9,12,0,1,13
128,79,134,1,95,7,-2,9,10,10,-1,12
129,78,135,0,80,6,-1,9,9,9,-1,11
130,76,136,1,80,4,-2,9,7,7,-1,10
131,74,137,0,80,2,-2,9,5,5,-1,9
132,72,138,1,105,0,-2,9,3,3,-1,8
133,74,139,0,80,2,2,9,5,5,1,9
134,76,140,1,80,4,2,9,7,7,1,10
135,78,141,0,80,6,2,9,9,9,1,11
136,79,142,2,95,7,1,9,10,10,1,12
137,76,144,1,80,4,-3,9,7,7,-1,11
138,74,145,0,80,2,-2,9,5,5,-1,10
139,76,146,1,105,4,2,9,7,7,1,11
140,81,147,0,80,9,5,9,12,0,1,12
141,81,148,2,80,9,0,9,12,0,0,12
142,83,150,1,95,11,2,9,14,2,1,13
143,81,151,0,80,9,-2,9,12,0,-1,12
144,81,152,2,80,9,0,9,12,0,0,12
145,76,154,1,105,4,-5,9,7,7,-1,11
146,81,155,0,80,9,5,9,12,0,1,12
147,81,156,1,80,9,0,9,12,0,0,12
148,83,157,0,80,11,2,9,14,2,1,13
149,81,158,1,95,9,-2,9,12,0,-1,12
150,79,159,0,80,7,-2,9,10,10,-1,11
151,76,160,1,80,4,-3,9,7,7,-1,10
152,78,161,0,80,6,2,9,9,9,1,11
153,79,162,1,105,7,1,9,10,10,1,12
154,76,163,0,80,4,-3,9,7,7,-1,11
155,81,164,1,80,9,5,9,12,0,1,12
156,78,165,0,80,6,-3,9,9,9,-1,11
157,79,166,1,95,7,1,9,10,10,1,12
158,78,167,0,80,6,-1,9,9,9,-1,11
159,76,168,1,80,4,-2,9,7,7,-1,10
160,74,169,0,80,2,-2,9,5,5,-1,9
161,72,170,1,105,0,-2,9,3,3,-1,8
162,74,171,0,80,2,2,9,5,5,1,9
163,76,172,1,80,4,2,9,7,7,1,10
164,78,173,0,80,6,2,9,9,9,1,11
165,79,174,2,95,7,1,9,10,10,1,12
166,76,176,0,80,4,-3,9,7,7,-1,11
167,78,176,0,80,6,2,9,9,9,1,12
168,79,177,0,80,7,1,9,10,10,1,13
169,81,178,1,105,9,2,9,12,0,1,14
170,78,179,0,80,6,-3,9,9,9,-1,13
171,79,180,1,80,7,1,9,10,10,1,14
172,76,181,0,80,4,-3,9,7,7,-1,13
173,78,182,1,95,6,2,9,9,9,1,14
174,79,183,0,80,7,1,9,10,10,1,15
175,76,184,1,80,4,-3,9,7,7,-1,14
176,72,185,0,80,0,-4,9,3,3,-1,13
177,69,186,2,105,9,-3,9,0,0,-1,12
178,69,188,2,80,9,0,9,0,0,0,12
179,69,190,2,95,9,0,9,0,0,0,12
180,76,192,1,80,4,7,9,7,7,1,13
181,78,193,0,80,6,2,9,9,9,1,14
182,79,194,1,105,7,1,9,10,10,1,15
183,78,195,0,80,6,-1,9,9,9,-1,14
184,79,196,1,80,7,1,9,10,10,1,15
185,81,197,0,80,9,2,9,12,0,1,16
186,79,198,1,95,7,-2,9,10,10,-1,15
187,78,199,0,80,6,-1,9,9,9,-1,14
188,76,200,1,80,4,-2,9,7,7,-1,13
189,74,201,0,80,2,-2,9,5,5,-1,12
190,72,202,1,105,0,-2,9,3,3,-1,11
191,74,203,0,80,2,2,9,5,5,1,12
192,76,204,1,80,4,2,9,7,7,1,13
193,78,205,0,80,6,2,9,9,9,1,14
194,79,206,2,95,7,1,9,10,10,1,15
195,76,208,1,80,4,-3,9,7,7,-1,14
196,74,209,0,80,2,-2,9,5,5,-1,13
197,76,210,1,105,4,2,9,7,7,1,14
198,81,211,0,80,9,5,9,12,0,1,15
199,81,212,2,80,9,0,9,12,0,0,15
200,83,214,1,95,11,2,9,14,2,1,16
201,81,215,0,80,9,-2,9,12,0,-1,15
202,81,216,2,80,9,0,9,12,0,0,15
203,76,218,1,105,4,-5,9,7,7,-1,14
204,81,219,0,80,9,5,9,12,0,1,15
205,81,220,1,80,9,0,9,12,0,0,15
206,83,221,0,80,11,2,9,14,2,1,16
207,81,222,1,95,9,-2,9,12,0,-1,15
208,79,223,0,80,7,-2,9,10,10,-1,14
209,76,224,1,80,4,-3,9,7,7,-1,13
210,78,225,0,80,6,2,9,9,9,1,14
211,79,226,1,105,7,1,9,10,10,1,15
212,76,227,0,80,4,-3,9,7,7,-1,14
213,81,228,1,80,9,5,9,12,0,1,15
214,78,229,0,80,6,-3,9,9,9,-1,14
215,79,230,1,95,7,1,9,10,10,1,15
216,78,231,0,80,6,-1,9,9,9,-1,14
217,76,232,1,80,4,-2,9,7,7,-1,13
218,74,233,0,80,2,-2,9,5,5,-1,12
219,72,234,1,105,0,-2,9,3,3,-1,11
220,74,235,0,80,2,2,9,5,5,1,12
221,76,236,1,80,4,2,9,7,7,1,13
222,78,237,0,80,6,2,9,9,9,1,14
223,79,238,2,95,7,1,9,10,10,1,15
224,76,240,0,80,4,-3,9,7,7,-1,14
225,78,240,0,80,6,2,9,9,9,1,15
226,79,241,0,80,7,1,9,10,10,1,16
227,81,242,1,105,9,2,9,12,0,1,17
228,78,243,0,80,6,-3,9,9,9,-1,16
229,79,244,1,80,7,1,9,10,10,1,17
230,76,245,0,80,4,-3,9,7,7,-1,16
231,78,246,1,95,6,2,9,9,9,1,17
232,79,247,0,80,7,1,9,10,10,1,18
233,76,248,1,80,4,-3,9,7,7,-1,17
234,72,249,0,80,0,-4,9,3,3,-1,16
235,69,250,2,105,9,-3,9,0,0,-1,15
236,69,252,2,80,9,0,9,0,0,0,15
237,69,254,2,95,9,0,9,0,0,0,15
