,midi_note,onset,duration,velocity,pitch_class,interval,root,relative_pitch,relative_pitch_class,parsons_code,parsons_cumsum
0,62,0,1,105,2,0,2,0,0,0,0
1,66,1,1,80,6,4,2,4,4,1,1
2,66,2,2,80,6,0,2,4,4,0,1
3,62,4,1,95,2,-4,2,0,0,-1,0
4,67,5,1,80,7,5,2,5,5,1,1
5,67,6,2,80,7,0,2,5,5,0,1
6,62,8,1,105,2,-5,2,0,0,-1,0
7,66,9,1,80,6,4,2,4,4,1,1
8,69,10,1,80,9,3,2,7,7,1,2
9,66,11,1,80,6,-3,2,4,4,-1,1
10,67,12,1,95,7,1,2,5,5,1,2
11,64,13,1,80,4,-3,2,2,2,-1,1
12,73,14,2,80,1,9,2,11,11,1,2
13,62,16,1,105,2,-11,2,0,0,-1,1
14,66,17,1,80,6,4,2,4,4,1,2
15,66,18,2,80,6,0,2,4,4,0,2
16,69,20,1,95,9,3,2,7,7,1,3
17,71,21,1,80,11,2,2,9,9,1,4
18,74,22,1,80,2,3,2,12,0,1,5
19,76,23,1,80,4,2,2,14,2,1,6
20,78,24,1,105,6,2,2,16,4,1,7
21,74,25,1,80,2,-4,2,12,0,-1,6
22,69,26,1,80,9,-5,2,7,7,-1,5
23,62,27,1,80,2,-7,2,0,0,-1,4
24,67,28,1,95,7,5,2,5,5,1,5
25,66,29,1,80,6,-1,2,4,4,-1,4
26,64,30,2,80,4,-2,2,2,2,-1,3
27,62,32,1,105,2,-2,2,0,0,-1,2
28,66,33,1,80,6,4,2,4,4,1,3
29,66,34,2,80,6,0,2,4,4,0,3
30,62,36,1,95,2,-4,2,0,0,-1,2
31,67,37,1,80,7,5,2,5,5,1,3
32,71,38,1,80,11,4,2,9,9,1,4
33,67,39,1,80,7,-4,2,5,5,-1,3
34,62,40,1,105,2,-5,2,0,0,-1,2
35,66,41,1,80,6,4,2,4,4,1,3
36,69,42,1,80,9,3,2,7,7,1,4
37,66,43,1,80,6,-3,2,4,4,-1,3
38,67,44,1,95,7,1,2,5,5,1,4
39,64,45,1,80,4,-3,2,2,2,-1,3
40,73,46,1,80,1,9,2,11,11,1,4
41,64,47,1,80,4,-9,2,2,2,-1,3
42,62,48,1,105,2,-2,2,0,0,-1,2
43,66,49,1,80,6,4,2,4,4,1,3
44,66,50,2,80,6,0,2,4,4,0,3
45,69,52,2,95,9,3,2,7,7,1,4
46,74,54,1,80,2,5,2,12,0,1,5
47,76,55,1,80,4,2,2,14,2,1,6
48,78,56,0,105,6,2,2,16,4,1,7
49,76,56,0,80,4,-2,2,14,2,-1,6
50,74,57,0,80,2,-2,2,12,0,-1,5
51,69,58,1,80,9,-5,2,7,7,-1,4
52,67,59,1,80,7,-2,2,5,5,-1,3
53,66,60,1,95,6,-1,2,4,4,-1,2
54,62,61,1,80,2,-4,2,0,0,-1,1
55,62,62,2,80,2,0,2,0,0,0,1
56,62,64,1,105,2,0,2,0,0,0,1
57,66,65,1,80,6,4,2,4,4,1,2
58,66,66,2,80,6,0,2,4,4,0,2
59,62,68,1,95,2,-4,2,0,0,-1,1
60,67,69,1,80,7,5,2,5,5,1,2
61,67,70,2,80,7,0,2,5,5,0,2
62,62,72,1,105,2,-5,2,0,0,-1,1
63,66,73,1,80,6,4,2,4,4,1,2
64,69,74,1,80,9,3,2,7,7,1,3
65,66,75,1,80,6,-3,2,4,4,-1,2
66,67,76,1,95,7,1,2,5,5,1,3
67,64,77,1,80,4,-3,2,2,2,-1,2
68,73,78,2,80,1,9,2,11,11,1,3
69,62,80,1,105,2,-11,2,0,0,-1,2
70,66,81,1,80,6,4,2,4,4,1,3
71,66,82,2,80,6,0,2,4,4,0,3
72,69,84,1,95,9,3,2,7,7,1,4
73,71,85,1,80,11,2,2,9,9,1,5
74,74,86,1,80,2,3,2,12,0,1,6
75,76,87,1,80,4,2,2,14,2,1,7
76,78,88,1,105,6,2,2,16,4,1,8
77,74,89,1,80,2,-4,2,12,0,-1,7
78,69,90,1,80,9,-5,2,7,7,-1,6
79,62,91,1,80,2,-7,2,0,0,-1,5
80,67,92,1,95,7,5,2,5,5,1,6
81,66,93,1,80,6,-1,2,4,4,-1,5
82,64,94,2,80,4,-2,2,2,2,-1,4
83,62,96,1,105,2,-2,2,0,0,-1,3
84,66,97,1,80,6,4,2,4,4,1,4
85,66,98,2,80,6,0,2,4,4,0,4
86,62,100,1,95,2,-4,2,0,0,-1,3
87,67,101,1,80,7,5,2,5,5,1,4
88,71,102,1,80,11,4,2,9,9,1,5
89,67,103,1,80,7,-4,2,5,5,-1,4
90,62,104,1,105,2,-5,2,0,0,-1,3
91,66,105,1,80,6,4,2,4,4,1,4
92,69,106,1,80,9,3,2,7,7,1,5
93,66,107,1,80,6,-3,2,4,4,-1,4
94,67,108,1,95,7,1,2,5,5,1,5
95,64,109,1,80,4,-3,2,2,2,-1,4
96,73,110,1,80,1,9,2,11,11,1,5
97,64,111,1,80,4,-9,2,2,2,-1,4
98,62,112,1,105,2,-2,2,0,0,-1,3
99,66,113,1,80,6,4,2,4,4,1,4
100,66,114,2,80,6,0,2,4,4,0,4
101,69,116,2,95,9,3,2,7,7,1,5
102,74,118,1,80,2,5,2,12,0,1,6
103,76,119,1,80,4,2,2,14,2,1,7
104,78,120,0,105,6,2,2,16,4,1,8
105,76,120,0,80,4,-2,2,14,2,-1,7
106,74,121,0,80,2,-2,2,12,0,-1,6
107,69,122,1,80,9,-5,2,7,7,-1,5
108,67,123,1,80,7,-2,2,5,5,-1,4
109,66,124,1,95,6,-1,2,4,4,-1,3
110,62,125,1,80,2,-4,2,0,0,-1,2
111,62,126,2,80,2,0,2,0,0,0,2
112,78,128,1,105,6,16,2,16,4,1,3
113,74,129,1,80,2,-4,2,12,0,-1,2
114,69,130,1,80,9,-5,2,7,7,-1,1
115,74,131,1,80,2,5,2,12,0,1,2
116,79,132,3,95,7,5,2,17,5,1,3
117,81,135,1,80,9,2,2,19,7,1,4
118,78,136,1,105,6,-3,2,16,4,-1,3
119,81,137,1,80,9,3,2,19,7,1,4
120,81,138,1,80,9,0,2,19,7,0,4
121,78,139,1,80,6,-3,2,16,4,-1,3
122,79,140,1,95,7,1,2,17,5,1,4
123,78,141,1,80,6,-1,2,16,4,-1,3
124,76,142,1,80,4,-2,2,14,2,-1,2
125,79,143,1,80,7,3,2,17,5,1,3
126,78,144,1,105,6,-1,2,16,4,-1,2
127,81,145,1,80,9,3,2,19,7,1,3
128,81,146,1,80,9,0,2,19,7,0,3
129,78,147,1,80,6,-3,2,16,4,-1,2
130,79,148,2,95,7,1,2,17,5,1,3
131,76,150,1,80,4,-3,2,14,2,-1,2
132,79,151,1,80,7,3,2,17,5,1,3
133,78,152,1,105,6,-1,2,16,4,-1,2
134,74,153,1,80,2,-4,2,12,0,-1,1
135,69,154,1,80,9,-5,2,7,7,-1,0
136,67,155,1,80,7,-2,2,5,5,-1,-1
137,66,156,1,95,6,-1,2,4,4,-1,-2
138,69,157,1,80,9,3,2,7,7,1,-1
139,74,158,0,80,2,5,2,12,0,1,0
140,73,158,0,80,1,-1,2,11,11,-1,-1
141,74,159,0,80,2,1,2,12,0,1,0
142,78,160,1,105,6,4,2,16,4,1,1
143,74,161,1,80,2,-4,2,12,0,-1,0
144,69,162,1,80,9,-5,2,7,7,-1,-1
145,74,163,1,80,2,5,2,12,0,1,0
146,79,164,1,95,7,5,2,17,5,1,1
147,83,165,1,80,11,4,2,21,9,1,2
148,81,166,1,80,9,-2,2,19,7,-1,1
149,79,167,1,80,7,-2,2,17,5,-1,0
150,78,168,2,105,6,-1,2,16,4,-1,-1
151,81,170,1,80,9,3,2,19,7,1,0
152,78,171,1,80,6,-3,2,16,4,-1,-1
153,79,172,1,95,7,1,2,17,5,1,0
154,76,173,1,80,4,-3,2,14,2,-1,-1
155,76,174,2,80,4,0,2,14,2,0,-1
156,78,176,0,105,6,2,2,16,4,1,0
157,76,176,0,80,4,-2,2,14,2,-1,-1
158,74,177,0,80,2,-2,2,12,0,-1,-2
159,69,178,1,80,9,-5,2,7,7,-1,-3
160,66,179,1,80,6,-3,2,4,4,-1,-4
161,67,180,2,95,7,1,2,5,5,1,-3
162,76,182,1,80,4,9,2,14,2,1,-2
163,79,183,1,80,7,3,2,17,5,1,-1
164,78,184,1,105,6,-1,2,16,4,-1,-2
165,74,185,1,80,2,-4,2,12,0,-1,-3
166,69,186,1,80,9,-5,2,7,7,-1,-4
167,67,187,1,80,7,-2,2,5,5,-1,-5
168,66,188,1,95,6,-1,2,4,4,-1,-6
169,62,189,1,80,2,-4,2,0,0,-1,-7
170,62,190,2,80,2,0,2,0,0,0,-7
171,78,192,1,105,6,16,2,16,4,1,-6
172,74,193,1,80,2,-4,2,12,0,-1,-7
173,69,194,1,80,9,-5,2,7,7,-1,-8
174,74,195,1,80,2,5,2,12,0,1,-7
175,79,196,3,95,7,5,2,17,5,1,-6
176,81,199,1,80,9,2,2,19,7,1,-5
177,78,200,1,105,6,-3,2,16,4,-1,-6
178,81,201,1,80,9,3,2,19,7,1,-5
179,81,202,1,80,9,0,2,19,7,0,-5
180,78,203,1,80,6,-3,2,16,4,-1,-6
181,79,204,1,95,7,1,2,17,5,1,-5
182,78,205,1,80,6,-1,2,16,4,-1,-6
183,76,206,1,80,4,-2,2,14,2,-1,-7
184,79,207,1,80,7,3,2,17,5,1,-6
185,78,208,1,105,6,-1,2,16,4,-1,-7
186,81,209,1,80,9,3,2,19,7,1,-6
187,81,210,1,80,9,0,2,19,7,0,-6
188,78,211,1,80,6,-3,2,16,4,-1,-7
189,79,212,2,95,7,1,2,17,5,1,-6
190,76,214,1,80,4,-3,2,14,2,-1,-7
191,79,215,1,80,7,3,2,17,5,1,-6
192,78,216,1,105,6,-1,2,16,4,-1,-7
193,74,217,1,80,2,-4,2,12,0,-1,-8
194,69,218,1,80,9,-5,2,7,7,-1,-9
195,67,219,1,80,7,-2,2,5,5,-1,-10
196,66,220,1,95,6,-1,2,4,4,-1,-11
197,69,221,1,80,9,3,2,7,7,1,-10
198,74,222,0,80,2,5,2,12,0,1,-9
199,73,222,0,80,1,-1,2,11,11,-1,-10
200,74,223,0,80,2,1,2,12,0,1,-9
201,78,224,1,105,6,4,2,16,4,1,-8
202,74,225,1,80,2,-4,2,12,0,-1,-9
203,69,226,1,80,9,-5,2,7,7,-1,-10
204,74,227,1,80,2,5,2,12,0,1,-9
205,79,228,1,95,7,5,2,17,5,1,-8
206,83,229,1,80,11,4,2,21,9,1,-7
207,81,230,1,80,9,-2,2,19,7,-1,-8
208,79,231,1,80,7,-2,2,17,5,-1,-9
209,78,232,2,105,6,-1,2,16,4,-1,-10
210,81,234,1,80,9,3,2,19,7,1,-9
211,78,235,1,80,6,-3,2,16,4,-1,-10
212,79,236,1,95,7,1,2,17,5,1,-9
213,76,237,1,80,4,-3,2,14,2,-1,-10
214,76,238,2,80,4,0,2,14,2,0,-10
215,78,240,0,105,6,2,2,16,4,1,-9
216,76,240,0,80,4,-2,2,14,2,-1,-10
217,74,241,0,80,2,-2,2,12,0,-1,-11
218,69,242,1,80,9,-5,2,7,7,-1,-12
219,66,243,1,80,6,-3,2,4,4,-1,-13
220,67,244,2,95,7,1,2,5,5,1,-12
221,76,246,1,80,4,9,2,14,2,1,-11
222,79,247,1,80,7,3,2,17,5,1,-10
223,78,248,1,105,6,-1,2,16,4,-1,-11
224,74,249,1,80,2,-4,2,12,0,-1,-12
225,69,250,1,80,9,-5,2,7,7,-1,-13
226,67,251,1,80,7,-2,2,5,5,-1,-14
227,66,252,1,95,6,-1,2,4,4,-1,-15
228,69,253,1,80,9,3,2,7,7,1,-14
229,64,254,1,80,4,-5,2,2,2,-1,-15
230,66,255,1,80,6,2,2,4,4,1,-14
