,midi_note,onset,duration,velocity,pitch_class,interval,root,relative_pitch,relative_pitch_class,parsons_code,parsons_cumsum
0,74,0,1,105,2,0,9,5,5,0,0
1,71,1,0,80,11,-3,9,2,2,-1,-1
2,69,2,2,105,9,-2,9,0,0,-1,-2
3,69,4,0,80,9,0,9,0,0,0,-2
4,69,4,0,80,9,0,9,0,0,0,-2
5,69,5,0,80,9,0,9,0,0,0,-2
6,69,6,2,95,9,0,9,0,0,0,-2
7,71,8,1,80,11,2,9,2,2,1,-1
8,74,9,0,80,2,3,9,5,5,1,0
9,76,10,1,105,4,2,9,7,7,1,1
10,78,11,0,80,6,2,9,9,9,1,2
11,76,12,1,80,4,-2,9,7,7,-1,1
12,74,13,0,80,2,-2,9,5,5,-1,0
13,69,14,1,95,9,-5,9,0,0,-1,-1
14,71,15,0,80,11,2,9,2,2,1,0
15,69,16,1,80,9,-2,9,0,0,-1,-1
16,67,17,0,80,7,-2,9,-2,10,-1,-2
17,62,18,1,105,2,-5,9,-7,5,-1,-3
18,67,19,0,80,7,5,9,-2,10,1,-2
19,67,20,2,80,7,0,9,-2,10,0,-2
20,67,22,3,95,7,0,9,-2,10,0,-2
21,69,25,1,80,9,2,9,0,0,1,-1
22,71,26,1,105,11,2,9,2,2,1,0
23,69,27,0,80,9,-2,9,0,0,-1,-1
24,67,28,1,80,7,-2,9,-2,10,-1,-2
25,71,29,0,80,11,4,9,2,2,1,-1
26,74,30,1,95,2,3,9,5,5,1,0
27,71,31,0,80,11,-3,9,2,2,-1,-1
28,67,32,1,80,7,-4,9,-2,10,-1,-2
29,71,33,0,80,11,4,9,2,2,1,-1
30,69,34,0,105,9,-2,9,0,0,-1,-2
31,69,34,0,80,9,0,9,0,0,0,-2
32,69,35,0,80,9,0,9,0,0,0,-2
33,67,36,1,80,7,-2,9,-2,10,-1,-3
34,71,37,0,80,11,4,9,2,2,1,-2
35,69,38,2,95,9,-2,9,0,0,-1,-3
36,71,40,0,80,11,2,9,2,2,1,-2
37,72,40,0,80,0,1,9,3,3,1,-1
38,74,41,0,80,2,2,9,5,5,1,0
39,76,42,1,105,4,2,9,7,7,1,1
40,78,43,0,80,6,2,9,9,9,1,2
41,76,44,1,80,4,-2,9,7,7,-1,1
42,74,45,0,80,2,-2,9,5,5,-1,0
43,71,46,3,95,11,-3,9,2,2,-1,-1
44,74,49,1,80,2,3,9,5,5,1,0
45,76,50,1,105,4,2,9,7,7,1,1
46,79,51,0,80,7,3,9,10,10,1,2
47,78,52,1,80,6,-1,9,9,9,-1,1
48,81,53,0,80,9,3,9,12,0,1,2
49,79,54,1,95,7,-2,9,10,10,-1,1
50,76,55,0,80,4,-3,9,7,7,-1,0
51,74,56,1,80,2,-2,9,5,5,-1,-1
52,71,57,0,80,11,-3,9,2,2,-1,-2
53,71,58,2,105,11,0,9,2,2,0,-2
54,69,60,2,80,9,-2,9,0,0,-1,-3
55,69,62,2,95,9,0,9,0,0,0,-3
56,74,64,1,80,2,5,9,5,5,1,-2
57,71,65,0,80,11,-3,9,2,2,-1,-3
58,69,66,2,105,9,-2,9,0,0,-1,-4
59,69,68,0,80,9,0,9,0,0,0,-4
60,69,68,0,80,9,0,9,0,0,0,-4
61,69,69,0,80,9,0,9,0,0,0,-4
62,69,70,2,95,9,0,9,0,0,0,-4
63,71,72,1,80,11,2,9,2,2,1,-3
64,74,73,0,80,2,3,9,5,5,1,-2
65,76,74,1,105,4,2,9,7,7,1,-1
66,78,75,0,80,6,2,9,9,9,1,0
67,76,76,1,80,4,-2,9,7,7,-1,-1
68,74,77,0,80,2,-2,9,5,5,-1,-2
69,69,78,1,95,9,-5,9,0,0,-1,-3
70,71,79,0,80,11,2,9,2,2,1,-2
71,69,80,1,80,9,-2,9,0,0,-1,-3
72,67,81,0,80,7,-2,9,-2,10,-1,-4
73,62,82,1,105,2,-5,9,-7,5,-1,-5
74,67,83,0,80,7,5,9,-2,10,1,-4
75,67,84,2,80,7,0,9,-2,10,0,-4
76,67,86,3,95,7,0,9,-2,10,0,-4
77,69,89,1,80,9,2,9,0,0,1,-3
78,71,90,1,105,11,2,9,2,2,1,-2
79,69,91,0,80,9,-2,9,0,0,-1,-3
80,67,92,1,80,7,-2,9,-2,10,-1,-4
81,71,93,0,80,11,4,9,2,2,1,-3
82,74,94,1,95,2,3,9,5,5,1,-2
83,71,95,0,80,11,-3,9,2,2,-1,-3
84,67,96,1,80,7,-4,9,-2,10,-1,-4
85,71,97,0,80,11,4,9,2,2,1,-3
86,69,98,0,105,9,-2,9,0,0,-1,-4
87,69,98,0,80,9,0,9,0,0,0,-4
88,69,99,0,80,9,0,9,0,0,0,-4
89,67,100,1,80,7,-2,9,-2,10,-1,-5
90,71,101,0,80,11,4,9,2,2,1,-4
91,69,102,2,95,9,-2,9,0,0,-1,-5
92,71,104,0,80,11,2,9,2,2,1,-4
93,72,104,0,80,0,1,9,3,3,1,-3
94,74,105,0,80,2,2,9,5,5,1,-2
95,76,106,1,105,4,2,9,7,7,1,-1
96,78,107,0,80,6,2,9,9,9,1,0
97,76,108,1,80,4,-2,9,7,7,-1,-1
98,74,109,0,80,2,-2,9,5,5,-1,-2
99,71,110,3,95,11,-3,9,2,2,-1,-3
100,74,113,1,80,2,3,9,5,5,1,-2
101,76,114,1,105,4,2,9,7,7,1,-1
102,79,115,0,80,7,3,9,10,10,1,0
103,78,116,1,80,6,-1,9,9,9,-1,-1
104,81,117,0,80,9,3,9,12,0,1,0
105,79,118,1,95,7,-2,9,10,10,-1,-1
106,76,119,0,80,4,-3,9,7,7,-1,-2
107,74,120,1,80,2,-2,9,5,5,-1,-3
108,71,121,0,80,11,-3,9,2,2,-1,-4
109,71,122,2,105,11,0,9,2,2,0,-4
110,69,124,2,80,9,-2,9,0,0,-1,-5
111,69,126,2,95,9,0,9,0,0,0,-5
112,69,128,1,80,9,0,9,0,0,0,-5
113,71,129,0,80,11,2,9,2,2,1,-4
114,72,130,2,105,0,1,9,3,3,1,-3
115,72,132,1,80,0,0,9,3,3,0,-3
116,74,133,0,80,2,2,9,5,5,1,-2
117,72,134,2,95,0,-2,9,3,3,-1,-3
118,67,136,2,80,7,-5,9,-2,10,-1,-4
119,72,138,3,105,0,5,9,3,3,1,-3
120,76,141,1,80,4,4,9,7,7,1,-2
121,79,142,1,95,7,3,9,10,10,1,-1
122,76,143,0,80,4,-3,9,7,7,-1,-2
123,74,144,1,80,2,-2,9,5,5,-1,-3
124,71,145,0,80,11,-3,9,2,2,-1,-4
125,72,146,1,105,0,1,9,3,3,1,-3
126,71,147,0,80,11,-1,9,2,2,-1,-4
127,69,148,1,80,9,-2,9,0,0,-1,-5
128,71,149,0,80,11,2,9,2,2,1,-4
129,76,150,1,95,4,5,9,7,7,1,-3
130,72,151,0,80,0,-4,9,3,3,-1,-4
131,74,152,1,80,2,2,9,5,5,1,-3
132,71,153,0,80,11,-3,9,2,2,-1,-4
133,71,154,2,105,11,0,9,2,2,0,-4
134,76,156,1,80,4,5,9,7,7,1,-3
135,71,157,0,80,11,-5,9,2,2,-1,-4
136,74,158,1,95,2,3,9,5,5,1,-3
137,71,159,0,80,11,-3,9,2,2,-1,-4
138,67,160,1,80,7,-4,9,-2,10,-1,-5
139,71,161,0,80,11,4,9,2,2,1,-4
140,72,162,1,105,0,1,9,3,3,1,-3
141,71,163,0,80,11,-1,9,2,2,-1,-4
142,72,164,1,80,0,1,9,3,3,1,-3
143,74,165,0,80,2,2,9,5,5,1,-2
144,72,166,2,95,0,-2,9,3,3,-1,-3
145,67,168,2,80,7,-5,9,-2,10,-1,-4
146,72,170,3,105,0,5,9,3,3,1,-3
147,76,173,1,80,4,4,9,7,7,1,-2
148,79,174,1,95,7,3,9,10,10,1,-1
149,76,175,0,80,4,-3,9,7,7,-1,-2
150,74,176,1,80,2,-2,9,5,5,-1,-3
151,79,177,0,80,7,5,9,10,10,1,-2
152,76,178,1,105,4,-3,9,7,7,-1,-3
153,81,179,0,80,9,5,9,12,0,1,-2
154,81,180,1,80,9,0,9,12,0,0,-2
155,77,181,0,80,5,-4,9,8,8,-1,-3
156,76,182,0,95,4,-1,9,7,7,-1,-4
157,78,182,0,80,6,2,9,9,9,1,-3
158,79,183,0,80,7,1,9,10,10,1,-2
159,76,184,1,80,4,-3,9,7,7,-1,-3
160,74,185,0,80,2,-2,9,5,5,-1,-4
161,71,186,2,105,11,-3,9,2,2,-1,-5
162,69,188,1,80,9,-2,9,0,0,-1,-6
163,71,189,0,80,11,2,9,2,2,1,-5
164,69,190,2,95,9,-2,9,0,0,-1,-6
165,69,192,1,80,9,0,9,0,0,0,-6
166,71,193,0,80,11,2,9,2,2,1,-5
167,72,194,2,105,0,1,9,3,3,1,-4
168,72,196,1,80,0,0,9,3,3,0,-4
169,74,197,0,80,2,2,9,5,5,1,-3
170,72,198,2,95,0,-2,9,3,3,-1,-4
171,67,200,2,80,7,-5,9,-2,10,-1,-5
172,72,202,3,105,0,5,9,3,3,1,-4
173,76,205,1,80,4,4,9,7,7,1,-3
174,79,206,1,95,7,3,9,10,10,1,-2
175,76,207,0,80,4,-3,9,7,7,-1,-3
176,74,208,1,80,2,-2,9,5,5,-1,-4
177,71,209,0,80,11,-3,9,2,2,-1,-5
178,72,210,1,105,0,1,9,3,3,1,-4
179,71,211,0,80,11,-1,9,2,2,-1,-5
180,69,212,1,80,9,-2,9,0,0,-1,-6
181,71,213,0,80,11,2,9,2,2,1,-5
182,76,214,1,95,4,5,9,7,7,1,-4
183,72,215,0,80,0,-4,9,3,3,-1,-5
184,74,216,1,80,2,2,9,5,5,1,-4
185,71,217,0,80,11,-3,9,2,2,-1,-5
186,71,218,2,105,11,0,9,2,2,0,-5
187,76,220,1,80,4,5,9,7,7,1,-4
188,71,221,0,80,11,-5,9,2,2,-1,-5
189,74,222,1,95,2,3,9,5,5,1,-4
190,71,223,0,80,11,-3,9,2,2,-1,-5
191,67,224,1,80,7,-4,9,-2,10,-1,-6
192,71,225,0,80,11,4,9,2,2,1,-5
193,72,226,1,105,0,1,9,3,3,1,-4
194,71,227,0,80,11,-1,9,2,2,-1,-5
195,72,228,1,80,0,1,9,3,3,1,-4
196,74,229,0,80,2,2,9,5,5,1,-3
197,72,230,2,95,0,-2,9,3,3,-1,-4
198,67,232,2,80,7,-5,9,-2,10,-1,-5
199,72,234,3,105,0,5,9,3,3,1,-4
200,76,237,1,80,4,4,9,7,7,1,-3
201,79,238,1,95,7,3,9,10,10,1,-2
202,76,239,0,80,4,-3,9,7,7,-1,-3
203,74,240,1,80,2,-2,9,5,5,-1,-4
204,79,241,0,80,7,5,9,10,10,1,-3
205,76,242,1,105,4,-3,9,7,7,-1,-4
206,81,243,0,80,9,5,9,12,0,1,-3
207,81,244,1,80,9,0,9,12,0,0,-3
208,77,245,0,80,5,-4,9,8,8,-1,-4
209,76,246,0,95,4,-1,9,7,7,-1,-5
210,78,246,0,80,6,2,9,9,9,1,-4
211,79,247,0,80,7,1,9,10,10,1,-3
212,76,248,1,80,4,-3,9,7,7,-1,-4
213,74,249,0,80,2,-2,9,5,5,-1,-5
214,71,250,2,105,11,-3,9,2,2,-1,-6
215,69,252,1,80,9,-2,9,0,0,-1,-7
216,71,253,0,80,11,2,9,2,2,1,-6
217,69,254,3,95,9,-2,9,0,0,-1,-7
218,71,257,1,80,11,2,9,2,2,1,-6
219,72,258,2,105,0,1,9,3,3,1,-5
220,72,260,1,80,0,0,9,3,3,0,-5
221,71,261,0,80,11,-1,9,2,2,-1,-6
222,69,262,1,95,9,-2,9,0,0,-1,-7
223,71,263,0,80,11,2,9,2,2,1,-6
224,69,264,1,80,9,-2,9,0,0,-1,-7
225,67,265,0,80,7,-2,9,-2,10,-1,-8
226,69,266,1,105,9,2,9,0,0,1,-7
227,71,267,0,80,11,2,9,2,2,1,-6
228,72,268,1,80,0,1,9,3,3,1,-5
229,74,269,0,80,2,2,9,5,5,1,-4
230,76,270,1,95,4,2,9,7,7,1,-3
231,72,271,0,80,0,-4,9,3,3,-1,-4
232,74,272,1,80,2,2,9,5,5,1,-3
233,72,273,0,80,0,-2,9,3,3,-1,-4
234,71,274,1,105,11,-1,9,2,2,-1,-5
235,67,275,0,80,7,-4,9,-2,10,-1,-6
236,69,276,0,80,9,2,9,0,0,1,-5
237,67,276,1,80,7,-2,9,-2,10,-1,-6
238,62,278,1,95,2,-5,9,-7,5,-1,-7
239,67,279,0,80,7,5,9,-2,10,1,-6
240,69,280,0,80,9,2,9,0,0,1,-5
241,67,280,1,80,7,-2,9,-2,10,-1,-6
242,72,282,1,105,0,5,9,3,3,1,-5
243,74,283,0,80,2,2,9,5,5,1,-4
244,76,284,1,80,4,2,9,7,7,1,-3
245,72,285,0,80,0,-4,9,3,3,-1,-4
246,74,286,1,95,2,2,9,5,5,1,-3
247,71,287,0,80,11,-3,9,2,2,-1,-4
248,67,288,1,80,7,-4,9,-2,10,-1,-5
249,71,289,0,80,11,4,9,2,2,1,-4
250,72,290,1,105,0,1,9,3,3,1,-3
251,71,291,0,80,11,-1,9,2,2,-1,-4
252,72,292,1,80,0,1,9,3,3,1,-3
253,71,293,0,80,11,-1,9,2,2,-1,-4
254,69,294,1,95,9,-2,9,0,0,-1,-5
255,71,295,0,80,11,2,9,2,2,1,-4
256,69,296,1,80,9,-2,9,0,0,-1,-5
257,67,297,0,80,7,-2,9,-2,10,-1,-6
258,69,298,1,105,9,2,9,0,0,1,-5
259,71,299,0,80,11,2,9,2,2,1,-4
260,72,300,1,80,0,1,9,3,3,1,-3
261,74,301,0,80,2,2,9,5,5,1,-2
262,76,302,1,95,4,2,9,7,7,1,-1
263,72,303,0,80,0,-4,9,3,3,-1,-2
264,74,304,2,80,2,2,9,5,5,1,-1
265,76,306,0,105,4,2,9,7,7,1,0
266,78,306,0,80,6,2,9,9,9,1,1
267,79,307,0,80,7,1,9,10,10,1,2
268,78,308,1,80,6,-1,9,9,9,-1,1
269,81,309,0,80,9,3,9,12,0,1,2
270,79,310,1,95,7,-2,9,10,10,-1,1
271,76,311,0,80,4,-3,9,7,7,-1,0
272,74,312,1,80,2,-2,9,5,5,-1,-1
273,72,313,0,80,0,-2,9,3,3,-1,-2
274,71,314,2,105,11,-1,9,2,2,-1,-3
275,69,316,1,80,9,-2,9,0,0,-1,-4
276,71,317,0,80,11,2,9,2,2,1,-3
277,69,318,3,95,9,-2,9,0,0,-1,-4
278,71,321,1,80,11,2,9,2,2,1,-3
279,72,322,2,105,0,1,9,3,3,1,-2
280,72,324,1,80,0,0,9,3,3,0,-2
281,71,325,0,80,11,-1,9,2,2,-1,-3
282,69,326,1,95,9,-2,9,0,0,-1,-4
283,71,327,0,80,11,2,9,2,2,1,-3
284,69,328,1,80,9,-2,9,0,0,-1,-4
285,67,329,0,80,7,-2,9,-2,10,-1,-5
286,69,330,1,105,9,2,9,0,0,1,-4
287,71,331,0,80,11,2,9,2,2,1,-3
288,72,332,1,80,0,1,9,3,3,1,-2
289,74,333,0,80,2,2,9,5,5,1,-1
290,76,334,1,95,4,2,9,7,7,1,0
291,72,335,0,80,0,-4,9,3,3,-1,-1
292,74,336,1,80,2,2,9,5,5,1,0
293,72,337,0,80,0,-2,9,3,3,-1,-1
294,71,338,1,105,11,-1,9,2,2,-1,-2
295,67,339,0,80,7,-4,9,-2,10,-1,-3
296,69,340,0,80,9,2,9,0,0,1,-2
297,67,340,1,80,7,-2,9,-2,10,-1,-3
298,62,342,1,95,2,-5,9,-7,5,-1,-4
299,67,343,0,80,7,5,9,-2,10,1,-3
300,69,344,0,80,9,2,9,0,0,1,-2
301,67,344,1,80,7,-2,9,-2,10,-1,-3
302,72,346,1,105,0,5,9,3,3,1,-2
303,74,347,0,80,2,2,9,5,5,1,-1
304,76,348,1,80,4,2,9,7,7,1,0
305,72,349,0,80,0,-4,9,3,3,-1,-1
306,74,350,1,95,2,2,9,5,5,1,0
307,71,351,0,80,11,-3,9,2,2,-1,-1
308,67,352,1,80,7,-4,9,-2,10,-1,-2
309,71,353,0,80,11,4,9,2,2,1,-1
310,72,354,1,105,0,1,9,3,3,1,0
311,71,355,0,80,11,-1,9,2,2,-1,-1
312,72,356,1,80,0,1,9,3,3,1,0
313,71,357,0,80,11,-1,9,2,2,-1,-1
314,69,358,1,95,9,-2,9,0,0,-1,-2
315,71,359,0,80,11,2,9,2,2,1,-1
316,69,360,1,80,9,-2,9,0,0,-1,-2
317,67,361,0,80,7,-2,9,-2,10,-1,-3
318,69,362,1,105,9,2,9,0,0,1,-2
319,71,363,0,80,11,2,9,2,2,1,-1
320,72,364,1,80,0,1,9,3,3,1,0
321,74,365,0,80,2,2,9,5,5,1,1
322,76,366,1,95,4,2,9,7,7,1,2
323,72,367,0,80,0,-4,9,3,3,-1,1
324,74,368,2,80,2,2,9,5,5,1,2
325,76,370,0,105,4,2,9,7,7,1,3
326,78,370,0,80,6,2,9,9,9,1,4
327,79,371,0,80,7,1,9,10,10,1,5
328,78,372,1,80,6,-1,9,9,9,-1,4
329,81,373,0,80,9,3,9,12,0,1,5
330,79,374,1,95,7,-2,9,10,10,-1,4
331,76,375,0,80,4,-3,9,7,7,-1,3
332,74,376,1,80,2,-2,9,5,5,-1,2
333,72,377,0,80,0,-2,9,3,3,-1,1
334,71,378,2,105,11,-1,9,2,2,-1,0
335,69,380,1,80,9,-2,9,0,0,-1,-1
336,71,381,0,80,11,2,9,2,2,1,0
337,69,382,2,95,9,-2,9,0,0,-1,-1
338,71,384,0,80,11,2,9,2,2,1,0
339,72,384,0,80,0,1,9,3,3,1,1
340,74,385,0,80,2,2,9,5,5,1,2
341,76,386,2,105,4,2,9,7,7,1,3
342,81,388,1,80,9,5,9,12,0,1,4
343,79,389,0,80,7,-2,9,10,10,-1,3
344,81,390,2,95,9,2,9,12,0,1,4
345,79,392,1,80,7,-2,9,10,10,-1,3
346,81,393,0,80,9,2,9,12,0,1,4
347,83,394,1,105,11,2,9,14,2,1,5
348,79,395,0,80,7,-4,9,10,10,-1,4
349,81,396,1,80,9,2,9,12,0,1,5
350,78,397,0,80,6,-3,9,9,9,-1,4
351,79,398,1,95,7,1,9,10,10,1,5
352,76,399,0,80,4,-3,9,7,7,-1,4
353,74,400,1,80,2,-2,9,5,5,-1,3
354,71,401,0,80,11,-3,9,2,2,-1,2
355,74,402,3,105,2,3,9,5,5,1,3
356,76,405,1,80,4,2,9,7,7,1,4
357,79,406,3,95,7,3,9,10,10,1,5
358,81,409,1,80,9,2,9,12,0,1,6
359,83,410,1,105,11,2,9,14,2,1,7
360,79,411,0,80,7,-4,9,10,10,-1,6
361,81,412,1,80,9,2,9,12,0,1,7
362,78,413,0,80,6,-3,9,9,9,-1,6
363,79,414,1,95,7,1,9,10,10,1,7
364,76,415,0,80,4,-3,9,7,7,-1,6
365,74,416,1,80,2,-2,9,5,5,-1,5
366,79,417,0,80,7,5,9,10,10,1,6
367,76,418,1,105,4,-3,9,7,7,-1,5
368,81,419,0,80,9,5,9,12,0,1,6
369,81,420,1,80,9,0,9,12,0,0,6
370,79,421,0,80,7,-2,9,10,10,-1,5
371,76,422,1,95,4,-3,9,7,7,-1,4
372,81,423,0,80,9,5,9,12,0,1,5
373,81,424,2,80,9,0,9,12,0,0,5
374,83,426,1,105,11,2,9,14,2,1,6
375,79,427,0,80,7,-4,9,10,10,-1,5
376,81,428,1,80,9,2,9,12,0,1,6
377,78,429,0,80,6,-3,9,9,9,-1,5
378,79,430,1,95,7,1,9,10,10,1,6
379,76,431,0,80,4,-3,9,7,7,-1,5
380,74,432,1,80,2,-2,9,5,5,-1,4
381,71,433,0,80,11,-3,9,2,2,-1,3
382,74,434,2,105,2,3,9,5,5,1,4
383,76,436,0,80,4,2,9,7,7,1,5
384,78,436,0,80,6,2,9,9,9,1,6
385,79,437,0,80,7,1,9,10,10,1,7
386,78,438,1,95,6,-1,9,9,9,-1,6
387,74,439,0,80,2,-4,9,5,5,-1,5
388,76,440,1,80,4,2,9,7,7,1,6
389,74,441,0,80,2,-2,9,5,5,-1,5
390,71,442,0,105,11,-3,9,2,2,-1,4
391,72,442,0,80,0,1,9,3,3,1,5
392,71,443,0,80,11,-1,9,2,2,-1,4
393,69,444,2,80,9,-2,9,0,0,-1,3
394,69,446,2,95,9,0,9,0,0,0,3
395,71,448,0,80,11,2,9,2,2,1,4
396,72,448,0,80,0,1,9,3,3,1,5
397,74,449,0,80,2,2,9,5,5,1,6
398,76,450,2,105,4,2,9,7,7,1,7
399,81,452,1,80,9,5,9,12,0,1,8
400,79,453,0,80,7,-2,9,10,10,-1,7
401,81,454,2,95,9,2,9,12,0,1,8
402,79,456,1,80,7,-2,9,10,10,-1,7
403,81,457,0,80,9,2,9,12,0,1,8
404,83,458,1,105,11,2,9,14,2,1,9
405,79,459,0,80,7,-4,9,10,10,-1,8
406,81,460,1,80,9,2,9,12,0,1,9
407,78,461,0,80,6,-3,9,9,9,-1,8
408,79,462,1,95,7,1,9,10,10,1,9
409,76,463,0,80,4,-3,9,7,7,-1,8
410,74,464,1,80,2,-2,9,5,5,-1,7
411,71,465,0,80,11,-3,9,2,2,-1,6
412,74,466,3,105,2,3,9,5,5,1,7
413,76,469,1,80,4,2,9,7,7,1,8
414,79,470,3,95,7,3,9,10,10,1,9
415,81,473,1,80,9,2,9,12,0,1,10
416,83,474,1,105,11,2,9,14,2,1,11
417,79,475,0,80,7,-4,9,10,10,-1,10
418,81,476,1,80,9,2,9,12,0,1,11
419,78,477,0,80,6,-3,9,9,9,-1,10
420,79,478,1,95,7,1,9,10,10,1,11
421,76,479,0,80,4,-3,9,7,7,-1,10
422,74,480,1,80,2,-2,9,5,5,-1,9
423,79,481,0,80,7,5,9,10,10,1,10
424,76,482,1,105,4,-3,9,7,7,-1,9
425,81,483,0,80,9,5,9,12,0,1,10
426,81,484,1,80,9,0,9,12,0,0,10
427,79,485,0,80,7,-2,9,10,10,-1,9
428,76,486,1,95,4,-3,9,7,7,-1,8
429,81,487,0,80,9,5,9,12,0,1,9
430,81,488,2,80,9,0,9,12,0,0,9
431,83,490,1,105,11,2,9,14,2,1,10
432,79,491,0,80,7,-4,9,10,10,-1,9
433,81,492,1,80,9,2,9,12,0,1,10
434,78,493,0,80,6,-3,9,9,9,-1,9
435,79,494,1,95,7,1,9,10,10,1,10
436,76,495,0,80,4,-3,9,7,7,-1,9
437,74,496,1,80,2,-2,9,5,5,-1,8
438,71,497,0,80,11,-3,9,2,2,-1,7
439,74,498,2,105,2,3,9,5,5,1,8
440,76,500,0,80,4,2,9,7,7,1,9
441,78,500,0,80,6,2,9,9,9,1,10
442,79,501,0,80,7,1,9,10,10,1,11
443,78,502,1,95,6,-1,9,9,9,-1,10
444,74,503,0,80,2,-4,9,5,5,-1,9
445,76,504,1,80,4,2,9,7,7,1,10
446,74,505,0,80,2,-2,9,5,5,-1,9
447,71,506,0,105,11,-3,9,2,2,-1,8
448,72,506,0,80,0,1,9,3,3,1,9
449,71,507,0,80,11,-1,9,2,2,-1,8
450,69,508,2,80,9,-2,9,0,0,-1,7
451,69,510,2,95,9,0,9,0,0,0,7
452,71,512,0,80,11,2,9,2,2,1,8
453,73,512,0,80,1,2,9,4,4,1,9
454,74,513,0,80,2,1,9,5,5,1,10
455,76,514,2,105,4,2,9,7,7,1,11
456,76,516,1,80,4,0,9,7,7,0,11
457,79,517,0,80,7,3,9,10,10,1,12
458,78,518,1,95,6,-1,9,9,9,-1,11
459,76,519,0,80,4,-2,9,7,7,-1,10
460,74,520,1,80,2,-2,9,5,5,-1,9
461,78,521,0,80,6,4,9,9,9,1,10
462,76,522,1,105,4,-2,9,7,7,-1,9
463,81,523,0,80,9,5,9,12,0,1,10
464,81,524,1,80,9,0,9,12,0,0,10
465,76,525,0,80,4,-5,9,7,7,-1,9
466,78,526,1,95,6,2,9,9,9,1,10
467,76,527,0,80,4,-2,9,7,7,-1,9
468,74,528,1,80,2,-2,9,5,5,-1,8
469,71,529,0,80,11,-3,9,2,2,-1,7
470,74,530,2,105,2,3,9,5,5,1,8
471,74,532,0,80,2,0,9,5,5,0,8
472,74,532,0,80,2,0,9,5,5,0,8
473,74,533,0,80,2,0,9,5,5,0,8
474,74,534,1,95,2,0,9,5,5,0,8
475,71,535,0,80,11,-3,9,2,2,-1,7
476,69,536,1,80,9,-2,9,0,0,-1,6
477,71,537,0,80,11,2,9,2,2,1,7
478,74,538,2,105,2,3,9,5,5,1,8
479,78,540,1,80,6,4,9,9,9,1,9
480,74,541,0,80,2,-4,9,5,5,-1,8
481,76,542,1,95,4,2,9,7,7,1,9
482,74,543,0,80,2,-2,9,5,5,-1,8
483,71,544,0,80,11,-3,9,2,2,-1,7
484,73,544,0,80,1,2,9,4,4,1,8
485,74,545,0,80,2,1,9,5,5,1,9
486,76,546,2,105,4,2,9,7,7,1,10
487,76,548,1,80,4,0,9,7,7,0,10
488,79,549,0,80,7,3,9,10,10,1,11
489,78,550,1,95,6,-1,9,9,9,-1,10
490,76,551,0,80,4,-2,9,7,7,-1,9
491,74,552,1,80,2,-2,9,5,5,-1,8
492,78,553,0,80,6,4,9,9,9,1,9
493,76,554,1,105,4,-2,9,7,7,-1,8
494,81,555,0,80,9,5,9,12,0,1,9
495,81,556,1,80,9,0,9,12,0,0,9
496,76,557,0,80,4,-5,9,7,7,-1,8
497,78,558,1,95,6,2,9,9,9,1,9
498,76,559,0,80,4,-2,9,7,7,-1,8
499,74,560,1,80,2,-2,9,5,5,-1,7
500,71,561,0,80,11,-3,9,2,2,-1,6
501,69,562,2,105,9,-2,9,0,0,-1,5
502,71,564,0,80,11,2,9,2,2,1,6
503,73,564,0,80,1,2,9,4,4,1,7
504,74,565,0,80,2,1,9,5,5,1,8
505,76,566,1,95,4,2,9,7,7,1,9
506,74,567,0,80,2,-2,9,5,5,-1,8
507,78,568,1,80,6,4,9,9,9,1,9
508,74,569,0,80,2,-4,9,5,5,-1,8
509,71,570,2,105,11,-3,9,2,2,-1,7
510,69,572,2,80,9,-2,9,0,0,-1,6
511,69,574,2,95,9,0,9,0,0,0,6
512,71,576,0,80,11,2,9,2,2,1,7
513,73,576,0,80,1,2,9,4,4,1,8
514,74,577,0,80,2,1,9,5,5,1,9
515,76,578,2,105,4,2,9,7,7,1,10
516,76,580,1,80,4,0,9,7,7,0,10
517,79,581,0,80,7,3,9,10,10,1,11
518,78,582,1,95,6,-1,9,9,9,-1,10
519,76,583,0,80,4,-2,9,7,7,-1,9
520,74,584,1,80,2,-2,9,5,5,-1,8
521,78,585,0,80,6,4,9,9,9,1,9
522,76,586,1,105,4,-2,9,7,7,-1,8
523,81,587,0,80,9,5,9,12,0,1,9
524,81,588,1,80,9,0,9,12,0,0,9
525,76,589,0,80,4,-5,9,7,7,-1,8
526,78,590,1,95,6,2,9,9,9,1,9
527,76,591,0,80,4,-2,9,7,7,-1,8
528,74,592,1,80,2,-2,9,5,5,-1,7
529,71,593,0,80,11,-3,9,2,2,-1,6
530,74,594,2,105,2,3,9,5,5,1,7
531,74,596,0,80,2,0,9,5,5,0,7
532,74,596,0,80,2,0,9,5,5,0,7
533,74,597,0,80,2,0,9,5,5,0,7
534,74,598,1,95,2,0,9,5,5,0,7
535,71,599,0,80,11,-3,9,2,2,-1,6
536,69,600,1,80,9,-2,9,0,0,-1,5
537,71,601,0,80,11,2,9,2,2,1,6
538,74,602,2,105,2,3,9,5,5,1,7
539,78,604,1,80,6,4,9,9,9,1,8
540,74,605,0,80,2,-4,9,5,5,-1,7
541,76,606,1,95,4,2,9,7,7,1,8
542,74,607,0,80,2,-2,9,5,5,-1,7
543,71,608,0,80,11,-3,9,2,2,-1,6
544,73,608,0,80,1,2,9,4,4,1,7
545,74,609,0,80,2,1,9,5,5,1,8
546,76,610,2,105,4,2,9,7,7,1,9
547,76,612,1,80,4,0,9,7,7,0,9
548,79,613,0,80,7,3,9,10,10,1,10
549,78,614,1,95,6,-1,9,9,9,-1,9
550,76,615,0,80,4,-2,9,7,7,-1,8
551,74,616,1,80,2,-2,9,5,5,-1,7
552,78,617,0,80,6,4,9,9,9,1,8
553,76,618,1,105,4,-2,9,7,7,-1,7
554,81,619,0,80,9,5,9,12,0,1,8
555,81,620,1,80,9,0,9,12,0,0,8
556,76,621,0,80,4,-5,9,7,7,-1,7
557,78,622,1,95,6,2,9,9,9,1,8
558,76,623,0,80,4,-2,9,7,7,-1,7
559,74,624,1,80,2,-2,9,5,5,-1,6
560,71,625,0,80,11,-3,9,2,2,-1,5
561,69,626,2,105,9,-2,9,0,0,-1,4
562,71,628,0,80,11,2,9,2,2,1,5
563,73,628,0,80,1,2,9,4,4,1,6
564,74,629,0,80,2,1,9,5,5,1,7
565,76,630,1,95,4,2,9,7,7,1,8
566,74,631,0,80,2,-2,9,5,5,-1,7
567,78,632,1,80,6,4,9,9,9,1,8
568,74,633,0,80,2,-4,9,5,5,-1,7
569,71,634,2,105,11,-3,9,2,2,-1,6
570,69,636,2,80,9,-2,9,0,0,-1,5
571,69,638,2,95,9,0,9,0,0,0,5
572,76,640,0,80,4,7,9,7,7,1,6
573,78,640,0,80,6,2,9,9,9,1,7
574,79,641,0,80,7,1,9,10,10,1,8
575,81,642,2,105,9,2,9,12,0,1,9
576,76,644,2,80,4,-5,9,7,7,-1,8
577,76,646,1,95,4,0,9,7,7,0,8
578,78,647,0,80,6,2,9,9,9,1,9
579,79,648,1,80,7,1,9,10,10,1,10
580,76,649,0,80,4,-3,9,7,7,-1,9
581,81,650,2,105,9,5,9,12,0,1,10
582,76,652,1,80,4,-5,9,7,7,-1,9
583,74,653,0,80,2,-2,9,5,5,-1,8
584,76,654,2,95,4,2,9,7,7,1,9
585,81,656,1,80,9,5,9,12,0,1,10
586,79,657,0,80,7,-2,9,10,10,-1,9
587,78,658,2,105,6,-1,9,9,9,-1,8
588,74,660,2,80,2,-4,9,5,5,-1,7
589,74,662,3,95,2,0,9,5,5,0,7
590,76,665,1,80,4,2,9,7,7,1,8
591,78,666,2,105,6,2,9,9,9,1,9
592,74,668,1,80,2,-4,9,5,5,-1,8
593,73,669,0,80,1,-1,9,4,4,-1,7
594,74,670,1,95,2,1,9,5,5,1,8
595,76,671,0,80,4,2,9,7,7,1,9
596,78,672,1,80,6,2,9,9,9,1,10
597,74,673,0,80,2,-4,9,5,5,-1,9
598,81,674,2,105,9,7,9,12,0,1,10
599,76,676,2,80,4,-5,9,7,7,-1,9
600,78,678,1,95,6,2,9,9,9,1,10
601,76,679,0,80,4,-2,9,7,7,-1,9
602,74,680,1,80,2,-2,9,5,5,-1,8
603,78,681,0,80,6,4,9,9,9,1,9
604,76,682,1,105,4,-2,9,7,7,-1,8
605,81,683,0,80,9,5,9,12,0,1,9
606,81,684,1,80,9,0,9,12,0,0,9
607,76,685,0,80,4,-5,9,7,7,-1,8
608,78,686,1,95,6,2,9,9,9,1,9
609,76,687,0,80,4,-2,9,7,7,-1,8
610,74,688,1,80,2,-2,9,5,5,-1,7
611,71,689,0,80,11,-3,9,2,2,-1,6
612,69,690,2,105,9,-2,9,0,0,-1,5
613,71,692,0,80,11,2,9,2,2,1,6
614,73,692,0,80,1,2,9,4,4,1,7
615,74,693,0,80,2,1,9,5,5,1,8
616,76,694,1,95,4,2,9,7,7,1,9
617,74,695,0,80,2,-2,9,5,5,-1,8
618,78,696,1,80,6,4,9,9,9,1,9
619,74,697,0,80,2,-4,9,5,5,-1,8
620,71,698,2,105,11,-3,9,2,2,-1,7
621,69,700,2,80,9,-2,9,0,0,-1,6
622,69,702,2,95,9,0,9,0,0,0,6
623,76,704,0,80,4,7,9,7,7,1,7
624,78,704,0,80,6,2,9,9,9,1,8
625,79,705,0,80,7,1,9,10,10,1,9
626,81,706,2,105,9,2,9,12,0,1,10
627,76,708,2,80,4,-5,9,7,7,-1,9
628,76,710,1,95,4,0,9,7,7,0,9
629,78,711,0,80,6,2,9,9,9,1,10
630,79,712,1,80,7,1,9,10,10,1,11
631,76,713,0,80,4,-3,9,7,7,-1,10
632,81,714,2,105,9,5,9,12,0,1,11
633,76,716,1,80,4,-5,9,7,7,-1,10
634,74,717,0,80,2,-2,9,5,5,-1,9
635,76,718,2,95,4,2,9,7,7,1,10
636,81,720,1,80,9,5,9,12,0,1,11
637,79,721,0,80,7,-2,9,10,10,-1,10
638,78,722,2,105,6,-1,9,9,9,-1,9
639,74,724,2,80,2,-4,9,5,5,-1,8
640,74,726,3,95,2,0,9,5,5,0,8
641,76,729,1,80,4,2,9,7,7,1,9
642,78,730,2,105,6,2,9,9,9,1,10
643,74,732,1,80,2,-4,9,5,5,-1,9
644,73,733,0,80,1,-1,9,4,4,-1,8
645,74,734,1,95,2,1,9,5,5,1,9
646,76,735,0,80,4,2,9,7,7,1,10
647,78,736,1,80,6,2,9,9,9,1,11
648,74,737,0,80,2,-4,9,5,5,-1,10
649,81,738,2,105,9,7,9,12,0,1,11
650,76,740,2,80,4,-5,9,7,7,-1,10
651,78,742,1,95,6,2,9,9,9,1,11
652,76,743,0,80,4,-2,9,7,7,-1,10
653,74,744,1,80,2,-2,9,5,5,-1,9
654,78,745,0,80,6,4,9,9,9,1,10
655,76,746,1,105,4,-2,9,7,7,-1,9
656,81,747,0,80,9,5,9,12,0,1,10
657,81,748,1,80,9,0,9,12,0,0,10
658,76,749,0,80,4,-5,9,7,7,-1,9
659,78,750,1,95,6,2,9,9,9,1,10
660,76,751,0,80,4,-2,9,7,7,-1,9
661,74,752,1,80,2,-2,9,5,5,-1,8
662,71,753,0,80,11,-3,9,2,2,-1,7
663,69,754,2,105,9,-2,9,0,0,-1,6
664,71,756,0,80,11,2,9,2,2,1,7
665,73,756,0,80,1,2,9,4,4,1,8
666,74,757,0,80,2,1,9,5,5,1,9
667,76,758,1,95,4,2,9,7,7,1,10
668,74,759,0,80,2,-2,9,5,5,-1,9
669,78,760,1,80,6,4,9,9,9,1,10
670,74,761,0,80,2,-4,9,5,5,-1,9
671,71,762,2,105,11,-3,9,2,2,-1,8
672,69,764,2,80,9,-2,9,0,0,-1,7
673,69,766,2,95,9,0,9,0,0,0,7
