,midi_note,onset,duration,velocity,pitch_class,interval,root,relative_pitch,relative_pitch_class,parsons_code,parsons_cumsum
0,62,0,0,105,2,0,7,-5,7,0,0
1,64,0,0,80,4,2,7,-3,9,1,1
2,66,1,0,80,6,2,7,-1,11,1,2
3,67,2,2,105,7,1,7,0,0,1,3
4,67,4,1,80,7,0,7,0,0,0,3
5,67,5,0,80,7,0,7,0,0,0,3
6,67,6,1,95,7,0,7,0,0,0,3
7,71,7,0,80,11,4,7,4,4,1,4
8,74,8,1,80,2,3,7,7,7,1,5
9,71,9,0,80,11,-3,7,4,4,-1,4
10,72,10,1,105,0,1,7,5,5,1,5
11,71,11,0,80,11,-1,7,4,4,-1,4
12,69,12,1,80,9,-2,7,2,2,-1,3
13,67,13,0,80,7,-2,7,0,0,-1,2
14,66,14,1,95,6,-1,7,-1,11,-1,1
15,67,15,0,80,7,1,7,0,0,1,2
16,69,16,1,80,9,2,7,2,2,1,3
17,71,17,0,80,11,2,7,4,4,1,4
18,74,18,1,105,2,3,7,7,7,1,5
19,79,19,0,80,7,5,7,12,0,1,6
20,78,20,1,80,6,-1,7,11,11,-1,5
21,76,21,0,80,4,-2,7,9,9,-1,4
22,74,22,1,95,2,-2,7,7,7,-1,3
23,72,23,0,80,0,-2,7,5,5,-1,2
24,71,24,1,80,11,-1,7,4,4,-1,1
25,72,25,0,80,0,1,7,5,5,1,2
26,74,26,0,105,2,2,7,7,7,1,3
27,72,26,0,80,0,-2,7,5,5,-1,2
28,74,27,0,80,2,2,7,7,7,1,3
29,76,28,1,80,4,2,7,9,9,1,4
30,74,29,0,80,2,-2,7,7,7,-1,3
31,72,30,1,95,0,-2,7,5,5,-1,2
32,69,31,0,80,9,-3,7,2,2,-1,1
33,66,32,1,80,6,-3,7,-1,11,-1,0
34,69,33,0,80,9,3,7,2,2,1,1
35,67,34,2,105,7,-2,7,0,0,-1,0
36,67,36,1,80,7,0,7,0,0,0,0
37,67,37,0,80,7,0,7,0,0,0,0
38,67,38,1,95,7,0,7,0,0,0,0
39,71,39,0,80,11,4,7,4,4,1,1
40,74,40,1,80,2,3,7,7,7,1,2
41,71,41,0,80,11,-3,7,4,4,-1,1
42,72,42,1,105,0,1,7,5,5,1,2
43,71,43,0,80,11,-1,7,4,4,-1,1
44,69,44,1,80,9,-2,7,2,2,-1,0
45,67,45,0,80,7,-2,7,0,0,-1,-1
46,66,46,1,95,6,-1,7,-1,11,-1,-2
47,67,47,0,80,7,1,7,0,0,1,-1
48,69,48,1,80,9,2,7,2,2,1,0
49,71,49,0,80,11,2,7,4,4,1,1
50,74,50,1,105,2,3,7,7,7,1,2
51,79,51,0,80,7,5,7,12,0,1,3
52,78,52,1,80,6,-1,7,11,11,-1,2
53,76,53,0,80,4,-2,7,9,9,-1,1
54,74,54,1,95,2,-2,7,7,7,-1,0
55,72,55,0,80,0,-2,7,5,5,-1,-1
56,64,56,1,80,4,-8,7,-3,9,-1,-2
57,66,57,0,80,6,2,7,-1,11,1,-1
58,69,58,0,105,9,3,7,2,2,1,0
59,71,58,0,80,11,2,7,4,4,1,1
60,69,59,0,80,9,-2,7,2,2,-1,0
61,67,60,1,80,7,-2,7,0,0,-1,-1
62,66,61,0,80,6,-1,7,-1,11,-1,-2
63,67,62,2,95,7,1,7,0,0,1,-1
64,62,64,0,80,2,-5,7,-5,7,-1,-2
65,64,64,0,80,4,2,7,-3,9,1,-1
66,66,65,0,80,6,2,7,-1,11,1,0
67,67,66,2,105,7,1,7,0,0,1,1
68,67,68,1,80,7,0,7,0,0,0,1
69,67,69,0,80,7,0,7,0,0,0,1
70,67,70,1,95,7,0,7,0,0,0,1
71,71,71,0,80,11,4,7,4,4,1,2
72,74,72,1,80,2,3,7,7,7,1,3
73,71,73,0,80,11,-3,7,4,4,-1,2
74,72,74,1,105,0,1,7,5,5,1,3
75,71,75,0,80,11,-1,7,4,4,-1,2
76,69,76,1,80,9,-2,7,2,2,-1,1
77,67,77,0,80,7,-2,7,0,0,-1,0
78,66,78,1,95,6,-1,7,-1,11,-1,-1
79,67,79,0,80,7,1,7,0,0,1,0
80,69,80,1,80,9,2,7,2,2,1,1
81,71,81,0,80,11,2,7,4,4,1,2
82,74,82,1,105,2,3,7,7,7,1,3
83,79,83,0,80,7,5,7,12,0,1,4
84,78,84,1,80,6,-1,7,11,11,-1,3
85,76,85,0,80,4,-2,7,9,9,-1,2
86,74,86,1,95,2,-2,7,7,7,-1,1
87,72,87,0,80,0,-2,7,5,5,-1,0
88,71,88,1,80,11,-1,7,4,4,-1,-1
89,72,89,0,80,0,1,7,5,5,1,0
90,74,90,0,105,2,2,7,7,7,1,1
91,72,90,0,80,0,-2,7,5,5,-1,0
92,74,91,0,80,2,2,7,7,7,1,1
93,76,92,1,80,4,2,7,9,9,1,2
94,74,93,0,80,2,-2,7,7,7,-1,1
95,72,94,1,95,0,-2,7,5,5,-1,0
96,69,95,0,80,9,-3,7,2,2,-1,-1
97,66,96,1,80,6,-3,7,-1,11,-1,-2
98,69,97,0,80,9,3,7,2,2,1,-1
99,67,98,2,105,7,-2,7,0,0,-1,-2
100,67,100,1,80,7,0,7,0,0,0,-2
101,67,101,0,80,7,0,7,0,0,0,-2
102,67,102,1,95,7,0,7,0,0,0,-2
103,71,103,0,80,11,4,7,4,4,1,-1
104,74,104,1,80,2,3,7,7,7,1,0
105,71,105,0,80,11,-3,7,4,4,-1,-1
106,72,106,1,105,0,1,7,5,5,1,0
107,71,107,0,80,11,-1,7,4,4,-1,-1
108,69,108,1,80,9,-2,7,2,2,-1,-2
109,67,109,0,80,7,-2,7,0,0,-1,-3
110,66,110,1,95,6,-1,7,-1,11,-1,-4
111,67,111,0,80,7,1,7,0,0,1,-3
112,69,112,1,80,9,2,7,2,2,1,-2
113,71,113,0,80,11,2,7,4,4,1,-1
114,74,114,1,105,2,3,7,7,7,1,0
115,79,115,0,80,7,5,7,12,0,1,1
116,78,116,1,80,6,-1,7,11,11,-1,0
117,76,117,0,80,4,-2,7,9,9,-1,-1
118,74,118,1,95,2,-2,7,7,7,-1,-2
119,72,119,0,80,0,-2,7,5,5,-1,-3
120,64,120,1,80,4,-8,7,-3,9,-1,-4
121,66,121,0,80,6,2,7,-1,11,1,-3
122,69,122,0,105,9,3,7,2,2,1,-2
123,71,122,0,80,11,2,7,4,4,1,-1
124,69,123,0,80,9,-2,7,2,2,-1,-2
125,67,124,1,80,7,-2,7,0,0,-1,-3
126,66,125,0,80,6,-1,7,-1,11,-1,-4
127,67,126,2,95,7,1,7,0,0,1,-3
128,71,128,1,80,11,4,7,4,4,1,-2
129,72,129,0,80,0,1,7,5,5,1,-1
130,74,130,0,105,2,2,7,7,7,1,0
131,72,130,0,80,0,-2,7,5,5,-1,-1
132,74,131,0,80,2,2,7,7,7,1,0
133,71,132,1,80,11,-3,7,4,4,-1,-1
134,74,133,0,80,2,3,7,7,7,1,0
135,79,134,1,95,7,5,7,12,0,1,1
136,74,135,0,80,2,-5,7,7,7,-1,0
137,71,136,1,80,11,-3,7,4,4,-1,-1
138,67,137,0,80,7,-4,7,0,0,-1,-2
139,69,138,0,105,9,2,7,2,2,1,-1
140,71,138,0,80,11,2,7,4,4,1,0
141,69,139,0,80,9,-2,7,2,2,-1,-1
142,64,140,1,80,4,-5,7,-3,9,-1,-2
143,67,141,0,80,7,3,7,0,0,1,-1
144,69,142,1,95,9,2,7,2,2,1,0
145,67,143,0,80,7,-2,7,0,0,-1,-1
146,66,144,1,80,6,-1,7,-1,11,-1,-2
147,64,145,0,80,4,-2,7,-3,9,-1,-3
148,62,146,1,105,2,-2,7,-5,7,-1,-4
149,74,147,0,80,2,12,7,7,7,1,-3
150,72,148,1,80,0,-2,7,5,5,-1,-4
151,71,149,0,80,11,-1,7,4,4,-1,-5
152,72,150,1,95,0,1,7,5,5,1,-4
153,62,151,0,80,2,-10,7,-5,7,-1,-5
154,64,152,1,80,4,2,7,-3,9,1,-4
155,66,153,0,80,6,2,7,-1,11,1,-3
156,67,154,1,105,7,1,7,0,0,1,-2
157,71,155,0,80,11,4,7,4,4,1,-1
158,69,156,0,80,9,-2,7,2,2,-1,-2
159,67,156,0,80,7,-2,7,0,0,-1,-3
160,66,157,0,80,6,-1,7,-1,11,-1,-4
161,67,158,1,95,7,1,7,0,0,1,-3
162,62,159,0,80,2,-5,7,-5,7,-1,-4
163,59,160,1,80,11,-3,7,-8,4,-1,-5
164,62,161,0,80,2,3,7,-5,7,1,-4
165,67,162,1,105,7,5,7,0,0,1,-3
166,62,163,0,80,2,-5,7,-5,7,-1,-4
167,64,164,1,80,4,2,7,-3,9,1,-3
168,66,165,0,80,6,2,7,-1,11,1,-2
169,67,166,1,95,7,1,7,0,0,1,-1
170,71,167,0,80,11,4,7,4,4,1,0
171,74,168,1,80,2,3,7,7,7,1,1
172,71,169,0,80,11,-3,7,4,4,-1,0
173,72,170,1,105,0,1,7,5,5,1,1
174,71,171,0,80,11,-1,7,4,4,-1,0
175,69,172,1,80,9,-2,7,2,2,-1,-1
176,67,173,0,80,7,-2,7,0,0,-1,-2
177,66,174,0,95,6,-1,7,-1,11,-1,-3
178,67,174,0,80,7,1,7,0,0,1,-2
179,69,175,0,80,9,2,7,2,2,1,-1
180,71,176,1,80,11,2,7,4,4,1,0
181,72,177,0,80,0,1,7,5,5,1,1
182,74,178,1,105,2,2,7,7,7,1,2
183,79,179,0,80,7,5,7,12,0,1,3
184,78,180,1,80,6,-1,7,11,11,-1,2
185,76,181,0,80,4,-2,7,9,9,-1,1
186,74,182,1,95,2,-2,7,7,7,-1,0
187,72,183,0,80,0,-2,7,5,5,-1,-1
188,64,184,1,80,4,-8,7,-3,9,-1,-2
189,66,185,0,80,6,2,7,-1,11,1,-1
190,69,186,0,105,9,3,7,2,2,1,0
191,71,186,0,80,11,2,7,4,4,1,1
192,69,187,0,80,9,-2,7,2,2,-1,0
193,67,188,1,80,7,-2,7,0,0,-1,-1
194,66,189,0,80,6,-1,7,-1,11,-1,-2
195,67,190,2,95,7,1,7,0,0,1,-1
196,71,192,1,80,11,4,7,4,4,1,0
197,72,193,0,80,0,1,7,5,5,1,1
198,74,194,0,105,2,2,7,7,7,1,2
199,72,194,0,80,0,-2,7,5,5,-1,1
200,74,195,0,80,2,2,7,7,7,1,2
201,71,196,1,80,11,-3,7,4,4,-1,1
202,74,197,0,80,2,3,7,7,7,1,2
203,79,198,1,95,7,5,7,12,0,1,3
204,74,199,0,80,2,-5,7,7,7,-1,2
205,71,200,1,80,11,-3,7,4,4,-1,1
206,67,201,0,80,7,-4,7,0,0,-1,0
207,69,202,0,105,9,2,7,2,2,1,1
208,71,202,0,80,11,2,7,4,4,1,2
209,69,203,0,80,9,-2,7,2,2,-1,1
210,64,204,1,80,4,-5,7,-3,9,-1,0
211,67,205,0,80,7,3,7,0,0,1,1
212,69,206,1,95,9,2,7,2,2,1,2
213,67,207,0,80,7,-2,7,0,0,-1,1
214,66,208,1,80,6,-1,7,-1,11,-1,0
215,64,209,0,80,4,-2,7,-3,9,-1,-1
216,62,210,1,105,2,-2,7,-5,7,-1,-2
217,74,211,0,80,2,12,7,7,7,1,-1
218,72,212,1,80,0,-2,7,5,5,-1,-2
219,71,213,0,80,11,-1,7,4,4,-1,-3
220,72,214,1,95,0,1,7,5,5,1,-2
221,62,215,0,80,2,-10,7,-5,7,-1,-3
222,64,216,1,80,4,2,7,-3,9,1,-2
223,66,217,0,80,6,2,7,-1,11,1,-1
224,67,218,1,105,7,1,7,0,0,1,0
225,71,219,0,80,11,4,7,4,4,1,1
226,69,220,0,80,9,-2,7,2,2,-1,0
227,67,220,0,80,7,-2,7,0,0,-1,-1
228,66,221,0,80,6,-1,7,-1,11,-1,-2
229,67,222,1,95,7,1,7,0,0,1,-1
230,62,223,0,80,2,-5,7,-5,7,-1,-2
231,59,224,1,80,11,-3,7,-8,4,-1,-3
232,62,225,0,80,2,3,7,-5,7,1,-2
233,67,226,1,105,7,5,7,0,0,1,-1
234,62,227,0,80,2,-5,7,-5,7,-1,-2
235,64,228,1,80,4,2,7,-3,9,1,-1
236,66,229,0,80,6,2,7,-1,11,1,0
237,67,230,1,95,7,1,7,0,0,1,1
238,71,231,0,80,11,4,7,4,4,1,2
239,74,232,1,80,2,3,7,7,7,1,3
240,71,233,0,80,11,-3,7,4,4,-1,2
241,72,234,1,105,0,1,7,5,5,1,3
242,71,235,0,80,11,-1,7,4,4,-1,2
243,69,236,1,80,9,-2,7,2,2,-1,1
244,67,237,0,80,7,-2,7,0,0,-1,0
245,66,238,0,95,6,-1,7,-1,11,-1,-1
246,67,238,0,80,7,1,7,0,0,1,0
247,69,239,0,80,9,2,7,2,2,1,1
248,71,240,1,80,11,2,7,4,4,1,2
249,72,241,0,80,0,1,7,5,5,1,3
250,74,242,1,105,2,2,7,7,7,1,4
251,79,243,0,80,7,5,7,12,0,1,5
252,78,244,1,80,6,-1,7,11,11,-1,4
253,76,245,0,80,4,-2,7,9,9,-1,3
254,74,246,1,95,2,-2,7,7,7,-1,2
255,72,247,0,80,0,-2,7,5,5,-1,1
256,64,248,1,80,4,-8,7,-3,9,-1,0
257,66,249,0,80,6,2,7,-1,11,1,1
258,69,250,0,105,9,3,7,2,2,1,2
259,71,250,0,80,11,2,7,4,4,1,3
260,69,251,0,80,9,-2,7,2,2,-1,2
261,67,252,1,80,7,-2,7,0,0,-1,1
262,66,253,0,80,6,-1,7,-1,11,-1,0
263,67,254,2,95,7,1,7,0,0,1,1
