,midi_note,onset,duration,velocity,pitch_class,interval,root,relative_pitch,relative_pitch_class,parsons_code,parsons_cumsum
0,62,0,1,105,2,0,9,-7,5,0,0
1,64,1,1,105,4,2,9,-5,7,1,1
2,67,2,1,80,7,3,9,-2,10,1,2
3,69,3,1,80,9,2,9,0,0,1,3
4,71,4,1,80,11,2,9,2,2,1,4
5,72,5,3,95,0,1,9,3,3,1,5
6,74,8,1,80,2,2,9,5,5,1,6
7,76,9,1,105,4,2,9,7,7,1,7
8,76,10,1,80,4,0,9,7,7,0,7
9,76,11,1,80,4,0,9,7,7,0,7
10,74,12,1,80,2,-2,9,5,5,-1,6
11,71,13,1,95,11,-3,9,2,2,-1,5
12,72,14,1,80,0,1,9,3,3,1,6
13,74,15,1,80,2,2,9,5,5,1,7
14,78,16,1,80,6,4,9,9,9,1,8
15,76,17,1,105,4,-2,9,7,7,-1,7
16,69,18,1,80,9,-7,9,0,0,-1,6
17,69,19,1,80,9,0,9,0,0,0,6
18,69,20,1,80,9,0,9,0,0,0,6
19,71,21,1,95,11,2,9,2,2,1,7
20,67,22,1,80,7,-4,9,-2,10,-1,6
21,67,23,1,80,7,0,9,-2,10,0,6
22,67,24,1,80,7,0,9,-2,10,0,6
23,69,25,1,105,9,2,9,0,0,1,7
24,72,26,1,80,0,3,9,3,3,1,8
25,71,27,1,80,11,-1,9,2,2,-1,7
26,69,28,1,80,9,-2,9,0,0,-1,6
27,67,29,1,95,7,-2,9,-2,10,-1,5
28,64,30,1,80,4,-3,9,-5,7,-1,4
29,62,31,1,80,2,-2,9,-7,5,-1,3
30,69,32,1,80,9,7,9,0,0,1,4
31,64,33,1,105,4,-5,9,-5,7,-1,3
32,69,34,1,80,9,5,9,0,0,1,4
33,69,35,1,80,9,0,9,0,0,0,4
34,71,36,1,80,11,2,9,2,2,1,5
35,72,37,1,95,0,1,9,3,3,1,6
36,71,38,1,80,11,-1,9,2,2,-1,5
37,72,39,1,80,0,1,9,3,3,1,6
38,74,40,1,80,2,2,9,5,5,1,7
39,76,41,2,105,4,2,9,7,7,1,8
40,76,43,1,80,4,0,9,7,7,0,8
41,74,44,1,80,2,-2,9,5,5,-1,7
42,71,45,0,95,11,-3,9,2,2,-1,6
43,72,45,0,80,0,1,9,3,3,1,7
44,74,46,0,80,2,2,9,5,5,1,8
45,76,47,1,80,4,2,9,7,7,1,9
46,78,48,1,80,6,2,9,9,9,1,10
47,76,49,1,105,4,-2,9,7,7,-1,9
48,69,50,1,80,9,-7,9,0,0,-1,8
49,69,51,1,80,9,0,9,0,0,0,8
50,69,52,1,80,9,0,9,0,0,0,8
51,71,53,1,95,11,2,9,2,2,1,9
52,69,54,1,80,9,-2,9,0,0,-1,8
53,67,55,1,80,7,-2,9,-2,10,-1,7
54,64,56,1,80,4,-3,9,-5,7,-1,6
55,69,57,1,105,9,5,9,0,0,1,7
56,72,58,1,80,0,3,9,3,3,1,8
57,71,59,1,80,11,-1,9,2,2,-1,7
58,67,60,1,80,7,-4,9,-2,10,-1,6
59,69,61,3,95,9,2,9,0,0,1,7
60,62,64,1,80,2,-7,9,-7,5,-1,6
61,64,65,1,105,4,2,9,-5,7,1,7
62,67,66,1,80,7,3,9,-2,10,1,8
63,69,67,1,80,9,2,9,0,0,1,9
64,71,68,1,80,11,2,9,2,2,1,10
65,72,69,3,95,0,1,9,3,3,1,11
66,74,72,1,80,2,2,9,5,5,1,12
67,76,73,1,105,4,2,9,7,7,1,13
68,76,74,1,80,4,0,9,7,7,0,13
69,76,75,1,80,4,0,9,7,7,0,13
70,74,76,1,80,2,-2,9,5,5,-1,12
71,71,77,1,95,11,-3,9,2,2,-1,11
72,72,78,1,80,0,1,9,3,3,1,12
73,74,79,1,80,2,2,9,5,5,1,13
74,78,80,1,80,6,4,9,9,9,1,14
75,76,81,1,105,4,-2,9,7,7,-1,13
76,69,82,1,80,9,-7,9,0,0,-1,12
77,69,83,1,80,9,0,9,0,0,0,12
78,69,84,1,80,9,0,9,0,0,0,12
79,71,85,1,95,11,2,9,2,2,1,13
80,67,86,1,80,7,-4,9,-2,10,-1,12
81,67,87,1,80,7,0,9,-2,10,0,12
82,67,88,1,80,7,0,9,-2,10,0,12
83,69,89,1,105,9,2,9,0,0,1,13
84,72,90,1,80,0,3,9,3,3,1,14
85,71,91,1,80,11,-1,9,2,2,-1,13
86,69,92,1,80,9,-2,9,0,0,-1,12
87,67,93,1,95,7,-2,9,-2,10,-1,11
88,64,94,1,80,4,-3,9,-5,7,-1,10
89,62,95,1,80,2,-2,9,-7,5,-1,9
90,69,96,1,80,9,7,9,0,0,1,10
91,64,97,1,105,4,-5,9,-5,7,-1,9
92,69,98,1,80,9,5,9,0,0,1,10
93,69,99,1,80,9,0,9,0,0,0,10
94,71,100,1,80,11,2,9,2,2,1,11
95,72,101,1,95,0,1,9,3,3,1,12
96,71,102,1,80,11,-1,9,2,2,-1,11
97,72,103,1,80,0,1,9,3,3,1,12
98,74,104,1,80,2,2,9,5,5,1,13
99,76,105,2,105,4,2,9,7,7,1,14
100,76,107,1,80,4,0,9,7,7,0,14
101,74,108,1,80,2,-2,9,5,5,-1,13
102,71,109,0,95,11,-3,9,2,2,-1,12
103,72,109,0,80,0,1,9,3,3,1,13
104,74,110,0,80,2,2,9,5,5,1,14
105,76,111,1,80,4,2,9,7,7,1,15
106,78,112,1,80,6,2,9,9,9,1,16
107,76,113,1,105,4,-2,9,7,7,-1,15
108,69,114,1,80,9,-7,9,0,0,-1,14
109,69,115,1,80,9,0,9,0,0,0,14
110,69,116,1,80,9,0,9,0,0,0,14
111,71,117,1,95,11,2,9,2,2,1,15
112,69,118,1,80,9,-2,9,0,0,-1,14
113,67,119,1,80,7,-2,9,-2,10,-1,13
114,64,120,1,80,4,-3,9,-5,7,-1,12
115,69,121,1,105,9,5,9,0,0,1,13
116,72,122,1,80,0,3,9,3,3,1,14
117,71,123,1,80,11,-1,9,2,2,-1,13
118,67,124,1,80,7,-4,9,-2,10,-1,12
119,69,125,3,95,9,2,9,0,0,1,13
120,76,129,1,105,4,7,9,7,7,1,14
121,81,130,1,80,9,5,9,12,0,1,15
122,81,131,1,80,9,0,9,12,0,0,15
123,79,132,1,80,7,-2,9,10,10,-1,14
124,76,133,1,95,4,-3,9,7,7,-1,13
125,74,134,1,80,2,-2,9,5,5,-1,12
126,71,135,0,80,11,-3,9,2,2,-1,11
127,72,135,0,80,0,1,9,3,3,1,12
128,74,136,0,80,2,2,9,5,5,1,13
129,76,137,1,105,4,2,9,7,7,1,14
130,81,138,1,80,9,5,9,12,0,1,15
131,81,139,1,80,9,0,9,12,0,0,15
132,79,140,1,80,7,-2,9,10,10,-1,14
133,76,141,2,95,4,-3,9,7,7,-1,13
134,74,143,1,80,2,-2,9,5,5,-1,12
135,78,144,1,80,6,4,9,9,9,1,13
136,76,145,1,105,4,-2,9,7,7,-1,12
137,69,146,1,80,9,-7,9,0,0,-1,11
138,69,147,1,80,9,0,9,0,0,0,11
139,69,148,1,80,9,0,9,0,0,0,11
140,71,149,1,95,11,2,9,2,2,1,12
141,67,150,1,80,7,-4,9,-2,10,-1,11
142,67,151,1,80,7,0,9,-2,10,0,11
143,67,152,1,80,7,0,9,-2,10,0,11
144,69,153,1,105,9,2,9,0,0,1,12
145,72,154,1,80,0,3,9,3,3,1,13
146,71,155,1,80,11,-1,9,2,2,-1,12
147,69,156,1,80,9,-2,9,0,0,-1,11
148,67,157,1,95,7,-2,9,-2,10,-1,10
149,64,158,1,80,4,-3,9,-5,7,-1,9
150,62,159,1,80,2,-2,9,-7,5,-1,8
151,69,160,1,80,9,7,9,0,0,1,9
152,76,161,1,105,4,7,9,7,7,1,10
153,81,162,1,80,9,5,9,12,0,1,11
154,81,163,1,80,9,0,9,12,0,0,11
155,79,164,1,80,7,-2,9,10,10,-1,10
156,76,165,1,95,4,-3,9,7,7,-1,9
157,74,166,1,80,2,-2,9,5,5,-1,8
158,71,167,0,80,11,-3,9,2,2,-1,7
159,72,167,0,80,0,1,9,3,3,1,8
160,74,168,0,80,2,2,9,5,5,1,9
161,76,169,2,105,4,2,9,7,7,1,10
162,81,171,1,80,9,5,9,12,0,1,11
163,79,172,1,80,7,-2,9,10,10,-1,10
164,76,173,1,95,4,-3,9,7,7,-1,9
165,78,174,1,80,6,2,9,9,9,1,10
166,74,175,1,80,2,-4,9,5,5,-1,9
167,78,176,1,80,6,4,9,9,9,1,10
168,76,177,1,105,4,-2,9,7,7,-1,9
169,69,178,1,80,9,-7,9,0,0,-1,8
170,69,179,1,80,9,0,9,0,0,0,8
171,69,180,1,80,9,0,9,0,0,0,8
172,71,181,1,95,11,2,9,2,2,1,9
173,69,182,1,80,9,-2,9,0,0,-1,8
174,67,183,1,80,7,-2,9,-2,10,-1,7
175,64,184,1,80,4,-3,9,-5,7,-1,6
176,69,185,1,105,9,5,9,0,0,1,7
177,72,186,1,80,0,3,9,3,3,1,8
178,71,187,1,80,11,-1,9,2,2,-1,7
179,67,188,1,80,7,-4,9,-2,10,-1,6
180,69,189,4,95,9,2,9,0,0,1,7
181,76,193,1,105,4,7,9,7,7,1,8
182,81,194,1,80,9,5,9,12,0,1,9
183,81,195,1,80,9,0,9,12,0,0,9
184,79,196,1,80,7,-2,9,10,10,-1,8
185,76,197,1,95,4,-3,9,7,7,-1,7
186,74,198,1,80,2,-2,9,5,5,-1,6
187,71,199,0,80,11,-3,9,2,2,-1,5
188,72,199,0,80,0,1,9,3,3,1,6
189,74,200,0,80,2,2,9,5,5,1,7
190,76,201,1,105,4,2,9,7,7,1,8
191,81,202,1,80,9,5,9,12,0,1,9
192,81,203,1,80,9,0,9,12,0,0,9
193,79,204,1,80,7,-2,9,10,10,-1,8
194,76,205,2,95,4,-3,9,7,7,-1,7
195,74,207,1,80,2,-2,9,5,5,-1,6
196,78,208,1,80,6,4,9,9,9,1,7
197,76,209,1,105,4,-2,9,7,7,-1,6
198,69,210,1,80,9,-7,9,0,0,-1,5
199,69,211,1,80,9,0,9,0,0,0,5
200,69,212,1,80,9,0,9,0,0,0,5
201,71,213,1,95,11,2,9,2,2,1,6
202,67,214,1,80,7,-4,9,-2,10,-1,5
203,67,215,1,80,7,0,9,-2,10,0,5
204,67,216,1,80,7,0,9,-2,10,0,5
205,69,217,1,105,9,2,9,0,0,1,6
206,72,218,1,80,0,3,9,3,3,1,7
207,71,219,1,80,11,-1,9,2,2,-1,6
208,69,220,1,80,9,-2,9,0,0,-1,5
209,67,221,1,95,7,-2,9,-2,10,-1,4
210,64,222,1,80,4,-3,9,-5,7,-1,3
211,62,223,1,80,2,-2,9,-7,5,-1,2
212,69,224,1,80,9,7,9,0,0,1,3
213,64,225,1,105,4,-5,9,-5,7,-1,2
214,69,226,1,80,9,5,9,0,0,1,3
215,69,227,1,80,9,0,9,0,0,0,3
216,71,228,1,80,11,2,9,2,2,1,4
217,72,229,1,95,0,1,9,3,3,1,5
218,71,230,1,80,11,-1,9,2,2,-1,4
219,72,231,1,80,0,1,9,3,3,1,5
220,74,232,1,80,2,2,9,5,5,1,6
221,76,233,1,105,4,2,9,7,7,1,7
222,76,234,1,80,4,0,9,7,7,0,7
223,76,235,1,80,4,0,9,7,7,0,7
224,74,236,1,80,2,-2,9,5,5,-1,6
225,71,237,1,95,11,-3,9,2,2,-1,5
226,72,238,1,80,0,1,9,3,3,1,6
227,74,239,2,80,2,2,9,5,5,1,7
228,76,241,1,105,4,2,9,7,7,1,8
229,69,242,1,80,9,-7,9,0,0,-1,7
230,69,243,0,80,9,0,9,0,0,0,7
231,69,243,0,80,9,0,9,0,0,0,7
232,69,244,0,80,9,0,9,0,0,0,7
233,71,245,1,95,11,2,9,2,2,1,8
234,69,246,1,80,9,-2,9,0,0,-1,7
235,67,247,1,80,7,-2,9,-2,10,-1,6
236,64,248,1,80,4,-3,9,-5,7,-1,5
237,69,249,1,105,9,5,9,0,0,1,6
238,72,250,1,80,0,3,9,3,3,1,7
239,71,251,1,80,11,-1,9,2,2,-1,6
240,67,252,1,80,7,-4,9,-2,10,-1,5
241,69,253,4,95,9,2,9,0,0,1,6
