,midi_note,onset,duration,velocity,pitch_class,interval,root,relative_pitch,relative_pitch_class,parsons_code,parsons_cumsum
0,74,0,1,105,2,0,2,12,0,0,0
1,71,1,1,80,11,-3,2,9,9,-1,-1
2,69,2,1,105,9,-2,2,7,7,-1,-2
3,66,3,1,80,6,-3,2,4,4,-1,-3
4,66,4,1,80,6,0,2,4,4,0,-3
5,74,5,1,95,2,8,2,12,0,1,-2
6,66,6,1,80,6,-8,2,4,4,-1,-3
7,66,7,1,80,6,0,2,4,4,0,-3
8,69,8,1,105,9,3,2,7,7,1,-2
9,67,9,1,80,7,-2,2,5,5,-1,-3
10,71,10,1,80,11,4,2,9,9,1,-2
11,69,11,1,95,9,-2,2,7,7,-1,-3
12,66,12,1,80,6,-3,2,4,4,-1,-4
13,62,13,1,80,2,-4,2,0,0,-1,-5
14,69,14,1,105,9,7,2,7,7,1,-4
15,66,15,1,80,6,-3,2,4,4,-1,-5
16,66,16,1,80,6,0,2,4,4,0,-5
17,74,17,1,95,2,8,2,12,0,1,-4
18,66,18,1,80,6,-8,2,4,4,-1,-5
19,64,19,1,80,4,-2,2,2,2,-1,-6
20,62,20,1,105,2,-2,2,0,0,-1,-7
21,66,21,1,80,6,4,2,4,4,1,-6
22,69,22,1,80,9,3,2,7,7,1,-5
23,71,23,1,95,11,2,2,9,9,1,-4
24,73,24,1,80,1,2,2,11,11,1,-3
25,74,25,1,80,2,1,2,12,0,1,-2
26,69,26,1,105,9,-5,2,7,7,-1,-3
27,66,27,1,80,6,-3,2,4,4,-1,-4
28,66,28,1,80,6,0,2,4,4,0,-4
29,74,29,1,95,2,8,2,12,0,1,-3
30,66,30,1,80,6,-8,2,4,4,-1,-4
31,66,31,1,80,6,0,2,4,4,0,-4
32,69,32,1,105,9,3,2,7,7,1,-3
33,67,33,1,80,7,-2,2,5,5,-1,-4
34,71,34,1,80,11,4,2,9,9,1,-3
35,69,35,1,95,9,-2,2,7,7,-1,-4
36,66,36,1,80,6,-3,2,4,4,-1,-5
37,62,37,1,80,2,-4,2,0,0,-1,-6
38,64,38,3,105,4,2,2,2,2,1,-5
39,69,41,1,95,9,5,2,7,7,1,-4
40,66,42,1,80,6,-3,2,4,4,-1,-5
41,64,43,1,80,4,-2,2,2,2,-1,-6
42,62,44,1,105,2,-2,2,0,0,-1,-7
43,66,45,1,80,6,4,2,4,4,1,-6
44,69,46,1,80,9,3,2,7,7,1,-5
45,71,47,1,95,11,2,2,9,9,1,-4
46,73,48,1,80,1,2,2,11,11,1,-3
47,74,49,1,80,2,1,2,12,0,1,-2
48,69,50,1,105,9,-5,2,7,7,-1,-3
49,66,51,1,80,6,-3,2,4,4,-1,-4
50,66,52,1,80,6,0,2,4,4,0,-4
51,74,53,1,95,2,8,2,12,0,1,-3
52,66,54,1,80,6,-8,2,4,4,-1,-4
53,66,55,1,80,6,0,2,4,4,0,-4
54,69,56,1,105,9,3,2,7,7,1,-3
55,67,57,1,80,7,-2,2,5,5,-1,-4
56,71,58,1,80,11,4,2,9,9,1,-3
57,69,59,1,95,9,-2,2,7,7,-1,-4
58,66,60,1,80,6,-3,2,4,4,-1,-5
59,62,61,1,80,2,-4,2,0,0,-1,-6
60,69,62,1,105,9,7,2,7,7,1,-5
61,66,63,1,80,6,-3,2,4,4,-1,-6
62,66,64,1,80,6,0,2,4,4,0,-6
63,74,65,1,95,2,8,2,12,0,1,-5
64,66,66,1,80,6,-8,2,4,4,-1,-6
65,64,67,1,80,4,-2,2,2,2,-1,-7
66,62,68,1,105,2,-2,2,0,0,-1,-8
67,66,69,1,80,6,4,2,4,4,1,-7
68,69,70,1,80,9,3,2,7,7,1,-6
69,71,71,1,95,11,2,2,9,9,1,-5
70,73,72,1,80,1,2,2,11,11,1,-4
71,74,73,1,80,2,1,2,12,0,1,-3
72,69,74,1,105,9,-5,2,7,7,-1,-4
73,66,75,1,80,6,-3,2,4,4,-1,-5
74,66,76,1,80,6,0,2,4,4,0,-5
75,74,77,1,95,2,8,2,12,0,1,-4
76,66,78,1,80,6,-8,2,4,4,-1,-5
77,66,79,1,80,6,0,2,4,4,0,-5
78,69,80,1,105,9,3,2,7,7,1,-4
79,67,81,1,80,7,-2,2,5,5,-1,-5
80,71,82,1,80,11,4,2,9,9,1,-4
81,69,83,1,95,9,-2,2,7,7,-1,-5
82,66,84,1,80,6,-3,2,4,4,-1,-6
83,62,85,1,80,2,-4,2,0,0,-1,-7
84,64,86,3,105,4,2,2,2,2,1,-6
85,69,89,1,95,9,5,2,7,7,1,-5
86,66,90,1,80,6,-3,2,4,4,-1,-6
87,64,91,1,80,4,-2,2,2,2,-1,-7
88,62,92,1,105,2,-2,2,0,0,-1,-8
89,66,93,1,80,6,4,2,4,4,1,-7
90,69,94,1,80,9,3,2,7,7,1,-6
91,71,95,3,95,11,2,2,9,9,1,-5
92,69,98,1,105,9,-2,2,7,7,-1,-6
93,71,99,1,80,11,2,2,9,9,1,-5
94,73,100,1,80,1,2,2,11,11,1,-4
95,74,101,2,95,2,1,2,12,0,1,-3
96,69,103,1,80,9,-5,2,7,7,-1,-4
97,74,104,1,105,2,5,2,12,0,1,-3
98,78,105,1,80,6,4,2,16,4,1,-2
99,81,106,1,80,9,3,2,19,7,1,-1
100,81,107,1,95,9,0,2,19,7,0,-1
101,79,108,1,80,7,-2,2,17,5,-1,-2
102,78,109,1,80,6,-1,2,16,4,-1,-3
103,79,110,1,105,7,1,2,17,5,1,-2
104,76,111,1,80,4,-3,2,14,2,-1,-3
105,79,112,1,80,7,3,2,17,5,1,-2
106,78,113,1,95,6,-1,2,16,4,-1,-3
107,74,114,1,80,2,-4,2,12,0,-1,-4
108,71,115,1,80,11,-3,2,9,9,-1,-5
109,69,116,1,105,9,-2,2,7,7,-1,-6
110,66,117,1,80,6,-3,2,4,4,-1,-7
111,69,118,1,80,9,3,2,7,7,1,-6
112,71,119,1,95,11,2,2,9,9,1,-5
113,73,120,1,80,1,2,2,11,11,1,-4
114,74,121,1,80,2,1,2,12,0,1,-3
115,69,122,1,105,9,-5,2,7,7,-1,-4
116,71,123,1,80,11,2,2,9,9,1,-3
117,73,124,1,80,1,2,2,11,11,1,-2
118,74,125,2,95,2,1,2,12,0,1,-1
119,69,127,1,80,9,-5,2,7,7,-1,-2
120,74,128,1,95,2,5,2,12,0,1,-1
121,78,129,1,80,6,4,2,16,4,1,0
122,81,130,1,80,9,3,2,19,7,1,1
123,81,131,1,95,9,0,2,19,7,0,1
124,79,132,1,80,7,-2,2,17,5,-1,0
125,78,133,1,80,6,-1,2,16,4,-1,-1
126,79,134,3,105,7,1,2,17,5,1,0
127,78,137,1,95,6,-1,2,16,4,-1,-1
128,74,138,1,80,2,-4,2,12,0,-1,-2
129,71,139,1,80,11,-3,2,9,9,-1,-3
130,69,140,1,105,9,-2,2,7,7,-1,-4
131,66,141,1,80,6,-3,2,4,4,-1,-5
132,69,142,1,80,9,3,2,7,7,1,-4
133,71,143,3,95,11,2,2,9,9,1,-3
134,69,146,1,105,9,-2,2,7,7,-1,-4
135,71,147,1,80,11,2,2,9,9,1,-3
136,73,148,1,80,1,2,2,11,11,1,-2
137,74,149,2,95,2,1,2,12,0,1,-1
138,69,151,1,80,9,-5,2,7,7,-1,-2
139,74,152,1,105,2,5,2,12,0,1,-1
140,78,153,1,80,6,4,2,16,4,1,0
141,81,154,1,80,9,3,2,19,7,1,1
142,81,155,1,95,9,0,2,19,7,0,1
143,79,156,1,80,7,-2,2,17,5,-1,0
144,78,157,1,80,6,-1,2,16,4,-1,-1
145,79,158,1,105,7,1,2,17,5,1,0
146,76,159,1,80,4,-3,2,14,2,-1,-1
147,79,160,1,80,7,3,2,17,5,1,0
148,78,161,1,95,6,-1,2,16,4,-1,-1
149,74,162,1,80,2,-4,2,12,0,-1,-2
150,71,163,1,80,11,-3,2,9,9,-1,-3
151,69,164,1,105,9,-2,2,7,7,-1,-4
152,66,165,1,80,6,-3,2,4,4,-1,-5
153,69,166,1,80,9,3,2,7,7,1,-4
154,71,167,1,95,11,2,2,9,9,1,-3
155,73,168,1,80,1,2,2,11,11,1,-2
156,74,169,1,80,2,1,2,12,0,1,-1
157,69,170,1,105,9,-5,2,7,7,-1,-2
158,71,171,1,80,11,2,2,9,9,1,-1
159,73,172,1,80,1,2,2,11,11,1,0
160,74,173,2,95,2,1,2,12,0,1,1
161,69,175,1,80,9,-5,2,7,7,-1,0
162,74,176,1,95,2,5,2,12,0,1,1
163,78,177,1,80,6,4,2,16,4,1,2
164,81,178,1,80,9,3,2,19,7,1,3
165,81,179,1,95,9,0,2,19,7,0,3
166,79,180,1,80,7,-2,2,17,5,-1,2
167,78,181,1,80,6,-1,2,16,4,-1,1
168,79,182,3,105,7,1,2,17,5,1,2
169,78,185,1,95,6,-1,2,16,4,-1,1
170,74,186,1,80,2,-4,2,12,0,-1,0
171,71,187,1,80,11,-3,2,9,9,-1,-1
172,69,188,1,105,9,-2,2,7,7,-1,-2
173,66,189,1,80,6,-3,2,4,4,-1,-3
174,69,190,1,80,9,3,2,7,7,1,-2
175,71,191,2,95,11,2,2,9,9,1,-1
176,69,193,1,80,9,-2,2,7,7,-1,-2
177,71,194,1,105,11,2,2,9,9,1,-1
178,83,195,1,80,11,12,2,21,9,1,0
179,83,196,1,80,11,0,2,21,9,0,0
180,71,197,1,95,11,-12,2,9,9,-1,-1
181,81,198,1,80,9,10,2,19,7,1,0
182,81,199,1,80,9,0,2,19,7,0,0
183,78,200,3,105,6,-3,2,16,4,-1,-1
184,78,203,1,95,6,0,2,16,4,0,-1
185,74,204,1,80,2,-4,2,12,0,-1,-2
186,71,205,1,80,11,-3,2,9,9,-1,-3
187,71,206,1,105,11,0,2,9,9,0,-3
188,83,207,1,80,11,12,2,21,9,1,-2
189,83,208,1,80,11,0,2,21,9,0,-2
190,71,209,1,95,11,-12,2,9,9,-1,-3
191,81,210,1,80,9,10,2,19,7,1,-2
192,81,211,1,80,9,0,2,19,7,0,-2
193,76,212,1,105,4,-5,2,14,2,-1,-3
194,73,213,1,80,1,-3,2,11,11,-1,-4
195,69,214,1,80,9,-4,2,7,7,-1,-5
196,71,215,2,95,11,2,2,9,9,1,-4
197,69,217,1,80,9,-2,2,7,7,-1,-5
198,71,218,1,105,11,2,2,9,9,1,-4
199,83,219,1,80,11,12,2,21,9,1,-3
200,83,220,1,80,11,0,2,21,9,0,-3
201,71,221,1,95,11,-12,2,9,9,-1,-4
202,81,222,1,80,9,10,2,19,7,1,-3
203,81,223,1,80,9,0,2,19,7,0,-3
204,78,224,1,105,6,-3,2,16,4,-1,-4
205,79,225,2,80,7,1,2,17,5,1,-3
206,78,227,1,95,6,-1,2,16,4,-1,-4
207,74,228,1,80,2,-4,2,12,0,-1,-5
208,71,229,1,80,11,-3,2,9,9,-1,-6
209,69,230,1,105,9,-2,2,7,7,-1,-7
210,66,231,1,80,6,-3,2,4,4,-1,-8
211,74,232,1,80,2,8,2,12,0,1,-7
212,69,233,1,95,9,-5,2,7,7,-1,-8
213,66,234,1,80,6,-3,2,4,4,-1,-9
214,64,235,1,80,4,-2,2,2,2,-1,-10
215,62,236,1,105,2,-2,2,0,0,-1,-11
216,66,237,1,80,6,4,2,4,4,1,-10
217,69,238,1,80,9,3,2,7,7,1,-9
218,71,239,2,95,11,2,2,9,9,1,-8
219,69,241,1,80,9,-2,2,7,7,-1,-9
220,71,242,1,105,11,2,2,9,9,1,-8
221,83,243,1,80,11,12,2,21,9,1,-7
222,83,244,1,80,11,0,2,21,9,0,-7
223,71,245,1,95,11,-12,2,9,9,-1,-8
224,81,246,1,80,9,10,2,19,7,1,-7
225,81,247,1,80,9,0,2,19,7,0,-7
226,78,248,3,105,6,-3,2,16,4,-1,-8
227,78,251,1,95,6,0,2,16,4,0,-8
228,74,252,1,80,2,-4,2,12,0,-1,-9
229,71,253,1,80,11,-3,2,9,9,-1,-10
230,71,254,1,105,11,0,2,9,9,0,-10
231,83,255,1,80,11,12,2,21,9,1,-9
232,83,256,1,80,11,0,2,21,9,0,-9
233,71,257,1,95,11,-12,2,9,9,-1,-10
234,81,258,1,80,9,10,2,19,7,1,-9
235,81,259,1,80,9,0,2,19,7,0,-9
236,76,260,1,105,4,-5,2,14,2,-1,-10
237,73,261,1,80,1,-3,2,11,11,-1,-11
238,69,262,1,80,9,-4,2,7,7,-1,-12
239,71,263,2,95,11,2,2,9,9,1,-11
240,69,265,1,80,9,-2,2,7,7,-1,-12
241,71,266,1,105,11,2,2,9,9,1,-11
242,83,267,1,80,11,12,2,21,9,1,-10
243,83,268,1,80,11,0,2,21,9,0,-10
244,71,269,1,95,11,-12,2,9,9,-1,-11
245,81,270,1,80,9,10,2,19,7,1,-10
246,81,271,1,80,9,0,2,19,7,0,-10
247,78,272,1,105,6,-3,2,16,4,-1,-11
248,79,273,2,80,7,1,2,17,5,1,-10
249,78,275,1,95,6,-1,2,16,4,-1,-11
250,74,276,1,80,2,-4,2,12,0,-1,-12
251,71,277,1,80,11,-3,2,9,9,-1,-13
252,69,278,1,105,9,-2,2,7,7,-1,-14
253,66,279,1,80,6,-3,2,4,4,-1,-15
254,74,280,1,80,2,8,2,12,0,1,-14
255,69,281,1,95,9,-5,2,7,7,-1,-15
256,66,282,1,80,6,-3,2,4,4,-1,-16
257,64,283,1,80,4,-2,2,2,2,-1,-17
258,62,284,1,105,2,-2,2,0,0,-1,-18
259,66,285,1,80,6,4,2,4,4,1,-17
260,69,286,1,80,9,3,2,7,7,1,-16
261,71,287,2,95,11,2,2,9,9,1,-15
