,midi_note,onset,duration,velocity,pitch_class,interval,root,relative_pitch,relative_pitch_class,parsons_code,parsons_cumsum
0,62,0,1,105,2,0,7,-5,7,0,0
1,67,1,1,80,7,5,7,0,0,1,1
2,67,2,2,80,7,0,7,0,0,0,1
3,69,4,1,95,9,2,7,2,2,1,2
4,67,5,1,80,7,-2,7,0,0,-1,1
5,67,6,2,80,7,0,7,0,0,0,1
6,62,8,1,105,2,-5,7,-5,7,-1,0
7,67,9,1,80,7,5,7,0,0,1,1
8,67,10,2,80,7,0,7,0,0,0,1
9,72,12,1,95,0,5,7,5,5,1,2
10,69,13,1,80,9,-3,7,2,2,-1,1
11,66,14,1,80,6,-3,7,-1,11,-1,0
12,69,15,1,80,9,3,7,2,2,1,1
13,62,16,1,105,2,-7,7,-5,7,-1,0
14,67,17,1,80,7,5,7,0,0,1,1
15,67,18,2,80,7,0,7,0,0,0,1
16,69,20,1,95,9,2,7,2,2,1,2
17,67,21,1,80,7,-2,7,0,0,-1,1
18,67,22,2,80,7,0,7,0,0,0,1
19,74,24,1,105,2,7,7,7,7,1,2
20,76,25,1,80,4,2,7,9,9,1,3
21,78,26,1,80,6,2,7,11,11,1,4
22,74,27,1,80,2,-4,7,7,7,-1,3
23,72,28,1,95,0,-2,7,5,5,-1,2
24,69,29,1,80,9,-3,7,2,2,-1,1
25,66,30,1,80,6,-3,7,-1,11,-1,0
26,69,31,1,80,9,3,7,2,2,1,1
27,62,32,1,105,2,-7,7,-5,7,-1,0
28,67,33,1,80,7,5,7,0,0,1,1
29,67,34,2,80,7,0,7,0,0,0,1
30,69,36,1,95,9,2,7,2,2,1,2
31,67,37,1,80,7,-2,7,0,0,-1,1
32,67,38,2,80,7,0,7,0,0,0,1
33,62,40,1,105,2,-5,7,-5,7,-1,0
34,67,41,1,80,7,5,7,0,0,1,1
35,67,42,2,80,7,0,7,0,0,0,1
36,72,44,1,95,0,5,7,5,5,1,2
37,69,45,1,80,9,-3,7,2,2,-1,1
38,66,46,1,80,6,-3,7,-1,11,-1,0
39,69,47,1,80,9,3,7,2,2,1,1
40,71,48,2,105,11,2,7,4,4,1,2
41,71,50,1,80,11,0,7,4,4,0,2
42,67,51,1,80,7,-4,7,0,0,-1,1
43,69,52,1,95,9,2,7,2,2,1,2
44,71,53,1,80,11,2,7,4,4,1,3
45,72,54,1,80,0,1,7,5,5,1,4
46,69,55,1,80,9,-3,7,2,2,-1,3
47,74,56,1,105,2,5,7,7,7,1,4
48,76,57,1,80,4,2,7,9,9,1,5
49,78,58,1,80,6,2,7,11,11,1,6
50,74,59,1,80,2,-4,7,7,7,-1,5
51,72,60,1,95,0,-2,7,5,5,-1,4
52,69,61,1,80,9,-3,7,2,2,-1,3
53,66,62,1,80,6,-3,7,-1,11,-1,2
54,69,63,1,80,9,3,7,2,2,1,3
55,71,64,2,105,11,2,7,4,4,1,4
56,71,66,1,80,11,0,7,4,4,0,4
57,67,67,1,80,7,-4,7,0,0,-1,3
58,69,68,3,95,9,2,7,2,2,1,4
59,67,71,1,80,7,-2,7,0,0,-1,3
60,71,72,0,105,11,4,7,4,4,1,4
61,72,72,0,80,0,1,7,5,5,1,5
62,71,73,0,80,11,-1,7,4,4,-1,4
63,71,74,1,80,11,0,7,4,4,0,4
64,67,75,1,80,7,-4,7,0,0,-1,3
65,72,76,1,95,0,5,7,5,5,1,4
66,69,77,1,80,9,-3,7,2,2,-1,3
67,66,78,1,80,6,-3,7,-1,11,-1,2
68,69,79,1,80,9,3,7,2,2,1,3
69,71,80,2,105,11,2,7,4,4,1,4
70,71,82,1,80,11,0,7,4,4,0,4
71,67,83,1,80,7,-4,7,0,0,-1,3
72,69,84,1,95,9,2,7,2,2,1,4
73,71,85,1,80,11,2,7,4,4,1,5
74,72,86,1,80,0,1,7,5,5,1,6
75,69,87,1,80,9,-3,7,2,2,-1,5
76,74,88,1,105,2,5,7,7,7,1,6
77,76,89,1,80,4,2,7,9,9,1,7
78,78,90,1,80,6,2,7,11,11,1,8
79,74,91,1,80,2,-4,7,7,7,-1,7
80,72,92,1,95,0,-2,7,5,5,-1,6
81,69,93,1,80,9,-3,7,2,2,-1,5
82,66,94,1,80,6,-3,7,-1,11,-1,4
83,69,95,1,80,9,3,7,2,2,1,5
84,71,96,2,105,11,2,7,4,4,1,6
85,71,98,1,80,11,0,7,4,4,0,6
86,67,99,1,80,7,-4,7,0,0,-1,5
87,69,100,3,95,9,2,7,2,2,1,6
88,67,103,1,80,7,-2,7,0,0,-1,5
89,71,104,0,105,11,4,7,4,4,1,6
90,72,104,0,80,0,1,7,5,5,1,7
91,71,105,0,80,11,-1,7,4,4,-1,6
92,71,106,1,80,11,0,7,4,4,0,6
93,67,107,1,80,7,-4,7,0,0,-1,5
94,72,108,1,95,0,5,7,5,5,1,6
95,69,109,1,80,9,-3,7,2,2,-1,5
96,66,110,1,80,6,-3,7,-1,11,-1,4
97,69,111,1,80,9,3,7,2,2,1,5
98,71,112,2,105,11,2,7,4,4,1,6
99,71,114,1,80,11,0,7,4,4,0,6
100,67,115,1,80,7,-4,7,0,0,-1,5
101,69,116,1,95,9,2,7,2,2,1,6
102,71,117,1,80,11,2,7,4,4,1,7
103,72,118,1,80,0,1,7,5,5,1,8
104,69,119,1,80,9,-3,7,2,2,-1,7
105,74,120,1,105,2,5,7,7,7,1,8
106,76,121,1,80,4,2,7,9,9,1,9
107,78,122,1,80,6,2,7,11,11,1,10
108,74,123,1,80,2,-4,7,7,7,-1,9
109,72,124,1,95,0,-2,7,5,5,-1,8
110,69,125,1,80,9,-3,7,2,2,-1,7
111,66,126,1,80,6,-3,7,-1,11,-1,6
112,69,127,1,80,9,3,7,2,2,1,7
113,74,128,1,105,2,5,7,7,7,1,8
114,79,129,1,80,7,5,7,12,0,1,9
115,79,130,2,80,7,0,7,12,0,0,9
116,81,132,1,95,9,2,7,14,2,1,10
117,79,133,1,80,7,-2,7,12,0,-1,9
118,79,134,2,80,7,0,7,12,0,0,9
119,74,136,1,105,2,-5,7,7,7,-1,8
120,79,137,1,80,7,5,7,12,0,1,9
121,79,138,2,80,7,0,7,12,0,0,9
122,83,140,1,95,11,4,7,16,4,1,10
123,79,141,1,80,7,-4,7,12,0,-1,9
124,81,142,1,80,9,2,7,14,2,1,10
125,78,143,1,80,6,-3,7,11,11,-1,9
126,74,144,1,105,2,-4,7,7,7,-1,8
127,78,145,1,80,6,4,7,11,11,1,9
128,78,146,2,80,6,0,7,11,11,0,9
129,81,148,1,95,9,3,7,14,2,1,10
130,78,149,1,80,6,-3,7,11,11,-1,9
131,78,150,2,80,6,0,7,11,11,0,9
132,74,152,1,105,2,-4,7,7,7,-1,8
133,76,153,1,80,4,2,7,9,9,1,9
134,78,154,1,80,6,2,7,11,11,1,10
135,74,155,1,80,2,-4,7,7,7,-1,9
136,72,156,1,95,0,-2,7,5,5,-1,8
137,69,157,1,80,9,-3,7,2,2,-1,7
138,66,158,1,80,6,-3,7,-1,11,-1,6
139,69,159,1,80,9,3,7,2,2,1,7
140,74,160,1,105,2,5,7,7,7,1,8
141,79,161,1,80,7,5,7,12,0,1,9
142,79,162,2,80,7,0,7,12,0,0,9
143,81,164,1,95,9,2,7,14,2,1,10
144,79,165,1,80,7,-2,7,12,0,-1,9
145,79,166,2,80,7,0,7,12,0,0,9
146,74,168,1,105,2,-5,7,7,7,-1,8
147,79,169,1,80,7,5,7,12,0,1,9
148,79,170,0,80,7,0,7,12,0,0,9
149,78,170,0,80,6,-1,7,11,11,-1,8
150,79,171,1,80,7,1,7,12,0,1,9
151,81,172,2,95,9,2,7,14,2,1,10
152,79,174,1,80,7,-2,7,12,0,-1,9
153,81,175,1,80,9,2,7,14,2,1,10
154,83,176,2,105,11,2,7,16,4,1,11
155,83,178,1,80,11,0,7,16,4,0,11
156,79,179,1,80,7,-4,7,12,0,-1,10
157,81,180,1,95,9,2,7,14,2,1,11
158,78,181,1,80,6,-3,7,11,11,-1,10
159,79,182,1,80,7,1,7,12,0,1,11
160,78,183,1,80,6,-1,7,11,11,-1,10
161,74,184,1,105,2,-4,7,7,7,-1,9
162,76,185,1,80,4,2,7,9,9,1,10
163,78,186,1,80,6,2,7,11,11,1,11
164,74,187,1,80,2,-4,7,7,7,-1,10
165,72,188,1,95,0,-2,7,5,5,-1,9
166,69,189,1,80,9,-3,7,2,2,-1,8
167,66,190,1,80,6,-3,7,-1,11,-1,7
168,69,191,1,80,9,3,7,2,2,1,8
169,67,192,2,105,7,-2,7,0,0,-1,7
170,74,194,1,80,2,7,7,7,7,1,8
171,71,195,1,80,11,-3,7,4,4,-1,7
172,71,196,1,95,11,0,7,4,4,0,7
173,67,197,1,80,7,-4,7,0,0,-1,6
174,74,198,1,80,2,7,7,7,7,1,7
175,67,199,1,80,7,-7,7,0,0,-1,6
176,67,200,2,105,7,0,7,0,0,0,6
177,74,202,1,80,2,7,7,7,7,1,7
178,71,203,1,80,11,-3,7,4,4,-1,6
179,72,204,1,95,0,1,7,5,5,1,7
180,69,205,1,80,9,-3,7,2,2,-1,6
181,66,206,1,80,6,-3,7,-1,11,-1,5
182,69,207,1,80,9,3,7,2,2,1,6
183,67,208,2,105,7,-2,7,0,0,-1,5
184,74,210,1,80,2,7,7,7,7,1,6
185,67,211,1,80,7,-7,7,0,0,-1,5
186,71,212,1,95,11,4,7,4,4,1,6
187,67,213,1,80,7,-4,7,0,0,-1,5
188,71,214,1,80,11,4,7,4,4,1,6
189,72,215,1,80,0,1,7,5,5,1,7
190,74,216,1,105,2,2,7,7,7,1,8
191,76,217,1,80,4,2,7,9,9,1,9
192,78,218,1,80,6,2,7,11,11,1,10
193,74,219,1,80,2,-4,7,7,7,-1,9
194,72,220,1,95,0,-2,7,5,5,-1,8
195,69,221,1,80,9,-3,7,2,2,-1,7
196,66,222,1,80,6,-3,7,-1,11,-1,6
197,69,223,1,80,9,3,7,2,2,1,7
198,67,224,2,105,7,-2,7,0,0,-1,6
199,74,226,1,80,2,7,7,7,7,1,7
200,67,227,1,80,7,-7,7,0,0,-1,6
201,71,228,1,95,11,4,7,4,4,1,7
202,67,229,1,80,7,-4,7,0,0,-1,6
203,74,230,1,80,2,7,7,7,7,1,7
204,67,231,1,80,7,-7,7,0,0,-1,6
205,67,232,2,105,7,0,7,0,0,0,6
206,74,234,1,80,2,7,7,7,7,1,7
207,71,235,1,80,11,-3,7,4,4,-1,6
208,72,236,1,95,0,1,7,5,5,1,7
209,69,237,1,80,9,-3,7,2,2,-1,6
210,66,238,1,80,6,-3,7,-1,11,-1,5
211,69,239,1,80,9,3,7,2,2,1,6
212,67,240,1,105,7,-2,7,0,0,-1,5
213,69,241,1,80,9,2,7,2,2,1,6
214,71,242,1,80,11,2,7,4,4,1,7
215,67,243,1,80,7,-4,7,0,0,-1,6
216,69,244,1,95,9,2,7,2,2,1,7
217,71,245,1,80,11,2,7,4,4,1,8
218,72,246,1,80,0,1,7,5,5,1,9
219,69,247,1,80,9,-3,7,2,2,-1,8
220,74,248,1,105,2,5,7,7,7,1,9
221,76,249,1,80,4,2,7,9,9,1,10
222,78,250,1,80,6,2,7,11,11,1,11
223,74,251,1,80,2,-4,7,7,7,-1,10
224,72,252,1,95,0,-2,7,5,5,-1,9
225,69,253,1,80,9,-3,7,2,2,-1,8
226,66,254,1,80,6,-3,7,-1,11,-1,7
227,69,255,1,80,9,3,7,2,2,1,8
228,67,256,8,105,7,-2,7,0,0,-1,7
