,midi_note,onset,duration,velocity,pitch_class,interval,root,relative_pitch,relative_pitch_class,parsons_code,parsons_cumsum
0,62,0,1,105,2,0,7,-5,7,0,0
1,67,1,1,80,7,5,7,0,0,1,1
2,67,2,2,80,7,0,7,0,0,0,1
3,69,4,1,95,9,2,7,2,2,1,2
4,67,5,1,80,7,-2,7,0,0,-1,1
5,67,6,2,80,7,0,7,0,0,0,1
6,62,8,1,105,2,-5,7,-5,7,-1,0
7,67,9,1,80,7,5,7,0,0,1,1
8,67,10,2,80,7,0,7,0,0,0,1
9,72,12,1,95,0,5,7,5,5,1,2
10,69,13,1,80,9,-3,7,2,2,-1,1
11,67,14,1,80,7,-2,7,0,0,-1,0
12,66,15,1,80,6,-1,7,-1,11,-1,-1
13,62,16,1,105,2,-4,7,-5,7,-1,-2
14,67,17,1,80,7,5,7,0,0,1,-1
15,67,18,2,80,7,0,7,0,0,0,-1
16,69,20,1,95,9,2,7,2,2,1,0
17,67,21,1,80,7,-2,7,0,0,-1,-1
18,69,22,0,80,9,2,7,2,2,1,0
19,71,22,0,80,11,2,7,4,4,1,1
20,72,23,0,80,0,1,7,5,5,1,2
21,74,24,1,105,2,2,7,7,7,1,3
22,76,25,1,80,4,2,7,9,9,1,4
23,78,26,1,80,6,2,7,11,11,1,5
24,74,27,1,80,2,-4,7,7,7,-1,4
25,72,28,1,95,0,-2,7,5,5,-1,3
26,69,29,1,80,9,-3,7,2,2,-1,2
27,67,30,1,80,7,-2,7,0,0,-1,1
28,66,31,1,80,6,-1,7,-1,11,-1,0
29,62,32,1,105,2,-4,7,-5,7,-1,-1
30,67,33,1,80,7,5,7,0,0,1,0
31,69,34,0,80,9,2,7,2,2,1,1
32,67,34,1,80,7,-2,7,0,0,-1,0
33,69,36,1,95,9,2,7,2,2,1,1
34,67,37,1,80,7,-2,7,0,0,-1,0
35,66,38,1,80,6,-1,7,-1,11,-1,-1
36,62,39,1,80,2,-4,7,-5,7,-1,-2
37,62,40,1,105,2,0,7,-5,7,0,-2
38,67,41,1,80,7,5,7,0,0,1,-1
39,69,42,0,80,9,2,7,2,2,1,0
40,67,42,1,80,7,-2,7,0,0,-1,-1
41,72,44,1,95,0,5,7,5,5,1,0
42,69,45,1,80,9,-3,7,2,2,-1,-1
43,66,46,1,80,6,-3,7,-1,11,-1,-2
44,62,47,1,80,2,-4,7,-5,7,-1,-3
45,67,48,4,105,7,5,7,0,0,1,-2
46,72,52,2,95,0,5,7,5,5,1,-1
47,69,54,0,80,9,-3,7,2,2,-1,-2
48,71,54,0,80,11,2,7,4,4,1,-1
49,72,55,0,80,0,1,7,5,5,1,0
50,74,56,1,105,2,2,7,7,7,1,1
51,76,57,1,80,4,2,7,9,9,1,2
52,78,58,1,80,6,2,7,11,11,1,3
53,74,59,1,80,2,-4,7,7,7,-1,2
54,72,60,1,95,0,-2,7,5,5,-1,1
55,69,61,1,80,9,-3,7,2,2,-1,0
56,66,62,1,80,6,-3,7,-1,11,-1,-1
57,69,63,1,80,9,3,7,2,2,1,0
58,74,64,1,105,2,5,7,7,7,1,1
59,79,65,1,80,7,5,7,12,0,1,2
60,78,66,1,80,6,-1,7,11,11,-1,1
61,79,67,1,80,7,1,7,12,0,1,2
62,81,68,1,95,9,2,7,14,2,1,3
63,79,69,1,80,7,-2,7,12,0,-1,2
64,78,70,1,80,6,-1,7,11,11,-1,1
65,79,71,1,80,7,1,7,12,0,1,2
66,74,72,1,105,2,-5,7,7,7,-1,1
67,79,73,1,80,7,5,7,12,0,1,2
68,78,74,1,80,6,-1,7,11,11,-1,1
69,79,75,1,80,7,1,7,12,0,1,2
70,81,76,1,95,9,2,7,14,2,1,3
71,79,77,1,80,7,-2,7,12,0,-1,2
72,78,78,1,80,6,-1,7,11,11,-1,1
73,76,79,1,80,4,-2,7,9,9,-1,0
74,81,80,1,105,9,5,7,14,2,1,1
75,78,81,1,80,6,-3,7,11,11,-1,0
76,79,82,0,80,7,1,7,12,0,1,1
77,78,82,1,80,6,-1,7,11,11,-1,0
78,81,84,1,95,9,3,7,14,2,1,1
79,78,85,1,80,6,-3,7,11,11,-1,0
80,79,86,0,80,7,1,7,12,0,1,1
81,78,86,1,80,6,-1,7,11,11,-1,0
82,74,88,1,105,2,-4,7,7,7,-1,-1
83,76,89,1,80,4,2,7,9,9,1,0
84,78,90,1,80,6,2,7,11,11,1,1
85,74,91,1,80,2,-4,7,7,7,-1,0
86,72,92,1,95,0,-2,7,5,5,-1,-1
87,69,93,1,80,9,-3,7,2,2,-1,-2
88,66,94,1,80,6,-3,7,-1,11,-1,-3
89,62,95,1,80,2,-4,7,-5,7,-1,-4
90,74,96,1,105,2,12,7,7,7,1,-3
91,79,97,1,80,7,5,7,12,0,1,-2
92,81,98,0,80,9,2,7,14,2,1,-1
93,79,98,1,80,7,-2,7,12,0,-1,-2
94,83,100,1,95,11,4,7,16,4,1,-1
95,79,101,1,80,7,-4,7,12,0,-1,-2
96,78,102,1,80,6,-1,7,11,11,-1,-3
97,79,103,1,80,7,1,7,12,0,1,-2
98,81,104,1,105,9,2,7,14,2,1,-1
99,83,105,0,80,11,2,7,16,4,1,0
100,81,106,1,80,9,-2,7,14,2,-1,-1
101,79,107,1,80,7,-2,7,12,0,-1,-2
102,78,108,1,95,6,-1,7,11,11,-1,-3
103,76,109,1,80,4,-2,7,9,9,-1,-4
104,78,110,1,80,6,2,7,11,11,1,-3
105,79,111,1,80,7,1,7,12,0,1,-2
106,81,112,1,105,9,2,7,14,2,1,-1
107,78,113,1,80,6,-3,7,11,11,-1,-2
108,79,114,1,80,7,1,7,12,0,1,-1
109,76,115,1,80,4,-3,7,9,9,-1,-2
110,78,116,1,95,6,2,7,11,11,1,-1
111,81,117,1,80,9,3,7,14,2,1,0
112,76,118,1,80,4,-5,7,9,9,-1,-1
113,78,119,1,80,6,2,7,11,11,1,0
114,74,120,2,105,2,-4,7,7,7,-1,-1
115,76,122,1,80,4,2,7,9,9,1,0
116,79,123,1,80,7,3,7,12,0,1,1
117,78,124,1,95,6,-1,7,11,11,-1,0
118,74,125,1,80,2,-4,7,7,7,-1,-1
119,72,126,1,80,0,-2,7,5,5,-1,-2
120,69,127,1,80,9,-3,7,2,2,-1,-3
121,67,128,2,105,7,-2,7,0,0,-1,-4
122,74,130,1,80,2,7,7,7,7,1,-3
123,67,131,1,80,7,-7,7,0,0,-1,-4
124,62,132,1,95,2,-5,7,-5,7,-1,-5
125,67,133,1,80,7,5,7,0,0,1,-4
126,74,134,1,80,2,7,7,7,7,1,-3
127,67,135,1,80,7,-7,7,0,0,-1,-4
128,67,136,2,105,7,0,7,0,0,0,-4
129,71,138,1,80,11,4,7,4,4,1,-3
130,74,139,1,80,2,3,7,7,7,1,-2
131,72,140,1,95,0,-2,7,5,5,-1,-3
132,69,141,1,80,9,-3,7,2,2,-1,-4
133,66,142,1,80,6,-3,7,-1,11,-1,-5
134,62,143,1,80,2,-4,7,-5,7,-1,-6
135,67,144,2,105,7,5,7,0,0,1,-5
136,74,146,1,80,2,7,7,7,7,1,-4
137,67,147,1,80,7,-7,7,0,0,-1,-5
138,62,148,1,95,2,-5,7,-5,7,-1,-6
139,67,149,1,80,7,5,7,0,0,1,-5
140,71,150,1,80,11,4,7,4,4,1,-4
141,72,151,1,80,0,1,7,5,5,1,-3
142,74,152,1,105,2,2,7,7,7,1,-2
143,76,153,1,80,4,2,7,9,9,1,-1
144,78,154,1,80,6,2,7,11,11,1,0
145,74,155,1,80,2,-4,7,7,7,-1,-1
146,72,156,1,95,0,-2,7,5,5,-1,-2
147,69,157,1,80,9,-3,7,2,2,-1,-3
148,66,158,1,80,6,-3,7,-1,11,-1,-4
149,62,159,1,80,2,-4,7,-5,7,-1,-5
150,67,160,2,105,7,5,7,0,0,1,-4
151,74,162,1,80,2,7,7,7,7,1,-3
152,67,163,1,80,7,-7,7,0,0,-1,-4
153,62,164,1,95,2,-5,7,-5,7,-1,-5
154,67,165,1,80,7,5,7,0,0,1,-4
155,74,166,1,80,2,7,7,7,7,1,-3
156,67,167,1,80,7,-7,7,0,0,-1,-4
157,67,168,2,105,7,0,7,0,0,0,-4
158,71,170,1,80,11,4,7,4,4,1,-3
159,71,171,1,80,11,0,7,4,4,0,-3
160,72,172,1,95,0,1,7,5,5,1,-2
161,69,173,1,80,9,-3,7,2,2,-1,-3
162,66,174,1,80,6,-3,7,-1,11,-1,-4
163,62,175,1,80,2,-4,7,-5,7,-1,-5
164,67,176,2,105,7,5,7,0,0,1,-4
165,71,178,1,80,11,4,7,4,4,1,-3
166,67,179,1,80,7,-4,7,0,0,-1,-4
167,62,180,1,95,2,-5,7,-5,7,-1,-5
168,67,181,1,80,7,5,7,0,0,1,-4
169,71,182,1,80,11,4,7,4,4,1,-3
170,72,183,1,80,0,1,7,5,5,1,-2
171,74,184,1,105,2,2,7,7,7,1,-1
172,76,185,1,80,4,2,7,9,9,1,0
173,78,186,1,80,6,2,7,11,11,1,1
174,74,187,1,80,2,-4,7,7,7,-1,0
175,72,188,1,95,0,-2,7,5,5,-1,-1
176,69,189,1,80,9,-3,7,2,2,-1,-2
177,66,190,1,80,6,-3,7,-1,11,-1,-3
178,69,191,1,80,9,3,7,2,2,1,-2
179,79,192,2,105,7,10,7,12,0,1,-1
180,83,194,1,80,11,4,7,16,4,1,0
181,79,195,1,80,7,-4,7,12,0,-1,-1
182,81,196,1,95,9,2,7,14,2,1,0
183,79,197,1,80,7,-2,7,12,0,-1,-1
184,81,198,1,80,9,2,7,14,2,1,0
185,83,199,1,80,11,2,7,16,4,1,1
186,79,200,2,105,7,-4,7,12,0,-1,0
187,83,202,1,80,11,4,7,16,4,1,1
188,79,203,1,80,7,-4,7,12,0,-1,0
189,74,204,1,95,2,-5,7,7,7,-1,-1
190,76,205,1,80,4,2,7,9,9,1,0
191,78,206,1,80,6,2,7,11,11,1,1
192,81,207,1,80,9,3,7,14,2,1,2
193,79,208,2,105,7,-2,7,12,0,-1,1
194,83,210,1,80,11,4,7,16,4,1,2
195,79,211,1,80,7,-4,7,12,0,-1,1
196,81,212,1,95,9,2,7,14,2,1,2
197,79,213,1,80,7,-2,7,12,0,-1,1
198,83,214,1,80,11,4,7,16,4,1,2
199,79,215,1,80,7,-4,7,12,0,-1,1
200,74,216,1,105,2,-5,7,7,7,-1,0
201,76,217,1,80,4,2,7,9,9,1,1
202,78,218,1,80,6,2,7,11,11,1,2
203,74,219,1,80,2,-4,7,7,7,-1,1
204,72,220,1,95,0,-2,7,5,5,-1,0
205,69,221,1,80,9,-3,7,2,2,-1,-1
206,66,222,1,80,6,-3,7,-1,11,-1,-2
207,69,223,1,80,9,3,7,2,2,1,-1
208,79,224,2,105,7,10,7,12,0,1,0
209,83,226,1,80,11,4,7,16,4,1,1
210,79,227,1,80,7,-4,7,12,0,-1,0
211,81,228,1,95,9,2,7,14,2,1,1
212,79,229,1,80,7,-2,7,12,0,-1,0
213,81,230,1,80,9,2,7,14,2,1,1
214,83,231,1,80,11,2,7,16,4,1,2
215,79,232,2,105,7,-4,7,12,0,-1,1
216,83,234,1,80,11,4,7,16,4,1,2
217,79,235,1,80,7,-4,7,12,0,-1,1
218,74,236,1,95,2,-5,7,7,7,-1,0
219,76,237,1,80,4,2,7,9,9,1,1
220,78,238,1,80,6,2,7,11,11,1,2
221,79,239,1,80,7,1,7,12,0,1,3
222,81,240,1,105,9,2,7,14,2,1,4
223,83,241,1,80,11,2,7,16,4,1,5
224,81,242,1,80,9,-2,7,14,2,-1,4
225,79,243,1,80,7,-2,7,12,0,-1,3
226,78,244,2,95,6,-1,7,11,11,-1,2
227,78,246,1,80,6,0,7,11,11,0,2
228,76,247,1,80,4,-2,7,9,9,-1,1
229,74,248,2,105,2,-2,7,7,7,-1,0
230,76,250,1,80,4,2,7,9,9,1,1
231,74,251,1,80,2,-2,7,7,7,-1,0
232,72,252,1,95,0,-2,7,5,5,-1,-1
233,69,253,1,80,9,-3,7,2,2,-1,-2
234,66,254,1,80,6,-3,7,-1,11,-1,-3
235,69,255,1,80,9,3,7,2,2,1,-2
236,71,256,1,105,11,2,7,4,4,1,-1
237,74,257,1,80,2,3,7,7,7,1,0
238,71,258,1,80,11,-3,7,4,4,-1,-1
239,67,259,1,80,7,-4,7,0,0,-1,-2
240,69,260,1,95,9,2,7,2,2,1,-1
241,72,261,1,80,0,3,7,5,5,1,0
242,69,262,1,80,9,-3,7,2,2,-1,-1
243,66,263,1,80,6,-3,7,-1,11,-1,-2
244,67,264,2,105,7,1,7,0,0,1,-1
245,66,266,1,80,6,-1,7,-1,11,-1,-2
246,67,267,1,80,7,1,7,0,0,1,-1
247,72,268,1,95,0,5,7,5,5,1,0
248,69,269,1,80,9,-3,7,2,2,-1,-1
249,66,270,1,80,6,-3,7,-1,11,-1,-2
250,69,271,1,80,9,3,7,2,2,1,-1
251,71,272,1,105,11,2,7,4,4,1,0
252,74,273,1,80,2,3,7,7,7,1,1
253,71,274,1,80,11,-3,7,4,4,-1,0
254,67,275,1,80,7,-4,7,0,0,-1,-1
255,69,276,2,95,9,2,7,2,2,1,0
256,69,278,0,80,9,0,7,2,2,0,0
257,71,278,0,80,11,2,7,4,4,1,1
258,72,279,0,80,0,1,7,5,5,1,2
259,74,280,1,105,2,2,7,7,7,1,3
260,76,281,1,80,4,2,7,9,9,1,4
261,78,282,1,80,6,2,7,11,11,1,5
262,74,283,1,80,2,-4,7,7,7,-1,4
263,72,284,1,95,0,-2,7,5,5,-1,3
264,69,285,1,80,9,-3,7,2,2,-1,2
265,66,286,1,80,6,-3,7,-1,11,-1,1
266,69,287,1,80,9,3,7,2,2,1,2
267,71,288,2,105,11,2,7,4,4,1,3
268,69,290,1,80,9,-2,7,2,2,-1,2
269,71,291,1,80,11,2,7,4,4,1,3
270,69,292,2,95,9,-2,7,2,2,-1,2
271,69,294,0,80,9,0,7,2,2,0,2
272,71,294,0,80,11,2,7,4,4,1,3
273,69,295,1,80,9,-2,7,2,2,-1,2
274,67,296,2,105,7,-2,7,0,0,-1,1
275,67,298,1,80,7,0,7,0,0,0,1
276,69,299,1,80,9,2,7,2,2,1,2
277,72,300,1,95,0,3,7,5,5,1,3
278,69,301,1,80,9,-3,7,2,2,-1,2
279,66,302,1,80,6,-3,7,-1,11,-1,1
280,69,303,1,80,9,3,7,2,2,1,2
281,71,304,2,105,11,2,7,4,4,1,3
282,71,306,0,80,11,0,7,4,4,0,3
283,72,306,0,80,0,1,7,5,5,1,4
284,71,307,1,80,11,-1,7,4,4,-1,3
285,72,308,2,95,0,1,7,5,5,1,4
286,69,310,0,80,9,-3,7,2,2,-1,3
287,67,310,0,80,7,-2,7,0,0,-1,2
288,69,311,1,80,9,2,7,2,2,1,3
289,74,312,2,105,2,5,7,7,7,1,4
290,78,314,1,80,6,4,7,11,11,1,5
291,74,315,1,80,2,-4,7,7,7,-1,4
292,72,316,1,95,0,-2,7,5,5,-1,3
293,69,317,1,80,9,-3,7,2,2,-1,2
294,66,318,1,80,6,-3,7,-1,11,-1,1
295,69,319,1,80,9,3,7,2,2,1,2
296,67,320,1,105,7,-2,7,0,0,-1,1
297,69,321,1,80,9,2,7,2,2,1,2
298,71,322,1,80,11,2,7,4,4,1,3
299,74,323,1,80,2,3,7,7,7,1,4
300,67,324,2,95,7,-7,7,0,0,-1,3
301,62,326,1,80,2,-5,7,-5,7,-1,2
302,67,327,1,80,7,5,7,0,0,1,3
303,67,328,2,105,7,0,7,0,0,0,3
304,71,330,1,80,11,4,7,4,4,1,4
305,74,331,1,80,2,3,7,7,7,1,5
306,72,332,1,95,0,-2,7,5,5,-1,4
307,69,333,1,80,9,-3,7,2,2,-1,3
308,66,334,1,80,6,-3,7,-1,11,-1,2
309,69,335,1,80,9,3,7,2,2,1,3
310,67,336,1,105,7,-2,7,0,0,-1,2
311,71,337,1,80,11,4,7,4,4,1,3
312,69,338,1,80,9,-2,7,2,2,-1,2
313,66,339,1,80,6,-3,7,-1,11,-1,1
314,67,340,2,95,7,1,7,0,0,1,2
315,71,342,1,80,11,4,7,4,4,1,3
316,74,343,1,80,2,3,7,7,7,1,4
317,74,344,2,105,2,0,7,7,7,0,4
318,78,346,1,80,6,4,7,11,11,1,5
319,74,347,1,80,2,-4,7,7,7,-1,4
320,72,348,1,95,0,-2,7,5,5,-1,3
321,69,349,1,80,9,-3,7,2,2,-1,2
322,66,350,1,80,6,-3,7,-1,11,-1,1
323,69,351,1,80,9,3,7,2,2,1,2
324,67,352,1,105,7,-2,7,0,0,-1,1
325,71,353,1,80,11,4,7,4,4,1,2
326,69,354,1,80,9,-2,7,2,2,-1,1
327,66,355,1,80,6,-3,7,-1,11,-1,0
328,67,356,2,95,7,1,7,0,0,1,1
329,62,358,1,80,2,-5,7,-5,7,-1,0
330,66,359,1,80,6,4,7,-1,11,1,1
331,67,360,1,105,7,1,7,0,0,1,2
332,69,361,1,80,9,2,7,2,2,1,3
333,71,362,1,80,11,2,7,4,4,1,4
334,74,363,1,80,2,3,7,7,7,1,5
335,72,364,1,95,0,-2,7,5,5,-1,4
336,69,365,1,80,9,-3,7,2,2,-1,3
337,66,366,1,80,6,-3,7,-1,11,-1,2
338,62,367,1,80,2,-4,7,-5,7,-1,1
339,64,368,1,105,4,2,7,-3,9,1,2
340,67,369,1,80,7,3,7,0,0,1,3
341,69,370,1,80,9,2,7,2,2,1,4
342,71,371,1,80,11,2,7,4,4,1,5
343,72,372,2,95,0,1,7,5,5,1,6
344,69,374,0,80,9,-3,7,2,2,-1,5
345,71,374,0,80,11,2,7,4,4,1,6
346,72,375,0,80,0,1,7,5,5,1,7
347,74,376,1,105,2,2,7,7,7,1,8
348,76,377,1,80,4,2,7,9,9,1,9
349,78,378,1,80,6,2,7,11,11,1,10
350,74,379,1,80,2,-4,7,7,7,-1,9
351,72,380,1,95,0,-2,7,5,5,-1,8
352,69,381,1,80,9,-3,7,2,2,-1,7
353,67,382,1,80,7,-2,7,0,0,-1,6
354,66,383,1,80,6,-1,7,-1,11,-1,5
355,67,384,8,105,7,1,7,0,0,1,6
