,midi_note,onset,duration,velocity,pitch_class,interval,root,relative_pitch,relative_pitch_class,parsons_code,parsons_cumsum
0,69,0,2,105,9,0,9,0,0,0,0
1,64,2,1,80,4,-5,9,-5,7,-1,-1
2,64,3,1,95,4,0,9,-5,7,0,-1
3,62,4,1,80,2,-2,9,-7,5,-1,-2
4,64,5,1,80,4,2,9,-5,7,1,-1
5,72,6,2,95,0,8,9,3,3,1,0
6,69,8,1,80,9,-3,9,0,0,-1,-1
7,69,9,2,105,9,0,9,0,0,0,-1
8,71,11,1,80,11,2,9,2,2,1,0
9,72,12,2,95,0,1,9,3,3,1,1
10,74,14,1,80,2,2,9,5,5,1,2
11,76,15,1,95,4,2,9,7,7,1,3
12,72,16,1,80,0,-4,9,3,3,-1,2
13,69,17,1,80,9,-3,9,0,0,-1,1
14,69,18,2,105,9,0,9,0,0,0,1
15,64,20,1,80,4,-5,9,-5,7,-1,0
16,64,21,1,95,4,0,9,-5,7,0,0
17,62,22,1,80,2,-2,9,-7,5,-1,-1
18,64,23,1,80,4,2,9,-5,7,1,0
19,72,24,2,95,0,8,9,3,3,1,1
20,69,26,1,80,9,-3,9,0,0,-1,0
21,71,27,2,105,11,2,9,2,2,1,1
22,67,29,1,80,7,-4,9,-2,10,-1,0
23,67,30,2,95,7,0,9,-2,10,0,0
24,71,32,1,80,11,4,9,2,2,1,1
25,74,33,1,95,2,3,9,5,5,1,2
26,71,34,1,80,11,-3,9,2,2,-1,1
27,67,35,1,80,7,-4,9,-2,10,-1,0
28,69,36,2,105,9,2,9,0,0,1,1
29,64,38,1,80,4,-5,9,-5,7,-1,0
30,64,39,1,95,4,0,9,-5,7,0,0
31,62,40,1,80,2,-2,9,-7,5,-1,-1
32,64,41,1,80,4,2,9,-5,7,1,0
33,72,42,2,95,0,8,9,3,3,1,1
34,69,44,1,80,9,-3,9,0,0,-1,0
35,69,45,2,105,9,0,9,0,0,0,0
36,71,47,1,80,11,2,9,2,2,1,1
37,72,48,2,95,0,1,9,3,3,1,2
38,74,50,1,80,2,2,9,5,5,1,3
39,76,51,1,95,4,2,9,7,7,1,4
40,72,52,1,80,0,-4,9,3,3,-1,3
41,69,53,1,80,9,-3,9,0,0,-1,2
42,69,54,2,105,9,0,9,0,0,0,2
43,64,56,1,80,4,-5,9,-5,7,-1,1
44,64,57,1,95,4,0,9,-5,7,0,1
45,62,58,1,80,2,-2,9,-7,5,-1,0
46,64,59,1,80,4,2,9,-5,7,1,1
47,72,60,2,95,0,8,9,3,3,1,2
48,69,62,1,80,9,-3,9,0,0,-1,1
49,71,63,2,105,11,2,9,2,2,1,2
50,67,65,1,80,7,-4,9,-2,10,-1,1
51,67,66,2,95,7,0,9,-2,10,0,1
52,71,68,1,80,11,4,9,2,2,1,2
53,74,69,1,95,2,3,9,5,5,1,3
54,71,70,1,80,11,-3,9,2,2,-1,2
55,67,71,1,80,7,-4,9,-2,10,-1,1
56,69,72,2,105,9,2,9,0,0,1,2
57,76,74,1,80,4,7,9,7,7,1,3
58,76,75,2,95,4,0,9,7,7,0,3
59,74,77,1,80,2,-2,9,5,5,-1,2
60,76,78,2,95,4,2,9,7,7,1,3
61,72,80,1,80,0,-4,9,3,3,-1,2
62,69,81,2,105,9,-3,9,0,0,-1,1
63,71,83,1,80,11,2,9,2,2,1,2
64,72,84,2,95,0,1,9,3,3,1,3
65,74,86,1,80,2,2,9,5,5,1,4
66,76,87,1,95,4,2,9,7,7,1,5
67,72,88,1,80,0,-4,9,3,3,-1,4
68,69,89,1,80,9,-3,9,0,0,-1,3
69,69,90,2,105,9,0,9,0,0,0,3
70,76,92,1,80,4,7,9,7,7,1,4
71,76,93,2,95,4,0,9,7,7,0,4
72,74,95,1,80,2,-2,9,5,5,-1,3
73,76,96,1,95,4,2,9,7,7,1,4
74,78,97,1,80,6,2,9,9,9,1,5
75,79,98,1,80,7,1,9,10,10,1,6
76,71,99,2,105,11,-8,9,2,2,-1,5
77,67,101,1,80,7,-4,9,-2,10,-1,4
78,67,102,2,95,7,0,9,-2,10,0,4
79,71,104,1,80,11,4,9,2,2,1,5
80,74,105,1,95,2,3,9,5,5,1,6
81,71,106,1,80,11,-3,9,2,2,-1,5
82,67,107,1,80,7,-4,9,-2,10,-1,4
83,69,108,2,105,9,2,9,0,0,1,5
84,76,110,1,80,4,7,9,7,7,1,6
85,76,111,2,95,4,0,9,7,7,0,6
86,74,113,1,80,2,-2,9,5,5,-1,5
87,76,114,2,95,4,2,9,7,7,1,6
88,72,116,1,80,0,-4,9,3,3,-1,5
89,69,117,2,105,9,-3,9,0,0,-1,4
90,71,119,1,80,11,2,9,2,2,1,5
91,72,120,2,95,0,1,9,3,3,1,6
92,74,122,1,80,2,2,9,5,5,1,7
93,76,123,1,95,4,2,9,7,7,1,8
94,78,124,1,80,6,2,9,9,9,1,9
95,79,125,1,80,7,1,9,10,10,1,10
96,81,126,1,105,9,2,9,12,0,1,11
97,79,127,1,80,7,-2,9,10,10,-1,10
98,78,128,1,80,6,-1,9,9,9,-1,9
99,79,129,1,95,7,1,9,10,10,1,10
100,78,130,1,80,6,-1,9,9,9,-1,9
101,76,131,1,80,4,-2,9,7,7,-1,8
102,74,132,1,95,2,-2,9,5,5,-1,7
103,72,133,1,80,0,-2,9,3,3,-1,6
104,71,134,1,80,11,-1,9,2,2,-1,5
105,74,135,1,105,2,3,9,5,5,1,6
106,76,136,1,80,4,2,9,7,7,1,7
107,78,137,1,80,6,2,9,9,9,1,8
108,79,138,1,95,7,1,9,10,10,1,9
109,78,139,1,80,6,-1,9,9,9,-1,8
110,76,140,1,80,4,-2,9,7,7,-1,7
111,74,141,1,95,2,-2,9,5,5,-1,6
112,72,142,1,80,0,-2,9,3,3,-1,5
113,71,143,1,80,11,-1,9,2,2,-1,4
