,midi_note,onset,duration,velocity,pitch_class,interval,root,relative_pitch,relative_pitch_class,parsons_code,parsons_cumsum
0,74,0,1,105,2,0,7,7,7,0,0
1,72,1,1,80,0,-2,7,5,5,-1,-1
2,71,2,1,105,11,-1,7,4,4,-1,-2
3,67,3,1,80,7,-4,7,0,0,-1,-3
4,67,4,2,80,7,0,7,0,0,0,-3
5,69,6,1,95,9,2,7,2,2,1,-2
6,67,7,1,80,7,-2,7,0,0,-1,-3
7,67,8,2,80,7,0,7,0,0,0,-3
8,62,10,1,105,2,-5,7,-5,7,-1,-4
9,67,11,1,80,7,5,7,0,0,1,-3
10,67,12,2,80,7,0,7,0,0,0,-3
11,69,14,2,95,9,2,7,2,2,1,-2
12,74,16,1,80,2,5,7,7,7,1,-1
13,72,17,1,80,0,-2,7,5,5,-1,-2
14,71,18,1,105,11,-1,7,4,4,-1,-3
15,67,19,1,80,7,-4,7,0,0,-1,-4
16,67,20,2,80,7,0,7,0,0,0,-4
17,69,22,1,95,9,2,7,2,2,1,-3
18,67,23,1,80,7,-2,7,0,0,-1,-4
19,69,24,1,80,9,2,7,2,2,1,-3
20,71,25,1,80,11,2,7,4,4,1,-2
21,72,26,2,105,0,1,7,5,5,1,-1
22,71,28,1,80,11,-1,7,4,4,-1,-2
23,72,29,1,80,0,1,7,5,5,1,-1
24,69,30,2,95,9,-3,7,2,2,-1,-2
25,74,32,1,80,2,5,7,7,7,1,-1
26,72,33,1,80,0,-2,7,5,5,-1,-2
27,71,34,1,105,11,-1,7,4,4,-1,-3
28,67,35,1,80,7,-4,7,0,0,-1,-4
29,67,36,2,80,7,0,7,0,0,0,-4
30,69,38,1,95,9,2,7,2,2,1,-3
31,67,39,1,80,7,-2,7,0,0,-1,-4
32,67,40,2,80,7,0,7,0,0,0,-4
33,62,42,1,105,2,-5,7,-5,7,-1,-5
34,67,43,1,80,7,5,7,0,0,1,-4
35,67,44,2,80,7,0,7,0,0,0,-4
36,69,46,2,95,9,2,7,2,2,1,-3
37,74,48,1,80,2,5,7,7,7,1,-2
38,72,49,1,80,0,-2,7,5,5,-1,-3
39,71,50,1,105,11,-1,7,4,4,-1,-4
40,67,51,1,80,7,-4,7,0,0,-1,-5
41,67,52,2,80,7,0,7,0,0,0,-5
42,69,54,1,95,9,2,7,2,2,1,-4
43,67,55,1,80,7,-2,7,0,0,-1,-5
44,69,56,1,80,9,2,7,2,2,1,-4
45,71,57,1,80,11,2,7,4,4,1,-3
46,72,58,2,105,0,1,7,5,5,1,-2
47,71,60,1,80,11,-1,7,4,4,-1,-3
48,72,61,1,80,0,1,7,5,5,1,-2
49,69,62,2,95,9,-3,7,2,2,-1,-3
50,71,64,1,80,11,2,7,4,4,1,-2
51,74,65,1,80,2,3,7,7,7,1,-1
52,76,66,2,105,4,2,7,9,9,1,0
53,74,68,1,80,2,-2,7,7,7,-1,-1
54,79,69,1,80,7,5,7,12,0,1,0
55,76,70,2,95,4,-3,7,9,9,-1,-1
56,74,72,1,80,2,-2,7,7,7,-1,-2
57,79,73,1,80,7,5,7,12,0,1,-1
58,76,74,2,105,4,-3,7,9,9,-1,-2
59,74,76,1,80,2,-2,7,7,7,-1,-3
60,71,77,1,80,11,-3,7,4,4,-1,-4
61,69,78,2,95,9,-2,7,2,2,-1,-5
62,71,80,1,80,11,2,7,4,4,1,-4
63,74,81,1,80,2,3,7,7,7,1,-3
64,76,82,1,105,4,2,7,9,9,1,-2
65,71,83,1,80,11,-5,7,4,4,-1,-3
66,71,84,2,80,11,0,7,4,4,0,-3
67,79,86,1,95,7,8,7,12,0,1,-2
68,71,87,1,80,11,-8,7,4,4,-1,-3
69,71,88,2,80,11,0,7,4,4,0,-3
70,72,90,0,105,0,1,7,5,5,1,-2
71,71,90,0,80,11,-1,7,4,4,-1,-3
72,69,91,0,80,9,-2,7,2,2,-1,-4
73,71,92,1,80,11,2,7,4,4,1,-3
74,67,93,1,80,7,-4,7,0,0,-1,-4
75,69,94,2,95,9,2,7,2,2,1,-3
76,71,96,1,80,11,2,7,4,4,1,-2
77,74,97,1,80,2,3,7,7,7,1,-1
78,76,98,1,105,4,2,7,9,9,1,0
79,78,99,1,80,6,2,7,11,11,1,1
80,79,100,1,80,7,1,7,12,0,1,2
81,78,101,1,80,6,-1,7,11,11,-1,1
82,76,102,1,95,4,-2,7,9,9,-1,0
83,81,103,1,80,9,5,7,14,2,1,1
84,81,104,2,80,9,0,7,14,2,0,1
85,79,106,1,105,7,-2,7,12,0,-1,0
86,76,107,1,80,4,-3,7,9,9,-1,-1
87,74,108,1,80,2,-2,7,7,7,-1,-2
88,71,109,1,80,11,-3,7,4,4,-1,-3
89,69,110,2,95,9,-2,7,2,2,-1,-4
90,71,112,1,80,11,2,7,4,4,1,-3
91,74,113,1,80,2,3,7,7,7,1,-2
92,76,114,1,105,4,2,7,9,9,1,-1
93,79,115,1,80,7,3,7,12,0,1,0
94,79,116,1,80,7,0,7,12,0,0,0
95,78,117,1,80,6,-1,7,11,11,-1,-1
96,79,118,1,95,7,1,7,12,0,1,0
97,81,119,1,80,9,2,7,14,2,1,1
98,83,120,1,80,11,2,7,16,4,1,2
99,79,121,1,80,7,-4,7,12,0,-1,1
100,81,122,1,105,9,2,7,14,2,1,2
101,79,123,1,80,7,-2,7,12,0,-1,1
102,76,124,1,80,4,-3,7,9,9,-1,0
103,78,125,1,80,6,2,7,11,11,1,1
104,79,126,1,95,7,1,7,12,0,1,2
105,76,127,1,80,4,-3,7,9,9,-1,1
106,74,128,1,80,2,-2,7,7,7,-1,0
107,72,129,1,80,0,-2,7,5,5,-1,-1
