,midi_note,onset,duration,velocity,pitch_class,interval,root,relative_pitch,relative_pitch_class,parsons_code,parsons_cumsum
0,69,0,0,105,9,0,2,7,7,0,0
1,71,0,0,80,11,2,2,9,9,1,1
2,73,0,0,80,1,2,2,11,11,1,2
3,74,1,2,105,2,1,2,12,0,1,3
4,71,3,1,80,11,-3,2,9,9,-1,2
5,69,4,1,95,9,-2,2,7,7,-1,1
6,66,5,1,80,6,-3,2,4,4,-1,0
7,69,6,1,80,9,3,2,7,7,1,1
8,71,7,1,105,11,2,2,9,9,1,2
9,74,8,1,80,2,3,2,12,0,1,3
10,71,9,1,80,11,-3,2,9,9,-1,2
11,69,10,1,95,9,-2,2,7,7,-1,1
12,66,11,1,80,6,-3,2,4,4,-1,0
13,69,12,1,80,9,3,2,7,7,1,1
14,74,13,3,105,2,5,2,12,0,1,2
15,76,16,3,95,4,2,2,14,2,1,3
16,78,19,3,105,6,2,2,16,4,1,4
17,76,22,1,95,4,-2,2,14,2,-1,3
18,73,23,1,80,1,-3,2,11,11,-1,2
19,69,24,1,80,9,-4,2,7,7,-1,1
20,74,25,2,105,2,5,2,12,0,1,2
21,71,27,1,80,11,-3,2,9,9,-1,1
22,69,28,1,95,9,-2,2,7,7,-1,0
23,66,29,1,80,6,-3,2,4,4,-1,-1
24,69,30,1,80,9,3,2,7,7,1,0
25,71,31,1,105,11,2,2,9,9,1,1
26,74,32,1,80,2,3,2,12,0,1,2
27,71,33,1,80,11,-3,2,9,9,-1,1
28,69,34,1,95,9,-2,2,7,7,-1,0
29,66,35,1,80,6,-3,2,4,4,-1,-1
30,69,36,1,80,9,3,2,7,7,1,0
31,74,37,3,105,2,5,2,12,0,1,1
32,76,40,3,95,4,2,2,14,2,1,2
33,78,43,1,105,6,2,2,16,4,1,3
34,74,44,1,80,2,-4,2,12,0,-1,2
35,73,45,1,80,1,-1,2,11,11,-1,1
36,74,46,2,95,2,1,2,12,0,1,2
37,69,48,0,80,9,-5,2,7,7,-1,1
38,71,48,0,80,11,2,2,9,9,1,2
39,73,48,0,80,1,2,2,11,11,1,3
40,74,49,2,105,2,1,2,12,0,1,4
41,71,51,1,80,11,-3,2,9,9,-1,3
42,69,52,1,95,9,-2,2,7,7,-1,2
43,66,53,1,80,6,-3,2,4,4,-1,1
44,69,54,1,80,9,3,2,7,7,1,2
45,71,55,1,105,11,2,2,9,9,1,3
46,74,56,1,80,2,3,2,12,0,1,4
47,71,57,1,80,11,-3,2,9,9,-1,3
48,69,58,1,95,9,-2,2,7,7,-1,2
49,66,59,1,80,6,-3,2,4,4,-1,1
50,69,60,1,80,9,3,2,7,7,1,2
51,74,61,3,105,2,5,2,12,0,1,3
52,76,64,3,95,4,2,2,14,2,1,4
53,78,67,3,105,6,2,2,16,4,1,5
54,76,70,1,95,4,-2,2,14,2,-1,4
55,73,71,1,80,1,-3,2,11,11,-1,3
56,69,72,1,80,9,-4,2,7,7,-1,2
57,74,73,2,105,2,5,2,12,0,1,3
58,71,75,1,80,11,-3,2,9,9,-1,2
59,69,76,1,95,9,-2,2,7,7,-1,1
60,66,77,1,80,6,-3,2,4,4,-1,0
61,69,78,1,80,9,3,2,7,7,1,1
62,71,79,1,105,11,2,2,9,9,1,2
63,74,80,1,80,2,3,2,12,0,1,3
64,71,81,1,80,11,-3,2,9,9,-1,2
65,69,82,1,95,9,-2,2,7,7,-1,1
66,66,83,1,80,6,-3,2,4,4,-1,0
67,69,84,1,80,9,3,2,7,7,1,1
68,74,85,3,105,2,5,2,12,0,1,2
69,76,88,3,95,4,2,2,14,2,1,3
70,78,91,1,105,6,2,2,16,4,1,4
71,74,92,1,80,2,-4,2,12,0,-1,3
72,73,93,1,80,1,-1,2,11,11,-1,2
73,74,94,2,95,2,1,2,12,0,1,3
74,76,96,1,80,4,2,2,14,2,1,4
75,78,97,1,105,6,2,2,16,4,1,5
76,74,98,1,80,2,-4,2,12,0,-1,4
77,78,99,1,80,6,4,2,16,4,1,5
78,81,100,1,95,9,3,2,19,7,1,6
79,78,101,1,80,6,-3,2,16,4,-1,5
80,81,102,1,80,9,3,2,19,7,1,6
81,83,103,1,105,11,2,2,21,9,1,7
82,86,104,1,80,2,3,2,24,0,1,8
83,83,105,1,80,11,-3,2,21,9,-1,7
84,81,106,1,95,9,-2,2,19,7,-1,6
85,78,107,1,80,6,-3,2,16,4,-1,5
86,76,108,1,80,4,-2,2,14,2,-1,4
87,78,109,1,105,6,2,2,16,4,1,5
88,74,110,1,80,2,-4,2,12,0,-1,4
89,78,111,1,80,6,4,2,16,4,1,5
90,81,112,1,95,9,3,2,19,7,1,6
91,78,113,1,80,6,-3,2,16,4,-1,5
92,74,114,1,80,2,-4,2,12,0,-1,4
93,76,115,1,105,4,2,2,14,2,1,5
94,78,116,1,80,6,2,2,16,4,1,6
95,76,117,1,80,4,-2,2,14,2,-1,5
96,76,118,1,95,4,0,2,14,2,0,5
97,73,119,1,80,1,-3,2,11,11,-1,4
98,69,120,1,80,9,-4,2,7,7,-1,3
99,78,121,1,105,6,9,2,16,4,1,4
100,74,122,1,80,2,-4,2,12,0,-1,3
101,78,123,1,80,6,4,2,16,4,1,4
102,81,124,1,95,9,3,2,19,7,1,5
103,78,125,1,80,6,-3,2,16,4,-1,4
104,81,126,1,80,9,3,2,19,7,1,5
105,83,127,1,105,11,2,2,21,9,1,6
106,86,128,1,80,2,3,2,24,0,1,7
107,83,129,1,80,11,-3,2,21,9,-1,6
108,81,130,1,95,9,-2,2,19,7,-1,5
109,78,131,1,80,6,-3,2,16,4,-1,4
110,76,132,1,80,4,-2,2,14,2,-1,3
111,74,133,1,105,2,-2,2,12,0,-1,2
112,76,134,1,80,4,2,2,14,2,1,3
113,78,135,1,80,6,2,2,16,4,1,4
114,76,136,1,95,4,-2,2,14,2,-1,3
115,74,137,1,80,2,-2,2,12,0,-1,2
116,76,138,1,80,4,2,2,14,2,1,3
117,78,139,1,105,6,2,2,16,4,1,4
118,74,140,1,80,2,-4,2,12,0,-1,3
119,74,141,1,80,2,0,2,12,0,0,3
120,74,142,2,95,2,0,2,12,0,0,3
121,76,144,1,80,4,2,2,14,2,1,4
122,78,145,1,105,6,2,2,16,4,1,5
123,74,146,1,80,2,-4,2,12,0,-1,4
124,78,147,1,80,6,4,2,16,4,1,5
125,81,148,1,95,9,3,2,19,7,1,6
126,78,149,1,80,6,-3,2,16,4,-1,5
127,81,150,1,80,9,3,2,19,7,1,6
128,83,151,1,105,11,2,2,21,9,1,7
129,86,152,1,80,2,3,2,24,0,1,8
130,83,153,1,80,11,-3,2,21,9,-1,7
131,81,154,1,95,9,-2,2,19,7,-1,6
132,78,155,1,80,6,-3,2,16,4,-1,5
133,76,156,1,80,4,-2,2,14,2,-1,4
134,74,157,1,105,2,-2,2,12,0,-1,3
135,76,158,1,80,4,2,2,14,2,1,4
136,78,159,1,80,6,2,2,16,4,1,5
137,76,160,1,95,4,-2,2,14,2,-1,4
138,74,161,1,80,2,-2,2,12,0,-1,3
139,76,162,1,80,4,2,2,14,2,1,4
140,78,163,1,105,6,2,2,16,4,1,5
141,76,164,1,80,4,-2,2,14,2,-1,4
142,78,165,1,80,6,2,2,16,4,1,5
143,76,166,1,95,4,-2,2,14,2,-1,4
144,73,167,1,80,1,-3,2,11,11,-1,3
145,69,168,1,80,9,-4,2,7,7,-1,2
146,74,169,2,105,2,5,2,12,0,1,3
147,71,171,1,80,11,-3,2,9,9,-1,2
148,69,172,1,95,9,-2,2,7,7,-1,1
149,66,173,1,80,6,-3,2,4,4,-1,0
150,69,174,1,80,9,3,2,7,7,1,1
151,71,175,1,105,11,2,2,9,9,1,2
152,74,176,1,80,2,3,2,12,0,1,3
153,71,177,1,80,11,-3,2,9,9,-1,2
154,69,178,1,95,9,-2,2,7,7,-1,1
155,66,179,1,80,6,-3,2,4,4,-1,0
156,69,180,1,80,9,3,2,7,7,1,1
157,74,181,3,105,2,5,2,12,0,1,2
158,76,184,3,95,4,2,2,14,2,1,3
159,78,187,1,105,6,2,2,16,4,1,4
160,74,188,1,80,2,-4,2,12,0,-1,3
161,73,189,1,80,1,-1,2,11,11,-1,2
162,74,190,3,95,2,1,2,12,0,1,3
