,midi_note,onset,duration,velocity,pitch_class,interval,root,relative_pitch,relative_pitch_class,parsons_code,parsons_cumsum
0,67,0,3,105,7,0,7,0,0,0,0
1,69,3,1,80,9,2,7,2,2,1,1
2,71,4,1,95,11,2,7,4,4,1,2
3,72,5,1,80,0,1,7,5,5,1,3
4,74,6,1,80,2,2,7,7,7,1,4
5,78,7,1,80,6,4,7,11,11,1,5
6,76,8,1,105,4,-2,7,9,9,-1,4
7,71,9,1,80,11,-5,7,4,4,-1,3
8,71,10,0,80,11,0,7,4,4,0,3
9,69,10,0,80,9,-2,7,2,2,-1,2
10,71,11,1,80,11,2,7,4,4,1,3
11,76,12,1,95,4,5,7,9,9,1,4
12,71,13,1,80,11,-5,7,4,4,-1,3
13,69,14,1,80,9,-2,7,2,2,-1,2
14,71,15,1,80,11,2,7,4,4,1,3
15,67,16,3,105,7,-4,7,0,0,-1,2
16,69,19,1,80,9,2,7,2,2,1,3
17,71,20,1,95,11,2,7,4,4,1,4
18,72,21,1,80,0,1,7,5,5,1,5
19,74,22,1,80,2,2,7,7,7,1,6
20,71,23,1,80,11,-3,7,4,4,-1,5
21,69,24,1,105,9,-2,7,2,2,-1,4
22,72,25,1,80,0,3,7,5,5,1,5
23,71,26,1,80,11,-1,7,4,4,-1,4
24,69,27,1,80,9,-2,7,2,2,-1,3
25,67,28,1,95,7,-2,7,0,0,-1,2
26,64,29,1,80,4,-3,7,-3,9,-1,1
27,64,30,2,80,4,0,7,-3,9,0,1
28,67,32,3,105,7,3,7,0,0,1,2
29,69,35,1,80,9,2,7,2,2,1,3
30,71,36,1,95,11,2,7,4,4,1,4
31,72,37,1,80,0,1,7,5,5,1,5
32,74,38,1,80,2,2,7,7,7,1,6
33,78,39,1,80,6,4,7,11,11,1,7
34,76,40,1,105,4,-2,7,9,9,-1,6
35,71,41,1,80,11,-5,7,4,4,-1,5
36,71,42,0,80,11,0,7,4,4,0,5
37,69,42,0,80,9,-2,7,2,2,-1,4
38,71,43,1,80,11,2,7,4,4,1,5
39,74,44,2,95,2,3,7,7,7,1,6
40,76,46,1,80,4,2,7,9,9,1,7
41,78,47,1,80,6,2,7,11,11,1,8
42,79,48,1,105,7,1,7,12,0,1,9
43,83,49,1,80,11,4,7,16,4,1,10
44,81,50,1,80,9,-2,7,14,2,-1,9
45,78,51,1,80,6,-3,7,11,11,-1,8
46,79,52,0,95,7,1,7,12,0,1,9
47,78,52,0,80,6,-1,7,11,11,-1,8
48,76,53,0,80,4,-2,7,9,9,-1,7
49,74,54,1,80,2,-2,7,7,7,-1,6
50,71,55,1,80,11,-3,7,4,4,-1,5
51,69,56,1,105,9,-2,7,2,2,-1,4
52,72,57,1,80,0,3,7,5,5,1,5
53,71,58,1,80,11,-1,7,4,4,-1,4
54,69,59,1,80,9,-2,7,2,2,-1,3
55,67,60,1,95,7,-2,7,0,0,-1,2
56,64,61,1,80,4,-3,7,-3,9,-1,1
57,64,62,2,80,4,0,7,-3,9,0,1
58,67,64,3,105,7,3,7,0,0,1,2
59,69,67,1,80,9,2,7,2,2,1,3
60,71,68,1,95,11,2,7,4,4,1,4
61,72,69,1,80,0,1,7,5,5,1,5
62,74,70,1,80,2,2,7,7,7,1,6
63,78,71,1,80,6,4,7,11,11,1,7
64,76,72,1,105,4,-2,7,9,9,-1,6
65,71,73,1,80,11,-5,7,4,4,-1,5
66,71,74,0,80,11,0,7,4,4,0,5
67,69,74,0,80,9,-2,7,2,2,-1,4
68,71,75,1,80,11,2,7,4,4,1,5
69,76,76,1,95,4,5,7,9,9,1,6
70,71,77,1,80,11,-5,7,4,4,-1,5
71,69,78,1,80,9,-2,7,2,2,-1,4
72,71,79,1,80,11,2,7,4,4,1,5
73,67,80,3,105,7,-4,7,0,0,-1,4
74,69,83,1,80,9,2,7,2,2,1,5
75,71,84,1,95,11,2,7,4,4,1,6
76,72,85,1,80,0,1,7,5,5,1,7
77,74,86,1,80,2,2,7,7,7,1,8
78,71,87,1,80,11,-3,7,4,4,-1,7
79,69,88,1,105,9,-2,7,2,2,-1,6
80,72,89,1,80,0,3,7,5,5,1,7
81,71,90,1,80,11,-1,7,4,4,-1,6
82,69,91,1,80,9,-2,7,2,2,-1,5
83,67,92,1,95,7,-2,7,0,0,-1,4
84,64,93,1,80,4,-3,7,-3,9,-1,3
85,64,94,2,80,4,0,7,-3,9,0,3
86,67,96,3,105,7,3,7,0,0,1,4
87,69,99,1,80,9,2,7,2,2,1,5
88,71,100,1,95,11,2,7,4,4,1,6
89,72,101,1,80,0,1,7,5,5,1,7
90,74,102,1,80,2,2,7,7,7,1,8
91,78,103,1,80,6,4,7,11,11,1,9
92,76,104,1,105,4,-2,7,9,9,-1,8
93,71,105,1,80,11,-5,7,4,4,-1,7
94,71,106,0,80,11,0,7,4,4,0,7
95,69,106,0,80,9,-2,7,2,2,-1,6
96,71,107,1,80,11,2,7,4,4,1,7
97,74,108,2,95,2,3,7,7,7,1,8
98,76,110,1,80,4,2,7,9,9,1,9
99,78,111,1,80,6,2,7,11,11,1,10
100,79,112,1,105,7,1,7,12,0,1,11
101,83,113,1,80,11,4,7,16,4,1,12
102,81,114,1,80,9,-2,7,14,2,-1,11
103,78,115,1,80,6,-3,7,11,11,-1,10
104,79,116,0,95,7,1,7,12,0,1,11
105,78,116,0,80,6,-1,7,11,11,-1,10
106,76,117,0,80,4,-2,7,9,9,-1,9
107,74,118,1,80,2,-2,7,7,7,-1,8
108,71,119,1,80,11,-3,7,4,4,-1,7
109,69,120,1,105,9,-2,7,2,2,-1,6
110,72,121,1,80,0,3,7,5,5,1,7
111,71,122,1,80,11,-1,7,4,4,-1,6
112,69,123,1,80,9,-2,7,2,2,-1,5
113,67,124,1,95,7,-2,7,0,0,-1,4
114,64,125,1,80,4,-3,7,-3,9,-1,3
115,64,126,2,80,4,0,7,-3,9,0,3
116,79,128,3,105,7,15,7,12,0,1,4
117,81,131,1,80,9,2,7,14,2,1,5
118,79,132,1,95,7,-2,7,12,0,-1,4
119,76,133,1,80,4,-3,7,9,9,-1,3
120,74,134,1,80,2,-2,7,7,7,-1,2
121,78,135,1,80,6,4,7,11,11,1,3
122,76,136,1,105,4,-2,7,9,9,-1,2
123,71,137,1,80,11,-5,7,4,4,-1,1
124,71,138,0,80,11,0,7,4,4,0,1
125,69,138,0,80,9,-2,7,2,2,-1,0
126,71,139,1,80,11,2,7,4,4,1,1
127,74,140,2,95,2,3,7,7,7,1,2
128,76,142,1,80,4,2,7,9,9,1,3
129,78,143,1,80,6,2,7,11,11,1,4
130,79,144,0,105,7,1,7,12,0,1,5
131,81,144,0,80,9,2,7,14,2,1,6
132,79,145,0,80,7,-2,7,12,0,-1,5
133,78,146,1,80,6,-1,7,11,11,-1,4
134,81,147,1,80,9,3,7,14,2,1,5
135,79,148,1,95,7,-2,7,12,0,-1,4
136,76,149,1,80,4,-3,7,9,9,-1,3
137,74,150,1,80,2,-2,7,7,7,-1,2
138,71,151,1,80,11,-3,7,4,4,-1,1
139,69,152,1,105,9,-2,7,2,2,-1,0
140,72,153,1,80,0,3,7,5,5,1,1
141,71,154,1,80,11,-1,7,4,4,-1,0
142,69,155,1,80,9,-2,7,2,2,-1,-1
143,67,156,1,95,7,-2,7,0,0,-1,-2
144,64,157,1,80,4,-3,7,-3,9,-1,-3
145,64,158,2,80,4,0,7,-3,9,0,-3
146,79,160,3,105,7,15,7,12,0,1,-2
147,81,163,1,80,9,2,7,14,2,1,-1
148,79,164,1,95,7,-2,7,12,0,-1,-2
149,76,165,1,80,4,-3,7,9,9,-1,-3
150,74,166,1,80,2,-2,7,7,7,-1,-4
151,78,167,1,80,6,4,7,11,11,1,-3
152,76,168,1,105,4,-2,7,9,9,-1,-4
153,71,169,1,80,11,-5,7,4,4,-1,-5
154,71,170,0,80,11,0,7,4,4,0,-5
155,69,170,0,80,9,-2,7,2,2,-1,-6
156,71,171,1,80,11,2,7,4,4,1,-5
157,74,172,2,95,2,3,7,7,7,1,-4
158,76,174,1,80,4,2,7,9,9,1,-3
159,78,175,1,80,6,2,7,11,11,1,-2
160,79,176,1,105,7,1,7,12,0,1,-1
161,83,177,1,80,11,4,7,16,4,1,0
162,81,178,0,80,9,-2,7,14,2,-1,-1
163,79,178,0,80,7,-2,7,12,0,-1,-2
164,78,179,0,80,6,-1,7,11,11,-1,-3
165,79,180,1,95,7,1,7,12,0,1,-2
166,76,181,1,80,4,-3,7,9,9,-1,-3
167,74,182,1,80,2,-2,7,7,7,-1,-4
168,71,183,1,80,11,-3,7,4,4,-1,-5
169,69,184,1,105,9,-2,7,2,2,-1,-6
170,72,185,1,80,0,3,7,5,5,1,-5
171,71,186,1,80,11,-1,7,4,4,-1,-6
172,69,187,1,80,9,-2,7,2,2,-1,-7
173,67,188,1,95,7,-2,7,0,0,-1,-8
174,64,189,1,80,4,-3,7,-3,9,-1,-9
175,64,190,2,80,4,0,7,-3,9,0,-9
176,79,192,3,105,7,15,7,12,0,1,-8
177,81,195,1,80,9,2,7,14,2,1,-7
178,79,196,1,95,7,-2,7,12,0,-1,-8
179,76,197,1,80,4,-3,7,9,9,-1,-9
180,74,198,1,80,2,-2,7,7,7,-1,-10
181,78,199,1,80,6,4,7,11,11,1,-9
182,76,200,1,105,4,-2,7,9,9,-1,-10
183,71,201,1,80,11,-5,7,4,4,-1,-11
184,71,202,0,80,11,0,7,4,4,0,-11
185,69,202,0,80,9,-2,7,2,2,-1,-12
186,71,203,1,80,11,2,7,4,4,1,-11
187,74,204,2,95,2,3,7,7,7,1,-10
188,76,206,1,80,4,2,7,9,9,1,-9
189,78,207,1,80,6,2,7,11,11,1,-8
190,79,208,0,105,7,1,7,12,0,1,-7
191,81,208,0,80,9,2,7,14,2,1,-6
192,79,209,0,80,7,-2,7,12,0,-1,-7
193,78,210,1,80,6,-1,7,11,11,-1,-8
194,81,211,1,80,9,3,7,14,2,1,-7
195,79,212,1,95,7,-2,7,12,0,-1,-8
196,76,213,1,80,4,-3,7,9,9,-1,-9
197,74,214,1,80,2,-2,7,7,7,-1,-10
198,71,215,1,80,11,-3,7,4,4,-1,-11
199,69,216,1,105,9,-2,7,2,2,-1,-12
200,72,217,1,80,0,3,7,5,5,1,-11
201,71,218,1,80,11,-1,7,4,4,-1,-12
202,69,219,1,80,9,-2,7,2,2,-1,-13
203,67,220,1,95,7,-2,7,0,0,-1,-14
204,64,221,1,80,4,-3,7,-3,9,-1,-15
205,64,222,2,80,4,0,7,-3,9,0,-15
206,79,224,3,105,7,15,7,12,0,1,-14
207,81,227,1,80,9,2,7,14,2,1,-13
208,79,228,1,95,7,-2,7,12,0,-1,-14
209,76,229,1,80,4,-3,7,9,9,-1,-15
210,74,230,1,80,2,-2,7,7,7,-1,-16
211,78,231,1,80,6,4,7,11,11,1,-15
212,76,232,1,105,4,-2,7,9,9,-1,-16
213,71,233,1,80,11,-5,7,4,4,-1,-17
214,71,234,0,80,11,0,7,4,4,0,-17
215,69,234,0,80,9,-2,7,2,2,-1,-18
216,71,235,1,80,11,2,7,4,4,1,-17
217,74,236,2,95,2,3,7,7,7,1,-16
218,76,238,1,80,4,2,7,9,9,1,-15
219,78,239,1,80,6,2,7,11,11,1,-14
220,79,240,1,105,7,1,7,12,0,1,-13
221,83,241,1,80,11,4,7,16,4,1,-12
222,81,242,0,80,9,-2,7,14,2,-1,-13
223,79,242,0,80,7,-2,7,12,0,-1,-14
224,78,243,0,80,6,-1,7,11,11,-1,-15
225,79,244,1,95,7,1,7,12,0,1,-14
226,76,245,1,80,4,-3,7,9,9,-1,-15
227,74,246,1,80,2,-2,7,7,7,-1,-16
228,71,247,1,80,11,-3,7,4,4,-1,-17
229,69,248,1,105,9,-2,7,2,2,-1,-18
230,72,249,1,80,0,3,7,5,5,1,-17
231,71,250,1,80,11,-1,7,4,4,-1,-18
232,69,251,1,80,9,-2,7,2,2,-1,-19
233,67,252,1,95,7,-2,7,0,0,-1,-20
234,64,253,1,80,4,-3,7,-3,9,-1,-21
235,64,254,2,80,4,0,7,-3,9,0,-21
