,midi_note,onset,duration,velocity,pitch_class,interval,root,relative_pitch,relative_pitch_class,parsons_code,parsons_cumsum
0,69,0,1,105,9,0,2,7,7,0,0
1,62,1,2,105,2,-7,2,0,0,-1,-1
2,69,3,1,80,9,7,2,7,7,1,0
3,66,4,1,80,6,-3,2,4,4,-1,-1
4,62,5,1,95,2,-4,2,0,0,-1,-2
5,79,6,1,80,7,17,2,17,5,1,-1
6,78,7,1,80,6,-1,2,16,4,-1,-2
7,76,8,1,80,4,-2,2,14,2,-1,-3
8,74,9,1,105,2,-2,2,12,0,-1,-4
9,71,10,1,80,11,-3,2,9,9,-1,-5
10,69,11,1,80,9,-2,2,7,7,-1,-6
11,66,12,1,80,6,-3,2,4,4,-1,-7
12,67,13,1,95,7,1,2,5,5,1,-6
13,64,14,1,80,4,-3,2,2,2,-1,-7
14,64,15,1,80,4,0,2,2,2,0,-7
15,66,16,1,80,6,2,2,4,4,1,-6
16,62,17,2,105,2,-4,2,0,0,-1,-7
17,69,19,1,80,9,7,2,7,7,1,-6
18,66,20,1,80,6,-3,2,4,4,-1,-7
19,62,21,3,95,2,-4,2,0,0,-1,-8
20,71,24,1,80,11,9,2,9,9,1,-7
21,69,25,1,105,9,-2,2,7,7,-1,-8
22,73,26,1,80,1,4,2,11,11,1,-7
23,74,27,1,80,2,1,2,12,0,1,-6
24,76,28,1,80,4,2,2,14,2,1,-5
25,78,29,1,95,6,2,2,16,4,1,-4
26,74,30,1,80,2,-4,2,12,0,-1,-5
27,74,31,2,80,2,0,2,12,0,0,-5
28,62,33,2,105,2,-12,2,0,0,-1,-6
29,69,35,1,80,9,7,2,7,7,1,-5
30,66,36,1,80,6,-3,2,4,4,-1,-6
31,62,37,1,95,2,-4,2,0,0,-1,-7
32,79,38,1,80,7,17,2,17,5,1,-6
33,78,39,1,80,6,-1,2,16,4,-1,-7
34,76,40,1,80,4,-2,2,14,2,-1,-8
35,74,41,1,105,2,-2,2,12,0,-1,-9
36,71,42,1,80,11,-3,2,9,9,-1,-10
37,69,43,1,80,9,-2,2,7,7,-1,-11
38,66,44,1,80,6,-3,2,4,4,-1,-12
39,67,45,1,95,7,1,2,5,5,1,-11
40,64,46,1,80,4,-3,2,2,2,-1,-12
41,64,47,1,80,4,0,2,2,2,0,-12
42,66,48,1,80,6,2,2,4,4,1,-11
43,62,49,2,105,2,-4,2,0,0,-1,-12
44,69,51,1,80,9,7,2,7,7,1,-11
45,66,52,1,80,6,-3,2,4,4,-1,-12
46,62,53,3,95,2,-4,2,0,0,-1,-13
47,71,56,1,80,11,9,2,9,9,1,-12
48,69,57,1,105,9,-2,2,7,7,-1,-13
49,73,58,1,80,1,4,2,11,11,1,-12
50,74,59,1,80,2,1,2,12,0,1,-11
51,76,60,1,80,4,2,2,14,2,1,-10
52,78,61,1,95,6,2,2,16,4,1,-9
53,74,62,1,80,2,-4,2,12,0,-1,-10
54,74,63,1,80,2,0,2,12,0,0,-10
55,69,64,1,80,9,-5,2,7,7,-1,-11
56,62,65,2,105,2,-7,2,0,0,-1,-12
57,69,67,1,80,9,7,2,7,7,1,-11
58,66,68,1,80,6,-3,2,4,4,-1,-12
59,62,69,1,95,2,-4,2,0,0,-1,-13
60,79,70,1,80,7,17,2,17,5,1,-12
61,78,71,1,80,6,-1,2,16,4,-1,-13
62,76,72,1,80,4,-2,2,14,2,-1,-14
63,74,73,1,105,2,-2,2,12,0,-1,-15
64,71,74,1,80,11,-3,2,9,9,-1,-16
65,69,75,1,80,9,-2,2,7,7,-1,-17
66,66,76,1,80,6,-3,2,4,4,-1,-18
67,67,77,1,95,7,1,2,5,5,1,-17
68,64,78,1,80,4,-3,2,2,2,-1,-18
69,64,79,1,80,4,0,2,2,2,0,-18
70,66,80,1,80,6,2,2,4,4,1,-17
71,62,81,2,105,2,-4,2,0,0,-1,-18
72,69,83,1,80,9,7,2,7,7,1,-17
73,66,84,1,80,6,-3,2,4,4,-1,-18
74,62,85,3,95,2,-4,2,0,0,-1,-19
75,71,88,1,80,11,9,2,9,9,1,-18
76,69,89,1,105,9,-2,2,7,7,-1,-19
77,73,90,1,80,1,4,2,11,11,1,-18
78,74,91,1,80,2,1,2,12,0,1,-17
79,76,92,1,80,4,2,2,14,2,1,-16
80,78,93,1,95,6,2,2,16,4,1,-15
81,74,94,1,80,2,-4,2,12,0,-1,-16
82,74,95,2,80,2,0,2,12,0,0,-16
83,62,97,2,105,2,-12,2,0,0,-1,-17
84,69,99,1,80,9,7,2,7,7,1,-16
85,66,100,1,80,6,-3,2,4,4,-1,-17
86,62,101,1,95,2,-4,2,0,0,-1,-18
87,79,102,1,80,7,17,2,17,5,1,-17
88,78,103,1,80,6,-1,2,16,4,-1,-18
89,76,104,1,80,4,-2,2,14,2,-1,-19
90,74,105,1,105,2,-2,2,12,0,-1,-20
91,71,106,1,80,11,-3,2,9,9,-1,-21
92,69,107,1,80,9,-2,2,7,7,-1,-22
93,66,108,1,80,6,-3,2,4,4,-1,-23
94,67,109,1,95,7,1,2,5,5,1,-22
95,64,110,1,80,4,-3,2,2,2,-1,-23
96,64,111,1,80,4,0,2,2,2,0,-23
97,66,112,1,80,6,2,2,4,4,1,-22
98,62,113,2,105,2,-4,2,0,0,-1,-23
99,69,115,1,80,9,7,2,7,7,1,-22
100,66,116,1,80,6,-3,2,4,4,-1,-23
101,62,117,3,95,2,-4,2,0,0,-1,-24
102,71,120,1,80,11,9,2,9,9,1,-23
103,69,121,1,105,9,-2,2,7,7,-1,-24
104,73,122,1,80,1,4,2,11,11,1,-23
105,74,123,1,80,2,1,2,12,0,1,-22
106,76,124,1,80,4,2,2,14,2,1,-21
107,78,125,1,95,6,2,2,16,4,1,-20
108,74,126,1,80,2,-4,2,12,0,-1,-21
109,74,127,1,80,2,0,2,12,0,0,-21
110,79,128,1,80,7,5,2,17,5,1,-20
111,78,129,1,105,6,-1,2,16,4,-1,-21
112,74,130,1,80,2,-4,2,12,0,-1,-22
113,76,131,1,80,4,2,2,14,2,1,-21
114,78,132,1,80,6,2,2,16,4,1,-20
115,79,133,1,95,7,1,2,17,5,1,-19
116,78,134,1,80,6,-1,2,16,4,-1,-20
117,76,135,1,80,4,-2,2,14,2,-1,-21
118,74,136,1,80,2,-2,2,12,0,-1,-22
119,73,137,1,105,1,-1,2,11,11,-1,-23
120,69,138,1,80,9,-4,2,7,7,-1,-24
121,76,139,1,80,4,7,2,14,2,1,-23
122,69,140,1,80,9,-7,2,7,7,-1,-24
123,78,141,1,95,6,9,2,16,4,1,-23
124,69,142,1,80,9,-9,2,7,7,-1,-24
125,76,143,1,80,4,7,2,14,2,1,-23
126,69,144,1,80,9,-7,2,7,7,-1,-24
127,78,145,1,105,6,9,2,16,4,1,-23
128,74,146,1,80,2,-4,2,12,0,-1,-24
129,76,147,1,80,4,2,2,14,2,1,-23
130,78,148,1,80,6,2,2,16,4,1,-22
131,79,149,1,95,7,1,2,17,5,1,-21
132,78,150,1,80,6,-1,2,16,4,-1,-22
133,76,151,1,80,4,-2,2,14,2,-1,-23
134,74,152,1,80,2,-2,2,12,0,-1,-24
135,74,153,1,105,2,0,2,12,0,0,-24
136,76,154,1,80,4,2,2,14,2,1,-23
137,78,155,1,80,6,2,2,16,4,1,-22
138,79,156,1,80,7,1,2,17,5,1,-21
139,78,157,1,95,6,-1,2,16,4,-1,-22
140,74,158,1,80,2,-4,2,12,0,-1,-23
141,74,159,2,80,2,0,2,12,0,0,-23
142,78,161,1,105,6,4,2,16,4,1,-22
143,76,162,1,80,4,-2,2,14,2,-1,-23
144,74,163,1,80,2,-2,2,12,0,-1,-24
145,73,164,1,80,1,-1,2,11,11,-1,-25
146,74,165,1,95,2,1,2,12,0,1,-24
147,73,166,1,80,1,-1,2,11,11,-1,-25
148,71,167,1,80,11,-2,2,9,9,-1,-26
149,69,168,1,80,9,-2,2,7,7,-1,-27
150,67,169,1,105,7,-2,2,5,5,-1,-28
151,71,170,1,80,11,4,2,9,9,1,-27
152,69,171,1,80,9,-2,2,7,7,-1,-28
153,66,172,1,80,6,-3,2,4,4,-1,-29
154,67,173,1,95,7,1,2,5,5,1,-28
155,64,174,1,80,4,-3,2,2,2,-1,-29
156,64,175,1,80,4,0,2,2,2,0,-29
157,66,176,1,80,6,2,2,4,4,1,-28
158,62,177,2,105,2,-4,2,0,0,-1,-29
159,66,179,1,80,6,4,2,4,4,1,-28
160,69,180,1,80,9,3,2,7,7,1,-27
161,62,181,3,95,2,-7,2,0,0,-1,-28
162,71,184,1,80,11,9,2,9,9,1,-27
163,69,185,1,105,9,-2,2,7,7,-1,-28
164,73,186,1,80,1,4,2,11,11,1,-27
165,74,187,1,80,2,1,2,12,0,1,-26
166,76,188,1,80,4,2,2,14,2,1,-25
167,78,189,1,95,6,2,2,16,4,1,-24
168,74,190,1,80,2,-4,2,12,0,-1,-25
169,74,191,1,80,2,0,2,12,0,0,-25
170,79,192,1,80,7,5,2,17,5,1,-24
171,78,193,1,105,6,-1,2,16,4,-1,-25
172,74,194,1,80,2,-4,2,12,0,-1,-26
173,76,195,1,80,4,2,2,14,2,1,-25
174,78,196,1,80,6,2,2,16,4,1,-24
175,79,197,1,95,7,1,2,17,5,1,-23
176,78,198,1,80,6,-1,2,16,4,-1,-24
177,76,199,1,80,4,-2,2,14,2,-1,-25
178,74,200,1,80,2,-2,2,12,0,-1,-26
179,73,201,1,105,1,-1,2,11,11,-1,-27
180,69,202,1,80,9,-4,2,7,7,-1,-28
181,76,203,1,80,4,7,2,14,2,1,-27
182,69,204,1,80,9,-7,2,7,7,-1,-28
183,78,205,1,95,6,9,2,16,4,1,-27
184,69,206,1,80,9,-9,2,7,7,-1,-28
185,76,207,1,80,4,7,2,14,2,1,-27
186,69,208,1,80,9,-7,2,7,7,-1,-28
187,78,209,1,105,6,9,2,16,4,1,-27
188,74,210,1,80,2,-4,2,12,0,-1,-28
189,76,211,1,80,4,2,2,14,2,1,-27
190,78,212,1,80,6,2,2,16,4,1,-26
191,79,213,1,95,7,1,2,17,5,1,-25
192,78,214,1,80,6,-1,2,16,4,-1,-26
193,76,215,1,80,4,-2,2,14,2,-1,-27
194,74,216,1,80,2,-2,2,12,0,-1,-28
195,74,217,1,105,2,0,2,12,0,0,-28
196,76,218,1,80,4,2,2,14,2,1,-27
197,78,219,1,80,6,2,2,16,4,1,-26
198,79,220,1,80,7,1,2,17,5,1,-25
199,78,221,1,95,6,-1,2,16,4,-1,-26
200,74,222,1,80,2,-4,2,12,0,-1,-27
201,74,223,2,80,2,0,2,12,0,0,-27
202,78,225,1,105,6,4,2,16,4,1,-26
203,76,226,1,80,4,-2,2,14,2,-1,-27
204,74,227,1,80,2,-2,2,12,0,-1,-28
205,73,228,1,80,1,-1,2,11,11,-1,-29
206,74,229,1,95,2,1,2,12,0,1,-28
207,73,230,1,80,1,-1,2,11,11,-1,-29
208,71,231,1,80,11,-2,2,9,9,-1,-30
209,69,232,1,80,9,-2,2,7,7,-1,-31
210,67,233,1,105,7,-2,2,5,5,-1,-32
211,71,234,1,80,11,4,2,9,9,1,-31
212,69,235,1,80,9,-2,2,7,7,-1,-32
213,66,236,1,80,6,-3,2,4,4,-1,-33
214,67,237,1,95,7,1,2,5,5,1,-32
215,64,238,1,80,4,-3,2,2,2,-1,-33
216,64,239,1,80,4,0,2,2,2,0,-33
217,66,240,1,80,6,2,2,4,4,1,-32
218,62,241,2,105,2,-4,2,0,0,-1,-33
219,66,243,1,80,6,4,2,4,4,1,-32
220,69,244,1,80,9,3,2,7,7,1,-31
221,62,245,3,95,2,-7,2,0,0,-1,-32
222,71,248,1,80,11,9,2,9,9,1,-31
223,69,249,1,105,9,-2,2,7,7,-1,-32
224,73,250,1,80,1,4,2,11,11,1,-31
225,74,251,1,80,2,1,2,12,0,1,-30
226,76,252,1,80,4,2,2,14,2,1,-29
227,78,253,1,95,6,2,2,16,4,1,-28
228,74,254,1,80,2,-4,2,12,0,-1,-29
229,74,255,10,80,2,0,2,12,0,0,-29
