,midi_note,onset,duration,velocity,pitch_class,interval,root,relative_pitch,relative_pitch_class,parsons_code,parsons_cumsum
0,67,0,1,105,7,0,9,-2,10,0,0
1,64,1,1,105,4,-3,9,-5,7,-1,-1
2,69,2,1,80,9,5,9,0,0,1,0
3,69,3,1,80,9,0,9,0,0,0,0
4,71,4,1,80,11,2,9,2,2,1,1
5,69,5,1,95,9,-2,9,0,0,-1,0
6,71,6,1,80,11,2,9,2,2,1,1
7,69,7,1,80,9,-2,9,0,0,-1,0
8,71,8,1,80,11,2,9,2,2,1,1
9,72,9,1,105,0,1,9,3,3,1,2
10,74,10,1,80,2,2,9,5,5,1,3
11,76,11,1,80,4,2,9,7,7,1,4
12,74,12,1,80,2,-2,9,5,5,-1,3
13,72,13,1,95,0,-2,9,3,3,-1,2
14,71,14,1,80,11,-1,9,2,2,-1,1
15,69,15,1,80,9,-2,9,0,0,-1,0
16,67,16,1,80,7,-2,9,-2,10,-1,-1
17,64,17,1,105,4,-3,9,-5,7,-1,-2
18,67,18,1,80,7,3,9,-2,10,1,-1
19,67,19,1,80,7,0,9,-2,10,0,-1
20,71,20,1,80,11,4,9,2,2,1,0
21,69,21,1,95,9,-2,9,0,0,-1,-1
22,67,22,1,80,7,-2,9,-2,10,-1,-2
23,71,23,1,80,11,4,9,2,2,1,-1
24,67,24,1,80,7,-4,9,-2,10,-1,-2
25,69,25,1,105,9,2,9,0,0,1,-1
26,71,26,1,80,11,2,9,2,2,1,0
27,69,27,1,80,9,-2,9,0,0,-1,-1
28,67,28,1,80,7,-2,9,-2,10,-1,-2
29,64,29,2,95,4,-3,9,-5,7,-1,-3
30,62,31,1,80,2,-2,9,-7,5,-1,-4
31,67,32,1,80,7,5,9,-2,10,1,-3
32,64,33,1,105,4,-3,9,-5,7,-1,-4
33,69,34,1,80,9,5,9,0,0,1,-3
34,69,35,1,80,9,0,9,0,0,0,-3
35,71,36,1,80,11,2,9,2,2,1,-2
36,69,37,1,95,9,-2,9,0,0,-1,-3
37,71,38,1,80,11,2,9,2,2,1,-2
38,69,39,1,80,9,-2,9,0,0,-1,-3
39,71,40,1,80,11,2,9,2,2,1,-2
40,72,41,1,105,0,1,9,3,3,1,-1
41,74,42,1,80,2,2,9,5,5,1,0
42,76,43,1,80,4,2,9,7,7,1,1
43,74,44,1,80,2,-2,9,5,5,-1,0
44,72,45,1,95,0,-2,9,3,3,-1,-1
45,71,46,1,80,11,-1,9,2,2,-1,-2
46,69,47,1,80,9,-2,9,0,0,-1,-3
47,67,48,1,80,7,-2,9,-2,10,-1,-4
48,72,49,1,105,0,5,9,3,3,1,-3
49,71,50,1,80,11,-1,9,2,2,-1,-4
50,72,51,1,80,0,1,9,3,3,1,-3
51,74,52,1,80,2,2,9,5,5,1,-2
52,76,53,1,95,4,2,9,7,7,1,-1
53,79,54,1,80,7,3,9,10,10,1,0
54,74,55,1,80,2,-5,9,5,5,-1,-1
55,79,56,1,80,7,5,9,10,10,1,0
56,76,57,1,105,4,-3,9,7,7,-1,-1
57,81,58,1,80,9,5,9,12,0,1,0
58,81,59,1,80,9,0,9,12,0,0,0
59,80,60,1,80,8,-1,9,11,11,-1,-1
60,81,61,3,95,9,1,9,12,0,1,0
61,76,64,1,80,4,-5,9,7,7,-1,-1
62,81,65,1,105,9,5,9,12,0,1,0
63,79,66,1,80,7,-2,9,10,10,-1,-1
64,76,67,1,80,4,-3,9,7,7,-1,-2
65,79,68,1,80,7,3,9,10,10,1,-1
66,81,69,1,95,9,2,9,12,0,1,0
67,79,70,1,80,7,-2,9,10,10,-1,-1
68,76,71,1,80,4,-3,9,7,7,-1,-2
69,74,72,1,80,2,-2,9,5,5,-1,-3
70,72,73,1,105,0,-2,9,3,3,-1,-4
71,69,74,1,80,9,-3,9,0,0,-1,-5
72,71,75,1,80,11,2,9,2,2,1,-4
73,67,76,1,80,7,-4,9,-2,10,-1,-5
74,64,77,1,95,4,-3,9,-5,7,-1,-6
75,67,78,1,80,7,3,9,-2,10,1,-5
76,67,79,2,80,7,0,9,-2,10,0,-5
77,81,81,1,105,9,14,9,12,0,1,-4
78,79,82,1,80,7,-2,9,10,10,-1,-5
79,76,83,1,80,4,-3,9,7,7,-1,-6
80,79,84,1,80,7,3,9,10,10,1,-5
81,81,85,1,95,9,2,9,12,0,1,-4
82,79,86,1,80,7,-2,9,10,10,-1,-5
83,76,87,1,80,4,-3,9,7,7,-1,-6
84,74,88,1,80,2,-2,9,5,5,-1,-7
85,72,89,1,105,0,-2,9,3,3,-1,-8
86,69,90,1,80,9,-3,9,0,0,-1,-9
87,71,91,1,80,11,2,9,2,2,1,-8
88,67,92,1,80,7,-4,9,-2,10,-1,-9
89,69,93,2,95,9,2,9,0,0,1,-8
90,74,95,1,80,2,5,9,5,5,1,-7
91,76,96,1,80,4,2,9,7,7,1,-6
92,81,97,1,105,9,5,9,12,0,1,-5
93,83,98,1,80,11,2,9,14,2,1,-4
94,81,99,1,80,9,-2,9,12,0,-1,-5
95,79,100,1,80,7,-2,9,10,10,-1,-6
96,76,101,1,95,4,-3,9,7,7,-1,-7
97,79,102,1,80,7,3,9,10,10,1,-6
98,76,103,1,80,4,-3,9,7,7,-1,-7
99,74,104,1,80,2,-2,9,5,5,-1,-8
100,72,105,1,105,0,-2,9,3,3,-1,-9
101,69,106,1,80,9,-3,9,0,0,-1,-10
102,71,107,1,80,11,2,9,2,2,1,-9
103,67,108,1,80,7,-4,9,-2,10,-1,-10
104,64,109,1,95,4,-3,9,-5,7,-1,-11
105,67,110,1,80,7,3,9,-2,10,1,-10
106,67,111,2,80,7,0,9,-2,10,0,-10
107,69,113,1,105,9,2,9,0,0,1,-9
108,71,114,1,80,11,2,9,2,2,1,-8
109,69,115,1,80,9,-2,9,0,0,-1,-9
110,71,116,1,80,11,2,9,2,2,1,-8
111,72,117,1,95,0,1,9,3,3,1,-7
112,74,118,1,80,2,2,9,5,5,1,-6
113,76,119,1,80,4,2,9,7,7,1,-5
114,79,120,1,80,7,3,9,10,10,1,-4
115,81,121,1,105,9,2,9,12,0,1,-3
116,79,122,1,80,7,-2,9,10,10,-1,-4
117,76,123,1,80,4,-3,9,7,7,-1,-5
118,74,124,1,80,2,-2,9,5,5,-1,-6
119,72,125,1,95,0,-2,9,3,3,-1,-7
120,69,126,1,80,9,-3,9,0,0,-1,-8
121,71,127,1,80,11,2,9,2,2,1,-7
122,67,128,1,80,7,-4,9,-2,10,-1,-8
123,69,129,8,105,9,2,9,0,0,1,-7
