,midi_note,onset,duration,velocity,pitch_class,interval,root,relative_pitch,relative_pitch_class,parsons_code,parsons_cumsum
0,74,0,1,105,2,0,2,12,0,0,0
1,71,1,1,80,11,-3,2,9,9,-1,-1
2,69,2,1,105,9,-2,2,7,7,-1,-2
3,62,3,1,80,2,-7,2,0,0,-1,-3
4,62,4,2,80,2,0,2,0,0,0,-3
5,62,6,2,95,2,0,2,0,0,0,-3
6,74,8,1,80,2,12,2,12,0,1,-2
7,71,9,1,80,11,-3,2,9,9,-1,-3
8,69,10,1,105,9,-2,2,7,7,-1,-4
9,62,11,1,80,2,-7,2,0,0,-1,-5
10,66,12,1,80,6,4,2,4,4,1,-4
11,62,13,1,80,2,-4,2,0,0,-1,-5
12,71,14,1,95,11,9,2,9,9,1,-4
13,64,15,1,80,4,-7,2,2,2,-1,-5
14,64,16,2,80,4,0,2,2,2,0,-5
15,69,18,1,105,9,5,2,7,7,1,-4
16,66,19,1,80,6,-3,2,4,4,-1,-5
17,69,20,1,80,9,3,2,7,7,1,-4
18,74,21,1,80,2,5,2,12,0,1,-3
19,78,22,1,95,6,4,2,16,4,1,-2
20,79,23,1,80,7,1,2,17,5,1,-1
21,78,24,1,80,6,-1,2,16,4,-1,-2
22,76,25,1,80,4,-2,2,14,2,-1,-3
23,74,26,1,105,2,-2,2,12,0,-1,-4
24,71,27,1,80,11,-3,2,9,9,-1,-5
25,69,28,1,80,9,-2,2,7,7,-1,-6
26,66,29,1,80,6,-3,2,4,4,-1,-7
27,69,30,1,95,9,3,2,7,7,1,-6
28,62,31,1,80,2,-7,2,0,0,-1,-7
29,62,32,1,80,2,0,2,0,0,0,-7
30,74,33,0,80,2,12,2,12,0,1,-6
31,69,34,1,105,9,-5,2,7,7,-1,-7
32,62,35,1,80,2,-7,2,0,0,-1,-8
33,62,36,2,80,2,0,2,0,0,0,-8
34,62,38,2,95,2,0,2,0,0,0,-8
35,74,40,1,80,2,12,2,12,0,1,-7
36,71,41,1,80,11,-3,2,9,9,-1,-8
37,69,42,0,105,9,-2,2,7,7,-1,-9
38,71,42,0,80,11,2,2,9,9,1,-8
39,69,43,0,80,9,-2,2,7,7,-1,-9
40,66,44,1,80,6,-3,2,4,4,-1,-10
41,69,45,1,80,9,3,2,7,7,1,-9
42,71,46,1,95,11,2,2,9,9,1,-8
43,64,47,1,80,4,-7,2,2,2,-1,-9
44,64,48,2,80,4,0,2,2,2,0,-9
45,69,50,1,105,9,5,2,7,7,1,-8
46,62,51,1,80,2,-7,2,0,0,-1,-9
47,69,52,1,80,9,7,2,7,7,1,-8
48,74,53,1,80,2,5,2,12,0,1,-7
49,78,54,1,95,6,4,2,16,4,1,-6
50,79,55,1,80,7,1,2,17,5,1,-5
51,78,56,1,80,6,-1,2,16,4,-1,-6
52,76,57,1,80,4,-2,2,14,2,-1,-7
53,74,58,1,105,2,-2,2,12,0,-1,-8
54,71,59,1,80,11,-3,2,9,9,-1,-9
55,69,60,1,80,9,-2,2,7,7,-1,-10
56,66,61,1,80,6,-3,2,4,4,-1,-11
57,69,62,1,95,9,3,2,7,7,1,-10
58,62,63,1,80,2,-7,2,0,0,-1,-11
59,62,64,2,80,2,0,2,0,0,0,-11
60,74,66,1,105,2,12,2,12,0,1,-10
61,71,67,1,80,11,-3,2,9,9,-1,-11
62,69,68,1,80,9,-2,2,7,7,-1,-12
63,71,69,1,80,11,2,2,9,9,1,-11
64,74,70,2,95,2,3,2,12,0,1,-10
65,79,72,0,80,7,5,2,17,5,1,-9
66,78,72,0,80,6,-1,2,16,4,-1,-10
67,76,73,0,80,4,-2,2,14,2,-1,-11
68,74,74,1,105,2,-2,2,12,0,-1,-12
69,71,75,1,80,11,-3,2,9,9,-1,-13
70,73,76,1,80,1,2,2,11,11,1,-12
71,69,77,1,80,9,-4,2,7,7,-1,-13
72,71,78,1,95,11,2,2,9,9,1,-12
73,64,79,1,80,4,-7,2,2,2,-1,-13
74,64,80,2,80,4,0,2,2,2,0,-13
75,74,82,1,105,2,10,2,12,0,1,-12
76,71,83,1,80,11,-3,2,9,9,-1,-13
77,69,84,1,80,9,-2,2,7,7,-1,-14
78,71,85,1,80,11,2,2,9,9,1,-13
79,74,86,1,95,2,3,2,12,0,1,-12
80,79,87,1,80,7,5,2,17,5,1,-11
81,78,88,1,80,6,-1,2,16,4,-1,-12
82,76,89,1,80,4,-2,2,14,2,-1,-13
83,74,90,1,105,2,-2,2,12,0,-1,-14
84,71,91,1,80,11,-3,2,9,9,-1,-15
85,69,92,1,80,9,-2,2,7,7,-1,-16
86,66,93,1,80,6,-3,2,4,4,-1,-17
87,69,94,1,95,9,3,2,7,7,1,-16
88,62,95,1,80,2,-7,2,0,0,-1,-17
89,62,96,2,80,2,0,2,0,0,0,-17
90,74,98,1,105,2,12,2,12,0,1,-16
91,71,99,1,80,11,-3,2,9,9,-1,-17
92,69,100,1,80,9,-2,2,7,7,-1,-18
93,71,101,1,80,11,2,2,9,9,1,-17
94,74,102,2,95,2,3,2,12,0,1,-16
95,79,104,0,80,7,5,2,17,5,1,-15
96,78,104,0,80,6,-1,2,16,4,-1,-16
97,76,105,0,80,4,-2,2,14,2,-1,-17
98,74,106,1,105,2,-2,2,12,0,-1,-18
99,71,107,1,80,11,-3,2,9,9,-1,-19
100,73,108,1,80,1,2,2,11,11,1,-18
101,69,109,1,80,9,-4,2,7,7,-1,-19
102,71,110,1,95,11,2,2,9,9,1,-18
103,64,111,1,80,4,-7,2,2,2,-1,-19
104,64,112,0,80,4,0,2,2,2,0,-19
105,62,112,0,80,2,-2,2,0,0,-1,-20
106,64,113,1,80,4,2,2,2,2,1,-19
107,74,114,1,105,2,10,2,12,0,1,-18
108,71,115,1,80,11,-3,2,9,9,-1,-19
109,69,116,1,80,9,-2,2,7,7,-1,-20
110,71,117,1,80,11,2,2,9,9,1,-19
111,74,118,1,95,2,3,2,12,0,1,-18
112,79,119,1,80,7,5,2,17,5,1,-17
113,78,120,1,80,6,-1,2,16,4,-1,-18
114,76,121,1,80,4,-2,2,14,2,-1,-19
115,74,122,1,105,2,-2,2,12,0,-1,-20
116,71,123,1,80,11,-3,2,9,9,-1,-21
117,69,124,1,80,9,-2,2,7,7,-1,-22
118,66,125,1,80,6,-3,2,4,4,-1,-23
119,69,126,1,95,9,3,2,7,7,1,-22
120,62,127,1,80,2,-7,2,0,0,-1,-23
121,62,128,2,80,2,0,2,0,0,0,-23
122,81,130,2,105,9,19,2,19,7,1,-22
123,78,132,1,80,6,-3,2,16,4,-1,-23
124,74,133,1,80,2,-4,2,12,0,-1,-24
125,74,134,2,95,2,0,2,12,0,0,-24
126,78,136,1,80,6,4,2,16,4,1,-23
127,79,137,1,80,7,1,2,17,5,1,-22
128,81,138,2,105,9,2,2,19,7,1,-21
129,78,140,1,80,6,-3,2,16,4,-1,-22
130,81,141,1,80,9,3,2,19,7,1,-21
131,83,142,1,95,11,2,2,21,9,1,-20
132,79,143,1,80,7,-4,2,17,5,-1,-21
133,76,144,1,80,4,-3,2,14,2,-1,-22
134,79,145,1,80,7,3,2,17,5,1,-21
135,81,146,3,105,9,2,2,19,7,1,-20
136,78,149,1,80,6,-3,2,16,4,-1,-21
137,74,150,2,95,2,-4,2,12,0,-1,-22
138,79,152,0,80,7,5,2,17,5,1,-21
139,78,152,0,80,6,-1,2,16,4,-1,-22
140,76,153,0,80,4,-2,2,14,2,-1,-23
141,74,154,1,105,2,-2,2,12,0,-1,-24
142,71,155,1,80,11,-3,2,9,9,-1,-25
143,69,156,1,80,9,-2,2,7,7,-1,-26
144,66,157,1,80,6,-3,2,4,4,-1,-27
145,69,158,1,95,9,3,2,7,7,1,-26
146,62,159,1,80,2,-7,2,0,0,-1,-27
147,62,160,2,80,2,0,2,0,0,0,-27
148,81,162,2,105,9,19,2,19,7,1,-26
149,78,164,1,80,6,-3,2,16,4,-1,-27
150,74,165,1,80,2,-4,2,12,0,-1,-28
151,74,166,2,95,2,0,2,12,0,0,-28
152,78,168,1,80,6,4,2,16,4,1,-27
153,79,169,1,80,7,1,2,17,5,1,-26
154,81,170,2,105,9,2,2,19,7,1,-25
155,78,172,1,80,6,-3,2,16,4,-1,-26
156,81,173,1,80,9,3,2,19,7,1,-25
157,83,174,1,95,11,2,2,21,9,1,-24
158,79,175,1,80,7,-4,2,17,5,-1,-25
159,76,176,1,80,4,-3,2,14,2,-1,-26
160,79,177,1,80,7,3,2,17,5,1,-25
161,81,178,3,105,9,2,2,19,7,1,-24
162,78,181,1,80,6,-3,2,16,4,-1,-25
163,79,182,3,95,7,1,2,17,5,1,-24
164,76,185,1,80,4,-3,2,14,2,-1,-25
165,74,186,1,105,2,-2,2,12,0,-1,-26
166,71,187,1,80,11,-3,2,9,9,-1,-27
167,69,188,1,80,9,-2,2,7,7,-1,-28
168,66,189,1,80,6,-3,2,4,4,-1,-29
169,69,190,1,95,9,3,2,7,7,1,-28
170,62,191,1,80,2,-7,2,0,0,-1,-29
171,62,192,2,80,2,0,2,0,0,0,-29
172,74,194,1,105,2,12,2,12,0,1,-28
173,78,195,1,80,6,4,2,16,4,1,-27
174,78,196,2,80,6,0,2,16,4,0,-27
175,74,198,1,95,2,-4,2,12,0,-1,-28
176,78,199,1,80,6,4,2,16,4,1,-27
177,76,200,1,80,4,-2,2,14,2,-1,-28
178,78,201,1,80,6,2,2,16,4,1,-27
179,74,202,1,105,2,-4,2,12,0,-1,-28
180,78,203,1,80,6,4,2,16,4,1,-27
181,78,204,2,80,6,0,2,16,4,0,-27
182,81,206,1,95,9,3,2,19,7,1,-26
183,78,207,1,80,6,-3,2,16,4,-1,-27
184,76,208,1,80,4,-2,2,14,2,-1,-28
185,78,209,1,80,6,2,2,16,4,1,-27
186,74,210,1,105,2,-4,2,12,0,-1,-28
187,78,211,1,80,6,4,2,16,4,1,-27
188,78,212,1,80,6,0,2,16,4,0,-27
189,76,213,1,80,4,-2,2,14,2,-1,-28
190,78,214,3,95,6,2,2,16,4,1,-27
191,76,217,1,80,4,-2,2,14,2,-1,-28
192,74,218,1,105,2,-2,2,12,0,-1,-29
193,71,219,1,80,11,-3,2,9,9,-1,-30
194,69,220,1,80,9,-2,2,7,7,-1,-31
195,66,221,1,80,6,-3,2,4,4,-1,-32
196,69,222,1,95,9,3,2,7,7,1,-31
197,62,223,1,80,2,-7,2,0,0,-1,-32
198,62,224,2,80,2,0,2,0,0,0,-32
199,74,226,1,105,2,12,2,12,0,1,-31
200,78,227,1,80,6,4,2,16,4,1,-30
201,78,228,2,80,6,0,2,16,4,0,-30
202,73,230,1,95,1,-5,2,11,11,-1,-31
203,78,231,1,80,6,5,2,16,4,1,-30
204,78,232,2,80,6,0,2,16,4,0,-30
205,71,234,1,105,11,-7,2,9,9,-1,-31
206,78,235,1,80,6,7,2,16,4,1,-30
207,78,236,0,80,6,0,2,16,4,0,-30
208,76,236,0,80,4,-2,2,14,2,-1,-31
209,78,237,1,80,6,2,2,16,4,1,-30
210,81,238,1,95,9,3,2,19,7,1,-29
211,78,239,1,80,6,-3,2,16,4,-1,-30
212,76,240,1,80,4,-2,2,14,2,-1,-31
213,78,241,1,80,6,2,2,16,4,1,-30
214,81,242,0,105,9,3,2,19,7,1,-29
215,79,242,0,80,7,-2,2,17,5,-1,-30
216,78,243,0,80,6,-1,2,16,4,-1,-31
217,79,244,0,80,7,1,2,17,5,1,-30
218,78,244,0,80,6,-1,2,16,4,-1,-31
219,76,245,0,80,4,-2,2,14,2,-1,-32
220,78,246,1,95,6,2,2,16,4,1,-31
221,79,247,1,80,7,1,2,17,5,1,-30
222,78,248,1,80,6,-1,2,16,4,-1,-31
223,76,249,1,80,4,-2,2,14,2,-1,-32
224,74,250,1,105,2,-2,2,12,0,-1,-33
225,71,251,1,80,11,-3,2,9,9,-1,-34
226,69,252,1,80,9,-2,2,7,7,-1,-35
227,66,253,1,80,6,-3,2,4,4,-1,-36
228,69,254,1,95,9,3,2,7,7,1,-35
229,62,255,1,80,2,-7,2,0,0,-1,-36
230,62,256,2,80,2,0,2,0,0,0,-36
