,midi_note,onset,duration,velocity,pitch_class,interval,root,relative_pitch,relative_pitch_class,parsons_code,parsons_cumsum
0,74,0,1,105,2,0,2,12,0,0,0
1,71,1,1,80,11,-3,2,9,9,-1,-1
2,69,2,1,105,9,-2,2,7,7,-1,-2
3,62,3,1,80,2,-7,2,0,0,-1,-3
4,62,4,1,80,2,0,2,0,0,0,-3
5,62,5,1,80,2,0,2,0,0,0,-3
6,69,6,1,95,9,7,2,7,7,1,-2
7,62,7,1,80,2,-7,2,0,0,-1,-3
8,71,8,1,80,11,9,2,9,9,1,-2
9,62,9,1,80,2,-9,2,0,0,-1,-3
10,69,10,1,105,9,7,2,7,7,1,-2
11,62,11,1,80,2,-7,2,0,0,-1,-3
12,66,12,1,80,6,4,2,4,4,1,-2
13,69,13,1,80,9,3,2,7,7,1,-1
14,71,14,1,95,11,2,2,9,9,1,0
15,76,15,1,80,4,5,2,14,2,1,1
16,76,16,1,80,4,0,2,14,2,0,1
17,74,17,1,80,2,-2,2,12,0,-1,0
18,69,18,1,105,9,-5,2,7,7,-1,-1
19,62,19,1,80,2,-7,2,0,0,-1,-2
20,62,20,0,80,2,0,2,0,0,0,-2
21,62,20,0,80,2,0,2,0,0,0,-2
22,62,21,0,80,2,0,2,0,0,0,-2
23,69,22,2,95,9,7,2,7,7,1,-1
24,71,24,1,80,11,2,2,9,9,1,0
25,73,25,1,80,1,2,2,11,11,1,1
26,74,26,1,105,2,1,2,12,0,1,2
27,71,27,1,80,11,-3,2,9,9,-1,1
28,69,28,1,80,9,-2,2,7,7,-1,0
29,66,29,1,80,6,-3,2,4,4,-1,-1
30,69,30,1,95,9,3,2,7,7,1,0
31,62,31,1,80,2,-7,2,0,0,-1,-1
32,62,32,1,80,2,0,2,0,0,0,-1
33,62,33,1,80,2,0,2,0,0,0,-1
34,69,34,1,105,9,7,2,7,7,1,0
35,62,35,1,80,2,-7,2,0,0,-1,-1
36,62,36,1,80,2,0,2,0,0,0,-1
37,62,37,1,80,2,0,2,0,0,0,-1
38,69,38,1,95,9,7,2,7,7,1,0
39,62,39,1,80,2,-7,2,0,0,-1,-1
40,71,40,1,80,11,9,2,9,9,1,0
41,62,41,1,80,2,-9,2,0,0,-1,-1
42,69,42,1,105,9,7,2,7,7,1,0
43,62,43,1,80,2,-7,2,0,0,-1,-1
44,66,44,1,80,6,4,2,4,4,1,0
45,69,45,1,80,9,3,2,7,7,1,1
46,71,46,1,95,11,2,2,9,9,1,2
47,76,47,1,80,4,5,2,14,2,1,3
48,76,48,1,80,4,0,2,14,2,0,3
49,74,49,1,80,2,-2,2,12,0,-1,2
50,69,50,1,105,9,-5,2,7,7,-1,1
51,62,51,1,80,2,-7,2,0,0,-1,0
52,62,52,0,80,2,0,2,0,0,0,0
53,62,52,0,80,2,0,2,0,0,0,0
54,62,53,0,80,2,0,2,0,0,0,0
55,69,54,2,95,9,7,2,7,7,1,1
56,71,56,1,80,11,2,2,9,9,1,2
57,73,57,1,80,1,2,2,11,11,1,3
58,74,58,1,105,2,1,2,12,0,1,4
59,71,59,1,80,11,-3,2,9,9,-1,3
60,69,60,1,80,9,-2,2,7,7,-1,2
61,66,61,1,80,6,-3,2,4,4,-1,1
62,69,62,1,95,9,3,2,7,7,1,2
63,62,63,1,80,2,-7,2,0,0,-1,1
64,62,64,1,80,2,0,2,0,0,0,1
65,62,65,1,80,2,0,2,0,0,0,1
66,74,66,1,105,2,12,2,12,0,1,2
67,71,67,1,80,11,-3,2,9,9,-1,1
68,69,68,1,80,9,-2,2,7,7,-1,0
69,71,69,1,80,11,2,2,9,9,1,1
70,74,70,1,95,2,3,2,12,0,1,2
71,78,71,1,80,6,4,2,16,4,1,3
72,76,72,1,80,4,-2,2,14,2,-1,2
73,69,73,1,80,9,-7,2,7,7,-1,1
74,74,74,1,105,2,5,2,12,0,1,2
75,71,75,1,80,11,-3,2,9,9,-1,1
76,69,76,1,80,9,-2,2,7,7,-1,0
77,73,77,1,80,1,4,2,11,11,1,1
78,71,78,1,95,11,-2,2,9,9,-1,0
79,64,79,1,80,4,-7,2,2,2,-1,-1
80,64,80,1,80,4,0,2,2,2,0,-1
81,69,81,1,80,9,5,2,7,7,1,0
82,74,82,1,105,2,5,2,12,0,1,1
83,71,83,1,80,11,-3,2,9,9,-1,0
84,69,84,1,80,9,-2,2,7,7,-1,-1
85,71,85,1,80,11,2,2,9,9,1,0
86,74,86,1,95,2,3,2,12,0,1,1
87,78,87,1,80,6,4,2,16,4,1,2
88,76,88,1,80,4,-2,2,14,2,-1,1
89,69,89,1,80,9,-7,2,7,7,-1,0
90,74,90,1,105,2,5,2,12,0,1,1
91,71,91,1,80,11,-3,2,9,9,-1,0
92,69,92,1,80,9,-2,2,7,7,-1,-1
93,66,93,1,80,6,-3,2,4,4,-1,-2
94,69,94,1,95,9,3,2,7,7,1,-1
95,62,95,1,80,2,-7,2,0,0,-1,-2
96,62,96,1,80,2,0,2,0,0,0,-2
97,62,97,1,80,2,0,2,0,0,0,-2
98,74,98,1,105,2,12,2,12,0,1,-1
99,71,99,1,80,11,-3,2,9,9,-1,-2
100,69,100,1,80,9,-2,2,7,7,-1,-3
101,71,101,1,80,11,2,2,9,9,1,-2
102,74,102,1,95,2,3,2,12,0,1,-1
103,78,103,1,80,6,4,2,16,4,1,0
104,76,104,1,80,4,-2,2,14,2,-1,-1
105,69,105,1,80,9,-7,2,7,7,-1,-2
106,74,106,1,105,2,5,2,12,0,1,-1
107,71,107,1,80,11,-3,2,9,9,-1,-2
108,71,108,2,80,11,0,2,9,9,0,-2
109,78,110,1,95,6,7,2,16,4,1,-1
110,71,111,1,80,11,-7,2,9,9,-1,-2
111,71,112,2,80,11,0,2,9,9,0,-2
112,74,114,1,105,2,3,2,12,0,1,-1
113,71,115,1,80,11,-3,2,9,9,-1,-2
114,69,116,1,80,9,-2,2,7,7,-1,-3
115,71,117,1,80,11,2,2,9,9,1,-2
116,74,118,2,95,2,3,2,12,0,1,-1
117,79,120,0,80,7,5,2,17,5,1,0
118,78,120,0,80,6,-1,2,16,4,-1,-1
119,76,121,0,80,4,-2,2,14,2,-1,-2
120,74,122,1,105,2,-2,2,12,0,-1,-3
121,71,123,1,80,11,-3,2,9,9,-1,-4
122,69,124,1,80,9,-2,2,7,7,-1,-5
123,66,125,1,80,6,-3,2,4,4,-1,-6
124,69,126,1,95,9,3,2,7,7,1,-5
125,62,127,1,80,2,-7,2,0,0,-1,-6
126,62,128,1,80,2,0,2,0,0,0,-6
127,62,129,1,80,2,0,2,0,0,0,-6
128,78,130,0,105,6,16,2,16,4,1,-5
129,79,130,0,80,7,1,2,17,5,1,-4
130,81,131,0,80,9,2,2,19,7,1,-3
131,81,132,1,80,9,0,2,19,7,0,-3
132,78,133,1,80,6,-3,2,16,4,-1,-4
133,74,134,1,95,2,-4,2,12,0,-1,-5
134,76,135,1,80,4,2,2,14,2,1,-4
135,78,136,1,80,6,2,2,16,4,1,-3
136,74,137,1,80,2,-4,2,12,0,-1,-4
137,69,138,0,105,9,-5,2,7,7,-1,-5
138,73,138,0,80,1,4,2,11,11,1,-4
139,69,139,0,80,9,-4,2,7,7,-1,-5
140,78,140,1,80,6,9,2,16,4,1,-4
141,74,141,1,80,2,-4,2,12,0,-1,-5
142,76,142,1,95,4,2,2,14,2,1,-4
143,74,143,1,80,2,-2,2,12,0,-1,-5
144,71,144,1,80,11,-3,2,9,9,-1,-6
145,74,145,1,80,2,3,2,12,0,1,-5
146,78,146,0,105,6,4,2,16,4,1,-4
147,79,146,0,80,7,1,2,17,5,1,-3
148,81,147,0,80,9,2,2,19,7,1,-2
149,81,148,1,80,9,0,2,19,7,0,-2
150,78,149,1,80,6,-3,2,16,4,-1,-3
151,74,150,1,95,2,-4,2,12,0,-1,-4
152,76,151,1,80,4,2,2,14,2,1,-3
153,78,152,1,80,6,2,2,16,4,1,-2
154,73,153,1,80,1,-5,2,11,11,-1,-3
155,74,154,1,105,2,1,2,12,0,1,-2
156,71,155,1,80,11,-3,2,9,9,-1,-3
157,69,156,1,80,9,-2,2,7,7,-1,-4
158,66,157,1,80,6,-3,2,4,4,-1,-5
159,69,158,1,95,9,3,2,7,7,1,-4
160,62,159,1,80,2,-7,2,0,0,-1,-5
161,62,160,1,80,2,0,2,0,0,0,-5
162,62,161,1,80,2,0,2,0,0,0,-5
163,69,162,0,105,9,7,2,7,7,1,-4
164,73,162,0,80,1,4,2,11,11,1,-3
165,69,163,0,80,9,-4,2,7,7,-1,-4
166,78,164,1,80,6,9,2,16,4,1,-3
167,74,165,1,80,2,-4,2,12,0,-1,-4
168,69,166,1,95,9,-5,2,7,7,-1,-5
169,74,167,1,80,2,5,2,12,0,1,-4
170,78,168,1,80,6,4,2,16,4,1,-3
171,74,169,1,80,2,-4,2,12,0,-1,-4
172,69,170,0,105,9,-5,2,7,7,-1,-5
173,73,170,0,80,1,4,2,11,11,1,-4
174,69,171,0,80,9,-4,2,7,7,-1,-5
175,78,172,1,80,6,9,2,16,4,1,-4
176,74,173,1,80,2,-4,2,12,0,-1,-5
177,76,174,1,95,4,2,2,14,2,1,-4
178,74,175,1,80,2,-2,2,12,0,-1,-5
179,71,176,1,80,11,-3,2,9,9,-1,-6
180,74,177,1,80,2,3,2,12,0,1,-5
181,78,178,0,105,6,4,2,16,4,1,-4
182,79,178,0,80,7,1,2,17,5,1,-3
183,81,179,0,80,9,2,2,19,7,1,-2
184,81,180,1,80,9,0,2,19,7,0,-2
185,78,181,1,80,6,-3,2,16,4,-1,-3
186,81,182,1,95,9,3,2,19,7,1,-2
187,78,183,1,80,6,-3,2,16,4,-1,-3
188,76,184,1,80,4,-2,2,14,2,-1,-4
189,74,185,1,80,2,-2,2,12,0,-1,-5
190,76,186,0,105,4,2,2,14,2,1,-4
191,78,186,0,80,6,2,2,16,4,1,-3
192,79,187,0,80,7,1,2,17,5,1,-2
193,78,188,1,80,6,-1,2,16,4,-1,-3
194,76,189,1,80,4,-2,2,14,2,-1,-4
195,74,190,1,95,2,-2,2,12,0,-1,-5
196,71,191,1,80,11,-3,2,9,9,-1,-6
197,69,192,1,80,9,-2,2,7,7,-1,-7
198,71,193,1,80,11,2,2,9,9,1,-6
199,74,194,1,105,2,3,2,12,0,1,-5
200,79,195,1,80,7,5,2,17,5,1,-4
201,78,196,0,80,6,-1,2,16,4,-1,-5
202,79,196,0,80,7,1,2,17,5,1,-4
203,78,197,1,80,6,-1,2,16,4,-1,-5
204,74,198,1,95,2,-4,2,12,0,-1,-6
205,78,199,1,80,6,4,2,16,4,1,-5
206,76,200,1,80,4,-2,2,14,2,-1,-6
207,69,201,1,80,9,-7,2,7,7,-1,-7
208,74,202,1,105,2,5,2,12,0,1,-6
209,79,203,1,80,7,5,2,17,5,1,-5
210,78,204,0,80,6,-1,2,16,4,-1,-6
211,79,204,0,80,7,1,2,17,5,1,-5
212,78,205,1,80,6,-1,2,16,4,-1,-6
213,81,206,1,95,9,3,2,19,7,1,-5
214,78,207,1,80,6,-3,2,16,4,-1,-6
215,76,208,1,80,4,-2,2,14,2,-1,-7
216,69,209,1,80,9,-7,2,7,7,-1,-8
217,74,210,1,105,2,5,2,12,0,1,-7
218,79,211,1,80,7,5,2,17,5,1,-6
219,78,212,0,80,6,-1,2,16,4,-1,-7
220,79,212,0,80,7,1,2,17,5,1,-6
221,78,213,1,80,6,-1,2,16,4,-1,-7
222,74,214,1,95,2,-4,2,12,0,-1,-8
223,78,215,1,80,6,4,2,16,4,1,-7
224,76,216,1,80,4,-2,2,14,2,-1,-8
225,73,217,1,80,1,-3,2,11,11,-1,-9
226,74,218,1,105,2,1,2,12,0,1,-8
227,71,219,1,80,11,-3,2,9,9,-1,-9
228,69,220,1,80,9,-2,2,7,7,-1,-10
229,66,221,1,80,6,-3,2,4,4,-1,-11
230,69,222,1,95,9,3,2,7,7,1,-10
231,62,223,1,80,2,-7,2,0,0,-1,-11
232,62,224,1,80,2,0,2,0,0,0,-11
233,62,225,1,80,2,0,2,0,0,0,-11
234,74,226,1,105,2,12,2,12,0,1,-10
235,79,227,1,80,7,5,2,17,5,1,-9
236,78,228,0,80,6,-1,2,16,4,-1,-10
237,79,228,0,80,7,1,2,17,5,1,-9
238,78,229,1,80,6,-1,2,16,4,-1,-10
239,74,230,1,95,2,-4,2,12,0,-1,-11
240,78,231,1,80,6,4,2,16,4,1,-10
241,76,232,1,80,4,-2,2,14,2,-1,-11
242,69,233,1,80,9,-7,2,7,7,-1,-12
243,74,234,1,105,2,5,2,12,0,1,-11
244,79,235,1,80,7,5,2,17,5,1,-10
245,78,236,0,80,6,-1,2,16,4,-1,-11
246,79,236,0,80,7,1,2,17,5,1,-10
247,78,237,1,80,6,-1,2,16,4,-1,-11
248,81,238,1,95,9,3,2,19,7,1,-10
249,78,239,1,80,6,-3,2,16,4,-1,-11
250,76,240,1,80,4,-2,2,14,2,-1,-12
251,78,241,1,80,6,2,2,16,4,1,-11
252,79,242,2,105,7,1,2,17,5,1,-10
253,79,244,0,80,7,0,2,17,5,0,-10
254,78,244,0,80,6,-1,2,16,4,-1,-11
255,76,245,0,80,4,-2,2,14,2,-1,-12
256,78,246,2,95,6,2,2,16,4,1,-11
257,79,248,0,80,7,1,2,17,5,1,-10
258,78,248,0,80,6,-1,2,16,4,-1,-11
259,76,249,0,80,4,-2,2,14,2,-1,-12
260,74,250,1,105,2,-2,2,12,0,-1,-13
261,71,251,1,80,11,-3,2,9,9,-1,-14
262,69,252,1,80,9,-2,2,7,7,-1,-15
263,66,253,1,80,6,-3,2,4,4,-1,-16
264,69,254,1,95,9,3,2,7,7,1,-15
265,62,255,1,80,2,-7,2,0,0,-1,-16
266,62,256,4,80,2,0,2,0,0,0,-16
