,midi_note,onset,duration,velocity,pitch_class,interval,root,relative_pitch,relative_pitch_class,parsons_code,parsons_cumsum
0,74,0,1,105,2,0,7,7,7,0,0
1,72,1,1,80,0,-2,7,5,5,-1,-1
2,71,2,1,105,11,-1,7,4,4,-1,-2
3,67,3,1,80,7,-4,7,0,0,-1,-3
4,67,4,2,80,7,0,7,0,0,0,-3
5,62,6,1,95,2,-5,7,-5,7,-1,-4
6,67,7,1,80,7,5,7,0,0,1,-3
7,67,8,2,80,7,0,7,0,0,0,-3
8,69,10,1,105,9,2,7,2,2,1,-2
9,66,11,1,80,6,-3,7,-1,11,-1,-3
10,66,12,2,80,6,0,7,-1,11,0,-3
11,69,14,1,95,9,3,7,2,2,1,-2
12,71,15,1,80,11,2,7,4,4,1,-1
13,72,16,1,80,0,1,7,5,5,1,0
14,69,17,1,80,9,-3,7,2,2,-1,-1
15,71,18,1,105,11,2,7,4,4,1,0
16,67,19,1,80,7,-4,7,0,0,-1,-1
17,67,20,2,80,7,0,7,0,0,0,-1
18,62,22,1,95,2,-5,7,-5,7,-1,-2
19,67,23,1,80,7,5,7,0,0,1,-1
20,67,24,2,80,7,0,7,0,0,0,-1
21,69,26,1,105,9,2,7,2,2,1,0
22,66,27,1,80,6,-3,7,-1,11,-1,-1
23,72,28,1,80,0,6,7,5,5,1,0
24,66,29,1,80,6,-6,7,-1,11,-1,-1
25,69,30,1,95,9,3,7,2,2,1,0
26,67,31,1,80,7,-2,7,0,0,-1,-1
27,67,32,1,80,7,0,7,0,0,0,-1
28,69,33,1,80,9,2,7,2,2,1,0
29,71,34,1,105,11,2,7,4,4,1,1
30,67,35,1,80,7,-4,7,0,0,-1,0
31,67,36,2,80,7,0,7,0,0,0,0
32,62,38,1,95,2,-5,7,-5,7,-1,-1
33,67,39,1,80,7,5,7,0,0,1,0
34,67,40,2,80,7,0,7,0,0,0,0
35,69,42,1,105,9,2,7,2,2,1,1
36,66,43,1,80,6,-3,7,-1,11,-1,0
37,66,44,2,80,6,0,7,-1,11,0,0
38,69,46,1,95,9,3,7,2,2,1,1
39,71,47,1,80,11,2,7,4,4,1,2
40,72,48,1,80,0,1,7,5,5,1,3
41,69,49,1,80,9,-3,7,2,2,-1,2
42,67,50,1,105,7,-2,7,0,0,-1,1
43,79,51,1,80,7,12,7,12,0,1,2
44,79,52,1,80,7,0,7,12,0,0,2
45,78,53,1,80,6,-1,7,11,11,-1,1
46,79,54,1,95,7,1,7,12,0,1,2
47,83,55,1,80,11,4,7,16,4,1,3
48,81,56,1,80,9,-2,7,14,2,-1,2
49,79,57,1,80,7,-2,7,12,0,-1,1
50,78,58,1,105,6,-1,7,11,11,-1,0
51,74,59,1,80,2,-4,7,7,7,-1,-1
52,72,60,1,80,0,-2,7,5,5,-1,-2
53,69,61,1,80,9,-3,7,2,2,-1,-3
54,71,62,1,95,11,2,7,4,4,1,-2
55,67,63,1,80,7,-4,7,0,0,-1,-3
56,67,64,1,80,7,0,7,0,0,0,-3
57,69,65,1,80,9,2,7,2,2,1,-2
58,71,66,1,105,11,2,7,4,4,1,-1
59,67,67,1,80,7,-4,7,0,0,-1,-2
60,67,68,2,80,7,0,7,0,0,0,-2
61,62,70,1,95,2,-5,7,-5,7,-1,-3
62,67,71,1,80,7,5,7,0,0,1,-2
63,67,72,2,80,7,0,7,0,0,0,-2
64,69,74,1,105,9,2,7,2,2,1,-1
65,66,75,1,80,6,-3,7,-1,11,-1,-2
66,66,76,2,80,6,0,7,-1,11,0,-2
67,69,78,1,95,9,3,7,2,2,1,-1
68,71,79,1,80,11,2,7,4,4,1,0
69,72,80,1,80,0,1,7,5,5,1,1
70,69,81,1,80,9,-3,7,2,2,-1,0
71,71,82,1,105,11,2,7,4,4,1,1
72,67,83,1,80,7,-4,7,0,0,-1,0
73,67,84,2,80,7,0,7,0,0,0,0
74,62,86,1,95,2,-5,7,-5,7,-1,-1
75,67,87,1,80,7,5,7,0,0,1,0
76,67,88,2,80,7,0,7,0,0,0,0
77,69,90,1,105,9,2,7,2,2,1,1
78,66,91,1,80,6,-3,7,-1,11,-1,0
79,72,92,1,80,0,6,7,5,5,1,1
80,66,93,1,80,6,-6,7,-1,11,-1,0
81,69,94,1,95,9,3,7,2,2,1,1
82,67,95,1,80,7,-2,7,0,0,-1,0
83,67,96,1,80,7,0,7,0,0,0,0
84,69,97,1,80,9,2,7,2,2,1,1
85,71,98,1,105,11,2,7,4,4,1,2
86,67,99,1,80,7,-4,7,0,0,-1,1
87,67,100,2,80,7,0,7,0,0,0,1
88,62,102,1,95,2,-5,7,-5,7,-1,0
89,67,103,1,80,7,5,7,0,0,1,1
90,67,104,2,80,7,0,7,0,0,0,1
91,69,106,1,105,9,2,7,2,2,1,2
92,66,107,1,80,6,-3,7,-1,11,-1,1
93,66,108,2,80,6,0,7,-1,11,0,1
94,69,110,1,95,9,3,7,2,2,1,2
95,71,111,1,80,11,2,7,4,4,1,3
96,72,112,1,80,0,1,7,5,5,1,4
97,69,113,1,80,9,-3,7,2,2,-1,3
98,67,114,1,105,7,-2,7,0,0,-1,2
99,79,115,1,80,7,12,7,12,0,1,3
100,79,116,1,80,7,0,7,12,0,0,3
101,78,117,1,80,6,-1,7,11,11,-1,2
102,79,118,1,95,7,1,7,12,0,1,3
103,83,119,1,80,11,4,7,16,4,1,4
104,81,120,1,80,9,-2,7,14,2,-1,3
105,79,121,1,80,7,-2,7,12,0,-1,2
106,78,122,1,105,6,-1,7,11,11,-1,1
107,74,123,1,80,2,-4,7,7,7,-1,0
108,72,124,1,80,0,-2,7,5,5,-1,-1
109,69,125,1,80,9,-3,7,2,2,-1,-2
110,71,126,1,95,11,2,7,4,4,1,-1
111,67,127,1,80,7,-4,7,0,0,-1,-2
112,67,128,1,80,7,0,7,0,0,0,-2
113,69,129,1,80,9,2,7,2,2,1,-1
114,71,130,2,105,11,2,7,4,4,1,0
115,71,132,1,80,11,0,7,4,4,0,0
116,69,133,1,80,9,-2,7,2,2,-1,-1
117,71,134,2,95,11,2,7,4,4,1,0
118,71,136,1,80,11,0,7,4,4,0,0
119,69,137,1,80,9,-2,7,2,2,-1,-1
120,71,138,1,105,11,2,7,4,4,1,0
121,74,139,1,80,2,3,7,7,7,1,1
122,79,140,1,80,7,5,7,12,0,1,2
123,74,141,1,80,2,-5,7,7,7,-1,1
124,69,142,1,95,9,-5,7,2,2,-1,0
125,71,143,1,80,11,2,7,4,4,1,1
126,72,144,1,80,0,1,7,5,5,1,2
127,69,145,1,80,9,-3,7,2,2,-1,1
128,67,146,1,105,7,-2,7,0,0,-1,0
129,79,147,1,80,7,12,7,12,0,1,1
130,78,148,1,80,6,-1,7,11,11,-1,0
131,81,149,1,80,9,3,7,14,2,1,1
132,79,150,3,95,7,-2,7,12,0,-1,0
133,81,153,1,80,9,2,7,14,2,1,1
134,83,154,1,105,11,2,7,16,4,1,2
135,79,155,1,80,7,-4,7,12,0,-1,1
136,79,156,2,80,7,0,7,12,0,0,1
137,74,158,1,95,2,-5,7,7,7,-1,0
138,76,159,1,80,4,2,7,9,9,1,1
139,78,160,1,80,6,2,7,11,11,1,2
140,74,161,1,80,2,-4,7,7,7,-1,1
141,79,162,2,105,7,5,7,12,0,1,2
142,79,164,1,80,7,0,7,12,0,0,2
143,78,165,1,80,6,-1,7,11,11,-1,1
144,79,166,1,95,7,1,7,12,0,1,2
145,81,167,1,80,9,2,7,14,2,1,3
146,83,168,1,80,11,2,7,16,4,1,4
147,79,169,1,80,7,-4,7,12,0,-1,3
148,74,170,1,105,2,-5,7,7,7,-1,2
149,76,171,1,80,4,2,7,9,9,1,3
150,78,172,1,80,6,2,7,11,11,1,4
151,74,173,1,80,2,-4,7,7,7,-1,3
152,69,174,1,95,9,-5,7,2,2,-1,2
153,71,175,1,80,11,2,7,4,4,1,3
154,72,176,1,80,0,1,7,5,5,1,4
155,69,177,1,80,9,-3,7,2,2,-1,3
156,67,178,1,105,7,-2,7,0,0,-1,2
157,79,179,1,80,7,12,7,12,0,1,3
158,78,180,1,80,6,-1,7,11,11,-1,2
159,81,181,1,80,9,3,7,14,2,1,3
160,79,182,1,95,7,-2,7,12,0,-1,2
161,83,183,1,80,11,4,7,16,4,1,3
162,81,184,1,80,9,-2,7,14,2,-1,2
163,79,185,1,80,7,-2,7,12,0,-1,1
164,78,186,1,105,6,-1,7,11,11,-1,0
165,74,187,1,80,2,-4,7,7,7,-1,-1
166,72,188,1,80,0,-2,7,5,5,-1,-2
167,69,189,1,80,9,-3,7,2,2,-1,-3
168,71,190,1,95,11,2,7,4,4,1,-2
169,67,191,1,80,7,-4,7,0,0,-1,-3
170,67,192,1,80,7,0,7,0,0,0,-3
171,69,193,1,80,9,2,7,2,2,1,-2
172,71,194,2,105,11,2,7,4,4,1,-1
173,71,196,1,80,11,0,7,4,4,0,-1
174,69,197,1,80,9,-2,7,2,2,-1,-2
175,71,198,2,95,11,2,7,4,4,1,-1
176,71,200,1,80,11,0,7,4,4,0,-1
177,69,201,1,80,9,-2,7,2,2,-1,-2
178,71,202,1,105,11,2,7,4,4,1,-1
179,74,203,1,80,2,3,7,7,7,1,0
180,79,204,1,80,7,5,7,12,0,1,1
181,74,205,1,80,2,-5,7,7,7,-1,0
182,69,206,1,95,9,-5,7,2,2,-1,-1
183,71,207,1,80,11,2,7,4,4,1,0
184,72,208,1,80,0,1,7,5,5,1,1
185,69,209,1,80,9,-3,7,2,2,-1,0
186,67,210,1,105,7,-2,7,0,0,-1,-1
187,79,211,1,80,7,12,7,12,0,1,0
188,78,212,1,80,6,-1,7,11,11,-1,-1
189,81,213,1,80,9,3,7,14,2,1,0
190,79,214,3,95,7,-2,7,12,0,-1,-1
191,81,217,1,80,9,2,7,14,2,1,0
192,83,218,1,105,11,2,7,16,4,1,1
193,79,219,1,80,7,-4,7,12,0,-1,0
194,79,220,2,80,7,0,7,12,0,0,0
195,74,222,1,95,2,-5,7,7,7,-1,-1
196,76,223,1,80,4,2,7,9,9,1,0
197,78,224,1,80,6,2,7,11,11,1,1
198,74,225,1,80,2,-4,7,7,7,-1,0
199,79,226,2,105,7,5,7,12,0,1,1
200,79,228,1,80,7,0,7,12,0,0,1
201,78,229,1,80,6,-1,7,11,11,-1,0
202,79,230,1,95,7,1,7,12,0,1,1
203,81,231,1,80,9,2,7,14,2,1,2
204,83,232,1,80,11,2,7,16,4,1,3
205,79,233,1,80,7,-4,7,12,0,-1,2
206,74,234,1,105,2,-5,7,7,7,-1,1
207,76,235,1,80,4,2,7,9,9,1,2
208,78,236,1,80,6,2,7,11,11,1,3
209,74,237,1,80,2,-4,7,7,7,-1,2
210,69,238,1,95,9,-5,7,2,2,-1,1
211,71,239,1,80,11,2,7,4,4,1,2
212,72,240,1,80,0,1,7,5,5,1,3
213,69,241,1,80,9,-3,7,2,2,-1,2
214,67,242,1,105,7,-2,7,0,0,-1,1
215,79,243,1,80,7,12,7,12,0,1,2
216,78,244,1,80,6,-1,7,11,11,-1,1
217,81,245,1,80,9,3,7,14,2,1,2
218,79,246,1,95,7,-2,7,12,0,-1,1
219,83,247,1,80,11,4,7,16,4,1,2
220,81,248,1,80,9,-2,7,14,2,-1,1
221,79,249,1,80,7,-2,7,12,0,-1,0
222,78,250,1,105,6,-1,7,11,11,-1,-1
223,74,251,1,80,2,-4,7,7,7,-1,-2
224,72,252,1,80,0,-2,7,5,5,-1,-3
225,69,253,1,80,9,-3,7,2,2,-1,-4
226,71,254,1,95,11,2,7,4,4,1,-3
227,67,255,1,80,7,-4,7,0,0,-1,-4
228,67,256,1,80,7,0,7,0,0,0,-4
229,69,257,1,80,9,2,7,2,2,1,-3
230,71,258,0,105,11,2,7,4,4,1,-2
231,72,258,0,80,0,1,7,5,5,1,-1
232,74,259,0,80,2,2,7,7,7,1,0
233,79,260,1,80,7,5,7,12,0,1,1
234,74,261,1,80,2,-5,7,7,7,-1,0
235,71,262,1,95,11,-3,7,4,4,-1,-1
236,67,263,1,80,7,-4,7,0,0,-1,-2
237,67,264,1,80,7,0,7,0,0,0,-2
238,71,265,1,80,11,4,7,4,4,1,-1
239,69,266,0,105,9,-2,7,2,2,-1,-2
240,71,266,0,80,11,2,7,4,4,1,-1
241,72,267,0,80,0,1,7,5,5,1,0
242,76,268,1,80,4,4,7,9,9,1,1
243,72,269,1,80,0,-4,7,5,5,-1,0
244,69,270,1,95,9,-3,7,2,2,-1,-1
245,66,271,1,80,6,-3,7,-1,11,-1,-2
246,66,272,1,80,6,0,7,-1,11,0,-2
247,69,273,1,80,9,3,7,2,2,1,-1
248,71,274,0,105,11,2,7,4,4,1,0
249,72,274,0,80,0,1,7,5,5,1,1
250,74,275,0,80,2,2,7,7,7,1,2
251,79,276,1,80,7,5,7,12,0,1,3
252,74,277,1,80,2,-5,7,7,7,-1,2
253,71,278,1,95,11,-3,7,4,4,-1,1
254,67,279,1,80,7,-4,7,0,0,-1,0
255,67,280,1,80,7,0,7,0,0,0,0
256,71,281,1,80,11,4,7,4,4,1,1
257,69,282,1,105,9,-2,7,2,2,-1,0
258,66,283,1,80,6,-3,7,-1,11,-1,-1
259,72,284,1,80,0,6,7,5,5,1,0
260,66,285,1,80,6,-6,7,-1,11,-1,-1
261,69,286,1,95,9,3,7,2,2,1,0
262,67,287,1,80,7,-2,7,0,0,-1,-1
263,67,288,2,80,7,0,7,0,0,0,-1
264,71,290,0,105,11,4,7,4,4,1,0
265,72,290,0,80,0,1,7,5,5,1,1
266,74,291,0,80,2,2,7,7,7,1,2
267,79,292,1,80,7,5,7,12,0,1,3
268,74,293,1,80,2,-5,7,7,7,-1,2
269,71,294,1,95,11,-3,7,4,4,-1,1
270,67,295,1,80,7,-4,7,0,0,-1,0
271,67,296,1,80,7,0,7,0,0,0,0
272,71,297,1,80,11,4,7,4,4,1,1
273,69,298,0,105,9,-2,7,2,2,-1,0
274,71,298,0,80,11,2,7,4,4,1,1
275,72,299,0,80,0,1,7,5,5,1,2
276,76,300,1,80,4,4,7,9,9,1,3
277,72,301,1,80,0,-4,7,5,5,-1,2
278,69,302,1,95,9,-3,7,2,2,-1,1
279,66,303,1,80,6,-3,7,-1,11,-1,0
280,66,304,1,80,6,0,7,-1,11,0,0
281,69,305,1,80,9,3,7,2,2,1,1
282,67,306,1,105,7,-2,7,0,0,-1,0
283,79,307,1,80,7,12,7,12,0,1,1
284,78,308,1,80,6,-1,7,11,11,-1,0
285,81,309,1,80,9,3,7,14,2,1,1
286,79,310,1,95,7,-2,7,12,0,-1,0
287,83,311,1,80,11,4,7,16,4,1,1
288,81,312,1,80,9,-2,7,14,2,-1,0
289,79,313,1,80,7,-2,7,12,0,-1,-1
290,78,314,1,105,6,-1,7,11,11,-1,-2
291,74,315,1,80,2,-4,7,7,7,-1,-3
292,72,316,1,80,0,-2,7,5,5,-1,-4
293,69,317,1,80,9,-3,7,2,2,-1,-5
294,71,318,1,95,11,2,7,4,4,1,-4
295,67,319,1,80,7,-4,7,0,0,-1,-5
296,67,320,1,80,7,0,7,0,0,0,-5
297,69,321,1,80,9,2,7,2,2,1,-4
298,71,322,0,105,11,2,7,4,4,1,-3
299,72,322,0,80,0,1,7,5,5,1,-2
300,74,323,0,80,2,2,7,7,7,1,-1
301,79,324,1,80,7,5,7,12,0,1,0
302,74,325,1,80,2,-5,7,7,7,-1,-1
303,71,326,1,95,11,-3,7,4,4,-1,-2
304,67,327,1,80,7,-4,7,0,0,-1,-3
305,67,328,1,80,7,0,7,0,0,0,-3
306,71,329,1,80,11,4,7,4,4,1,-2
307,69,330,0,105,9,-2,7,2,2,-1,-3
308,71,330,0,80,11,2,7,4,4,1,-2
309,72,331,0,80,0,1,7,5,5,1,-1
310,76,332,1,80,4,4,7,9,9,1,0
311,72,333,1,80,0,-4,7,5,5,-1,-1
312,69,334,1,95,9,-3,7,2,2,-1,-2
313,66,335,1,80,6,-3,7,-1,11,-1,-3
314,66,336,1,80,6,0,7,-1,11,0,-3
315,69,337,1,80,9,3,7,2,2,1,-2
316,71,338,0,105,11,2,7,4,4,1,-1
317,72,338,0,80,0,1,7,5,5,1,0
318,74,339,0,80,2,2,7,7,7,1,1
319,79,340,1,80,7,5,7,12,0,1,2
320,74,341,1,80,2,-5,7,7,7,-1,1
321,71,342,1,95,11,-3,7,4,4,-1,0
322,67,343,1,80,7,-4,7,0,0,-1,-1
323,67,344,1,80,7,0,7,0,0,0,-1
324,71,345,1,80,11,4,7,4,4,1,0
325,69,346,1,105,9,-2,7,2,2,-1,-1
326,66,347,1,80,6,-3,7,-1,11,-1,-2
327,72,348,1,80,0,6,7,5,5,1,-1
328,66,349,1,80,6,-6,7,-1,11,-1,-2
329,69,350,1,95,9,3,7,2,2,1,-1
330,67,351,1,80,7,-2,7,0,0,-1,-2
331,67,352,2,80,7,0,7,0,0,0,-2
332,71,354,0,105,11,4,7,4,4,1,-1
333,72,354,0,80,0,1,7,5,5,1,0
334,74,355,0,80,2,2,7,7,7,1,1
335,79,356,1,80,7,5,7,12,0,1,2
336,74,357,1,80,2,-5,7,7,7,-1,1
337,71,358,1,95,11,-3,7,4,4,-1,0
338,67,359,1,80,7,-4,7,0,0,-1,-1
339,67,360,1,80,7,0,7,0,0,0,-1
340,71,361,1,80,11,4,7,4,4,1,0
341,69,362,0,105,9,-2,7,2,2,-1,-1
342,71,362,0,80,11,2,7,4,4,1,0
343,72,363,0,80,0,1,7,5,5,1,1
344,76,364,1,80,4,4,7,9,9,1,2
345,72,365,1,80,0,-4,7,5,5,-1,1
346,69,366,1,95,9,-3,7,2,2,-1,0
347,66,367,1,80,6,-3,7,-1,11,-1,-1
348,66,368,1,80,6,0,7,-1,11,0,-1
349,69,369,1,80,9,3,7,2,2,1,0
350,67,370,1,105,7,-2,7,0,0,-1,-1
351,79,371,1,80,7,12,7,12,0,1,0
352,78,372,1,80,6,-1,7,11,11,-1,-1
353,81,373,1,80,9,3,7,14,2,1,0
354,79,374,1,95,7,-2,7,12,0,-1,-1
355,83,375,1,80,11,4,7,16,4,1,0
356,81,376,1,80,9,-2,7,14,2,-1,-1
357,79,377,1,80,7,-2,7,12,0,-1,-2
358,78,378,1,105,6,-1,7,11,11,-1,-3
359,74,379,1,80,2,-4,7,7,7,-1,-4
360,72,380,1,80,0,-2,7,5,5,-1,-5
361,69,381,1,80,9,-3,7,2,2,-1,-6
362,71,382,1,95,11,2,7,4,4,1,-5
363,67,383,1,80,7,-4,7,0,0,-1,-6
364,67,384,1,80,7,0,7,0,0,0,-6
365,69,385,1,80,9,2,7,2,2,1,-5
366,67,386,8,105,7,-2,7,0,0,-1,-6
