,midi_note,onset,duration,velocity,pitch_class,interval,root,relative_pitch,relative_pitch_class,parsons_code,parsons_cumsum
0,81,0,1,105,9,0,2,19,7,0,0
1,79,1,1,80,7,-2,2,17,5,-1,-1
2,78,2,1,105,6,-1,2,16,4,-1,-2
3,79,3,1,80,7,1,2,17,5,1,-1
4,76,4,1,80,4,-3,2,14,2,-1,-2
5,73,5,1,80,1,-3,2,11,11,-1,-3
6,74,6,2,95,2,1,2,12,0,1,-2
7,69,8,1,80,9,-5,2,7,7,-1,-3
8,67,9,1,80,7,-2,2,5,5,-1,-4
9,66,10,1,105,6,-1,2,4,4,-1,-5
10,67,11,1,80,7,1,2,5,5,1,-4
11,69,12,1,80,9,2,2,7,7,1,-3
12,71,13,1,80,11,2,2,9,9,1,-2
13,72,14,1,95,0,1,2,10,10,1,-1
14,69,15,1,80,9,-3,2,7,7,-1,-2
15,69,16,2,80,9,0,2,7,7,0,-2
16,69,18,1,105,9,0,2,7,7,0,-2
17,74,19,1,80,2,5,2,12,0,1,-1
18,74,20,1,80,2,0,2,12,0,0,-1
19,76,21,1,80,4,2,2,14,2,1,0
20,78,22,1,95,6,2,2,16,4,1,1
21,74,23,1,80,2,-4,2,12,0,-1,0
22,74,24,1,80,2,0,2,12,0,0,0
23,72,25,1,80,0,-2,2,10,10,-1,-1
24,69,26,1,105,9,-3,2,7,7,-1,-2
25,71,27,1,80,11,2,2,9,9,1,-1
26,72,28,1,80,0,1,2,10,10,1,0
27,69,29,1,80,9,-3,2,7,7,-1,-1
28,79,30,2,95,7,10,2,17,5,1,0
29,81,32,1,80,9,2,2,19,7,1,1
30,79,33,1,80,7,-2,2,17,5,-1,0
31,78,34,1,105,6,-1,2,16,4,-1,-1
32,79,35,1,80,7,1,2,17,5,1,0
33,76,36,1,80,4,-3,2,14,2,-1,-1
34,73,37,1,80,1,-3,2,11,11,-1,-2
35,74,38,2,95,2,1,2,12,0,1,-1
36,69,40,1,80,9,-5,2,7,7,-1,-2
37,67,41,1,80,7,-2,2,5,5,-1,-3
38,66,42,1,105,6,-1,2,4,4,-1,-4
39,67,43,1,80,7,1,2,5,5,1,-3
40,69,44,1,80,9,2,2,7,7,1,-2
41,71,45,1,80,11,2,2,9,9,1,-1
42,72,46,1,95,0,1,2,10,10,1,0
43,69,47,1,80,9,-3,2,7,7,-1,-1
44,67,48,2,80,7,-2,2,5,5,-1,-2
45,69,50,1,105,9,2,2,7,7,1,-1
46,74,51,1,80,2,5,2,12,0,1,0
47,74,52,1,80,2,0,2,12,0,0,0
48,74,53,1,80,2,0,2,12,0,0,0
49,78,54,1,95,6,4,2,16,4,1,1
50,74,55,1,80,2,-4,2,12,0,-1,0
51,74,56,1,80,2,0,2,12,0,0,0
52,72,57,1,80,0,-2,2,10,10,-1,-1
53,69,58,1,105,9,-3,2,7,7,-1,-2
54,71,59,1,80,11,2,2,9,9,1,-1
55,72,60,1,80,0,1,2,10,10,1,0
56,69,61,1,80,9,-3,2,7,7,-1,-1
57,74,62,2,95,2,5,2,12,0,1,0
58,81,64,1,80,9,7,2,19,7,1,1
59,79,65,1,80,7,-2,2,17,5,-1,0
60,78,66,1,105,6,-1,2,16,4,-1,-1
61,79,67,1,80,7,1,2,17,5,1,0
62,76,68,1,80,4,-3,2,14,2,-1,-1
63,73,69,1,80,1,-3,2,11,11,-1,-2
64,74,70,2,95,2,1,2,12,0,1,-1
65,69,72,1,80,9,-5,2,7,7,-1,-2
66,67,73,1,80,7,-2,2,5,5,-1,-3
67,66,74,1,105,6,-1,2,4,4,-1,-4
68,67,75,1,80,7,1,2,5,5,1,-3
69,69,76,1,80,9,2,2,7,7,1,-2
70,71,77,1,80,11,2,2,9,9,1,-1
71,72,78,1,95,0,1,2,10,10,1,0
72,69,79,1,80,9,-3,2,7,7,-1,-1
73,69,80,2,80,9,0,2,7,7,0,-1
74,69,82,1,105,9,0,2,7,7,0,-1
75,74,83,1,80,2,5,2,12,0,1,0
76,74,84,1,80,2,0,2,12,0,0,0
77,76,85,1,80,4,2,2,14,2,1,1
78,78,86,1,95,6,2,2,16,4,1,2
79,74,87,1,80,2,-4,2,12,0,-1,1
80,74,88,1,80,2,0,2,12,0,0,1
81,72,89,1,80,0,-2,2,10,10,-1,0
82,69,90,1,105,9,-3,2,7,7,-1,-1
83,71,91,1,80,11,2,2,9,9,1,0
84,72,92,1,80,0,1,2,10,10,1,1
85,69,93,1,80,9,-3,2,7,7,-1,0
86,79,94,2,95,7,10,2,17,5,1,1
87,81,96,1,80,9,2,2,19,7,1,2
88,79,97,1,80,7,-2,2,17,5,-1,1
89,78,98,1,105,6,-1,2,16,4,-1,0
90,79,99,1,80,7,1,2,17,5,1,1
91,76,100,1,80,4,-3,2,14,2,-1,0
92,73,101,1,80,1,-3,2,11,11,-1,-1
93,74,102,2,95,2,1,2,12,0,1,0
94,69,104,1,80,9,-5,2,7,7,-1,-1
95,67,105,1,80,7,-2,2,5,5,-1,-2
96,66,106,1,105,6,-1,2,4,4,-1,-3
97,67,107,1,80,7,1,2,5,5,1,-2
98,69,108,1,80,9,2,2,7,7,1,-1
99,71,109,1,80,11,2,2,9,9,1,0
100,72,110,1,95,0,1,2,10,10,1,1
101,69,111,1,80,9,-3,2,7,7,-1,0
102,67,112,2,80,7,-2,2,5,5,-1,-1
103,69,114,1,105,9,2,2,7,7,1,0
104,74,115,1,80,2,5,2,12,0,1,1
105,74,116,1,80,2,0,2,12,0,0,1
106,74,117,1,80,2,0,2,12,0,0,1
107,78,118,1,95,6,4,2,16,4,1,2
108,74,119,1,80,2,-4,2,12,0,-1,1
109,74,120,1,80,2,0,2,12,0,0,1
110,72,121,1,80,0,-2,2,10,10,-1,0
111,69,122,1,105,9,-3,2,7,7,-1,-1
112,71,123,1,80,11,2,2,9,9,1,0
113,72,124,1,80,0,1,2,10,10,1,1
114,69,125,1,80,9,-3,2,7,7,-1,0
115,74,126,2,95,2,5,2,12,0,1,1
116,74,128,1,80,2,0,2,12,0,0,1
117,76,129,1,80,4,2,2,14,2,1,2
118,78,130,1,105,6,2,2,16,4,1,3
119,76,131,1,80,4,-2,2,14,2,-1,2
120,78,132,1,80,6,2,2,16,4,1,3
121,79,133,1,80,7,1,2,17,5,1,4
122,81,134,4,95,9,2,2,19,7,1,5
123,83,138,1,105,11,2,2,21,9,1,6
124,79,139,1,80,7,-4,2,17,5,-1,5
125,81,140,1,80,9,2,2,19,7,1,6
126,79,141,1,80,7,-2,2,17,5,-1,5
127,78,142,1,95,6,-1,2,16,4,-1,4
128,74,143,1,80,2,-4,2,12,0,-1,3
129,74,144,1,80,2,0,2,12,0,0,3
130,76,145,1,80,4,2,2,14,2,1,4
131,78,146,1,105,6,2,2,16,4,1,5
132,76,147,1,80,4,-2,2,14,2,-1,4
133,78,148,1,80,6,2,2,16,4,1,5
134,79,149,1,80,7,1,2,17,5,1,6
135,81,150,2,95,9,2,2,19,7,1,7
136,81,152,2,80,9,0,2,19,7,0,7
137,83,154,1,105,11,2,2,21,9,1,8
138,79,155,1,80,7,-4,2,17,5,-1,7
139,81,156,1,80,9,2,2,19,7,1,8
140,78,157,1,80,6,-3,2,16,4,-1,7
141,79,158,4,95,7,1,2,17,5,1,8
142,78,162,1,105,6,-1,2,16,4,-1,7
143,76,163,1,80,4,-2,2,14,2,-1,6
144,78,164,1,80,6,2,2,16,4,1,7
145,79,165,1,80,7,1,2,17,5,1,8
146,81,166,2,95,9,2,2,19,7,1,9
147,81,168,2,80,9,0,2,19,7,0,9
148,83,170,1,105,11,2,2,21,9,1,10
149,79,171,1,80,7,-4,2,17,5,-1,9
150,81,172,1,80,9,2,2,19,7,1,10
151,79,173,1,80,7,-2,2,17,5,-1,9
152,78,174,1,95,6,-1,2,16,4,-1,8
153,74,175,1,80,2,-4,2,12,0,-1,7
154,74,176,1,80,2,0,2,12,0,0,7
155,74,177,1,80,2,0,2,12,0,0,7
156,83,178,2,105,11,9,2,21,9,1,8
157,81,180,1,80,9,-2,2,19,7,-1,7
158,78,181,1,80,6,-3,2,16,4,-1,6
159,79,182,1,95,7,1,2,17,5,1,7
160,83,183,1,80,11,4,2,21,9,1,8
161,81,184,1,80,9,-2,2,19,7,-1,7
162,79,185,1,80,7,-2,2,17,5,-1,6
163,78,186,1,105,6,-1,2,16,4,-1,5
164,74,187,1,80,2,-4,2,12,0,-1,4
165,76,188,1,80,4,2,2,14,2,1,5
166,78,189,1,80,6,2,2,16,4,1,6
167,79,190,1,95,7,1,2,17,5,1,7
168,83,191,1,80,11,4,2,21,9,1,8
169,81,192,1,80,9,-2,2,19,7,-1,7
170,79,193,1,80,7,-2,2,17,5,-1,6
171,78,194,1,105,6,-1,2,16,4,-1,5
172,76,195,1,80,4,-2,2,14,2,-1,4
173,78,196,1,80,6,2,2,16,4,1,5
174,79,197,1,80,7,1,2,17,5,1,6
175,81,198,4,95,9,2,2,19,7,1,7
176,83,202,1,105,11,2,2,21,9,1,8
177,79,203,1,80,7,-4,2,17,5,-1,7
178,81,204,1,80,9,2,2,19,7,1,8
179,79,205,1,80,7,-2,2,17,5,-1,7
180,78,206,1,95,6,-1,2,16,4,-1,6
181,74,207,1,80,2,-4,2,12,0,-1,5
182,74,208,1,80,2,0,2,12,0,0,5
183,76,209,1,80,4,2,2,14,2,1,6
184,78,210,1,105,6,2,2,16,4,1,7
185,76,211,1,80,4,-2,2,14,2,-1,6
186,78,212,1,80,6,2,2,16,4,1,7
187,79,213,1,80,7,1,2,17,5,1,8
188,81,214,2,95,9,2,2,19,7,1,9
189,81,216,2,80,9,0,2,19,7,0,9
190,83,218,1,105,11,2,2,21,9,1,10
191,79,219,1,80,7,-4,2,17,5,-1,9
192,81,220,1,80,9,2,2,19,7,1,10
193,78,221,1,80,6,-3,2,16,4,-1,9
194,79,222,4,95,7,1,2,17,5,1,10
195,78,226,1,105,6,-1,2,16,4,-1,9
196,76,227,1,80,4,-2,2,14,2,-1,8
197,78,228,1,80,6,2,2,16,4,1,9
198,79,229,1,80,7,1,2,17,5,1,10
199,81,230,2,95,9,2,2,19,7,1,11
200,81,232,2,80,9,0,2,19,7,0,11
201,83,234,1,105,11,2,2,21,9,1,12
202,79,235,1,80,7,-4,2,17,5,-1,11
203,81,236,1,80,9,2,2,19,7,1,12
204,79,237,1,80,7,-2,2,17,5,-1,11
205,78,238,1,95,6,-1,2,16,4,-1,10
206,74,239,1,80,2,-4,2,12,0,-1,9
207,74,240,1,80,2,0,2,12,0,0,9
208,74,241,1,80,2,0,2,12,0,0,9
209,83,242,2,105,11,9,2,21,9,1,10
210,81,244,1,80,9,-2,2,19,7,-1,9
211,78,245,1,80,6,-3,2,16,4,-1,8
212,79,246,1,95,7,1,2,17,5,1,9
213,83,247,1,80,11,4,2,21,9,1,10
214,81,248,1,80,9,-2,2,19,7,-1,9
215,79,249,1,80,7,-2,2,17,5,-1,8
216,78,250,1,105,6,-1,2,16,4,-1,7
217,74,251,1,80,2,-4,2,12,0,-1,6
218,76,252,1,80,4,2,2,14,2,1,7
219,78,253,1,80,6,2,2,16,4,1,8
220,79,254,1,95,7,1,2,17,5,1,9
221,83,255,1,80,11,4,2,21,9,1,10
222,81,256,1,80,9,-2,2,19,7,-1,9
223,79,257,1,80,7,-2,2,17,5,-1,8
