,midi_note,onset,duration,velocity,pitch_class,interval,root,relative_pitch,relative_pitch_class,parsons_code,parsons_cumsum
0,69,0,0,105,9,0,2,7,7,0,0
1,67,0,0,80,7,-2,2,5,5,-1,-1
2,66,1,2,105,6,-1,2,4,4,-1,-2
3,62,3,1,80,2,-4,2,0,0,-1,-3
4,66,4,2,95,6,4,2,4,4,1,-2
5,69,6,1,80,9,3,2,7,7,1,-1
6,74,7,1,105,2,5,2,12,0,1,0
7,78,8,1,80,6,4,2,16,4,1,1
8,74,9,1,80,2,-4,2,12,0,-1,0
9,76,10,1,95,4,2,2,14,2,1,1
10,73,11,1,80,1,-3,2,11,11,-1,0
11,69,12,1,80,9,-4,2,7,7,-1,-1
12,66,13,1,105,6,-3,2,4,4,-1,-2
13,69,14,1,80,9,3,2,7,7,1,-1
14,62,15,1,80,2,-7,2,0,0,-1,-2
15,66,16,1,95,6,4,2,4,4,1,-1
16,69,17,1,80,9,3,2,7,7,1,0
17,66,18,1,80,6,-3,2,4,4,-1,-1
18,67,19,1,105,7,1,2,5,5,1,0
19,64,20,1,80,4,-3,2,2,2,-1,-1
20,66,21,1,80,6,2,2,4,4,1,0
21,67,22,1,95,7,1,2,5,5,1,1
22,66,23,1,80,6,-1,2,4,4,-1,0
23,64,24,1,80,4,-2,2,2,2,-1,-1
24,66,25,2,105,6,2,2,4,4,1,0
25,62,27,1,80,2,-4,2,0,0,-1,-1
26,66,28,1,95,6,4,2,4,4,1,0
27,67,29,1,80,7,1,2,5,5,1,1
28,69,30,1,80,9,2,2,7,7,1,2
29,74,31,1,105,2,5,2,12,0,1,3
30,78,32,1,80,6,4,2,16,4,1,4
31,74,33,1,80,2,-4,2,12,0,-1,3
32,76,34,1,95,4,2,2,14,2,1,4
33,73,35,1,80,1,-3,2,11,11,-1,3
34,69,36,1,80,9,-4,2,7,7,-1,2
35,78,37,1,105,6,9,2,16,4,1,3
36,76,38,1,80,4,-2,2,14,2,-1,2
37,78,39,1,80,6,2,2,16,4,1,3
38,79,40,1,95,7,1,2,17,5,1,4
39,76,41,1,80,4,-3,2,14,2,-1,3
40,73,42,1,80,1,-3,2,11,11,-1,2
41,69,43,1,105,9,-4,2,7,7,-1,1
42,74,44,1,80,2,5,2,12,0,1,2
43,73,45,1,80,1,-1,2,11,11,-1,1
44,74,46,2,95,2,1,2,12,0,1,2
45,69,48,0,80,9,-5,2,7,7,-1,1
46,67,48,0,80,7,-2,2,5,5,-1,0
47,66,49,2,105,6,-1,2,4,4,-1,-1
48,62,51,1,80,2,-4,2,0,0,-1,-2
49,66,52,2,95,6,4,2,4,4,1,-1
50,69,54,1,80,9,3,2,7,7,1,0
51,74,55,1,105,2,5,2,12,0,1,1
52,78,56,1,80,6,4,2,16,4,1,2
53,74,57,1,80,2,-4,2,12,0,-1,1
54,76,58,1,95,4,2,2,14,2,1,2
55,73,59,1,80,1,-3,2,11,11,-1,1
56,69,60,1,80,9,-4,2,7,7,-1,0
57,66,61,1,105,6,-3,2,4,4,-1,-1
58,69,62,1,80,9,3,2,7,7,1,0
59,62,63,1,80,2,-7,2,0,0,-1,-1
60,66,64,1,95,6,4,2,4,4,1,0
61,69,65,1,80,9,3,2,7,7,1,1
62,66,66,1,80,6,-3,2,4,4,-1,0
63,67,67,1,105,7,1,2,5,5,1,1
64,64,68,1,80,4,-3,2,2,2,-1,0
65,66,69,1,80,6,2,2,4,4,1,1
66,67,70,1,95,7,1,2,5,5,1,2
67,66,71,1,80,6,-1,2,4,4,-1,1
68,64,72,1,80,4,-2,2,2,2,-1,0
69,66,73,2,105,6,2,2,4,4,1,1
70,62,75,1,80,2,-4,2,0,0,-1,0
71,66,76,1,95,6,4,2,4,4,1,1
72,67,77,1,80,7,1,2,5,5,1,2
73,69,78,1,80,9,2,2,7,7,1,3
74,74,79,1,105,2,5,2,12,0,1,4
75,78,80,1,80,6,4,2,16,4,1,5
76,74,81,1,80,2,-4,2,12,0,-1,4
77,76,82,1,95,4,2,2,14,2,1,5
78,73,83,1,80,1,-3,2,11,11,-1,4
79,69,84,1,80,9,-4,2,7,7,-1,3
80,78,85,1,105,6,9,2,16,4,1,4
81,76,86,1,80,4,-2,2,14,2,-1,3
82,78,87,1,80,6,2,2,16,4,1,4
83,79,88,1,95,7,1,2,17,5,1,5
84,76,89,1,80,4,-3,2,14,2,-1,4
85,73,90,1,80,1,-3,2,11,11,-1,3
86,69,91,1,105,9,-4,2,7,7,-1,2
87,74,92,1,80,2,5,2,12,0,1,3
88,73,93,1,80,1,-1,2,11,11,-1,2
89,74,94,2,95,2,1,2,12,0,1,3
90,69,96,1,80,9,-5,2,7,7,-1,2
91,74,97,1,105,2,5,2,12,0,1,3
92,76,98,1,80,4,2,2,14,2,1,4
93,78,99,1,80,6,2,2,16,4,1,5
94,78,100,1,95,6,0,2,16,4,0,5
95,76,101,1,80,4,-2,2,14,2,-1,4
96,78,102,1,80,6,2,2,16,4,1,5
97,74,103,1,105,2,-4,2,12,0,-1,4
98,78,104,1,80,6,4,2,16,4,1,5
99,81,105,1,80,9,3,2,19,7,1,6
100,81,106,1,95,9,0,2,19,7,0,6
101,78,107,1,80,6,-3,2,16,4,-1,5
102,76,108,1,80,4,-2,2,14,2,-1,4
103,74,109,1,105,2,-2,2,12,0,-1,3
104,76,110,1,80,4,2,2,14,2,1,4
105,78,111,1,80,6,2,2,16,4,1,5
106,74,112,1,95,2,-4,2,12,0,-1,4
107,76,113,1,80,4,2,2,14,2,1,5
108,78,114,1,80,6,2,2,16,4,1,6
109,76,115,1,105,4,-2,2,14,2,-1,5
110,73,116,1,80,1,-3,2,11,11,-1,4
111,76,117,1,80,4,3,2,14,2,1,5
112,79,118,1,95,7,3,2,17,5,1,6
113,78,119,1,80,6,-1,2,16,4,-1,5
114,76,120,1,80,4,-2,2,14,2,-1,4
115,74,121,1,105,2,-2,2,12,0,-1,3
116,81,122,1,80,9,7,2,19,7,1,4
117,74,123,1,80,2,-7,2,12,0,-1,3
118,78,124,1,95,6,4,2,16,4,1,4
119,79,125,0,80,7,1,2,17,5,1,5
120,78,125,0,80,6,-1,2,16,4,-1,4
121,76,126,0,80,4,-2,2,14,2,-1,3
122,78,126,0,80,6,2,2,16,4,1,4
123,74,127,2,105,2,-4,2,12,0,-1,3
124,81,129,1,80,9,7,2,19,7,1,4
125,81,130,1,95,9,0,2,19,7,0,4
126,78,131,1,80,6,-3,2,16,4,-1,3
127,74,132,1,80,2,-4,2,12,0,-1,2
128,73,133,1,105,1,-1,2,11,11,-1,1
129,76,134,1,80,4,3,2,14,2,1,2
130,78,135,1,80,6,2,2,16,4,1,3
131,79,136,1,95,7,1,2,17,5,1,4
132,78,137,1,80,6,-1,2,16,4,-1,3
133,76,138,1,80,4,-2,2,14,2,-1,2
134,78,139,1,105,6,2,2,16,4,1,3
135,74,140,1,80,2,-4,2,12,0,-1,2
136,73,141,1,80,1,-1,2,11,11,-1,1
137,74,142,2,95,2,1,2,12,0,1,2
138,69,144,1,80,9,-5,2,7,7,-1,1
139,74,145,1,105,2,5,2,12,0,1,2
140,76,146,1,80,4,2,2,14,2,1,3
141,78,147,1,80,6,2,2,16,4,1,4
142,78,148,1,95,6,0,2,16,4,0,4
143,76,149,1,80,4,-2,2,14,2,-1,3
144,78,150,1,80,6,2,2,16,4,1,4
145,74,151,1,105,2,-4,2,12,0,-1,3
146,78,152,1,80,6,4,2,16,4,1,4
147,81,153,1,80,9,3,2,19,7,1,5
148,81,154,1,95,9,0,2,19,7,0,5
149,78,155,1,80,6,-3,2,16,4,-1,4
150,76,156,1,80,4,-2,2,14,2,-1,3
151,74,157,1,105,2,-2,2,12,0,-1,2
152,76,158,1,80,4,2,2,14,2,1,3
153,78,159,1,80,6,2,2,16,4,1,4
154,74,160,1,95,2,-4,2,12,0,-1,3
155,76,161,1,80,4,2,2,14,2,1,4
156,78,162,1,80,6,2,2,16,4,1,5
157,76,163,1,105,4,-2,2,14,2,-1,4
158,73,164,1,80,1,-3,2,11,11,-1,3
159,76,165,1,80,4,3,2,14,2,1,4
160,79,166,1,95,7,3,2,17,5,1,5
161,78,167,1,80,6,-1,2,16,4,-1,4
162,76,168,1,80,4,-2,2,14,2,-1,3
163,74,169,1,105,2,-2,2,12,0,-1,2
164,81,170,1,80,9,7,2,19,7,1,3
165,74,171,1,80,2,-7,2,12,0,-1,2
166,78,172,1,95,6,4,2,16,4,1,3
167,79,173,0,80,7,1,2,17,5,1,4
168,78,173,0,80,6,-1,2,16,4,-1,3
169,76,174,0,80,4,-2,2,14,2,-1,2
170,78,174,0,80,6,2,2,16,4,1,3
171,74,175,2,105,2,-4,2,12,0,-1,2
172,81,177,1,80,9,7,2,19,7,1,3
173,81,178,1,95,9,0,2,19,7,0,3
174,78,179,1,80,6,-3,2,16,4,-1,2
175,74,180,1,80,2,-4,2,12,0,-1,1
176,73,181,1,105,1,-1,2,11,11,-1,0
177,76,182,1,80,4,3,2,14,2,1,1
178,78,183,1,80,6,2,2,16,4,1,2
179,79,184,1,95,7,1,2,17,5,1,3
180,78,185,1,80,6,-1,2,16,4,-1,2
181,76,186,1,80,4,-2,2,14,2,-1,1
182,78,187,1,105,6,2,2,16,4,1,2
183,74,188,1,80,2,-4,2,12,0,-1,1
184,73,189,1,80,1,-1,2,11,11,-1,0
185,74,190,2,95,2,1,2,12,0,1,1
