,midi_note,onset,duration,velocity,pitch_class,interval,root,relative_pitch,relative_pitch_class,parsons_code,parsons_cumsum
0,78,0,1,105,6,0,2,16,4,0,0
1,76,1,0,80,4,-2,2,14,2,-1,-1
2,74,2,1,105,2,-2,2,12,0,-1,-2
3,73,3,0,80,1,-1,2,11,11,-1,-3
4,74,4,1,80,2,1,2,12,0,1,-2
5,69,5,0,80,9,-5,2,7,7,-1,-3
6,66,6,1,95,6,-3,2,4,4,-1,-4
7,69,7,0,80,9,3,2,7,7,1,-3
8,71,8,1,80,11,2,2,9,9,1,-2
9,69,9,0,80,9,-2,2,7,7,-1,-3
10,67,10,1,105,7,-2,2,5,5,-1,-4
11,66,11,0,80,6,-1,2,4,4,-1,-5
12,67,12,1,80,7,1,2,5,5,1,-4
13,64,13,0,80,4,-3,2,2,2,-1,-5
14,61,14,1,95,1,-3,2,-1,11,-1,-6
15,64,15,0,80,4,3,2,2,2,1,-5
16,57,16,1,80,9,-7,2,-5,7,-1,-6
17,64,17,0,80,4,7,2,2,2,1,-5
18,61,18,1,105,1,-3,2,-1,11,-1,-6
19,62,19,0,80,2,1,2,0,0,1,-5
20,64,20,1,80,4,2,2,2,2,1,-4
21,66,21,0,80,6,2,2,4,4,1,-3
22,67,22,1,95,7,1,2,5,5,1,-2
23,69,23,0,80,9,2,2,7,7,1,-1
24,71,24,0,80,11,2,2,9,9,1,0
25,73,24,0,80,1,2,2,11,11,1,1
26,74,25,0,80,2,1,2,12,0,1,2
27,76,26,0,105,4,2,2,14,2,1,3
28,78,26,0,80,6,2,2,16,4,1,4
29,76,27,0,80,4,-2,2,14,2,-1,3
30,74,28,0,80,2,-2,2,12,0,-1,2
31,73,28,0,80,1,-1,2,11,11,-1,1
32,71,29,0,80,11,-2,2,9,9,-1,0
33,69,30,1,95,9,-2,2,7,7,-1,-1
34,79,31,0,80,7,10,2,17,5,1,0
35,78,32,1,80,6,-1,2,16,4,-1,-1
36,76,33,0,80,4,-2,2,14,2,-1,-2
37,74,34,1,105,2,-2,2,12,0,-1,-3
38,73,35,0,80,1,-1,2,11,11,-1,-4
39,74,36,1,80,2,1,2,12,0,1,-3
40,69,37,0,80,9,-5,2,7,7,-1,-4
41,66,38,1,95,6,-3,2,4,4,-1,-5
42,69,39,0,80,9,3,2,7,7,1,-4
43,71,40,1,80,11,2,2,9,9,1,-3
44,69,41,0,80,9,-2,2,7,7,-1,-4
45,67,42,1,105,7,-2,2,5,5,-1,-5
46,66,43,0,80,6,-1,2,4,4,-1,-6
47,67,44,1,80,7,1,2,5,5,1,-5
48,64,45,0,80,4,-3,2,2,2,-1,-6
49,61,46,1,95,1,-3,2,-1,11,-1,-7
50,64,47,0,80,4,3,2,2,2,1,-6
51,57,48,1,80,9,-7,2,-5,7,-1,-7
52,64,49,0,80,4,7,2,2,2,1,-6
53,61,50,1,105,1,-3,2,-1,11,-1,-7
54,62,51,0,80,2,1,2,0,0,1,-6
55,64,52,1,80,4,2,2,2,2,1,-5
56,66,53,0,80,6,2,2,4,4,1,-4
57,67,54,1,95,7,1,2,5,5,1,-3
58,69,55,0,80,9,2,2,7,7,1,-2
59,71,56,0,80,11,2,2,9,9,1,-1
60,73,56,0,80,1,2,2,11,11,1,0
61,74,57,0,80,2,1,2,12,0,1,1
62,76,58,1,105,4,2,2,14,2,1,2
63,74,59,0,80,2,-2,2,12,0,-1,1
64,74,60,1,80,2,0,2,12,0,0,1
65,73,61,0,80,1,-1,2,11,11,-1,0
66,74,62,1,95,2,1,2,12,0,1,1
67,79,63,0,80,7,5,2,17,5,1,2
68,78,64,1,80,6,-1,2,16,4,-1,1
69,76,65,0,80,4,-2,2,14,2,-1,0
70,74,66,1,105,2,-2,2,12,0,-1,-1
71,73,67,0,80,1,-1,2,11,11,-1,-2
72,74,68,1,80,2,1,2,12,0,1,-1
73,69,69,0,80,9,-5,2,7,7,-1,-2
74,66,70,1,95,6,-3,2,4,4,-1,-3
75,69,71,0,80,9,3,2,7,7,1,-2
76,71,72,1,80,11,2,2,9,9,1,-1
77,69,73,0,80,9,-2,2,7,7,-1,-2
78,67,74,1,105,7,-2,2,5,5,-1,-3
79,66,75,0,80,6,-1,2,4,4,-1,-4
80,67,76,1,80,7,1,2,5,5,1,-3
81,64,77,0,80,4,-3,2,2,2,-1,-4
82,61,78,1,95,1,-3,2,-1,11,-1,-5
83,64,79,0,80,4,3,2,2,2,1,-4
84,57,80,1,80,9,-7,2,-5,7,-1,-5
85,64,81,0,80,4,7,2,2,2,1,-4
86,61,82,1,105,1,-3,2,-1,11,-1,-5
87,62,83,0,80,2,1,2,0,0,1,-4
88,64,84,1,80,4,2,2,2,2,1,-3
89,66,85,0,80,6,2,2,4,4,1,-2
90,67,86,1,95,7,1,2,5,5,1,-1
91,69,87,0,80,9,2,2,7,7,1,0
92,71,88,0,80,11,2,2,9,9,1,1
93,73,88,0,80,1,2,2,11,11,1,2
94,74,89,0,80,2,1,2,12,0,1,3
95,76,90,0,105,4,2,2,14,2,1,4
96,78,90,0,80,6,2,2,16,4,1,5
97,76,91,0,80,4,-2,2,14,2,-1,4
98,74,92,0,80,2,-2,2,12,0,-1,3
99,73,92,0,80,1,-1,2,11,11,-1,2
100,71,93,0,80,11,-2,2,9,9,-1,1
101,69,94,1,95,9,-2,2,7,7,-1,0
102,79,95,0,80,7,10,2,17,5,1,1
103,78,96,1,80,6,-1,2,16,4,-1,0
104,76,97,0,80,4,-2,2,14,2,-1,-1
105,74,98,1,105,2,-2,2,12,0,-1,-2
106,73,99,0,80,1,-1,2,11,11,-1,-3
107,74,100,1,80,2,1,2,12,0,1,-2
108,69,101,0,80,9,-5,2,7,7,-1,-3
109,66,102,1,95,6,-3,2,4,4,-1,-4
110,69,103,0,80,9,3,2,7,7,1,-3
111,71,104,1,80,11,2,2,9,9,1,-2
112,69,105,0,80,9,-2,2,7,7,-1,-3
113,67,106,1,105,7,-2,2,5,5,-1,-4
114,66,107,0,80,6,-1,2,4,4,-1,-5
115,67,108,1,80,7,1,2,5,5,1,-4
116,64,109,0,80,4,-3,2,2,2,-1,-5
117,61,110,1,95,1,-3,2,-1,11,-1,-6
118,64,111,0,80,4,3,2,2,2,1,-5
119,57,112,1,80,9,-7,2,-5,7,-1,-6
120,64,113,0,80,4,7,2,2,2,1,-5
121,61,114,1,105,1,-3,2,-1,11,-1,-6
122,62,115,0,80,2,1,2,0,0,1,-5
123,64,116,1,80,4,2,2,2,2,1,-4
124,66,117,0,80,6,2,2,4,4,1,-3
125,67,118,1,95,7,1,2,5,5,1,-2
126,69,119,0,80,9,2,2,7,7,1,-1
127,71,120,0,80,11,2,2,9,9,1,0
128,73,120,0,80,1,2,2,11,11,1,1
129,74,121,0,80,2,1,2,12,0,1,2
130,76,122,1,105,4,2,2,14,2,1,3
131,74,123,0,80,2,-2,2,12,0,-1,2
132,74,124,1,80,2,0,2,12,0,0,2
133,73,125,0,80,1,-1,2,11,11,-1,1
134,74,126,3,95,2,1,2,12,0,1,2
135,69,129,1,80,9,-5,2,7,7,-1,1
136,66,130,0,105,6,-3,2,4,4,-1,0
137,67,130,0,80,7,1,2,5,5,1,1
138,69,131,0,80,9,2,2,7,7,1,2
139,74,132,1,80,2,5,2,12,0,1,3
140,69,133,0,80,9,-5,2,7,7,-1,2
141,66,134,0,95,6,-3,2,4,4,-1,1
142,67,134,0,80,7,1,2,5,5,1,2
143,69,135,0,80,9,2,2,7,7,1,3
144,74,136,1,80,2,5,2,12,0,1,4
145,69,137,0,80,9,-5,2,7,7,-1,3
146,66,138,1,105,6,-3,2,4,4,-1,2
147,69,139,0,80,9,3,2,7,7,1,3
148,74,140,1,80,2,5,2,12,0,1,4
149,69,141,0,80,9,-5,2,7,7,-1,3
150,67,142,0,95,7,-2,2,5,5,-1,2
151,69,142,0,80,9,2,2,7,7,1,3
152,67,143,0,80,7,-2,2,5,5,-1,2
153,66,144,1,80,6,-1,2,4,4,-1,1
154,67,145,0,80,7,1,2,5,5,1,2
155,64,146,1,105,4,-3,2,2,2,-1,1
156,72,147,0,80,0,8,2,10,10,1,2
157,74,148,0,80,2,2,2,12,0,1,3
158,72,148,1,80,0,-2,2,10,10,-1,2
159,64,150,1,95,4,-8,2,2,2,-1,1
160,72,151,0,80,0,8,2,10,10,1,2
161,74,152,0,80,2,2,2,12,0,1,3
162,72,152,1,80,0,-2,2,10,10,-1,2
163,64,154,1,105,4,-8,2,2,2,-1,1
164,72,155,0,80,0,8,2,10,10,1,2
165,72,156,1,80,0,0,2,10,10,0,2
166,71,157,0,80,11,-1,2,9,9,-1,1
167,69,158,1,95,9,-2,2,7,7,-1,0
168,71,159,0,80,11,2,2,9,9,1,1
169,69,160,1,80,9,-2,2,7,7,-1,0
170,67,161,0,80,7,-2,2,5,5,-1,-1
171,66,162,0,105,6,-1,2,4,4,-1,-2
172,67,162,0,80,7,1,2,5,5,1,-1
173,69,163,0,80,9,2,2,7,7,1,0
174,74,164,1,80,2,5,2,12,0,1,1
175,69,165,0,80,9,-5,2,7,7,-1,0
176,66,166,0,95,6,-3,2,4,4,-1,-1
177,67,166,0,80,7,1,2,5,5,1,0
178,69,167,0,80,9,2,2,7,7,1,1
179,74,168,1,80,2,5,2,12,0,1,2
180,69,169,0,80,9,-5,2,7,7,-1,1
181,66,170,1,105,6,-3,2,4,4,-1,0
182,69,171,0,80,9,3,2,7,7,1,1
183,74,172,1,80,2,5,2,12,0,1,2
184,69,173,0,80,9,-5,2,7,7,-1,1
185,67,174,0,95,7,-2,2,5,5,-1,0
186,69,174,0,80,9,2,2,7,7,1,1
187,67,175,0,80,7,-2,2,5,5,-1,0
188,66,176,1,80,6,-1,2,4,4,-1,-1
189,67,177,0,80,7,1,2,5,5,1,0
190,64,178,1,105,4,-3,2,2,2,-1,-1
191,76,179,0,80,4,12,2,14,2,1,0
192,76,180,1,80,4,0,2,14,2,0,0
193,74,181,0,80,2,-2,2,12,0,-1,-1
194,73,182,1,95,1,-1,2,11,11,-1,-2
195,69,183,0,80,9,-4,2,7,7,-1,-3
196,71,184,0,80,11,2,2,9,9,1,-2
197,73,184,0,80,1,2,2,11,11,1,-1
198,74,185,0,80,2,1,2,12,0,1,0
199,76,186,1,105,4,2,2,14,2,1,1
200,74,187,0,80,2,-2,2,12,0,-1,0
201,74,188,1,80,2,0,2,12,0,0,0
202,73,189,0,80,1,-1,2,11,11,-1,-1
203,74,190,3,95,2,1,2,12,0,1,0
204,69,193,1,80,9,-5,2,7,7,-1,-1
205,66,194,0,105,6,-3,2,4,4,-1,-2
206,67,194,0,80,7,1,2,5,5,1,-1
207,69,195,0,80,9,2,2,7,7,1,0
208,74,196,1,80,2,5,2,12,0,1,1
209,69,197,0,80,9,-5,2,7,7,-1,0
210,66,198,0,95,6,-3,2,4,4,-1,-1
211,67,198,0,80,7,1,2,5,5,1,0
212,69,199,0,80,9,2,2,7,7,1,1
213,74,200,1,80,2,5,2,12,0,1,2
214,69,201,0,80,9,-5,2,7,7,-1,1
215,66,202,1,105,6,-3,2,4,4,-1,0
216,69,203,0,80,9,3,2,7,7,1,1
217,74,204,1,80,2,5,2,12,0,1,2
218,69,205,0,80,9,-5,2,7,7,-1,1
219,67,206,0,95,7,-2,2,5,5,-1,0
220,69,206,0,80,9,2,2,7,7,1,1
221,67,207,0,80,7,-2,2,5,5,-1,0
222,66,208,1,80,6,-1,2,4,4,-1,-1
223,67,209,0,80,7,1,2,5,5,1,0
224,64,210,1,105,4,-3,2,2,2,-1,-1
225,72,211,0,80,0,8,2,10,10,1,0
226,74,212,0,80,2,2,2,12,0,1,1
227,72,212,1,80,0,-2,2,10,10,-1,0
228,64,214,1,95,4,-8,2,2,2,-1,-1
229,72,215,0,80,0,8,2,10,10,1,0
230,74,216,0,80,2,2,2,12,0,1,1
231,72,216,1,80,0,-2,2,10,10,-1,0
232,64,218,1,105,4,-8,2,2,2,-1,-1
233,72,219,0,80,0,8,2,10,10,1,0
234,72,220,1,80,0,0,2,10,10,0,0
235,71,221,0,80,11,-1,2,9,9,-1,-1
236,69,222,1,95,9,-2,2,7,7,-1,-2
237,71,223,0,80,11,2,2,9,9,1,-1
238,69,224,1,80,9,-2,2,7,7,-1,-2
239,67,225,0,80,7,-2,2,5,5,-1,-3
240,66,226,0,105,6,-1,2,4,4,-1,-4
241,67,226,0,80,7,1,2,5,5,1,-3
242,69,227,0,80,9,2,2,7,7,1,-2
243,74,228,1,80,2,5,2,12,0,1,-1
244,69,229,0,80,9,-5,2,7,7,-1,-2
245,66,230,0,95,6,-3,2,4,4,-1,-3
246,67,230,0,80,7,1,2,5,5,1,-2
247,69,231,0,80,9,2,2,7,7,1,-1
248,74,232,1,80,2,5,2,12,0,1,0
249,69,233,0,80,9,-5,2,7,7,-1,-1
250,66,234,1,105,6,-3,2,4,4,-1,-2
251,69,235,0,80,9,3,2,7,7,1,-1
252,74,236,1,80,2,5,2,12,0,1,0
253,69,237,0,80,9,-5,2,7,7,-1,-1
254,67,238,0,95,7,-2,2,5,5,-1,-2
255,69,238,0,80,9,2,2,7,7,1,-1
256,67,239,0,80,7,-2,2,5,5,-1,-2
257,66,240,1,80,6,-1,2,4,4,-1,-3
258,67,241,0,80,7,1,2,5,5,1,-2
259,64,242,1,105,4,-3,2,2,2,-1,-3
260,76,243,0,80,4,12,2,14,2,1,-2
261,76,244,1,80,4,0,2,14,2,0,-2
262,74,245,0,80,2,-2,2,12,0,-1,-3
263,73,246,1,95,1,-1,2,11,11,-1,-4
264,69,247,0,80,9,-4,2,7,7,-1,-5
265,71,248,0,80,11,2,2,9,9,1,-4
266,73,248,0,80,1,2,2,11,11,1,-3
267,74,249,0,80,2,1,2,12,0,1,-2
268,76,250,1,105,4,2,2,14,2,1,-1
269,74,251,0,80,2,-2,2,12,0,-1,-2
270,74,252,1,80,2,0,2,12,0,0,-2
271,73,253,0,80,1,-1,2,11,11,-1,-3
272,74,254,1,95,2,1,2,12,0,1,-2
273,79,255,0,80,7,5,2,17,5,1,-1
274,78,256,1,80,6,-1,2,16,4,-1,-2
275,76,257,0,80,4,-2,2,14,2,-1,-3
