,midi_note,onset,duration,velocity,pitch_class,interval,root,relative_pitch,relative_pitch_class,parsons_code,parsons_cumsum
0,62,0,1,105,2,0,7,-5,7,0,0
1,67,1,2,105,7,5,7,0,0,1,1
2,71,3,1,80,11,4,7,4,4,1,2
3,74,4,1,80,2,3,7,7,7,1,3
4,79,5,1,95,7,5,7,12,0,1,4
5,74,6,1,80,2,-5,7,7,7,-1,3
6,71,7,1,80,11,-3,7,4,4,-1,2
7,74,8,1,80,2,3,7,7,7,1,3
8,72,9,2,105,0,-2,7,5,5,-1,2
9,69,11,1,80,9,-3,7,2,2,-1,1
10,71,12,1,80,11,2,7,4,4,1,2
11,72,13,1,95,0,1,7,5,5,1,3
12,76,14,1,80,4,4,7,9,9,1,4
13,74,15,1,80,2,-2,7,7,7,-1,3
14,72,16,1,80,0,-2,7,5,5,-1,2
15,71,17,2,105,11,-1,7,4,4,-1,1
16,69,19,2,80,9,-2,7,2,2,-1,0
17,67,21,1,95,7,-2,7,0,0,-1,-1
18,71,22,1,80,11,4,7,4,4,1,0
19,74,23,1,80,2,3,7,7,7,1,1
20,79,24,1,80,7,5,7,12,0,1,2
21,76,25,1,105,4,-3,7,9,9,-1,1
22,72,26,1,80,0,-4,7,5,5,-1,0
23,69,27,1,80,9,-3,7,2,2,-1,-1
24,66,28,1,80,6,-3,7,-1,11,-1,-2
25,67,29,1,95,7,1,7,0,0,1,-1
26,62,30,1,80,2,-5,7,-5,7,-1,-2
27,59,31,1,80,11,-3,7,-8,4,-1,-3
28,62,32,1,80,2,3,7,-5,7,1,-2
29,67,33,2,105,7,5,7,0,0,1,-1
30,71,35,1,80,11,4,7,4,4,1,0
31,74,36,1,80,2,3,7,7,7,1,1
32,79,37,1,95,7,5,7,12,0,1,2
33,74,38,1,80,2,-5,7,7,7,-1,1
34,71,39,1,80,11,-3,7,4,4,-1,0
35,74,40,1,80,2,3,7,7,7,1,1
36,72,41,2,105,0,-2,7,5,5,-1,0
37,69,43,1,80,9,-3,7,2,2,-1,-1
38,71,44,1,80,11,2,7,4,4,1,0
39,72,45,1,95,0,1,7,5,5,1,1
40,76,46,1,80,4,4,7,9,9,1,2
41,74,47,1,80,2,-2,7,7,7,-1,1
42,72,48,1,80,0,-2,7,5,5,-1,0
43,71,49,2,105,11,-1,7,4,4,-1,-1
44,69,51,2,80,9,-2,7,2,2,-1,-2
45,67,53,1,95,7,-2,7,0,0,-1,-3
46,71,54,1,80,11,4,7,4,4,1,-2
47,74,55,1,80,2,3,7,7,7,1,-1
48,79,56,1,80,7,5,7,12,0,1,0
49,76,57,1,105,4,-3,7,9,9,-1,-1
50,72,58,1,80,0,-4,7,5,5,-1,-2
51,69,59,1,80,9,-3,7,2,2,-1,-3
52,66,60,1,80,6,-3,7,-1,11,-1,-4
53,67,61,2,95,7,1,7,0,0,1,-3
54,71,63,0,80,11,4,7,4,4,1,-2
55,72,63,0,80,0,1,7,5,5,1,-1
56,74,64,0,80,2,2,7,7,7,1,0
57,79,65,1,105,7,5,7,12,0,1,1
58,83,66,1,80,11,4,7,16,4,1,2
59,81,67,1,80,9,-2,7,14,2,-1,1
60,78,68,1,80,6,-3,7,11,11,-1,0
61,79,69,1,95,7,1,7,12,0,1,1
62,74,70,1,80,2,-5,7,7,7,-1,0
63,71,71,1,80,11,-3,7,4,4,-1,-1
64,74,72,1,80,2,3,7,7,7,1,0
65,72,73,2,105,0,-2,7,5,5,-1,-1
66,69,75,1,80,9,-3,7,2,2,-1,-2
67,71,76,1,80,11,2,7,4,4,1,-1
68,72,77,1,95,0,1,7,5,5,1,0
69,76,78,1,80,4,4,7,9,9,1,1
70,74,79,1,80,2,-2,7,7,7,-1,0
71,72,80,1,80,0,-2,7,5,5,-1,-1
72,71,81,2,105,11,-1,7,4,4,-1,-2
73,69,83,2,80,9,-2,7,2,2,-1,-3
74,67,85,1,95,7,-2,7,0,0,-1,-4
75,71,86,1,80,11,4,7,4,4,1,-3
76,74,87,1,80,2,3,7,7,7,1,-2
77,79,88,1,80,7,5,7,12,0,1,-1
78,76,89,1,105,4,-3,7,9,9,-1,-2
79,72,90,1,80,0,-4,7,5,5,-1,-3
80,69,91,1,80,9,-3,7,2,2,-1,-4
81,66,92,1,80,6,-3,7,-1,11,-1,-5
82,67,93,1,95,7,1,7,0,0,1,-4
83,62,94,1,80,2,-5,7,-5,7,-1,-5
84,59,95,1,80,11,-3,7,-8,4,-1,-6
85,62,96,1,80,2,3,7,-5,7,1,-5
86,67,97,2,105,7,5,7,0,0,1,-4
87,71,99,1,80,11,4,7,4,4,1,-3
88,74,100,1,80,2,3,7,7,7,1,-2
89,79,101,1,95,7,5,7,12,0,1,-1
90,74,102,1,80,2,-5,7,7,7,-1,-2
91,71,103,1,80,11,-3,7,4,4,-1,-3
92,74,104,1,80,2,3,7,7,7,1,-2
93,72,105,2,105,0,-2,7,5,5,-1,-3
94,69,107,1,80,9,-3,7,2,2,-1,-4
95,71,108,1,80,11,2,7,4,4,1,-3
96,72,109,1,95,0,1,7,5,5,1,-2
97,76,110,1,80,4,4,7,9,9,1,-1
98,74,111,1,80,2,-2,7,7,7,-1,-2
99,72,112,1,80,0,-2,7,5,5,-1,-3
100,71,113,2,105,11,-1,7,4,4,-1,-4
101,69,115,2,80,9,-2,7,2,2,-1,-5
102,67,117,1,95,7,-2,7,0,0,-1,-6
103,71,118,1,80,11,4,7,4,4,1,-5
104,74,119,1,80,2,3,7,7,7,1,-4
105,79,120,1,80,7,5,7,12,0,1,-3
106,76,121,1,105,4,-3,7,9,9,-1,-4
107,79,122,1,80,7,3,7,12,0,1,-3
108,78,123,1,80,6,-1,7,11,11,-1,-4
109,81,124,1,80,9,3,7,14,2,1,-3
110,79,125,3,95,7,-2,7,12,0,-1,-4
111,81,128,1,80,9,2,7,14,2,1,-3
112,83,129,1,105,11,2,7,16,4,1,-2
113,79,130,1,80,7,-4,7,12,0,-1,-3
114,79,131,2,80,7,0,7,12,0,0,-3
115,83,133,1,95,11,4,7,16,4,1,-2
116,79,134,1,80,7,-4,7,12,0,-1,-3
117,81,135,1,80,9,2,7,14,2,1,-2
118,79,136,1,80,7,-2,7,12,0,-1,-3
119,76,137,1,105,4,-3,7,9,9,-1,-4
120,79,138,1,80,7,3,7,12,0,1,-3
121,74,139,1,80,2,-5,7,7,7,-1,-4
122,79,140,1,80,7,5,7,12,0,1,-3
123,76,141,1,95,4,-3,7,9,9,-1,-4
124,79,142,1,80,7,3,7,12,0,1,-3
125,74,143,1,80,2,-5,7,7,7,-1,-4
126,79,144,1,80,7,5,7,12,0,1,-3
127,83,145,1,105,11,4,7,16,4,1,-2
128,79,146,1,80,7,-4,7,12,0,-1,-3
129,79,147,2,80,7,0,7,12,0,0,-3
130,83,149,1,95,11,4,7,16,4,1,-2
131,79,150,1,80,7,-4,7,12,0,-1,-3
132,81,151,1,80,9,2,7,14,2,1,-2
133,79,152,1,80,7,-2,7,12,0,-1,-3
134,78,153,1,105,6,-1,7,11,11,-1,-4
135,74,154,1,80,2,-4,7,7,7,-1,-5
136,78,155,1,80,6,4,7,11,11,1,-4
137,81,156,1,80,9,3,7,14,2,1,-3
138,79,157,3,95,7,-2,7,12,0,-1,-4
139,81,160,1,80,9,2,7,14,2,1,-3
140,83,161,1,105,11,2,7,16,4,1,-2
141,79,162,1,80,7,-4,7,12,0,-1,-3
142,79,163,2,80,7,0,7,12,0,0,-3
143,83,165,1,95,11,4,7,16,4,1,-2
144,79,166,1,80,7,-4,7,12,0,-1,-3
145,81,167,1,80,9,2,7,14,2,1,-2
146,79,168,1,80,7,-2,7,12,0,-1,-3
147,76,169,1,105,4,-3,7,9,9,-1,-4
148,79,170,1,80,7,3,7,12,0,1,-3
149,74,171,1,80,2,-5,7,7,7,-1,-4
150,79,172,1,80,7,5,7,12,0,1,-3
151,76,173,1,95,4,-3,7,9,9,-1,-4
152,79,174,1,80,7,3,7,12,0,1,-3
153,74,175,1,80,2,-5,7,7,7,-1,-4
154,79,176,1,80,7,5,7,12,0,1,-3
155,83,177,1,105,11,4,7,16,4,1,-2
156,79,178,1,80,7,-4,7,12,0,-1,-3
157,81,179,1,80,9,2,7,14,2,1,-2
158,78,180,1,80,6,-3,7,11,11,-1,-3
159,79,181,1,95,7,1,7,12,0,1,-2
160,78,182,1,80,6,-1,7,11,11,-1,-3
161,76,183,1,80,4,-2,7,9,9,-1,-4
162,74,184,1,80,2,-2,7,7,7,-1,-5
163,71,185,0,105,11,-3,7,4,4,-1,-6
164,72,185,0,80,0,1,7,5,5,1,-5
165,74,186,0,80,2,2,7,7,7,1,-4
166,76,187,1,80,4,2,7,9,9,1,-3
167,78,188,1,80,6,2,7,11,11,1,-2
168,79,189,3,95,7,1,7,12,0,1,-1
169,62,192,1,80,2,-17,7,-5,7,-1,-2
170,67,193,2,105,7,5,7,0,0,1,-1
171,71,195,1,80,11,4,7,4,4,1,0
172,74,196,1,80,2,3,7,7,7,1,1
173,79,197,1,95,7,5,7,12,0,1,2
174,74,198,1,80,2,-5,7,7,7,-1,1
175,71,199,1,80,11,-3,7,4,4,-1,0
176,74,200,1,80,2,3,7,7,7,1,1
177,72,201,2,105,0,-2,7,5,5,-1,0
178,69,203,1,80,9,-3,7,2,2,-1,-1
179,71,204,1,80,11,2,7,4,4,1,0
180,72,205,1,95,0,1,7,5,5,1,1
181,76,206,1,80,4,4,7,9,9,1,2
182,74,207,1,80,2,-2,7,7,7,-1,1
183,72,208,1,80,0,-2,7,5,5,-1,0
184,71,209,2,105,11,-1,7,4,4,-1,-1
185,69,211,2,80,9,-2,7,2,2,-1,-2
186,67,213,1,95,7,-2,7,0,0,-1,-3
187,71,214,1,80,11,4,7,4,4,1,-2
188,74,215,1,80,2,3,7,7,7,1,-1
189,79,216,1,80,7,5,7,12,0,1,0
190,76,217,1,105,4,-3,7,9,9,-1,-1
191,72,218,1,80,0,-4,7,5,5,-1,-2
192,69,219,1,80,9,-3,7,2,2,-1,-3
193,66,220,1,80,6,-3,7,-1,11,-1,-4
194,67,221,1,95,7,1,7,0,0,1,-3
195,62,222,1,80,2,-5,7,-5,7,-1,-4
196,59,223,1,80,11,-3,7,-8,4,-1,-5
197,62,224,1,80,2,3,7,-5,7,1,-4
198,67,225,2,105,7,5,7,0,0,1,-3
199,71,227,1,80,11,4,7,4,4,1,-2
200,74,228,1,80,2,3,7,7,7,1,-1
201,79,229,1,95,7,5,7,12,0,1,0
202,74,230,1,80,2,-5,7,7,7,-1,-1
203,71,231,1,80,11,-3,7,4,4,-1,-2
204,74,232,1,80,2,3,7,7,7,1,-1
205,72,233,2,105,0,-2,7,5,5,-1,-2
206,69,235,1,80,9,-3,7,2,2,-1,-3
207,71,236,1,80,11,2,7,4,4,1,-2
208,72,237,1,95,0,1,7,5,5,1,-1
209,76,238,1,80,4,4,7,9,9,1,0
210,74,239,1,80,2,-2,7,7,7,-1,-1
211,72,240,1,80,0,-2,7,5,5,-1,-2
212,71,241,2,105,11,-1,7,4,4,-1,-3
213,69,243,2,80,9,-2,7,2,2,-1,-4
214,67,245,1,95,7,-2,7,0,0,-1,-5
215,71,246,1,80,11,4,7,4,4,1,-4
216,74,247,1,80,2,3,7,7,7,1,-3
217,79,248,1,80,7,5,7,12,0,1,-2
218,76,249,1,105,4,-3,7,9,9,-1,-3
219,72,250,1,80,0,-4,7,5,5,-1,-4
220,69,251,1,80,9,-3,7,2,2,-1,-5
221,66,252,1,80,6,-3,7,-1,11,-1,-6
222,67,253,2,95,7,1,7,0,0,1,-5
223,71,255,0,80,11,4,7,4,4,1,-4
224,72,255,0,80,0,1,7,5,5,1,-3
225,74,256,0,80,2,2,7,7,7,1,-2
226,79,257,1,105,7,5,7,12,0,1,-1
227,83,258,1,80,11,4,7,16,4,1,0
228,81,259,1,80,9,-2,7,14,2,-1,-1
229,78,260,1,80,6,-3,7,11,11,-1,-2
230,79,261,1,95,7,1,7,12,0,1,-1
231,74,262,1,80,2,-5,7,7,7,-1,-2
232,71,263,1,80,11,-3,7,4,4,-1,-3
233,74,264,1,80,2,3,7,7,7,1,-2
234,72,265,2,105,0,-2,7,5,5,-1,-3
235,69,267,1,80,9,-3,7,2,2,-1,-4
236,71,268,1,80,11,2,7,4,4,1,-3
237,72,269,1,95,0,1,7,5,5,1,-2
238,76,270,1,80,4,4,7,9,9,1,-1
239,74,271,1,80,2,-2,7,7,7,-1,-2
240,72,272,1,80,0,-2,7,5,5,-1,-3
241,71,273,2,105,11,-1,7,4,4,-1,-4
242,69,275,2,80,9,-2,7,2,2,-1,-5
243,67,277,1,95,7,-2,7,0,0,-1,-6
244,71,278,1,80,11,4,7,4,4,1,-5
245,74,279,1,80,2,3,7,7,7,1,-4
246,79,280,1,80,7,5,7,12,0,1,-3
247,76,281,1,105,4,-3,7,9,9,-1,-4
248,72,282,1,80,0,-4,7,5,5,-1,-5
249,69,283,1,80,9,-3,7,2,2,-1,-6
250,66,284,1,80,6,-3,7,-1,11,-1,-7
251,67,285,1,95,7,1,7,0,0,1,-6
252,62,286,1,80,2,-5,7,-5,7,-1,-7
253,59,287,1,80,11,-3,7,-8,4,-1,-8
254,62,288,1,80,2,3,7,-5,7,1,-7
255,67,289,2,105,7,5,7,0,0,1,-6
256,71,291,1,80,11,4,7,4,4,1,-5
257,74,292,1,80,2,3,7,7,7,1,-4
258,79,293,1,95,7,5,7,12,0,1,-3
259,74,294,1,80,2,-5,7,7,7,-1,-4
260,71,295,1,80,11,-3,7,4,4,-1,-5
261,74,296,1,80,2,3,7,7,7,1,-4
262,72,297,2,105,0,-2,7,5,5,-1,-5
263,69,299,1,80,9,-3,7,2,2,-1,-6
264,71,300,1,80,11,2,7,4,4,1,-5
265,72,301,1,95,0,1,7,5,5,1,-4
266,76,302,1,80,4,4,7,9,9,1,-3
267,74,303,1,80,2,-2,7,7,7,-1,-4
268,72,304,1,80,0,-2,7,5,5,-1,-5
269,71,305,2,105,11,-1,7,4,4,-1,-6
270,69,307,2,80,9,-2,7,2,2,-1,-7
271,67,309,1,95,7,-2,7,0,0,-1,-8
272,71,310,1,80,11,4,7,4,4,1,-7
273,74,311,1,80,2,3,7,7,7,1,-6
274,79,312,1,80,7,5,7,12,0,1,-5
275,76,313,1,105,4,-3,7,9,9,-1,-6
276,79,314,1,80,7,3,7,12,0,1,-5
277,78,315,1,80,6,-1,7,11,11,-1,-6
278,81,316,1,80,9,3,7,14,2,1,-5
279,79,317,3,95,7,-2,7,12,0,-1,-6
280,81,320,1,80,9,2,7,14,2,1,-5
281,83,321,1,105,11,2,7,16,4,1,-4
282,79,322,1,80,7,-4,7,12,0,-1,-5
283,79,323,2,80,7,0,7,12,0,0,-5
284,83,325,1,95,11,4,7,16,4,1,-4
285,79,326,1,80,7,-4,7,12,0,-1,-5
286,81,327,1,80,9,2,7,14,2,1,-4
287,79,328,1,80,7,-2,7,12,0,-1,-5
288,76,329,1,105,4,-3,7,9,9,-1,-6
289,79,330,1,80,7,3,7,12,0,1,-5
290,74,331,1,80,2,-5,7,7,7,-1,-6
291,79,332,1,80,7,5,7,12,0,1,-5
292,76,333,1,95,4,-3,7,9,9,-1,-6
293,79,334,1,80,7,3,7,12,0,1,-5
294,74,335,1,80,2,-5,7,7,7,-1,-6
295,79,336,1,80,7,5,7,12,0,1,-5
296,83,337,1,105,11,4,7,16,4,1,-4
297,79,338,1,80,7,-4,7,12,0,-1,-5
298,79,339,2,80,7,0,7,12,0,0,-5
299,83,341,1,95,11,4,7,16,4,1,-4
300,79,342,1,80,7,-4,7,12,0,-1,-5
301,81,343,1,80,9,2,7,14,2,1,-4
302,79,344,1,80,7,-2,7,12,0,-1,-5
303,78,345,1,105,6,-1,7,11,11,-1,-6
304,74,346,1,80,2,-4,7,7,7,-1,-7
305,78,347,1,80,6,4,7,11,11,1,-6
306,81,348,1,80,9,3,7,14,2,1,-5
307,79,349,3,95,7,-2,7,12,0,-1,-6
308,81,352,1,80,9,2,7,14,2,1,-5
309,83,353,1,105,11,2,7,16,4,1,-4
310,79,354,1,80,7,-4,7,12,0,-1,-5
311,79,355,2,80,7,0,7,12,0,0,-5
312,83,357,1,95,11,4,7,16,4,1,-4
313,79,358,1,80,7,-4,7,12,0,-1,-5
314,81,359,1,80,9,2,7,14,2,1,-4
315,79,360,1,80,7,-2,7,12,0,-1,-5
316,76,361,1,105,4,-3,7,9,9,-1,-6
317,79,362,1,80,7,3,7,12,0,1,-5
318,74,363,1,80,2,-5,7,7,7,-1,-6
319,79,364,1,80,7,5,7,12,0,1,-5
320,76,365,1,95,4,-3,7,9,9,-1,-6
321,79,366,1,80,7,3,7,12,0,1,-5
322,74,367,1,80,2,-5,7,7,7,-1,-6
323,79,368,1,80,7,5,7,12,0,1,-5
324,83,369,1,105,11,4,7,16,4,1,-4
325,79,370,1,80,7,-4,7,12,0,-1,-5
326,81,371,1,80,9,2,7,14,2,1,-4
327,78,372,1,80,6,-3,7,11,11,-1,-5
328,79,373,1,95,7,1,7,12,0,1,-4
329,78,374,1,80,6,-1,7,11,11,-1,-5
330,76,375,1,80,4,-2,7,9,9,-1,-6
331,74,376,1,80,2,-2,7,7,7,-1,-7
332,71,377,0,105,11,-3,7,4,4,-1,-8
333,72,377,0,80,0,1,7,5,5,1,-7
334,74,378,0,80,2,2,7,7,7,1,-6
335,76,379,1,80,4,2,7,9,9,1,-5
336,78,380,1,80,6,2,7,11,11,1,-4
337,79,381,2,95,7,1,7,12,0,1,-3
338,76,383,1,80,4,-3,7,9,9,-1,-4
339,78,384,1,80,6,2,7,11,11,1,-3
340,79,385,2,105,7,1,7,12,0,1,-2
341,79,387,1,80,7,0,7,12,0,0,-2
342,78,388,1,80,6,-1,7,11,11,-1,-3
343,79,389,4,95,7,1,7,12,0,1,-2
