,midi_note,onset,duration,velocity,pitch_class,interval,root,relative_pitch,relative_pitch_class,parsons_code,parsons_cumsum
0,62,0,1,105,2,0,2,0,0,0,0
1,64,1,1,80,4,2,2,2,2,1,1
2,66,2,1,80,6,2,2,4,4,1,2
3,67,3,1,80,7,1,2,5,5,1,3
4,69,4,1,95,9,2,2,7,7,1,4
5,62,5,1,80,2,-7,2,0,0,-1,3
6,66,6,1,80,6,4,2,4,4,1,4
7,67,7,1,80,7,1,2,5,5,1,5
8,69,8,1,105,9,2,2,7,7,1,6
9,74,9,1,80,2,5,2,12,0,1,7
10,74,10,1,80,2,0,2,12,0,0,7
11,71,11,1,80,11,-3,2,9,9,-1,6
12,69,12,1,95,9,-2,2,7,7,-1,5
13,67,13,1,80,7,-2,2,5,5,-1,4
14,66,14,1,80,6,-1,2,4,4,-1,3
15,64,15,1,80,4,-2,2,2,2,-1,2
16,62,16,1,105,2,-2,2,0,0,-1,1
17,64,17,1,80,4,2,2,2,2,1,2
18,66,18,1,80,6,2,2,4,4,1,3
19,67,19,1,80,7,1,2,5,5,1,4
20,69,20,1,95,9,2,2,7,7,1,5
21,62,21,1,80,2,-7,2,0,0,-1,4
22,66,22,1,80,6,4,2,4,4,1,5
23,69,23,1,80,9,3,2,7,7,1,6
24,71,24,0,105,11,2,2,9,9,1,7
25,73,24,0,80,1,2,2,11,11,1,8
26,74,25,0,80,2,1,2,12,0,1,9
27,69,26,1,80,9,-5,2,7,7,-1,8
28,66,27,1,80,6,-3,2,4,4,-1,7
29,64,28,1,95,4,-2,2,2,2,-1,6
30,67,29,1,80,7,3,2,5,5,1,7
31,66,30,1,80,6,-1,2,4,4,-1,6
32,64,31,1,80,4,-2,2,2,2,-1,5
33,62,32,1,105,2,-2,2,0,0,-1,4
34,64,33,1,80,4,2,2,2,2,1,5
35,66,34,1,80,6,2,2,4,4,1,6
36,67,35,1,80,7,1,2,5,5,1,7
37,69,36,1,95,9,2,2,7,7,1,8
38,62,37,1,80,2,-7,2,0,0,-1,7
39,66,38,1,80,6,4,2,4,4,1,8
40,67,39,1,80,7,1,2,5,5,1,9
41,69,40,1,105,9,2,2,7,7,1,10
42,74,41,1,80,2,5,2,12,0,1,11
43,74,42,1,80,2,0,2,12,0,0,11
44,71,43,1,80,11,-3,2,9,9,-1,10
45,69,44,1,95,9,-2,2,7,7,-1,9
46,67,45,1,80,7,-2,2,5,5,-1,8
47,66,46,1,80,6,-1,2,4,4,-1,7
48,64,47,1,80,4,-2,2,2,2,-1,6
49,62,48,1,105,2,-2,2,0,0,-1,5
50,64,49,1,80,4,2,2,2,2,1,6
51,66,50,1,80,6,2,2,4,4,1,7
52,67,51,1,80,7,1,2,5,5,1,8
53,69,52,1,95,9,2,2,7,7,1,9
54,62,53,1,80,2,-7,2,0,0,-1,8
55,66,54,1,80,6,4,2,4,4,1,9
56,69,55,1,80,9,3,2,7,7,1,10
57,71,56,0,105,11,2,2,9,9,1,11
58,73,56,0,80,1,2,2,11,11,1,12
59,74,57,0,80,2,1,2,12,0,1,13
60,69,58,1,80,9,-5,2,7,7,-1,12
61,66,59,1,80,6,-3,2,4,4,-1,11
62,64,60,2,95,4,-2,2,2,2,-1,10
63,64,62,1,80,4,0,2,2,2,0,10
64,79,63,1,80,7,15,2,17,5,1,11
65,78,64,1,105,6,-1,2,16,4,-1,10
66,74,65,1,80,2,-4,2,12,0,-1,9
67,74,66,1,80,2,0,2,12,0,0,9
68,78,67,1,80,6,4,2,16,4,1,10
69,76,68,1,95,4,-2,2,14,2,-1,9
70,74,69,1,80,2,-2,2,12,0,-1,8
71,71,70,1,80,11,-3,2,9,9,-1,7
72,73,71,1,80,1,2,2,11,11,1,8
73,74,72,2,105,2,1,2,12,0,1,9
74,74,74,1,80,2,0,2,12,0,0,9
75,71,75,1,80,11,-3,2,9,9,-1,8
76,69,76,1,95,9,-2,2,7,7,-1,7
77,71,77,1,80,11,2,2,9,9,1,8
78,74,78,1,80,2,3,2,12,0,1,9
79,79,79,1,80,7,5,2,17,5,1,10
80,78,80,1,105,6,-1,2,16,4,-1,9
81,74,81,1,80,2,-4,2,12,0,-1,8
82,74,82,1,80,2,0,2,12,0,0,8
83,78,83,1,80,6,4,2,16,4,1,9
84,76,84,1,95,4,-2,2,14,2,-1,8
85,74,85,1,80,2,-2,2,12,0,-1,7
86,71,86,1,80,11,-3,2,9,9,-1,6
87,69,87,1,80,9,-2,2,7,7,-1,5
88,71,88,0,105,11,2,2,9,9,1,6
89,73,88,0,80,1,2,2,11,11,1,7
90,74,89,0,80,2,1,2,12,0,1,8
91,69,90,1,80,9,-5,2,7,7,-1,7
92,66,91,1,80,6,-3,2,4,4,-1,6
93,64,92,2,95,4,-2,2,2,2,-1,5
94,64,94,1,80,4,0,2,2,2,0,5
95,79,95,1,80,7,15,2,17,5,1,6
96,78,96,1,105,6,-1,2,16,4,-1,5
97,74,97,1,80,2,-4,2,12,0,-1,4
98,74,98,1,80,2,0,2,12,0,0,4
99,78,99,1,80,6,4,2,16,4,1,5
100,76,100,1,95,4,-2,2,14,2,-1,4
101,74,101,1,80,2,-2,2,12,0,-1,3
102,71,102,1,80,11,-3,2,9,9,-1,2
103,73,103,1,80,1,2,2,11,11,1,3
104,74,104,2,105,2,1,2,12,0,1,4
105,74,106,1,80,2,0,2,12,0,0,4
106,71,107,1,80,11,-3,2,9,9,-1,3
107,69,108,1,95,9,-2,2,7,7,-1,2
108,71,109,1,80,11,2,2,9,9,1,3
109,74,110,1,80,2,3,2,12,0,1,4
110,79,111,1,80,7,5,2,17,5,1,5
111,78,112,1,105,6,-1,2,16,4,-1,4
112,74,113,1,80,2,-4,2,12,0,-1,3
113,76,114,1,80,4,2,2,14,2,1,4
114,73,115,1,80,1,-3,2,11,11,-1,3
115,74,116,1,95,2,1,2,12,0,1,4
116,73,117,1,80,1,-1,2,11,11,-1,3
117,71,118,1,80,11,-2,2,9,9,-1,2
118,69,119,1,80,9,-2,2,7,7,-1,1
119,71,120,0,105,11,2,2,9,9,1,2
120,73,120,0,80,1,2,2,11,11,1,3
121,74,121,0,80,2,1,2,12,0,1,4
122,69,122,1,80,9,-5,2,7,7,-1,3
123,66,123,1,80,6,-3,2,4,4,-1,2
124,64,124,2,95,4,-2,2,2,2,-1,1
125,64,126,2,80,4,0,2,2,2,0,1
