,midi_note,onset,duration,velocity,pitch_class,interval,root,relative_pitch,relative_pitch_class,parsons_code,parsons_cumsum
0,64,0,1,105,4,0,7,-3,9,0,0
1,62,1,1,105,2,-2,7,-5,7,-1,-1
2,64,2,1,80,4,2,7,-3,9,1,0
3,62,3,1,80,2,-2,7,-5,7,-1,-1
4,64,4,1,80,4,2,7,-3,9,1,0
5,67,5,1,95,7,3,7,0,0,1,1
6,67,6,1,80,7,0,7,0,0,0,1
7,67,7,1,80,7,0,7,0,0,0,1
8,69,8,1,80,9,2,7,2,2,1,2
9,71,9,1,105,11,2,7,4,4,1,3
10,69,10,1,80,9,-2,7,2,2,-1,2
11,71,11,0,80,11,2,7,4,4,1,3
12,72,11,0,80,0,1,7,5,5,1,4
13,74,12,0,80,2,2,7,7,7,1,5
14,76,13,1,95,4,2,7,9,9,1,6
15,74,14,1,80,2,-2,7,7,7,-1,5
16,74,15,1,80,2,0,7,7,7,0,5
17,71,16,1,80,11,-3,7,4,4,-1,4
18,74,17,2,105,2,3,7,7,7,1,5
19,74,19,1,80,2,0,7,7,7,0,5
20,76,20,1,80,4,2,7,9,9,1,6
21,79,21,1,95,7,3,7,12,0,1,7
22,81,22,1,80,9,2,7,14,2,1,8
23,79,23,1,80,7,-2,7,12,0,-1,7
24,76,24,1,80,4,-3,7,9,9,-1,6
25,74,25,1,105,2,-2,7,7,7,-1,5
26,71,26,1,80,11,-3,7,4,4,-1,4
27,69,27,0,80,9,-2,7,2,2,-1,3
28,71,27,0,80,11,2,7,4,4,1,4
29,72,28,0,80,0,1,7,5,5,1,5
30,71,29,1,95,11,-1,7,4,4,-1,4
31,67,30,1,80,7,-4,7,0,0,-1,3
32,67,31,1,80,7,0,7,0,0,0,3
33,64,32,1,80,4,-3,7,-3,9,-1,2
34,62,33,1,105,2,-2,7,-5,7,-1,1
35,64,34,1,80,4,2,7,-3,9,1,2
36,62,35,1,80,2,-2,7,-5,7,-1,1
37,64,36,1,80,4,2,7,-3,9,1,2
38,67,37,1,95,7,3,7,0,0,1,3
39,67,38,1,80,7,0,7,0,0,0,3
40,67,39,1,80,7,0,7,0,0,0,3
41,69,40,1,80,9,2,7,2,2,1,4
42,71,41,1,105,11,2,7,4,4,1,5
43,69,42,1,80,9,-2,7,2,2,-1,4
44,71,43,0,80,11,2,7,4,4,1,5
45,72,43,0,80,0,1,7,5,5,1,6
46,74,44,0,80,2,2,7,7,7,1,7
47,76,45,0,95,4,2,7,9,9,1,8
48,76,45,0,80,4,0,7,9,9,0,8
49,76,46,0,80,4,0,7,9,9,0,8
50,71,47,1,80,11,-5,7,4,4,-1,7
51,74,48,1,80,2,3,7,7,7,1,8
52,74,49,1,105,2,0,7,7,7,0,8
53,76,50,1,80,4,2,7,9,9,1,9
54,74,51,1,80,2,-2,7,7,7,-1,8
55,76,52,1,80,4,2,7,9,9,1,9
56,79,53,2,95,7,3,7,12,0,1,10
57,79,55,1,80,7,0,7,12,0,0,10
58,76,56,1,80,4,-3,7,9,9,-1,9
59,74,57,1,105,2,-2,7,7,7,-1,8
60,71,58,1,80,11,-3,7,4,4,-1,7
61,69,59,0,80,9,-2,7,2,2,-1,6
62,71,59,0,80,11,2,7,4,4,1,7
63,72,60,0,80,0,1,7,5,5,1,8
64,71,61,1,95,11,-1,7,4,4,-1,7
65,67,62,1,80,7,-4,7,0,0,-1,6
66,67,63,1,80,7,0,7,0,0,0,6
67,76,64,1,80,4,9,7,9,9,1,7
68,74,65,1,105,2,-2,7,7,7,-1,6
69,72,66,1,80,0,-2,7,5,5,-1,5
70,71,67,1,80,11,-1,7,4,4,-1,4
71,69,68,1,80,9,-2,7,2,2,-1,3
72,67,69,1,95,7,-2,7,0,0,-1,2
73,67,70,1,80,7,0,7,0,0,0,2
74,67,71,1,80,7,0,7,0,0,0,2
75,71,72,1,80,11,4,7,4,4,1,3
76,69,73,1,105,9,-2,7,2,2,-1,2
77,64,74,1,80,4,-5,7,-3,9,-1,1
78,64,75,2,80,4,0,7,-3,9,0,1
79,67,77,1,95,7,3,7,0,0,1,2
80,64,78,1,80,4,-3,7,-3,9,-1,1
81,74,79,1,80,2,10,7,7,7,1,2
82,71,80,1,80,11,-3,7,4,4,-1,1
83,72,81,2,105,0,1,7,5,5,1,2
84,71,83,1,80,11,-1,7,4,4,-1,1
85,69,84,1,80,9,-2,7,2,2,-1,0
86,67,85,2,95,7,-2,7,0,0,-1,-1
87,79,87,1,80,7,12,7,12,0,1,0
88,76,88,1,80,4,-3,7,9,9,-1,-1
89,74,89,1,105,2,-2,7,7,7,-1,-2
90,71,90,1,80,11,-3,7,4,4,-1,-3
91,69,91,0,80,9,-2,7,2,2,-1,-4
92,71,91,0,80,11,2,7,4,4,1,-3
93,72,92,0,80,0,1,7,5,5,1,-2
94,71,93,1,95,11,-1,7,4,4,-1,-3
95,67,94,1,80,7,-4,7,0,0,-1,-4
96,67,95,1,80,7,0,7,0,0,0,-4
97,76,96,1,80,4,9,7,9,9,1,-3
98,74,97,1,105,2,-2,7,7,7,-1,-4
99,72,98,1,80,0,-2,7,5,5,-1,-5
100,71,99,1,80,11,-1,7,4,4,-1,-6
101,69,100,1,80,9,-2,7,2,2,-1,-7
102,67,101,2,95,7,-2,7,0,0,-1,-8
103,67,103,1,80,7,0,7,0,0,0,-8
104,71,104,1,80,11,4,7,4,4,1,-7
105,69,105,1,105,9,-2,7,2,2,-1,-8
106,64,106,1,80,4,-5,7,-3,9,-1,-9
107,64,107,2,80,4,0,7,-3,9,0,-9
108,67,109,1,95,7,3,7,0,0,1,-8
109,64,110,1,80,4,-3,7,-3,9,-1,-9
110,74,111,1,80,2,10,7,7,7,1,-8
111,71,112,1,80,11,-3,7,4,4,-1,-9
112,72,113,0,105,0,1,7,5,5,1,-8
113,71,113,0,80,11,-1,7,4,4,-1,-9
114,69,114,0,80,9,-2,7,2,2,-1,-10
115,71,115,1,80,11,2,7,4,4,1,-9
116,69,116,1,80,9,-2,7,2,2,-1,-10
117,79,117,1,95,7,10,7,12,0,1,-9
118,79,118,1,80,7,0,7,12,0,0,-9
119,79,119,1,80,7,0,7,12,0,0,-9
120,76,120,1,80,4,-3,7,9,9,-1,-10
121,74,121,1,105,2,-2,7,7,7,-1,-11
122,71,122,1,80,11,-3,7,4,4,-1,-12
123,69,123,0,80,9,-2,7,2,2,-1,-13
124,71,123,0,80,11,2,7,4,4,1,-12
125,72,124,0,80,0,1,7,5,5,1,-11
126,71,125,1,95,11,-1,7,4,4,-1,-12
127,67,126,1,80,7,-4,7,0,0,-1,-13
128,67,127,1,80,7,0,7,0,0,0,-13
