,midi_note,onset,duration,velocity,pitch_class,interval,root,relative_pitch,relative_pitch_class,parsons_code,parsons_cumsum
0,64,0,3,105,4,0,4,0,0,0,0
1,71,3,3,95,11,7,4,7,7,1,1
2,64,6,3,105,4,-7,4,0,0,-1,0
3,69,9,1,95,9,5,4,5,5,1,1
4,66,10,1,80,6,-3,4,2,2,-1,0
5,62,11,1,80,2,-4,4,-2,10,-1,-1
6,64,12,1,105,4,2,4,0,0,1,0
7,71,13,1,80,11,7,4,7,7,1,1
8,64,14,1,80,4,-7,4,0,0,-1,0
9,71,15,3,95,11,7,4,7,7,1,1
10,74,18,1,105,2,3,4,10,10,1,2
11,73,19,1,80,1,-1,4,9,9,-1,1
12,71,20,1,80,11,-2,4,7,7,-1,0
13,69,21,1,95,9,-2,4,5,5,-1,-1
14,66,22,1,80,6,-3,4,2,2,-1,-2
15,62,23,1,80,2,-4,4,-2,10,-1,-3
16,64,24,3,105,4,2,4,0,0,1,-2
17,71,27,3,95,11,7,4,7,7,1,-1
18,64,30,3,105,4,-7,4,0,0,-1,-2
19,69,33,1,95,9,5,4,5,5,1,-1
20,66,34,1,80,6,-3,4,2,2,-1,-2
21,62,35,1,80,2,-4,4,-2,10,-1,-3
22,67,36,1,105,7,5,4,3,3,1,-2
23,71,37,1,80,11,4,4,7,7,1,-1
24,67,38,1,80,7,-4,4,3,3,-1,-2
25,66,39,1,95,6,-1,4,2,2,-1,-3
26,67,40,1,80,7,1,4,3,3,1,-2
27,69,41,1,80,9,2,4,5,5,1,-1
28,74,42,1,105,2,5,4,10,10,1,0
29,69,43,1,80,9,-5,4,5,5,-1,-1
30,67,44,1,80,7,-2,4,3,3,-1,-2
31,66,45,1,95,6,-1,4,2,2,-1,-3
32,64,46,1,80,4,-2,4,0,0,-1,-4
33,62,47,1,80,2,-2,4,-2,10,-1,-5
34,64,48,3,105,4,2,4,0,0,1,-4
35,71,51,3,95,11,7,4,7,7,1,-3
36,64,54,3,105,4,-7,4,0,0,-1,-4
37,69,57,1,95,9,5,4,5,5,1,-3
38,66,58,1,80,6,-3,4,2,2,-1,-4
39,62,59,1,80,2,-4,4,-2,10,-1,-5
40,64,60,1,105,4,2,4,0,0,1,-4
41,71,61,1,80,11,7,4,7,7,1,-3
42,64,62,1,80,4,-7,4,0,0,-1,-4
43,71,63,3,95,11,7,4,7,7,1,-3
44,74,66,1,105,2,3,4,10,10,1,-2
45,73,67,1,80,1,-1,4,9,9,-1,-3
46,71,68,1,80,11,-2,4,7,7,-1,-4
47,69,69,1,95,9,-2,4,5,5,-1,-5
48,66,70,1,80,6,-3,4,2,2,-1,-6
49,62,71,1,80,2,-4,4,-2,10,-1,-7
50,64,72,3,105,4,2,4,0,0,1,-6
51,71,75,3,95,11,7,4,7,7,1,-5
52,64,78,3,105,4,-7,4,0,0,-1,-6
53,69,81,1,95,9,5,4,5,5,1,-5
54,66,82,1,80,6,-3,4,2,2,-1,-6
55,62,83,1,80,2,-4,4,-2,10,-1,-7
56,67,84,1,105,7,5,4,3,3,1,-6
57,71,85,1,80,11,4,4,7,7,1,-5
58,67,86,1,80,7,-4,4,3,3,-1,-6
59,66,87,1,95,6,-1,4,2,2,-1,-7
60,67,88,1,80,7,1,4,3,3,1,-6
61,69,89,1,80,9,2,4,5,5,1,-5
62,74,90,1,105,2,5,4,10,10,1,-4
63,69,91,1,80,9,-5,4,5,5,-1,-5
64,67,92,1,80,7,-2,4,3,3,-1,-6
65,66,93,1,95,6,-1,4,2,2,-1,-7
66,64,94,1,80,4,-2,4,0,0,-1,-8
67,62,95,1,80,2,-2,4,-2,10,-1,-9
68,71,96,1,105,11,9,4,7,7,1,-8
69,76,97,1,80,4,5,4,12,0,1,-7
70,76,98,1,80,4,0,4,12,0,0,-7
71,78,99,1,95,6,2,4,14,2,1,-6
72,76,100,1,80,4,-2,4,12,0,-1,-7
73,76,101,1,80,4,0,4,12,0,0,-7
74,81,102,1,105,9,5,4,17,5,1,-6
75,76,103,1,80,4,-5,4,12,0,-1,-7
76,76,104,1,80,4,0,4,12,0,0,-7
77,78,105,1,95,6,2,4,14,2,1,-6
78,76,106,1,80,4,-2,4,12,0,-1,-7
79,74,107,1,80,2,-2,4,10,10,-1,-8
80,71,108,1,105,11,-3,4,7,7,-1,-9
81,76,109,1,80,4,5,4,12,0,1,-8
82,76,110,1,80,4,0,4,12,0,0,-8
83,78,111,1,95,6,2,4,14,2,1,-7
84,76,112,1,80,4,-2,4,12,0,-1,-8
85,76,113,1,80,4,0,4,12,0,0,-8
86,81,114,2,105,9,5,4,17,5,1,-7
87,79,116,1,80,7,-2,4,15,3,-1,-8
88,78,117,1,95,6,-1,4,14,2,-1,-9
89,76,118,1,80,4,-2,4,12,0,-1,-10
90,74,119,1,80,2,-2,4,10,10,-1,-11
91,71,120,1,105,11,-3,4,7,7,-1,-12
92,76,121,1,80,4,5,4,12,0,1,-11
93,76,122,1,80,4,0,4,12,0,0,-11
94,78,123,1,95,6,2,4,14,2,1,-10
95,76,124,1,80,4,-2,4,12,0,-1,-11
96,76,125,1,80,4,0,4,12,0,0,-11
97,81,126,1,105,9,5,4,17,5,1,-10
98,76,127,1,80,4,-5,4,12,0,-1,-11
99,76,128,1,80,4,0,4,12,0,0,-11
100,78,129,1,95,6,2,4,14,2,1,-10
101,76,130,1,80,4,-2,4,12,0,-1,-11
102,74,131,1,80,2,-2,4,10,10,-1,-12
103,79,132,1,105,7,5,4,15,3,1,-11
104,78,133,1,80,6,-1,4,14,2,-1,-12
105,76,134,1,80,4,-2,4,12,0,-1,-13
106,74,135,2,95,2,-2,4,10,10,-1,-14
107,69,137,1,80,9,-5,4,5,5,-1,-15
108,71,138,1,105,11,2,4,7,7,1,-14
109,69,139,1,80,9,-2,4,5,5,-1,-15
110,67,140,1,80,7,-2,4,3,3,-1,-16
111,66,141,1,95,6,-1,4,2,2,-1,-17
112,64,142,1,80,4,-2,4,0,0,-1,-18
113,62,143,1,80,2,-2,4,-2,10,-1,-19
114,71,144,1,105,11,9,4,7,7,1,-18
115,76,145,1,80,4,5,4,12,0,1,-17
116,76,146,1,80,4,0,4,12,0,0,-17
117,78,147,1,95,6,2,4,14,2,1,-16
118,76,148,1,80,4,-2,4,12,0,-1,-17
119,76,149,1,80,4,0,4,12,0,0,-17
120,81,150,1,105,9,5,4,17,5,1,-16
121,76,151,1,80,4,-5,4,12,0,-1,-17
122,76,152,1,80,4,0,4,12,0,0,-17
123,78,153,1,95,6,2,4,14,2,1,-16
124,76,154,1,80,4,-2,4,12,0,-1,-17
125,74,155,1,80,2,-2,4,10,10,-1,-18
126,71,156,1,105,11,-3,4,7,7,-1,-19
127,76,157,1,80,4,5,4,12,0,1,-18
128,76,158,1,80,4,0,4,12,0,0,-18
129,78,159,1,95,6,2,4,14,2,1,-17
130,76,160,1,80,4,-2,4,12,0,-1,-18
131,76,161,1,80,4,0,4,12,0,0,-18
132,78,162,1,105,6,2,4,14,2,1,-17
133,81,163,1,80,9,3,4,17,5,1,-16
134,78,164,1,80,6,-3,4,14,2,-1,-17
135,74,165,1,95,2,-4,4,10,10,-1,-18
136,76,166,1,80,4,2,4,12,0,1,-17
137,78,167,1,80,6,2,4,14,2,1,-16
138,79,168,3,105,7,1,4,15,3,1,-15
139,79,171,1,95,7,0,4,15,3,0,-15
140,78,172,1,80,6,-1,4,14,2,-1,-16
141,76,173,1,80,4,-2,4,12,0,-1,-17
142,74,174,1,105,2,-2,4,10,10,-1,-18
143,76,175,1,80,4,2,4,12,0,1,-17
144,78,176,1,80,6,2,4,14,2,1,-16
145,79,177,1,95,7,1,4,15,3,1,-15
146,78,178,1,80,6,-1,4,14,2,-1,-16
147,79,179,1,80,7,1,4,15,3,1,-15
148,76,180,1,105,4,-3,4,12,0,-1,-16
149,74,181,1,80,2,-2,4,10,10,-1,-17
150,73,182,1,80,1,-1,4,9,9,-1,-18
151,74,183,2,95,2,1,4,10,10,1,-17
152,69,185,1,80,9,-5,4,5,5,-1,-18
153,71,186,1,105,11,2,4,7,7,1,-17
154,69,187,1,80,9,-2,4,5,5,-1,-18
155,67,188,1,80,7,-2,4,3,3,-1,-19
156,66,189,1,95,6,-1,4,2,2,-1,-20
157,64,190,1,80,4,-2,4,0,0,-1,-21
158,62,191,1,80,2,-2,4,-2,10,-1,-22
