,midi_note,onset,duration,velocity,pitch_class,interval,root,relative_pitch,relative_pitch_class,parsons_code,parsons_cumsum
0,69,0,1,105,9,0,7,2,2,0,0
1,71,1,1,80,11,2,7,4,4,1,1
2,72,2,1,105,0,1,7,5,5,1,2
3,71,3,1,80,11,-1,7,4,4,-1,1
4,69,4,1,80,9,-2,7,2,2,-1,0
5,67,5,1,80,7,-2,7,0,0,-1,-1
6,66,6,1,95,6,-1,7,-1,11,-1,-2
7,67,7,1,80,7,1,7,0,0,1,-1
8,69,8,1,80,9,2,7,2,2,1,0
9,71,9,1,80,11,2,7,4,4,1,1
10,72,10,1,105,0,1,7,5,5,1,2
11,71,11,1,80,11,-1,7,4,4,-1,1
12,69,12,1,80,9,-2,7,2,2,-1,0
13,71,13,1,80,11,2,7,4,4,1,1
14,72,14,1,95,0,1,7,5,5,1,2
15,74,15,1,80,2,2,7,7,7,1,3
16,76,16,1,80,4,2,7,9,9,1,4
17,78,17,1,80,6,2,7,11,11,1,5
18,79,18,1,105,7,1,7,12,0,1,6
19,81,19,1,80,9,2,7,14,2,1,7
20,79,20,1,80,7,-2,7,12,0,-1,6
21,78,21,1,80,6,-1,7,11,11,-1,5
22,79,22,1,95,7,1,7,12,0,1,6
23,78,23,1,80,6,-1,7,11,11,-1,5
24,76,24,1,80,4,-2,7,9,9,-1,4
25,72,25,1,80,0,-4,7,5,5,-1,3
26,74,26,1,105,2,2,7,7,7,1,4
27,72,27,1,80,0,-2,7,5,5,-1,3
28,69,28,1,80,9,-3,7,2,2,-1,2
29,67,29,1,80,7,-2,7,0,0,-1,1
30,69,30,1,95,9,2,7,2,2,1,2
31,71,31,1,80,11,2,7,4,4,1,3
32,69,32,1,80,9,-2,7,2,2,-1,2
33,71,33,1,80,11,2,7,4,4,1,3
34,72,34,1,105,0,1,7,5,5,1,4
35,71,35,1,80,11,-1,7,4,4,-1,3
36,69,36,1,80,9,-2,7,2,2,-1,2
37,67,37,1,80,7,-2,7,0,0,-1,1
38,66,38,1,95,6,-1,7,-1,11,-1,0
39,67,39,1,80,7,1,7,0,0,1,1
40,69,40,1,80,9,2,7,2,2,1,2
41,71,41,1,80,11,2,7,4,4,1,3
42,72,42,1,105,0,1,7,5,5,1,4
43,71,43,1,80,11,-1,7,4,4,-1,3
44,69,44,1,80,9,-2,7,2,2,-1,2
45,71,45,1,80,11,2,7,4,4,1,3
46,72,46,1,95,0,1,7,5,5,1,4
47,74,47,0,80,2,2,7,7,7,1,5
48,76,48,1,80,4,2,7,9,9,1,6
49,78,49,1,80,6,2,7,11,11,1,7
50,79,50,1,105,7,1,7,12,0,1,8
51,81,51,1,80,9,2,7,14,2,1,9
52,79,52,1,80,7,-2,7,12,0,-1,8
53,78,53,1,80,6,-1,7,11,11,-1,7
54,79,54,1,95,7,1,7,12,0,1,8
55,78,55,1,80,6,-1,7,11,11,-1,7
56,76,56,1,80,4,-2,7,9,9,-1,6
57,72,57,1,80,0,-4,7,5,5,-1,5
58,74,58,1,105,2,2,7,7,7,1,6
59,72,59,1,80,0,-2,7,5,5,-1,5
60,69,60,1,80,9,-3,7,2,2,-1,4
61,66,61,1,80,6,-3,7,-1,11,-1,3
62,67,62,2,95,7,1,7,0,0,1,4
63,69,64,1,80,9,2,7,2,2,1,5
64,71,65,1,80,11,2,7,4,4,1,6
65,72,66,1,105,0,1,7,5,5,1,7
66,71,67,1,80,11,-1,7,4,4,-1,6
67,69,68,1,80,9,-2,7,2,2,-1,5
68,69,69,1,80,9,0,7,2,2,0,5
69,71,70,0,95,11,2,7,4,4,1,6
70,72,70,0,80,0,1,7,5,5,1,7
71,74,71,0,80,2,2,7,7,7,1,8
72,76,72,1,80,4,2,7,9,9,1,9
73,78,73,1,80,6,2,7,11,11,1,10
74,79,74,1,105,7,1,7,12,0,1,11
75,81,75,1,80,9,2,7,14,2,1,12
76,79,76,1,80,7,-2,7,12,0,-1,11
77,78,77,1,80,6,-1,7,11,11,-1,10
78,79,78,1,95,7,1,7,12,0,1,11
79,78,79,1,80,6,-1,7,11,11,-1,10
80,76,80,1,80,4,-2,7,9,9,-1,9
81,78,81,1,80,6,2,7,11,11,1,10
82,79,82,1,105,7,1,7,12,0,1,11
83,81,83,1,80,9,2,7,14,2,1,12
84,79,84,1,80,7,-2,7,12,0,-1,11
85,78,85,1,80,6,-1,7,11,11,-1,10
86,79,86,1,95,7,1,7,12,0,1,11
87,76,87,1,80,4,-3,7,9,9,-1,10
88,81,88,1,80,9,5,7,14,2,1,11
89,79,89,1,80,7,-2,7,12,0,-1,10
90,78,90,1,105,6,-1,7,11,11,-1,9
91,76,91,1,80,4,-2,7,9,9,-1,8
92,74,92,1,80,2,-2,7,7,7,-1,7
93,78,93,1,80,6,4,7,11,11,1,8
94,76,94,2,95,4,-2,7,9,9,-1,7
95,69,96,1,80,9,-7,7,2,2,-1,6
96,71,97,1,80,11,2,7,4,4,1,7
97,72,98,1,105,0,1,7,5,5,1,8
98,74,99,1,80,2,2,7,7,7,1,9
99,72,100,1,80,0,-2,7,5,5,-1,8
100,71,101,1,80,11,-1,7,4,4,-1,7
101,72,102,1,95,0,1,7,5,5,1,8
102,69,103,1,80,9,-3,7,2,2,-1,7
103,74,104,1,80,2,5,7,7,7,1,8
104,72,105,1,80,0,-2,7,5,5,-1,7
105,71,106,1,105,11,-1,7,4,4,-1,6
106,69,107,1,80,9,-2,7,2,2,-1,5
107,67,108,1,80,7,-2,7,0,0,-1,4
108,69,109,1,80,9,2,7,2,2,1,5
109,71,110,1,95,11,2,7,4,4,1,6
110,72,111,1,80,0,1,7,5,5,1,7
111,74,112,2,80,2,2,7,7,7,1,8
112,76,114,1,105,4,2,7,9,9,1,9
113,78,115,0,80,6,2,7,11,11,1,10
114,79,115,0,80,7,1,7,12,0,1,11
115,81,116,1,80,9,2,7,14,2,1,12
116,78,117,1,80,6,-3,7,11,11,-1,11
117,79,118,1,95,7,1,7,12,0,1,12
118,78,119,1,80,6,-1,7,11,11,-1,11
119,76,120,1,80,4,-2,7,9,9,-1,10
120,72,121,1,80,0,-4,7,5,5,-1,9
121,74,122,1,105,2,2,7,7,7,1,10
122,72,123,1,80,0,-2,7,5,5,-1,9
123,69,124,1,80,9,-3,7,2,2,-1,8
124,66,125,1,80,6,-3,7,-1,11,-1,7
125,67,126,2,95,7,1,7,0,0,1,8
