,midi_note,onset,duration,velocity,pitch_class,interval,root,relative_pitch,relative_pitch_class,parsons_code,parsons_cumsum
0,74,0,1,105,2,0,2,12,0,0,0
1,71,1,1,80,11,-3,2,9,9,-1,-1
2,69,2,1,105,9,-2,2,7,7,-1,-2
3,66,3,1,80,6,-3,2,4,4,-1,-3
4,66,4,2,80,6,0,2,4,4,0,-3
5,67,6,2,95,7,1,2,5,5,1,-2
6,64,8,0,80,4,-3,2,2,2,-1,-3
7,66,8,0,80,6,2,2,4,4,1,-2
8,67,9,0,80,7,1,2,5,5,1,-1
9,69,10,1,105,9,2,2,7,7,1,0
10,62,11,1,80,2,-7,2,0,0,-1,-1
11,66,12,1,80,6,4,2,4,4,1,0
12,62,13,1,80,2,-4,2,0,0,-1,-1
13,64,14,1,95,4,2,2,2,2,1,0
14,67,15,1,80,7,3,2,5,5,1,1
15,66,16,1,80,6,-1,2,4,4,-1,0
16,64,17,1,80,4,-2,2,2,2,-1,-1
17,62,18,2,105,2,-2,2,0,0,-1,-2
18,66,20,1,80,6,4,2,4,4,1,-1
19,69,21,1,80,9,3,2,7,7,1,0
20,74,22,1,95,2,5,2,12,0,1,1
21,78,23,1,80,6,4,2,16,4,1,2
22,76,24,1,80,4,-2,2,14,2,-1,1
23,73,25,1,80,1,-3,2,11,11,-1,0
24,74,26,1,105,2,1,2,12,0,1,1
25,71,27,1,80,11,-3,2,9,9,-1,0
26,69,28,1,80,9,-2,2,7,7,-1,-1
27,66,29,1,80,6,-3,2,4,4,-1,-2
28,64,30,2,95,4,-2,2,2,2,-1,-3
29,74,32,1,80,2,10,2,12,0,1,-2
30,71,33,1,80,11,-3,2,9,9,-1,-3
31,69,34,1,105,9,-2,2,7,7,-1,-4
32,66,35,1,80,6,-3,2,4,4,-1,-5
33,66,36,2,80,6,0,2,4,4,0,-5
34,67,38,2,95,7,1,2,5,5,1,-4
35,64,40,0,80,4,-3,2,2,2,-1,-5
36,66,40,0,80,6,2,2,4,4,1,-4
37,67,41,0,80,7,1,2,5,5,1,-3
38,69,42,1,105,9,2,2,7,7,1,-2
39,62,43,1,80,2,-7,2,0,0,-1,-3
40,66,44,1,80,6,4,2,4,4,1,-2
41,62,45,1,80,2,-4,2,0,0,-1,-3
42,64,46,1,95,4,2,2,2,2,1,-2
43,67,47,1,80,7,3,2,5,5,1,-1
44,66,48,1,80,6,-1,2,4,4,-1,-2
45,64,49,1,80,4,-2,2,2,2,-1,-3
46,62,50,2,105,2,-2,2,0,0,-1,-4
47,66,52,1,80,6,4,2,4,4,1,-3
48,69,53,1,80,9,3,2,7,7,1,-2
49,74,54,1,95,2,5,2,12,0,1,-1
50,78,55,1,80,6,4,2,16,4,1,0
51,76,56,1,80,4,-2,2,14,2,-1,-1
52,73,57,1,80,1,-3,2,11,11,-1,-2
53,74,58,1,105,2,1,2,12,0,1,-1
54,71,59,1,80,11,-3,2,9,9,-1,-2
55,69,60,1,80,9,-2,2,7,7,-1,-3
56,66,61,1,80,6,-3,2,4,4,-1,-4
57,62,62,2,95,2,-4,2,0,0,-1,-5
58,74,64,1,80,2,12,2,12,0,1,-4
59,71,65,1,80,11,-3,2,9,9,-1,-5
60,69,66,1,105,9,-2,2,7,7,-1,-6
61,66,67,1,80,6,-3,2,4,4,-1,-7
62,66,68,2,80,6,0,2,4,4,0,-7
63,67,70,2,95,7,1,2,5,5,1,-6
64,64,72,0,80,4,-3,2,2,2,-1,-7
65,66,72,0,80,6,2,2,4,4,1,-6
66,67,73,0,80,7,1,2,5,5,1,-5
67,69,74,1,105,9,2,2,7,7,1,-4
68,62,75,1,80,2,-7,2,0,0,-1,-5
69,66,76,1,80,6,4,2,4,4,1,-4
70,62,77,1,80,2,-4,2,0,0,-1,-5
71,64,78,1,95,4,2,2,2,2,1,-4
72,67,79,1,80,7,3,2,5,5,1,-3
73,66,80,1,80,6,-1,2,4,4,-1,-4
74,64,81,1,80,4,-2,2,2,2,-1,-5
75,62,82,2,105,2,-2,2,0,0,-1,-6
76,66,84,1,80,6,4,2,4,4,1,-5
77,69,85,1,80,9,3,2,7,7,1,-4
78,74,86,1,95,2,5,2,12,0,1,-3
79,78,87,1,80,6,4,2,16,4,1,-2
80,76,88,1,80,4,-2,2,14,2,-1,-3
81,73,89,1,80,1,-3,2,11,11,-1,-4
82,74,90,1,105,2,1,2,12,0,1,-3
83,71,91,1,80,11,-3,2,9,9,-1,-4
84,69,92,1,80,9,-2,2,7,7,-1,-5
85,66,93,1,80,6,-3,2,4,4,-1,-6
86,64,94,2,95,4,-2,2,2,2,-1,-7
87,74,96,1,80,2,10,2,12,0,1,-6
88,71,97,1,80,11,-3,2,9,9,-1,-7
89,69,98,1,105,9,-2,2,7,7,-1,-8
90,66,99,1,80,6,-3,2,4,4,-1,-9
91,66,100,2,80,6,0,2,4,4,0,-9
92,67,102,2,95,7,1,2,5,5,1,-8
93,64,104,0,80,4,-3,2,2,2,-1,-9
94,66,104,0,80,6,2,2,4,4,1,-8
95,67,105,0,80,7,1,2,5,5,1,-7
96,69,106,1,105,9,2,2,7,7,1,-6
97,62,107,1,80,2,-7,2,0,0,-1,-7
98,66,108,1,80,6,4,2,4,4,1,-6
99,62,109,1,80,2,-4,2,0,0,-1,-7
100,64,110,1,95,4,2,2,2,2,1,-6
101,67,111,1,80,7,3,2,5,5,1,-5
102,66,112,1,80,6,-1,2,4,4,-1,-6
103,64,113,1,80,4,-2,2,2,2,-1,-7
104,62,114,2,105,2,-2,2,0,0,-1,-8
105,66,116,1,80,6,4,2,4,4,1,-7
106,69,117,1,80,9,3,2,7,7,1,-6
107,74,118,1,95,2,5,2,12,0,1,-5
108,78,119,1,80,6,4,2,16,4,1,-4
109,76,120,1,80,4,-2,2,14,2,-1,-5
110,73,121,1,80,1,-3,2,11,11,-1,-6
111,74,122,1,105,2,1,2,12,0,1,-5
112,71,123,1,80,11,-3,2,9,9,-1,-6
113,69,124,1,80,9,-2,2,7,7,-1,-7
114,66,125,1,80,6,-3,2,4,4,-1,-8
115,62,126,2,95,2,-4,2,0,0,-1,-9
116,74,128,1,80,2,12,2,12,0,1,-8
117,76,129,1,80,4,2,2,14,2,1,-7
118,78,130,2,105,6,2,2,16,4,1,-6
119,78,132,1,80,6,0,2,16,4,0,-6
120,81,133,1,80,9,3,2,19,7,1,-5
121,79,134,2,95,7,-2,2,17,5,-1,-6
122,78,136,1,80,6,-1,2,16,4,-1,-7
123,79,137,1,80,7,1,2,17,5,1,-6
124,81,138,1,105,9,2,2,19,7,1,-5
125,78,139,1,80,6,-3,2,16,4,-1,-6
126,74,140,1,80,2,-4,2,12,0,-1,-7
127,78,141,1,80,6,4,2,16,4,1,-6
128,76,142,1,95,4,-2,2,14,2,-1,-7
129,71,143,1,80,11,-5,2,9,9,-1,-8
130,71,144,2,80,11,0,2,9,9,0,-8
131,78,146,2,105,6,7,2,16,4,1,-7
132,78,148,1,80,6,0,2,16,4,0,-7
133,76,149,1,80,4,-2,2,14,2,-1,-8
134,74,150,1,95,2,-2,2,12,0,-1,-9
135,78,151,1,80,6,4,2,16,4,1,-8
136,76,152,1,80,4,-2,2,14,2,-1,-9
137,73,153,1,80,1,-3,2,11,11,-1,-10
138,74,154,1,105,2,1,2,12,0,1,-9
139,71,155,1,80,11,-3,2,9,9,-1,-10
140,69,156,1,80,9,-2,2,7,7,-1,-11
141,66,157,1,80,6,-3,2,4,4,-1,-12
142,64,158,2,95,4,-2,2,2,2,-1,-13
143,78,160,1,80,6,14,2,16,4,1,-12
144,79,161,1,80,7,1,2,17,5,1,-11
145,81,162,1,105,9,2,2,19,7,1,-10
146,78,163,1,80,6,-3,2,16,4,-1,-11
147,78,164,2,80,6,0,2,16,4,0,-11
148,83,166,1,95,11,5,2,21,9,1,-10
149,78,167,1,80,6,-5,2,16,4,-1,-11
150,78,168,2,80,6,0,2,16,4,0,-11
151,81,170,1,105,9,3,2,19,7,1,-10
152,78,171,1,80,6,-3,2,16,4,-1,-11
153,76,172,1,80,4,-2,2,14,2,-1,-12
154,78,173,1,80,6,2,2,16,4,1,-11
155,74,174,1,95,2,-4,2,12,0,-1,-12
156,71,175,1,80,11,-3,2,9,9,-1,-13
157,71,176,2,80,11,0,2,9,9,0,-13
158,78,178,2,105,6,7,2,16,4,1,-12
159,78,180,1,80,6,0,2,16,4,0,-12
160,76,181,1,80,4,-2,2,14,2,-1,-13
161,74,182,1,95,2,-2,2,12,0,-1,-14
162,78,183,1,80,6,4,2,16,4,1,-13
163,76,184,1,80,4,-2,2,14,2,-1,-14
164,73,185,1,80,1,-3,2,11,11,-1,-15
165,74,186,1,105,2,1,2,12,0,1,-14
166,71,187,1,80,11,-3,2,9,9,-1,-15
167,69,188,1,80,9,-2,2,7,7,-1,-16
168,66,189,1,80,6,-3,2,4,4,-1,-17
169,62,190,2,95,2,-4,2,0,0,-1,-18
170,74,192,1,80,2,12,2,12,0,1,-17
171,76,193,1,80,4,2,2,14,2,1,-16
172,78,194,2,105,6,2,2,16,4,1,-15
173,78,196,1,80,6,0,2,16,4,0,-15
174,81,197,1,80,9,3,2,19,7,1,-14
175,79,198,2,95,7,-2,2,17,5,-1,-15
176,78,200,1,80,6,-1,2,16,4,-1,-16
177,79,201,1,80,7,1,2,17,5,1,-15
178,81,202,1,105,9,2,2,19,7,1,-14
179,78,203,1,80,6,-3,2,16,4,-1,-15
180,74,204,1,80,2,-4,2,12,0,-1,-16
181,78,205,1,80,6,4,2,16,4,1,-15
182,76,206,1,95,4,-2,2,14,2,-1,-16
183,71,207,1,80,11,-5,2,9,9,-1,-17
184,71,208,2,80,11,0,2,9,9,0,-17
185,78,210,2,105,6,7,2,16,4,1,-16
186,78,212,1,80,6,0,2,16,4,0,-16
187,76,213,1,80,4,-2,2,14,2,-1,-17
188,74,214,1,95,2,-2,2,12,0,-1,-18
189,78,215,1,80,6,4,2,16,4,1,-17
190,76,216,1,80,4,-2,2,14,2,-1,-18
191,73,217,1,80,1,-3,2,11,11,-1,-19
192,74,218,1,105,2,1,2,12,0,1,-18
193,71,219,1,80,11,-3,2,9,9,-1,-19
194,69,220,1,80,9,-2,2,7,7,-1,-20
195,66,221,1,80,6,-3,2,4,4,-1,-21
196,64,222,2,95,4,-2,2,2,2,-1,-22
197,78,224,1,80,6,14,2,16,4,1,-21
198,79,225,1,80,7,1,2,17,5,1,-20
199,81,226,1,105,9,2,2,19,7,1,-19
200,78,227,1,80,6,-3,2,16,4,-1,-20
201,78,228,2,80,6,0,2,16,4,0,-20
202,83,230,1,95,11,5,2,21,9,1,-19
203,78,231,1,80,6,-5,2,16,4,-1,-20
204,78,232,2,80,6,0,2,16,4,0,-20
205,81,234,1,105,9,3,2,19,7,1,-19
206,78,235,1,80,6,-3,2,16,4,-1,-20
207,76,236,1,80,4,-2,2,14,2,-1,-21
208,78,237,1,80,6,2,2,16,4,1,-20
209,74,238,1,95,2,-4,2,12,0,-1,-21
210,71,239,1,80,11,-3,2,9,9,-1,-22
211,71,240,2,80,11,0,2,9,9,0,-22
212,78,242,2,105,6,7,2,16,4,1,-21
213,78,244,1,80,6,0,2,16,4,0,-21
214,76,245,1,80,4,-2,2,14,2,-1,-22
215,74,246,1,95,2,-2,2,12,0,-1,-23
216,78,247,1,80,6,4,2,16,4,1,-22
217,76,248,1,80,4,-2,2,14,2,-1,-23
218,73,249,1,80,1,-3,2,11,11,-1,-24
219,74,250,1,105,2,1,2,12,0,1,-23
220,71,251,1,80,11,-3,2,9,9,-1,-24
221,69,252,1,80,9,-2,2,7,7,-1,-25
222,66,253,1,80,6,-3,2,4,4,-1,-26
223,62,254,2,95,2,-4,2,0,0,-1,-27
