,midi_note,onset,duration,velocity,pitch_class,interval,root,relative_pitch,relative_pitch_class,parsons_code,parsons_cumsum
0,67,0,1,105,7,0,9,-2,10,0,0
1,69,1,1,105,9,2,9,0,0,1,1
2,71,2,1,80,11,2,9,2,2,1,2
3,69,3,1,80,9,-2,9,0,0,-1,1
4,69,4,1,95,9,0,9,0,0,0,1
5,67,5,1,80,7,-2,9,-2,10,-1,0
6,64,6,1,80,4,-3,9,-5,7,-1,-1
7,72,7,2,105,0,8,9,3,3,1,0
8,71,9,1,80,11,-1,9,2,2,-1,-1
9,72,10,2,95,0,1,9,3,3,1,0
10,74,12,1,80,2,2,9,5,5,1,1
11,76,13,1,105,4,2,9,7,7,1,2
12,79,14,1,80,7,3,9,10,10,1,3
13,76,15,1,80,4,-3,9,7,7,-1,2
14,76,16,1,95,4,0,9,7,7,0,2
15,74,17,1,80,2,-2,9,5,5,-1,1
16,71,18,1,80,11,-3,9,2,2,-1,0
17,79,19,1,105,7,8,9,10,10,1,1
18,78,20,1,80,6,-1,9,9,9,-1,0
19,79,21,1,80,7,1,9,10,10,1,1
20,76,22,2,95,4,-3,9,7,7,-1,0
21,74,24,1,80,2,-2,9,5,5,-1,-1
22,74,25,1,105,2,0,9,5,5,0,-1
23,76,26,1,80,4,2,9,7,7,1,0
24,78,27,1,80,6,2,9,9,9,1,1
25,79,28,1,95,7,1,9,10,10,1,2
26,78,29,1,80,6,-1,9,9,9,-1,1
27,76,30,1,80,4,-2,9,7,7,-1,0
28,74,31,1,105,2,-2,9,5,5,-1,-1
29,71,32,1,80,11,-3,9,2,2,-1,-2
30,67,33,1,80,7,-4,9,-2,10,-1,-3
31,67,34,1,95,7,0,9,-2,10,0,-3
32,69,35,1,80,9,2,9,0,0,1,-2
33,71,36,1,80,11,2,9,2,2,1,-1
34,72,37,1,105,0,1,9,3,3,1,0
35,71,38,1,80,11,-1,9,2,2,-1,-1
36,69,39,1,80,9,-2,9,0,0,-1,-2
37,74,40,1,95,2,5,9,5,5,1,-1
38,71,41,1,80,11,-3,9,2,2,-1,-2
39,67,42,1,80,7,-4,9,-2,10,-1,-3
40,69,43,3,105,9,2,9,0,0,1,-2
41,69,46,2,95,9,0,9,0,0,0,-2
42,67,48,1,80,7,-2,9,-2,10,-1,-3
43,69,49,1,105,9,2,9,0,0,1,-2
44,71,50,1,80,11,2,9,2,2,1,-1
45,69,51,1,80,9,-2,9,0,0,-1,-2
46,69,52,1,95,9,0,9,0,0,0,-2
47,67,53,1,80,7,-2,9,-2,10,-1,-3
48,64,54,1,80,4,-3,9,-5,7,-1,-4
49,72,55,2,105,0,8,9,3,3,1,-3
50,71,57,1,80,11,-1,9,2,2,-1,-4
51,72,58,2,95,0,1,9,3,3,1,-3
52,74,60,1,80,2,2,9,5,5,1,-2
53,76,61,1,105,4,2,9,7,7,1,-1
54,79,62,1,80,7,3,9,10,10,1,0
55,76,63,1,80,4,-3,9,7,7,-1,-1
56,76,64,1,95,4,0,9,7,7,0,-1
57,74,65,1,80,2,-2,9,5,5,-1,-2
58,71,66,1,80,11,-3,9,2,2,-1,-3
59,79,67,1,105,7,8,9,10,10,1,-2
60,78,68,1,80,6,-1,9,9,9,-1,-3
61,79,69,1,80,7,1,9,10,10,1,-2
62,76,70,2,95,4,-3,9,7,7,-1,-3
63,74,72,1,80,2,-2,9,5,5,-1,-4
64,74,73,1,105,2,0,9,5,5,0,-4
65,76,74,1,80,4,2,9,7,7,1,-3
66,78,75,1,80,6,2,9,9,9,1,-2
67,79,76,1,95,7,1,9,10,10,1,-1
68,78,77,1,80,6,-1,9,9,9,-1,-2
69,76,78,1,80,4,-2,9,7,7,-1,-3
70,74,79,1,105,2,-2,9,5,5,-1,-4
71,71,80,1,80,11,-3,9,2,2,-1,-5
72,67,81,1,80,7,-4,9,-2,10,-1,-6
73,67,82,1,95,7,0,9,-2,10,0,-6
74,69,83,1,80,9,2,9,0,0,1,-5
75,71,84,1,80,11,2,9,2,2,1,-4
76,72,85,1,105,0,1,9,3,3,1,-3
77,71,86,1,80,11,-1,9,2,2,-1,-4
78,69,87,1,80,9,-2,9,0,0,-1,-5
79,74,88,1,95,2,5,9,5,5,1,-4
80,71,89,1,80,11,-3,9,2,2,-1,-5
81,67,90,1,80,7,-4,9,-2,10,-1,-6
82,69,91,3,105,9,2,9,0,0,1,-5
83,69,94,2,95,9,0,9,0,0,0,-5
84,79,96,1,80,7,10,9,10,10,1,-4
85,81,97,3,105,9,2,9,12,0,1,-3
86,81,100,1,95,9,0,9,12,0,0,-3
87,83,101,1,80,11,2,9,14,2,1,-2
88,81,102,1,80,9,-2,9,12,0,-1,-3
89,79,103,3,105,7,-2,9,10,10,-1,-4
90,79,106,1,95,7,0,9,10,10,0,-4
91,78,107,1,80,6,-1,9,9,9,-1,-5
92,79,108,1,80,7,1,9,10,10,1,-4
93,81,109,3,105,9,2,9,12,0,1,-3
94,81,112,1,95,9,0,9,12,0,0,-3
95,83,113,1,80,11,2,9,14,2,1,-2
96,81,114,1,80,9,-2,9,12,0,-1,-3
97,79,115,1,105,7,-2,9,10,10,-1,-4
98,78,116,1,80,6,-1,9,9,9,-1,-5
99,79,117,1,80,7,1,9,10,10,1,-4
100,76,118,2,95,4,-3,9,7,7,-1,-5
101,74,120,1,80,2,-2,9,5,5,-1,-6
102,74,121,1,105,2,0,9,5,5,0,-6
103,76,122,1,80,4,2,9,7,7,1,-5
104,78,123,1,80,6,2,9,9,9,1,-4
105,79,124,1,95,7,1,9,10,10,1,-3
106,78,125,1,80,6,-1,9,9,9,-1,-4
107,76,126,1,80,4,-2,9,7,7,-1,-5
108,74,127,1,105,2,-2,9,5,5,-1,-6
109,71,128,1,80,11,-3,9,2,2,-1,-7
110,67,129,1,80,7,-4,9,-2,10,-1,-8
111,67,130,1,95,7,0,9,-2,10,0,-8
112,69,131,1,80,9,2,9,0,0,1,-7
113,71,132,1,80,11,2,9,2,2,1,-6
114,72,133,1,105,0,1,9,3,3,1,-5
115,71,134,1,80,11,-1,9,2,2,-1,-6
116,69,135,1,80,9,-2,9,0,0,-1,-7
117,74,136,1,95,2,5,9,5,5,1,-6
118,71,137,1,80,11,-3,9,2,2,-1,-7
119,67,138,1,80,7,-4,9,-2,10,-1,-8
120,69,139,3,105,9,2,9,0,0,1,-7
121,69,142,2,95,9,0,9,0,0,0,-7
122,79,144,1,80,7,10,9,10,10,1,-6
123,81,145,3,105,9,2,9,12,0,1,-5
124,81,148,1,95,9,0,9,12,0,0,-5
125,83,149,1,80,11,2,9,14,2,1,-4
126,81,150,1,80,9,-2,9,12,0,-1,-5
127,79,151,3,105,7,-2,9,10,10,-1,-6
128,79,154,1,95,7,0,9,10,10,0,-6
129,78,155,1,80,6,-1,9,9,9,-1,-7
130,79,156,1,80,7,1,9,10,10,1,-6
131,81,157,3,105,9,2,9,12,0,1,-5
132,81,160,1,95,9,0,9,12,0,0,-5
133,83,161,1,80,11,2,9,14,2,1,-4
134,81,162,1,80,9,-2,9,12,0,-1,-5
135,79,163,1,105,7,-2,9,10,10,-1,-6
136,78,164,1,80,6,-1,9,9,9,-1,-7
137,79,165,1,80,7,1,9,10,10,1,-6
138,76,166,2,95,4,-3,9,7,7,-1,-7
139,74,168,1,80,2,-2,9,5,5,-1,-8
140,74,169,1,105,2,0,9,5,5,0,-8
141,76,170,1,80,4,2,9,7,7,1,-7
142,78,171,1,80,6,2,9,9,9,1,-6
143,79,172,1,95,7,1,9,10,10,1,-5
144,78,173,1,80,6,-1,9,9,9,-1,-6
145,76,174,1,80,4,-2,9,7,7,-1,-7
146,74,175,1,105,2,-2,9,5,5,-1,-8
147,71,176,1,80,11,-3,9,2,2,-1,-9
148,67,177,1,80,7,-4,9,-2,10,-1,-10
149,67,178,1,95,7,0,9,-2,10,0,-10
150,69,179,1,80,9,2,9,0,0,1,-9
151,71,180,1,80,11,2,9,2,2,1,-8
152,72,181,1,105,0,1,9,3,3,1,-7
153,71,182,1,80,11,-1,9,2,2,-1,-8
154,69,183,1,80,9,-2,9,0,0,-1,-9
155,74,184,1,95,2,5,9,5,5,1,-8
156,71,185,1,80,11,-3,9,2,2,-1,-9
157,67,186,1,80,7,-4,9,-2,10,-1,-10
158,69,187,3,105,9,2,9,0,0,1,-9
159,69,190,2,95,9,0,9,0,0,0,-9
