,midi_note,onset,duration,velocity,pitch_class,interval,root,relative_pitch,relative_pitch_class,parsons_code,parsons_cumsum
0,67,0,1,105,7,0,7,0,0,0,0
1,64,1,1,80,4,-3,7,-3,9,-1,-1
2,62,2,1,105,2,-2,7,-5,7,-1,-2
3,64,3,1,80,4,2,7,-3,9,1,-1
4,67,4,1,80,7,3,7,0,0,1,0
5,69,5,1,80,9,2,7,2,2,1,1
6,71,6,1,95,11,2,7,4,4,1,2
7,67,7,1,80,7,-4,7,0,0,-1,1
8,67,8,1,80,7,0,7,0,0,0,1
9,69,9,1,80,9,2,7,2,2,1,2
10,71,10,1,105,11,2,7,4,4,1,3
11,67,11,1,80,7,-4,7,0,0,-1,2
12,67,12,1,80,7,0,7,0,0,0,2
13,71,13,1,80,11,4,7,4,4,1,3
14,69,14,1,95,9,-2,7,2,2,-1,2
15,64,15,1,80,4,-5,7,-3,9,-1,1
16,64,16,1,80,4,0,7,-3,9,0,1
17,67,17,1,80,7,3,7,0,0,1,2
18,62,18,1,105,2,-5,7,-5,7,-1,1
19,64,19,1,80,4,2,7,-3,9,1,2
20,67,20,1,80,7,3,7,0,0,1,3
21,69,21,1,80,9,2,7,2,2,1,4
22,71,22,1,95,11,2,7,4,4,1,5
23,67,23,1,80,7,-4,7,0,0,-1,4
24,67,24,1,80,7,0,7,0,0,0,4
25,71,25,1,80,11,4,7,4,4,1,5
26,72,26,1,105,0,1,7,5,5,1,6
27,69,27,1,80,9,-3,7,2,2,-1,5
28,71,28,1,80,11,2,7,4,4,1,6
29,67,29,1,80,7,-4,7,0,0,-1,5
30,64,30,1,95,4,-3,7,-3,9,-1,4
31,67,31,1,80,7,3,7,0,0,1,5
32,62,32,2,80,2,-5,7,-5,7,-1,4
33,62,34,1,105,2,0,7,-5,7,0,4
34,64,35,1,80,4,2,7,-3,9,1,5
35,67,36,1,80,7,3,7,0,0,1,6
36,69,37,1,80,9,2,7,2,2,1,7
37,71,38,1,95,11,2,7,4,4,1,8
38,67,39,1,80,7,-4,7,0,0,-1,7
39,67,40,1,80,7,0,7,0,0,0,7
40,69,41,1,80,9,2,7,2,2,1,8
41,71,42,1,105,11,2,7,4,4,1,9
42,67,43,1,80,7,-4,7,0,0,-1,8
43,67,44,1,80,7,0,7,0,0,0,8
44,71,45,1,80,11,4,7,4,4,1,9
45,69,46,1,95,9,-2,7,2,2,-1,8
46,64,47,1,80,4,-5,7,-3,9,-1,7
47,64,48,1,80,4,0,7,-3,9,0,7
48,67,49,1,80,7,3,7,0,0,1,8
49,62,50,1,105,2,-5,7,-5,7,-1,7
50,64,51,1,80,4,2,7,-3,9,1,8
51,67,52,1,80,7,3,7,0,0,1,9
52,69,53,1,80,9,2,7,2,2,1,10
53,71,54,1,95,11,2,7,4,4,1,11
54,67,55,1,80,7,-4,7,0,0,-1,10
55,67,56,1,80,7,0,7,0,0,0,10
56,71,57,1,80,11,4,7,4,4,1,11
57,74,58,1,105,2,3,7,7,7,1,12
58,71,59,1,80,11,-3,7,4,4,-1,11
59,72,60,1,80,0,1,7,5,5,1,12
60,69,61,1,80,9,-3,7,2,2,-1,11
61,71,62,1,95,11,2,7,4,4,1,12
62,67,63,1,80,7,-4,7,0,0,-1,11
63,67,64,2,80,7,0,7,0,0,0,11
64,71,66,1,105,11,4,7,4,4,1,12
65,74,67,1,80,2,3,7,7,7,1,13
66,74,68,1,80,2,0,7,7,7,0,13
67,79,69,1,80,7,5,7,12,0,1,14
68,76,70,1,95,4,-3,7,9,9,-1,13
69,72,71,1,80,0,-4,7,5,5,-1,12
70,72,72,1,80,0,0,7,5,5,0,12
71,76,73,1,80,4,4,7,9,9,1,13
72,74,74,1,105,2,-2,7,7,7,-1,12
73,71,75,1,80,11,-3,7,4,4,-1,11
74,71,76,1,80,11,0,7,4,4,0,11
75,74,77,1,80,2,3,7,7,7,1,12
76,76,78,1,95,4,2,7,9,9,1,13
77,69,79,1,80,9,-7,7,2,2,-1,12
78,69,80,1,80,9,0,7,2,2,0,12
79,72,81,1,80,0,3,7,5,5,1,13
80,71,82,1,105,11,-1,7,4,4,-1,12
81,74,83,1,80,2,3,7,7,7,1,13
82,74,84,1,80,2,0,7,7,7,0,13
83,79,85,1,80,7,5,7,12,0,1,14
84,76,86,1,95,4,-3,7,9,9,-1,13
85,72,87,1,80,0,-4,7,5,5,-1,12
86,72,88,1,80,0,0,7,5,5,0,12
87,76,89,1,80,4,4,7,9,9,1,13
88,79,90,1,105,7,3,7,12,0,1,14
89,74,91,1,80,2,-5,7,7,7,-1,13
90,71,92,1,80,11,-3,7,4,4,-1,12
91,67,93,1,80,7,-4,7,0,0,-1,11
92,69,94,1,95,9,2,7,2,2,1,12
93,67,95,1,80,7,-2,7,0,0,-1,11
94,64,96,1,80,4,-3,7,-3,9,-1,10
95,62,97,1,80,2,-2,7,-5,7,-1,9
96,71,98,1,105,11,9,7,4,4,1,10
97,74,99,1,80,2,3,7,7,7,1,11
98,74,100,1,80,2,0,7,7,7,0,11
99,79,101,1,80,7,5,7,12,0,1,12
100,76,102,1,95,4,-3,7,9,9,-1,11
101,72,103,1,80,0,-4,7,5,5,-1,10
102,72,104,1,80,0,0,7,5,5,0,10
103,76,105,1,80,4,4,7,9,9,1,11
104,74,106,1,105,2,-2,7,7,7,-1,10
105,71,107,1,80,11,-3,7,4,4,-1,9
106,67,108,1,80,7,-4,7,0,0,-1,8
107,71,109,1,80,11,4,7,4,4,1,9
108,72,110,1,95,0,1,7,5,5,1,10
109,69,111,1,80,9,-3,7,2,2,-1,9
110,69,112,1,80,9,0,7,2,2,0,9
111,66,113,1,80,6,-3,7,-1,11,-1,8
112,62,114,1,105,2,-4,7,-5,7,-1,7
113,64,115,1,80,4,2,7,-3,9,1,8
114,67,116,1,80,7,3,7,0,0,1,9
115,69,117,1,80,9,2,7,2,2,1,10
116,71,118,1,95,11,2,7,4,4,1,11
117,67,119,1,80,7,-4,7,0,0,-1,10
118,67,120,1,80,7,0,7,0,0,0,10
119,71,121,1,80,11,4,7,4,4,1,11
120,74,122,1,105,2,3,7,7,7,1,12
121,71,123,1,80,11,-3,7,4,4,-1,11
122,72,124,1,80,0,1,7,5,5,1,12
123,69,125,1,80,9,-3,7,2,2,-1,11
124,71,126,1,95,11,2,7,4,4,1,12
125,67,127,1,80,7,-4,7,0,0,-1,11
126,67,128,2,80,7,0,7,0,0,0,11
