,midi_note,onset,duration,velocity,pitch_class,interval,root,relative_pitch,relative_pitch_class,parsons_code,parsons_cumsum
0,74,0,0,105,2,0,2,12,0,0,0
1,71,0,0,80,11,-3,2,9,9,-1,-1
2,69,1,1,105,9,-2,2,7,7,-1,-2
3,71,2,1,80,11,2,2,9,9,1,-1
4,69,3,1,80,9,-2,2,7,7,-1,-2
5,62,4,1,95,2,-7,2,0,0,-1,-3
6,64,5,1,80,4,2,2,2,2,1,-2
7,62,6,1,80,2,-2,2,0,0,-1,-3
8,74,7,1,105,2,12,2,12,0,1,-2
9,73,8,1,80,1,-1,2,11,11,-1,-3
10,69,9,1,80,9,-4,2,7,7,-1,-4
11,69,10,1,95,9,0,2,7,7,0,-4
12,67,11,1,80,7,-2,2,5,5,-1,-5
13,64,12,1,80,4,-3,2,2,2,-1,-6
14,69,13,1,105,9,5,2,7,7,1,-5
15,71,14,1,80,11,2,2,9,9,1,-4
16,69,15,1,80,9,-2,2,7,7,-1,-5
17,69,16,1,95,9,0,2,7,7,0,-5
18,71,17,1,80,11,2,2,9,9,1,-4
19,73,18,1,80,1,2,2,11,11,1,-3
20,74,19,1,105,2,1,2,12,0,1,-2
21,69,20,1,80,9,-5,2,7,7,-1,-3
22,71,21,1,80,11,2,2,9,9,1,-2
23,73,22,1,95,1,2,2,11,11,1,-1
24,74,23,1,80,2,1,2,12,0,1,0
25,76,24,1,80,4,2,2,14,2,1,1
26,69,25,1,105,9,-7,2,7,7,-1,0
27,71,26,1,80,11,2,2,9,9,1,1
28,69,27,1,80,9,-2,2,7,7,-1,0
29,62,28,1,95,2,-7,2,0,0,-1,-1
30,64,29,1,80,4,2,2,2,2,1,0
31,62,30,1,80,2,-2,2,0,0,-1,-1
32,74,31,1,105,2,12,2,12,0,1,0
33,73,32,1,80,1,-1,2,11,11,-1,-1
34,69,33,1,80,9,-4,2,7,7,-1,-2
35,69,34,1,95,9,0,2,7,7,0,-2
36,67,35,1,80,7,-2,2,5,5,-1,-3
37,64,36,1,80,4,-3,2,2,2,-1,-4
38,67,37,1,105,7,3,2,5,5,1,-3
39,66,38,1,80,6,-1,2,4,4,-1,-4
40,67,39,1,80,7,1,2,5,5,1,-3
41,69,40,1,95,9,2,2,7,7,1,-2
42,74,41,1,80,2,5,2,12,0,1,-1
43,76,42,1,80,4,2,2,14,2,1,0
44,78,43,1,105,6,2,2,16,4,1,1
45,74,44,1,80,2,-4,2,12,0,-1,0
46,74,45,1,80,2,0,2,12,0,0,0
47,74,46,2,95,2,0,2,12,0,0,0
48,74,48,0,80,2,0,2,12,0,0,0
49,71,48,0,80,11,-3,2,9,9,-1,-1
50,69,49,1,105,9,-2,2,7,7,-1,-2
51,71,50,1,80,11,2,2,9,9,1,-1
52,69,51,1,80,9,-2,2,7,7,-1,-2
53,62,52,1,95,2,-7,2,0,0,-1,-3
54,64,53,1,80,4,2,2,2,2,1,-2
55,62,54,1,80,2,-2,2,0,0,-1,-3
56,74,55,1,105,2,12,2,12,0,1,-2
57,73,56,1,80,1,-1,2,11,11,-1,-3
58,69,57,1,80,9,-4,2,7,7,-1,-4
59,69,58,1,95,9,0,2,7,7,0,-4
60,67,59,1,80,7,-2,2,5,5,-1,-5
61,64,60,1,80,4,-3,2,2,2,-1,-6
62,69,61,1,105,9,5,2,7,7,1,-5
63,71,62,1,80,11,2,2,9,9,1,-4
64,69,63,1,80,9,-2,2,7,7,-1,-5
65,69,64,1,95,9,0,2,7,7,0,-5
66,71,65,1,80,11,2,2,9,9,1,-4
67,73,66,1,80,1,2,2,11,11,1,-3
68,74,67,1,105,2,1,2,12,0,1,-2
69,69,68,1,80,9,-5,2,7,7,-1,-3
70,71,69,1,80,11,2,2,9,9,1,-2
71,73,70,1,95,1,2,2,11,11,1,-1
72,74,71,1,80,2,1,2,12,0,1,0
73,76,72,1,80,4,2,2,14,2,1,1
74,69,73,1,105,9,-7,2,7,7,-1,0
75,71,74,1,80,11,2,2,9,9,1,1
76,69,75,1,80,9,-2,2,7,7,-1,0
77,62,76,1,95,2,-7,2,0,0,-1,-1
78,64,77,1,80,4,2,2,2,2,1,0
79,62,78,1,80,2,-2,2,0,0,-1,-1
80,74,79,1,105,2,12,2,12,0,1,0
81,73,80,1,80,1,-1,2,11,11,-1,-1
82,69,81,1,80,9,-4,2,7,7,-1,-2
83,69,82,1,95,9,0,2,7,7,0,-2
84,67,83,1,80,7,-2,2,5,5,-1,-3
85,64,84,1,80,4,-3,2,2,2,-1,-4
86,67,85,1,105,7,3,2,5,5,1,-3
87,66,86,1,80,6,-1,2,4,4,-1,-4
88,67,87,1,80,7,1,2,5,5,1,-3
89,69,88,1,95,9,2,2,7,7,1,-2
90,74,89,1,80,2,5,2,12,0,1,-1
91,76,90,1,80,4,2,2,14,2,1,0
92,78,91,1,105,6,2,2,16,4,1,1
93,74,92,1,80,2,-4,2,12,0,-1,0
94,74,93,1,80,2,0,2,12,0,0,0
95,74,94,2,95,2,0,2,12,0,0,0
96,79,96,1,80,7,5,2,17,5,1,1
97,78,97,1,105,6,-1,2,16,4,-1,0
98,76,98,1,80,4,-2,2,14,2,-1,-1
99,74,99,1,80,2,-2,2,12,0,-1,-2
100,76,100,1,95,4,2,2,14,2,1,-1
101,74,101,1,80,2,-2,2,12,0,-1,-2
102,73,102,1,80,1,-1,2,11,11,-1,-3
103,69,103,1,105,9,-4,2,7,7,-1,-4
104,74,104,1,80,2,5,2,12,0,1,-3
105,71,105,1,80,11,-3,2,9,9,-1,-4
106,73,106,1,95,1,2,2,11,11,1,-3
107,74,107,1,80,2,1,2,12,0,1,-2
108,76,108,1,80,4,2,2,14,2,1,-1
109,78,109,1,105,6,2,2,16,4,1,0
110,76,110,1,80,4,-2,2,14,2,-1,-1
111,74,111,1,80,2,-2,2,12,0,-1,-2
112,76,112,1,95,4,2,2,14,2,1,-1
113,74,113,1,80,2,-2,2,12,0,-1,-2
114,73,114,1,80,1,-1,2,11,11,-1,-3
115,69,115,1,105,9,-4,2,7,7,-1,-4
116,71,116,1,80,11,2,2,9,9,1,-3
117,73,117,1,80,1,2,2,11,11,1,-2
118,74,118,1,95,2,1,2,12,0,1,-1
119,76,119,1,80,4,2,2,14,2,1,0
120,78,120,1,80,6,2,2,16,4,1,1
121,79,121,3,105,7,1,2,17,5,1,2
122,81,124,1,95,9,2,2,19,7,1,3
123,79,125,1,80,7,-2,2,17,5,-1,2
124,76,126,1,80,4,-3,2,14,2,-1,1
125,74,127,1,105,2,-2,2,12,0,-1,0
126,73,128,1,80,1,-1,2,11,11,-1,-1
127,69,129,1,80,9,-4,2,7,7,-1,-2
128,69,130,1,95,9,0,2,7,7,0,-2
129,67,131,1,80,7,-2,2,5,5,-1,-3
130,64,132,1,80,4,-3,2,2,2,-1,-4
131,67,133,1,105,7,3,2,5,5,1,-3
132,66,134,1,80,6,-1,2,4,4,-1,-4
133,67,135,1,80,7,1,2,5,5,1,-3
134,69,136,1,95,9,2,2,7,7,1,-2
135,74,137,1,80,2,5,2,12,0,1,-1
136,76,138,1,80,4,2,2,14,2,1,0
137,78,139,1,105,6,2,2,16,4,1,1
138,74,140,1,80,2,-4,2,12,0,-1,0
139,74,141,1,80,2,0,2,12,0,0,0
140,74,142,2,95,2,0,2,12,0,0,0
141,79,144,1,80,7,5,2,17,5,1,1
142,78,145,1,105,6,-1,2,16,4,-1,0
143,76,146,1,80,4,-2,2,14,2,-1,-1
144,74,147,1,80,2,-2,2,12,0,-1,-2
145,76,148,1,95,4,2,2,14,2,1,-1
146,74,149,1,80,2,-2,2,12,0,-1,-2
147,73,150,1,80,1,-1,2,11,11,-1,-3
148,69,151,1,105,9,-4,2,7,7,-1,-4
149,74,152,1,80,2,5,2,12,0,1,-3
150,71,153,1,80,11,-3,2,9,9,-1,-4
151,73,154,1,95,1,2,2,11,11,1,-3
152,74,155,1,80,2,1,2,12,0,1,-2
153,76,156,1,80,4,2,2,14,2,1,-1
154,78,157,1,105,6,2,2,16,4,1,0
155,76,158,1,80,4,-2,2,14,2,-1,-1
156,74,159,1,80,2,-2,2,12,0,-1,-2
157,76,160,1,95,4,2,2,14,2,1,-1
158,74,161,1,80,2,-2,2,12,0,-1,-2
159,73,162,1,80,1,-1,2,11,11,-1,-3
160,69,163,1,105,9,-4,2,7,7,-1,-4
161,71,164,1,80,11,2,2,9,9,1,-3
162,73,165,1,80,1,2,2,11,11,1,-2
163,74,166,1,95,2,1,2,12,0,1,-1
164,76,167,1,80,4,2,2,14,2,1,0
165,78,168,1,80,6,2,2,16,4,1,1
166,79,169,3,105,7,1,2,17,5,1,2
167,81,172,1,95,9,2,2,19,7,1,3
168,79,173,1,80,7,-2,2,17,5,-1,2
169,76,174,1,80,4,-3,2,14,2,-1,1
170,74,175,1,105,2,-2,2,12,0,-1,0
171,73,176,1,80,1,-1,2,11,11,-1,-1
172,69,177,1,80,9,-4,2,7,7,-1,-2
173,69,178,1,95,9,0,2,7,7,0,-2
174,67,179,1,80,7,-2,2,5,5,-1,-3
175,64,180,1,80,4,-3,2,2,2,-1,-4
176,67,181,1,105,7,3,2,5,5,1,-3
177,66,182,1,80,6,-1,2,4,4,-1,-4
178,67,183,1,80,7,1,2,5,5,1,-3
179,69,184,1,95,9,2,2,7,7,1,-2
180,74,185,1,80,2,5,2,12,0,1,-1
181,76,186,1,80,4,2,2,14,2,1,0
182,78,187,1,105,6,2,2,16,4,1,1
183,74,188,1,80,2,-4,2,12,0,-1,0
184,74,189,1,80,2,0,2,12,0,0,0
185,74,190,2,95,2,0,2,12,0,0,0
