,midi_note,onset,duration,velocity,pitch_class,interval,root,relative_pitch,relative_pitch_class,parsons_code,parsons_cumsum
0,69,0,1,105,9,0,9,0,0,0,0
1,67,1,1,80,7,-2,9,-2,10,-1,-1
2,64,2,1,105,4,-3,9,-5,7,-1,-2
3,69,3,1,80,9,5,9,0,0,1,-1
4,69,4,1,80,9,0,9,0,0,0,-1
5,71,5,1,80,11,2,9,2,2,1,0
6,72,6,2,95,0,1,9,3,3,1,1
7,71,8,1,80,11,-1,9,2,2,-1,0
8,69,9,1,80,9,-2,9,0,0,-1,-1
9,71,10,1,105,11,2,9,2,2,1,0
10,69,11,1,80,9,-2,9,0,0,-1,-1
11,67,12,1,80,7,-2,9,-2,10,-1,-2
12,71,13,1,80,11,4,9,2,2,1,-1
13,74,14,1,95,2,3,9,5,5,1,0
14,71,15,1,80,11,-3,9,2,2,-1,-1
15,69,16,1,80,9,-2,9,0,0,-1,-2
16,67,17,1,80,7,-2,9,-2,10,-1,-3
17,64,18,1,105,4,-3,9,-5,7,-1,-4
18,69,19,1,80,9,5,9,0,0,1,-3
19,69,20,1,80,9,0,9,0,0,0,-3
20,71,21,1,80,11,2,9,2,2,1,-2
21,72,22,1,95,0,1,9,3,3,1,-1
22,71,23,1,80,11,-1,9,2,2,-1,-2
23,72,24,1,80,0,1,9,3,3,1,-1
24,74,25,1,80,2,2,9,5,5,1,0
25,79,26,1,105,7,5,9,10,10,1,1
26,76,27,1,80,4,-3,9,7,7,-1,0
27,74,28,1,80,2,-2,9,5,5,-1,-1
28,71,29,1,80,11,-3,9,2,2,-1,-2
29,72,30,0,95,0,1,9,3,3,1,-1
30,71,30,0,80,11,-1,9,2,2,-1,-2
31,69,31,0,80,9,-2,9,0,0,-1,-3
32,71,32,1,80,11,2,9,2,2,1,-2
33,67,33,1,80,7,-4,9,-2,10,-1,-3
34,64,34,1,105,4,-3,9,-5,7,-1,-4
35,69,35,1,80,9,5,9,0,0,1,-3
36,69,36,1,80,9,0,9,0,0,0,-3
37,71,37,1,80,11,2,9,2,2,1,-2
38,72,38,2,95,0,1,9,3,3,1,-1
39,71,40,1,80,11,-1,9,2,2,-1,-2
40,69,41,1,80,9,-2,9,0,0,-1,-3
41,71,42,1,105,11,2,9,2,2,1,-2
42,69,43,1,80,9,-2,9,0,0,-1,-3
43,67,44,1,80,7,-2,9,-2,10,-1,-4
44,71,45,1,80,11,4,9,2,2,1,-3
45,74,46,1,95,2,3,9,5,5,1,-2
46,71,47,1,80,11,-3,9,2,2,-1,-3
47,69,48,1,80,9,-2,9,0,0,-1,-4
48,67,49,1,80,7,-2,9,-2,10,-1,-5
49,64,50,1,105,4,-3,9,-5,7,-1,-6
50,69,51,1,80,9,5,9,0,0,1,-5
51,69,52,1,80,9,0,9,0,0,0,-5
52,71,53,1,80,11,2,9,2,2,1,-4
53,72,54,3,95,0,1,9,3,3,1,-3
54,69,57,1,80,9,-3,9,0,0,-1,-4
55,71,58,1,105,11,2,9,2,2,1,-3
56,74,59,1,80,2,3,9,5,5,1,-2
57,79,60,1,80,7,5,9,10,10,1,-1
58,71,61,1,80,11,-8,9,2,2,-1,-2
59,71,62,1,95,11,0,9,2,2,0,-2
60,69,63,1,80,9,-2,9,0,0,-1,-3
61,69,64,2,80,9,0,9,0,0,0,-3
62,81,66,2,105,9,12,9,12,0,1,-2
63,81,68,2,80,9,0,9,12,0,0,-2
64,81,70,1,95,9,0,9,12,0,0,-2
65,79,71,1,80,7,-2,9,10,10,-1,-3
66,76,72,1,80,4,-3,9,7,7,-1,-4
67,74,73,1,80,2,-2,9,5,5,-1,-5
68,71,74,0,105,11,-3,9,2,2,-1,-6
69,72,74,0,80,0,1,9,3,3,1,-5
70,74,75,0,80,2,2,9,5,5,1,-4
71,76,76,1,80,4,2,9,7,7,1,-3
72,78,77,1,80,6,2,9,9,9,1,-2
73,79,78,2,95,7,1,9,10,10,1,-1
74,76,80,1,80,4,-3,9,7,7,-1,-2
75,74,81,1,80,2,-2,9,5,5,-1,-3
76,76,82,1,105,4,2,9,7,7,1,-2
77,81,83,1,80,9,5,9,12,0,1,-1
78,81,84,1,80,9,0,9,12,0,0,-1
79,81,85,1,80,9,0,9,12,0,0,-1
80,81,86,1,95,9,0,9,12,0,0,-1
81,79,87,1,80,7,-2,9,10,10,-1,-2
82,76,88,1,80,4,-3,9,7,7,-1,-3
83,78,89,1,80,6,2,9,9,9,1,-2
84,79,90,1,105,7,1,9,10,10,1,-1
85,76,91,1,80,4,-3,9,7,7,-1,-2
86,74,92,1,80,2,-2,9,5,5,-1,-3
87,71,93,1,80,11,-3,9,2,2,-1,-4
88,71,94,1,95,11,0,9,2,2,0,-4
89,69,95,1,80,9,-2,9,0,0,-1,-5
90,69,96,2,80,9,0,9,0,0,0,-5
91,81,98,1,105,9,12,9,12,0,1,-4
92,79,99,1,80,7,-2,9,10,10,-1,-5
93,81,100,1,80,9,2,9,12,0,1,-4
94,83,101,1,80,11,2,9,14,2,1,-3
95,81,102,1,95,9,-2,9,12,0,-1,-4
96,79,103,1,80,7,-2,9,10,10,-1,-5
97,76,104,1,80,4,-3,9,7,7,-1,-6
98,74,105,1,80,2,-2,9,5,5,-1,-7
99,71,106,0,105,11,-3,9,2,2,-1,-8
100,72,106,0,80,0,1,9,3,3,1,-7
101,74,107,0,80,2,2,9,5,5,1,-6
102,76,108,1,80,4,2,9,7,7,1,-5
103,78,109,1,80,6,2,9,9,9,1,-4
104,79,110,2,95,7,1,9,10,10,1,-3
105,78,112,1,80,6,-1,9,9,9,-1,-4
106,79,113,1,80,7,1,9,10,10,1,-3
107,81,114,1,105,9,2,9,12,0,1,-2
108,78,115,1,80,6,-3,9,9,9,-1,-3
109,79,116,1,80,7,1,9,10,10,1,-2
110,76,117,1,80,4,-3,9,7,7,-1,-3
111,78,118,1,95,6,2,9,9,9,1,-2
112,74,119,1,80,2,-4,9,5,5,-1,-3
113,76,120,1,80,4,2,9,7,7,1,-2
114,78,121,1,80,6,2,9,9,9,1,-1
115,79,122,1,105,7,1,9,10,10,1,0
116,76,123,1,80,4,-3,9,7,7,-1,-1
117,74,124,1,80,2,-2,9,5,5,-1,-2
118,71,125,1,80,11,-3,9,2,2,-1,-3
119,71,126,1,95,11,0,9,2,2,0,-3
120,69,127,1,80,9,-2,9,0,0,-1,-4
121,69,128,1,80,9,0,9,0,0,0,-4
122,67,129,1,80,7,-2,9,-2,10,-1,-5
