,midi_note,onset,duration,velocity,pitch_class,interval,root,relative_pitch,relative_pitch_class,parsons_code,parsons_cumsum
0,76,0,1,105,4,0,9,7,7,0,0
1,69,1,1,80,9,-7,9,0,0,-1,-1
2,69,2,2,80,9,0,9,0,0,0,-1
3,76,4,1,95,4,7,9,7,7,1,0
4,79,5,1,80,7,3,9,10,10,1,1
5,78,6,1,80,6,-1,9,9,9,-1,0
6,74,7,1,80,2,-4,9,5,5,-1,-1
7,76,8,1,105,4,2,9,7,7,1,0
8,69,9,1,80,9,-7,9,0,0,-1,-1
9,69,10,2,80,9,0,9,0,0,0,-1
10,76,12,1,95,4,7,9,7,7,1,0
11,74,13,1,80,2,-2,9,5,5,-1,-1
12,71,14,1,80,11,-3,9,2,2,-1,-2
13,74,15,1,80,2,3,9,5,5,1,-1
14,76,16,1,105,4,2,9,7,7,1,0
15,69,17,1,80,9,-7,9,0,0,-1,-1
16,69,18,2,80,9,0,9,0,0,0,-1
17,76,20,1,95,4,7,9,7,7,1,0
18,79,21,1,80,7,3,9,10,10,1,1
19,78,22,1,80,6,-1,9,9,9,-1,0
20,81,23,1,80,9,3,9,12,0,1,1
21,79,24,1,105,7,-2,9,10,10,-1,0
22,76,25,1,80,4,-3,9,7,7,-1,-1
23,74,26,1,80,2,-2,9,5,5,-1,-2
24,71,27,1,80,11,-3,9,2,2,-1,-3
25,67,28,1,95,7,-4,9,-2,10,-1,-4
26,69,29,1,80,9,2,9,0,0,1,-3
27,71,30,1,80,11,2,9,2,2,1,-2
28,74,31,1,80,2,3,9,5,5,1,-1
29,76,32,1,105,4,2,9,7,7,1,0
30,69,33,1,80,9,-7,9,0,0,-1,-1
31,69,34,2,80,9,0,9,0,0,0,-1
32,76,36,1,95,4,7,9,7,7,1,0
33,79,37,1,80,7,3,9,10,10,1,1
34,78,38,1,80,6,-1,9,9,9,-1,0
35,79,39,1,80,7,1,9,10,10,1,1
36,76,40,1,105,4,-3,9,7,7,-1,0
37,69,41,1,80,9,-7,9,0,0,-1,-1
38,69,42,2,80,9,0,9,0,0,0,-1
39,76,44,1,95,4,7,9,7,7,1,0
40,74,45,1,80,2,-2,9,5,5,-1,-1
41,71,46,1,80,11,-3,9,2,2,-1,-2
42,74,47,1,80,2,3,9,5,5,1,-1
43,76,48,1,105,4,2,9,7,7,1,0
44,69,49,1,80,9,-7,9,0,0,-1,-1
45,69,50,2,80,9,0,9,0,0,0,-1
46,76,52,1,95,4,7,9,7,7,1,0
47,79,53,1,80,7,3,9,10,10,1,1
48,78,54,2,80,6,-1,9,9,9,-1,0
49,79,56,1,105,7,1,9,10,10,1,1
50,76,57,1,80,4,-3,9,7,7,-1,0
51,74,58,1,80,2,-2,9,5,5,-1,-1
52,71,59,1,80,11,-3,9,2,2,-1,-2
53,67,60,1,95,7,-4,9,-2,10,-1,-3
54,69,61,1,80,9,2,9,0,0,1,-2
55,71,62,1,80,11,2,9,2,2,1,-1
56,74,63,1,80,2,3,9,5,5,1,0
57,76,64,1,105,4,2,9,7,7,1,1
58,81,65,1,80,9,5,9,12,0,1,2
59,81,66,2,80,9,0,9,12,0,0,2
60,83,68,2,95,11,2,9,14,2,1,3
61,81,70,1,80,9,-2,9,12,0,-1,2
62,79,71,1,80,7,-2,9,10,10,-1,1
63,76,72,1,105,4,-3,9,7,7,-1,0
64,81,73,1,80,9,5,9,12,0,1,1
65,81,74,1,80,9,0,9,12,0,0,1
66,78,75,1,80,6,-3,9,9,9,-1,0
67,79,76,1,95,7,1,9,10,10,1,1
68,76,77,1,80,4,-3,9,7,7,-1,0
69,74,78,2,80,2,-2,9,5,5,-1,-1
70,76,80,1,105,4,2,9,7,7,1,0
71,81,81,1,80,9,5,9,12,0,1,1
72,81,82,2,80,9,0,9,12,0,0,1
73,83,84,2,95,11,2,9,14,2,1,2
74,81,86,1,80,9,-2,9,12,0,-1,1
75,79,87,1,80,7,-2,9,10,10,-1,0
76,76,88,1,105,4,-3,9,7,7,-1,-1
77,79,89,1,80,7,3,9,10,10,1,0
78,74,90,1,80,2,-5,9,5,5,-1,-1
79,71,91,1,80,11,-3,9,2,2,-1,-2
80,67,92,1,95,7,-4,9,-2,10,-1,-3
81,69,93,1,80,9,2,9,0,0,1,-2
82,71,94,1,80,11,2,9,2,2,1,-1
83,74,95,1,80,2,3,9,5,5,1,0
84,76,96,1,105,4,2,9,7,7,1,1
85,81,97,1,80,9,5,9,12,0,1,2
86,81,98,2,80,9,0,9,12,0,0,2
87,83,100,2,95,11,2,9,14,2,1,3
88,81,102,1,80,9,-2,9,12,0,-1,2
89,79,103,1,80,7,-2,9,10,10,-1,1
90,76,104,1,105,4,-3,9,7,7,-1,0
91,81,105,1,80,9,5,9,12,0,1,1
92,81,106,1,80,9,0,9,12,0,0,1
93,78,107,1,80,6,-3,9,9,9,-1,0
94,79,108,3,95,7,1,9,10,10,1,1
95,81,111,1,80,9,2,9,12,0,1,2
96,83,112,2,105,11,2,9,14,2,1,3
97,83,114,1,80,11,0,9,14,2,0,3
98,79,115,1,80,7,-4,9,10,10,-1,2
99,81,116,1,95,9,2,9,12,0,1,3
100,83,117,1,80,11,2,9,14,2,1,4
101,81,118,1,80,9,-2,9,12,0,-1,3
102,79,119,1,80,7,-2,9,10,10,-1,2
103,76,120,1,105,4,-3,9,7,7,-1,1
104,81,121,1,80,9,5,9,12,0,1,2
105,81,122,1,80,9,0,9,12,0,0,2
106,79,123,1,80,7,-2,9,10,10,-1,1
107,76,124,1,95,4,-3,9,7,7,-1,0
108,74,125,1,80,2,-2,9,5,5,-1,-1
109,71,126,0,80,11,-3,9,2,2,-1,-2
110,72,126,0,80,0,1,9,3,3,1,-1
111,74,127,0,80,2,2,9,5,5,1,0
