,midi_note,onset,duration,velocity,pitch_class,interval,root,relative_pitch,relative_pitch_class,parsons_code,parsons_cumsum
0,69,0,1,105,9,0,2,7,7,0,0
1,71,1,0,80,11,2,2,9,9,1,1
2,69,2,1,80,9,-2,2,7,7,-1,0
3,67,3,1,80,7,-2,2,5,5,-1,-1
4,62,4,2,105,2,-5,2,0,0,-1,-2
5,66,6,1,80,6,4,2,4,4,1,-1
6,62,7,1,80,2,-4,2,0,0,-1,-2
7,64,8,2,95,4,2,2,2,2,1,-1
8,62,10,1,80,2,-2,2,0,0,-1,-2
9,64,11,1,80,4,2,2,2,2,1,-1
10,66,12,2,105,6,2,2,4,4,1,0
11,62,14,1,80,2,-4,2,0,0,-1,-1
12,66,15,1,80,6,4,2,4,4,1,0
13,64,16,1,95,4,-2,2,2,2,-1,-1
14,66,17,1,80,6,2,2,4,4,1,0
15,67,18,1,80,7,1,2,5,5,1,1
16,64,19,1,80,4,-3,2,2,2,-1,0
17,66,20,2,105,6,2,2,4,4,1,1
18,62,22,1,80,2,-4,2,0,0,-1,0
19,66,23,1,80,6,4,2,4,4,1,1
20,64,24,2,95,4,-2,2,2,2,-1,0
21,62,26,1,80,2,-2,2,0,0,-1,-1
22,66,27,1,80,6,4,2,4,4,1,0
23,67,28,0,105,7,1,2,5,5,1,1
24,66,28,0,80,6,-1,2,4,4,-1,0
25,67,29,0,80,7,1,2,5,5,1,1
26,71,30,1,80,11,4,2,9,9,1,2
27,67,31,1,80,7,-4,2,5,5,-1,1
28,64,32,1,95,4,-3,2,2,2,-1,0
29,66,33,1,80,6,2,2,4,4,1,1
30,67,34,1,80,7,1,2,5,5,1,2
31,64,35,1,80,4,-3,2,2,2,-1,1
32,62,36,2,105,2,-2,2,0,0,-1,0
33,66,38,1,80,6,4,2,4,4,1,1
34,62,39,1,80,2,-4,2,0,0,-1,0
35,64,40,2,95,4,2,2,2,2,1,1
36,62,42,1,80,2,-2,2,0,0,-1,0
37,64,43,1,80,4,2,2,2,2,1,1
38,66,44,2,105,6,2,2,4,4,1,2
39,62,46,1,80,2,-4,2,0,0,-1,1
40,66,47,1,80,6,4,2,4,4,1,2
41,64,48,1,95,4,-2,2,2,2,-1,1
42,66,49,1,80,6,2,2,4,4,1,2
43,67,50,1,80,7,1,2,5,5,1,3
44,64,51,1,80,4,-3,2,2,2,-1,2
45,66,52,2,105,6,2,2,4,4,1,3
46,62,54,1,80,2,-4,2,0,0,-1,2
47,66,55,1,80,6,4,2,4,4,1,3
48,64,56,2,95,4,-2,2,2,2,-1,2
49,62,58,1,80,2,-2,2,0,0,-1,1
50,66,59,1,80,6,4,2,4,4,1,2
51,67,60,1,105,7,1,2,5,5,1,3
52,69,61,1,80,9,2,2,7,7,1,4
53,71,62,1,80,11,2,2,9,9,1,5
54,67,63,1,80,7,-4,2,5,5,-1,4
55,64,64,1,95,4,-3,2,2,2,-1,3
56,66,65,1,80,6,2,2,4,4,1,4
57,67,66,1,80,7,1,2,5,5,1,5
58,64,67,1,80,4,-3,2,2,2,-1,4
59,62,68,1,105,2,-2,2,0,0,-1,3
60,66,69,1,80,6,4,2,4,4,1,4
61,69,70,1,80,9,3,2,7,7,1,5
62,74,71,1,80,2,5,2,12,0,1,6
63,71,72,1,95,11,-3,2,9,9,-1,5
64,67,73,1,80,7,-4,2,5,5,-1,4
65,69,74,1,80,9,2,2,7,7,1,5
66,66,75,1,80,6,-3,2,4,4,-1,4
67,62,76,1,105,2,-4,2,0,0,-1,3
68,66,77,1,80,6,4,2,4,4,1,4
69,69,78,1,80,9,3,2,7,7,1,5
70,66,79,1,80,6,-3,2,4,4,-1,4
71,64,80,1,95,4,-2,2,2,2,-1,3
72,57,81,1,80,9,-7,2,-5,7,-1,2
73,61,82,1,80,1,4,2,-1,11,1,3
74,64,83,1,80,4,3,2,2,2,1,4
75,62,84,1,105,2,-2,2,0,0,-1,3
76,66,85,1,80,6,4,2,4,4,1,4
77,69,86,1,80,9,3,2,7,7,1,5
78,74,87,1,80,2,5,2,12,0,1,6
79,71,88,1,95,11,-3,2,9,9,-1,5
80,67,89,1,80,7,-4,2,5,5,-1,4
81,69,90,1,80,9,2,2,7,7,1,5
82,66,91,1,80,6,-3,2,4,4,-1,4
83,67,92,1,105,7,1,2,5,5,1,5
84,69,93,1,80,9,2,2,7,7,1,6
85,71,94,1,80,11,2,2,9,9,1,7
86,67,95,1,80,7,-4,2,5,5,-1,6
87,64,96,1,95,4,-3,2,2,2,-1,5
88,57,97,1,80,9,-7,2,-5,7,-1,4
89,61,98,1,80,1,4,2,-1,11,1,5
90,64,99,1,80,4,3,2,2,2,1,6
91,62,100,1,105,2,-2,2,0,0,-1,5
92,66,101,1,80,6,4,2,4,4,1,6
93,69,102,1,80,9,3,2,7,7,1,7
94,74,103,1,80,2,5,2,12,0,1,8
95,71,104,1,95,11,-3,2,9,9,-1,7
96,67,105,1,80,7,-4,2,5,5,-1,6
97,69,106,1,80,9,2,2,7,7,1,7
98,66,107,1,80,6,-3,2,4,4,-1,6
99,62,108,1,105,2,-4,2,0,0,-1,5
100,66,109,1,80,6,4,2,4,4,1,6
101,69,110,1,80,9,3,2,7,7,1,7
102,66,111,1,80,6,-3,2,4,4,-1,6
103,64,112,1,95,4,-2,2,2,2,-1,5
104,57,113,1,80,9,-7,2,-5,7,-1,4
105,61,114,1,80,1,4,2,-1,11,1,5
106,64,115,1,80,4,3,2,2,2,1,6
107,62,116,1,105,2,-2,2,0,0,-1,5
108,66,117,1,80,6,4,2,4,4,1,6
109,69,118,1,80,9,3,2,7,7,1,7
110,74,119,1,80,2,5,2,12,0,1,8
111,71,120,1,95,11,-3,2,9,9,-1,7
112,67,121,1,80,7,-4,2,5,5,-1,6
113,69,122,1,80,9,2,2,7,7,1,7
114,66,123,1,80,6,-3,2,4,4,-1,6
115,67,124,1,105,7,1,2,5,5,1,7
116,69,125,1,80,9,2,2,7,7,1,8
117,71,126,1,80,11,2,2,9,9,1,9
118,67,127,1,80,7,-4,2,5,5,-1,8
119,64,128,1,95,4,-3,2,2,2,-1,7
120,66,129,1,80,6,2,2,4,4,1,8
121,67,130,1,80,7,1,2,5,5,1,9
122,67,131,1,105,7,0,2,5,5,0,9
123,71,132,1,80,11,4,2,9,9,1,10
124,69,133,1,80,9,-2,2,7,7,-1,9
125,73,134,1,80,1,4,2,11,11,1,10
126,74,135,8,95,2,1,2,12,0,1,11
127,79,147,1,105,7,5,2,17,5,1,12
128,78,148,1,105,6,-1,2,16,4,-1,11
129,79,149,1,80,7,1,2,17,5,1,12
130,78,150,1,80,6,-1,2,16,4,-1,11
131,76,151,1,80,4,-2,2,14,2,-1,10
132,74,152,1,95,2,-2,2,12,0,-1,9
133,73,153,1,80,1,-1,2,11,11,-1,8
134,74,154,1,80,2,1,2,12,0,1,9
135,71,155,1,80,11,-3,2,9,9,-1,8
136,69,156,1,105,9,-2,2,7,7,-1,7
137,66,157,1,80,6,-3,2,4,4,-1,6
138,62,158,1,80,2,-4,2,0,0,-1,5
139,66,159,1,80,6,4,2,4,4,1,6
140,69,160,1,95,9,3,2,7,7,1,7
141,66,161,1,80,6,-3,2,4,4,-1,6
142,62,162,1,80,2,-4,2,0,0,-1,5
143,73,163,1,80,1,11,2,11,11,1,6
144,71,164,1,105,11,-2,2,9,9,-1,5
145,67,165,1,80,7,-4,2,5,5,-1,4
146,71,166,1,80,11,4,2,9,9,1,5
147,74,167,1,80,2,3,2,12,0,1,6
148,72,168,1,95,0,-2,2,10,10,-1,5
149,71,169,1,80,11,-1,2,9,9,-1,4
150,72,170,1,80,0,1,2,10,10,1,5
151,67,171,1,80,7,-5,2,5,5,-1,4
152,64,172,1,105,4,-3,2,2,2,-1,3
153,62,173,1,80,2,-2,2,0,0,-1,2
154,60,174,1,80,0,-2,2,-2,10,-1,1
155,62,175,1,80,2,2,2,0,0,1,2
156,64,176,1,95,4,2,2,2,2,1,3
157,66,177,1,80,6,2,2,4,4,1,4
158,67,178,1,80,7,1,2,5,5,1,5
159,79,179,1,80,7,12,2,17,5,1,6
160,78,180,1,105,6,-1,2,16,4,-1,5
161,79,181,1,80,7,1,2,17,5,1,6
162,78,182,1,80,6,-1,2,16,4,-1,5
163,76,183,1,80,4,-2,2,14,2,-1,4
164,74,184,1,95,2,-2,2,12,0,-1,3
165,73,185,1,80,1,-1,2,11,11,-1,2
166,74,186,1,80,2,1,2,12,0,1,3
167,71,187,1,80,11,-3,2,9,9,-1,2
168,69,188,1,105,9,-2,2,7,7,-1,1
169,66,189,1,80,6,-3,2,4,4,-1,0
170,62,190,1,80,2,-4,2,0,0,-1,-1
171,66,191,1,80,6,4,2,4,4,1,0
172,69,192,1,95,9,3,2,7,7,1,1
173,66,193,1,80,6,-3,2,4,4,-1,0
174,62,194,1,80,2,-4,2,0,0,-1,-1
175,73,195,1,80,1,11,2,11,11,1,0
176,71,196,1,105,11,-2,2,9,9,-1,-1
177,67,197,1,80,7,-4,2,5,5,-1,-2
178,71,198,1,80,11,4,2,9,9,1,-1
179,74,199,1,80,2,3,2,12,0,1,0
180,72,200,1,95,0,-2,2,10,10,-1,-1
181,71,201,1,80,11,-1,2,9,9,-1,-2
182,69,202,1,80,9,-2,2,7,7,-1,-3
183,67,203,1,80,7,-2,2,5,5,-1,-4
184,64,204,1,105,4,-3,2,2,2,-1,-5
185,62,205,1,80,2,-2,2,0,0,-1,-6
186,60,206,1,80,0,-2,2,-2,10,-1,-7
187,62,207,1,80,2,2,2,0,0,1,-6
188,64,208,1,95,4,2,2,2,2,1,-5
189,66,209,1,80,6,2,2,4,4,1,-4
190,67,210,1,80,7,1,2,5,5,1,-3
191,64,211,1,80,4,-3,2,2,2,-1,-4
192,60,212,1,95,0,-4,2,-2,10,-1,-5
193,64,213,1,80,4,4,2,2,2,1,-4
194,66,214,1,80,6,2,2,4,4,1,-3
195,67,215,1,80,7,1,2,5,5,1,-2
196,71,216,1,95,11,4,2,9,9,1,-1
197,69,217,1,80,9,-2,2,7,7,-1,-2
198,67,218,1,80,7,-2,2,5,5,-1,-3
199,79,219,1,105,7,12,2,17,5,1,-2
200,78,220,2,105,6,-1,2,16,4,-1,-3
201,74,222,1,80,2,-4,2,12,0,-1,-4
202,78,223,1,80,6,4,2,16,4,1,-3
203,76,224,2,95,4,-2,2,14,2,-1,-4
204,74,226,1,80,2,-2,2,12,0,-1,-5
205,79,227,1,80,7,5,2,17,5,1,-4
206,78,228,2,105,6,-1,2,16,4,-1,-5
207,74,230,1,80,2,-4,2,12,0,-1,-6
208,78,231,1,80,6,4,2,16,4,1,-5
209,76,232,1,95,4,-2,2,14,2,-1,-6
210,78,233,1,80,6,2,2,16,4,1,-5
211,79,234,1,80,7,1,2,17,5,1,-4
212,76,235,1,80,4,-3,2,14,2,-1,-5
213,78,236,2,105,6,2,2,16,4,1,-4
214,74,238,1,80,2,-4,2,12,0,-1,-5
215,78,239,1,80,6,4,2,16,4,1,-4
216,76,240,1,95,4,-2,2,14,2,-1,-5
217,78,241,1,80,6,2,2,16,4,1,-4
218,74,242,1,80,2,-4,2,12,0,-1,-5
219,78,243,1,80,6,4,2,16,4,1,-4
220,79,244,2,105,7,1,2,17,5,1,-3
221,83,246,1,80,11,4,2,21,9,1,-2
222,79,247,1,80,7,-4,2,17,5,-1,-3
223,76,248,1,95,4,-3,2,14,2,-1,-4
224,78,249,1,80,6,2,2,16,4,1,-3
225,79,250,1,80,7,1,2,17,5,1,-2
226,76,251,1,80,4,-3,2,14,2,-1,-3
227,78,252,2,105,6,2,2,16,4,1,-2
228,74,254,1,80,2,-4,2,12,0,-1,-3
229,78,255,1,80,6,4,2,16,4,1,-2
230,76,256,1,95,4,-2,2,14,2,-1,-3
231,78,257,1,80,6,2,2,16,4,1,-2
232,74,258,1,80,2,-4,2,12,0,-1,-3
233,78,259,1,80,6,4,2,16,4,1,-2
234,76,260,1,105,4,-2,2,14,2,-1,-3
235,78,261,1,80,6,2,2,16,4,1,-2
236,74,262,1,80,2,-4,2,12,0,-1,-3
237,78,263,1,80,6,4,2,16,4,1,-2
238,76,264,1,95,4,-2,2,14,2,-1,-3
239,78,265,1,80,6,2,2,16,4,1,-2
240,79,266,1,80,7,1,2,17,5,1,-1
241,76,267,1,80,4,-3,2,14,2,-1,-2
242,78,268,2,105,6,2,2,16,4,1,-1
243,74,270,1,80,2,-4,2,12,0,-1,-2
244,78,271,1,80,6,4,2,16,4,1,-1
245,76,272,0,95,4,-2,2,14,2,-1,-2
246,78,272,0,80,6,2,2,16,4,1,-1
247,76,273,0,80,4,-2,2,14,2,-1,-2
248,74,274,1,80,2,-2,2,12,0,-1,-3
249,78,275,1,80,6,4,2,16,4,1,-2
250,79,276,0,105,7,1,2,17,5,1,-1
251,78,276,0,80,6,-1,2,16,4,-1,-2
252,79,277,0,80,7,1,2,17,5,1,-1
253,83,278,1,80,11,4,2,21,9,1,0
254,79,279,1,80,7,-4,2,17,5,-1,-1
255,76,280,1,95,4,-3,2,14,2,-1,-2
256,78,281,1,80,6,2,2,16,4,1,-1
257,79,282,1,80,7,1,2,17,5,1,0
258,76,283,1,80,4,-3,2,14,2,-1,-1
259,74,284,1,105,2,-2,2,12,0,-1,-2
260,78,285,1,80,6,4,2,16,4,1,-1
261,81,286,1,80,9,3,2,19,7,1,0
262,79,287,1,80,7,-2,2,17,5,-1,-1
263,83,288,1,95,11,4,2,21,9,1,0
264,79,289,1,80,7,-4,2,17,5,-1,-1
265,81,290,1,80,9,2,2,19,7,1,0
266,78,291,1,80,6,-3,2,16,4,-1,-1
267,74,292,1,105,2,-4,2,12,0,-1,-2
268,78,293,1,80,6,4,2,16,4,1,-1
269,81,294,1,80,9,3,2,19,7,1,0
270,78,295,1,80,6,-3,2,16,4,-1,-1
271,76,296,1,95,4,-2,2,14,2,-1,-2
272,69,297,1,80,9,-7,2,7,7,-1,-3
273,73,298,1,80,1,4,2,11,11,1,-2
274,76,299,1,80,4,3,2,14,2,1,-1
275,74,300,1,105,2,-2,2,12,0,-1,-2
276,78,301,1,80,6,4,2,16,4,1,-1
277,81,302,1,80,9,3,2,19,7,1,0
278,79,303,1,80,7,-2,2,17,5,-1,-1
279,83,304,1,95,11,4,2,21,9,1,0
280,79,305,1,80,7,-4,2,17,5,-1,-1
281,81,306,1,80,9,2,2,19,7,1,0
282,78,307,1,80,6,-3,2,16,4,-1,-1
283,79,308,0,105,7,1,2,17,5,1,0
284,78,308,0,80,6,-1,2,16,4,-1,-1
285,79,309,0,80,7,1,2,17,5,1,0
286,83,310,1,80,11,4,2,21,9,1,1
287,79,311,1,80,7,-4,2,17,5,-1,0
288,76,312,1,95,4,-3,2,14,2,-1,-1
289,69,313,1,80,9,-7,2,7,7,-1,-2
290,73,314,1,80,1,4,2,11,11,1,-1
291,76,315,1,80,4,3,2,14,2,1,0
292,74,316,1,105,2,-2,2,12,0,-1,-1
293,78,317,1,80,6,4,2,16,4,1,0
294,81,318,1,80,9,3,2,19,7,1,1
295,79,319,1,80,7,-2,2,17,5,-1,0
296,83,320,1,95,11,4,2,21,9,1,1
297,79,321,1,80,7,-4,2,17,5,-1,0
298,81,322,1,80,9,2,2,19,7,1,1
299,78,323,1,80,6,-3,2,16,4,-1,0
300,74,324,1,105,2,-4,2,12,0,-1,-1
301,78,325,1,80,6,4,2,16,4,1,0
302,81,326,1,80,9,3,2,19,7,1,1
303,78,327,1,80,6,-3,2,16,4,-1,0
304,76,328,1,95,4,-2,2,14,2,-1,-1
305,69,329,1,80,9,-7,2,7,7,-1,-2
306,73,330,1,80,1,4,2,11,11,1,-1
307,76,331,1,80,4,3,2,14,2,1,0
308,74,332,1,105,2,-2,2,12,0,-1,-1
309,78,333,1,80,6,4,2,16,4,1,0
310,81,334,1,80,9,3,2,19,7,1,1
311,79,335,1,80,7,-2,2,17,5,-1,0
312,83,336,1,95,11,4,2,21,9,1,1
313,79,337,1,80,7,-4,2,17,5,-1,0
314,81,338,1,80,9,2,2,19,7,1,1
315,78,339,1,80,6,-3,2,16,4,-1,0
316,79,340,2,105,7,1,2,17,5,1,1
317,83,342,1,80,11,4,2,21,9,1,2
318,79,343,1,80,7,-4,2,17,5,-1,1
319,76,344,1,95,4,-3,2,14,2,-1,0
320,78,345,1,80,6,2,2,16,4,1,1
321,79,346,1,80,7,1,2,17,5,1,2
322,76,347,1,80,4,-3,2,14,2,-1,1
