,midi_note,onset,duration,velocity,pitch_class,interval,root,relative_pitch,relative_pitch_class,parsons_code,parsons_cumsum
0,64,0,1,105,4,0,7,-3,9,0,0
1,62,1,3,105,2,-2,7,-5,7,-1,-1
2,71,4,1,80,11,9,7,4,4,1,0
3,71,5,1,95,11,0,7,4,4,0,0
4,69,6,1,80,9,-2,7,2,2,-1,-1
5,67,7,1,80,7,-2,7,0,0,-1,-2
6,64,8,1,80,4,-3,7,-3,9,-1,-3
7,62,9,1,105,2,-2,7,-5,7,-1,-4
8,67,10,1,80,7,5,7,0,0,1,-3
9,64,11,1,80,4,-3,7,-3,9,-1,-4
10,67,12,1,80,7,3,7,0,0,1,-3
11,69,13,3,95,9,2,7,2,2,1,-2
12,71,16,1,80,11,2,7,4,4,1,-1
13,62,17,3,105,2,-9,7,-5,7,-1,-2
14,71,20,1,80,11,9,7,4,4,1,-1
15,69,21,1,95,9,-2,7,2,2,-1,-2
16,67,22,1,80,7,-2,7,0,0,-1,-3
17,64,23,1,80,4,-3,7,-3,9,-1,-4
18,67,24,1,80,7,3,7,0,0,1,-3
19,71,25,1,105,11,4,7,4,4,1,-2
20,72,26,1,80,0,1,7,5,5,1,-1
21,69,27,1,80,9,-3,7,2,2,-1,-2
22,71,28,1,80,11,2,7,4,4,1,-1
23,67,29,1,95,7,-4,7,0,0,-1,-2
24,69,30,1,80,9,2,7,2,2,1,-1
25,71,31,1,80,11,2,7,4,4,1,0
26,67,32,1,80,7,-4,7,0,0,-1,-1
27,62,33,3,105,2,-5,7,-5,7,-1,-2
28,71,36,1,80,11,9,7,4,4,1,-1
29,71,37,1,95,11,0,7,4,4,0,-1
30,69,38,1,80,9,-2,7,2,2,-1,-2
31,67,39,1,80,7,-2,7,0,0,-1,-3
32,64,40,1,80,4,-3,7,-3,9,-1,-4
33,62,41,1,105,2,-2,7,-5,7,-1,-5
34,67,42,1,80,7,5,7,0,0,1,-4
35,64,43,1,80,4,-3,7,-3,9,-1,-5
36,67,44,1,80,7,3,7,0,0,1,-4
37,69,45,3,95,9,2,7,2,2,1,-3
38,71,48,1,80,11,2,7,4,4,1,-2
39,62,49,3,105,2,-9,7,-5,7,-1,-3
40,71,52,1,80,11,9,7,4,4,1,-2
41,69,53,1,95,9,-2,7,2,2,-1,-3
42,67,54,1,80,7,-2,7,0,0,-1,-4
43,64,55,1,80,4,-3,7,-3,9,-1,-5
44,67,56,1,80,7,3,7,0,0,1,-4
45,71,57,0,105,11,4,7,4,4,1,-3
46,72,57,0,80,0,1,7,5,5,1,-2
47,74,58,0,80,2,2,7,7,7,1,-1
48,69,59,1,80,9,-5,7,2,2,-1,-2
49,71,60,1,80,11,2,7,4,4,1,-1
50,67,61,3,95,7,-4,7,0,0,-1,-2
51,69,64,1,80,9,2,7,2,2,1,-1
52,71,65,1,105,11,2,7,4,4,1,0
53,69,66,1,80,9,-2,7,2,2,-1,-1
54,67,67,1,80,7,-2,7,0,0,-1,-2
55,71,68,1,80,11,4,7,4,4,1,-1
56,69,69,1,95,9,-2,7,2,2,-1,-2
57,67,70,1,80,7,-2,7,0,0,-1,-3
58,64,71,1,80,4,-3,7,-3,9,-1,-4
59,67,72,1,80,7,3,7,0,0,1,-3
60,71,73,1,105,11,4,7,4,4,1,-2
61,69,74,1,80,9,-2,7,2,2,-1,-3
62,67,75,1,80,7,-2,7,0,0,-1,-4
63,71,76,1,80,11,4,7,4,4,1,-3
64,74,77,3,95,2,3,7,7,7,1,-2
65,72,80,1,80,0,-2,7,5,5,-1,-3
66,71,81,1,105,11,-1,7,4,4,-1,-4
67,69,82,1,80,9,-2,7,2,2,-1,-5
68,67,83,1,80,7,-2,7,0,0,-1,-6
69,71,84,1,80,11,4,7,4,4,1,-5
70,69,85,1,95,9,-2,7,2,2,-1,-6
71,67,86,1,80,7,-2,7,0,0,-1,-7
72,64,87,1,80,4,-3,7,-3,9,-1,-8
73,67,88,1,80,7,3,7,0,0,1,-7
74,71,89,1,105,11,4,7,4,4,1,-6
75,72,90,1,80,0,1,7,5,5,1,-5
76,69,91,1,80,9,-3,7,2,2,-1,-6
77,71,92,1,80,11,2,7,4,4,1,-5
78,67,93,1,95,7,-4,7,0,0,-1,-6
79,66,94,1,80,6,-1,7,-1,11,-1,-7
80,67,95,1,80,7,1,7,0,0,1,-6
81,69,96,1,80,9,2,7,2,2,1,-5
82,71,97,1,105,11,2,7,4,4,1,-4
83,69,98,1,80,9,-2,7,2,2,-1,-5
84,67,99,1,80,7,-2,7,0,0,-1,-6
85,71,100,1,80,11,4,7,4,4,1,-5
86,69,101,1,95,9,-2,7,2,2,-1,-6
87,67,102,1,80,7,-2,7,0,0,-1,-7
88,64,103,1,80,4,-3,7,-3,9,-1,-8
89,67,104,1,80,7,3,7,0,0,1,-7
90,71,105,1,105,11,4,7,4,4,1,-6
91,69,106,1,80,9,-2,7,2,2,-1,-7
92,67,107,1,80,7,-2,7,0,0,-1,-8
93,71,108,1,80,11,4,7,4,4,1,-7
94,74,109,3,95,2,3,7,7,7,1,-6
95,71,112,1,80,11,-3,7,4,4,-1,-7
96,72,113,1,105,0,1,7,5,5,1,-6
97,74,114,1,80,2,2,7,7,7,1,-5
98,72,115,1,80,0,-2,7,5,5,-1,-6
99,69,116,1,80,9,-3,7,2,2,-1,-7
100,71,117,1,95,11,2,7,4,4,1,-6
101,72,118,1,80,0,1,7,5,5,1,-5
102,71,119,1,80,11,-1,7,4,4,-1,-6
103,69,120,1,80,9,-2,7,2,2,-1,-7
104,67,121,1,105,7,-2,7,0,0,-1,-8
105,64,122,1,80,4,-3,7,-3,9,-1,-9
106,62,123,1,80,2,-2,7,-5,7,-1,-10
107,64,124,1,80,4,2,7,-3,9,1,-9
108,67,125,4,95,7,3,7,0,0,1,-8
