,midi_note,onset,duration,velocity,pitch_class,interval,root,relative_pitch,relative_pitch_class,parsons_code,parsons_cumsum
0,74,0,1,105,2,0,2,12,0,0,0
1,71,1,0,80,11,-3,2,9,9,-1,-1
2,69,2,1,105,9,-2,2,7,7,-1,-2
3,66,3,0,80,6,-3,2,4,4,-1,-3
4,64,4,1,80,4,-2,2,2,2,-1,-4
5,67,5,0,80,7,3,2,5,5,1,-3
6,66,6,1,95,6,-1,2,4,4,-1,-4
7,62,7,0,80,2,-4,2,0,0,-1,-5
8,64,8,1,80,4,2,2,2,2,1,-4
9,66,9,0,80,6,2,2,4,4,1,-3
10,62,10,2,105,2,-4,2,0,0,-1,-4
11,66,12,1,80,6,4,2,4,4,1,-3
12,69,13,0,80,9,3,2,7,7,1,-2
13,74,14,1,95,2,5,2,12,0,1,-1
14,78,15,0,80,6,4,2,16,4,1,0
15,76,16,1,80,4,-2,2,14,2,-1,-1
16,73,17,0,80,1,-3,2,11,11,-1,-2
17,74,18,1,105,2,1,2,12,0,1,-1
18,73,19,0,80,1,-1,2,11,11,-1,-2
19,71,20,1,80,11,-2,2,9,9,-1,-3
20,69,21,0,80,9,-2,2,7,7,-1,-4
21,66,22,1,95,6,-3,2,4,4,-1,-5
22,69,23,0,80,9,3,2,7,7,1,-4
23,71,24,1,80,11,2,2,9,9,1,-3
24,73,25,0,80,1,2,2,11,11,1,-2
25,74,26,1,105,2,1,2,12,0,1,-1
26,71,27,0,80,11,-3,2,9,9,-1,-2
27,69,28,1,80,9,-2,2,7,7,-1,-3
28,66,29,0,80,6,-3,2,4,4,-1,-4
29,64,30,2,95,4,-2,2,2,2,-1,-5
30,74,32,1,80,2,10,2,12,0,1,-4
31,71,33,0,80,11,-3,2,9,9,-1,-5
32,69,34,1,105,9,-2,2,7,7,-1,-6
33,66,35,0,80,6,-3,2,4,4,-1,-7
34,64,36,1,80,4,-2,2,2,2,-1,-8
35,67,37,0,80,7,3,2,5,5,1,-7
36,66,38,1,95,6,-1,2,4,4,-1,-8
37,62,39,0,80,2,-4,2,0,0,-1,-9
38,64,40,1,80,4,2,2,2,2,1,-8
39,66,41,0,80,6,2,2,4,4,1,-7
40,62,42,2,105,2,-4,2,0,0,-1,-8
41,66,44,1,80,6,4,2,4,4,1,-7
42,69,45,0,80,9,3,2,7,7,1,-6
43,74,46,1,95,2,5,2,12,0,1,-5
44,78,47,0,80,6,4,2,16,4,1,-4
45,76,48,1,80,4,-2,2,14,2,-1,-5
46,73,49,0,80,1,-3,2,11,11,-1,-6
47,74,50,1,105,2,1,2,12,0,1,-5
48,73,51,0,80,1,-1,2,11,11,-1,-6
49,71,52,1,80,11,-2,2,9,9,-1,-7
50,69,53,0,80,9,-2,2,7,7,-1,-8
51,66,54,1,95,6,-3,2,4,4,-1,-9
52,62,55,0,80,2,-4,2,0,0,-1,-10
53,64,56,1,80,4,2,2,2,2,1,-9
54,66,57,0,80,6,2,2,4,4,1,-8
55,62,58,2,105,2,-4,2,0,0,-1,-9
56,62,60,2,80,2,0,2,0,0,0,-9
57,62,62,2,95,2,0,2,0,0,0,-9
58,74,64,1,80,2,12,2,12,0,1,-8
59,71,65,0,80,11,-3,2,9,9,-1,-9
60,69,66,1,105,9,-2,2,7,7,-1,-10
61,66,67,0,80,6,-3,2,4,4,-1,-11
62,64,68,1,80,4,-2,2,2,2,-1,-12
63,67,69,0,80,7,3,2,5,5,1,-11
64,66,70,1,95,6,-1,2,4,4,-1,-12
65,62,71,0,80,2,-4,2,0,0,-1,-13
66,64,72,1,80,4,2,2,2,2,1,-12
67,66,73,0,80,6,2,2,4,4,1,-11
68,62,74,2,105,2,-4,2,0,0,-1,-12
69,66,76,1,80,6,4,2,4,4,1,-11
70,69,77,0,80,9,3,2,7,7,1,-10
71,74,78,1,95,2,5,2,12,0,1,-9
72,78,79,0,80,6,4,2,16,4,1,-8
73,76,80,1,80,4,-2,2,14,2,-1,-9
74,73,81,0,80,1,-3,2,11,11,-1,-10
75,74,82,1,105,2,1,2,12,0,1,-9
76,73,83,0,80,1,-1,2,11,11,-1,-10
77,71,84,1,80,11,-2,2,9,9,-1,-11
78,69,85,0,80,9,-2,2,7,7,-1,-12
79,66,86,1,95,6,-3,2,4,4,-1,-13
80,69,87,0,80,9,3,2,7,7,1,-12
81,71,88,1,80,11,2,2,9,9,1,-11
82,73,89,0,80,1,2,2,11,11,1,-10
83,74,90,1,105,2,1,2,12,0,1,-9
84,71,91,0,80,11,-3,2,9,9,-1,-10
85,69,92,1,80,9,-2,2,7,7,-1,-11
86,66,93,0,80,6,-3,2,4,4,-1,-12
87,64,94,2,95,4,-2,2,2,2,-1,-13
88,74,96,1,80,2,10,2,12,0,1,-12
89,71,97,0,80,11,-3,2,9,9,-1,-13
90,69,98,1,105,9,-2,2,7,7,-1,-14
91,66,99,0,80,6,-3,2,4,4,-1,-15
92,64,100,1,80,4,-2,2,2,2,-1,-16
93,67,101,0,80,7,3,2,5,5,1,-15
94,66,102,1,95,6,-1,2,4,4,-1,-16
95,62,103,0,80,2,-4,2,0,0,-1,-17
96,64,104,1,80,4,2,2,2,2,1,-16
97,66,105,0,80,6,2,2,4,4,1,-15
98,62,106,2,105,2,-4,2,0,0,-1,-16
99,66,108,1,80,6,4,2,4,4,1,-15
100,69,109,0,80,9,3,2,7,7,1,-14
101,74,110,1,95,2,5,2,12,0,1,-13
102,78,111,0,80,6,4,2,16,4,1,-12
103,76,112,1,80,4,-2,2,14,2,-1,-13
104,73,113,0,80,1,-3,2,11,11,-1,-14
105,74,114,1,105,2,1,2,12,0,1,-13
106,73,115,0,80,1,-1,2,11,11,-1,-14
107,71,116,1,80,11,-2,2,9,9,-1,-15
108,69,117,0,80,9,-2,2,7,7,-1,-16
109,66,118,1,95,6,-3,2,4,4,-1,-17
110,62,119,0,80,2,-4,2,0,0,-1,-18
111,64,120,1,80,4,2,2,2,2,1,-17
112,66,121,0,80,6,2,2,4,4,1,-16
113,62,122,2,105,2,-4,2,0,0,-1,-17
114,62,124,2,80,2,0,2,0,0,0,-17
115,62,126,2,95,2,0,2,0,0,0,-17
116,69,128,0,80,9,7,2,7,7,1,-16
117,71,128,0,80,11,2,2,9,9,1,-15
118,73,129,0,80,1,2,2,11,11,1,-14
119,74,130,1,105,2,1,2,12,0,1,-13
120,78,131,0,80,6,4,2,16,4,1,-12
121,76,132,1,80,4,-2,2,14,2,-1,-13
122,78,133,0,80,6,2,2,16,4,1,-12
123,74,134,1,95,2,-4,2,12,0,-1,-13
124,71,135,0,80,11,-3,2,9,9,-1,-14
125,69,136,1,80,9,-2,2,7,7,-1,-15
126,71,137,0,80,11,2,2,9,9,1,-14
127,74,138,1,105,2,3,2,12,0,1,-13
128,78,139,0,80,6,4,2,16,4,1,-12
129,76,140,1,80,4,-2,2,14,2,-1,-13
130,78,141,0,80,6,2,2,16,4,1,-12
131,74,142,2,95,2,-4,2,12,0,-1,-13
132,71,144,1,80,11,-3,2,9,9,-1,-14
133,73,145,0,80,1,2,2,11,11,1,-13
134,74,146,1,105,2,1,2,12,0,1,-12
135,73,147,0,80,1,-1,2,11,11,-1,-13
136,71,148,1,80,11,-2,2,9,9,-1,-14
137,69,149,0,80,9,-2,2,7,7,-1,-15
138,66,150,1,95,6,-3,2,4,4,-1,-16
139,69,151,0,80,9,3,2,7,7,1,-15
140,71,152,1,80,11,2,2,9,9,1,-14
141,73,153,0,80,1,2,2,11,11,1,-13
142,74,154,1,105,2,1,2,12,0,1,-12
143,71,155,0,80,11,-3,2,9,9,-1,-13
144,69,156,1,80,9,-2,2,7,7,-1,-14
145,66,157,0,80,6,-3,2,4,4,-1,-15
146,64,158,2,95,4,-2,2,2,2,-1,-16
147,74,160,1,80,2,10,2,12,0,1,-15
148,71,161,0,80,11,-3,2,9,9,-1,-16
149,69,162,1,105,9,-2,2,7,7,-1,-17
150,66,163,0,80,6,-3,2,4,4,-1,-18
151,64,164,1,80,4,-2,2,2,2,-1,-19
152,67,165,0,80,7,3,2,5,5,1,-18
153,66,166,1,95,6,-1,2,4,4,-1,-19
154,62,167,0,80,2,-4,2,0,0,-1,-20
155,64,168,1,80,4,2,2,2,2,1,-19
156,66,169,0,80,6,2,2,4,4,1,-18
157,62,170,2,105,2,-4,2,0,0,-1,-19
158,66,172,1,80,6,4,2,4,4,1,-18
159,69,173,0,80,9,3,2,7,7,1,-17
160,74,174,1,95,2,5,2,12,0,1,-16
161,78,175,0,80,6,4,2,16,4,1,-15
162,76,176,1,80,4,-2,2,14,2,-1,-16
163,73,177,0,80,1,-3,2,11,11,-1,-17
164,74,178,1,105,2,1,2,12,0,1,-16
165,73,179,0,80,1,-1,2,11,11,-1,-17
166,71,180,1,80,11,-2,2,9,9,-1,-18
167,69,181,0,80,9,-2,2,7,7,-1,-19
168,66,182,1,95,6,-3,2,4,4,-1,-20
169,62,183,0,80,2,-4,2,0,0,-1,-21
170,64,184,1,80,4,2,2,2,2,1,-20
171,66,185,0,80,6,2,2,4,4,1,-19
172,62,186,2,105,2,-4,2,0,0,-1,-20
173,62,188,2,80,2,0,2,0,0,0,-20
174,62,190,2,95,2,0,2,0,0,0,-20
175,69,192,0,80,9,7,2,7,7,1,-19
176,71,192,0,80,11,2,2,9,9,1,-18
177,73,193,0,80,1,2,2,11,11,1,-17
178,74,194,1,105,2,1,2,12,0,1,-16
179,78,195,0,80,6,4,2,16,4,1,-15
180,76,196,1,80,4,-2,2,14,2,-1,-16
181,78,197,0,80,6,2,2,16,4,1,-15
182,74,198,1,95,2,-4,2,12,0,-1,-16
183,71,199,0,80,11,-3,2,9,9,-1,-17
184,69,200,1,80,9,-2,2,7,7,-1,-18
185,71,201,0,80,11,2,2,9,9,1,-17
186,74,202,1,105,2,3,2,12,0,1,-16
187,78,203,0,80,6,4,2,16,4,1,-15
188,76,204,1,80,4,-2,2,14,2,-1,-16
189,78,205,0,80,6,2,2,16,4,1,-15
190,74,206,2,95,2,-4,2,12,0,-1,-16
191,71,208,1,80,11,-3,2,9,9,-1,-17
192,73,209,0,80,1,2,2,11,11,1,-16
193,74,210,1,105,2,1,2,12,0,1,-15
194,73,211,0,80,1,-1,2,11,11,-1,-16
195,71,212,1,80,11,-2,2,9,9,-1,-17
196,69,213,0,80,9,-2,2,7,7,-1,-18
197,66,214,1,95,6,-3,2,4,4,-1,-19
198,69,215,0,80,9,3,2,7,7,1,-18
199,71,216,1,80,11,2,2,9,9,1,-17
200,73,217,0,80,1,2,2,11,11,1,-16
201,74,218,1,105,2,1,2,12,0,1,-15
202,71,219,0,80,11,-3,2,9,9,-1,-16
203,69,220,1,80,9,-2,2,7,7,-1,-17
204,66,221,0,80,6,-3,2,4,4,-1,-18
205,64,222,2,95,4,-2,2,2,2,-1,-19
206,74,224,1,80,2,10,2,12,0,1,-18
207,71,225,0,80,11,-3,2,9,9,-1,-19
208,69,226,1,105,9,-2,2,7,7,-1,-20
209,66,227,0,80,6,-3,2,4,4,-1,-21
210,64,228,1,80,4,-2,2,2,2,-1,-22
211,67,229,0,80,7,3,2,5,5,1,-21
212,66,230,1,95,6,-1,2,4,4,-1,-22
213,62,231,0,80,2,-4,2,0,0,-1,-23
214,64,232,1,80,4,2,2,2,2,1,-22
215,66,233,0,80,6,2,2,4,4,1,-21
216,62,234,2,105,2,-4,2,0,0,-1,-22
217,66,236,1,80,6,4,2,4,4,1,-21
218,69,237,0,80,9,3,2,7,7,1,-20
219,74,238,1,95,2,5,2,12,0,1,-19
220,78,239,0,80,6,4,2,16,4,1,-18
221,76,240,1,80,4,-2,2,14,2,-1,-19
222,73,241,0,80,1,-3,2,11,11,-1,-20
223,74,242,1,105,2,1,2,12,0,1,-19
224,73,243,0,80,1,-1,2,11,11,-1,-20
225,71,244,1,80,11,-2,2,9,9,-1,-21
226,69,245,0,80,9,-2,2,7,7,-1,-22
227,66,246,1,95,6,-3,2,4,4,-1,-23
228,62,247,0,80,2,-4,2,0,0,-1,-24
229,64,248,1,80,4,2,2,2,2,1,-23
230,66,249,0,80,6,2,2,4,4,1,-22
231,62,250,2,105,2,-4,2,0,0,-1,-23
232,62,252,2,80,2,0,2,0,0,0,-23
233,62,254,2,95,2,0,2,0,0,0,-23
