,midi_note,onset,duration,velocity,pitch_class,interval,root,relative_pitch,relative_pitch_class,parsons_code,parsons_cumsum
0,74,0,1,105,2,0,7,7,7,0,0
1,72,1,1,80,0,-2,7,5,5,-1,-1
2,71,2,1,105,11,-1,7,4,4,-1,-2
3,67,3,1,80,7,-4,7,0,0,-1,-3
4,67,4,1,80,7,0,7,0,0,0,-3
5,66,5,1,80,6,-1,7,-1,11,-1,-4
6,62,6,1,95,2,-4,7,-5,7,-1,-5
7,67,7,1,80,7,5,7,0,0,1,-4
8,67,8,1,80,7,0,7,0,0,0,-4
9,69,9,1,80,9,2,7,2,2,1,-3
10,71,10,1,105,11,2,7,4,4,1,-2
11,67,11,1,80,7,-4,7,0,0,-1,-3
12,67,12,1,80,7,0,7,0,0,0,-3
13,71,13,1,80,11,4,7,4,4,1,-2
14,74,14,2,95,2,3,7,7,7,1,-1
15,72,16,1,80,0,-2,7,5,5,-1,-2
16,69,17,1,80,9,-3,7,2,2,-1,-3
17,71,18,1,105,11,2,7,4,4,1,-2
18,67,19,1,80,7,-4,7,0,0,-1,-3
19,67,20,1,80,7,0,7,0,0,0,-3
20,66,21,1,80,6,-1,7,-1,11,-1,-4
21,62,22,1,95,2,-4,7,-5,7,-1,-5
22,66,23,1,80,6,4,7,-1,11,1,-4
23,67,24,1,80,7,1,7,0,0,1,-3
24,71,25,1,80,11,4,7,4,4,1,-2
25,69,26,1,105,9,-2,7,2,2,-1,-3
26,67,27,1,80,7,-2,7,0,0,-1,-4
27,69,28,1,80,9,2,7,2,2,1,-3
28,71,29,1,80,11,2,7,4,4,1,-2
29,72,30,2,95,0,1,7,5,5,1,-1
30,74,32,1,80,2,2,7,7,7,1,0
31,72,33,1,80,0,-2,7,5,5,-1,-1
32,71,34,1,105,11,-1,7,4,4,-1,-2
33,67,35,1,80,7,-4,7,0,0,-1,-3
34,67,36,1,80,7,0,7,0,0,0,-3
35,66,37,1,80,6,-1,7,-1,11,-1,-4
36,62,38,1,95,2,-4,7,-5,7,-1,-5
37,67,39,1,80,7,5,7,0,0,1,-4
38,67,40,1,80,7,0,7,0,0,0,-4
39,69,41,1,80,9,2,7,2,2,1,-3
40,71,42,1,105,11,2,7,4,4,1,-2
41,67,43,1,80,7,-4,7,0,0,-1,-3
42,67,44,1,80,7,0,7,0,0,0,-3
43,71,45,1,80,11,4,7,4,4,1,-2
44,74,46,2,95,2,3,7,7,7,1,-1
45,72,48,1,80,0,-2,7,5,5,-1,-2
46,69,49,1,80,9,-3,7,2,2,-1,-3
47,71,50,1,105,11,2,7,4,4,1,-2
48,67,51,1,80,7,-4,7,0,0,-1,-3
49,67,52,1,80,7,0,7,0,0,0,-3
50,66,53,1,80,6,-1,7,-1,11,-1,-4
51,62,54,1,95,2,-4,7,-5,7,-1,-5
52,66,55,1,80,6,4,7,-1,11,1,-4
53,67,56,1,80,7,1,7,0,0,1,-3
54,71,57,1,80,11,4,7,4,4,1,-2
55,69,58,2,105,9,-2,7,2,2,-1,-3
56,69,60,1,80,9,0,7,2,2,0,-3
57,71,61,1,80,11,2,7,4,4,1,-2
58,72,62,2,95,0,1,7,5,5,1,-1
59,71,64,1,80,11,-1,7,4,4,-1,-2
60,69,65,1,80,9,-2,7,2,2,-1,-3
61,71,66,1,105,11,2,7,4,4,1,-2
62,74,67,1,80,2,3,7,7,7,1,-1
63,74,68,1,80,2,0,7,7,7,0,-1
64,72,69,1,80,0,-2,7,5,5,-1,-2
65,71,70,1,95,11,-1,7,4,4,-1,-3
66,67,71,1,80,7,-4,7,0,0,-1,-4
67,67,72,2,80,7,0,7,0,0,0,-4
68,71,74,1,105,11,4,7,4,4,1,-3
69,74,75,1,80,2,3,7,7,7,1,-2
70,74,76,2,80,2,0,7,7,7,0,-2
71,76,78,2,95,4,2,7,9,9,1,-1
72,74,80,1,80,2,-2,7,7,7,-1,-2
73,72,81,1,80,0,-2,7,5,5,-1,-3
74,71,82,1,105,11,-1,7,4,4,-1,-4
75,74,83,1,80,2,3,7,7,7,1,-3
76,74,84,1,80,2,0,7,7,7,0,-3
77,72,85,1,80,0,-2,7,5,5,-1,-4
78,71,86,1,95,11,-1,7,4,4,-1,-5
79,67,87,1,80,7,-4,7,0,0,-1,-6
80,67,88,2,80,7,0,7,0,0,0,-6
81,69,90,1,105,9,2,7,2,2,1,-5
82,67,91,1,80,7,-2,7,0,0,-1,-6
83,69,92,1,80,9,2,7,2,2,1,-5
84,71,93,1,80,11,2,7,4,4,1,-4
85,72,94,2,95,0,1,7,5,5,1,-3
86,71,96,1,80,11,-1,7,4,4,-1,-4
87,69,97,1,80,9,-2,7,2,2,-1,-5
88,71,98,1,105,11,2,7,4,4,1,-4
89,74,99,1,80,2,3,7,7,7,1,-3
90,74,100,1,80,2,0,7,7,7,0,-3
91,72,101,1,80,0,-2,7,5,5,-1,-4
92,71,102,1,95,11,-1,7,4,4,-1,-5
93,67,103,1,80,7,-4,7,0,0,-1,-6
94,67,104,2,80,7,0,7,0,0,0,-6
95,71,106,1,105,11,4,7,4,4,1,-5
96,74,107,1,80,2,3,7,7,7,1,-4
97,74,108,2,80,2,0,7,7,7,0,-4
98,76,110,2,95,4,2,7,9,9,1,-3
99,76,112,1,80,4,0,7,9,9,0,-3
100,78,113,1,80,6,2,7,11,11,1,-2
101,79,114,1,105,7,1,7,12,0,1,-1
102,78,115,1,80,6,-1,7,11,11,-1,-2
103,76,116,1,80,4,-2,7,9,9,-1,-3
104,74,117,1,80,2,-2,7,7,7,-1,-4
105,76,118,1,95,4,2,7,9,9,1,-3
106,78,119,1,80,6,2,7,11,11,1,-2
107,74,120,1,80,2,-4,7,7,7,-1,-3
108,71,121,1,80,11,-3,7,4,4,-1,-4
109,69,122,2,105,9,-2,7,2,2,-1,-5
110,69,124,1,80,9,0,7,2,2,0,-5
111,71,125,1,80,11,2,7,4,4,1,-4
112,72,126,2,95,0,1,7,5,5,1,-3
113,74,128,1,80,2,2,7,7,7,1,-2
114,72,129,1,80,0,-2,7,5,5,-1,-3
