,midi_note,onset,duration,velocity,pitch_class,interval,root,relative_pitch,relative_pitch_class,parsons_code,parsons_cumsum
0,74,0,1,105,2,0,7,7,7,0,0
1,72,1,1,80,0,-2,7,5,5,-1,-1
2,71,2,3,105,11,-1,7,4,4,-1,-2
3,74,5,1,80,2,3,7,7,7,1,-1
4,69,6,3,95,9,-5,7,2,2,-1,-2
5,71,9,1,80,11,2,7,4,4,1,-1
6,67,10,1,105,7,-4,7,0,0,-1,-2
7,71,11,1,80,11,4,7,4,4,1,-1
8,71,12,2,80,11,0,7,4,4,0,-1
9,67,14,1,95,7,-4,7,0,0,-1,-2
10,71,15,1,80,11,4,7,4,4,1,-1
11,71,16,2,80,11,0,7,4,4,0,-1
12,74,18,1,105,2,3,7,7,7,1,0
13,69,19,1,80,9,-5,7,2,2,-1,-1
14,69,20,2,80,9,0,7,2,2,0,-1
15,74,22,2,95,2,5,7,7,7,1,0
16,76,24,0,80,4,2,7,9,9,1,1
17,78,24,0,80,6,2,7,11,11,1,2
18,79,25,0,80,7,1,7,12,0,1,3
19,78,26,1,105,6,-1,7,11,11,-1,2
20,74,27,1,80,2,-4,7,7,7,-1,1
21,72,28,1,80,0,-2,7,5,5,-1,0
22,69,29,1,80,9,-3,7,2,2,-1,-1
23,71,30,1,95,11,2,7,4,4,1,0
24,67,31,1,80,7,-4,7,0,0,-1,-1
25,67,32,2,80,7,0,7,0,0,0,-1
26,71,34,3,105,11,4,7,4,4,1,0
27,74,37,1,80,2,3,7,7,7,1,1
28,69,38,2,95,9,-5,7,2,2,-1,0
29,69,40,1,80,9,0,7,2,2,0,0
30,71,41,1,80,11,2,7,4,4,1,1
31,67,42,1,105,7,-4,7,0,0,-1,0
32,71,43,1,80,11,4,7,4,4,1,1
33,71,44,2,80,11,0,7,4,4,0,1
34,67,46,1,95,7,-4,7,0,0,-1,0
35,71,47,1,80,11,4,7,4,4,1,1
36,71,48,2,80,11,0,7,4,4,0,1
37,74,50,1,105,2,3,7,7,7,1,2
38,69,51,1,80,9,-5,7,2,2,-1,1
39,69,52,2,80,9,0,7,2,2,0,1
40,74,54,2,95,2,5,7,7,7,1,2
41,76,56,1,80,4,2,7,9,9,1,3
42,79,57,1,80,7,3,7,12,0,1,4
43,78,58,1,105,6,-1,7,11,11,-1,3
44,74,59,1,80,2,-4,7,7,7,-1,2
45,72,60,1,80,0,-2,7,5,5,-1,1
46,69,61,1,80,9,-3,7,2,2,-1,0
47,71,62,1,95,11,2,7,4,4,1,1
48,67,63,1,80,7,-4,7,0,0,-1,0
49,67,64,2,80,7,0,7,0,0,0,0
50,71,66,3,105,11,4,7,4,4,1,1
51,74,69,1,80,2,3,7,7,7,1,2
52,69,70,3,95,9,-5,7,2,2,-1,1
53,71,73,1,80,11,2,7,4,4,1,2
54,67,74,1,105,7,-4,7,0,0,-1,1
55,71,75,1,80,11,4,7,4,4,1,2
56,71,76,2,80,11,0,7,4,4,0,2
57,67,78,1,95,7,-4,7,0,0,-1,1
58,71,79,1,80,11,4,7,4,4,1,2
59,71,80,2,80,11,0,7,4,4,0,2
60,74,82,1,105,2,3,7,7,7,1,3
61,69,83,1,80,9,-5,7,2,2,-1,2
62,69,84,2,80,9,0,7,2,2,0,2
63,74,86,2,95,2,5,7,7,7,1,3
64,76,88,0,80,4,2,7,9,9,1,4
65,78,88,0,80,6,2,7,11,11,1,5
66,79,89,0,80,7,1,7,12,0,1,6
67,78,90,1,105,6,-1,7,11,11,-1,5
68,74,91,1,80,2,-4,7,7,7,-1,4
69,72,92,1,80,0,-2,7,5,5,-1,3
70,69,93,1,80,9,-3,7,2,2,-1,2
71,71,94,1,95,11,2,7,4,4,1,3
72,67,95,1,80,7,-4,7,0,0,-1,2
73,67,96,2,80,7,0,7,0,0,0,2
74,71,98,3,105,11,4,7,4,4,1,3
75,74,101,1,80,2,3,7,7,7,1,4
76,69,102,2,95,9,-5,7,2,2,-1,3
77,69,104,1,80,9,0,7,2,2,0,3
78,71,105,1,80,11,2,7,4,4,1,4
79,67,106,1,105,7,-4,7,0,0,-1,3
80,71,107,1,80,11,4,7,4,4,1,4
81,71,108,2,80,11,0,7,4,4,0,4
82,67,110,1,95,7,-4,7,0,0,-1,3
83,71,111,1,80,11,4,7,4,4,1,4
84,71,112,2,80,11,0,7,4,4,0,4
85,74,114,1,105,2,3,7,7,7,1,5
86,69,115,1,80,9,-5,7,2,2,-1,4
87,69,116,2,80,9,0,7,2,2,0,4
88,74,118,2,95,2,5,7,7,7,1,5
89,76,120,1,80,4,2,7,9,9,1,6
90,79,121,1,80,7,3,7,12,0,1,7
91,78,122,1,105,6,-1,7,11,11,-1,6
92,74,123,1,80,2,-4,7,7,7,-1,5
93,72,124,1,80,0,-2,7,5,5,-1,4
94,69,125,1,80,9,-3,7,2,2,-1,3
95,71,126,1,95,11,2,7,4,4,1,4
96,67,127,1,80,7,-4,7,0,0,-1,3
97,67,128,2,80,7,0,7,0,0,0,3
98,74,130,1,105,2,7,7,7,7,1,4
99,67,131,1,80,7,-7,7,0,0,-1,3
100,67,132,2,80,7,0,7,0,0,0,3
101,74,134,1,95,2,7,7,7,7,1,4
102,67,135,1,80,7,-7,7,0,0,-1,3
103,71,136,1,80,11,4,7,4,4,1,4
104,74,137,1,80,2,3,7,7,7,1,5
105,79,138,3,105,7,5,7,12,0,1,6
106,81,141,1,80,9,2,7,14,2,1,7
107,83,142,0,95,11,2,7,16,4,1,8
108,81,142,0,80,9,-2,7,14,2,-1,7
109,79,143,0,80,7,-2,7,12,0,-1,6
110,81,144,1,80,9,2,7,14,2,1,7
111,79,145,1,80,7,-2,7,12,0,-1,6
112,74,146,1,105,2,-5,7,7,7,-1,5
113,67,147,1,80,7,-7,7,0,0,-1,4
114,67,148,2,80,7,0,7,0,0,0,4
115,74,150,2,95,2,7,7,7,7,1,5
116,76,152,1,80,4,2,7,9,9,1,6
117,79,153,1,80,7,3,7,12,0,1,7
118,78,154,1,105,6,-1,7,11,11,-1,6
119,74,155,1,80,2,-4,7,7,7,-1,5
120,72,156,1,80,0,-2,7,5,5,-1,4
121,69,157,1,80,9,-3,7,2,2,-1,3
122,69,158,1,95,9,0,7,2,2,0,3
123,67,159,1,80,7,-2,7,0,0,-1,2
124,67,160,2,80,7,0,7,0,0,0,2
125,74,162,1,105,2,7,7,7,7,1,3
126,67,163,1,80,7,-7,7,0,0,-1,2
127,67,164,2,80,7,0,7,0,0,0,2
128,74,166,1,95,2,7,7,7,7,1,3
129,67,167,1,80,7,-7,7,0,0,-1,2
130,71,168,0,80,11,4,7,4,4,1,3
131,73,168,0,80,1,2,7,6,6,1,4
132,74,169,0,80,2,1,7,7,7,1,5
133,79,170,2,105,7,5,7,12,0,1,6
134,79,172,2,80,7,0,7,12,0,0,6
135,83,174,0,95,11,4,7,16,4,1,7
136,81,174,0,80,9,-2,7,14,2,-1,6
137,79,175,0,80,7,-2,7,12,0,-1,5
138,81,176,1,80,9,2,7,14,2,1,6
139,78,177,1,80,6,-3,7,11,11,-1,5
140,79,178,3,105,7,1,7,12,0,1,6
141,81,181,1,80,9,2,7,14,2,1,7
142,83,182,1,95,11,2,7,16,4,1,8
143,79,183,1,80,7,-4,7,12,0,-1,7
144,81,184,1,80,9,2,7,14,2,1,8
145,79,185,1,80,7,-2,7,12,0,-1,7
146,78,186,1,105,6,-1,7,11,11,-1,6
147,74,187,1,80,2,-4,7,7,7,-1,5
148,72,188,1,80,0,-2,7,5,5,-1,4
149,69,189,1,80,9,-3,7,2,2,-1,3
150,69,190,1,95,9,0,7,2,2,0,3
151,67,191,1,80,7,-2,7,0,0,-1,2
152,67,192,2,80,7,0,7,0,0,0,2
153,74,194,1,105,2,7,7,7,7,1,3
154,67,195,1,80,7,-7,7,0,0,-1,2
155,67,196,2,80,7,0,7,0,0,0,2
156,74,198,1,95,2,7,7,7,7,1,3
157,67,199,1,80,7,-7,7,0,0,-1,2
158,71,200,1,80,11,4,7,4,4,1,3
159,74,201,1,80,2,3,7,7,7,1,4
160,79,202,3,105,7,5,7,12,0,1,5
161,81,205,1,80,9,2,7,14,2,1,6
162,83,206,0,95,11,2,7,16,4,1,7
163,81,206,0,80,9,-2,7,14,2,-1,6
164,79,207,0,80,7,-2,7,12,0,-1,5
165,81,208,1,80,9,2,7,14,2,1,6
166,79,209,1,80,7,-2,7,12,0,-1,5
167,74,210,1,105,2,-5,7,7,7,-1,4
168,67,211,1,80,7,-7,7,0,0,-1,3
169,67,212,2,80,7,0,7,0,0,0,3
170,74,214,2,95,2,7,7,7,7,1,4
171,76,216,1,80,4,2,7,9,9,1,5
172,79,217,1,80,7,3,7,12,0,1,6
173,78,218,1,105,6,-1,7,11,11,-1,5
174,74,219,1,80,2,-4,7,7,7,-1,4
175,72,220,1,80,0,-2,7,5,5,-1,3
176,69,221,1,80,9,-3,7,2,2,-1,2
177,69,222,1,95,9,0,7,2,2,0,2
178,67,223,1,80,7,-2,7,0,0,-1,1
179,67,224,2,80,7,0,7,0,0,0,1
180,74,226,1,105,2,7,7,7,7,1,2
181,67,227,1,80,7,-7,7,0,0,-1,1
182,67,228,2,80,7,0,7,0,0,0,1
183,74,230,1,95,2,7,7,7,7,1,2
184,67,231,1,80,7,-7,7,0,0,-1,1
185,71,232,0,80,11,4,7,4,4,1,2
186,73,232,0,80,1,2,7,6,6,1,3
187,74,233,0,80,2,1,7,7,7,1,4
188,79,234,2,105,7,5,7,12,0,1,5
189,79,236,2,80,7,0,7,12,0,0,5
190,83,238,0,95,11,4,7,16,4,1,6
191,81,238,0,80,9,-2,7,14,2,-1,5
192,79,239,0,80,7,-2,7,12,0,-1,4
193,81,240,1,80,9,2,7,14,2,1,5
194,78,241,1,80,6,-3,7,11,11,-1,4
195,79,242,3,105,7,1,7,12,0,1,5
196,81,245,1,80,9,2,7,14,2,1,6
197,83,246,1,95,11,2,7,16,4,1,7
198,79,247,1,80,7,-4,7,12,0,-1,6
199,81,248,1,80,9,2,7,14,2,1,7
200,79,249,1,80,7,-2,7,12,0,-1,6
201,78,250,1,105,6,-1,7,11,11,-1,5
202,74,251,1,80,2,-4,7,7,7,-1,4
203,72,252,1,80,0,-2,7,5,5,-1,3
204,69,253,1,80,9,-3,7,2,2,-1,2
205,69,254,1,95,9,0,7,2,2,0,2
206,67,255,1,80,7,-2,7,0,0,-1,1
207,67,256,2,80,7,0,7,0,0,0,1
