,midi_note,onset,duration,velocity,pitch_class,interval,root,relative_pitch,relative_pitch_class,parsons_code,parsons_cumsum
0,69,0,1,105,9,0,2,7,7,0,0
1,69,1,1,105,9,0,2,7,7,0,0
2,74,2,1,80,2,5,2,12,0,1,1
3,74,3,1,80,2,0,2,12,0,0,1
4,74,4,1,95,2,0,2,12,0,0,1
5,73,5,1,80,1,-1,2,11,11,-1,0
6,74,6,1,80,2,1,2,12,0,1,1
7,76,7,1,95,4,2,2,14,2,1,2
8,78,8,1,80,6,2,2,16,4,1,3
9,79,9,1,80,7,1,2,17,5,1,4
10,69,10,1,105,9,-10,2,7,7,-1,3
11,74,11,1,80,2,5,2,12,0,1,4
12,74,12,1,80,2,0,2,12,0,0,4
13,74,13,1,95,2,0,2,12,0,0,4
14,76,14,1,80,4,2,2,14,2,1,5
15,78,15,1,80,6,2,2,16,4,1,6
16,79,16,3,95,7,1,2,17,5,1,7
17,69,19,1,105,9,-10,2,7,7,-1,6
18,74,20,1,80,2,5,2,12,0,1,7
19,74,21,1,80,2,0,2,12,0,0,7
20,74,22,1,95,2,0,2,12,0,0,7
21,73,23,1,80,1,-1,2,11,11,-1,6
22,74,24,1,80,2,1,2,12,0,1,7
23,76,25,1,95,4,2,2,14,2,1,8
24,78,26,1,80,6,2,2,16,4,1,9
25,79,27,1,80,7,1,2,17,5,1,10
26,81,28,1,105,9,2,2,19,7,1,11
27,83,29,1,80,11,2,2,21,9,1,12
28,81,30,1,80,9,-2,2,19,7,-1,11
29,79,31,1,95,7,-2,2,17,5,-1,10
30,76,32,1,80,4,-3,2,14,2,-1,9
31,73,33,1,80,1,-3,2,11,11,-1,8
32,74,34,2,95,2,1,2,12,0,1,9
33,69,36,1,80,9,-5,2,7,7,-1,8
34,69,37,1,105,9,0,2,7,7,0,8
35,74,38,1,80,2,5,2,12,0,1,9
36,74,39,1,80,2,0,2,12,0,0,9
37,74,40,1,95,2,0,2,12,0,0,9
38,73,41,1,80,1,-1,2,11,11,-1,8
39,74,42,1,80,2,1,2,12,0,1,9
40,76,43,1,95,4,2,2,14,2,1,10
41,78,44,1,80,6,2,2,16,4,1,11
42,79,45,1,80,7,1,2,17,5,1,12
43,69,46,1,105,9,-10,2,7,7,-1,11
44,74,47,1,80,2,5,2,12,0,1,12
45,74,48,1,80,2,0,2,12,0,0,12
46,74,49,1,95,2,0,2,12,0,0,12
47,76,50,1,80,4,2,2,14,2,1,13
48,78,51,1,80,6,2,2,16,4,1,14
49,79,52,3,95,7,1,2,17,5,1,15
50,69,55,1,105,9,-10,2,7,7,-1,14
51,74,56,1,80,2,5,2,12,0,1,15
52,74,57,1,80,2,0,2,12,0,0,15
53,74,58,1,95,2,0,2,12,0,0,15
54,73,59,1,80,1,-1,2,11,11,-1,14
55,74,60,1,80,2,1,2,12,0,1,15
56,76,61,1,95,4,2,2,14,2,1,16
57,78,62,1,80,6,2,2,16,4,1,17
58,79,63,1,80,7,1,2,17,5,1,18
59,81,64,1,105,9,2,2,19,7,1,19
60,83,65,1,80,11,2,2,21,9,1,20
61,81,66,1,80,9,-2,2,19,7,-1,19
62,79,67,1,95,7,-2,2,17,5,-1,18
63,76,68,1,80,4,-3,2,14,2,-1,17
64,73,69,1,80,1,-3,2,11,11,-1,16
65,74,70,2,95,2,1,2,12,0,1,17
66,81,72,1,80,9,7,2,19,7,1,18
67,81,73,1,105,9,0,2,19,7,0,18
68,83,74,1,80,11,2,2,21,9,1,19
69,81,75,1,80,9,-2,2,19,7,-1,18
70,79,76,1,95,7,-2,2,17,5,-1,17
71,76,77,1,80,4,-3,2,14,2,-1,16
72,74,78,1,80,2,-2,2,12,0,-1,15
73,73,79,1,95,1,-1,2,11,11,-1,14
74,74,80,1,80,2,1,2,12,0,1,15
75,76,81,1,80,4,2,2,14,2,1,16
76,81,82,1,105,9,5,2,19,7,1,17
77,83,83,1,80,11,2,2,21,9,1,18
78,81,84,1,80,9,-2,2,19,7,-1,17
79,79,85,1,95,7,-2,2,17,5,-1,16
80,76,86,1,80,4,-3,2,14,2,-1,15
81,78,87,1,80,6,2,2,16,4,1,16
82,79,88,3,95,7,1,2,17,5,1,17
83,81,91,1,105,9,2,2,19,7,1,18
84,83,92,1,80,11,2,2,21,9,1,19
85,81,93,1,80,9,-2,2,19,7,-1,18
86,79,94,1,95,7,-2,2,17,5,-1,17
87,76,95,1,80,4,-3,2,14,2,-1,16
88,74,96,1,80,2,-2,2,12,0,-1,15
89,73,97,1,95,1,-1,2,11,11,-1,14
90,74,98,1,80,2,1,2,12,0,1,15
91,76,99,1,80,4,2,2,14,2,1,16
92,78,100,1,105,6,2,2,16,4,1,17
93,81,101,1,80,9,3,2,19,7,1,18
94,81,102,1,80,9,0,2,19,7,0,18
95,79,103,1,95,7,-2,2,17,5,-1,17
96,78,104,1,80,6,-1,2,16,4,-1,16
97,76,105,1,80,4,-2,2,14,2,-1,15
98,74,106,2,95,2,-2,2,12,0,-1,14
99,81,108,1,80,9,7,2,19,7,1,15
100,81,109,1,105,9,0,2,19,7,0,15
101,83,110,1,80,11,2,2,21,9,1,16
102,81,111,1,80,9,-2,2,19,7,-1,15
103,79,112,1,95,7,-2,2,17,5,-1,14
104,76,113,1,80,4,-3,2,14,2,-1,13
105,74,114,1,80,2,-2,2,12,0,-1,12
106,73,115,1,95,1,-1,2,11,11,-1,11
107,74,116,1,80,2,1,2,12,0,1,12
108,76,117,1,80,4,2,2,14,2,1,13
109,81,118,1,105,9,5,2,19,7,1,14
110,83,119,1,80,11,2,2,21,9,1,15
111,81,120,1,80,9,-2,2,19,7,-1,14
112,79,121,1,95,7,-2,2,17,5,-1,13
113,76,122,1,80,4,-3,2,14,2,-1,12
114,78,123,1,80,6,2,2,16,4,1,13
115,79,124,3,95,7,1,2,17,5,1,14
116,81,127,1,105,9,2,2,19,7,1,15
117,83,128,1,80,11,2,2,21,9,1,16
118,81,129,1,80,9,-2,2,19,7,-1,15
119,79,130,1,95,7,-2,2,17,5,-1,14
120,76,131,1,80,4,-3,2,14,2,-1,13
121,74,132,1,80,2,-2,2,12,0,-1,12
122,73,133,1,95,1,-1,2,11,11,-1,11
123,74,134,1,80,2,1,2,12,0,1,12
124,76,135,1,80,4,2,2,14,2,1,13
125,78,136,1,105,6,2,2,16,4,1,14
126,81,137,1,80,9,3,2,19,7,1,15
127,81,138,1,80,9,0,2,19,7,0,15
128,79,139,1,95,7,-2,2,17,5,-1,14
129,78,140,1,80,6,-1,2,16,4,-1,13
130,76,141,1,80,4,-2,2,14,2,-1,12
131,74,142,2,95,2,-2,2,12,0,-1,11
