,midi_note,onset,duration,velocity,pitch_class,interval,root,relative_pitch,relative_pitch_class,parsons_code,parsons_cumsum
0,71,0,1,105,11,0,2,9,9,0,0
1,69,1,1,105,9,-2,2,7,7,-1,-1
2,66,2,1,80,6,-3,2,4,4,-1,-2
3,66,3,1,80,6,0,2,4,4,0,-2
4,74,4,1,95,2,8,2,12,0,1,-1
5,66,5,1,80,6,-8,2,4,4,-1,-2
6,66,6,1,80,6,0,2,4,4,0,-2
7,69,7,1,105,9,3,2,7,7,1,-1
8,66,8,1,80,6,-3,2,4,4,-1,-2
9,66,9,1,80,6,0,2,4,4,0,-2
10,74,10,1,95,2,8,2,12,0,1,-1
11,66,11,1,80,6,-8,2,4,4,-1,-2
12,66,12,1,80,6,0,2,4,4,0,-2
13,67,13,2,105,7,1,2,5,5,1,-1
14,71,15,1,80,11,4,2,9,9,1,0
15,66,16,2,95,6,-5,2,4,4,-1,-1
16,69,18,1,80,9,3,2,7,7,1,0
17,67,19,1,105,7,-2,2,5,5,-1,-1
18,64,20,1,80,4,-3,2,2,2,-1,-2
19,64,21,1,80,4,0,2,2,2,0,-2
20,64,22,2,95,4,0,2,2,2,0,-2
21,71,24,1,80,11,7,2,9,9,1,-1
22,69,25,1,105,9,-2,2,7,7,-1,-2
23,66,26,1,80,6,-3,2,4,4,-1,-3
24,66,27,1,80,6,0,2,4,4,0,-3
25,74,28,1,95,2,8,2,12,0,1,-2
26,66,29,1,80,6,-8,2,4,4,-1,-3
27,66,30,1,80,6,0,2,4,4,0,-3
28,69,31,1,105,9,3,2,7,7,1,-2
29,66,32,1,80,6,-3,2,4,4,-1,-3
30,66,33,1,80,6,0,2,4,4,0,-3
31,74,34,1,95,2,8,2,12,0,1,-2
32,66,35,1,80,6,-8,2,4,4,-1,-3
33,66,36,1,80,6,0,2,4,4,0,-3
34,67,37,1,105,7,1,2,5,5,1,-2
35,66,38,1,80,6,-1,2,4,4,-1,-3
36,67,39,1,80,7,1,2,5,5,1,-2
37,71,40,1,95,11,4,2,9,9,1,-1
38,69,41,1,80,9,-2,2,7,7,-1,-2
39,67,42,1,80,7,-2,2,5,5,-1,-3
40,66,43,1,105,6,-1,2,4,4,-1,-4
41,62,44,1,80,2,-4,2,0,0,-1,-5
42,62,45,1,80,2,0,2,0,0,0,-5
43,62,46,2,95,2,0,2,0,0,0,-5
44,71,48,1,80,11,9,2,9,9,1,-4
45,69,49,1,105,9,-2,2,7,7,-1,-5
46,66,50,1,80,6,-3,2,4,4,-1,-6
47,66,51,1,80,6,0,2,4,4,0,-6
48,74,52,1,95,2,8,2,12,0,1,-5
49,66,53,1,80,6,-8,2,4,4,-1,-6
50,66,54,1,80,6,0,2,4,4,0,-6
51,69,55,1,105,9,3,2,7,7,1,-5
52,66,56,1,80,6,-3,2,4,4,-1,-6
53,66,57,1,80,6,0,2,4,4,0,-6
54,74,58,1,95,2,8,2,12,0,1,-5
55,66,59,1,80,6,-8,2,4,4,-1,-6
56,66,60,1,80,6,0,2,4,4,0,-6
57,67,61,2,105,7,1,2,5,5,1,-5
58,71,63,1,80,11,4,2,9,9,1,-4
59,66,64,2,95,6,-5,2,4,4,-1,-5
60,69,66,1,80,9,3,2,7,7,1,-4
61,67,67,1,105,7,-2,2,5,5,-1,-5
62,64,68,1,80,4,-3,2,2,2,-1,-6
63,64,69,1,80,4,0,2,2,2,0,-6
64,64,70,2,95,4,0,2,2,2,0,-6
65,71,72,1,80,11,7,2,9,9,1,-5
66,69,73,1,105,9,-2,2,7,7,-1,-6
67,66,74,1,80,6,-3,2,4,4,-1,-7
68,66,75,1,80,6,0,2,4,4,0,-7
69,74,76,1,95,2,8,2,12,0,1,-6
70,66,77,1,80,6,-8,2,4,4,-1,-7
71,66,78,1,80,6,0,2,4,4,0,-7
72,69,79,1,105,9,3,2,7,7,1,-6
73,66,80,1,80,6,-3,2,4,4,-1,-7
74,66,81,1,80,6,0,2,4,4,0,-7
75,74,82,1,95,2,8,2,12,0,1,-6
76,66,83,1,80,6,-8,2,4,4,-1,-7
77,66,84,1,80,6,0,2,4,4,0,-7
78,67,85,1,105,7,1,2,5,5,1,-6
79,66,86,1,80,6,-1,2,4,4,-1,-7
80,67,87,1,80,7,1,2,5,5,1,-6
81,71,88,1,95,11,4,2,9,9,1,-5
82,69,89,1,80,9,-2,2,7,7,-1,-6
83,67,90,1,80,7,-2,2,5,5,-1,-7
84,66,91,1,105,6,-1,2,4,4,-1,-8
85,62,92,1,80,2,-4,2,0,0,-1,-9
86,62,93,1,80,2,0,2,0,0,0,-9
87,62,94,2,95,2,0,2,0,0,0,-9
88,79,96,1,80,7,17,2,17,5,1,-8
89,78,97,1,105,6,-1,2,16,4,-1,-9
90,76,98,1,80,4,-2,2,14,2,-1,-10
91,74,99,1,80,2,-2,2,12,0,-1,-11
92,76,100,1,95,4,2,2,14,2,1,-10
93,74,101,1,80,2,-2,2,12,0,-1,-11
94,73,102,1,80,1,-1,2,11,11,-1,-12
95,74,103,1,105,2,1,2,12,0,1,-11
96,73,104,1,80,1,-1,2,11,11,-1,-12
97,71,105,1,80,11,-2,2,9,9,-1,-13
98,69,106,1,95,9,-2,2,7,7,-1,-14
99,66,107,1,80,6,-3,2,4,4,-1,-15
100,62,108,1,80,2,-4,2,0,0,-1,-16
101,67,109,2,105,7,5,2,5,5,1,-15
102,71,111,1,80,11,4,2,9,9,1,-14
103,66,112,2,95,6,-5,2,4,4,-1,-15
104,69,114,1,80,9,3,2,7,7,1,-14
105,67,115,1,105,7,-2,2,5,5,-1,-15
106,64,116,1,80,4,-3,2,2,2,-1,-16
107,64,117,1,80,4,0,2,2,2,0,-16
108,64,118,2,95,4,0,2,2,2,0,-16
109,79,120,1,80,7,15,2,17,5,1,-15
110,78,121,1,105,6,-1,2,16,4,-1,-16
111,76,122,1,80,4,-2,2,14,2,-1,-17
112,74,123,1,80,2,-2,2,12,0,-1,-18
113,76,124,1,95,4,2,2,14,2,1,-17
114,74,125,1,80,2,-2,2,12,0,-1,-18
115,73,126,1,80,1,-1,2,11,11,-1,-19
116,74,127,1,105,2,1,2,12,0,1,-18
117,73,128,1,80,1,-1,2,11,11,-1,-19
118,71,129,1,80,11,-2,2,9,9,-1,-20
119,69,130,1,95,9,-2,2,7,7,-1,-21
120,66,131,1,80,6,-3,2,4,4,-1,-22
121,62,132,1,80,2,-4,2,0,0,-1,-23
122,67,133,3,105,7,5,2,5,5,1,-22
123,71,136,1,95,11,4,2,9,9,1,-21
124,69,137,1,80,9,-2,2,7,7,-1,-22
125,67,138,1,80,7,-2,2,5,5,-1,-23
126,66,139,1,105,6,-1,2,4,4,-1,-24
127,62,140,1,80,2,-4,2,0,0,-1,-25
128,62,141,1,80,2,0,2,0,0,0,-25
129,62,142,2,95,2,0,2,0,0,0,-25
130,79,144,1,80,7,17,2,17,5,1,-24
131,78,145,1,105,6,-1,2,16,4,-1,-25
132,76,146,1,80,4,-2,2,14,2,-1,-26
133,74,147,1,80,2,-2,2,12,0,-1,-27
134,76,148,1,95,4,2,2,14,2,1,-26
135,74,149,1,80,2,-2,2,12,0,-1,-27
136,73,150,1,80,1,-1,2,11,11,-1,-28
137,74,151,1,105,2,1,2,12,0,1,-27
138,73,152,1,80,1,-1,2,11,11,-1,-28
139,71,153,1,80,11,-2,2,9,9,-1,-29
140,69,154,1,95,9,-2,2,7,7,-1,-30
141,66,155,1,80,6,-3,2,4,4,-1,-31
142,62,156,1,80,2,-4,2,0,0,-1,-32
143,67,157,2,105,7,5,2,5,5,1,-31
144,71,159,1,80,11,4,2,9,9,1,-30
145,66,160,2,95,6,-5,2,4,4,-1,-31
146,69,162,1,80,9,3,2,7,7,1,-30
147,67,163,1,105,7,-2,2,5,5,-1,-31
148,64,164,1,80,4,-3,2,2,2,-1,-32
149,64,165,1,80,4,0,2,2,2,0,-32
150,64,166,2,95,4,0,2,2,2,0,-32
151,79,168,1,80,7,15,2,17,5,1,-31
152,78,169,1,105,6,-1,2,16,4,-1,-32
153,76,170,1,80,4,-2,2,14,2,-1,-33
154,74,171,1,80,2,-2,2,12,0,-1,-34
155,76,172,1,95,4,2,2,14,2,1,-33
156,74,173,1,80,2,-2,2,12,0,-1,-34
157,73,174,1,80,1,-1,2,11,11,-1,-35
158,74,175,1,105,2,1,2,12,0,1,-34
159,73,176,1,80,1,-1,2,11,11,-1,-35
160,71,177,1,80,11,-2,2,9,9,-1,-36
161,69,178,1,95,9,-2,2,7,7,-1,-37
162,66,179,1,80,6,-3,2,4,4,-1,-38
163,62,180,1,80,2,-4,2,0,0,-1,-39
164,67,181,3,105,7,5,2,5,5,1,-38
165,71,184,1,95,11,4,2,9,9,1,-37
166,69,185,1,80,9,-2,2,7,7,-1,-38
167,67,186,1,80,7,-2,2,5,5,-1,-39
168,66,187,1,105,6,-1,2,4,4,-1,-40
169,62,188,1,80,2,-4,2,0,0,-1,-41
170,62,189,1,80,2,0,2,0,0,0,-41
171,62,190,2,95,2,0,2,0,0,0,-41
