,midi_note,onset,duration,velocity,pitch_class,interval,root,relative_pitch,relative_pitch_class,parsons_code,parsons_cumsum
0,74,0,1,105,2,0,2,12,0,0,0
1,71,1,0,80,11,-3,2,9,9,-1,-1
2,69,2,3,105,9,-2,2,7,7,-1,-2
3,66,5,1,80,6,-3,2,4,4,-1,-3
4,62,6,1,95,2,-4,2,0,0,-1,-4
5,64,7,0,80,4,2,2,2,2,1,-3
6,66,8,0,80,6,2,2,4,4,1,-2
7,64,8,0,80,4,-2,2,2,2,-1,-3
8,62,9,0,80,2,-2,2,0,0,-1,-4
9,69,10,1,105,9,7,2,7,7,1,-3
10,67,11,0,80,7,-2,2,5,5,-1,-4
11,69,12,1,80,9,2,2,7,7,1,-3
12,71,13,0,80,11,2,2,9,9,1,-2
13,72,14,2,95,0,1,2,10,10,1,-1
14,69,16,0,80,9,-3,2,7,7,-1,-2
15,71,16,0,80,11,2,2,9,9,1,-1
16,72,17,0,80,0,1,2,10,10,1,0
17,74,18,1,105,2,2,2,12,0,1,1
18,73,19,0,80,1,-1,2,11,11,-1,0
19,74,20,1,80,2,1,2,12,0,1,1
20,76,21,0,80,4,2,2,14,2,1,2
21,78,22,0,95,6,2,2,16,4,1,3
22,76,22,0,80,4,-2,2,14,2,-1,2
23,74,23,0,80,2,-2,2,12,0,-1,1
24,69,24,1,80,9,-5,2,7,7,-1,0
25,66,25,0,80,6,-3,2,4,4,-1,-1
26,62,26,1,105,2,-4,2,0,0,-1,-2
27,67,27,0,80,7,5,2,5,5,1,-1
28,67,28,1,80,7,0,2,5,5,0,-1
29,66,29,0,80,6,-1,2,4,4,-1,-2
30,67,30,2,95,7,1,2,5,5,1,-1
31,66,32,1,80,6,-1,2,4,4,-1,-2
32,67,33,0,80,7,1,2,5,5,1,-1
33,69,34,1,105,9,2,2,7,7,1,0
34,71,35,0,80,11,2,2,9,9,1,1
35,69,36,1,80,9,-2,2,7,7,-1,0
36,66,37,0,80,6,-3,2,4,4,-1,-1
37,62,38,1,95,2,-4,2,0,0,-1,-2
38,64,39,0,80,4,2,2,2,2,1,-1
39,66,40,1,80,6,2,2,4,4,1,0
40,62,41,0,80,2,-4,2,0,0,-1,-1
41,69,42,1,105,9,7,2,7,7,1,0
42,67,43,0,80,7,-2,2,5,5,-1,-1
43,69,44,1,80,9,2,2,7,7,1,0
44,71,45,0,80,11,2,2,9,9,1,1
45,72,46,1,95,0,1,2,10,10,1,2
46,71,47,0,80,11,-1,2,9,9,-1,1
47,69,48,0,80,9,-2,2,7,7,-1,0
48,71,48,0,80,11,2,2,9,9,1,1
49,72,49,0,80,0,1,2,10,10,1,2
50,74,50,1,105,2,2,2,12,0,1,3
51,73,51,0,80,1,-1,2,11,11,-1,2
52,74,52,1,80,2,1,2,12,0,1,3
53,76,53,0,80,4,2,2,14,2,1,4
54,78,54,0,95,6,2,2,16,4,1,5
55,76,54,0,80,4,-2,2,14,2,-1,4
56,74,55,0,80,2,-2,2,12,0,-1,3
57,69,56,1,80,9,-5,2,7,7,-1,2
58,67,57,0,80,7,-2,2,5,5,-1,1
59,66,58,0,105,6,-1,2,4,4,-1,0
60,67,58,0,80,7,1,2,5,5,1,1
61,66,59,0,80,6,-1,2,4,4,-1,0
62,64,60,1,80,4,-2,2,2,2,-1,-1
63,66,61,0,80,6,2,2,4,4,1,0
64,62,62,2,95,2,-4,2,0,0,-1,-1
65,74,64,1,80,2,12,2,12,0,1,0
66,71,65,0,80,11,-3,2,9,9,-1,-1
67,69,66,3,105,9,-2,2,7,7,-1,-2
68,66,69,1,80,6,-3,2,4,4,-1,-3
69,62,70,1,95,2,-4,2,0,0,-1,-4
70,64,71,0,80,4,2,2,2,2,1,-3
71,66,72,0,80,6,2,2,4,4,1,-2
72,64,72,0,80,4,-2,2,2,2,-1,-3
73,62,73,0,80,2,-2,2,0,0,-1,-4
74,69,74,1,105,9,7,2,7,7,1,-3
75,67,75,0,80,7,-2,2,5,5,-1,-4
76,69,76,1,80,9,2,2,7,7,1,-3
77,71,77,0,80,11,2,2,9,9,1,-2
78,72,78,2,95,0,1,2,10,10,1,-1
79,69,80,0,80,9,-3,2,7,7,-1,-2
80,71,80,0,80,11,2,2,9,9,1,-1
81,72,81,0,80,0,1,2,10,10,1,0
82,74,82,1,105,2,2,2,12,0,1,1
83,73,83,0,80,1,-1,2,11,11,-1,0
84,74,84,1,80,2,1,2,12,0,1,1
85,76,85,0,80,4,2,2,14,2,1,2
86,78,86,0,95,6,2,2,16,4,1,3
87,76,86,0,80,4,-2,2,14,2,-1,2
88,74,87,0,80,2,-2,2,12,0,-1,1
89,69,88,1,80,9,-5,2,7,7,-1,0
90,66,89,0,80,6,-3,2,4,4,-1,-1
91,62,90,1,105,2,-4,2,0,0,-1,-2
92,67,91,0,80,7,5,2,5,5,1,-1
93,67,92,1,80,7,0,2,5,5,0,-1
94,66,93,0,80,6,-1,2,4,4,-1,-2
95,67,94,2,95,7,1,2,5,5,1,-1
96,66,96,1,80,6,-1,2,4,4,-1,-2
97,67,97,0,80,7,1,2,5,5,1,-1
98,69,98,1,105,9,2,2,7,7,1,0
99,71,99,0,80,11,2,2,9,9,1,1
100,69,100,1,80,9,-2,2,7,7,-1,0
101,66,101,0,80,6,-3,2,4,4,-1,-1
102,62,102,1,95,2,-4,2,0,0,-1,-2
103,64,103,0,80,4,2,2,2,2,1,-1
104,66,104,1,80,6,2,2,4,4,1,0
105,62,105,0,80,2,-4,2,0,0,-1,-1
106,69,106,1,105,9,7,2,7,7,1,0
107,67,107,0,80,7,-2,2,5,5,-1,-1
108,69,108,1,80,9,2,2,7,7,1,0
109,71,109,0,80,11,2,2,9,9,1,1
110,72,110,1,95,0,1,2,10,10,1,2
111,71,111,0,80,11,-1,2,9,9,-1,1
112,69,112,0,80,9,-2,2,7,7,-1,0
113,71,112,0,80,11,2,2,9,9,1,1
114,72,113,0,80,0,1,2,10,10,1,2
115,74,114,1,105,2,2,2,12,0,1,3
116,73,115,0,80,1,-1,2,11,11,-1,2
117,74,116,1,80,2,1,2,12,0,1,3
118,76,117,0,80,4,2,2,14,2,1,4
119,78,118,0,95,6,2,2,16,4,1,5
120,76,118,0,80,4,-2,2,14,2,-1,4
121,74,119,0,80,2,-2,2,12,0,-1,3
122,69,120,1,80,9,-5,2,7,7,-1,2
123,67,121,0,80,7,-2,2,5,5,-1,1
124,66,122,0,105,6,-1,2,4,4,-1,0
125,67,122,0,80,7,1,2,5,5,1,1
126,66,123,0,80,6,-1,2,4,4,-1,0
127,64,124,1,80,4,-2,2,2,2,-1,-1
128,66,125,0,80,6,2,2,4,4,1,0
129,62,126,2,95,2,-4,2,0,0,-1,-1
130,79,129,1,80,7,17,2,17,5,1,0
131,78,130,1,105,6,-1,2,16,4,-1,-1
132,74,131,0,80,2,-4,2,12,0,-1,-2
133,73,132,1,80,1,-1,2,11,11,-1,-3
134,74,133,0,80,2,1,2,12,0,1,-2
135,76,134,1,95,4,2,2,14,2,1,-1
136,73,135,0,80,1,-3,2,11,11,-1,-2
137,69,136,1,80,9,-4,2,7,7,-1,-3
138,66,137,0,80,6,-3,2,4,4,-1,-4
139,74,138,1,105,2,8,2,12,0,1,-3
140,79,139,0,80,7,5,2,17,5,1,-2
141,79,140,1,80,7,0,2,17,5,0,-2
142,78,141,0,80,6,-1,2,16,4,-1,-3
143,79,142,2,95,7,1,2,17,5,1,-2
144,78,144,1,80,6,-1,2,16,4,-1,-3
145,79,145,0,80,7,1,2,17,5,1,-2
146,81,146,3,105,9,2,2,19,7,1,-1
147,83,149,1,80,11,2,2,21,9,1,0
148,81,150,1,95,9,-2,2,19,7,-1,-1
149,79,151,0,80,7,-2,2,17,5,-1,-2
150,76,152,1,80,4,-3,2,14,2,-1,-3
151,73,153,0,80,1,-3,2,11,11,-1,-4
152,74,154,1,105,2,1,2,12,0,1,-3
153,73,155,0,80,1,-1,2,11,11,-1,-4
154,69,156,1,80,9,-4,2,7,7,-1,-5
155,66,157,0,80,6,-3,2,4,4,-1,-6
156,67,158,2,95,7,1,2,5,5,1,-5
157,66,160,1,80,6,-1,2,4,4,-1,-6
158,67,161,0,80,7,1,2,5,5,1,-5
159,69,162,1,105,9,2,2,7,7,1,-4
160,71,163,0,80,11,2,2,9,9,1,-3
161,69,164,1,80,9,-2,2,7,7,-1,-4
162,66,165,0,80,6,-3,2,4,4,-1,-5
163,62,166,1,95,2,-4,2,0,0,-1,-6
164,64,167,0,80,4,2,2,2,2,1,-5
165,66,168,1,80,6,2,2,4,4,1,-4
166,62,169,0,80,2,-4,2,0,0,-1,-5
167,69,170,1,105,9,7,2,7,7,1,-4
168,67,171,0,80,7,-2,2,5,5,-1,-5
169,69,172,1,80,9,2,2,7,7,1,-4
170,71,173,0,80,11,2,2,9,9,1,-3
171,72,174,1,95,0,1,2,10,10,1,-2
172,71,175,0,80,11,-1,2,9,9,-1,-3
173,69,176,0,80,9,-2,2,7,7,-1,-4
174,71,176,0,80,11,2,2,9,9,1,-3
175,72,177,0,80,0,1,2,10,10,1,-2
176,74,178,1,105,2,2,2,12,0,1,-1
177,73,179,0,80,1,-1,2,11,11,-1,-2
178,74,180,1,80,2,1,2,12,0,1,-1
179,76,181,0,80,4,2,2,14,2,1,0
180,78,182,0,95,6,2,2,16,4,1,1
181,76,182,0,80,4,-2,2,14,2,-1,0
182,74,183,0,80,2,-2,2,12,0,-1,-1
183,69,184,1,80,9,-5,2,7,7,-1,-2
184,67,185,0,80,7,-2,2,5,5,-1,-3
185,66,186,1,105,6,-1,2,4,4,-1,-4
186,67,187,0,80,7,1,2,5,5,1,-3
187,64,188,1,80,4,-3,2,2,2,-1,-4
188,66,189,0,80,6,2,2,4,4,1,-3
189,62,190,2,95,2,-4,2,0,0,-1,-4
190,79,193,1,80,7,17,2,17,5,1,-3
191,78,194,1,105,6,-1,2,16,4,-1,-4
192,74,195,0,80,2,-4,2,12,0,-1,-5
193,73,196,1,80,1,-1,2,11,11,-1,-6
194,74,197,0,80,2,1,2,12,0,1,-5
195,76,198,1,95,4,2,2,14,2,1,-4
196,73,199,0,80,1,-3,2,11,11,-1,-5
197,69,200,1,80,9,-4,2,7,7,-1,-6
198,66,201,0,80,6,-3,2,4,4,-1,-7
199,74,202,1,105,2,8,2,12,0,1,-6
200,79,203,0,80,7,5,2,17,5,1,-5
201,79,204,1,80,7,0,2,17,5,0,-5
202,78,205,0,80,6,-1,2,16,4,-1,-6
203,79,206,2,95,7,1,2,17,5,1,-5
204,78,208,1,80,6,-1,2,16,4,-1,-6
205,79,209,0,80,7,1,2,17,5,1,-5
206,81,210,3,105,9,2,2,19,7,1,-4
207,83,213,1,80,11,2,2,21,9,1,-3
208,81,214,1,95,9,-2,2,19,7,-1,-4
209,79,215,0,80,7,-2,2,17,5,-1,-5
210,76,216,1,80,4,-3,2,14,2,-1,-6
211,73,217,0,80,1,-3,2,11,11,-1,-7
212,74,218,1,105,2,1,2,12,0,1,-6
213,73,219,0,80,1,-1,2,11,11,-1,-7
214,69,220,1,80,9,-4,2,7,7,-1,-8
215,66,221,0,80,6,-3,2,4,4,-1,-9
216,67,222,2,95,7,1,2,5,5,1,-8
217,66,224,1,80,6,-1,2,4,4,-1,-9
218,67,225,0,80,7,1,2,5,5,1,-8
219,69,226,1,105,9,2,2,7,7,1,-7
220,71,227,0,80,11,2,2,9,9,1,-6
221,69,228,1,80,9,-2,2,7,7,-1,-7
222,66,229,0,80,6,-3,2,4,4,-1,-8
223,62,230,1,95,2,-4,2,0,0,-1,-9
224,64,231,0,80,4,2,2,2,2,1,-8
225,66,232,1,80,6,2,2,4,4,1,-7
226,62,233,0,80,2,-4,2,0,0,-1,-8
227,69,234,1,105,9,7,2,7,7,1,-7
228,67,235,0,80,7,-2,2,5,5,-1,-8
229,69,236,1,80,9,2,2,7,7,1,-7
230,71,237,0,80,11,2,2,9,9,1,-6
231,72,238,1,95,0,1,2,10,10,1,-5
232,71,239,0,80,11,-1,2,9,9,-1,-6
233,69,240,0,80,9,-2,2,7,7,-1,-7
234,71,240,0,80,11,2,2,9,9,1,-6
235,72,241,0,80,0,1,2,10,10,1,-5
236,74,242,1,105,2,2,2,12,0,1,-4
237,73,243,0,80,1,-1,2,11,11,-1,-5
238,74,244,1,80,2,1,2,12,0,1,-4
239,76,245,0,80,4,2,2,14,2,1,-3
240,78,246,0,95,6,2,2,16,4,1,-2
241,76,246,0,80,4,-2,2,14,2,-1,-3
242,74,247,0,80,2,-2,2,12,0,-1,-4
243,69,248,1,80,9,-5,2,7,7,-1,-5
244,67,249,0,80,7,-2,2,5,5,-1,-6
245,66,250,1,105,6,-1,2,4,4,-1,-7
246,67,251,0,80,7,1,2,5,5,1,-6
247,64,252,1,80,4,-3,2,2,2,-1,-7
248,66,253,0,80,6,2,2,4,4,1,-6
249,62,254,2,95,2,-4,2,0,0,-1,-7
