,midi_note,onset,duration,velocity,pitch_class,interval,root,relative_pitch,relative_pitch_class,parsons_code,parsons_cumsum
0,67,0,3,105,7,0,7,0,0,0,0
1,72,3,1,80,0,5,7,5,5,1,1
2,71,4,1,95,11,-1,7,4,4,-1,0
3,69,5,1,80,9,-2,7,2,2,-1,-1
4,67,6,1,80,7,-2,7,0,0,-1,-2
5,71,7,1,80,11,4,7,4,4,1,-1
6,74,8,1,105,2,3,7,7,7,1,0
7,79,9,1,80,7,5,7,12,0,1,1
8,78,10,1,80,6,-1,7,11,11,-1,0
9,81,11,1,80,9,3,7,14,2,1,1
10,79,12,1,95,7,-2,7,12,0,-1,0
11,76,13,1,80,4,-3,7,9,9,-1,-1
12,74,14,1,80,2,-2,7,7,7,-1,-2
13,72,15,1,80,0,-2,7,5,5,-1,-3
14,71,16,2,105,11,-1,7,4,4,-1,-4
15,69,18,1,80,9,-2,7,2,2,-1,-5
16,72,19,1,80,0,3,7,5,5,1,-4
17,71,20,1,95,11,-1,7,4,4,-1,-5
18,67,21,1,80,7,-4,7,0,0,-1,-6
19,69,22,1,80,9,2,7,2,2,1,-5
20,66,23,1,80,6,-3,7,-1,11,-1,-6
21,62,24,1,105,2,-4,7,-5,7,-1,-7
22,66,25,1,80,6,4,7,-1,11,1,-6
23,69,26,1,80,9,3,7,2,2,1,-5
24,66,27,1,80,6,-3,7,-1,11,-1,-6
25,67,28,1,95,7,1,7,0,0,1,-5
26,66,29,1,80,6,-1,7,-1,11,-1,-6
27,64,30,1,80,4,-2,7,-3,9,-1,-7
28,62,31,1,80,2,-2,7,-5,7,-1,-8
29,67,32,3,105,7,5,7,0,0,1,-7
30,72,35,1,80,0,5,7,5,5,1,-6
31,71,36,1,95,11,-1,7,4,4,-1,-7
32,69,37,1,80,9,-2,7,2,2,-1,-8
33,67,38,1,80,7,-2,7,0,0,-1,-9
34,71,39,1,80,11,4,7,4,4,1,-8
35,74,40,1,105,2,3,7,7,7,1,-7
36,79,41,1,80,7,5,7,12,0,1,-6
37,78,42,1,80,6,-1,7,11,11,-1,-7
38,81,43,1,80,9,3,7,14,2,1,-6
39,79,44,1,95,7,-2,7,12,0,-1,-7
40,76,45,1,80,4,-3,7,9,9,-1,-8
41,74,46,1,80,2,-2,7,7,7,-1,-9
42,72,47,1,80,0,-2,7,5,5,-1,-10
43,71,48,2,105,11,-1,7,4,4,-1,-11
44,69,50,1,80,9,-2,7,2,2,-1,-12
45,72,51,1,80,0,3,7,5,5,1,-11
46,71,52,1,95,11,-1,7,4,4,-1,-12
47,67,53,1,80,7,-4,7,0,0,-1,-13
48,69,54,1,80,9,2,7,2,2,1,-12
49,66,55,1,80,6,-3,7,-1,11,-1,-13
50,62,56,1,105,2,-4,7,-5,7,-1,-14
51,66,57,1,80,6,4,7,-1,11,1,-13
52,69,58,1,80,9,3,7,2,2,1,-12
53,66,59,1,80,6,-3,7,-1,11,-1,-13
54,67,60,4,95,7,1,7,0,0,1,-12
55,67,64,3,105,7,0,7,0,0,0,-12
56,72,67,1,80,0,5,7,5,5,1,-11
57,71,68,1,95,11,-1,7,4,4,-1,-12
58,69,69,1,80,9,-2,7,2,2,-1,-13
59,67,70,1,80,7,-2,7,0,0,-1,-14
60,71,71,1,80,11,4,7,4,4,1,-13
61,74,72,1,105,2,3,7,7,7,1,-12
62,79,73,1,80,7,5,7,12,0,1,-11
63,78,74,1,80,6,-1,7,11,11,-1,-12
64,81,75,1,80,9,3,7,14,2,1,-11
65,79,76,1,95,7,-2,7,12,0,-1,-12
66,76,77,1,80,4,-3,7,9,9,-1,-13
67,74,78,1,80,2,-2,7,7,7,-1,-14
68,72,79,1,80,0,-2,7,5,5,-1,-15
69,71,80,2,105,11,-1,7,4,4,-1,-16
70,69,82,1,80,9,-2,7,2,2,-1,-17
71,72,83,1,80,0,3,7,5,5,1,-16
72,71,84,1,95,11,-1,7,4,4,-1,-17
73,67,85,1,80,7,-4,7,0,0,-1,-18
74,69,86,1,80,9,2,7,2,2,1,-17
75,66,87,1,80,6,-3,7,-1,11,-1,-18
76,62,88,1,105,2,-4,7,-5,7,-1,-19
77,66,89,1,80,6,4,7,-1,11,1,-18
78,69,90,1,80,9,3,7,2,2,1,-17
79,66,91,1,80,6,-3,7,-1,11,-1,-18
80,67,92,1,95,7,1,7,0,0,1,-17
81,66,93,1,80,6,-1,7,-1,11,-1,-18
82,64,94,1,80,4,-2,7,-3,9,-1,-19
83,62,95,1,80,2,-2,7,-5,7,-1,-20
84,67,96,3,105,7,5,7,0,0,1,-19
85,72,99,1,80,0,5,7,5,5,1,-18
86,71,100,1,95,11,-1,7,4,4,-1,-19
87,69,101,1,80,9,-2,7,2,2,-1,-20
88,67,102,1,80,7,-2,7,0,0,-1,-21
89,71,103,1,80,11,4,7,4,4,1,-20
90,74,104,1,105,2,3,7,7,7,1,-19
91,79,105,1,80,7,5,7,12,0,1,-18
92,78,106,1,80,6,-1,7,11,11,-1,-19
93,81,107,1,80,9,3,7,14,2,1,-18
94,79,108,1,95,7,-2,7,12,0,-1,-19
95,76,109,1,80,4,-3,7,9,9,-1,-20
96,74,110,1,80,2,-2,7,7,7,-1,-21
97,72,111,1,80,0,-2,7,5,5,-1,-22
98,71,112,2,105,11,-1,7,4,4,-1,-23
99,69,114,1,80,9,-2,7,2,2,-1,-24
100,72,115,1,80,0,3,7,5,5,1,-23
101,71,116,1,95,11,-1,7,4,4,-1,-24
102,67,117,1,80,7,-4,7,0,0,-1,-25
103,69,118,1,80,9,2,7,2,2,1,-24
104,66,119,1,80,6,-3,7,-1,11,-1,-25
105,62,120,1,105,2,-4,7,-5,7,-1,-26
106,66,121,1,80,6,4,7,-1,11,1,-25
107,69,122,1,80,9,3,7,2,2,1,-24
108,66,123,1,80,6,-3,7,-1,11,-1,-25
109,67,124,4,95,7,1,7,0,0,1,-24
110,79,128,2,105,7,12,7,12,0,1,-23
111,81,130,1,80,9,2,7,14,2,1,-22
112,78,131,1,80,6,-3,7,11,11,-1,-23
113,79,132,1,95,7,1,7,12,0,1,-22
114,74,133,1,80,2,-5,7,7,7,-1,-23
115,71,134,1,80,11,-3,7,4,4,-1,-24
116,74,135,1,80,2,3,7,7,7,1,-23
117,76,136,1,105,4,2,7,9,9,1,-22
118,79,137,1,80,7,3,7,12,0,1,-21
119,78,138,1,80,6,-1,7,11,11,-1,-22
120,81,139,1,80,9,3,7,14,2,1,-21
121,79,140,1,95,7,-2,7,12,0,-1,-22
122,78,141,1,80,6,-1,7,11,11,-1,-23
123,76,142,1,80,4,-2,7,9,9,-1,-24
124,74,143,1,80,2,-2,7,7,7,-1,-25
125,76,144,1,105,4,2,7,9,9,1,-24
126,72,145,1,80,0,-4,7,5,5,-1,-25
127,69,146,1,80,9,-3,7,2,2,-1,-26
128,72,147,1,80,0,3,7,5,5,1,-25
129,74,148,1,95,2,2,7,7,7,1,-24
130,71,149,1,80,11,-3,7,4,4,-1,-25
131,67,150,1,80,7,-4,7,0,0,-1,-26
132,71,151,1,80,11,4,7,4,4,1,-25
133,72,152,1,105,0,1,7,5,5,1,-24
134,71,153,1,80,11,-1,7,4,4,-1,-25
135,69,154,1,80,9,-2,7,2,2,-1,-26
136,67,155,1,80,7,-2,7,0,0,-1,-27
137,66,156,1,95,6,-1,7,-1,11,-1,-28
138,69,157,1,80,9,3,7,2,2,1,-27
139,66,158,1,80,6,-3,7,-1,11,-1,-28
140,62,159,1,80,2,-4,7,-5,7,-1,-29
141,79,160,2,105,7,17,7,12,0,1,-28
142,81,162,1,80,9,2,7,14,2,1,-27
143,78,163,1,80,6,-3,7,11,11,-1,-28
144,79,164,1,95,7,1,7,12,0,1,-27
145,74,165,1,80,2,-5,7,7,7,-1,-28
146,71,166,1,80,11,-3,7,4,4,-1,-29
147,74,167,1,80,2,3,7,7,7,1,-28
148,76,168,1,105,4,2,7,9,9,1,-27
149,79,169,1,80,7,3,7,12,0,1,-26
150,78,170,1,80,6,-1,7,11,11,-1,-27
151,81,171,1,80,9,3,7,14,2,1,-26
152,79,172,3,95,7,-2,7,12,0,-1,-27
153,74,175,1,80,2,-5,7,7,7,-1,-28
154,71,176,1,105,11,-3,7,4,4,-1,-29
155,74,177,1,80,2,3,7,7,7,1,-28
156,76,178,1,80,4,2,7,9,9,1,-27
157,78,179,1,80,6,2,7,11,11,1,-26
158,79,180,1,95,7,1,7,12,0,1,-25
159,78,181,1,80,6,-1,7,11,11,-1,-26
160,81,182,1,80,9,3,7,14,2,1,-25
161,79,183,1,80,7,-2,7,12,0,-1,-26
162,83,184,1,105,11,4,7,16,4,1,-25
163,79,185,1,80,7,-4,7,12,0,-1,-26
164,76,186,1,80,4,-3,7,9,9,-1,-27
165,78,187,1,80,6,2,7,11,11,1,-26
166,79,188,2,95,7,1,7,12,0,1,-25
167,79,190,1,80,7,0,7,12,0,0,-25
168,78,191,1,80,6,-1,7,11,11,-1,-26
169,76,192,0,105,4,-2,7,9,9,-1,-27
170,78,192,0,80,6,2,7,11,11,1,-26
171,79,193,0,80,7,1,7,12,0,1,-25
172,74,194,1,80,2,-5,7,7,7,-1,-26
173,79,195,1,80,7,5,7,12,0,1,-25
174,71,196,1,95,11,-8,7,4,4,-1,-26
175,79,197,1,80,7,8,7,12,0,1,-25
176,74,198,1,80,2,-5,7,7,7,-1,-26
177,79,199,1,80,7,5,7,12,0,1,-25
178,76,200,1,105,4,-3,7,9,9,-1,-26
179,79,201,1,80,7,3,7,12,0,1,-25
180,78,202,1,80,6,-1,7,11,11,-1,-26
181,81,203,1,80,9,3,7,14,2,1,-25
182,79,204,1,95,7,-2,7,12,0,-1,-26
183,78,205,1,80,6,-1,7,11,11,-1,-27
184,76,206,1,80,4,-2,7,9,9,-1,-28
185,74,207,1,80,2,-2,7,7,7,-1,-29
186,76,208,1,105,4,2,7,9,9,1,-28
187,72,209,1,80,0,-4,7,5,5,-1,-29
188,69,210,1,80,9,-3,7,2,2,-1,-30
189,72,211,1,80,0,3,7,5,5,1,-29
190,74,212,1,95,2,2,7,7,7,1,-28
191,71,213,1,80,11,-3,7,4,4,-1,-29
192,67,214,1,80,7,-4,7,0,0,-1,-30
193,71,215,1,80,11,4,7,4,4,1,-29
194,72,216,1,105,0,1,7,5,5,1,-28
195,71,217,1,80,11,-1,7,4,4,-1,-29
196,69,218,1,80,9,-2,7,2,2,-1,-30
197,67,219,1,80,7,-2,7,0,0,-1,-31
198,66,220,1,95,6,-1,7,-1,11,-1,-32
199,69,221,1,80,9,3,7,2,2,1,-31
200,66,222,1,80,6,-3,7,-1,11,-1,-32
201,62,223,1,80,2,-4,7,-5,7,-1,-33
202,67,224,3,105,7,5,7,0,0,1,-32
203,72,227,1,80,0,5,7,5,5,1,-31
204,71,228,1,95,11,-1,7,4,4,-1,-32
205,69,229,1,80,9,-2,7,2,2,-1,-33
206,67,230,1,80,7,-2,7,0,0,-1,-34
207,71,231,1,80,11,4,7,4,4,1,-33
208,74,232,1,105,2,3,7,7,7,1,-32
209,79,233,1,80,7,5,7,12,0,1,-31
210,78,234,1,80,6,-1,7,11,11,-1,-32
211,81,235,1,80,9,3,7,14,2,1,-31
212,79,236,1,95,7,-2,7,12,0,-1,-32
213,76,237,1,80,4,-3,7,9,9,-1,-33
214,74,238,1,80,2,-2,7,7,7,-1,-34
215,72,239,1,80,0,-2,7,5,5,-1,-35
216,71,240,2,105,11,-1,7,4,4,-1,-36
217,69,242,1,80,9,-2,7,2,2,-1,-37
218,72,243,1,80,0,3,7,5,5,1,-36
219,71,244,1,95,11,-1,7,4,4,-1,-37
220,67,245,1,80,7,-4,7,0,0,-1,-38
221,69,246,1,80,9,2,7,2,2,1,-37
222,66,247,1,80,6,-3,7,-1,11,-1,-38
223,62,248,1,105,2,-4,7,-5,7,-1,-39
224,66,249,1,80,6,4,7,-1,11,1,-38
225,69,250,1,80,9,3,7,2,2,1,-37
226,66,251,1,80,6,-3,7,-1,11,-1,-38
227,67,252,4,95,7,1,7,0,0,1,-37
