,midi_note,onset,duration,velocity,pitch_class,interval,root,relative_pitch,relative_pitch_class,parsons_code,parsons_cumsum
0,69,0,1,105,9,0,2,7,7,0,0
1,67,1,1,80,7,-2,2,5,5,-1,-1
2,66,2,1,105,6,-1,2,4,4,-1,-2
3,62,3,1,80,2,-4,2,0,0,-1,-3
4,62,4,1,80,2,0,2,0,0,0,-3
5,62,5,1,95,2,0,2,0,0,0,-3
6,66,6,1,80,6,4,2,4,4,1,-2
7,69,7,1,80,9,3,2,7,7,1,-1
8,74,8,1,105,2,5,2,12,0,1,0
9,72,9,1,80,0,-2,2,10,10,-1,-1
10,69,10,1,80,9,-3,2,7,7,-1,-2
11,69,11,2,95,9,0,2,7,7,0,-2
12,67,13,1,80,7,-2,2,5,5,-1,-3
13,78,14,1,105,6,11,2,16,4,1,-2
14,74,15,1,80,2,-4,2,12,0,-1,-3
15,74,16,1,80,2,0,2,12,0,0,-3
16,72,17,1,95,0,-2,2,10,10,-1,-4
17,69,18,1,80,9,-3,2,7,7,-1,-5
18,69,19,1,80,9,0,2,7,7,0,-5
19,74,20,1,105,2,5,2,12,0,1,-4
20,72,21,1,80,0,-2,2,10,10,-1,-5
21,69,22,1,80,9,-3,2,7,7,-1,-6
22,67,23,1,95,7,-2,2,5,5,-1,-7
23,81,24,1,80,9,14,2,19,7,1,-6
24,79,25,1,80,7,-2,2,17,5,-1,-7
25,78,26,1,105,6,-1,2,16,4,-1,-8
26,74,27,1,80,2,-4,2,12,0,-1,-9
27,74,28,1,80,2,0,2,12,0,0,-9
28,76,29,1,95,4,2,2,14,2,1,-8
29,74,30,1,80,2,-2,2,12,0,-1,-9
30,72,31,1,80,0,-2,2,10,10,-1,-10
31,74,32,1,105,2,2,2,12,0,1,-9
32,72,33,1,80,0,-2,2,10,10,-1,-10
33,69,34,1,80,9,-3,2,7,7,-1,-11
34,74,35,2,95,2,5,2,12,0,1,-10
35,76,37,1,80,4,2,2,14,2,1,-9
36,78,38,2,105,6,2,2,16,4,1,-8
37,78,40,1,80,6,0,2,16,4,0,-8
38,74,41,1,95,2,-4,2,12,0,-1,-9
39,76,42,1,80,4,2,2,14,2,1,-8
40,74,43,1,80,2,-2,2,12,0,-1,-9
41,72,44,1,105,0,-2,2,10,10,-1,-10
42,69,45,1,80,9,-3,2,7,7,-1,-11
43,66,46,1,80,6,-3,2,4,4,-1,-12
44,67,47,1,95,7,1,2,5,5,1,-11
45,69,48,1,80,9,2,2,7,7,1,-10
46,67,49,1,80,7,-2,2,5,5,-1,-11
47,66,50,1,105,6,-1,2,4,4,-1,-12
48,62,51,1,80,2,-4,2,0,0,-1,-13
49,62,52,1,80,2,0,2,0,0,0,-13
50,62,53,1,95,2,0,2,0,0,0,-13
51,66,54,1,80,6,4,2,4,4,1,-12
52,69,55,1,80,9,3,2,7,7,1,-11
53,74,56,1,105,2,5,2,12,0,1,-10
54,72,57,1,80,0,-2,2,10,10,-1,-11
55,69,58,1,80,9,-3,2,7,7,-1,-12
56,69,59,2,95,9,0,2,7,7,0,-12
57,67,61,1,80,7,-2,2,5,5,-1,-13
58,78,62,1,105,6,11,2,16,4,1,-12
59,74,63,1,80,2,-4,2,12,0,-1,-13
60,74,64,1,80,2,0,2,12,0,0,-13
61,72,65,1,95,0,-2,2,10,10,-1,-14
62,69,66,1,80,9,-3,2,7,7,-1,-15
63,69,67,1,80,9,0,2,7,7,0,-15
64,74,68,1,105,2,5,2,12,0,1,-14
65,72,69,1,80,0,-2,2,10,10,-1,-15
66,69,70,1,80,9,-3,2,7,7,-1,-16
67,67,71,1,95,7,-2,2,5,5,-1,-17
68,81,72,1,80,9,14,2,19,7,1,-16
69,79,73,1,80,7,-2,2,17,5,-1,-17
70,78,74,1,105,6,-1,2,16,4,-1,-18
71,74,75,1,80,2,-4,2,12,0,-1,-19
72,74,76,1,80,2,0,2,12,0,0,-19
73,76,77,1,95,4,2,2,14,2,1,-18
74,74,78,1,80,2,-2,2,12,0,-1,-19
75,72,79,1,80,0,-2,2,10,10,-1,-20
76,74,80,1,105,2,2,2,12,0,1,-19
77,72,81,1,80,0,-2,2,10,10,-1,-20
78,69,82,1,80,9,-3,2,7,7,-1,-21
79,74,83,2,95,2,5,2,12,0,1,-20
80,76,85,1,80,4,2,2,14,2,1,-19
81,78,86,2,105,6,2,2,16,4,1,-18
82,78,88,1,80,6,0,2,16,4,0,-18
83,74,89,1,95,2,-4,2,12,0,-1,-19
84,76,90,1,80,4,2,2,14,2,1,-18
85,74,91,1,80,2,-2,2,12,0,-1,-19
86,72,92,1,105,0,-2,2,10,10,-1,-20
87,69,93,1,80,9,-3,2,7,7,-1,-21
88,66,94,1,80,6,-3,2,4,4,-1,-22
89,67,95,1,95,7,1,2,5,5,1,-21
90,66,96,1,80,6,-1,2,4,4,-1,-22
91,67,97,1,80,7,1,2,5,5,1,-21
92,72,98,1,105,0,5,2,10,10,1,-20
93,69,99,1,80,9,-3,2,7,7,-1,-21
94,69,100,1,80,9,0,2,7,7,0,-21
95,76,101,1,95,4,7,2,14,2,1,-20
96,78,102,1,80,6,2,2,16,4,1,-19
97,74,103,1,80,2,-4,2,12,0,-1,-20
98,72,104,1,105,0,-2,2,10,10,-1,-21
99,69,105,1,80,9,-3,2,7,7,-1,-22
100,71,106,1,80,11,2,2,9,9,1,-21
101,72,107,2,95,0,1,2,10,10,1,-20
102,74,109,1,80,2,2,2,12,0,1,-19
103,72,110,1,105,0,-2,2,10,10,-1,-20
104,69,111,1,80,9,-3,2,7,7,-1,-21
105,69,112,1,80,9,0,2,7,7,0,-21
106,76,113,1,95,4,7,2,14,2,1,-20
107,78,114,1,80,6,2,2,16,4,1,-19
108,74,115,1,80,2,-4,2,12,0,-1,-20
109,72,116,1,105,0,-2,2,10,10,-1,-21
110,69,117,1,80,9,-3,2,7,7,-1,-22
111,66,118,1,80,6,-3,2,4,4,-1,-23
112,67,119,2,95,7,1,2,5,5,1,-22
113,71,121,1,80,11,4,2,9,9,1,-21
114,72,122,1,105,0,1,2,10,10,1,-20
115,69,123,1,80,9,-3,2,7,7,-1,-21
116,69,124,1,80,9,0,2,7,7,0,-21
117,78,125,2,95,6,9,2,16,4,1,-20
118,74,127,1,80,2,-4,2,12,0,-1,-21
119,72,128,1,105,0,-2,2,10,10,-1,-22
120,69,129,1,80,9,-3,2,7,7,-1,-23
121,71,130,1,80,11,2,2,9,9,1,-22
122,72,131,1,95,0,1,2,10,10,1,-21
123,74,132,1,80,2,2,2,12,0,1,-20
124,76,133,1,80,4,2,2,14,2,1,-19
125,78,134,1,105,6,2,2,16,4,1,-18
126,78,135,1,80,6,0,2,16,4,0,-18
127,78,136,1,80,6,0,2,16,4,0,-18
128,74,137,1,95,2,-4,2,12,0,-1,-19
129,76,138,1,80,4,2,2,14,2,1,-18
130,74,139,1,80,2,-2,2,12,0,-1,-19
131,72,140,1,105,0,-2,2,10,10,-1,-20
132,69,141,1,80,9,-3,2,7,7,-1,-21
133,66,142,1,80,6,-3,2,4,4,-1,-22
134,67,143,2,95,7,1,2,5,5,1,-21
135,71,145,1,80,11,4,2,9,9,1,-20
136,72,146,1,105,0,1,2,10,10,1,-19
137,69,147,1,80,9,-3,2,7,7,-1,-20
138,69,148,1,80,9,0,2,7,7,0,-20
139,76,149,1,95,4,7,2,14,2,1,-19
140,78,150,1,80,6,2,2,16,4,1,-18
141,74,151,1,80,2,-4,2,12,0,-1,-19
142,72,152,1,105,0,-2,2,10,10,-1,-20
143,69,153,1,80,9,-3,2,7,7,-1,-21
144,71,154,1,80,11,2,2,9,9,1,-20
145,72,155,2,95,0,1,2,10,10,1,-19
146,74,157,1,80,2,2,2,12,0,1,-18
147,76,158,1,105,4,2,2,14,2,1,-17
148,69,159,1,80,9,-7,2,7,7,-1,-18
149,69,160,1,80,9,0,2,7,7,0,-18
150,76,161,1,95,4,7,2,14,2,1,-17
151,78,162,1,80,6,2,2,16,4,1,-16
152,74,163,1,80,2,-4,2,12,0,-1,-17
153,72,164,1,105,0,-2,2,10,10,-1,-18
154,69,165,1,80,9,-3,2,7,7,-1,-19
155,66,166,1,80,6,-3,2,4,4,-1,-20
156,67,167,2,95,7,1,2,5,5,1,-19
157,69,169,1,80,9,2,2,7,7,1,-18
158,72,170,1,105,0,3,2,10,10,1,-17
159,69,171,1,80,9,-3,2,7,7,-1,-18
160,69,172,1,80,9,0,2,7,7,0,-18
161,78,173,1,95,6,9,2,16,4,1,-17
162,76,174,1,80,4,-2,2,14,2,-1,-18
163,74,175,1,80,2,-2,2,12,0,-1,-19
164,72,176,1,105,0,-2,2,10,10,-1,-20
165,69,177,1,80,9,-3,2,7,7,-1,-21
166,71,178,1,80,11,2,2,9,9,1,-20
167,72,179,1,95,0,1,2,10,10,1,-19
168,74,180,1,80,2,2,2,12,0,1,-18
169,76,181,1,80,4,2,2,14,2,1,-17
170,78,182,1,105,6,2,2,16,4,1,-16
171,78,183,1,80,6,0,2,16,4,0,-16
172,78,184,1,80,6,0,2,16,4,0,-16
173,74,185,1,95,2,-4,2,12,0,-1,-17
174,76,186,1,80,4,2,2,14,2,1,-16
175,74,187,1,80,2,-2,2,12,0,-1,-17
176,72,188,1,105,0,-2,2,10,10,-1,-18
177,69,189,1,80,9,-3,2,7,7,-1,-19
178,66,190,1,80,6,-3,2,4,4,-1,-20
179,67,191,3,95,7,1,2,5,5,1,-19
