,midi_note,onset,duration,velocity,pitch_class,interval,root,relative_pitch,relative_pitch_class,parsons_code,parsons_cumsum
0,62,0,2,105,2,0,2,0,0,0,0
1,66,2,0,80,6,4,2,4,4,1,1
2,64,2,0,80,4,-2,2,2,2,-1,0
3,62,3,0,80,2,-2,2,0,0,-1,-1
4,62,4,1,95,2,0,2,0,0,0,-1
5,66,5,1,80,6,4,2,4,4,1,0
6,69,6,2,80,9,3,2,7,7,1,1
7,74,8,1,105,2,5,2,12,0,1,2
8,73,9,1,80,1,-1,2,11,11,-1,1
9,74,10,1,80,2,1,2,12,0,1,2
10,76,11,1,80,4,2,2,14,2,1,3
11,78,12,1,95,6,2,2,16,4,1,4
12,74,13,1,80,2,-4,2,12,0,-1,3
13,69,14,1,80,9,-5,2,7,7,-1,2
14,66,15,1,80,6,-3,2,4,4,-1,1
15,67,16,1,105,7,1,2,5,5,1,2
16,69,17,1,80,9,2,2,7,7,1,3
17,71,18,1,80,11,2,2,9,9,1,4
18,67,19,1,80,7,-4,2,5,5,-1,3
19,66,20,1,95,6,-1,2,4,4,-1,2
20,69,21,1,80,9,3,2,7,7,1,3
21,62,22,1,80,2,-7,2,0,0,-1,2
22,66,23,1,80,6,4,2,4,4,1,3
23,67,24,0,105,7,1,2,5,5,1,4
24,66,24,0,80,6,-1,2,4,4,-1,3
25,64,25,0,80,4,-2,2,2,2,-1,2
26,66,26,0,80,6,2,2,4,4,1,3
27,64,26,0,80,4,-2,2,2,2,-1,2
28,62,27,0,80,2,-2,2,0,0,-1,1
29,61,28,1,95,1,-1,2,-1,11,-1,0
30,64,29,1,80,4,3,2,2,2,1,1
31,57,30,2,80,9,-7,2,-5,7,-1,0
32,62,32,2,105,2,5,2,0,0,1,1
33,66,34,0,80,6,4,2,4,4,1,2
34,64,34,0,80,4,-2,2,2,2,-1,1
35,62,35,0,80,2,-2,2,0,0,-1,0
36,62,36,1,95,2,0,2,0,0,0,0
37,66,37,1,80,6,4,2,4,4,1,1
38,69,38,2,80,9,3,2,7,7,1,2
39,74,40,1,105,2,5,2,12,0,1,3
40,73,41,1,80,1,-1,2,11,11,-1,2
41,74,42,1,80,2,1,2,12,0,1,3
42,76,43,1,80,4,2,2,14,2,1,4
43,78,44,1,95,6,2,2,16,4,1,5
44,74,45,1,80,2,-4,2,12,0,-1,4
45,69,46,1,80,9,-5,2,7,7,-1,3
46,66,47,1,80,6,-3,2,4,4,-1,2
47,67,48,1,105,7,1,2,5,5,1,3
48,69,49,1,80,9,2,2,7,7,1,4
49,71,50,1,80,11,2,2,9,9,1,5
50,67,51,1,80,7,-4,2,5,5,-1,4
51,66,52,0,95,6,-1,2,4,4,-1,3
52,67,52,0,80,7,1,2,5,5,1,4
53,69,53,0,80,9,2,2,7,7,1,5
54,62,54,1,80,2,-7,2,0,0,-1,4
55,66,55,1,80,6,4,2,4,4,1,5
56,64,56,1,105,4,-2,2,2,2,-1,4
57,57,57,1,80,9,-7,2,-5,7,-1,3
58,61,58,1,80,1,4,2,-1,11,1,4
59,64,59,1,80,4,3,2,2,2,1,5
60,62,60,3,95,2,-2,2,0,0,-1,4
61,62,64,2,105,2,0,2,0,0,0,4
62,66,66,0,80,6,4,2,4,4,1,5
63,64,66,0,80,4,-2,2,2,2,-1,4
64,62,67,0,80,2,-2,2,0,0,-1,3
65,62,68,1,95,2,0,2,0,0,0,3
66,66,69,1,80,6,4,2,4,4,1,4
67,69,70,2,80,9,3,2,7,7,1,5
68,74,72,1,105,2,5,2,12,0,1,6
69,73,73,1,80,1,-1,2,11,11,-1,5
70,74,74,1,80,2,1,2,12,0,1,6
71,76,75,1,80,4,2,2,14,2,1,7
72,78,76,1,95,6,2,2,16,4,1,8
73,74,77,1,80,2,-4,2,12,0,-1,7
74,69,78,1,80,9,-5,2,7,7,-1,6
75,66,79,1,80,6,-3,2,4,4,-1,5
76,67,80,1,105,7,1,2,5,5,1,6
77,69,81,1,80,9,2,2,7,7,1,7
78,71,82,1,80,11,2,2,9,9,1,8
79,67,83,1,80,7,-4,2,5,5,-1,7
80,66,84,1,95,6,-1,2,4,4,-1,6
81,69,85,1,80,9,3,2,7,7,1,7
82,62,86,1,80,2,-7,2,0,0,-1,6
83,66,87,1,80,6,4,2,4,4,1,7
84,67,88,0,105,7,1,2,5,5,1,8
85,66,88,0,80,6,-1,2,4,4,-1,7
86,64,89,0,80,4,-2,2,2,2,-1,6
87,66,90,0,80,6,2,2,4,4,1,7
88,64,90,0,80,4,-2,2,2,2,-1,6
89,62,91,0,80,2,-2,2,0,0,-1,5
90,61,92,1,95,1,-1,2,-1,11,-1,4
91,64,93,1,80,4,3,2,2,2,1,5
92,57,94,2,80,9,-7,2,-5,7,-1,4
93,62,96,2,105,2,5,2,0,0,1,5
94,66,98,0,80,6,4,2,4,4,1,6
95,64,98,0,80,4,-2,2,2,2,-1,5
96,62,99,0,80,2,-2,2,0,0,-1,4
97,62,100,1,95,2,0,2,0,0,0,4
98,66,101,1,80,6,4,2,4,4,1,5
99,69,102,2,80,9,3,2,7,7,1,6
100,74,104,1,105,2,5,2,12,0,1,7
101,73,105,1,80,1,-1,2,11,11,-1,6
102,74,106,1,80,2,1,2,12,0,1,7
103,76,107,1,80,4,2,2,14,2,1,8
104,78,108,1,95,6,2,2,16,4,1,9
105,74,109,1,80,2,-4,2,12,0,-1,8
106,69,110,1,80,9,-5,2,7,7,-1,7
107,66,111,1,80,6,-3,2,4,4,-1,6
108,67,112,1,105,7,1,2,5,5,1,7
109,69,113,1,80,9,2,2,7,7,1,8
110,71,114,1,80,11,2,2,9,9,1,9
111,67,115,1,80,7,-4,2,5,5,-1,8
112,66,116,0,95,6,-1,2,4,4,-1,7
113,67,116,0,80,7,1,2,5,5,1,8
114,69,117,0,80,9,2,2,7,7,1,9
115,62,118,1,80,2,-7,2,0,0,-1,8
116,66,119,1,80,6,4,2,4,4,1,9
117,64,120,1,105,4,-2,2,2,2,-1,8
118,57,121,1,80,9,-7,2,-5,7,-1,7
119,61,122,1,80,1,4,2,-1,11,1,8
120,64,123,1,80,4,3,2,2,2,1,9
121,62,124,3,95,2,-2,2,0,0,-1,8
122,57,128,1,105,9,-5,2,-5,7,-1,7
123,59,129,1,80,11,2,2,-3,9,1,8
124,61,130,1,80,1,2,2,-1,11,1,9
125,62,131,1,80,2,1,2,0,0,1,10
126,64,132,1,95,4,2,2,2,2,1,11
127,66,133,1,80,6,2,2,4,4,1,12
128,67,134,1,80,7,1,2,5,5,1,13
129,64,135,1,80,4,-3,2,2,2,-1,12
130,66,136,0,105,6,2,2,4,4,1,13
131,64,136,0,80,4,-2,2,2,2,-1,12
132,62,137,0,80,2,-2,2,0,0,-1,11
133,64,138,1,80,4,2,2,2,2,1,12
134,66,139,1,80,6,2,2,4,4,1,13
135,67,140,1,95,7,1,2,5,5,1,14
136,69,141,1,80,9,2,2,7,7,1,15
137,71,142,1,80,11,2,2,9,9,1,16
138,73,143,1,80,1,2,2,11,11,1,17
139,74,144,1,105,2,1,2,12,0,1,18
140,73,145,1,80,1,-1,2,11,11,-1,17
141,71,146,1,80,11,-2,2,9,9,-1,16
142,69,147,1,80,9,-2,2,7,7,-1,15
143,71,148,1,95,11,2,2,9,9,1,16
144,73,149,1,80,1,2,2,11,11,1,17
145,74,150,1,80,2,1,2,12,0,1,18
146,76,151,1,80,4,2,2,14,2,1,19
147,78,152,1,105,6,2,2,16,4,1,20
148,74,153,1,80,2,-4,2,12,0,-1,19
149,79,154,1,80,7,5,2,17,5,1,20
150,78,155,1,80,6,-1,2,16,4,-1,19
151,76,156,3,95,4,-2,2,14,2,-1,18
152,69,159,1,80,9,-7,2,7,7,-1,17
153,74,160,1,105,2,5,2,12,0,1,18
154,76,161,1,80,4,2,2,14,2,1,19
155,78,162,1,80,6,2,2,16,4,1,20
156,74,163,1,80,2,-4,2,12,0,-1,19
157,73,164,1,95,1,-1,2,11,11,-1,18
158,74,165,1,80,2,1,2,12,0,1,19
159,69,166,1,80,9,-5,2,7,7,-1,18
160,73,167,1,80,1,4,2,11,11,1,19
161,74,168,1,105,2,1,2,12,0,1,20
162,73,169,1,80,1,-1,2,11,11,-1,19
163,74,170,1,80,2,1,2,12,0,1,20
164,71,171,1,80,11,-3,2,9,9,-1,19
165,69,172,1,95,9,-2,2,7,7,-1,18
166,66,173,1,80,6,-3,2,4,4,-1,17
167,62,174,1,80,2,-4,2,0,0,-1,16
168,66,175,1,80,6,4,2,4,4,1,17
169,67,176,1,105,7,1,2,5,5,1,18
170,69,177,1,80,9,2,2,7,7,1,19
171,71,178,1,80,11,2,2,9,9,1,20
172,67,179,1,80,7,-4,2,5,5,-1,19
173,66,180,1,95,6,-1,2,4,4,-1,18
174,69,181,1,80,9,3,2,7,7,1,19
175,62,182,1,80,2,-7,2,0,0,-1,18
176,66,183,1,80,6,4,2,4,4,1,19
177,64,184,1,105,4,-2,2,2,2,-1,18
178,57,185,1,80,9,-7,2,-5,7,-1,17
179,61,186,1,80,1,4,2,-1,11,1,18
180,64,187,1,80,4,3,2,2,2,1,19
181,62,188,3,95,2,-2,2,0,0,-1,18
182,57,192,1,105,9,-5,2,-5,7,-1,17
183,59,193,1,80,11,2,2,-3,9,1,18
184,61,194,1,80,1,2,2,-1,11,1,19
185,62,195,1,80,2,1,2,0,0,1,20
186,64,196,1,95,4,2,2,2,2,1,21
187,66,197,1,80,6,2,2,4,4,1,22
188,67,198,1,80,7,1,2,5,5,1,23
189,64,199,1,80,4,-3,2,2,2,-1,22
190,66,200,0,105,6,2,2,4,4,1,23
191,64,200,0,80,4,-2,2,2,2,-1,22
192,62,201,0,80,2,-2,2,0,0,-1,21
193,64,202,1,80,4,2,2,2,2,1,22
194,66,203,1,80,6,2,2,4,4,1,23
195,67,204,1,95,7,1,2,5,5,1,24
196,69,205,1,80,9,2,2,7,7,1,25
197,71,206,1,80,11,2,2,9,9,1,26
198,73,207,1,80,1,2,2,11,11,1,27
199,74,208,1,105,2,1,2,12,0,1,28
200,73,209,1,80,1,-1,2,11,11,-1,27
201,71,210,1,80,11,-2,2,9,9,-1,26
202,69,211,1,80,9,-2,2,7,7,-1,25
203,71,212,1,95,11,2,2,9,9,1,26
204,73,213,1,80,1,2,2,11,11,1,27
205,74,214,1,80,2,1,2,12,0,1,28
206,76,215,1,80,4,2,2,14,2,1,29
207,78,216,1,105,6,2,2,16,4,1,30
208,74,217,1,80,2,-4,2,12,0,-1,29
209,79,218,1,80,7,5,2,17,5,1,30
210,78,219,1,80,6,-1,2,16,4,-1,29
211,76,220,3,95,4,-2,2,14,2,-1,28
212,69,223,1,80,9,-7,2,7,7,-1,27
213,74,224,1,105,2,5,2,12,0,1,28
214,76,225,1,80,4,2,2,14,2,1,29
215,78,226,1,80,6,2,2,16,4,1,30
216,74,227,1,80,2,-4,2,12,0,-1,29
217,73,228,1,95,1,-1,2,11,11,-1,28
218,74,229,1,80,2,1,2,12,0,1,29
219,69,230,1,80,9,-5,2,7,7,-1,28
220,73,231,1,80,1,4,2,11,11,1,29
221,74,232,1,105,2,1,2,12,0,1,30
222,73,233,1,80,1,-1,2,11,11,-1,29
223,74,234,1,80,2,1,2,12,0,1,30
224,71,235,1,80,11,-3,2,9,9,-1,29
225,69,236,1,95,9,-2,2,7,7,-1,28
226,66,237,1,80,6,-3,2,4,4,-1,27
227,62,238,1,80,2,-4,2,0,0,-1,26
228,66,239,1,80,6,4,2,4,4,1,27
229,67,240,1,105,7,1,2,5,5,1,28
230,69,241,1,80,9,2,2,7,7,1,29
231,71,242,1,80,11,2,2,9,9,1,30
232,67,243,1,80,7,-4,2,5,5,-1,29
233,66,244,1,95,6,-1,2,4,4,-1,28
234,69,245,1,80,9,3,2,7,7,1,29
235,62,246,1,80,2,-7,2,0,0,-1,28
236,66,247,1,80,6,4,2,4,4,1,29
237,64,248,1,105,4,-2,2,2,2,-1,28
238,57,249,1,80,9,-7,2,-5,7,-1,27
239,61,250,1,80,1,4,2,-1,11,1,28
240,64,251,1,80,4,3,2,2,2,1,29
241,62,252,3,95,2,-2,2,0,0,-1,28
