,midi_note,onset,duration,velocity,pitch_class,interval,root,relative_pitch,relative_pitch_class,parsons_code,parsons_cumsum
0,62,0,1,105,2,0,7,-5,7,0,0
1,67,1,2,105,7,5,7,0,0,1,1
2,69,3,1,80,9,2,7,2,2,1,2
3,71,4,1,95,11,2,7,4,4,1,3
4,72,5,1,80,0,1,7,5,5,1,4
5,69,6,1,80,9,-3,7,2,2,-1,3
6,71,7,1,105,11,2,7,4,4,1,4
7,67,8,1,80,7,-4,7,0,0,-1,3
8,67,9,1,80,7,0,7,0,0,0,3
9,67,10,1,95,7,0,7,0,0,0,3
10,71,11,1,80,11,4,7,4,4,1,4
11,72,12,1,80,0,1,7,5,5,1,5
12,74,13,1,105,2,2,7,7,7,1,6
13,71,14,1,80,11,-3,7,4,4,-1,5
14,67,15,1,80,7,-4,7,0,0,-1,4
15,66,16,1,95,6,-1,7,-1,11,-1,3
16,67,17,1,80,7,1,7,0,0,1,4
17,69,18,1,80,9,2,7,2,2,1,5
18,66,19,1,105,6,-3,7,-1,11,-1,4
19,62,20,1,80,2,-4,7,-5,7,-1,3
20,60,21,1,80,0,-2,7,-7,5,-1,2
21,62,22,1,95,2,2,7,-5,7,1,3
22,64,23,1,80,4,2,7,-3,9,1,4
23,66,24,1,80,6,2,7,-1,11,1,5
24,67,25,2,105,7,1,7,0,0,1,6
25,69,27,1,80,9,2,7,2,2,1,7
26,71,28,1,95,11,2,7,4,4,1,8
27,72,29,1,80,0,1,7,5,5,1,9
28,69,30,1,80,9,-3,7,2,2,-1,8
29,71,31,1,105,11,2,7,4,4,1,9
30,67,32,1,80,7,-4,7,0,0,-1,8
31,67,33,1,80,7,0,7,0,0,0,8
32,78,34,1,95,6,11,7,11,11,1,9
33,76,35,1,80,4,-2,7,9,9,-1,8
34,74,36,1,80,2,-2,7,7,7,-1,7
35,72,37,1,105,0,-2,7,5,5,-1,6
36,69,38,1,80,9,-3,7,2,2,-1,5
37,67,39,1,80,7,-2,7,0,0,-1,4
38,66,40,1,95,6,-1,7,-1,11,-1,3
39,67,41,1,80,7,1,7,0,0,1,4
40,69,42,1,80,9,2,7,2,2,1,5
41,71,43,1,105,11,2,7,4,4,1,6
42,67,44,1,80,7,-4,7,0,0,-1,5
43,67,45,1,80,7,0,7,0,0,0,5
44,67,46,2,95,7,0,7,0,0,0,5
45,62,48,1,80,2,-5,7,-5,7,-1,4
46,67,49,2,105,7,5,7,0,0,1,5
47,69,51,1,80,9,2,7,2,2,1,6
48,71,52,1,95,11,2,7,4,4,1,7
49,72,53,1,80,0,1,7,5,5,1,8
50,69,54,1,80,9,-3,7,2,2,-1,7
51,71,55,1,105,11,2,7,4,4,1,8
52,67,56,1,80,7,-4,7,0,0,-1,7
53,67,57,1,80,7,0,7,0,0,0,7
54,67,58,1,95,7,0,7,0,0,0,7
55,71,59,1,80,11,4,7,4,4,1,8
56,72,60,1,80,0,1,7,5,5,1,9
57,74,61,1,105,2,2,7,7,7,1,10
58,71,62,1,80,11,-3,7,4,4,-1,9
59,67,63,1,80,7,-4,7,0,0,-1,8
60,66,64,1,95,6,-1,7,-1,11,-1,7
61,67,65,1,80,7,1,7,0,0,1,8
62,69,66,1,80,9,2,7,2,2,1,9
63,66,67,1,105,6,-3,7,-1,11,-1,8
64,62,68,1,80,2,-4,7,-5,7,-1,7
65,60,69,1,80,0,-2,7,-7,5,-1,6
66,62,70,1,95,2,2,7,-5,7,1,7
67,64,71,1,80,4,2,7,-3,9,1,8
68,66,72,1,80,6,2,7,-1,11,1,9
69,67,73,2,105,7,1,7,0,0,1,10
70,69,75,1,80,9,2,7,2,2,1,11
71,71,76,1,95,11,2,7,4,4,1,12
72,72,77,1,80,0,1,7,5,5,1,13
73,69,78,1,80,9,-3,7,2,2,-1,12
74,71,79,1,105,11,2,7,4,4,1,13
75,67,80,1,80,7,-4,7,0,0,-1,12
76,67,81,1,80,7,0,7,0,0,0,12
77,78,82,1,95,6,11,7,11,11,1,13
78,76,83,1,80,4,-2,7,9,9,-1,12
79,74,84,1,80,2,-2,7,7,7,-1,11
80,72,85,1,105,0,-2,7,5,5,-1,10
81,69,86,1,80,9,-3,7,2,2,-1,9
82,67,87,1,80,7,-2,7,0,0,-1,8
83,66,88,1,95,6,-1,7,-1,11,-1,7
84,67,89,1,80,7,1,7,0,0,1,8
85,69,90,1,80,9,2,7,2,2,1,9
86,71,91,1,105,11,2,7,4,4,1,10
87,67,92,1,80,7,-4,7,0,0,-1,9
88,67,93,1,80,7,0,7,0,0,0,9
89,67,94,1,95,7,0,7,0,0,0,9
90,71,95,1,80,11,4,7,4,4,1,10
91,74,96,1,80,2,3,7,7,7,1,11
92,78,97,1,105,6,4,7,11,11,1,12
93,79,98,1,80,7,1,7,12,0,1,13
94,81,99,1,80,9,2,7,14,2,1,14
95,78,100,1,95,6,-3,7,11,11,-1,13
96,74,101,1,80,2,-4,7,7,7,-1,12
97,72,102,1,105,0,-2,7,5,5,-1,11
98,71,103,1,80,11,-1,7,4,4,-1,10
99,72,104,1,80,0,1,7,5,5,1,11
100,74,105,1,95,2,2,7,7,7,1,12
101,71,106,1,80,11,-3,7,4,4,-1,11
102,67,107,1,80,7,-4,7,0,0,-1,10
103,79,108,1,105,7,12,7,12,0,1,11
104,81,109,1,80,9,2,7,14,2,1,12
105,83,110,1,80,11,2,7,16,4,1,13
106,81,111,1,95,9,-2,7,14,2,-1,12
107,78,112,1,80,6,-3,7,11,11,-1,11
108,74,113,1,80,2,-4,7,7,7,-1,10
109,72,114,1,105,0,-2,7,5,5,-1,9
110,71,115,1,80,11,-1,7,4,4,-1,8
111,72,116,1,80,0,1,7,5,5,1,9
112,74,117,1,95,2,2,7,7,7,1,10
113,76,118,1,80,4,2,7,9,9,1,11
114,78,119,1,80,6,2,7,11,11,1,12
115,79,120,1,105,7,1,7,12,0,1,13
116,76,121,1,80,4,-3,7,9,9,-1,12
117,79,122,1,80,7,3,7,12,0,1,13
118,78,123,1,95,6,-1,7,11,11,-1,12
119,74,124,1,80,2,-4,7,7,7,-1,11
120,78,125,1,80,6,4,7,11,11,1,12
121,76,126,1,105,4,-2,7,9,9,-1,11
122,72,127,1,80,0,-4,7,5,5,-1,10
123,76,128,1,80,4,4,7,9,9,1,11
124,79,129,1,95,7,3,7,12,0,1,12
125,78,130,1,80,6,-1,7,11,11,-1,11
126,76,131,1,80,4,-2,7,9,9,-1,10
127,74,132,1,105,2,-2,7,7,7,-1,9
128,76,133,1,80,4,2,7,9,9,1,10
129,74,134,1,80,2,-2,7,7,7,-1,9
130,72,135,1,95,0,-2,7,5,5,-1,8
131,71,136,1,80,11,-1,7,4,4,-1,7
132,69,137,1,80,9,-2,7,2,2,-1,6
133,71,138,1,105,11,2,7,4,4,1,7
134,67,139,1,80,7,-4,7,0,0,-1,6
135,67,140,1,80,7,0,7,0,0,0,6
136,67,141,1,95,7,0,7,0,0,0,6
137,71,142,1,80,11,4,7,4,4,1,7
138,74,143,1,80,2,3,7,7,7,1,8
139,78,144,1,105,6,4,7,11,11,1,9
140,79,145,1,80,7,1,7,12,0,1,10
141,81,146,1,80,9,2,7,14,2,1,11
142,78,147,1,95,6,-3,7,11,11,-1,10
143,74,148,1,80,2,-4,7,7,7,-1,9
144,72,149,1,105,0,-2,7,5,5,-1,8
145,71,150,1,80,11,-1,7,4,4,-1,7
146,72,151,1,80,0,1,7,5,5,1,8
147,74,152,1,95,2,2,7,7,7,1,9
148,71,153,1,80,11,-3,7,4,4,-1,8
149,67,154,1,80,7,-4,7,0,0,-1,7
150,79,155,1,105,7,12,7,12,0,1,8
151,81,156,1,80,9,2,7,14,2,1,9
152,83,157,1,80,11,2,7,16,4,1,10
153,81,158,1,95,9,-2,7,14,2,-1,9
154,78,159,1,80,6,-3,7,11,11,-1,8
155,74,160,1,80,2,-4,7,7,7,-1,7
156,72,161,1,105,0,-2,7,5,5,-1,6
157,71,162,1,80,11,-1,7,4,4,-1,5
158,72,163,1,80,0,1,7,5,5,1,6
159,74,164,1,95,2,2,7,7,7,1,7
160,76,165,1,80,4,2,7,9,9,1,8
161,78,166,1,80,6,2,7,11,11,1,9
162,79,167,1,105,7,1,7,12,0,1,10
163,76,168,1,80,4,-3,7,9,9,-1,9
164,79,169,1,80,7,3,7,12,0,1,10
165,78,170,1,95,6,-1,7,11,11,-1,9
166,74,171,1,80,2,-4,7,7,7,-1,8
167,78,172,1,80,6,4,7,11,11,1,9
168,76,173,1,105,4,-2,7,9,9,-1,8
169,72,174,1,80,0,-4,7,5,5,-1,7
170,76,175,1,80,4,4,7,9,9,1,8
171,79,176,1,95,7,3,7,12,0,1,9
172,78,177,1,80,6,-1,7,11,11,-1,8
173,76,178,1,80,4,-2,7,9,9,-1,7
174,74,179,1,105,2,-2,7,7,7,-1,6
175,76,180,1,80,4,2,7,9,9,1,7
176,74,181,1,80,2,-2,7,7,7,-1,6
177,72,182,1,95,0,-2,7,5,5,-1,5
178,71,183,1,80,11,-1,7,4,4,-1,4
179,69,184,1,80,9,-2,7,2,2,-1,3
180,71,185,1,105,11,2,7,4,4,1,4
181,67,186,1,80,7,-4,7,0,0,-1,3
182,67,187,1,80,7,0,7,0,0,0,3
183,67,188,9,95,7,0,7,0,0,0,3
