,midi_note,onset,duration,velocity,pitch_class,interval,root,relative_pitch,relative_pitch_class,parsons_code,parsons_cumsum
0,69,0,1,105,9,0,9,0,0,0,0
1,64,1,1,105,4,-5,9,-5,7,-1,-1
2,69,2,1,80,9,5,9,0,0,1,0
3,69,3,1,80,9,0,9,0,0,0,0
4,67,4,1,80,7,-2,9,-2,10,-1,-1
5,69,5,1,95,9,2,9,0,0,1,0
6,71,6,1,80,11,2,9,2,2,1,1
7,72,7,1,80,0,1,9,3,3,1,2
8,74,8,1,80,2,2,9,5,5,1,3
9,76,9,1,105,4,2,9,7,7,1,4
10,81,10,1,80,9,5,9,12,0,1,5
11,81,11,1,80,9,0,9,12,0,0,5
12,78,12,1,80,6,-3,9,9,9,-1,4
13,79,13,1,95,7,1,9,10,10,1,5
14,76,14,1,80,4,-3,9,7,7,-1,4
15,74,15,1,80,2,-2,9,5,5,-1,3
16,71,16,1,80,11,-3,9,2,2,-1,2
17,72,17,3,105,0,1,9,3,3,1,3
18,69,20,1,80,9,-3,9,0,0,-1,2
19,71,21,1,95,11,2,9,2,2,1,3
20,67,22,1,80,7,-4,9,-2,10,-1,2
21,67,23,2,80,7,0,9,-2,10,0,2
22,69,25,1,105,9,2,9,0,0,1,3
23,72,26,1,80,0,3,9,3,3,1,4
24,71,27,1,80,11,-1,9,2,2,-1,3
25,69,28,1,80,9,-2,9,0,0,-1,2
26,67,29,1,95,7,-2,9,-2,10,-1,1
27,64,30,1,80,4,-3,9,-5,7,-1,0
28,62,31,1,80,2,-2,9,-7,5,-1,-1
29,69,32,0,80,9,7,9,0,0,1,0
30,64,33,1,105,4,-5,9,-5,7,-1,-1
31,69,34,1,80,9,5,9,0,0,1,0
32,69,35,1,80,9,0,9,0,0,0,0
33,67,36,1,80,7,-2,9,-2,10,-1,-1
34,69,37,1,95,9,2,9,0,0,1,0
35,71,38,1,80,11,2,9,2,2,1,1
36,72,39,1,80,0,1,9,3,3,1,2
37,74,40,1,80,2,2,9,5,5,1,3
38,76,41,1,105,4,2,9,7,7,1,4
39,81,42,1,80,9,5,9,12,0,1,5
40,81,43,1,80,9,0,9,12,0,0,5
41,78,44,1,80,6,-3,9,9,9,-1,4
42,79,45,1,95,7,1,9,10,10,1,5
43,76,46,1,80,4,-3,9,7,7,-1,4
44,74,47,1,80,2,-2,9,5,5,-1,3
45,71,48,1,80,11,-3,9,2,2,-1,2
46,72,49,1,105,0,1,9,3,3,1,3
47,71,50,1,80,11,-1,9,2,2,-1,2
48,72,51,1,80,0,1,9,3,3,1,3
49,74,52,1,80,2,2,9,5,5,1,4
50,76,53,1,95,4,2,9,7,7,1,5
51,78,54,1,80,6,2,9,9,9,1,6
52,79,55,1,80,7,1,9,10,10,1,7
53,76,56,1,80,4,-3,9,7,7,-1,6
54,74,57,1,105,2,-2,9,5,5,-1,5
55,71,58,1,80,11,-3,9,2,2,-1,4
56,67,59,1,80,7,-4,9,-2,10,-1,3
57,72,60,1,80,0,5,9,3,3,1,4
58,69,61,3,95,9,-3,9,0,0,-1,3
59,69,64,1,80,9,0,9,0,0,0,3
60,64,65,1,105,4,-5,9,-5,7,-1,2
61,69,66,1,80,9,5,9,0,0,1,3
62,69,67,1,80,9,0,9,0,0,0,3
63,67,68,1,80,7,-2,9,-2,10,-1,2
64,69,69,1,95,9,2,9,0,0,1,3
65,71,70,1,80,11,2,9,2,2,1,4
66,72,71,1,80,0,1,9,3,3,1,5
67,74,72,1,80,2,2,9,5,5,1,6
68,76,73,1,105,4,2,9,7,7,1,7
69,81,74,1,80,9,5,9,12,0,1,8
70,81,75,1,80,9,0,9,12,0,0,8
71,78,76,1,80,6,-3,9,9,9,-1,7
72,79,77,1,95,7,1,9,10,10,1,8
73,76,78,1,80,4,-3,9,7,7,-1,7
74,74,79,1,80,2,-2,9,5,5,-1,6
75,71,80,1,80,11,-3,9,2,2,-1,5
76,72,81,3,105,0,1,9,3,3,1,6
77,69,84,1,80,9,-3,9,0,0,-1,5
78,71,85,1,95,11,2,9,2,2,1,6
79,67,86,1,80,7,-4,9,-2,10,-1,5
80,67,87,2,80,7,0,9,-2,10,0,5
81,69,89,1,105,9,2,9,0,0,1,6
82,72,90,1,80,0,3,9,3,3,1,7
83,71,91,1,80,11,-1,9,2,2,-1,6
84,69,92,1,80,9,-2,9,0,0,-1,5
85,67,93,1,95,7,-2,9,-2,10,-1,4
86,64,94,1,80,4,-3,9,-5,7,-1,3
87,62,95,1,80,2,-2,9,-7,5,-1,2
88,69,96,0,80,9,7,9,0,0,1,3
89,64,97,1,105,4,-5,9,-5,7,-1,2
90,69,98,1,80,9,5,9,0,0,1,3
91,69,99,1,80,9,0,9,0,0,0,3
92,67,100,1,80,7,-2,9,-2,10,-1,2
93,69,101,1,95,9,2,9,0,0,1,3
94,71,102,1,80,11,2,9,2,2,1,4
95,72,103,1,80,0,1,9,3,3,1,5
96,74,104,1,80,2,2,9,5,5,1,6
97,76,105,1,105,4,2,9,7,7,1,7
98,81,106,1,80,9,5,9,12,0,1,8
99,81,107,1,80,9,0,9,12,0,0,8
100,78,108,1,80,6,-3,9,9,9,-1,7
101,79,109,1,95,7,1,9,10,10,1,8
102,76,110,1,80,4,-3,9,7,7,-1,7
103,74,111,1,80,2,-2,9,5,5,-1,6
104,71,112,1,80,11,-3,9,2,2,-1,5
105,72,113,1,105,0,1,9,3,3,1,6
106,71,114,1,80,11,-1,9,2,2,-1,5
107,72,115,1,80,0,1,9,3,3,1,6
108,74,116,1,80,2,2,9,5,5,1,7
109,76,117,1,95,4,2,9,7,7,1,8
110,78,118,1,80,6,2,9,9,9,1,9
111,79,119,1,80,7,1,9,10,10,1,10
112,76,120,1,80,4,-3,9,7,7,-1,9
113,74,121,1,105,2,-2,9,5,5,-1,8
114,71,122,1,80,11,-3,9,2,2,-1,7
115,67,123,1,80,7,-4,9,-2,10,-1,6
116,72,124,1,80,0,5,9,3,3,1,7
117,69,125,3,95,9,-3,9,0,0,-1,6
118,74,128,1,80,2,5,9,5,5,1,7
119,76,129,1,105,4,2,9,7,7,1,8
120,81,130,1,80,9,5,9,12,0,1,9
121,81,131,1,80,9,0,9,12,0,0,9
122,79,132,1,80,7,-2,9,10,10,-1,8
123,81,133,3,95,9,2,9,12,0,1,9
124,83,136,1,80,11,2,9,14,2,1,10
125,81,137,2,105,9,-2,9,12,0,-1,9
126,83,139,1,80,11,2,9,14,2,1,10
127,81,140,1,80,9,-2,9,12,0,-1,9
128,79,141,1,95,7,-2,9,10,10,-1,8
129,76,142,1,80,4,-3,9,7,7,-1,7
130,74,143,1,80,2,-2,9,5,5,-1,6
131,71,144,1,80,11,-3,9,2,2,-1,5
132,72,145,3,105,0,1,9,3,3,1,6
133,69,148,1,80,9,-3,9,0,0,-1,5
134,71,149,3,95,11,2,9,2,2,1,6
135,67,152,1,80,7,-4,9,-2,10,-1,5
136,69,153,1,105,9,2,9,0,0,1,6
137,72,154,1,80,0,3,9,3,3,1,7
138,71,155,1,80,11,-1,9,2,2,-1,6
139,69,156,1,80,9,-2,9,0,0,-1,5
140,67,157,1,95,7,-2,9,-2,10,-1,4
141,64,158,1,80,4,-3,9,-5,7,-1,3
142,62,159,1,80,2,-2,9,-7,5,-1,2
143,74,160,0,80,2,12,9,5,5,1,3
144,76,161,1,105,4,2,9,7,7,1,4
145,81,162,1,80,9,5,9,12,0,1,5
146,81,163,2,80,9,0,9,12,0,0,5
147,83,165,1,95,11,2,9,14,2,1,6
148,81,166,1,80,9,-2,9,12,0,-1,5
149,79,167,1,80,7,-2,9,10,10,-1,4
150,83,168,1,80,11,4,9,14,2,1,5
151,81,169,1,105,9,-2,9,12,0,-1,4
152,79,170,1,80,7,-2,9,10,10,-1,3
153,76,171,1,80,4,-3,9,7,7,-1,2
154,78,172,1,80,6,2,9,9,9,1,3
155,79,173,1,95,7,1,9,10,10,1,4
156,78,174,1,80,6,-1,9,9,9,-1,3
157,79,175,1,80,7,1,9,10,10,1,4
158,81,176,1,80,9,2,9,12,0,1,5
159,83,177,1,105,11,2,9,14,2,1,6
160,79,178,1,80,7,-4,9,10,10,-1,5
161,81,179,1,80,9,2,9,12,0,1,6
162,78,180,1,80,6,-3,9,9,9,-1,5
163,79,181,0,95,7,1,9,10,10,1,6
164,78,181,0,80,6,-1,9,9,9,-1,5
165,76,182,0,80,4,-2,9,7,7,-1,4
166,74,183,1,80,2,-2,9,5,5,-1,3
167,71,184,1,80,11,-3,9,2,2,-1,2
168,69,185,1,105,9,-2,9,0,0,-1,1
169,72,186,1,80,0,3,9,3,3,1,2
170,71,187,1,80,11,-1,9,2,2,-1,1
171,67,188,1,80,7,-4,9,-2,10,-1,0
172,69,189,3,95,9,2,9,0,0,1,1
173,74,192,1,80,2,5,9,5,5,1,2
174,76,193,1,105,4,2,9,7,7,1,3
175,81,194,1,80,9,5,9,12,0,1,4
176,81,195,1,80,9,0,9,12,0,0,4
177,79,196,1,80,7,-2,9,10,10,-1,3
178,81,197,3,95,9,2,9,12,0,1,4
179,83,200,1,80,11,2,9,14,2,1,5
180,81,201,2,105,9,-2,9,12,0,-1,4
181,83,203,1,80,11,2,9,14,2,1,5
182,81,204,1,80,9,-2,9,12,0,-1,4
183,79,205,1,95,7,-2,9,10,10,-1,3
184,76,206,1,80,4,-3,9,7,7,-1,2
185,74,207,1,80,2,-2,9,5,5,-1,1
186,71,208,1,80,11,-3,9,2,2,-1,0
187,72,209,3,105,0,1,9,3,3,1,1
188,69,212,1,80,9,-3,9,0,0,-1,0
189,71,213,3,95,11,2,9,2,2,1,1
190,67,216,1,80,7,-4,9,-2,10,-1,0
191,69,217,1,105,9,2,9,0,0,1,1
192,72,218,1,80,0,3,9,3,3,1,2
193,71,219,1,80,11,-1,9,2,2,-1,1
194,69,220,1,80,9,-2,9,0,0,-1,0
195,67,221,1,95,7,-2,9,-2,10,-1,-1
196,64,222,1,80,4,-3,9,-5,7,-1,-2
197,62,223,1,80,2,-2,9,-7,5,-1,-3
198,74,224,0,80,2,12,9,5,5,1,-2
199,76,225,1,105,4,2,9,7,7,1,-1
200,81,226,1,80,9,5,9,12,0,1,0
201,81,227,2,80,9,0,9,12,0,0,0
202,83,229,1,95,11,2,9,14,2,1,1
203,81,230,1,80,9,-2,9,12,0,-1,0
204,79,231,1,80,7,-2,9,10,10,-1,-1
205,83,232,1,80,11,4,9,14,2,1,0
206,81,233,1,105,9,-2,9,12,0,-1,-1
207,79,234,1,80,7,-2,9,10,10,-1,-2
208,76,235,1,80,4,-3,9,7,7,-1,-3
209,78,236,1,80,6,2,9,9,9,1,-2
210,79,237,1,95,7,1,9,10,10,1,-1
211,78,238,1,80,6,-1,9,9,9,-1,-2
212,79,239,1,80,7,1,9,10,10,1,-1
213,81,240,1,80,9,2,9,12,0,1,0
214,83,241,1,105,11,2,9,14,2,1,1
215,79,242,1,80,7,-4,9,10,10,-1,0
216,81,243,1,80,9,2,9,12,0,1,1
217,78,244,1,80,6,-3,9,9,9,-1,0
218,79,245,0,95,7,1,9,10,10,1,1
219,78,245,0,80,6,-1,9,9,9,-1,0
220,76,246,0,80,4,-2,9,7,7,-1,-1
221,74,247,1,80,2,-2,9,5,5,-1,-2
222,71,248,1,80,11,-3,9,2,2,-1,-3
223,69,249,1,105,9,-2,9,0,0,-1,-4
224,72,250,1,80,0,3,9,3,3,1,-3
225,71,251,1,80,11,-1,9,2,2,-1,-4
226,67,252,1,80,7,-4,9,-2,10,-1,-5
227,69,253,3,95,9,2,9,0,0,1,-4
