,midi_note,onset,duration,velocity,pitch_class,interval,root,relative_pitch,relative_pitch_class,parsons_code,parsons_cumsum
0,71,0,1,105,11,0,7,4,4,0,0
1,69,1,1,80,9,-2,7,2,2,-1,-1
2,67,2,2,105,7,-2,7,0,0,-1,-2
3,71,4,1,80,11,4,7,4,4,1,-1
4,67,5,1,80,7,-4,7,0,0,-1,-2
5,64,6,1,80,4,-3,7,-3,9,-1,-3
6,66,7,1,80,6,2,7,-1,11,1,-2
7,67,8,1,80,7,1,7,0,0,1,-1
8,69,9,1,80,9,2,7,2,2,1,0
9,71,10,1,105,11,2,7,4,4,1,1
10,72,11,1,80,0,1,7,5,5,1,2
11,71,12,1,80,11,-1,7,4,4,-1,1
12,69,13,1,80,9,-2,7,2,2,-1,0
13,71,14,1,80,11,2,7,4,4,1,1
14,72,15,1,80,0,1,7,5,5,1,2
15,71,16,1,80,11,-1,7,4,4,-1,1
16,69,17,1,80,9,-2,7,2,2,-1,0
17,67,18,1,105,7,-2,7,0,0,-1,-1
18,69,19,1,80,9,2,7,2,2,1,0
19,71,20,1,80,11,2,7,4,4,1,1
20,67,21,1,80,7,-4,7,0,0,-1,0
21,64,22,1,80,4,-3,7,-3,9,-1,-1
22,66,23,1,80,6,2,7,-1,11,1,0
23,67,24,1,80,7,1,7,0,0,1,1
24,71,25,1,80,11,4,7,4,4,1,2
25,69,26,2,105,9,-2,7,2,2,-1,1
26,67,28,1,80,7,-2,7,0,0,-1,0
27,64,29,1,80,4,-3,7,-3,9,-1,-1
28,62,30,1,80,2,-2,7,-5,7,-1,-2
29,72,31,1,80,0,10,7,5,5,1,-1
30,71,32,1,80,11,-1,7,4,4,-1,-2
31,69,33,1,80,9,-2,7,2,2,-1,-3
32,67,34,2,105,7,-2,7,0,0,-1,-4
33,71,36,1,80,11,4,7,4,4,1,-3
34,67,37,1,80,7,-4,7,0,0,-1,-4
35,64,38,1,80,4,-3,7,-3,9,-1,-5
36,66,39,1,80,6,2,7,-1,11,1,-4
37,67,40,1,80,7,1,7,0,0,1,-3
38,69,41,1,80,9,2,7,2,2,1,-2
39,71,42,1,105,11,2,7,4,4,1,-1
40,74,43,1,80,2,3,7,7,7,1,0
41,76,44,1,80,4,2,7,9,9,1,1
42,78,45,1,80,6,2,7,11,11,1,2
43,79,46,1,80,7,1,7,12,0,1,3
44,81,47,1,80,9,2,7,14,2,1,4
45,78,48,1,80,6,-3,7,11,11,-1,3
46,79,49,1,80,7,1,7,12,0,1,4
47,76,50,1,105,4,-3,7,9,9,-1,3
48,72,51,1,80,0,-4,7,5,5,-1,2
49,69,52,1,80,9,-3,7,2,2,-1,1
50,67,53,1,80,7,-2,7,0,0,-1,0
51,66,54,1,80,6,-1,7,-1,11,-1,-1
52,69,55,1,80,9,3,7,2,2,1,0
53,74,56,1,80,2,5,7,7,7,1,1
54,72,57,1,80,0,-2,7,5,5,-1,0
55,71,58,1,105,11,-1,7,4,4,-1,-1
56,67,59,1,80,7,-4,7,0,0,-1,-2
57,69,60,1,80,9,2,7,2,2,1,-1
58,66,61,1,80,6,-3,7,-1,11,-1,-2
59,67,62,2,80,7,1,7,0,0,1,-1
60,62,64,0,80,2,-5,7,-5,7,-1,-2
61,64,64,0,80,4,2,7,-3,9,1,-1
62,66,65,0,80,6,2,7,-1,11,1,0
63,67,66,2,105,7,1,7,0,0,1,1
64,71,68,1,80,11,4,7,4,4,1,2
65,67,69,1,80,7,-4,7,0,0,-1,1
66,64,70,1,80,4,-3,7,-3,9,-1,0
67,66,71,1,80,6,2,7,-1,11,1,1
68,67,72,1,80,7,1,7,0,0,1,2
69,69,73,1,80,9,2,7,2,2,1,3
70,71,74,1,105,11,2,7,4,4,1,4
71,72,75,1,80,0,1,7,5,5,1,5
72,71,76,1,80,11,-1,7,4,4,-1,4
73,69,77,1,80,9,-2,7,2,2,-1,3
74,71,78,1,80,11,2,7,4,4,1,4
75,72,79,1,80,0,1,7,5,5,1,5
76,71,80,1,80,11,-1,7,4,4,-1,4
77,69,81,1,80,9,-2,7,2,2,-1,3
78,67,82,1,105,7,-2,7,0,0,-1,2
79,69,83,1,80,9,2,7,2,2,1,3
80,71,84,1,80,11,2,7,4,4,1,4
81,67,85,1,80,7,-4,7,0,0,-1,3
82,64,86,1,80,4,-3,7,-3,9,-1,2
83,66,87,1,80,6,2,7,-1,11,1,3
84,67,88,1,80,7,1,7,0,0,1,4
85,71,89,1,80,11,4,7,4,4,1,5
86,69,90,2,105,9,-2,7,2,2,-1,4
87,67,92,1,80,7,-2,7,0,0,-1,3
88,64,93,1,80,4,-3,7,-3,9,-1,2
89,62,94,1,80,2,-2,7,-5,7,-1,1
90,72,95,1,80,0,10,7,5,5,1,2
91,71,96,1,80,11,-1,7,4,4,-1,1
92,69,97,1,80,9,-2,7,2,2,-1,0
93,67,98,2,105,7,-2,7,0,0,-1,-1
94,71,100,1,80,11,4,7,4,4,1,0
95,67,101,1,80,7,-4,7,0,0,-1,-1
96,64,102,1,80,4,-3,7,-3,9,-1,-2
97,66,103,1,80,6,2,7,-1,11,1,-1
98,67,104,1,80,7,1,7,0,0,1,0
99,69,105,1,80,9,2,7,2,2,1,1
100,71,106,1,105,11,2,7,4,4,1,2
101,74,107,1,80,2,3,7,7,7,1,3
102,76,108,1,80,4,2,7,9,9,1,4
103,78,109,1,80,6,2,7,11,11,1,5
104,79,110,1,80,7,1,7,12,0,1,6
105,81,111,1,80,9,2,7,14,2,1,7
106,78,112,1,80,6,-3,7,11,11,-1,6
107,79,113,1,80,7,1,7,12,0,1,7
108,76,114,1,105,4,-3,7,9,9,-1,6
109,72,115,1,80,0,-4,7,5,5,-1,5
110,69,116,1,80,9,-3,7,2,2,-1,4
111,67,117,1,80,7,-2,7,0,0,-1,3
112,66,118,1,80,6,-1,7,-1,11,-1,2
113,69,119,1,80,9,3,7,2,2,1,3
114,74,120,1,80,2,5,7,7,7,1,4
115,72,121,1,80,0,-2,7,5,5,-1,3
116,71,122,1,105,11,-1,7,4,4,-1,2
117,67,123,1,80,7,-4,7,0,0,-1,1
118,69,124,1,80,9,2,7,2,2,1,2
119,66,125,1,80,6,-3,7,-1,11,-1,1
120,67,126,2,80,7,1,7,0,0,1,2
121,71,128,1,80,11,4,7,4,4,1,3
122,72,129,1,80,0,1,7,5,5,1,4
123,74,130,3,105,2,2,7,7,7,1,5
124,78,133,1,80,6,4,7,11,11,1,6
125,79,134,3,80,7,1,7,12,0,1,7
126,76,137,1,80,4,-3,7,9,9,-1,6
127,74,138,3,105,2,-2,7,7,7,-1,5
128,71,141,1,80,11,-3,7,4,4,-1,4
129,67,142,2,80,7,-4,7,0,0,-1,3
130,69,144,1,80,9,2,7,2,2,1,4
131,67,145,1,80,7,-2,7,0,0,-1,3
132,72,146,2,105,0,5,7,5,5,1,4
133,76,148,1,80,4,4,7,9,9,1,5
134,72,149,1,80,0,-4,7,5,5,-1,4
135,71,150,1,80,11,-1,7,4,4,-1,3
136,72,151,1,80,0,1,7,5,5,1,4
137,74,152,1,80,2,2,7,7,7,1,5
138,71,153,1,80,11,-3,7,4,4,-1,4
139,69,154,2,105,9,-2,7,2,2,-1,3
140,67,156,1,80,7,-2,7,0,0,-1,2
141,64,157,1,80,4,-3,7,-3,9,-1,1
142,62,158,1,80,2,-2,7,-5,7,-1,0
143,72,159,1,80,0,10,7,5,5,1,1
144,71,160,1,80,11,-1,7,4,4,-1,0
145,69,161,1,80,9,-2,7,2,2,-1,-1
146,67,162,2,105,7,-2,7,0,0,-1,-2
147,71,164,1,80,11,4,7,4,4,1,-1
148,67,165,1,80,7,-4,7,0,0,-1,-2
149,64,166,1,80,4,-3,7,-3,9,-1,-3
150,66,167,1,80,6,2,7,-1,11,1,-2
151,67,168,1,80,7,1,7,0,0,1,-1
152,69,169,1,80,9,2,7,2,2,1,0
153,71,170,1,105,11,2,7,4,4,1,1
154,74,171,1,80,2,3,7,7,7,1,2
155,76,172,1,80,4,2,7,9,9,1,3
156,78,173,1,80,6,2,7,11,11,1,4
157,79,174,1,80,7,1,7,12,0,1,5
158,81,175,1,80,9,2,7,14,2,1,6
159,78,176,1,80,6,-3,7,11,11,-1,5
160,79,177,1,80,7,1,7,12,0,1,6
161,76,178,1,105,4,-3,7,9,9,-1,5
162,72,179,1,80,0,-4,7,5,5,-1,4
163,69,180,1,80,9,-3,7,2,2,-1,3
164,67,181,1,80,7,-2,7,0,0,-1,2
165,66,182,1,80,6,-1,7,-1,11,-1,1
166,69,183,1,80,9,3,7,2,2,1,2
167,74,184,1,80,2,5,7,7,7,1,3
168,72,185,1,80,0,-2,7,5,5,-1,2
169,71,186,1,105,11,-1,7,4,4,-1,1
170,67,187,1,80,7,-4,7,0,0,-1,0
171,69,188,1,80,9,2,7,2,2,1,1
172,66,189,1,80,6,-3,7,-1,11,-1,0
173,67,190,2,80,7,1,7,0,0,1,1
174,71,192,1,80,11,4,7,4,4,1,2
175,72,193,1,80,0,1,7,5,5,1,3
176,74,194,3,105,2,2,7,7,7,1,4
177,78,197,1,80,6,4,7,11,11,1,5
178,79,198,3,80,7,1,7,12,0,1,6
179,76,201,1,80,4,-3,7,9,9,-1,5
180,74,202,3,105,2,-2,7,7,7,-1,4
181,71,205,1,80,11,-3,7,4,4,-1,3
182,67,206,2,80,7,-4,7,0,0,-1,2
183,69,208,1,80,9,2,7,2,2,1,3
184,67,209,1,80,7,-2,7,0,0,-1,2
185,72,210,2,105,0,5,7,5,5,1,3
186,76,212,1,80,4,4,7,9,9,1,4
187,72,213,1,80,0,-4,7,5,5,-1,3
188,71,214,1,80,11,-1,7,4,4,-1,2
189,72,215,1,80,0,1,7,5,5,1,3
190,74,216,1,80,2,2,7,7,7,1,4
191,71,217,1,80,11,-3,7,4,4,-1,3
192,69,218,2,105,9,-2,7,2,2,-1,2
193,67,220,1,80,7,-2,7,0,0,-1,1
194,64,221,1,80,4,-3,7,-3,9,-1,0
195,62,222,1,80,2,-2,7,-5,7,-1,-1
196,72,223,1,80,0,10,7,5,5,1,0
197,71,224,1,80,11,-1,7,4,4,-1,-1
198,69,225,1,80,9,-2,7,2,2,-1,-2
199,67,226,2,105,7,-2,7,0,0,-1,-3
200,71,228,1,80,11,4,7,4,4,1,-2
201,67,229,1,80,7,-4,7,0,0,-1,-3
202,64,230,1,80,4,-3,7,-3,9,-1,-4
203,66,231,1,80,6,2,7,-1,11,1,-3
204,67,232,1,80,7,1,7,0,0,1,-2
205,69,233,1,80,9,2,7,2,2,1,-1
206,71,234,1,105,11,2,7,4,4,1,0
207,74,235,1,80,2,3,7,7,7,1,1
208,76,236,1,80,4,2,7,9,9,1,2
209,78,237,1,80,6,2,7,11,11,1,3
210,79,238,1,80,7,1,7,12,0,1,4
211,81,239,1,80,9,2,7,14,2,1,5
212,78,240,1,80,6,-3,7,11,11,-1,4
213,79,241,1,80,7,1,7,12,0,1,5
214,76,242,1,105,4,-3,7,9,9,-1,4
215,72,243,1,80,0,-4,7,5,5,-1,3
216,69,244,1,80,9,-3,7,2,2,-1,2
217,67,245,1,80,7,-2,7,0,0,-1,1
218,66,246,1,80,6,-1,7,-1,11,-1,0
219,69,247,1,80,9,3,7,2,2,1,1
220,74,248,1,80,2,5,7,7,7,1,2
221,72,249,1,80,0,-2,7,5,5,-1,1
222,71,250,1,105,11,-1,7,4,4,-1,0
223,67,251,1,80,7,-4,7,0,0,-1,-1
224,69,252,1,80,9,2,7,2,2,1,0
225,66,253,1,80,6,-3,7,-1,11,-1,-1
226,67,254,12,80,7,1,7,0,0,1,0
