,midi_note,onset,duration,velocity,pitch_class,interval,root,relative_pitch,relative_pitch_class,parsons_code,parsons_cumsum
0,76,0,1,105,4,0,9,7,7,0,0
1,74,1,1,80,2,-2,9,5,5,-1,-1
2,72,2,1,105,0,-2,9,3,3,-1,-2
3,69,3,1,80,9,-3,9,0,0,-1,-3
4,69,4,1,80,9,0,9,0,0,0,-3
5,71,5,1,80,11,2,9,2,2,1,-2
6,72,6,1,95,0,1,9,3,3,1,-1
7,69,7,1,80,9,-3,9,0,0,-1,-2
8,69,8,1,80,9,0,9,0,0,0,-2
9,71,9,1,80,11,2,9,2,2,1,-1
10,72,10,1,105,0,1,9,3,3,1,0
11,69,11,1,80,9,-3,9,0,0,-1,-1
12,69,12,1,80,9,0,9,0,0,0,-1
13,67,13,1,80,7,-2,9,-2,10,-1,-2
14,76,14,2,95,4,9,9,7,7,1,-1
15,76,16,1,80,4,0,9,7,7,0,-1
16,74,17,1,80,2,-2,9,5,5,-1,-2
17,72,18,1,105,0,-2,9,3,3,-1,-3
18,69,19,1,80,9,-3,9,0,0,-1,-4
19,69,20,1,80,9,0,9,0,0,0,-4
20,71,21,1,80,11,2,9,2,2,1,-3
21,72,22,2,95,0,1,9,3,3,1,-2
22,72,24,1,80,0,0,9,3,3,0,-2
23,69,25,1,80,9,-3,9,0,0,-1,-3
24,71,26,1,105,11,2,9,2,2,1,-2
25,67,27,1,80,7,-4,9,-2,10,-1,-3
26,67,28,1,80,7,0,9,-2,10,0,-3
27,71,29,1,80,11,4,9,2,2,1,-2
28,74,30,2,95,2,3,9,5,5,1,-1
29,76,32,1,80,4,2,9,7,7,1,0
30,74,33,1,80,2,-2,9,5,5,-1,-1
31,72,34,1,105,0,-2,9,3,3,-1,-2
32,69,35,1,80,9,-3,9,0,0,-1,-3
33,69,36,1,80,9,0,9,0,0,0,-3
34,71,37,1,80,11,2,9,2,2,1,-2
35,72,38,1,95,0,1,9,3,3,1,-1
36,69,39,1,80,9,-3,9,0,0,-1,-2
37,69,40,1,80,9,0,9,0,0,0,-2
38,71,41,1,80,11,2,9,2,2,1,-1
39,72,42,1,105,0,1,9,3,3,1,0
40,69,43,1,80,9,-3,9,0,0,-1,-1
41,69,44,1,80,9,0,9,0,0,0,-1
42,67,45,1,80,7,-2,9,-2,10,-1,-2
43,76,46,2,95,4,9,9,7,7,1,-1
44,76,48,1,80,4,0,9,7,7,0,-1
45,74,49,1,80,2,-2,9,5,5,-1,-2
46,72,50,1,105,0,-2,9,3,3,-1,-3
47,69,51,1,80,9,-3,9,0,0,-1,-4
48,69,52,1,80,9,0,9,0,0,0,-4
49,71,53,1,80,11,2,9,2,2,1,-3
50,72,54,2,95,0,1,9,3,3,1,-2
51,72,56,1,80,0,0,9,3,3,0,-2
52,69,57,1,80,9,-3,9,0,0,-1,-3
53,71,58,1,105,11,2,9,2,2,1,-2
54,67,59,1,80,7,-4,9,-2,10,-1,-3
55,67,60,1,80,7,0,9,-2,10,0,-3
56,71,61,1,80,11,4,9,2,2,1,-2
57,74,62,4,95,2,3,9,5,5,1,-1
58,72,66,1,105,0,-2,9,3,3,-1,-2
59,74,67,1,80,2,2,9,5,5,1,-1
60,76,68,1,80,4,2,9,7,7,1,0
61,78,69,1,80,6,2,9,9,9,1,1
62,79,70,1,95,7,1,9,10,10,1,2
63,78,71,1,80,6,-1,9,9,9,-1,1
64,76,72,1,80,4,-2,9,7,7,-1,0
65,74,73,1,80,2,-2,9,5,5,-1,-1
66,72,74,1,105,0,-2,9,3,3,-1,-2
67,74,75,1,80,2,2,9,5,5,1,-1
68,76,76,1,80,4,2,9,7,7,1,0
69,78,77,1,80,6,2,9,9,9,1,1
70,76,78,1,95,4,-2,9,7,7,-1,0
71,69,79,1,80,9,-7,9,0,0,-1,-1
72,71,80,1,80,11,2,9,2,2,1,0
73,69,81,1,80,9,-2,9,0,0,-1,-1
74,71,82,0,105,11,2,9,2,2,1,0
75,72,82,0,80,0,1,9,3,3,1,1
76,74,83,0,80,2,2,9,5,5,1,2
77,76,84,1,80,4,2,9,7,7,1,3
78,78,85,1,80,6,2,9,9,9,1,4
79,79,86,1,95,7,1,9,10,10,1,5
80,78,87,1,80,6,-1,9,9,9,-1,4
81,79,88,1,80,7,1,9,10,10,1,5
82,76,89,1,80,4,-3,9,7,7,-1,4
83,74,90,1,105,2,-2,9,5,5,-1,3
84,71,91,1,80,11,-3,9,2,2,-1,2
85,79,92,1,80,7,8,9,10,10,1,3
86,71,93,1,80,11,-8,9,2,2,-1,2
87,74,94,4,95,2,3,9,5,5,1,3
88,72,98,1,105,0,-2,9,3,3,-1,2
89,74,99,1,80,2,2,9,5,5,1,3
90,76,100,1,80,4,2,9,7,7,1,4
91,78,101,1,80,6,2,9,9,9,1,5
92,79,102,1,95,7,1,9,10,10,1,6
93,78,103,1,80,6,-1,9,9,9,-1,5
94,76,104,1,80,4,-2,9,7,7,-1,4
95,74,105,1,80,2,-2,9,5,5,-1,3
96,72,106,1,105,0,-2,9,3,3,-1,2
97,74,107,1,80,2,2,9,5,5,1,3
98,76,108,1,80,4,2,9,7,7,1,4
99,78,109,1,80,6,2,9,9,9,1,5
100,76,110,1,95,4,-2,9,7,7,-1,4
101,69,111,1,80,9,-7,9,0,0,-1,3
102,71,112,1,80,11,2,9,2,2,1,4
103,69,113,1,80,9,-2,9,0,0,-1,3
104,71,114,0,105,11,2,9,2,2,1,4
105,72,114,0,80,0,1,9,3,3,1,5
106,74,115,0,80,2,2,9,5,5,1,6
107,76,116,1,80,4,2,9,7,7,1,7
108,78,117,1,80,6,2,9,9,9,1,8
109,79,118,2,95,7,1,9,10,10,1,9
110,79,120,1,80,7,0,9,10,10,0,9
111,76,121,1,80,4,-3,9,7,7,-1,8
112,74,122,1,105,2,-2,9,5,5,-1,7
113,71,123,1,80,11,-3,9,2,2,-1,6
114,79,124,1,80,7,8,9,10,10,1,7
115,71,125,1,80,11,-8,9,2,2,-1,6
116,74,126,4,95,2,3,9,5,5,1,7
