,midi_note,onset,duration,velocity,pitch_class,interval,root,relative_pitch,relative_pitch_class,parsons_code,parsons_cumsum
0,62,0,2,105,2,0,2,0,0,0,0
1,66,2,0,80,6,4,2,4,4,1,1
2,64,2,0,80,4,-2,2,2,2,-1,0
3,62,3,0,80,2,-2,2,0,0,-1,-1
4,69,4,1,95,9,7,2,7,7,1,0
5,62,5,1,80,2,-7,2,0,0,-1,-1
6,66,6,0,80,6,4,2,4,4,1,0
7,64,6,0,80,4,-2,2,2,2,-1,-1
8,62,7,0,80,2,-2,2,0,0,-1,-2
9,69,8,1,105,9,7,2,7,7,1,-1
10,71,9,1,80,11,2,2,9,9,1,0
11,71,10,1,80,11,0,2,9,9,0,0
12,69,11,1,80,9,-2,2,7,7,-1,-1
13,67,12,1,95,7,-2,2,5,5,-1,-2
14,64,13,1,80,4,-3,2,2,2,-1,-3
15,72,14,1,80,0,8,2,10,10,1,-2
16,64,15,1,80,4,-8,2,2,2,-1,-3
17,62,16,2,105,2,-2,2,0,0,-1,-4
18,66,18,0,80,6,4,2,4,4,1,-3
19,64,18,0,80,4,-2,2,2,2,-1,-4
20,62,19,0,80,2,-2,2,0,0,-1,-5
21,69,20,1,95,9,7,2,7,7,1,-4
22,62,21,1,80,2,-7,2,0,0,-1,-5
23,66,22,1,80,6,4,2,4,4,1,-4
24,69,23,1,80,9,3,2,7,7,1,-3
25,74,24,2,105,2,5,2,12,0,1,-2
26,76,26,1,80,4,2,2,14,2,1,-1
27,74,27,1,80,2,-2,2,12,0,-1,-2
28,72,28,1,95,0,-2,2,10,10,-1,-3
29,69,29,1,80,9,-3,2,7,7,-1,-4
30,67,30,1,80,7,-2,2,5,5,-1,-5
31,64,31,1,80,4,-3,2,2,2,-1,-6
32,62,32,2,105,2,-2,2,0,0,-1,-7
33,66,34,0,80,6,4,2,4,4,1,-6
34,64,34,0,80,4,-2,2,2,2,-1,-7
35,62,35,0,80,2,-2,2,0,0,-1,-8
36,69,36,1,95,9,7,2,7,7,1,-7
37,62,37,1,80,2,-7,2,0,0,-1,-8
38,66,38,0,80,6,4,2,4,4,1,-7
39,64,38,0,80,4,-2,2,2,2,-1,-8
40,62,39,0,80,2,-2,2,0,0,-1,-9
41,69,40,2,105,9,7,2,7,7,1,-8
42,71,42,1,80,11,2,2,9,9,1,-7
43,69,43,1,80,9,-2,2,7,7,-1,-8
44,67,44,1,95,7,-2,2,5,5,-1,-9
45,64,45,1,80,4,-3,2,2,2,-1,-10
46,62,46,1,80,2,-2,2,0,0,-1,-11
47,69,47,1,80,9,7,2,7,7,1,-10
48,72,48,1,105,0,3,2,10,10,1,-9
49,69,49,1,80,9,-3,2,7,7,-1,-10
50,71,50,1,80,11,2,2,9,9,1,-9
51,67,51,1,80,7,-4,2,5,5,-1,-10
52,69,52,3,95,9,2,2,7,7,1,-9
53,71,55,1,80,11,2,2,9,9,1,-8
54,74,56,2,105,2,3,2,12,0,1,-7
55,76,58,1,80,4,2,2,14,2,1,-6
56,74,59,1,80,2,-2,2,12,0,-1,-7
57,72,60,1,95,0,-2,2,10,10,-1,-8
58,69,61,1,80,9,-3,2,7,7,-1,-9
59,67,62,1,80,7,-2,2,5,5,-1,-10
60,64,63,1,80,4,-3,2,2,2,-1,-11
61,62,64,2,105,2,-2,2,0,0,-1,-12
62,66,66,0,80,6,4,2,4,4,1,-11
63,64,66,0,80,4,-2,2,2,2,-1,-12
64,62,67,0,80,2,-2,2,0,0,-1,-13
65,69,68,1,95,9,7,2,7,7,1,-12
66,62,69,1,80,2,-7,2,0,0,-1,-13
67,66,70,0,80,6,4,2,4,4,1,-12
68,64,70,0,80,4,-2,2,2,2,-1,-13
69,62,71,0,80,2,-2,2,0,0,-1,-14
70,69,72,1,105,9,7,2,7,7,1,-13
71,71,73,1,80,11,2,2,9,9,1,-12
72,71,74,1,80,11,0,2,9,9,0,-12
73,69,75,1,80,9,-2,2,7,7,-1,-13
74,67,76,1,95,7,-2,2,5,5,-1,-14
75,64,77,1,80,4,-3,2,2,2,-1,-15
76,72,78,1,80,0,8,2,10,10,1,-14
77,64,79,1,80,4,-8,2,2,2,-1,-15
78,62,80,2,105,2,-2,2,0,0,-1,-16
79,66,82,0,80,6,4,2,4,4,1,-15
80,64,82,0,80,4,-2,2,2,2,-1,-16
81,62,83,0,80,2,-2,2,0,0,-1,-17
82,69,84,1,95,9,7,2,7,7,1,-16
83,62,85,1,80,2,-7,2,0,0,-1,-17
84,66,86,1,80,6,4,2,4,4,1,-16
85,69,87,1,80,9,3,2,7,7,1,-15
86,74,88,2,105,2,5,2,12,0,1,-14
87,76,90,1,80,4,2,2,14,2,1,-13
88,74,91,1,80,2,-2,2,12,0,-1,-14
89,72,92,1,95,0,-2,2,10,10,-1,-15
90,69,93,1,80,9,-3,2,7,7,-1,-16
91,67,94,1,80,7,-2,2,5,5,-1,-17
92,64,95,1,80,4,-3,2,2,2,-1,-18
93,62,96,2,105,2,-2,2,0,0,-1,-19
94,66,98,0,80,6,4,2,4,4,1,-18
95,64,98,0,80,4,-2,2,2,2,-1,-19
96,62,99,0,80,2,-2,2,0,0,-1,-20
97,69,100,1,95,9,7,2,7,7,1,-19
98,62,101,1,80,2,-7,2,0,0,-1,-20
99,66,102,0,80,6,4,2,4,4,1,-19
100,64,102,0,80,4,-2,2,2,2,-1,-20
101,62,103,0,80,2,-2,2,0,0,-1,-21
102,69,104,2,105,9,7,2,7,7,1,-20
103,71,106,1,80,11,2,2,9,9,1,-19
104,69,107,1,80,9,-2,2,7,7,-1,-20
105,67,108,1,95,7,-2,2,5,5,-1,-21
106,64,109,1,80,4,-3,2,2,2,-1,-22
107,62,110,1,80,2,-2,2,0,0,-1,-23
108,69,111,1,80,9,7,2,7,7,1,-22
109,72,112,1,105,0,3,2,10,10,1,-21
110,69,113,1,80,9,-3,2,7,7,-1,-22
111,71,114,1,80,11,2,2,9,9,1,-21
112,67,115,1,80,7,-4,2,5,5,-1,-22
113,69,116,3,95,9,2,2,7,7,1,-21
114,71,119,1,80,11,2,2,9,9,1,-20
115,74,120,2,105,2,3,2,12,0,1,-19
116,76,122,1,80,4,2,2,14,2,1,-18
117,74,123,1,80,2,-2,2,12,0,-1,-19
118,72,124,1,95,0,-2,2,10,10,-1,-20
119,69,125,1,80,9,-3,2,7,7,-1,-21
120,67,126,1,80,7,-2,2,5,5,-1,-22
121,64,127,1,80,4,-3,2,2,2,-1,-23
122,69,128,1,105,9,5,2,7,7,1,-22
123,74,129,1,80,2,5,2,12,0,1,-21
124,76,130,0,80,4,2,2,14,2,1,-20
125,74,130,1,80,2,-2,2,12,0,-1,-21
126,69,132,1,95,9,-5,2,7,7,-1,-22
127,74,133,1,80,2,5,2,12,0,1,-21
128,76,134,0,80,4,2,2,14,2,1,-20
129,74,134,1,80,2,-2,2,12,0,-1,-21
130,69,136,1,105,9,-5,2,7,7,-1,-22
131,74,137,1,80,2,5,2,12,0,1,-21
132,76,138,0,80,4,2,2,14,2,1,-20
133,74,138,1,80,2,-2,2,12,0,-1,-21
134,76,140,1,95,4,2,2,14,2,1,-20
135,74,141,1,80,2,-2,2,12,0,-1,-21
136,71,142,0,80,11,-3,2,9,9,-1,-22
137,72,142,0,80,0,1,2,10,10,1,-21
138,74,143,1,80,2,2,2,12,0,1,-20
139,76,144,1,105,4,2,2,14,2,1,-19
140,81,145,1,80,9,5,2,19,7,1,-18
141,81,146,1,80,9,0,2,19,7,0,-18
142,79,147,1,80,7,-2,2,17,5,-1,-19
143,81,148,3,95,9,2,2,19,7,1,-18
144,81,152,3,105,9,0,2,19,7,0,-18
145,79,155,1,80,7,-2,2,17,5,-1,-19
146,76,156,1,95,4,-3,2,14,2,-1,-20
147,74,157,1,80,2,-2,2,12,0,-1,-21
148,71,158,0,80,11,-3,2,9,9,-1,-22
149,73,158,0,80,1,2,2,11,11,1,-21
150,74,159,1,80,2,1,2,12,0,1,-20
151,76,160,1,105,4,2,2,14,2,1,-19
152,78,161,1,80,6,2,2,16,4,1,-18
153,79,162,1,80,7,1,2,17,5,1,-17
154,76,163,1,80,4,-3,2,14,2,-1,-18
155,81,164,2,95,9,5,2,19,7,1,-17
156,79,166,1,80,7,-2,2,17,5,-1,-18
157,76,167,1,80,4,-3,2,14,2,-1,-19
158,78,168,2,105,6,2,2,16,4,1,-18
159,76,170,1,80,4,-2,2,14,2,-1,-19
160,74,171,1,80,2,-2,2,12,0,-1,-20
161,72,172,1,95,0,-2,2,10,10,-1,-21
162,69,173,1,80,9,-3,2,7,7,-1,-22
163,69,174,2,80,9,0,2,7,7,0,-22
164,72,176,1,105,0,3,2,10,10,1,-21
165,69,177,1,80,9,-3,2,7,7,-1,-22
166,71,178,1,80,11,2,2,9,9,1,-21
167,67,179,1,80,7,-4,2,5,5,-1,-22
168,69,180,3,95,9,2,2,7,7,1,-21
169,71,183,1,80,11,2,2,9,9,1,-20
170,74,184,2,105,2,3,2,12,0,1,-19
171,76,186,1,80,4,2,2,14,2,1,-18
172,74,187,1,80,2,-2,2,12,0,-1,-19
173,72,188,1,95,0,-2,2,10,10,-1,-20
174,69,189,1,80,9,-3,2,7,7,-1,-21
175,74,190,1,80,2,5,2,12,0,1,-20
176,71,191,1,80,11,-3,2,9,9,-1,-21
177,69,192,1,105,9,-2,2,7,7,-1,-22
178,74,193,1,80,2,5,2,12,0,1,-21
179,76,194,0,80,4,2,2,14,2,1,-20
180,74,194,1,80,2,-2,2,12,0,-1,-21
181,69,196,1,95,9,-5,2,7,7,-1,-22
182,74,197,1,80,2,5,2,12,0,1,-21
183,76,198,0,80,4,2,2,14,2,1,-20
184,74,198,1,80,2,-2,2,12,0,-1,-21
185,69,200,1,105,9,-5,2,7,7,-1,-22
186,74,201,1,80,2,5,2,12,0,1,-21
187,76,202,0,80,4,2,2,14,2,1,-20
188,74,202,1,80,2,-2,2,12,0,-1,-21
189,76,204,1,95,4,2,2,14,2,1,-20
190,74,205,1,80,2,-2,2,12,0,-1,-21
191,71,206,0,80,11,-3,2,9,9,-1,-22
192,72,206,0,80,0,1,2,10,10,1,-21
193,74,207,1,80,2,2,2,12,0,1,-20
194,76,208,1,105,4,2,2,14,2,1,-19
195,81,209,1,80,9,5,2,19,7,1,-18
196,81,210,1,80,9,0,2,19,7,0,-18
197,79,211,1,80,7,-2,2,17,5,-1,-19
198,81,212,3,95,9,2,2,19,7,1,-18
199,81,216,3,105,9,0,2,19,7,0,-18
200,79,219,1,80,7,-2,2,17,5,-1,-19
201,76,220,1,95,4,-3,2,14,2,-1,-20
202,74,221,1,80,2,-2,2,12,0,-1,-21
203,71,222,0,80,11,-3,2,9,9,-1,-22
204,73,222,0,80,1,2,2,11,11,1,-21
205,74,223,1,80,2,1,2,12,0,1,-20
206,76,224,1,105,4,2,2,14,2,1,-19
207,78,225,1,80,6,2,2,16,4,1,-18
208,79,226,1,80,7,1,2,17,5,1,-17
209,76,227,1,80,4,-3,2,14,2,-1,-18
210,81,228,2,95,9,5,2,19,7,1,-17
211,79,230,1,80,7,-2,2,17,5,-1,-18
212,76,231,1,80,4,-3,2,14,2,-1,-19
213,78,232,2,105,6,2,2,16,4,1,-18
214,76,234,1,80,4,-2,2,14,2,-1,-19
215,74,235,1,80,2,-2,2,12,0,-1,-20
216,72,236,1,95,0,-2,2,10,10,-1,-21
217,69,237,1,80,9,-3,2,7,7,-1,-22
218,69,238,2,80,9,0,2,7,7,0,-22
219,72,240,1,105,0,3,2,10,10,1,-21
220,69,241,1,80,9,-3,2,7,7,-1,-22
221,71,242,1,80,11,2,2,9,9,1,-21
222,67,243,1,80,7,-4,2,5,5,-1,-22
223,69,244,3,95,9,2,2,7,7,1,-21
224,71,247,1,80,11,2,2,9,9,1,-20
225,74,248,2,105,2,3,2,12,0,1,-19
226,76,250,1,80,4,2,2,14,2,1,-18
227,74,251,1,80,2,-2,2,12,0,-1,-19
228,72,252,1,95,0,-2,2,10,10,-1,-20
229,69,253,1,80,9,-3,2,7,7,-1,-21
230,67,254,1,80,7,-2,2,5,5,-1,-22
231,64,255,1,80,4,-3,2,2,2,-1,-23
232,62,256,8,105,2,-2,2,0,0,-1,-24
