,midi_note,onset,duration,velocity,pitch_class,interval,root,relative_pitch,relative_pitch_class,parsons_code,parsons_cumsum
0,74,3,0,105,2,0,4,10,10,0,0
1,72,3,0,80,0,-2,4,8,8,-1,-1
2,71,4,1,105,11,-1,4,7,7,-1,-2
3,64,5,1,80,4,-7,4,0,0,-1,-3
4,64,6,1,80,4,0,4,0,0,0,-3
5,74,7,1,95,2,10,4,10,10,1,-2
6,64,8,1,80,4,-10,4,0,0,-1,-3
7,64,9,1,80,4,0,4,0,0,0,-3
8,71,10,1,105,11,7,4,7,7,1,-2
9,69,11,1,80,9,-2,4,5,5,-1,-3
10,67,12,1,80,7,-2,4,3,3,-1,-4
11,66,13,1,95,6,-1,4,2,2,-1,-5
12,64,14,1,80,4,-2,4,0,0,-1,-6
13,66,15,1,80,6,2,4,2,2,1,-5
14,62,16,1,105,2,-4,4,-2,10,-1,-6
15,64,17,1,80,4,2,4,0,0,1,-5
16,62,18,1,80,2,-2,4,-2,10,-1,-6
17,66,19,1,95,6,4,4,2,2,1,-5
18,62,20,1,80,2,-4,4,-2,10,-1,-6
19,66,21,1,80,6,4,4,2,2,1,-5
20,69,22,1,105,9,3,4,5,5,1,-4
21,71,23,1,80,11,2,4,7,7,1,-3
22,73,24,1,80,1,2,4,9,9,1,-2
23,74,25,1,95,2,1,4,10,10,1,-1
24,76,26,1,80,4,2,4,12,0,1,0
25,74,27,1,80,2,-2,4,10,10,-1,-1
26,71,28,1,105,11,-3,4,7,7,-1,-2
27,64,29,1,80,4,-7,4,0,0,-1,-3
28,64,30,1,80,4,0,4,0,0,0,-3
29,74,31,1,95,2,10,4,10,10,1,-2
30,64,32,1,80,4,-10,4,0,0,-1,-3
31,64,33,1,80,4,0,4,0,0,0,-3
32,74,34,1,105,2,10,4,10,10,1,-2
33,78,35,1,80,6,4,4,14,2,1,-1
34,81,36,1,80,9,3,4,17,5,1,0
35,79,37,1,95,7,-2,4,15,3,-1,-1
36,78,38,1,80,6,-1,4,14,2,-1,-2
37,76,39,1,80,4,-2,4,12,0,-1,-3
38,78,40,1,105,6,2,4,14,2,1,-2
39,76,41,1,80,4,-2,4,12,0,-1,-3
40,74,42,1,80,2,-2,4,10,10,-1,-4
41,76,43,1,95,4,2,4,12,0,1,-3
42,78,44,1,80,6,2,4,14,2,1,-2
43,81,45,1,80,9,3,4,17,5,1,-1
44,83,46,1,105,11,2,4,19,7,1,0
45,76,47,1,80,4,-7,4,12,0,-1,-1
46,76,48,1,80,4,0,4,12,0,0,-1
47,76,49,2,95,4,0,4,12,0,0,-1
48,74,54,0,105,2,-2,4,10,10,-1,-2
49,72,54,0,80,0,-2,4,8,8,-1,-3
50,71,55,1,105,11,-1,4,7,7,-1,-4
51,64,56,1,80,4,-7,4,0,0,-1,-5
52,64,57,1,80,4,0,4,0,0,0,-5
53,74,58,1,95,2,10,4,10,10,1,-4
54,64,59,1,80,4,-10,4,0,0,-1,-5
55,64,60,1,80,4,0,4,0,0,0,-5
56,71,61,1,105,11,7,4,7,7,1,-4
57,69,62,1,80,9,-2,4,5,5,-1,-5
58,67,63,1,80,7,-2,4,3,3,-1,-6
59,66,64,1,95,6,-1,4,2,2,-1,-7
60,64,65,1,80,4,-2,4,0,0,-1,-8
61,66,66,1,80,6,2,4,2,2,1,-7
62,62,67,1,105,2,-4,4,-2,10,-1,-8
63,64,68,1,80,4,2,4,0,0,1,-7
64,62,69,1,80,2,-2,4,-2,10,-1,-8
65,66,70,1,95,6,4,4,2,2,1,-7
66,62,71,1,80,2,-4,4,-2,10,-1,-8
67,66,72,1,80,6,4,4,2,2,1,-7
68,69,73,1,105,9,3,4,5,5,1,-6
69,71,74,1,80,11,2,4,7,7,1,-5
70,73,75,1,80,1,2,4,9,9,1,-4
71,74,76,1,95,2,1,4,10,10,1,-3
72,76,77,1,80,4,2,4,12,0,1,-2
73,74,78,1,80,2,-2,4,10,10,-1,-3
74,71,79,1,105,11,-3,4,7,7,-1,-4
75,64,80,1,80,4,-7,4,0,0,-1,-5
76,64,81,1,80,4,0,4,0,0,0,-5
77,74,82,1,95,2,10,4,10,10,1,-4
78,64,83,1,80,4,-10,4,0,0,-1,-5
79,64,84,1,80,4,0,4,0,0,0,-5
80,74,85,1,105,2,10,4,10,10,1,-4
81,78,86,1,80,6,4,4,14,2,1,-3
82,81,87,1,80,9,3,4,17,5,1,-2
83,79,88,1,95,7,-2,4,15,3,-1,-3
84,78,89,1,80,6,-1,4,14,2,-1,-4
85,76,90,1,80,4,-2,4,12,0,-1,-5
86,78,91,1,105,6,2,4,14,2,1,-4
87,74,92,1,80,2,-4,4,10,10,-1,-5
88,71,93,1,80,11,-3,4,7,7,-1,-6
89,74,94,1,95,2,3,4,10,10,1,-5
90,69,95,1,80,9,-5,4,5,5,-1,-6
91,67,96,1,80,7,-2,4,3,3,-1,-7
92,66,97,1,105,6,-1,4,2,2,-1,-8
93,64,98,1,80,4,-2,4,0,0,-1,-9
94,64,99,1,80,4,0,4,0,0,0,-9
95,64,100,2,95,4,0,4,0,0,0,-9
96,74,102,1,80,2,10,4,10,10,1,-8
97,76,103,1,105,4,2,4,12,0,1,-7
98,78,104,0,80,6,2,4,14,2,1,-6
99,79,104,0,80,7,1,4,15,3,1,-5
100,76,105,1,80,4,-3,4,12,0,-1,-6
101,78,106,1,95,6,2,4,14,2,1,-5
102,74,107,1,80,2,-4,4,10,10,-1,-6
103,71,108,1,80,11,-3,4,7,7,-1,-7
104,76,109,1,105,4,5,4,12,0,1,-6
105,78,110,0,80,6,2,4,14,2,1,-5
106,79,110,0,80,7,1,4,15,3,1,-4
107,76,111,1,80,4,-3,4,12,0,-1,-5
108,78,112,1,95,6,2,4,14,2,1,-4
109,74,113,1,80,2,-4,4,10,10,-1,-5
110,71,114,1,80,11,-3,4,7,7,-1,-6
111,74,115,1,105,2,3,4,10,10,1,-5
112,76,116,0,80,4,2,4,12,0,1,-4
113,78,116,0,80,6,2,4,14,2,1,-3
114,76,117,1,80,4,-2,4,12,0,-1,-4
115,74,118,1,95,2,-2,4,10,10,-1,-5
116,69,119,1,80,9,-5,4,5,5,-1,-6
117,66,120,1,80,6,-3,4,2,2,-1,-7
118,62,121,1,105,2,-4,4,-2,10,-1,-8
119,66,122,1,80,6,4,4,2,2,1,-7
120,69,123,1,80,9,3,4,5,5,1,-6
121,74,124,1,95,2,5,4,10,10,1,-5
122,76,125,1,80,4,2,4,12,0,1,-4
123,78,126,1,80,6,2,4,14,2,1,-3
124,76,127,1,105,4,-2,4,12,0,-1,-4
125,69,128,1,80,9,-7,4,5,5,-1,-5
126,71,129,1,80,11,2,4,7,7,1,-4
127,74,130,1,95,2,3,4,10,10,1,-3
128,76,131,1,80,4,2,4,12,0,1,-2
129,78,132,1,80,6,2,4,14,2,1,-1
130,79,133,1,105,7,1,4,15,3,1,0
131,83,134,1,80,11,4,4,19,7,1,1
132,81,135,1,80,9,-2,4,17,5,-1,0
133,79,136,1,95,7,-2,4,15,3,-1,-1
134,78,137,1,80,6,-1,4,14,2,-1,-2
135,76,138,1,80,4,-2,4,12,0,-1,-3
136,78,139,1,105,6,2,4,14,2,1,-2
137,76,140,1,80,4,-2,4,12,0,-1,-3
138,74,141,1,80,2,-2,4,10,10,-1,-4
139,76,142,1,95,4,2,4,12,0,1,-3
140,78,143,1,80,6,2,4,14,2,1,-2
141,81,144,1,80,9,3,4,17,5,1,-1
142,83,145,1,105,11,2,4,19,7,1,0
143,76,146,1,80,4,-7,4,12,0,-1,-1
144,76,147,1,80,4,0,4,12,0,0,-1
145,76,148,2,95,4,0,4,12,0,0,-1
146,74,150,1,80,2,-2,4,10,10,-1,-2
147,76,151,1,105,4,2,4,12,0,1,-1
148,78,152,0,80,6,2,4,14,2,1,0
149,79,152,0,80,7,1,4,15,3,1,1
150,76,153,1,80,4,-3,4,12,0,-1,0
151,78,154,1,95,6,2,4,14,2,1,1
152,74,155,1,80,2,-4,4,10,10,-1,0
153,71,156,1,80,11,-3,4,7,7,-1,-1
154,76,157,1,105,4,5,4,12,0,1,0
155,78,158,0,80,6,2,4,14,2,1,1
156,79,158,0,80,7,1,4,15,3,1,2
157,76,159,1,80,4,-3,4,12,0,-1,1
158,78,160,1,95,6,2,4,14,2,1,2
159,74,161,1,80,2,-4,4,10,10,-1,1
160,71,162,1,80,11,-3,4,7,7,-1,0
161,74,163,1,105,2,3,4,10,10,1,1
162,76,164,0,80,4,2,4,12,0,1,2
163,78,164,0,80,6,2,4,14,2,1,3
164,76,165,1,80,4,-2,4,12,0,-1,2
165,74,166,1,95,2,-2,4,10,10,-1,1
166,69,167,1,80,9,-5,4,5,5,-1,0
167,66,168,1,80,6,-3,4,2,2,-1,-1
168,62,169,1,105,2,-4,4,-2,10,-1,-2
169,66,170,1,80,6,4,4,2,2,1,-1
170,69,171,1,80,9,3,4,5,5,1,0
171,74,172,1,95,2,5,4,10,10,1,1
172,76,173,1,80,4,2,4,12,0,1,2
173,78,174,1,80,6,2,4,14,2,1,3
174,76,175,1,105,4,-2,4,12,0,-1,2
175,69,176,1,80,9,-7,4,5,5,-1,1
176,71,177,1,80,11,2,4,7,7,1,2
177,74,178,1,95,2,3,4,10,10,1,3
178,76,179,1,80,4,2,4,12,0,1,4
179,78,180,1,80,6,2,4,14,2,1,5
180,79,181,1,105,7,1,4,15,3,1,6
181,83,182,1,80,11,4,4,19,7,1,7
182,81,183,1,80,9,-2,4,17,5,-1,6
183,79,184,1,95,7,-2,4,15,3,-1,5
184,78,185,1,80,6,-1,4,14,2,-1,4
185,76,186,1,80,4,-2,4,12,0,-1,3
186,78,187,1,105,6,2,4,14,2,1,4
187,74,188,1,80,2,-4,4,10,10,-1,3
188,71,189,1,80,11,-3,4,7,7,-1,2
189,74,190,1,95,2,3,4,10,10,1,3
190,69,191,1,80,9,-5,4,5,5,-1,2
191,67,192,1,80,7,-2,4,3,3,-1,1
192,66,193,1,105,6,-1,4,2,2,-1,0
193,64,194,1,80,4,-2,4,0,0,-1,-1
194,64,195,1,80,4,0,4,0,0,0,-1
195,64,196,2,95,4,0,4,0,0,0,-1
196,62,198,1,80,2,-2,4,-2,10,-1,-2
197,79,199,1,105,7,17,4,15,3,1,-1
198,78,200,1,80,6,-1,4,14,2,-1,-2
199,76,201,1,80,4,-2,4,12,0,-1,-3
200,78,202,1,95,6,2,4,14,2,1,-2
201,76,203,1,80,4,-2,4,12,0,-1,-3
202,74,204,1,80,2,-2,4,10,10,-1,-4
203,76,205,1,105,4,2,4,12,0,1,-3
204,78,206,0,80,6,2,4,14,2,1,-2
205,79,206,0,80,7,1,4,15,3,1,-1
206,76,207,1,80,4,-3,4,12,0,-1,-2
207,74,208,1,95,2,-2,4,10,10,-1,-3
208,69,209,1,80,9,-5,4,5,5,-1,-4
209,67,210,1,80,7,-2,4,3,3,-1,-5
210,66,211,1,105,6,-1,4,2,2,-1,-6
211,62,212,1,80,2,-4,4,-2,10,-1,-7
212,62,213,1,80,2,0,4,-2,10,0,-7
213,69,214,1,95,9,7,4,5,5,1,-6
214,62,215,1,80,2,-7,4,-2,10,-1,-7
215,62,216,1,80,2,0,4,-2,10,0,-7
216,71,217,1,105,11,9,4,7,7,1,-6
217,69,218,1,80,9,-2,4,5,5,-1,-7
218,67,219,1,80,7,-2,4,3,3,-1,-8
219,66,220,1,95,6,-1,4,2,2,-1,-9
220,64,221,1,80,4,-2,4,0,0,-1,-10
221,62,222,1,80,2,-2,4,-2,10,-1,-11
222,79,223,1,105,7,17,4,15,3,1,-10
223,78,224,1,80,6,-1,4,14,2,-1,-11
224,76,225,1,80,4,-2,4,12,0,-1,-12
225,78,226,1,95,6,2,4,14,2,1,-11
226,76,227,1,80,4,-2,4,12,0,-1,-12
227,74,228,1,80,2,-2,4,10,10,-1,-13
228,76,229,1,105,4,2,4,12,0,1,-12
229,78,230,0,80,6,2,4,14,2,1,-11
230,79,230,0,80,7,1,4,15,3,1,-10
231,76,231,1,80,4,-3,4,12,0,-1,-11
232,74,232,1,95,2,-2,4,10,10,-1,-12
233,76,233,1,80,4,2,4,12,0,1,-11
234,79,234,1,80,7,3,4,15,3,1,-10
235,78,235,1,105,6,-1,4,14,2,-1,-11
236,76,236,1,80,4,-2,4,12,0,-1,-12
237,74,237,1,80,2,-2,4,10,10,-1,-13
238,76,238,1,95,4,2,4,12,0,1,-12
239,78,239,1,80,6,2,4,14,2,1,-11
240,81,240,1,80,9,3,4,17,5,1,-10
241,83,241,1,105,11,2,4,19,7,1,-9
242,76,242,1,80,4,-7,4,12,0,-1,-10
243,76,243,1,80,4,0,4,12,0,0,-10
244,76,244,2,95,4,0,4,12,0,0,-10
245,78,246,1,80,6,2,4,14,2,1,-9
246,79,247,1,105,7,1,4,15,3,1,-8
247,78,248,1,80,6,-1,4,14,2,-1,-9
248,76,249,1,80,4,-2,4,12,0,-1,-10
249,78,250,1,95,6,2,4,14,2,1,-9
250,76,251,1,80,4,-2,4,12,0,-1,-10
251,74,252,1,80,2,-2,4,10,10,-1,-11
252,76,253,1,105,4,2,4,12,0,1,-10
253,78,254,0,80,6,2,4,14,2,1,-9
254,79,254,0,80,7,1,4,15,3,1,-8
255,76,255,1,80,4,-3,4,12,0,-1,-9
256,74,256,1,95,2,-2,4,10,10,-1,-10
257,69,257,1,80,9,-5,4,5,5,-1,-11
258,67,258,1,80,7,-2,4,3,3,-1,-12
259,66,259,1,105,6,-1,4,2,2,-1,-13
260,62,260,1,80,2,-4,4,-2,10,-1,-14
261,62,261,1,80,2,0,4,-2,10,0,-14
262,69,262,1,95,9,7,4,5,5,1,-13
263,62,263,1,80,2,-7,4,-2,10,-1,-14
264,62,264,1,80,2,0,4,-2,10,0,-14
265,71,265,1,105,11,9,4,7,7,1,-13
266,69,266,1,80,9,-2,4,5,5,-1,-14
267,67,267,1,80,7,-2,4,3,3,-1,-15
268,66,268,1,95,6,-1,4,2,2,-1,-16
269,64,269,1,80,4,-2,4,0,0,-1,-17
270,62,270,1,80,2,-2,4,-2,10,-1,-18
271,78,271,1,105,6,16,4,14,2,1,-17
272,71,272,1,80,11,-7,4,7,7,-1,-18
273,73,273,1,80,1,2,4,9,9,1,-17
274,74,274,1,95,2,1,4,10,10,1,-16
275,76,275,1,80,4,2,4,12,0,1,-15
276,78,276,1,80,6,2,4,14,2,1,-14
277,79,277,1,105,7,1,4,15,3,1,-13
278,83,278,1,80,11,4,4,19,7,1,-12
279,81,279,1,80,9,-2,4,17,5,-1,-13
280,79,280,1,95,7,-2,4,15,3,-1,-14
281,78,281,1,80,6,-1,4,14,2,-1,-15
282,76,282,1,80,4,-2,4,12,0,-1,-16
283,78,283,1,105,6,2,4,14,2,1,-15
284,74,284,1,80,2,-4,4,10,10,-1,-16
285,71,285,1,80,11,-3,4,7,7,-1,-17
286,74,286,1,95,2,3,4,10,10,1,-16
287,69,287,1,80,9,-5,4,5,5,-1,-17
288,67,288,1,80,7,-2,4,3,3,-1,-18
289,66,289,1,105,6,-1,4,2,2,-1,-19
290,64,290,1,80,4,-2,4,0,0,-1,-20
291,64,291,1,80,4,0,4,0,0,0,-20
292,64,292,2,95,4,0,4,0,0,0,-20
293,62,294,1,80,2,-2,4,-2,10,-1,-21
294,71,295,1,105,11,9,4,7,7,1,-20
295,73,296,0,80,1,2,4,9,9,1,-19
296,74,296,0,80,2,1,4,10,10,1,-18
297,71,297,1,80,11,-3,4,7,7,-1,-19
298,73,298,1,95,1,2,4,9,9,1,-18
299,74,299,0,80,2,1,4,10,10,1,-17
300,76,299,0,80,4,2,4,12,0,1,-16
301,73,300,1,80,1,-3,4,9,9,-1,-17
302,74,301,1,105,2,1,4,10,10,1,-16
303,78,302,1,80,6,4,4,14,2,1,-15
304,76,303,1,80,4,-2,4,12,0,-1,-16
305,74,304,1,95,2,-2,4,10,10,-1,-17
306,69,305,1,80,9,-5,4,5,5,-1,-18
307,67,306,1,80,7,-2,4,3,3,-1,-19
308,66,307,1,105,6,-1,4,2,2,-1,-20
309,62,308,1,80,2,-4,4,-2,10,-1,-21
310,62,309,1,80,2,0,4,-2,10,0,-21
311,69,310,1,95,9,7,4,5,5,1,-20
312,62,311,1,80,2,-7,4,-2,10,-1,-21
313,62,312,1,80,2,0,4,-2,10,0,-21
314,71,313,1,105,11,9,4,7,7,1,-20
315,69,314,1,80,9,-2,4,5,5,-1,-21
316,67,315,1,80,7,-2,4,3,3,-1,-22
317,66,316,1,95,6,-1,4,2,2,-1,-23
318,64,317,1,80,4,-2,4,0,0,-1,-24
319,62,318,1,80,2,-2,4,-2,10,-1,-25
320,71,319,1,105,11,9,4,7,7,1,-24
321,73,320,0,80,1,2,4,9,9,1,-23
322,74,320,0,80,2,1,4,10,10,1,-22
323,71,321,1,80,11,-3,4,7,7,-1,-23
324,73,322,1,95,1,2,4,9,9,1,-22
325,74,323,0,80,2,1,4,10,10,1,-21
326,76,323,0,80,4,2,4,12,0,1,-20
327,73,324,1,80,1,-3,4,9,9,-1,-21
328,74,325,1,105,2,1,4,10,10,1,-20
329,78,326,1,80,6,4,4,14,2,1,-19
330,81,327,1,80,9,3,4,17,5,1,-18
331,79,328,1,95,7,-2,4,15,3,-1,-19
332,78,329,1,80,6,-1,4,14,2,-1,-20
333,76,330,1,80,4,-2,4,12,0,-1,-21
334,78,331,1,105,6,2,4,14,2,1,-20
335,76,332,1,80,4,-2,4,12,0,-1,-21
336,74,333,1,80,2,-2,4,10,10,-1,-22
337,76,334,1,95,4,2,4,12,0,1,-21
338,78,335,1,80,6,2,4,14,2,1,-20
339,81,336,1,80,9,3,4,17,5,1,-19
340,83,337,1,105,11,2,4,19,7,1,-18
341,76,338,1,80,4,-7,4,12,0,-1,-19
342,76,339,1,80,4,0,4,12,0,0,-19
343,76,340,2,95,4,0,4,12,0,0,-19
344,74,342,1,80,2,-2,4,10,10,-1,-20
345,71,343,1,105,11,-3,4,7,7,-1,-21
346,73,344,0,80,1,2,4,9,9,1,-20
347,74,344,0,80,2,1,4,10,10,1,-19
348,71,345,1,80,11,-3,4,7,7,-1,-20
349,73,346,1,95,1,2,4,9,9,1,-19
350,74,347,0,80,2,1,4,10,10,1,-18
351,76,347,0,80,4,2,4,12,0,1,-17
352,73,348,1,80,1,-3,4,9,9,-1,-18
353,74,349,1,105,2,1,4,10,10,1,-17
354,78,350,1,80,6,4,4,14,2,1,-16
355,76,351,1,80,4,-2,4,12,0,-1,-17
356,74,352,1,95,2,-2,4,10,10,-1,-18
357,69,353,1,80,9,-5,4,5,5,-1,-19
358,67,354,1,80,7,-2,4,3,3,-1,-20
359,66,355,1,105,6,-1,4,2,2,-1,-21
360,62,356,1,80,2,-4,4,-2,10,-1,-22
361,62,357,1,80,2,0,4,-2,10,0,-22
362,69,358,1,95,9,7,4,5,5,1,-21
363,62,359,1,80,2,-7,4,-2,10,-1,-22
364,62,360,1,80,2,0,4,-2,10,0,-22
365,71,361,1,105,11,9,4,7,7,1,-21
366,69,362,1,80,9,-2,4,5,5,-1,-22
367,67,363,1,80,7,-2,4,3,3,-1,-23
368,66,364,1,95,6,-1,4,2,2,-1,-24
369,64,365,1,80,4,-2,4,0,0,-1,-25
370,62,366,1,80,2,-2,4,-2,10,-1,-26
371,78,367,1,105,6,16,4,14,2,1,-25
372,71,368,1,80,11,-7,4,7,7,-1,-26
373,73,369,1,80,1,2,4,9,9,1,-25
374,74,370,1,95,2,1,4,10,10,1,-24
375,76,371,1,80,4,2,4,12,0,1,-23
376,78,372,1,80,6,2,4,14,2,1,-22
377,79,373,1,105,7,1,4,15,3,1,-21
378,83,374,1,80,11,4,4,19,7,1,-20
379,81,375,1,80,9,-2,4,17,5,-1,-21
380,79,376,1,95,7,-2,4,15,3,-1,-22
381,78,377,1,80,6,-1,4,14,2,-1,-23
382,76,378,1,80,4,-2,4,12,0,-1,-24
383,78,379,1,105,6,2,4,14,2,1,-23
384,74,380,1,80,2,-4,4,10,10,-1,-24
385,71,381,1,80,11,-3,4,7,7,-1,-25
386,74,382,1,95,2,3,4,10,10,1,-24
387,69,383,1,80,9,-5,4,5,5,-1,-25
388,67,384,1,80,7,-2,4,3,3,-1,-26
389,66,385,1,105,6,-1,4,2,2,-1,-27
390,64,386,1,80,4,-2,4,0,0,-1,-28
391,64,387,1,80,4,0,4,0,0,0,-28
392,64,388,6,95,4,0,4,0,0,0,-28
