,midi_note,onset,duration,velocity,pitch_class,interval,root,relative_pitch,relative_pitch_class,parsons_code,parsons_cumsum
0,64,0,1,105,4,0,2,2,2,0,0
1,66,1,1,105,6,2,2,4,4,1,1
2,64,2,1,80,4,-2,2,2,2,-1,0
3,66,3,1,80,6,2,2,4,4,1,1
4,62,4,1,95,2,-4,2,0,0,-1,0
5,66,5,1,80,6,4,2,4,4,1,1
6,69,6,1,80,9,3,2,7,7,1,2
7,71,7,1,105,11,2,2,9,9,1,3
8,69,8,1,80,9,-2,2,7,7,-1,2
9,66,9,1,80,6,-3,2,4,4,-1,1
10,74,10,1,95,2,8,2,12,0,1,2
11,62,11,1,80,2,-12,2,0,0,-1,1
12,62,12,1,80,2,0,2,0,0,0,1
13,66,13,1,105,6,4,2,4,4,1,2
14,64,14,1,80,4,-2,2,2,2,-1,1
15,66,15,1,80,6,2,2,4,4,1,2
16,62,16,1,95,2,-4,2,0,0,-1,1
17,66,17,1,80,6,4,2,4,4,1,2
18,69,18,1,80,9,3,2,7,7,1,3
19,71,19,1,105,11,2,2,9,9,1,4
20,69,20,1,80,9,-2,2,7,7,-1,3
21,66,21,1,80,6,-3,2,4,4,-1,2
22,69,22,1,95,9,3,2,7,7,1,3
23,67,23,1,80,7,-2,2,5,5,-1,2
24,64,24,1,80,4,-3,2,2,2,-1,1
25,66,25,1,105,6,2,2,4,4,1,2
26,64,26,1,80,4,-2,2,2,2,-1,1
27,66,27,1,80,6,2,2,4,4,1,2
28,62,28,1,95,2,-4,2,0,0,-1,1
29,66,29,1,80,6,4,2,4,4,1,2
30,69,30,1,80,9,3,2,7,7,1,3
31,71,31,1,105,11,2,2,9,9,1,4
32,69,32,1,80,9,-2,2,7,7,-1,3
33,66,33,1,80,6,-3,2,4,4,-1,2
34,74,34,2,95,2,8,2,12,0,1,3
35,79,36,1,80,7,5,2,17,5,1,4
36,78,37,1,105,6,-1,2,16,4,-1,3
37,76,38,1,80,4,-2,2,14,2,-1,2
38,74,39,1,80,2,-2,2,12,0,-1,1
39,76,40,1,95,4,2,2,14,2,1,2
40,74,41,1,80,2,-2,2,12,0,-1,1
41,69,42,1,80,9,-5,2,7,7,-1,0
42,71,43,1,105,11,2,2,9,9,1,1
43,74,44,1,80,2,3,2,12,0,1,2
44,71,45,1,80,11,-3,2,9,9,-1,1
45,69,46,1,95,9,-2,2,7,7,-1,0
46,67,47,1,80,7,-2,2,5,5,-1,-1
47,64,48,1,80,4,-3,2,2,2,-1,-2
48,66,49,1,105,6,2,2,4,4,1,-1
49,64,50,1,80,4,-2,2,2,2,-1,-2
50,66,51,1,80,6,2,2,4,4,1,-1
51,62,52,1,95,2,-4,2,0,0,-1,-2
52,66,53,1,80,6,4,2,4,4,1,-1
53,69,54,1,80,9,3,2,7,7,1,0
54,71,55,1,105,11,2,2,9,9,1,1
55,69,56,1,80,9,-2,2,7,7,-1,0
56,66,57,1,80,6,-3,2,4,4,-1,-1
57,74,58,1,95,2,8,2,12,0,1,0
58,62,59,1,80,2,-12,2,0,0,-1,-1
59,62,60,1,80,2,0,2,0,0,0,-1
60,66,61,1,105,6,4,2,4,4,1,0
61,64,62,1,80,4,-2,2,2,2,-1,-1
62,66,63,1,80,6,2,2,4,4,1,0
63,62,64,1,95,2,-4,2,0,0,-1,-1
64,66,65,1,80,6,4,2,4,4,1,0
65,69,66,1,80,9,3,2,7,7,1,1
66,71,67,1,105,11,2,2,9,9,1,2
67,69,68,1,80,9,-2,2,7,7,-1,1
68,66,69,1,80,6,-3,2,4,4,-1,0
69,69,70,1,95,9,3,2,7,7,1,1
70,67,71,1,80,7,-2,2,5,5,-1,0
71,64,72,1,80,4,-3,2,2,2,-1,-1
72,66,73,1,105,6,2,2,4,4,1,0
73,64,74,1,80,4,-2,2,2,2,-1,-1
74,66,75,1,80,6,2,2,4,4,1,0
75,62,76,1,95,2,-4,2,0,0,-1,-1
76,66,77,1,80,6,4,2,4,4,1,0
77,69,78,1,80,9,3,2,7,7,1,1
78,71,79,1,105,11,2,2,9,9,1,2
79,69,80,1,80,9,-2,2,7,7,-1,1
80,66,81,1,80,6,-3,2,4,4,-1,0
81,74,82,2,95,2,8,2,12,0,1,1
82,79,84,1,80,7,5,2,17,5,1,2
83,78,85,1,105,6,-1,2,16,4,-1,1
84,76,86,1,80,4,-2,2,14,2,-1,0
85,74,87,1,80,2,-2,2,12,0,-1,-1
86,76,88,1,95,4,2,2,14,2,1,0
87,74,89,1,80,2,-2,2,12,0,-1,-1
88,69,90,1,80,9,-5,2,7,7,-1,-2
89,71,91,1,105,11,2,2,9,9,1,-1
90,74,92,1,80,2,3,2,12,0,1,0
91,71,93,1,80,11,-3,2,9,9,-1,-1
92,69,94,1,95,9,-2,2,7,7,-1,-2
93,67,95,1,80,7,-2,2,5,5,-1,-3
94,69,96,1,80,9,2,2,7,7,1,-2
95,71,97,1,105,11,2,2,9,9,1,-1
96,73,98,1,80,1,2,2,11,11,1,0
97,74,99,1,80,2,1,2,12,0,1,1
98,76,100,1,95,4,2,2,14,2,1,2
99,69,101,1,80,9,-7,2,7,7,-1,1
100,69,102,1,80,9,0,2,7,7,0,1
101,78,103,1,105,6,9,2,16,4,1,2
102,69,104,1,80,9,-9,2,7,7,-1,1
103,69,105,1,80,9,0,2,7,7,0,1
104,76,106,1,95,4,7,2,14,2,1,2
105,69,107,1,80,9,-7,2,7,7,-1,1
106,69,108,1,80,9,0,2,7,7,0,1
107,73,109,2,105,1,4,2,11,11,1,2
108,74,111,1,80,2,1,2,12,0,1,3
109,76,112,1,95,4,2,2,14,2,1,4
110,69,113,1,80,9,-7,2,7,7,-1,3
111,69,114,1,80,9,0,2,7,7,0,3
112,71,115,1,105,11,2,2,9,9,1,4
113,69,116,1,80,9,-2,2,7,7,-1,3
114,66,117,1,80,6,-3,2,4,4,-1,2
115,69,118,1,95,9,3,2,7,7,1,3
116,67,119,1,80,7,-2,2,5,5,-1,2
117,64,120,1,80,4,-3,2,2,2,-1,1
118,71,121,1,105,11,7,2,9,9,1,2
119,73,122,1,80,1,2,2,11,11,1,3
120,74,123,1,80,2,1,2,12,0,1,4
121,76,124,1,95,4,2,2,14,2,1,5
122,69,125,1,80,9,-7,2,7,7,-1,4
123,69,126,1,80,9,0,2,7,7,0,4
124,78,127,1,105,6,9,2,16,4,1,5
125,69,128,1,80,9,-9,2,7,7,-1,4
126,71,129,1,80,11,2,2,9,9,1,5
127,76,130,1,95,4,5,2,14,2,1,6
128,78,131,1,80,6,2,2,16,4,1,7
129,79,132,1,80,7,1,2,17,5,1,8
130,81,133,1,105,9,2,2,19,7,1,9
131,79,134,1,80,7,-2,2,17,5,-1,8
132,78,135,1,80,6,-1,2,16,4,-1,7
133,76,136,2,95,4,-2,2,14,2,-1,6
134,74,138,1,80,2,-2,2,12,0,-1,5
135,73,139,1,105,1,-1,2,11,11,-1,4
136,71,140,1,80,11,-2,2,9,9,-1,3
137,73,141,1,80,1,2,2,11,11,1,4
138,69,142,1,95,9,-4,2,7,7,-1,3
139,66,143,1,80,6,-3,2,4,4,-1,2
140,69,144,1,80,9,3,2,7,7,1,3
141,71,145,1,105,11,2,2,9,9,1,4
142,73,146,1,80,1,2,2,11,11,1,5
143,74,147,1,80,2,1,2,12,0,1,6
144,76,148,1,95,4,2,2,14,2,1,7
145,69,149,1,80,9,-7,2,7,7,-1,6
146,69,150,1,80,9,0,2,7,7,0,6
147,78,151,1,105,6,9,2,16,4,1,7
148,69,152,1,80,9,-9,2,7,7,-1,6
149,69,153,1,80,9,0,2,7,7,0,6
150,76,154,1,95,4,7,2,14,2,1,7
151,69,155,1,80,9,-7,2,7,7,-1,6
152,69,156,1,80,9,0,2,7,7,0,6
153,73,157,2,105,1,4,2,11,11,1,7
154,74,159,1,80,2,1,2,12,0,1,8
155,76,160,1,95,4,2,2,14,2,1,9
156,69,161,1,80,9,-7,2,7,7,-1,8
157,69,162,1,80,9,0,2,7,7,0,8
158,71,163,1,105,11,2,2,9,9,1,9
159,69,164,1,80,9,-2,2,7,7,-1,8
160,66,165,1,80,6,-3,2,4,4,-1,7
161,69,166,1,95,9,3,2,7,7,1,8
162,67,167,1,80,7,-2,2,5,5,-1,7
163,64,168,1,80,4,-3,2,2,2,-1,6
164,71,169,1,105,11,7,2,9,9,1,7
165,73,170,1,80,1,2,2,11,11,1,8
166,74,171,1,80,2,1,2,12,0,1,9
167,76,172,1,95,4,2,2,14,2,1,10
168,69,173,1,80,9,-7,2,7,7,-1,9
169,69,174,1,80,9,0,2,7,7,0,9
170,78,175,1,105,6,9,2,16,4,1,10
171,69,176,1,80,9,-9,2,7,7,-1,9
172,71,177,1,80,11,2,2,9,9,1,10
173,76,178,1,95,4,5,2,14,2,1,11
174,78,179,1,80,6,2,2,16,4,1,12
175,79,180,1,80,7,1,2,17,5,1,13
176,81,181,1,105,9,2,2,19,7,1,14
177,79,182,1,80,7,-2,2,17,5,-1,13
178,78,183,1,80,6,-1,2,16,4,-1,12
179,76,184,2,95,4,-2,2,14,2,-1,11
180,74,186,1,80,2,-2,2,12,0,-1,10
181,73,187,1,105,1,-1,2,11,11,-1,9
182,71,188,1,80,11,-2,2,9,9,-1,8
183,73,189,1,80,1,2,2,11,11,1,9
184,69,190,1,95,9,-4,2,7,7,-1,8
185,66,191,1,80,6,-3,2,4,4,-1,7
186,64,192,1,80,4,-2,2,2,2,-1,6
187,62,193,1,105,2,-2,2,0,0,-1,5
188,66,194,1,80,6,4,2,4,4,1,6
189,69,195,1,80,9,3,2,7,7,1,7
190,74,196,1,95,2,5,2,12,0,1,8
191,73,197,1,80,1,-1,2,11,11,-1,7
192,74,198,1,80,2,1,2,12,0,1,8
193,76,199,1,105,4,2,2,14,2,1,9
194,73,200,1,80,1,-3,2,11,11,-1,8
195,76,201,1,80,4,3,2,14,2,1,9
196,74,202,2,95,2,-2,2,12,0,-1,8
197,74,204,1,80,2,0,2,12,0,0,8
198,62,205,1,105,2,-12,2,0,0,-1,7
199,66,206,1,80,6,4,2,4,4,1,8
200,69,207,1,80,9,3,2,7,7,1,9
201,74,208,2,95,2,5,2,12,0,1,10
202,69,210,1,80,9,-5,2,7,7,-1,9
203,71,211,1,105,11,2,2,9,9,1,10
204,74,212,1,80,2,3,2,12,0,1,11
205,71,213,1,80,11,-3,2,9,9,-1,10
206,69,214,1,95,9,-2,2,7,7,-1,9
207,66,215,1,80,6,-3,2,4,4,-1,8
208,64,216,1,80,4,-2,2,2,2,-1,7
209,62,217,1,105,2,-2,2,0,0,-1,6
210,66,218,1,80,6,4,2,4,4,1,7
211,69,219,1,80,9,3,2,7,7,1,8
212,74,220,1,95,2,5,2,12,0,1,9
213,73,221,1,80,1,-1,2,11,11,-1,8
214,74,222,1,80,2,1,2,12,0,1,9
215,76,223,1,105,4,2,2,14,2,1,10
216,73,224,1,80,1,-3,2,11,11,-1,9
217,76,225,1,80,4,3,2,14,2,1,10
218,74,226,2,95,2,-2,2,12,0,-1,9
219,79,228,1,80,7,5,2,17,5,1,10
220,78,229,1,105,6,-1,2,16,4,-1,9
221,76,230,1,80,4,-2,2,14,2,-1,8
222,74,231,1,80,2,-2,2,12,0,-1,7
223,76,232,1,95,4,2,2,14,2,1,8
224,74,233,1,80,2,-2,2,12,0,-1,7
225,69,234,1,80,9,-5,2,7,7,-1,6
226,71,235,1,105,11,2,2,9,9,1,7
227,74,236,1,80,2,3,2,12,0,1,8
228,71,237,1,80,11,-3,2,9,9,-1,7
229,69,238,1,95,9,-2,2,7,7,-1,6
230,66,239,1,80,6,-3,2,4,4,-1,5
231,64,240,1,80,4,-2,2,2,2,-1,4
232,62,241,1,105,2,-2,2,0,0,-1,3
233,66,242,1,80,6,4,2,4,4,1,4
234,69,243,1,80,9,3,2,7,7,1,5
235,74,244,1,95,2,5,2,12,0,1,6
236,73,245,1,80,1,-1,2,11,11,-1,5
237,74,246,1,80,2,1,2,12,0,1,6
238,76,247,1,105,4,2,2,14,2,1,7
239,73,248,1,80,1,-3,2,11,11,-1,6
240,76,249,1,80,4,3,2,14,2,1,7
241,74,250,2,95,2,-2,2,12,0,-1,6
242,74,252,1,80,2,0,2,12,0,0,6
243,62,253,1,105,2,-12,2,0,0,-1,5
244,66,254,1,80,6,4,2,4,4,1,6
245,69,255,1,80,9,3,2,7,7,1,7
246,74,256,2,95,2,5,2,12,0,1,8
247,69,258,1,80,9,-5,2,7,7,-1,7
248,71,259,1,105,11,2,2,9,9,1,8
249,74,260,1,80,2,3,2,12,0,1,9
250,71,261,1,80,11,-3,2,9,9,-1,8
251,69,262,1,95,9,-2,2,7,7,-1,7
252,66,263,1,80,6,-3,2,4,4,-1,6
253,64,264,1,80,4,-2,2,2,2,-1,5
254,62,265,1,105,2,-2,2,0,0,-1,4
255,66,266,1,80,6,4,2,4,4,1,5
256,69,267,1,80,9,3,2,7,7,1,6
257,74,268,1,95,2,5,2,12,0,1,7
258,73,269,1,80,1,-1,2,11,11,-1,6
259,74,270,1,80,2,1,2,12,0,1,7
260,76,271,1,105,4,2,2,14,2,1,8
261,73,272,1,80,1,-3,2,11,11,-1,7
262,76,273,1,80,4,3,2,14,2,1,8
263,74,274,2,95,2,-2,2,12,0,-1,7
264,79,276,1,80,7,5,2,17,5,1,8
265,78,277,1,105,6,-1,2,16,4,-1,7
266,76,278,1,80,4,-2,2,14,2,-1,6
267,74,279,1,80,2,-2,2,12,0,-1,5
268,76,280,1,95,4,2,2,14,2,1,6
269,74,281,1,80,2,-2,2,12,0,-1,5
270,69,282,1,80,9,-5,2,7,7,-1,4
271,71,283,1,105,11,2,2,9,9,1,5
272,74,284,1,80,2,3,2,12,0,1,6
273,71,285,1,80,11,-3,2,9,9,-1,5
274,69,286,1,95,9,-2,2,7,7,-1,4
275,66,287,1,80,6,-3,2,4,4,-1,3
