,midi_note,onset,duration,velocity,pitch_class,interval,root,relative_pitch,relative_pitch_class,parsons_code,parsons_cumsum
0,62,0,1,105,2,0,7,-5,7,0,0
1,67,1,1,105,7,5,7,0,0,1,1
2,67,2,1,80,7,0,7,0,0,0,1
3,67,3,1,80,7,0,7,0,0,0,1
4,67,4,2,95,7,0,7,0,0,0,1
5,69,6,1,80,9,2,7,2,2,1,2
6,71,7,2,105,11,2,7,4,4,1,3
7,67,9,1,80,7,-4,7,0,0,-1,2
8,74,10,2,95,2,7,7,7,7,1,3
9,71,12,1,80,11,-3,7,4,4,-1,2
10,67,13,1,105,7,-4,7,0,0,-1,1
11,67,14,1,80,7,0,7,0,0,0,1
12,67,15,1,80,7,0,7,0,0,0,1
13,67,16,2,95,7,0,7,0,0,0,1
14,71,18,1,80,11,4,7,4,4,1,2
15,69,19,2,105,9,-2,7,2,2,-1,1
16,71,21,1,80,11,2,7,4,4,1,2
17,72,22,1,95,0,1,7,5,5,1,3
18,71,23,1,80,11,-1,7,4,4,-1,2
19,69,24,1,80,9,-2,7,2,2,-1,1
20,67,25,1,105,7,-2,7,0,0,-1,0
21,67,26,1,80,7,0,7,0,0,0,0
22,67,27,1,80,7,0,7,0,0,0,0
23,67,28,2,95,7,0,7,0,0,0,0
24,72,30,1,80,0,5,7,5,5,1,1
25,71,31,1,105,11,-1,7,4,4,-1,0
26,69,32,1,80,9,-2,7,2,2,-1,-1
27,67,33,1,80,7,-2,7,0,0,-1,-2
28,69,34,1,95,9,2,7,2,2,1,-1
29,71,35,1,80,11,2,7,4,4,1,0
30,72,36,1,80,0,1,7,5,5,1,1
31,74,37,2,105,2,2,7,7,7,1,2
32,76,39,1,80,4,2,7,9,9,1,3
33,78,40,1,95,6,2,7,11,11,1,4
34,76,41,1,80,4,-2,7,9,9,-1,3
35,78,42,1,80,6,2,7,11,11,1,4
36,69,43,1,105,9,-9,7,2,2,-1,3
37,71,44,0,80,11,2,7,4,4,1,4
38,72,44,0,80,0,1,7,5,5,1,5
39,69,45,1,80,9,-3,7,2,2,-1,4
40,74,46,1,95,2,5,7,7,7,1,5
41,72,47,1,80,0,-2,7,5,5,-1,4
42,69,48,1,80,9,-3,7,2,2,-1,3
43,67,49,1,105,7,-2,7,0,0,-1,2
44,67,50,1,80,7,0,7,0,0,0,2
45,67,51,1,80,7,0,7,0,0,0,2
46,67,52,2,95,7,0,7,0,0,0,2
47,69,54,1,80,9,2,7,2,2,1,3
48,71,55,2,105,11,2,7,4,4,1,4
49,67,57,1,80,7,-4,7,0,0,-1,3
50,74,58,2,95,2,7,7,7,7,1,4
51,71,60,1,80,11,-3,7,4,4,-1,3
52,67,61,1,105,7,-4,7,0,0,-1,2
53,67,62,1,80,7,0,7,0,0,0,2
54,67,63,1,80,7,0,7,0,0,0,2
55,67,64,2,95,7,0,7,0,0,0,2
56,71,66,1,80,11,4,7,4,4,1,3
57,69,67,2,105,9,-2,7,2,2,-1,2
58,71,69,1,80,11,2,7,4,4,1,3
59,72,70,1,95,0,1,7,5,5,1,4
60,71,71,1,80,11,-1,7,4,4,-1,3
61,69,72,1,80,9,-2,7,2,2,-1,2
62,67,73,1,105,7,-2,7,0,0,-1,1
63,67,74,1,80,7,0,7,0,0,0,1
64,67,75,1,80,7,0,7,0,0,0,1
65,67,76,2,95,7,0,7,0,0,0,1
66,72,78,1,80,0,5,7,5,5,1,2
67,71,79,1,105,11,-1,7,4,4,-1,1
68,69,80,1,80,9,-2,7,2,2,-1,0
69,67,81,1,80,7,-2,7,0,0,-1,-1
70,69,82,1,95,9,2,7,2,2,1,0
71,71,83,1,80,11,2,7,4,4,1,1
72,72,84,1,80,0,1,7,5,5,1,2
73,74,85,2,105,2,2,7,7,7,1,3
74,76,87,1,80,4,2,7,9,9,1,4
75,78,88,1,95,6,2,7,11,11,1,5
76,76,89,1,80,4,-2,7,9,9,-1,4
77,78,90,1,80,6,2,7,11,11,1,5
78,69,91,1,105,9,-9,7,2,2,-1,4
79,71,92,0,80,11,2,7,4,4,1,5
80,72,92,0,80,0,1,7,5,5,1,6
81,69,93,1,80,9,-3,7,2,2,-1,5
82,74,94,1,95,2,5,7,7,7,1,6
83,72,95,1,80,0,-2,7,5,5,-1,5
84,69,96,1,80,9,-3,7,2,2,-1,4
85,67,97,1,105,7,-2,7,0,0,-1,3
86,71,98,1,80,11,4,7,4,4,1,4
87,72,99,1,80,0,1,7,5,5,1,5
88,74,100,2,95,2,2,7,7,7,1,6
89,72,102,1,80,0,-2,7,5,5,-1,5
90,71,103,2,105,11,-1,7,4,4,-1,4
91,67,105,1,80,7,-4,7,0,0,-1,3
92,74,106,2,95,2,7,7,7,7,1,4
93,71,108,1,80,11,-3,7,4,4,-1,3
94,67,109,1,105,7,-4,7,0,0,-1,2
95,71,110,1,80,11,4,7,4,4,1,3
96,72,111,1,80,0,1,7,5,5,1,4
97,74,112,2,95,2,2,7,7,7,1,5
98,71,114,1,80,11,-3,7,4,4,-1,4
99,69,115,2,105,9,-2,7,2,2,-1,3
100,71,117,1,80,11,2,7,4,4,1,4
101,74,118,1,95,2,3,7,7,7,1,5
102,72,119,1,80,0,-2,7,5,5,-1,4
103,69,120,1,80,9,-3,7,2,2,-1,3
104,67,121,1,105,7,-2,7,0,0,-1,2
105,71,122,1,80,11,4,7,4,4,1,3
106,72,123,1,80,0,1,7,5,5,1,4
107,74,124,2,95,2,2,7,7,7,1,5
108,72,126,1,80,0,-2,7,5,5,-1,4
109,71,127,1,105,11,-1,7,4,4,-1,3
110,69,128,1,80,9,-2,7,2,2,-1,2
111,67,129,1,80,7,-2,7,0,0,-1,1
112,69,130,1,95,9,2,7,2,2,1,2
113,71,131,1,80,11,2,7,4,4,1,3
114,72,132,1,80,0,1,7,5,5,1,4
115,74,133,2,105,2,2,7,7,7,1,5
116,76,135,1,80,4,2,7,9,9,1,6
117,78,136,1,95,6,2,7,11,11,1,7
118,76,137,1,80,4,-2,7,9,9,-1,6
119,78,138,1,80,6,2,7,11,11,1,7
120,69,139,1,105,9,-9,7,2,2,-1,6
121,71,140,0,80,11,2,7,4,4,1,7
122,72,140,0,80,0,1,7,5,5,1,8
123,69,141,1,80,9,-3,7,2,2,-1,7
124,74,142,1,95,2,5,7,7,7,1,8
125,72,143,1,80,0,-2,7,5,5,-1,7
126,69,144,1,80,9,-3,7,2,2,-1,6
127,67,145,1,105,7,-2,7,0,0,-1,5
128,71,146,1,80,11,4,7,4,4,1,6
129,72,147,1,80,0,1,7,5,5,1,7
130,74,148,2,95,2,2,7,7,7,1,8
131,72,150,1,80,0,-2,7,5,5,-1,7
132,71,151,2,105,11,-1,7,4,4,-1,6
133,67,153,1,80,7,-4,7,0,0,-1,5
134,74,154,2,95,2,7,7,7,7,1,6
135,71,156,1,80,11,-3,7,4,4,-1,5
136,67,157,1,105,7,-4,7,0,0,-1,4
137,71,158,1,80,11,4,7,4,4,1,5
138,72,159,1,80,0,1,7,5,5,1,6
139,74,160,2,95,2,2,7,7,7,1,7
140,71,162,1,80,11,-3,7,4,4,-1,6
141,69,163,2,105,9,-2,7,2,2,-1,5
142,71,165,1,80,11,2,7,4,4,1,6
143,74,166,1,95,2,3,7,7,7,1,7
144,72,167,1,80,0,-2,7,5,5,-1,6
145,69,168,1,80,9,-3,7,2,2,-1,5
146,67,169,1,105,7,-2,7,0,0,-1,4
147,71,170,1,80,11,4,7,4,4,1,5
148,72,171,1,80,0,1,7,5,5,1,6
149,74,172,2,95,2,2,7,7,7,1,7
150,72,174,1,80,0,-2,7,5,5,-1,6
151,71,175,1,105,11,-1,7,4,4,-1,5
152,69,176,1,80,9,-2,7,2,2,-1,4
153,67,177,1,80,7,-2,7,0,0,-1,3
154,69,178,1,95,9,2,7,2,2,1,4
155,71,179,1,80,11,2,7,4,4,1,5
156,72,180,1,80,0,1,7,5,5,1,6
157,74,181,2,105,2,2,7,7,7,1,7
158,76,183,1,80,4,2,7,9,9,1,8
159,78,184,1,95,6,2,7,11,11,1,9
160,76,185,1,80,4,-2,7,9,9,-1,8
161,78,186,1,80,6,2,7,11,11,1,9
162,69,187,1,105,9,-9,7,2,2,-1,8
163,71,188,0,80,11,2,7,4,4,1,9
164,72,188,0,80,0,1,7,5,5,1,10
165,69,189,1,80,9,-3,7,2,2,-1,9
166,74,190,1,95,2,5,7,7,7,1,10
167,72,191,1,80,0,-2,7,5,5,-1,9
168,69,192,1,80,9,-3,7,2,2,-1,8
169,67,193,2,105,7,-2,7,0,0,-1,7
170,79,195,1,80,7,12,7,12,0,1,8
171,79,196,1,95,7,0,7,12,0,0,8
172,74,197,1,80,2,-5,7,7,7,-1,7
173,72,198,1,80,0,-2,7,5,5,-1,6
174,71,199,2,105,11,-1,7,4,4,-1,5
175,67,201,1,80,7,-4,7,0,0,-1,4
176,74,202,2,95,2,7,7,7,7,1,5
177,71,204,1,80,11,-3,7,4,4,-1,4
178,67,205,2,105,7,-4,7,0,0,-1,3
179,79,207,1,80,7,12,7,12,0,1,4
180,79,208,1,95,7,0,7,12,0,0,4
181,74,209,1,80,2,-5,7,7,7,-1,3
182,71,210,1,80,11,-3,7,4,4,-1,2
183,69,211,2,105,9,-2,7,2,2,-1,1
184,71,213,1,80,11,2,7,4,4,1,2
185,74,214,1,95,2,3,7,7,7,1,3
186,72,215,1,80,0,-2,7,5,5,-1,2
187,69,216,1,80,9,-3,7,2,2,-1,1
188,67,217,2,105,7,-2,7,0,0,-1,0
189,79,219,1,80,7,12,7,12,0,1,1
190,79,220,1,95,7,0,7,12,0,0,1
191,74,221,1,80,2,-5,7,7,7,-1,0
192,72,222,1,80,0,-2,7,5,5,-1,-1
193,71,223,1,105,11,-1,7,4,4,-1,-2
194,69,224,1,80,9,-2,7,2,2,-1,-3
195,67,225,1,80,7,-2,7,0,0,-1,-4
196,69,226,1,95,9,2,7,2,2,1,-3
197,71,227,1,80,11,2,7,4,4,1,-2
198,72,228,1,80,0,1,7,5,5,1,-1
199,74,229,2,105,2,2,7,7,7,1,0
200,76,231,1,80,4,2,7,9,9,1,1
201,78,232,1,95,6,2,7,11,11,1,2
202,76,233,1,80,4,-2,7,9,9,-1,1
203,78,234,1,80,6,2,7,11,11,1,2
204,69,235,1,105,9,-9,7,2,2,-1,1
205,71,236,0,80,11,2,7,4,4,1,2
206,72,236,0,80,0,1,7,5,5,1,3
207,69,237,1,80,9,-3,7,2,2,-1,2
208,74,238,1,95,2,5,7,7,7,1,3
209,72,239,1,80,0,-2,7,5,5,-1,2
210,69,240,1,80,9,-3,7,2,2,-1,1
211,67,241,2,105,7,-2,7,0,0,-1,0
212,79,243,1,80,7,12,7,12,0,1,1
213,79,244,1,95,7,0,7,12,0,0,1
214,74,245,1,80,2,-5,7,7,7,-1,0
215,72,246,1,80,0,-2,7,5,5,-1,-1
216,71,247,2,105,11,-1,7,4,4,-1,-2
217,67,249,1,80,7,-4,7,0,0,-1,-3
218,74,250,2,95,2,7,7,7,7,1,-2
219,71,252,1,80,11,-3,7,4,4,-1,-3
220,67,253,2,105,7,-4,7,0,0,-1,-4
221,79,255,1,80,7,12,7,12,0,1,-3
222,79,256,1,95,7,0,7,12,0,0,-3
223,74,257,1,80,2,-5,7,7,7,-1,-4
224,71,258,1,80,11,-3,7,4,4,-1,-5
225,69,259,2,105,9,-2,7,2,2,-1,-6
226,71,261,1,80,11,2,7,4,4,1,-5
227,74,262,1,95,2,3,7,7,7,1,-4
228,72,263,1,80,0,-2,7,5,5,-1,-5
229,69,264,1,80,9,-3,7,2,2,-1,-6
230,67,265,2,105,7,-2,7,0,0,-1,-7
231,79,267,1,80,7,12,7,12,0,1,-6
232,79,268,1,95,7,0,7,12,0,0,-6
233,74,269,1,80,2,-5,7,7,7,-1,-7
234,72,270,1,80,0,-2,7,5,5,-1,-8
235,71,271,1,105,11,-1,7,4,4,-1,-9
236,69,272,1,80,9,-2,7,2,2,-1,-10
237,67,273,1,80,7,-2,7,0,0,-1,-11
238,69,274,1,95,9,2,7,2,2,1,-10
239,71,275,1,80,11,2,7,4,4,1,-9
240,72,276,1,80,0,1,7,5,5,1,-8
241,74,277,2,105,2,2,7,7,7,1,-7
242,76,279,1,80,4,2,7,9,9,1,-6
243,78,280,1,95,6,2,7,11,11,1,-5
244,76,281,1,80,4,-2,7,9,9,-1,-6
245,78,282,1,80,6,2,7,11,11,1,-5
246,69,283,1,105,9,-9,7,2,2,-1,-6
247,71,284,0,80,11,2,7,4,4,1,-5
248,72,284,0,80,0,1,7,5,5,1,-4
249,69,285,1,80,9,-3,7,2,2,-1,-5
250,74,286,1,95,2,5,7,7,7,1,-4
251,72,287,1,80,0,-2,7,5,5,-1,-5
252,69,288,1,80,9,-3,7,2,2,-1,-6
253,67,289,1,105,7,-2,7,0,0,-1,-7
254,71,290,1,80,11,4,7,4,4,1,-6
255,74,291,1,80,2,3,7,7,7,1,-5
256,67,292,1,95,7,-7,7,0,0,-1,-6
257,71,293,1,80,11,4,7,4,4,1,-5
258,74,294,1,80,2,3,7,7,7,1,-4
259,66,295,1,105,6,-8,7,-1,11,-1,-5
260,69,296,1,80,9,3,7,2,2,1,-4
261,72,297,1,80,0,3,7,5,5,1,-3
262,66,298,1,95,6,-6,7,-1,11,-1,-4
263,69,299,1,80,9,3,7,2,2,1,-3
264,72,300,1,80,0,3,7,5,5,1,-2
265,67,301,1,105,7,-5,7,0,0,-1,-3
266,71,302,1,80,11,4,7,4,4,1,-2
267,74,303,1,80,2,3,7,7,7,1,-1
268,67,304,1,95,7,-7,7,0,0,-1,-2
269,71,305,1,80,11,4,7,4,4,1,-1
270,74,306,1,80,2,3,7,7,7,1,0
271,79,307,1,105,7,5,7,12,0,1,1
272,74,308,1,80,2,-5,7,7,7,-1,0
273,71,309,1,80,11,-3,7,4,4,-1,-1
274,74,310,1,95,2,3,7,7,7,1,0
275,72,311,1,80,0,-2,7,5,5,-1,-1
276,69,312,1,80,9,-3,7,2,2,-1,-2
277,67,313,1,105,7,-2,7,0,0,-1,-3
278,71,314,1,80,11,4,7,4,4,1,-2
279,74,315,1,80,2,3,7,7,7,1,-1
280,67,316,1,95,7,-7,7,0,0,-1,-2
281,71,317,1,80,11,4,7,4,4,1,-1
282,74,318,1,80,2,3,7,7,7,1,0
283,71,319,1,105,11,-3,7,4,4,-1,-1
284,69,320,1,80,9,-2,7,2,2,-1,-2
285,67,321,1,80,7,-2,7,0,0,-1,-3
286,69,322,1,95,9,2,7,2,2,1,-2
287,71,323,1,80,11,2,7,4,4,1,-1
288,72,324,1,80,0,1,7,5,5,1,0
289,74,325,2,105,2,2,7,7,7,1,1
290,76,327,1,80,4,2,7,9,9,1,2
291,78,328,1,95,6,2,7,11,11,1,3
292,76,329,1,80,4,-2,7,9,9,-1,2
293,78,330,1,80,6,2,7,11,11,1,3
294,69,331,1,105,9,-9,7,2,2,-1,2
295,71,332,0,80,11,2,7,4,4,1,3
296,72,332,0,80,0,1,7,5,5,1,4
297,69,333,1,80,9,-3,7,2,2,-1,3
298,74,334,1,95,2,5,7,7,7,1,4
299,72,335,1,80,0,-2,7,5,5,-1,3
300,69,336,1,80,9,-3,7,2,2,-1,2
301,67,337,1,105,7,-2,7,0,0,-1,1
302,71,338,1,80,11,4,7,4,4,1,2
303,74,339,1,80,2,3,7,7,7,1,3
304,67,340,1,95,7,-7,7,0,0,-1,2
305,71,341,1,80,11,4,7,4,4,1,3
306,74,342,1,80,2,3,7,7,7,1,4
307,66,343,1,105,6,-8,7,-1,11,-1,3
308,69,344,1,80,9,3,7,2,2,1,4
309,72,345,1,80,0,3,7,5,5,1,5
310,66,346,1,95,6,-6,7,-1,11,-1,4
311,69,347,1,80,9,3,7,2,2,1,5
312,72,348,1,80,0,3,7,5,5,1,6
313,67,349,1,105,7,-5,7,0,0,-1,5
314,71,350,1,80,11,4,7,4,4,1,6
315,74,351,1,80,2,3,7,7,7,1,7
316,67,352,1,95,7,-7,7,0,0,-1,6
317,71,353,1,80,11,4,7,4,4,1,7
318,74,354,1,80,2,3,7,7,7,1,8
319,79,355,1,105,7,5,7,12,0,1,9
320,74,356,1,80,2,-5,7,7,7,-1,8
321,71,357,1,80,11,-3,7,4,4,-1,7
322,74,358,1,95,2,3,7,7,7,1,8
323,72,359,1,80,0,-2,7,5,5,-1,7
324,69,360,1,80,9,-3,7,2,2,-1,6
325,67,361,1,105,7,-2,7,0,0,-1,5
326,71,362,1,80,11,4,7,4,4,1,6
327,74,363,1,80,2,3,7,7,7,1,7
328,67,364,1,95,7,-7,7,0,0,-1,6
329,71,365,1,80,11,4,7,4,4,1,7
330,74,366,1,80,2,3,7,7,7,1,8
331,71,367,1,105,11,-3,7,4,4,-1,7
332,69,368,1,80,9,-2,7,2,2,-1,6
333,67,369,1,80,7,-2,7,0,0,-1,5
334,69,370,1,95,9,2,7,2,2,1,6
335,71,371,1,80,11,2,7,4,4,1,7
336,72,372,1,80,0,1,7,5,5,1,8
337,74,373,2,105,2,2,7,7,7,1,9
338,76,375,1,80,4,2,7,9,9,1,10
339,78,376,1,95,6,2,7,11,11,1,11
340,76,377,1,80,4,-2,7,9,9,-1,10
341,78,378,1,80,6,2,7,11,11,1,11
342,69,379,1,105,9,-9,7,2,2,-1,10
343,71,380,0,80,11,2,7,4,4,1,11
344,72,380,0,80,0,1,7,5,5,1,12
345,69,381,1,80,9,-3,7,2,2,-1,11
346,74,382,1,95,2,5,7,7,7,1,12
347,72,383,1,80,0,-2,7,5,5,-1,11
348,69,384,1,80,9,-3,7,2,2,-1,10
349,67,385,1,105,7,-2,7,0,0,-1,9
350,71,386,1,80,11,4,7,4,4,1,10
351,74,387,1,80,2,3,7,7,7,1,11
352,67,388,1,95,7,-7,7,0,0,-1,10
353,71,389,1,80,11,4,7,4,4,1,11
354,74,390,1,80,2,3,7,7,7,1,12
355,66,391,1,105,6,-8,7,-1,11,-1,11
356,69,392,1,80,9,3,7,2,2,1,12
357,72,393,1,80,0,3,7,5,5,1,13
358,66,394,1,95,6,-6,7,-1,11,-1,12
359,69,395,1,80,9,3,7,2,2,1,13
360,72,396,1,80,0,3,7,5,5,1,14
361,67,397,1,105,7,-5,7,0,0,-1,13
362,71,398,1,80,11,4,7,4,4,1,14
363,74,399,1,80,2,3,7,7,7,1,15
364,67,400,1,95,7,-7,7,0,0,-1,14
365,71,401,1,80,11,4,7,4,4,1,15
366,74,402,1,80,2,3,7,7,7,1,16
367,79,403,0,105,7,5,7,12,0,1,17
368,83,403,0,80,11,4,7,16,4,1,18
369,81,404,0,80,9,-2,7,14,2,-1,17
370,79,404,0,80,7,-2,7,12,0,-1,16
371,78,405,0,80,6,-1,7,11,11,-1,15
372,76,405,0,80,4,-2,7,9,9,-1,14
373,74,406,0,95,2,-2,7,7,7,-1,13
374,76,406,0,80,4,2,7,9,9,1,14
375,74,407,0,80,2,-2,7,7,7,-1,13
376,72,407,0,80,0,-2,7,5,5,-1,12
377,71,408,0,80,11,-1,7,4,4,-1,11
378,69,408,0,80,9,-2,7,2,2,-1,10
379,67,409,1,105,7,-2,7,0,0,-1,9
380,71,410,0,80,11,4,7,4,4,1,10
381,74,410,0,80,2,3,7,7,7,1,11
382,71,411,1,80,11,-3,7,4,4,-1,10
383,67,412,1,95,7,-4,7,0,0,-1,9
384,71,413,0,80,11,4,7,4,4,1,10
385,74,413,0,80,2,3,7,7,7,1,11
386,71,414,1,80,11,-3,7,4,4,-1,10
387,71,415,1,105,11,0,7,4,4,0,10
388,69,416,1,80,9,-2,7,2,2,-1,9
389,67,417,1,80,7,-2,7,0,0,-1,8
390,69,418,1,95,9,2,7,2,2,1,9
391,71,419,1,80,11,2,7,4,4,1,10
392,72,420,1,80,0,1,7,5,5,1,11
393,74,421,2,105,2,2,7,7,7,1,12
394,76,423,1,80,4,2,7,9,9,1,13
395,78,424,1,95,6,2,7,11,11,1,14
396,76,425,1,80,4,-2,7,9,9,-1,13
397,78,426,1,80,6,2,7,11,11,1,14
398,69,427,1,105,9,-9,7,2,2,-1,13
399,71,428,0,80,11,2,7,4,4,1,14
400,72,428,0,80,0,1,7,5,5,1,15
401,69,429,1,80,9,-3,7,2,2,-1,14
402,74,430,1,95,2,5,7,7,7,1,15
403,72,431,1,80,0,-2,7,5,5,-1,14
404,69,432,1,80,9,-3,7,2,2,-1,13
405,67,433,1,105,7,-2,7,0,0,-1,12
406,71,434,1,80,11,4,7,4,4,1,13
407,74,435,1,80,2,3,7,7,7,1,14
408,67,436,1,95,7,-7,7,0,0,-1,13
409,71,437,1,80,11,4,7,4,4,1,14
410,74,438,1,80,2,3,7,7,7,1,15
411,66,439,1,105,6,-8,7,-1,11,-1,14
412,69,440,1,80,9,3,7,2,2,1,15
413,72,441,1,80,0,3,7,5,5,1,16
414,66,442,1,95,6,-6,7,-1,11,-1,15
415,69,443,1,80,9,3,7,2,2,1,16
416,72,444,1,80,0,3,7,5,5,1,17
417,67,445,1,105,7,-5,7,0,0,-1,16
418,71,446,1,80,11,4,7,4,4,1,17
419,74,447,1,80,2,3,7,7,7,1,18
420,67,448,1,95,7,-7,7,0,0,-1,17
421,71,449,1,80,11,4,7,4,4,1,18
422,74,450,1,80,2,3,7,7,7,1,19
423,79,451,0,105,7,5,7,12,0,1,20
424,83,451,0,80,11,4,7,16,4,1,21
425,81,452,0,80,9,-2,7,14,2,-1,20
426,79,452,0,80,7,-2,7,12,0,-1,19
427,78,453,0,80,6,-1,7,11,11,-1,18
428,76,453,0,80,4,-2,7,9,9,-1,17
429,74,454,0,95,2,-2,7,7,7,-1,16
430,76,454,0,80,4,2,7,9,9,1,17
431,74,455,0,80,2,-2,7,7,7,-1,16
432,72,455,0,80,0,-2,7,5,5,-1,15
433,71,456,0,80,11,-1,7,4,4,-1,14
434,69,456,0,80,9,-2,7,2,2,-1,13
435,67,457,1,105,7,-2,7,0,0,-1,12
436,71,458,0,80,11,4,7,4,4,1,13
437,74,458,0,80,2,3,7,7,7,1,14
438,71,459,1,80,11,-3,7,4,4,-1,13
439,67,460,1,95,7,-4,7,0,0,-1,12
440,71,461,0,80,11,4,7,4,4,1,13
441,74,461,0,80,2,3,7,7,7,1,14
442,71,462,1,80,11,-3,7,4,4,-1,13
443,71,463,1,105,11,0,7,4,4,0,13
444,69,464,1,80,9,-2,7,2,2,-1,12
445,67,465,1,80,7,-2,7,0,0,-1,11
446,69,466,1,95,9,2,7,2,2,1,12
447,71,467,1,80,11,2,7,4,4,1,13
448,72,468,1,80,0,1,7,5,5,1,14
449,74,469,2,105,2,2,7,7,7,1,15
450,76,471,1,80,4,2,7,9,9,1,16
451,78,472,1,95,6,2,7,11,11,1,17
452,76,473,1,80,4,-2,7,9,9,-1,16
453,78,474,1,80,6,2,7,11,11,1,17
454,69,475,1,105,9,-9,7,2,2,-1,16
455,71,476,0,80,11,2,7,4,4,1,17
456,72,476,0,80,0,1,7,5,5,1,18
457,69,477,1,80,9,-3,7,2,2,-1,17
458,74,478,1,95,2,5,7,7,7,1,18
459,72,479,1,80,0,-2,7,5,5,-1,17
460,69,480,1,80,9,-3,7,2,2,-1,16
461,71,481,1,105,11,2,7,4,4,1,17
462,67,482,1,80,7,-4,7,0,0,-1,16
463,71,483,1,80,11,4,7,4,4,1,17
464,71,484,1,95,11,0,7,4,4,0,17
465,67,485,1,80,7,-4,7,0,0,-1,16
466,71,486,1,80,11,4,7,4,4,1,17
467,67,487,1,105,7,-4,7,0,0,-1,16
468,71,488,1,80,11,4,7,4,4,1,17
469,67,489,1,80,7,-4,7,0,0,-1,16
470,74,490,2,95,2,7,7,7,7,1,17
471,71,492,1,80,11,-3,7,4,4,-1,16
472,67,493,1,105,7,-4,7,0,0,-1,15
473,71,494,1,80,11,4,7,4,4,1,16
474,67,495,1,80,7,-4,7,0,0,-1,15
475,71,496,1,95,11,4,7,4,4,1,16
476,67,497,1,80,7,-4,7,0,0,-1,15
477,71,498,1,80,11,4,7,4,4,1,16
478,69,499,1,105,9,-2,7,2,2,-1,15
479,71,500,0,80,11,2,7,4,4,1,16
480,72,500,0,80,0,1,7,5,5,1,17
481,69,501,1,80,9,-3,7,2,2,-1,16
482,74,502,1,95,2,5,7,7,7,1,17
483,72,503,1,80,0,-2,7,5,5,-1,16
484,69,504,1,80,9,-3,7,2,2,-1,15
485,71,505,1,105,11,2,7,4,4,1,16
486,67,506,1,80,7,-4,7,0,0,-1,15
487,71,507,1,80,11,4,7,4,4,1,16
488,71,508,1,95,11,0,7,4,4,0,16
489,67,509,1,80,7,-4,7,0,0,-1,15
490,71,510,1,80,11,4,7,4,4,1,16
491,71,511,1,105,11,0,7,4,4,0,16
492,69,512,1,80,9,-2,7,2,2,-1,15
493,67,513,1,80,7,-2,7,0,0,-1,14
494,69,514,1,95,9,2,7,2,2,1,15
495,71,515,1,80,11,2,7,4,4,1,16
496,72,516,1,80,0,1,7,5,5,1,17
497,74,517,2,105,2,2,7,7,7,1,18
498,76,519,1,80,4,2,7,9,9,1,19
499,78,520,1,95,6,2,7,11,11,1,20
500,76,521,1,80,4,-2,7,9,9,-1,19
501,78,522,1,80,6,2,7,11,11,1,20
502,69,523,1,105,9,-9,7,2,2,-1,19
503,71,524,0,80,11,2,7,4,4,1,20
504,72,524,0,80,0,1,7,5,5,1,21
505,69,525,1,80,9,-3,7,2,2,-1,20
506,74,526,1,95,2,5,7,7,7,1,21
507,72,527,1,80,0,-2,7,5,5,-1,20
508,69,528,1,80,9,-3,7,2,2,-1,19
509,71,529,1,105,11,2,7,4,4,1,20
510,67,530,1,80,7,-4,7,0,0,-1,19
511,71,531,1,80,11,4,7,4,4,1,20
512,71,532,1,95,11,0,7,4,4,0,20
513,67,533,1,80,7,-4,7,0,0,-1,19
514,71,534,1,80,11,4,7,4,4,1,20
515,67,535,1,105,7,-4,7,0,0,-1,19
516,71,536,1,80,11,4,7,4,4,1,20
517,67,537,1,80,7,-4,7,0,0,-1,19
518,74,538,2,95,2,7,7,7,7,1,20
519,71,540,1,80,11,-3,7,4,4,-1,19
520,67,541,1,105,7,-4,7,0,0,-1,18
521,71,542,1,80,11,4,7,4,4,1,19
522,67,543,1,80,7,-4,7,0,0,-1,18
523,71,544,1,95,11,4,7,4,4,1,19
524,67,545,1,80,7,-4,7,0,0,-1,18
525,71,546,1,80,11,4,7,4,4,1,19
526,69,547,1,105,9,-2,7,2,2,-1,18
527,71,548,0,80,11,2,7,4,4,1,19
528,72,548,0,80,0,1,7,5,5,1,20
529,69,549,1,80,9,-3,7,2,2,-1,19
530,74,550,1,95,2,5,7,7,7,1,20
531,72,551,1,80,0,-2,7,5,5,-1,19
532,69,552,1,80,9,-3,7,2,2,-1,18
533,71,553,1,105,11,2,7,4,4,1,19
534,67,554,1,80,7,-4,7,0,0,-1,18
535,71,555,1,80,11,4,7,4,4,1,19
536,71,556,1,95,11,0,7,4,4,0,19
537,67,557,1,80,7,-4,7,0,0,-1,18
538,71,558,1,80,11,4,7,4,4,1,19
539,71,559,1,105,11,0,7,4,4,0,19
540,69,560,1,80,9,-2,7,2,2,-1,18
541,67,561,1,80,7,-2,7,0,0,-1,17
542,69,562,1,95,9,2,7,2,2,1,18
543,71,563,1,80,11,2,7,4,4,1,19
544,72,564,1,80,0,1,7,5,5,1,20
545,74,565,2,105,2,2,7,7,7,1,21
546,76,567,1,80,4,2,7,9,9,1,22
547,78,568,1,95,6,2,7,11,11,1,23
548,76,569,1,80,4,-2,7,9,9,-1,22
549,78,570,1,80,6,2,7,11,11,1,23
550,69,571,1,105,9,-9,7,2,2,-1,22
551,71,572,0,80,11,2,7,4,4,1,23
552,72,572,0,80,0,1,7,5,5,1,24
553,69,573,1,80,9,-3,7,2,2,-1,23
554,74,574,1,95,2,5,7,7,7,1,24
555,72,575,1,80,0,-2,7,5,5,-1,23
556,69,576,1,80,9,-3,7,2,2,-1,22
