,midi_note,onset,duration,velocity,pitch_class,interval,root,relative_pitch,relative_pitch_class,parsons_code,parsons_cumsum
0,71,3,1,105,11,0,7,4,4,0,0
1,69,4,1,80,9,-2,7,2,2,-1,-1
2,67,5,1,105,7,-2,7,0,0,-1,-2
3,67,6,1,80,7,0,7,0,0,0,-2
4,67,7,1,80,7,0,7,0,0,0,-2
5,69,8,1,95,9,2,7,2,2,1,-1
6,64,9,1,80,4,-5,7,-3,9,-1,-2
7,64,10,1,80,4,0,7,-3,9,0,-2
8,69,11,1,105,9,5,7,2,2,1,-1
9,67,12,1,80,7,-2,7,0,0,-1,-2
10,67,13,1,80,7,0,7,0,0,0,-2
11,67,14,1,95,7,0,7,0,0,0,-2
12,64,15,1,80,4,-3,7,-3,9,-1,-3
13,62,16,1,80,2,-2,7,-5,7,-1,-4
14,67,17,1,105,7,5,7,0,0,1,-3
15,67,18,1,80,7,0,7,0,0,0,-3
16,67,19,1,80,7,0,7,0,0,0,-3
17,69,20,1,95,9,2,7,2,2,1,-2
18,64,21,1,80,4,-5,7,-3,9,-1,-3
19,64,22,1,80,4,0,7,-3,9,0,-3
20,69,23,1,105,9,5,7,2,2,1,-2
21,67,24,1,80,7,-2,7,0,0,-1,-3
22,67,25,1,80,7,0,7,0,0,0,-3
23,67,26,1,95,7,0,7,0,0,0,-3
24,64,27,1,80,4,-3,7,-3,9,-1,-4
25,62,28,1,80,2,-2,7,-5,7,-1,-5
26,67,29,1,105,7,5,7,0,0,1,-4
27,67,30,1,80,7,0,7,0,0,0,-4
28,67,31,1,80,7,0,7,0,0,0,-4
29,69,32,1,95,9,2,7,2,2,1,-3
30,64,33,1,80,4,-5,7,-3,9,-1,-4
31,64,34,1,80,4,0,7,-3,9,0,-4
32,69,35,1,105,9,5,7,2,2,1,-3
33,67,36,1,80,7,-2,7,0,0,-1,-4
34,67,37,1,80,7,0,7,0,0,0,-4
35,67,38,1,95,7,0,7,0,0,0,-4
36,64,39,1,80,4,-3,7,-3,9,-1,-5
37,62,40,1,80,2,-2,7,-5,7,-1,-6
38,64,41,1,105,4,2,7,-3,9,1,-5
39,69,42,1,80,9,5,7,2,2,1,-4
40,69,43,1,80,9,0,7,2,2,0,-4
41,69,44,1,95,9,0,7,2,2,0,-4
42,71,45,1,80,11,2,7,4,4,1,-3
43,72,46,1,80,0,1,7,5,5,1,-2
44,74,47,1,105,2,2,7,7,7,1,-1
45,72,48,1,80,0,-2,7,5,5,-1,-2
46,69,49,1,80,9,-3,7,2,2,-1,-3
47,67,50,1,95,7,-2,7,0,0,-1,-4
48,71,51,1,80,11,4,7,4,4,1,-3
49,69,52,1,80,9,-2,7,2,2,-1,-4
50,67,53,1,105,7,-2,7,0,0,-1,-5
51,67,54,1,80,7,0,7,0,0,0,-5
52,67,55,1,80,7,0,7,0,0,0,-5
53,69,56,1,95,9,2,7,2,2,1,-4
54,64,57,1,80,4,-5,7,-3,9,-1,-5
55,64,58,1,80,4,0,7,-3,9,0,-5
56,69,59,1,105,9,5,7,2,2,1,-4
57,67,60,1,80,7,-2,7,0,0,-1,-5
58,67,61,1,80,7,0,7,0,0,0,-5
59,67,62,1,95,7,0,7,0,0,0,-5
60,64,63,1,80,4,-3,7,-3,9,-1,-6
61,62,64,1,80,2,-2,7,-5,7,-1,-7
62,67,65,1,105,7,5,7,0,0,1,-6
63,67,66,1,80,7,0,7,0,0,0,-6
64,67,67,1,80,7,0,7,0,0,0,-6
65,69,68,1,95,9,2,7,2,2,1,-5
66,64,69,1,80,4,-5,7,-3,9,-1,-6
67,64,70,1,80,4,0,7,-3,9,0,-6
68,69,71,1,105,9,5,7,2,2,1,-5
69,67,72,1,80,7,-2,7,0,0,-1,-6
70,67,73,1,80,7,0,7,0,0,0,-6
71,67,74,1,95,7,0,7,0,0,0,-6
72,64,75,1,80,4,-3,7,-3,9,-1,-7
73,62,76,1,80,2,-2,7,-5,7,-1,-8
74,67,77,1,105,7,5,7,0,0,1,-7
75,67,78,1,80,7,0,7,0,0,0,-7
76,67,79,1,80,7,0,7,0,0,0,-7
77,69,80,1,95,9,2,7,2,2,1,-6
78,64,81,1,80,4,-5,7,-3,9,-1,-7
79,64,82,1,80,4,0,7,-3,9,0,-7
80,69,83,1,105,9,5,7,2,2,1,-6
81,67,84,1,80,7,-2,7,0,0,-1,-7
82,67,85,1,80,7,0,7,0,0,0,-7
83,67,86,1,95,7,0,7,0,0,0,-7
84,64,87,1,80,4,-3,7,-3,9,-1,-8
85,62,88,1,80,2,-2,7,-5,7,-1,-9
86,64,89,1,105,4,2,7,-3,9,1,-8
87,69,90,1,80,9,5,7,2,2,1,-7
88,69,91,1,80,9,0,7,2,2,0,-7
89,69,92,1,95,9,0,7,2,2,0,-7
90,71,93,1,80,11,2,7,4,4,1,-6
91,72,94,1,80,0,1,7,5,5,1,-5
92,74,95,1,105,2,2,7,7,7,1,-4
93,72,96,1,80,0,-2,7,5,5,-1,-5
94,69,97,1,80,9,-3,7,2,2,-1,-6
95,67,98,1,95,7,-2,7,0,0,-1,-7
96,71,99,1,80,11,4,7,4,4,1,-6
97,71,100,1,80,11,0,7,4,4,0,-6
98,69,101,1,105,9,-2,7,2,2,-1,-7
99,66,102,1,80,6,-3,7,-1,11,-1,-8
100,66,103,1,80,6,0,7,-1,11,0,-8
101,62,104,1,95,2,-4,7,-5,7,-1,-9
102,64,105,1,80,4,2,7,-3,9,1,-8
103,64,106,1,80,4,0,7,-3,9,0,-8
104,62,107,1,105,2,-2,7,-5,7,-1,-9
105,66,108,1,80,6,4,7,-1,11,1,-8
106,66,109,1,80,6,0,7,-1,11,0,-8
107,62,110,1,95,2,-4,7,-5,7,-1,-9
108,64,111,1,80,4,2,7,-3,9,1,-8
109,64,112,1,80,4,0,7,-3,9,0,-8
110,69,113,1,105,9,5,7,2,2,1,-7
111,66,114,1,80,6,-3,7,-1,11,-1,-8
112,66,115,1,80,6,0,7,-1,11,0,-8
113,62,116,1,95,2,-4,7,-5,7,-1,-9
114,64,117,1,80,4,2,7,-3,9,1,-8
115,64,118,1,80,4,0,7,-3,9,0,-8
116,62,119,1,105,2,-2,7,-5,7,-1,-9
117,64,120,1,80,4,2,7,-3,9,1,-8
118,66,121,1,80,6,2,7,-1,11,1,-7
119,67,122,1,95,7,1,7,0,0,1,-6
120,71,123,1,80,11,4,7,4,4,1,-5
121,71,124,1,80,11,0,7,4,4,0,-5
122,69,125,1,105,9,-2,7,2,2,-1,-6
123,66,126,1,80,6,-3,7,-1,11,-1,-7
124,66,127,1,80,6,0,7,-1,11,0,-7
125,62,128,1,95,2,-4,7,-5,7,-1,-8
126,64,129,1,80,4,2,7,-3,9,1,-7
127,64,130,1,80,4,0,7,-3,9,0,-7
128,62,131,1,105,2,-2,7,-5,7,-1,-8
129,66,132,1,80,6,4,7,-1,11,1,-7
130,66,133,1,80,6,0,7,-1,11,0,-7
131,62,134,1,95,2,-4,7,-5,7,-1,-8
132,66,135,1,80,6,4,7,-1,11,1,-7
133,66,136,1,80,6,0,7,-1,11,0,-7
134,69,137,3,105,9,3,7,2,2,1,-6
135,69,140,1,95,9,0,7,2,2,0,-6
136,71,141,1,80,11,2,7,4,4,1,-5
137,72,142,1,80,0,1,7,5,5,1,-4
138,74,143,1,105,2,2,7,7,7,1,-3
139,72,144,1,80,0,-2,7,5,5,-1,-4
140,69,145,1,80,9,-3,7,2,2,-1,-5
141,67,146,1,95,7,-2,7,0,0,-1,-6
142,71,147,1,80,11,4,7,4,4,1,-5
143,71,148,1,80,11,0,7,4,4,0,-5
144,69,149,1,105,9,-2,7,2,2,-1,-6
145,66,150,1,80,6,-3,7,-1,11,-1,-7
146,66,151,1,80,6,0,7,-1,11,0,-7
147,62,152,1,95,2,-4,7,-5,7,-1,-8
148,64,153,1,80,4,2,7,-3,9,1,-7
149,64,154,1,80,4,0,7,-3,9,0,-7
150,62,155,1,105,2,-2,7,-5,7,-1,-8
151,66,156,1,80,6,4,7,-1,11,1,-7
152,66,157,1,80,6,0,7,-1,11,0,-7
153,62,158,1,95,2,-4,7,-5,7,-1,-8
154,64,159,1,80,4,2,7,-3,9,1,-7
155,64,160,1,80,4,0,7,-3,9,0,-7
156,69,161,1,105,9,5,7,2,2,1,-6
157,66,162,1,80,6,-3,7,-1,11,-1,-7
158,66,163,1,80,6,0,7,-1,11,0,-7
159,62,164,1,95,2,-4,7,-5,7,-1,-8
160,64,165,1,80,4,2,7,-3,9,1,-7
161,64,166,1,80,4,0,7,-3,9,0,-7
162,62,167,1,105,2,-2,7,-5,7,-1,-8
163,64,168,1,80,4,2,7,-3,9,1,-7
164,66,169,1,80,6,2,7,-1,11,1,-6
165,67,170,1,95,7,1,7,0,0,1,-5
166,71,171,1,80,11,4,7,4,4,1,-4
167,71,172,1,80,11,0,7,4,4,0,-4
168,69,173,1,105,9,-2,7,2,2,-1,-5
169,66,174,1,80,6,-3,7,-1,11,-1,-6
170,66,175,1,80,6,0,7,-1,11,0,-6
171,62,176,1,95,2,-4,7,-5,7,-1,-7
172,64,177,1,80,4,2,7,-3,9,1,-6
173,64,178,1,80,4,0,7,-3,9,0,-6
174,62,179,1,105,2,-2,7,-5,7,-1,-7
175,66,180,1,80,6,4,7,-1,11,1,-6
176,66,181,1,80,6,0,7,-1,11,0,-6
177,62,182,1,95,2,-4,7,-5,7,-1,-7
178,66,183,1,80,6,4,7,-1,11,1,-6
179,66,184,1,80,6,0,7,-1,11,0,-6
180,69,185,3,105,9,3,7,2,2,1,-5
181,69,188,1,95,9,0,7,2,2,0,-5
182,71,189,1,80,11,2,7,4,4,1,-4
183,72,190,1,80,0,1,7,5,5,1,-3
184,74,191,1,105,2,2,7,7,7,1,-2
185,72,192,1,80,0,-2,7,5,5,-1,-3
186,69,193,1,80,9,-3,7,2,2,-1,-4
187,67,194,1,95,7,-2,7,0,0,-1,-5
188,71,195,1,80,11,4,7,4,4,1,-4
189,69,196,1,80,9,-2,7,2,2,-1,-5
190,71,197,1,105,11,2,7,4,4,1,-4
191,69,198,1,80,9,-2,7,2,2,-1,-5
192,67,199,1,80,7,-2,7,0,0,-1,-6
193,64,200,1,95,4,-3,7,-3,9,-1,-7
194,67,201,1,80,7,3,7,0,0,1,-6
195,67,202,1,80,7,0,7,0,0,0,-6
196,64,203,1,105,4,-3,7,-3,9,-1,-7
197,67,204,1,80,7,3,7,0,0,1,-6
198,67,205,1,80,7,0,7,0,0,0,-6
199,67,206,2,95,7,0,7,0,0,0,-6
200,69,208,1,80,9,2,7,2,2,1,-5
201,71,209,1,105,11,2,7,4,4,1,-4
202,69,210,1,80,9,-2,7,2,2,-1,-5
203,67,211,1,80,7,-2,7,0,0,-1,-6
204,64,212,1,95,4,-3,7,-3,9,-1,-7
205,67,213,1,80,7,3,7,0,0,1,-6
206,67,214,1,80,7,0,7,0,0,0,-6
207,67,215,1,105,7,0,7,0,0,0,-6
208,69,216,1,80,9,2,7,2,2,1,-5
209,67,217,1,80,7,-2,7,0,0,-1,-6
210,67,218,1,95,7,0,7,0,0,0,-6
211,64,219,1,80,4,-3,7,-3,9,-1,-7
212,62,220,1,80,2,-2,7,-5,7,-1,-8
213,71,221,1,105,11,9,7,4,4,1,-7
214,69,222,1,80,9,-2,7,2,2,-1,-8
215,67,223,1,80,7,-2,7,0,0,-1,-9
216,64,224,1,95,4,-3,7,-3,9,-1,-10
217,67,225,1,80,7,3,7,0,0,1,-9
218,67,226,1,80,7,0,7,0,0,0,-9
219,64,227,1,105,4,-3,7,-3,9,-1,-10
220,67,228,1,80,7,3,7,0,0,1,-9
221,67,229,1,80,7,0,7,0,0,0,-9
222,64,230,1,95,4,-3,7,-3,9,-1,-10
223,67,231,1,80,7,3,7,0,0,1,-9
224,67,232,1,80,7,0,7,0,0,0,-9
225,69,233,3,105,9,2,7,2,2,1,-8
226,69,236,1,95,9,0,7,2,2,0,-8
227,71,237,1,80,11,2,7,4,4,1,-7
228,72,238,1,80,0,1,7,5,5,1,-6
229,74,239,1,105,2,2,7,7,7,1,-5
230,72,240,1,80,0,-2,7,5,5,-1,-6
231,69,241,1,80,9,-3,7,2,2,-1,-7
232,67,242,1,95,7,-2,7,0,0,-1,-8
233,71,243,1,80,11,4,7,4,4,1,-7
234,69,244,1,80,9,-2,7,2,2,-1,-8
235,71,245,1,105,11,2,7,4,4,1,-7
236,69,246,1,80,9,-2,7,2,2,-1,-8
237,67,247,1,80,7,-2,7,0,0,-1,-9
238,64,248,1,95,4,-3,7,-3,9,-1,-10
239,67,249,1,80,7,3,7,0,0,1,-9
240,67,250,1,80,7,0,7,0,0,0,-9
241,64,251,1,105,4,-3,7,-3,9,-1,-10
242,67,252,1,80,7,3,7,0,0,1,-9
243,67,253,1,80,7,0,7,0,0,0,-9
244,67,254,2,95,7,0,7,0,0,0,-9
245,69,256,1,80,9,2,7,2,2,1,-8
246,71,257,1,105,11,2,7,4,4,1,-7
247,69,258,1,80,9,-2,7,2,2,-1,-8
248,67,259,1,80,7,-2,7,0,0,-1,-9
249,64,260,1,95,4,-3,7,-3,9,-1,-10
250,67,261,1,80,7,3,7,0,0,1,-9
251,67,262,1,80,7,0,7,0,0,0,-9
252,67,263,1,105,7,0,7,0,0,0,-9
253,69,264,1,80,9,2,7,2,2,1,-8
254,67,265,1,80,7,-2,7,0,0,-1,-9
255,67,266,1,95,7,0,7,0,0,0,-9
256,64,267,1,80,4,-3,7,-3,9,-1,-10
257,62,268,1,80,2,-2,7,-5,7,-1,-11
258,71,269,1,105,11,9,7,4,4,1,-10
259,69,270,1,80,9,-2,7,2,2,-1,-11
260,67,271,1,80,7,-2,7,0,0,-1,-12
261,64,272,1,95,4,-3,7,-3,9,-1,-13
262,67,273,1,80,7,3,7,0,0,1,-12
263,67,274,1,80,7,0,7,0,0,0,-12
264,64,275,1,105,4,-3,7,-3,9,-1,-13
265,67,276,1,80,7,3,7,0,0,1,-12
266,67,277,1,80,7,0,7,0,0,0,-12
267,64,278,1,95,4,-3,7,-3,9,-1,-13
268,67,279,1,80,7,3,7,0,0,1,-12
269,67,280,1,80,7,0,7,0,0,0,-12
270,69,281,3,105,9,2,7,2,2,1,-11
271,69,284,1,95,9,0,7,2,2,0,-11
272,71,285,1,80,11,2,7,4,4,1,-10
273,72,286,1,80,0,1,7,5,5,1,-9
274,74,287,1,105,2,2,7,7,7,1,-8
275,72,288,1,80,0,-2,7,5,5,-1,-9
276,69,289,1,80,9,-3,7,2,2,-1,-10
277,67,290,6,95,7,-2,7,0,0,-1,-11
