,midi_note,onset,duration,velocity,pitch_class,interval,root,relative_pitch,relative_pitch_class,parsons_code,parsons_cumsum
0,66,0,2,105,6,0,2,4,4,0,0
1,66,2,1,80,6,0,2,4,4,0,0
2,67,3,2,95,7,1,2,5,5,1,1
3,67,5,1,80,7,0,2,5,5,0,1
4,69,6,2,105,9,2,2,7,7,1,2
5,71,8,1,80,11,2,2,9,9,1,3
6,72,9,1,95,0,1,2,10,10,1,4
7,69,10,1,80,9,-3,2,7,7,-1,3
8,67,11,1,80,7,-2,2,5,5,-1,2
9,69,12,2,105,9,2,2,7,7,1,3
10,69,14,1,80,9,0,2,7,7,0,3
11,69,15,1,95,9,0,2,7,7,0,3
12,71,16,1,80,11,2,2,9,9,1,4
13,67,17,1,80,7,-4,2,5,5,-1,3
14,69,18,2,105,9,2,2,7,7,1,4
15,69,20,1,80,9,0,2,7,7,0,4
16,69,21,1,95,9,0,2,7,7,0,4
17,71,22,1,80,11,2,2,9,9,1,5
18,67,23,1,80,7,-4,2,5,5,-1,4
19,66,24,1,105,6,-1,2,4,4,-1,3
20,64,25,1,80,4,-2,2,2,2,-1,2
21,66,26,1,80,6,2,2,4,4,1,3
22,67,27,3,95,7,1,2,5,5,1,4
23,69,30,1,105,9,2,2,7,7,1,5
24,74,31,1,80,2,5,2,12,0,1,6
25,74,32,1,80,2,0,2,12,0,0,6
26,72,33,1,95,0,-2,2,10,10,-1,5
27,69,34,1,80,9,-3,2,7,7,-1,4
28,66,35,1,80,6,-3,2,4,4,-1,3
29,67,36,2,105,7,1,2,5,5,1,4
30,67,38,1,80,7,0,2,5,5,0,4
31,67,39,1,95,7,0,2,5,5,0,4
32,69,40,1,80,9,2,2,7,7,1,5
33,66,41,1,80,6,-3,2,4,4,-1,4
34,67,42,2,105,7,1,2,5,5,1,5
35,67,44,1,80,7,0,2,5,5,0,5
36,67,45,1,95,7,0,2,5,5,0,5
37,69,46,1,80,9,2,2,7,7,1,6
38,67,47,1,80,7,-2,2,5,5,-1,5
39,66,48,2,105,6,-1,2,4,4,-1,4
40,66,50,1,80,6,0,2,4,4,0,4
41,67,51,2,95,7,1,2,5,5,1,5
42,67,53,1,80,7,0,2,5,5,0,5
43,69,54,2,105,9,2,2,7,7,1,6
44,71,56,1,80,11,2,2,9,9,1,7
45,72,57,1,95,0,1,2,10,10,1,8
46,69,58,1,80,9,-3,2,7,7,-1,7
47,67,59,1,80,7,-2,2,5,5,-1,6
48,69,60,2,105,9,2,2,7,7,1,7
49,69,62,1,80,9,0,2,7,7,0,7
50,69,63,1,95,9,0,2,7,7,0,7
51,71,64,1,80,11,2,2,9,9,1,8
52,67,65,1,80,7,-4,2,5,5,-1,7
53,69,66,2,105,9,2,2,7,7,1,8
54,69,68,1,80,9,0,2,7,7,0,8
55,69,69,1,95,9,0,2,7,7,0,8
56,71,70,1,80,11,2,2,9,9,1,9
57,67,71,1,80,7,-4,2,5,5,-1,8
58,66,72,1,105,6,-1,2,4,4,-1,7
59,64,73,1,80,4,-2,2,2,2,-1,6
60,66,74,1,80,6,2,2,4,4,1,7
61,67,75,3,95,7,1,2,5,5,1,8
62,69,78,1,105,9,2,2,7,7,1,9
63,74,79,1,80,2,5,2,12,0,1,10
64,74,80,1,80,2,0,2,12,0,0,10
65,72,81,1,95,0,-2,2,10,10,-1,9
66,69,82,1,80,9,-3,2,7,7,-1,8
67,66,83,1,80,6,-3,2,4,4,-1,7
68,67,84,2,105,7,1,2,5,5,1,8
69,67,86,1,80,7,0,2,5,5,0,8
70,67,87,1,95,7,0,2,5,5,0,8
71,69,88,1,80,9,2,2,7,7,1,9
72,66,89,1,80,6,-3,2,4,4,-1,8
73,67,90,1,105,7,1,2,5,5,1,9
74,66,91,1,80,6,-1,2,4,4,-1,8
75,67,92,1,80,7,1,2,5,5,1,9
76,67,93,2,95,7,0,2,5,5,0,9
77,69,95,1,80,9,2,2,7,7,1,10
78,78,96,1,105,6,9,2,16,4,1,11
79,76,97,1,80,4,-2,2,14,2,-1,10
80,74,98,1,80,2,-2,2,12,0,-1,9
81,79,99,1,95,7,5,2,17,5,1,10
82,76,100,1,80,4,-3,2,14,2,-1,9
83,78,101,1,80,6,2,2,16,4,1,10
84,78,102,1,105,6,0,2,16,4,0,10
85,76,103,1,80,4,-2,2,14,2,-1,9
86,74,104,1,80,2,-2,2,12,0,-1,8
87,72,105,1,95,0,-2,2,10,10,-1,7
88,69,106,1,80,9,-3,2,7,7,-1,6
89,67,107,1,80,7,-2,2,5,5,-1,5
90,69,108,2,105,9,2,2,7,7,1,6
91,69,110,1,80,9,0,2,7,7,0,6
92,69,111,1,95,9,0,2,7,7,0,6
93,71,112,1,80,11,2,2,9,9,1,7
94,67,113,1,80,7,-4,2,5,5,-1,6
95,69,114,2,105,9,2,2,7,7,1,7
96,69,116,1,80,9,0,2,7,7,0,7
97,69,117,1,95,9,0,2,7,7,0,7
98,71,118,1,80,11,2,2,9,9,1,8
99,74,119,1,80,2,3,2,12,0,1,9
100,79,120,1,105,7,5,2,17,5,1,10
101,76,121,1,80,4,-3,2,14,2,-1,9
102,78,122,1,80,6,2,2,16,4,1,10
103,78,123,1,95,6,0,2,16,4,0,10
104,76,124,1,80,4,-2,2,14,2,-1,9
105,74,125,1,80,2,-2,2,12,0,-1,8
106,76,126,1,105,4,2,2,14,2,1,9
107,78,127,0,80,6,2,2,16,4,1,10
108,79,127,0,80,7,1,2,17,5,1,11
109,76,128,1,80,4,-3,2,14,2,-1,10
110,74,129,1,95,2,-2,2,12,0,-1,9
111,71,130,1,80,11,-3,2,9,9,-1,8
112,69,131,1,80,9,-2,2,7,7,-1,7
113,67,132,2,105,7,-2,2,5,5,-1,6
114,67,134,1,80,7,0,2,5,5,0,6
115,67,135,1,95,7,0,2,5,5,0,6
116,71,136,1,80,11,4,2,9,9,1,7
117,69,137,1,80,9,-2,2,7,7,-1,6
118,67,138,1,105,7,-2,2,5,5,-1,5
119,67,139,1,80,7,0,2,5,5,0,5
120,67,140,1,80,7,0,2,5,5,0,5
121,67,141,1,95,7,0,2,5,5,0,5
122,69,142,1,80,9,2,2,7,7,1,6
123,74,143,1,80,2,5,2,12,0,1,7
124,78,144,1,105,6,4,2,16,4,1,8
125,76,145,1,80,4,-2,2,14,2,-1,7
126,74,146,1,80,2,-2,2,12,0,-1,6
127,76,147,1,95,4,2,2,14,2,1,7
128,78,148,1,80,6,2,2,16,4,1,8
129,79,149,1,80,7,1,2,17,5,1,9
130,78,150,1,105,6,-1,2,16,4,-1,8
131,76,151,1,80,4,-2,2,14,2,-1,7
132,74,152,1,80,2,-2,2,12,0,-1,6
133,72,153,1,95,0,-2,2,10,10,-1,5
134,69,154,1,80,9,-3,2,7,7,-1,4
135,67,155,1,80,7,-2,2,5,5,-1,3
136,69,156,2,105,9,2,2,7,7,1,4
137,69,158,1,80,9,0,2,7,7,0,4
138,69,159,1,95,9,0,2,7,7,0,4
139,71,160,1,80,11,2,2,9,9,1,5
140,67,161,1,80,7,-4,2,5,5,-1,4
141,69,162,2,105,9,2,2,7,7,1,5
142,69,164,1,80,9,0,2,7,7,0,5
143,69,165,1,95,9,0,2,7,7,0,5
144,71,166,1,80,11,2,2,9,9,1,6
145,67,167,1,80,7,-4,2,5,5,-1,5
146,78,168,1,105,6,11,2,16,4,1,6
147,76,169,1,80,4,-2,2,14,2,-1,5
148,74,170,1,80,2,-2,2,12,0,-1,4
149,79,171,1,95,7,5,2,17,5,1,5
150,78,172,1,80,6,-1,2,16,4,-1,4
151,76,173,1,80,4,-2,2,14,2,-1,3
152,78,174,1,105,6,2,2,16,4,1,4
153,76,175,1,80,4,-2,2,14,2,-1,3
154,74,176,1,80,2,-2,2,12,0,-1,2
155,72,177,1,95,0,-2,2,10,10,-1,1
156,69,178,1,80,9,-3,2,7,7,-1,0
157,66,179,1,80,6,-3,2,4,4,-1,-1
158,67,180,2,105,7,1,2,5,5,1,0
159,67,182,1,80,7,0,2,5,5,0,0
160,67,183,1,95,7,0,2,5,5,0,0
161,69,184,1,80,9,2,2,7,7,1,1
162,66,185,1,80,6,-3,2,4,4,-1,0
163,67,186,1,105,7,1,2,5,5,1,1
164,66,187,1,80,6,-1,2,4,4,-1,0
165,67,188,1,80,7,1,2,5,5,1,1
166,67,189,2,95,7,0,2,5,5,0,1
167,76,191,1,80,4,9,2,14,2,1,2
168,78,192,3,105,6,2,2,16,4,1,3
169,79,195,1,95,7,1,2,17,5,1,4
170,78,196,1,80,6,-1,2,16,4,-1,3
171,79,197,1,80,7,1,2,17,5,1,4
172,81,198,2,105,9,2,2,19,7,1,5
173,83,200,1,80,11,2,2,21,9,1,6
174,81,201,1,95,9,-2,2,19,7,-1,5
175,81,202,1,80,9,0,2,19,7,0,5
176,79,203,1,80,7,-2,2,17,5,-1,4
177,81,204,2,105,9,2,2,19,7,1,5
178,81,206,1,80,9,0,2,19,7,0,5
179,81,207,1,95,9,0,2,19,7,0,5
180,83,208,1,80,11,2,2,21,9,1,6
181,79,209,1,80,7,-4,2,17,5,-1,5
182,81,210,1,105,9,2,2,19,7,1,6
183,79,211,1,80,7,-2,2,17,5,-1,5
184,81,212,1,80,9,2,2,19,7,1,6
185,81,213,1,95,9,0,2,19,7,0,6
186,83,214,1,80,11,2,2,21,9,1,7
187,79,215,1,80,7,-4,2,17,5,-1,6
188,78,216,1,105,6,-1,2,16,4,-1,5
189,76,217,1,80,4,-2,2,14,2,-1,4
190,78,218,1,80,6,2,2,16,4,1,5
191,79,219,1,95,7,1,2,17,5,1,6
192,78,220,1,80,6,-1,2,16,4,-1,5
193,79,221,1,80,7,1,2,17,5,1,6
194,81,222,2,105,9,2,2,19,7,1,7
195,83,224,1,80,11,2,2,21,9,1,8
196,81,225,1,95,9,-2,2,19,7,-1,7
197,81,226,1,80,9,0,2,19,7,0,7
198,78,227,1,80,6,-3,2,16,4,-1,6
199,79,228,2,105,7,1,2,17,5,1,7
200,79,230,1,80,7,0,2,17,5,0,7
201,81,231,2,95,9,2,2,19,7,1,8
202,78,233,1,80,6,-3,2,16,4,-1,7
203,79,234,2,105,7,1,2,17,5,1,8
204,79,236,1,80,7,0,2,17,5,0,8
205,79,237,1,95,7,0,2,17,5,0,8
206,81,238,1,80,9,2,2,19,7,1,9
207,79,239,1,80,7,-2,2,17,5,-1,8
208,78,240,2,105,6,-1,2,16,4,-1,7
209,74,242,1,80,2,-4,2,12,0,-1,6
210,79,243,2,95,7,5,2,17,5,1,7
211,76,245,1,80,4,-3,2,14,2,-1,6
212,78,246,1,105,6,2,2,16,4,1,7
213,76,247,1,80,4,-2,2,14,2,-1,6
214,74,248,1,80,2,-2,2,12,0,-1,5
215,72,249,1,95,0,-2,2,10,10,-1,4
216,69,250,1,80,9,-3,2,7,7,-1,3
217,66,251,1,80,6,-3,2,4,4,-1,2
218,69,252,2,105,9,3,2,7,7,1,3
219,69,254,1,80,9,0,2,7,7,0,3
220,69,255,1,95,9,0,2,7,7,0,3
221,71,256,1,80,11,2,2,9,9,1,4
222,67,257,1,80,7,-4,2,5,5,-1,3
223,69,258,1,105,9,2,2,7,7,1,4
224,69,259,1,80,9,0,2,7,7,0,4
225,69,260,1,80,9,0,2,7,7,0,4
226,69,261,1,95,9,0,2,7,7,0,4
227,71,262,1,80,11,2,2,9,9,1,5
228,67,263,1,80,7,-4,2,5,5,-1,4
229,78,264,1,105,6,11,2,16,4,1,5
230,76,265,1,80,4,-2,2,14,2,-1,4
231,74,266,1,80,2,-2,2,12,0,-1,3
232,79,267,1,95,7,5,2,17,5,1,4
233,78,268,1,80,6,-1,2,16,4,-1,3
234,76,269,1,80,4,-2,2,14,2,-1,2
235,78,270,1,105,6,2,2,16,4,1,3
236,76,271,1,80,4,-2,2,14,2,-1,2
237,74,272,1,80,2,-2,2,12,0,-1,1
238,72,273,1,95,0,-2,2,10,10,-1,0
239,69,274,1,80,9,-3,2,7,7,-1,-1
240,66,275,1,80,6,-3,2,4,4,-1,-2
241,67,276,2,105,7,1,2,5,5,1,-1
242,67,278,1,80,7,0,2,5,5,0,-1
243,67,279,1,95,7,0,2,5,5,0,-1
244,69,280,1,80,9,2,2,7,7,1,0
245,66,281,1,80,6,-3,2,4,4,-1,-1
246,67,282,1,105,7,1,2,5,5,1,0
247,66,283,1,80,6,-1,2,4,4,-1,-1
248,67,284,1,80,7,1,2,5,5,1,0
249,67,285,6,95,7,0,2,5,5,0,0
