,midi_note,onset,duration,velocity,pitch_class,interval,root,relative_pitch,relative_pitch_class,parsons_code,parsons_cumsum
0,59,1,1,105,11,0,4,-5,7,0,0
1,64,2,1,80,4,5,4,0,0,1,1
2,67,3,1,80,7,3,4,3,3,1,2
3,64,4,1,80,4,-3,4,0,0,-1,1
4,59,5,1,95,11,-5,4,-5,7,-1,0
5,64,6,1,80,4,5,4,0,0,1,1
6,67,7,1,80,7,3,4,3,3,1,2
7,64,8,1,80,4,-3,4,0,0,-1,1
8,66,9,1,105,6,2,4,2,2,1,2
9,62,10,1,80,2,-4,4,-2,10,-1,1
10,57,11,1,80,9,-5,4,-7,5,-1,0
11,62,12,1,80,2,5,4,-2,10,1,1
12,57,13,1,95,9,-5,4,-7,5,-1,0
13,62,14,1,80,2,5,4,-2,10,1,1
14,66,15,1,80,6,4,4,2,2,1,2
15,62,16,1,80,2,-4,4,-2,10,-1,1
16,59,17,1,105,11,-3,4,-5,7,-1,0
17,64,18,1,80,4,5,4,0,0,1,1
18,67,19,1,80,7,3,4,3,3,1,2
19,64,20,1,80,4,-3,4,0,0,-1,1
20,59,21,1,95,11,-5,4,-5,7,-1,0
21,64,22,1,80,4,5,4,0,0,1,1
22,67,23,1,80,7,3,4,3,3,1,2
23,64,24,1,80,4,-3,4,0,0,-1,1
24,66,25,1,105,6,2,4,2,2,1,2
25,62,26,1,80,2,-4,4,-2,10,-1,1
26,57,27,1,80,9,-5,4,-7,5,-1,0
27,62,28,1,80,2,5,4,-2,10,1,1
28,66,29,1,95,6,4,4,2,2,1,2
29,64,30,1,80,4,-2,4,0,0,-1,1
30,64,31,2,80,4,0,4,0,0,0,1
31,59,33,1,105,11,-5,4,-5,7,-1,0
32,64,34,1,80,4,5,4,0,0,1,1
33,67,35,1,80,7,3,4,3,3,1,2
34,64,36,1,80,4,-3,4,0,0,-1,1
35,59,37,1,95,11,-5,4,-5,7,-1,0
36,64,38,1,80,4,5,4,0,0,1,1
37,64,39,2,80,4,0,4,0,0,0,1
38,66,41,1,105,6,2,4,2,2,1,2
39,62,42,1,80,2,-4,4,-2,10,-1,1
40,57,43,1,80,9,-5,4,-7,5,-1,0
41,62,44,1,80,2,5,4,-2,10,1,1
42,57,45,1,95,9,-5,4,-7,5,-1,0
43,62,46,1,80,2,5,4,-2,10,1,1
44,66,47,1,80,6,4,4,2,2,1,2
45,62,48,1,80,2,-4,4,-2,10,-1,1
46,59,49,1,105,11,-3,4,-5,7,-1,0
47,64,50,1,80,4,5,4,0,0,1,1
48,64,51,1,80,4,0,4,0,0,0,1
49,66,52,1,80,6,2,4,2,2,1,2
50,67,53,2,95,7,1,4,3,3,1,3
51,67,55,1,80,7,0,4,3,3,0,3
52,69,56,1,80,9,2,4,5,5,1,4
53,71,57,1,105,11,2,4,7,7,1,5
54,69,58,1,80,9,-2,4,5,5,-1,4
55,74,59,1,80,2,5,4,10,10,1,5
56,69,60,1,80,9,-5,4,5,5,-1,4
57,66,61,1,95,6,-3,4,2,2,-1,3
58,64,62,1,80,4,-2,4,0,0,-1,2
59,64,63,1,80,4,0,4,0,0,0,2
60,59,65,1,105,11,-5,4,-5,7,-1,1
61,64,66,1,80,4,5,4,0,0,1,2
62,67,67,1,80,7,3,4,3,3,1,3
63,64,68,1,80,4,-3,4,0,0,-1,2
64,59,69,1,95,11,-5,4,-5,7,-1,1
65,64,70,1,80,4,5,4,0,0,1,2
66,67,71,1,80,7,3,4,3,3,1,3
67,64,72,1,80,4,-3,4,0,0,-1,2
68,66,73,1,105,6,2,4,2,2,1,3
69,62,74,1,80,2,-4,4,-2,10,-1,2
70,57,75,1,80,9,-5,4,-7,5,-1,1
71,62,76,1,80,2,5,4,-2,10,1,2
72,57,77,1,95,9,-5,4,-7,5,-1,1
73,62,78,1,80,2,5,4,-2,10,1,2
74,66,79,1,80,6,4,4,2,2,1,3
75,62,80,1,80,2,-4,4,-2,10,-1,2
76,59,81,1,105,11,-3,4,-5,7,-1,1
77,64,82,1,80,4,5,4,0,0,1,2
78,67,83,1,80,7,3,4,3,3,1,3
79,64,84,1,80,4,-3,4,0,0,-1,2
80,59,85,1,95,11,-5,4,-5,7,-1,1
81,64,86,1,80,4,5,4,0,0,1,2
82,67,87,1,80,7,3,4,3,3,1,3
83,64,88,1,80,4,-3,4,0,0,-1,2
84,66,89,1,105,6,2,4,2,2,1,3
85,62,90,1,80,2,-4,4,-2,10,-1,2
86,57,91,1,80,9,-5,4,-7,5,-1,1
87,62,92,1,80,2,5,4,-2,10,1,2
88,66,93,1,95,6,4,4,2,2,1,3
89,64,94,1,80,4,-2,4,0,0,-1,2
90,64,95,2,80,4,0,4,0,0,0,2
91,59,97,1,105,11,-5,4,-5,7,-1,1
92,64,98,1,80,4,5,4,0,0,1,2
93,67,99,1,80,7,3,4,3,3,1,3
94,64,100,1,80,4,-3,4,0,0,-1,2
95,59,101,1,95,11,-5,4,-5,7,-1,1
96,64,102,1,80,4,5,4,0,0,1,2
97,64,103,2,80,4,0,4,0,0,0,2
98,66,105,1,105,6,2,4,2,2,1,3
99,62,106,1,80,2,-4,4,-2,10,-1,2
100,57,107,1,80,9,-5,4,-7,5,-1,1
101,62,108,1,80,2,5,4,-2,10,1,2
102,57,109,1,95,9,-5,4,-7,5,-1,1
103,62,110,1,80,2,5,4,-2,10,1,2
104,66,111,1,80,6,4,4,2,2,1,3
105,62,112,1,80,2,-4,4,-2,10,-1,2
106,59,113,1,105,11,-3,4,-5,7,-1,1
107,64,114,1,80,4,5,4,0,0,1,2
108,64,115,1,80,4,0,4,0,0,0,2
109,66,116,1,80,6,2,4,2,2,1,3
110,67,117,2,95,7,1,4,3,3,1,4
111,67,119,1,80,7,0,4,3,3,0,4
112,69,120,1,80,9,2,4,5,5,1,5
113,71,121,1,105,11,2,4,7,7,1,6
114,69,122,1,80,9,-2,4,5,5,-1,5
115,74,123,1,80,2,5,4,10,10,1,6
116,69,124,1,80,9,-5,4,5,5,-1,5
117,66,125,1,95,6,-3,4,2,2,-1,4
118,64,126,1,80,4,-2,4,0,0,-1,3
119,64,127,1,80,4,0,4,0,0,0,3
120,71,128,1,80,11,7,4,7,7,1,4
121,76,129,1,105,4,5,4,12,0,1,5
122,83,130,1,80,11,7,4,19,7,1,6
123,79,131,1,80,7,-4,4,15,3,-1,5
124,76,132,1,80,4,-3,4,12,0,-1,4
125,78,133,1,95,6,2,4,14,2,1,5
126,81,134,1,80,9,3,4,17,5,1,6
127,76,135,1,80,4,-5,4,12,0,-1,5
128,81,136,1,80,9,5,4,17,5,1,6
129,78,137,1,105,6,-3,4,14,2,-1,5
130,74,138,1,80,2,-4,4,10,10,-1,4
131,74,139,2,80,2,0,4,10,10,0,4
132,81,141,1,95,9,7,4,17,5,1,5
133,74,142,1,80,2,-7,4,10,10,-1,4
134,83,143,1,80,11,9,4,19,7,1,5
135,74,144,1,80,2,-9,4,10,10,-1,4
136,76,145,1,105,4,2,4,12,0,1,5
137,83,146,1,80,11,7,4,19,7,1,6
138,79,147,1,80,7,-4,4,15,3,-1,5
139,76,148,1,80,4,-3,4,12,0,-1,4
140,78,149,2,95,6,2,4,14,2,1,5
141,76,151,1,80,4,-2,4,12,0,-1,4
142,78,152,1,80,6,2,4,14,2,1,5
143,74,153,1,105,2,-4,4,10,10,-1,4
144,71,154,1,80,11,-3,4,7,7,-1,3
145,69,155,1,80,9,-2,4,5,5,-1,2
146,74,156,1,80,2,5,4,10,10,1,3
147,71,157,1,95,11,-3,4,7,7,-1,2
148,64,158,1,80,4,-7,4,0,0,-1,1
149,64,159,2,80,4,0,4,0,0,0,1
150,76,161,1,105,4,12,4,12,0,1,2
151,83,162,1,80,11,7,4,19,7,1,3
152,79,163,1,80,7,-4,4,15,3,-1,2
153,76,164,1,80,4,-3,4,12,0,-1,1
154,78,165,1,95,6,2,4,14,2,1,2
155,81,166,1,80,9,3,4,17,5,1,3
156,76,167,1,80,4,-5,4,12,0,-1,2
157,81,168,1,80,9,5,4,17,5,1,3
158,78,169,1,105,6,-3,4,14,2,-1,2
159,74,170,1,80,2,-4,4,10,10,-1,1
160,74,171,2,80,2,0,4,10,10,0,1
161,74,173,1,95,2,0,4,10,10,0,1
162,78,174,1,80,6,4,4,14,2,1,2
163,81,175,1,80,9,3,4,17,5,1,3
164,78,176,1,80,6,-3,4,14,2,-1,2
165,67,177,3,105,7,-11,4,3,3,-1,1
166,69,180,1,80,9,2,4,5,5,1,2
167,71,181,1,95,11,2,4,7,7,1,3
168,69,182,1,80,9,-2,4,5,5,-1,2
169,71,183,1,80,11,2,4,7,7,1,3
170,73,184,1,80,1,2,4,9,9,1,4
171,74,185,1,105,2,1,4,10,10,1,5
172,71,186,1,80,11,-3,4,7,7,-1,4
173,69,187,1,80,9,-2,4,5,5,-1,3
174,66,188,1,80,6,-3,4,2,2,-1,2
175,67,189,1,95,7,1,4,3,3,1,3
176,64,190,1,80,4,-3,4,0,0,-1,2
177,64,191,1,80,4,0,4,0,0,0,2
178,71,192,1,80,11,7,4,7,7,1,3
179,76,193,1,105,4,5,4,12,0,1,4
180,83,194,1,80,11,7,4,19,7,1,5
181,79,195,1,80,7,-4,4,15,3,-1,4
182,76,196,1,80,4,-3,4,12,0,-1,3
183,78,197,1,95,6,2,4,14,2,1,4
184,81,198,1,80,9,3,4,17,5,1,5
185,76,199,1,80,4,-5,4,12,0,-1,4
186,81,200,1,80,9,5,4,17,5,1,5
187,78,201,1,105,6,-3,4,14,2,-1,4
188,74,202,1,80,2,-4,4,10,10,-1,3
189,74,203,2,80,2,0,4,10,10,0,3
190,81,205,1,95,9,7,4,17,5,1,4
191,74,206,1,80,2,-7,4,10,10,-1,3
192,83,207,1,80,11,9,4,19,7,1,4
193,74,208,1,80,2,-9,4,10,10,-1,3
194,76,209,1,105,4,2,4,12,0,1,4
195,83,210,1,80,11,7,4,19,7,1,5
196,79,211,1,80,7,-4,4,15,3,-1,4
197,76,212,1,80,4,-3,4,12,0,-1,3
198,78,213,2,95,6,2,4,14,2,1,4
199,76,215,1,80,4,-2,4,12,0,-1,3
200,78,216,1,80,6,2,4,14,2,1,4
201,74,217,1,105,2,-4,4,10,10,-1,3
202,71,218,1,80,11,-3,4,7,7,-1,2
203,69,219,1,80,9,-2,4,5,5,-1,1
204,74,220,1,80,2,5,4,10,10,1,2
205,71,221,1,95,11,-3,4,7,7,-1,1
206,64,222,1,80,4,-7,4,0,0,-1,0
207,64,223,2,80,4,0,4,0,0,0,0
208,76,225,1,105,4,12,4,12,0,1,1
209,83,226,1,80,11,7,4,19,7,1,2
210,79,227,1,80,7,-4,4,15,3,-1,1
211,76,228,1,80,4,-3,4,12,0,-1,0
212,78,229,1,95,6,2,4,14,2,1,1
213,81,230,1,80,9,3,4,17,5,1,2
214,76,231,1,80,4,-5,4,12,0,-1,1
215,81,232,1,80,9,5,4,17,5,1,2
216,78,233,1,105,6,-3,4,14,2,-1,1
217,74,234,1,80,2,-4,4,10,10,-1,0
218,74,235,2,80,2,0,4,10,10,0,0
219,74,237,1,95,2,0,4,10,10,0,0
220,78,238,1,80,6,4,4,14,2,1,1
221,81,239,1,80,9,3,4,17,5,1,2
222,78,240,1,80,6,-3,4,14,2,-1,1
223,67,241,3,105,7,-11,4,3,3,-1,0
224,69,244,1,80,9,2,4,5,5,1,1
225,71,245,1,95,11,2,4,7,7,1,2
226,69,246,1,80,9,-2,4,5,5,-1,1
227,71,247,1,80,11,2,4,7,7,1,2
228,73,248,1,80,1,2,4,9,9,1,3
229,74,249,1,105,2,1,4,10,10,1,4
230,71,250,1,80,11,-3,4,7,7,-1,3
231,69,251,1,80,9,-2,4,5,5,-1,2
232,66,252,1,80,6,-3,4,2,2,-1,1
233,67,253,1,95,7,1,4,3,3,1,2
234,64,254,1,80,4,-3,4,0,0,-1,1
235,66,255,1,80,6,2,4,2,2,1,2
236,62,256,1,80,2,-4,4,-2,10,-1,1
