,midi_note,onset,duration,velocity,pitch_class,interval,root,relative_pitch,relative_pitch_class,parsons_code,parsons_cumsum
0,71,0,2,105,11,0,7,4,4,0,0
1,71,2,1,80,11,0,7,4,4,0,0
2,69,3,1,80,9,-2,7,2,2,-1,-1
3,71,4,1,95,11,2,7,4,4,1,0
4,72,5,1,80,0,1,7,5,5,1,1
5,74,6,1,80,2,2,7,7,7,1,2
6,71,7,1,80,11,-3,7,4,4,-1,1
7,72,8,1,105,0,1,7,5,5,1,2
8,71,9,1,80,11,-1,7,4,4,-1,1
9,69,10,1,80,9,-2,7,2,2,-1,0
10,71,11,1,80,11,2,7,4,4,1,1
11,72,12,1,95,0,1,7,5,5,1,2
12,74,13,1,80,2,2,7,7,7,1,3
13,76,14,1,80,4,2,7,9,9,1,4
14,72,15,1,80,0,-4,7,5,5,-1,3
15,69,16,1,105,9,-3,7,2,2,-1,2
16,74,17,1,80,2,5,7,7,7,1,3
17,74,18,1,80,2,0,7,7,7,0,3
18,72,19,1,80,0,-2,7,5,5,-1,2
19,74,20,1,95,2,2,7,7,7,1,3
20,72,21,1,80,0,-2,7,5,5,-1,2
21,69,22,1,80,9,-3,7,2,2,-1,1
22,67,23,1,80,7,-2,7,0,0,-1,0
23,66,24,1,105,6,-1,7,-1,11,-1,-1
24,67,25,1,80,7,1,7,0,0,1,0
25,69,26,1,80,9,2,7,2,2,1,1
26,66,27,1,80,6,-3,7,-1,11,-1,0
27,62,28,1,95,2,-4,7,-5,7,-1,-1
28,64,29,1,80,4,2,7,-3,9,1,0
29,66,30,1,80,6,2,7,-1,11,1,1
30,62,31,1,80,2,-4,7,-5,7,-1,0
31,71,32,3,105,11,9,7,4,4,1,1
32,69,35,1,80,9,-2,7,2,2,-1,0
33,71,36,1,95,11,2,7,4,4,1,1
34,72,37,1,80,0,1,7,5,5,1,2
35,74,38,1,80,2,2,7,7,7,1,3
36,71,39,1,80,11,-3,7,4,4,-1,2
37,72,40,1,105,0,1,7,5,5,1,3
38,71,41,1,80,11,-1,7,4,4,-1,2
39,69,42,1,80,9,-2,7,2,2,-1,1
40,71,43,1,80,11,2,7,4,4,1,2
41,72,44,1,95,0,1,7,5,5,1,3
42,74,45,1,80,2,2,7,7,7,1,4
43,76,46,1,80,4,2,7,9,9,1,5
44,78,47,1,80,6,2,7,11,11,1,6
45,79,48,2,105,7,1,7,12,0,1,7
46,78,50,1,80,6,-1,7,11,11,-1,6
47,79,51,1,80,7,1,7,12,0,1,7
48,76,52,1,95,4,-3,7,9,9,-1,6
49,72,53,1,80,0,-4,7,5,5,-1,5
50,69,54,1,80,9,-3,7,2,2,-1,4
51,66,55,1,80,6,-3,7,-1,11,-1,3
52,67,56,2,105,7,1,7,0,0,1,4
53,67,58,1,80,7,0,7,0,0,0,4
54,66,59,1,80,6,-1,7,-1,11,-1,3
55,67,60,2,95,7,1,7,0,0,1,4
56,62,62,1,80,2,-5,7,-5,7,-1,3
57,67,63,1,80,7,5,7,0,0,1,4
58,71,64,2,105,11,4,7,4,4,1,5
59,71,66,1,80,11,0,7,4,4,0,5
60,69,67,1,80,9,-2,7,2,2,-1,4
61,71,68,1,95,11,2,7,4,4,1,5
62,72,69,1,80,0,1,7,5,5,1,6
63,74,70,1,80,2,2,7,7,7,1,7
64,71,71,1,80,11,-3,7,4,4,-1,6
65,72,72,1,105,0,1,7,5,5,1,7
66,71,73,1,80,11,-1,7,4,4,-1,6
67,69,74,1,80,9,-2,7,2,2,-1,5
68,71,75,1,80,11,2,7,4,4,1,6
69,72,76,1,95,0,1,7,5,5,1,7
70,74,77,1,80,2,2,7,7,7,1,8
71,76,78,1,80,4,2,7,9,9,1,9
72,72,79,1,80,0,-4,7,5,5,-1,8
73,69,80,1,105,9,-3,7,2,2,-1,7
74,74,81,1,80,2,5,7,7,7,1,8
75,74,82,1,80,2,0,7,7,7,0,8
76,72,83,1,80,0,-2,7,5,5,-1,7
77,74,84,1,95,2,2,7,7,7,1,8
78,72,85,1,80,0,-2,7,5,5,-1,7
79,69,86,1,80,9,-3,7,2,2,-1,6
80,67,87,1,80,7,-2,7,0,0,-1,5
81,66,88,1,105,6,-1,7,-1,11,-1,4
82,67,89,1,80,7,1,7,0,0,1,5
83,69,90,1,80,9,2,7,2,2,1,6
84,66,91,1,80,6,-3,7,-1,11,-1,5
85,62,92,1,95,2,-4,7,-5,7,-1,4
86,64,93,1,80,4,2,7,-3,9,1,5
87,66,94,1,80,6,2,7,-1,11,1,6
88,62,95,1,80,2,-4,7,-5,7,-1,5
89,71,96,3,105,11,9,7,4,4,1,6
90,69,99,1,80,9,-2,7,2,2,-1,5
91,71,100,1,95,11,2,7,4,4,1,6
92,72,101,1,80,0,1,7,5,5,1,7
93,74,102,1,80,2,2,7,7,7,1,8
94,71,103,1,80,11,-3,7,4,4,-1,7
95,72,104,1,105,0,1,7,5,5,1,8
96,71,105,1,80,11,-1,7,4,4,-1,7
97,69,106,1,80,9,-2,7,2,2,-1,6
98,71,107,1,80,11,2,7,4,4,1,7
99,72,108,1,95,0,1,7,5,5,1,8
100,74,109,1,80,2,2,7,7,7,1,9
101,76,110,1,80,4,2,7,9,9,1,10
102,78,111,1,80,6,2,7,11,11,1,11
103,79,112,2,105,7,1,7,12,0,1,12
104,78,114,1,80,6,-1,7,11,11,-1,11
105,79,115,1,80,7,1,7,12,0,1,12
106,76,116,1,95,4,-3,7,9,9,-1,11
107,72,117,1,80,0,-4,7,5,5,-1,10
108,69,118,1,80,9,-3,7,2,2,-1,9
109,66,119,1,80,6,-3,7,-1,11,-1,8
110,67,120,2,105,7,1,7,0,0,1,9
111,67,122,1,80,7,0,7,0,0,0,9
112,66,123,1,80,6,-1,7,-1,11,-1,8
113,67,124,1,95,7,1,7,0,0,1,9
114,69,125,1,80,9,2,7,2,2,1,10
115,71,126,1,80,11,2,7,4,4,1,11
116,72,127,1,80,0,1,7,5,5,1,12
117,74,128,1,105,2,2,7,7,7,1,13
118,79,129,1,80,7,5,7,12,0,1,14
119,79,130,1,80,7,0,7,12,0,0,14
120,78,131,1,80,6,-1,7,11,11,-1,13
121,79,132,1,95,7,1,7,12,0,1,14
122,74,133,1,80,2,-5,7,7,7,-1,13
123,71,134,1,80,11,-3,7,4,4,-1,12
124,74,135,1,80,2,3,7,7,7,1,13
125,79,136,2,105,7,5,7,12,0,1,14
126,78,138,1,80,6,-1,7,11,11,-1,13
127,79,139,1,80,7,1,7,12,0,1,14
128,76,140,1,95,4,-3,7,9,9,-1,13
129,69,141,1,80,9,-7,7,2,2,-1,12
130,71,142,1,80,11,2,7,4,4,1,13
131,69,143,1,80,9,-2,7,2,2,-1,12
132,76,144,1,105,4,7,7,9,9,1,13
133,69,145,1,80,9,-7,7,2,2,-1,12
134,71,146,0,80,11,2,7,4,4,1,13
135,69,146,1,80,9,-2,7,2,2,-1,12
136,76,148,1,95,4,7,7,9,9,1,13
137,69,149,1,80,9,-7,7,2,2,-1,12
138,76,150,1,80,4,7,7,9,9,1,13
139,79,151,1,80,7,3,7,12,0,1,14
140,78,152,1,105,6,-1,7,11,11,-1,13
141,79,153,1,80,7,1,7,12,0,1,14
142,81,154,1,80,9,2,7,14,2,1,15
143,79,155,1,80,7,-2,7,12,0,-1,14
144,78,156,1,95,6,-1,7,11,11,-1,13
145,79,157,1,80,7,1,7,12,0,1,14
146,81,158,1,80,9,2,7,14,2,1,15
147,78,159,1,80,6,-3,7,11,11,-1,14
148,79,160,2,105,7,1,7,12,0,1,15
149,79,162,1,80,7,0,7,12,0,0,15
150,78,163,1,80,6,-1,7,11,11,-1,14
151,79,164,1,95,7,1,7,12,0,1,15
152,74,165,1,80,2,-5,7,7,7,-1,14
153,71,166,1,80,11,-3,7,4,4,-1,13
154,74,167,1,80,2,3,7,7,7,1,14
155,79,168,2,105,7,5,7,12,0,1,15
156,78,170,1,80,6,-1,7,11,11,-1,14
157,79,171,1,80,7,1,7,12,0,1,15
158,76,172,1,95,4,-3,7,9,9,-1,14
159,69,173,1,80,9,-7,7,2,2,-1,13
160,71,174,1,80,11,2,7,4,4,1,14
161,69,175,1,80,9,-2,7,2,2,-1,13
162,76,176,1,105,4,7,7,9,9,1,14
163,69,177,1,80,9,-7,7,2,2,-1,13
164,69,178,1,80,9,0,7,2,2,0,13
165,69,179,1,80,9,0,7,2,2,0,13
166,76,180,1,95,4,7,7,9,9,1,14
167,69,181,1,80,9,-7,7,2,2,-1,13
168,76,182,1,80,4,7,7,9,9,1,14
169,79,183,1,80,7,3,7,12,0,1,15
170,78,184,1,105,6,-1,7,11,11,-1,14
171,79,185,1,80,7,1,7,12,0,1,15
172,81,186,1,80,9,2,7,14,2,1,16
173,78,187,1,80,6,-3,7,11,11,-1,15
174,79,188,2,95,7,1,7,12,0,1,16
175,76,190,1,80,4,-3,7,9,9,-1,15
176,78,191,1,80,6,2,7,11,11,1,16
177,79,192,2,105,7,1,7,12,0,1,17
178,79,194,1,80,7,0,7,12,0,0,17
179,78,195,1,80,6,-1,7,11,11,-1,16
180,79,196,1,95,7,1,7,12,0,1,17
181,74,197,1,80,2,-5,7,7,7,-1,16
182,71,198,1,80,11,-3,7,4,4,-1,15
183,74,199,1,80,2,3,7,7,7,1,16
184,79,200,2,105,7,5,7,12,0,1,17
185,78,202,1,80,6,-1,7,11,11,-1,16
186,79,203,1,80,7,1,7,12,0,1,17
187,76,204,1,95,4,-3,7,9,9,-1,16
188,69,205,1,80,9,-7,7,2,2,-1,15
189,69,206,2,80,9,0,7,2,2,0,15
190,76,208,1,105,4,7,7,9,9,1,16
191,69,209,1,80,9,-7,7,2,2,-1,15
192,71,210,0,80,11,2,7,4,4,1,16
193,69,210,1,80,9,-2,7,2,2,-1,15
194,76,212,1,95,4,7,7,9,9,1,16
195,69,213,1,80,9,-7,7,2,2,-1,15
196,76,214,1,80,4,7,7,9,9,1,16
197,79,215,1,80,7,3,7,12,0,1,17
198,78,216,1,105,6,-1,7,11,11,-1,16
199,79,217,1,80,7,1,7,12,0,1,17
200,81,218,1,80,9,2,7,14,2,1,18
201,79,219,1,80,7,-2,7,12,0,-1,17
202,78,220,1,95,6,-1,7,11,11,-1,16
203,79,221,1,80,7,1,7,12,0,1,17
204,81,222,1,80,9,2,7,14,2,1,18
205,78,223,1,80,6,-3,7,11,11,-1,17
206,79,224,2,105,7,1,7,12,0,1,18
207,79,226,1,80,7,0,7,12,0,0,18
208,78,227,1,80,6,-1,7,11,11,-1,17
209,79,228,1,95,7,1,7,12,0,1,18
210,74,229,1,80,2,-5,7,7,7,-1,17
211,71,230,1,80,11,-3,7,4,4,-1,16
212,74,231,1,80,2,3,7,7,7,1,17
213,79,232,2,105,7,5,7,12,0,1,18
214,78,234,1,80,6,-1,7,11,11,-1,17
215,79,235,1,80,7,1,7,12,0,1,18
216,76,236,1,95,4,-3,7,9,9,-1,17
217,69,237,1,80,9,-7,7,2,2,-1,16
218,69,238,2,80,9,0,7,2,2,0,16
219,76,240,1,105,4,7,7,9,9,1,17
220,69,241,1,80,9,-7,7,2,2,-1,16
221,69,242,2,80,9,0,7,2,2,0,16
222,76,244,1,95,4,7,7,9,9,1,17
223,69,245,1,80,9,-7,7,2,2,-1,16
224,76,246,1,80,4,7,7,9,9,1,17
225,79,247,1,80,7,3,7,12,0,1,18
226,78,248,1,105,6,-1,7,11,11,-1,17
227,79,249,1,80,7,1,7,12,0,1,18
228,81,250,1,80,9,2,7,14,2,1,19
229,78,251,1,80,6,-3,7,11,11,-1,18
230,79,252,1,95,7,1,7,12,0,1,19
231,78,253,1,80,6,-1,7,11,11,-1,18
232,76,254,1,80,4,-2,7,9,9,-1,17
233,74,255,1,80,2,-2,7,7,7,-1,16
234,79,256,8,105,7,5,7,12,0,1,17
