,midi_note,onset,duration,velocity,pitch_class,interval,root,relative_pitch,relative_pitch_class,parsons_code,parsons_cumsum
0,62,0,1,105,2,0,0,2,2,0,0
1,64,1,1,80,4,2,0,4,4,1,1
2,65,2,1,80,5,1,0,5,5,1,2
3,69,3,1,80,9,4,0,9,9,1,3
4,74,4,2,95,2,5,0,14,2,1,4
5,72,6,1,80,0,-2,0,12,0,-1,3
6,69,7,1,80,9,-3,0,9,9,-1,2
7,67,8,1,105,7,-2,0,7,7,-1,1
8,64,9,1,80,4,-3,0,4,4,-1,0
9,64,10,1,80,4,0,0,4,4,0,0
10,62,11,1,80,2,-2,0,2,2,-1,-1
11,64,12,1,95,4,2,0,4,4,1,0
12,65,13,1,80,5,1,0,5,5,1,1
13,67,14,1,80,7,2,0,7,7,1,2
14,71,15,1,80,11,4,0,11,11,1,3
15,69,16,1,105,9,-2,0,9,9,-1,2
16,74,17,1,80,2,5,0,14,2,1,3
17,74,18,1,80,2,0,0,14,2,0,3
18,76,19,1,80,4,2,0,16,4,1,4
19,74,20,1,95,2,-2,0,14,2,-1,3
20,72,21,1,80,0,-2,0,12,0,-1,2
21,69,22,1,80,9,-3,0,9,9,-1,1
22,71,23,1,80,11,2,0,11,11,1,2
23,72,24,0,105,0,1,0,12,0,1,3
24,71,24,0,80,11,-1,0,11,11,-1,2
25,69,25,0,80,9,-2,0,9,9,-1,1
26,67,26,1,80,7,-2,0,7,7,-1,0
27,64,27,1,80,4,-3,0,4,4,-1,-1
28,64,28,1,95,4,0,0,4,4,0,-1
29,62,29,1,80,2,-2,0,2,2,-1,-2
30,60,30,1,80,0,-2,0,0,0,-1,-3
31,64,31,1,80,4,4,0,4,4,1,-2
32,62,32,1,105,2,-2,0,2,2,-1,-3
33,64,33,1,80,4,2,0,4,4,1,-2
34,65,34,1,80,5,1,0,5,5,1,-1
35,69,35,1,80,9,4,0,9,9,1,0
36,74,36,2,95,2,5,0,14,2,1,1
37,72,38,1,80,0,-2,0,12,0,-1,0
38,69,39,1,80,9,-3,0,9,9,-1,-1
39,67,40,1,105,7,-2,0,7,7,-1,-2
40,64,41,1,80,4,-3,0,4,4,-1,-3
41,64,42,1,80,4,0,0,4,4,0,-3
42,62,43,1,80,2,-2,0,2,2,-1,-4
43,64,44,1,95,4,2,0,4,4,1,-3
44,65,45,1,80,5,1,0,5,5,1,-2
45,67,46,1,80,7,2,0,7,7,1,-1
46,71,47,1,80,11,4,0,11,11,1,0
47,69,48,1,105,9,-2,0,9,9,-1,-1
48,74,49,1,80,2,5,0,14,2,1,0
49,74,50,1,80,2,0,0,14,2,0,0
50,76,51,1,80,4,2,0,16,4,1,1
51,74,52,1,95,2,-2,0,14,2,-1,0
52,72,53,1,80,0,-2,0,12,0,-1,-1
53,69,54,1,80,9,-3,0,9,9,-1,-2
54,71,55,1,80,11,2,0,11,11,1,-1
55,72,56,0,105,0,1,0,12,0,1,0
56,71,56,0,80,11,-1,0,11,11,-1,-1
57,69,57,0,80,9,-2,0,9,9,-1,-2
58,67,58,1,80,7,-2,0,7,7,-1,-3
59,64,59,1,80,4,-3,0,4,4,-1,-4
60,64,60,1,95,4,0,0,4,4,0,-4
61,62,61,1,80,2,-2,0,2,2,-1,-5
62,62,62,2,80,2,0,0,2,2,0,-5
63,81,64,1,105,9,19,0,21,9,1,-4
64,79,65,1,80,7,-2,0,19,7,-1,-5
65,76,66,1,80,4,-3,0,16,4,-1,-6
66,74,67,1,80,2,-2,0,14,2,-1,-7
67,72,68,2,95,0,-2,0,12,0,-1,-8
68,76,70,1,80,4,4,0,16,4,1,-7
69,74,71,1,80,2,-2,0,14,2,-1,-8
70,72,72,3,105,0,-2,0,12,0,-1,-9
71,74,75,1,80,2,2,0,14,2,1,-8
72,76,76,1,95,4,2,0,16,4,1,-7
73,79,77,1,80,7,3,0,19,7,1,-6
74,79,78,2,80,7,0,0,19,7,0,-6
75,81,80,1,105,9,2,0,21,9,1,-5
76,79,81,1,80,7,-2,0,19,7,-1,-6
77,76,82,1,80,4,-3,0,16,4,-1,-7
78,74,83,1,80,2,-2,0,14,2,-1,-8
79,72,84,2,95,0,-2,0,12,0,-1,-9
80,76,86,1,80,4,4,0,16,4,1,-8
81,74,87,1,80,2,-2,0,14,2,-1,-9
82,72,88,0,105,0,-2,0,12,0,-1,-10
83,71,88,0,80,11,-1,0,11,11,-1,-11
84,69,89,0,80,9,-2,0,9,9,-1,-12
85,67,90,1,80,7,-2,0,7,7,-1,-13
86,64,91,1,80,4,-3,0,4,4,-1,-14
87,64,92,1,95,4,0,0,4,4,0,-14
88,62,93,1,80,2,-2,0,2,2,-1,-15
89,62,94,2,80,2,0,0,2,2,0,-15
90,76,96,1,105,4,14,0,16,4,1,-14
91,74,97,1,80,2,-2,0,14,2,-1,-15
92,76,98,0,80,4,2,0,16,4,1,-14
93,77,98,0,80,5,1,0,17,5,1,-13
94,79,99,0,80,7,2,0,19,7,1,-12
95,81,100,1,95,9,2,0,21,9,1,-11
96,79,101,1,80,7,-2,0,19,7,-1,-12
97,76,102,1,80,4,-3,0,16,4,-1,-13
98,72,103,1,80,0,-4,0,12,0,-1,-14
99,74,104,1,105,2,2,0,14,2,1,-13
100,72,105,1,80,0,-2,0,12,0,-1,-14
101,69,106,1,80,9,-3,0,9,9,-1,-15
102,71,107,1,80,11,2,0,11,11,1,-14
103,72,108,0,95,0,1,0,12,0,1,-13
104,71,108,0,80,11,-1,0,11,11,-1,-14
105,69,109,0,80,9,-2,0,9,9,-1,-15
106,67,110,1,80,7,-2,0,7,7,-1,-16
107,72,111,1,80,0,5,0,12,0,1,-15
108,69,112,1,105,9,-3,0,9,9,-1,-16
109,65,113,1,80,5,-4,0,5,5,-1,-17
110,67,114,1,80,7,2,0,7,7,1,-16
111,64,115,1,80,4,-3,0,4,4,-1,-17
112,65,116,1,95,5,1,0,5,5,1,-16
113,67,117,1,80,7,2,0,7,7,1,-15
114,69,118,1,80,9,2,0,9,9,1,-14
115,71,119,1,80,11,2,0,11,11,1,-13
116,72,120,0,105,0,1,0,12,0,1,-12
117,71,120,0,80,11,-1,0,11,11,-1,-13
118,69,121,0,80,9,-2,0,9,9,-1,-14
119,67,122,1,80,7,-2,0,7,7,-1,-15
120,64,123,1,80,4,-3,0,4,4,-1,-16
121,64,124,1,95,4,0,0,4,4,0,-16
122,62,125,1,80,2,-2,0,2,2,-1,-17
123,62,126,10,80,2,0,0,2,2,0,-17
124,38,0,1,80,2,-24,0,-22,2,-1,-18
125,50,2,1,75,2,12,0,-10,2,1,-17
126,38,4,1,80,2,-12,0,-22,2,-1,-18
127,50,6,1,75,2,12,0,-10,2,1,-17
128,38,8,1,80,2,-12,0,-22,2,-1,-18
129,50,10,1,75,2,12,0,-10,2,1,-17
130,38,12,1,80,2,-12,0,-22,2,-1,-18
131,50,14,1,75,2,12,0,-10,2,1,-17
132,38,16,1,80,2,-12,0,-22,2,-1,-18
133,50,18,1,75,2,12,0,-10,2,1,-17
134,38,20,1,80,2,-12,0,-22,2,-1,-18
135,50,22,1,75,2,12,0,-10,2,1,-17
136,38,24,1,80,2,-12,0,-22,2,-1,-18
137,50,26,1,75,2,12,0,-10,2,1,-17
138,38,28,1,80,2,-12,0,-22,2,-1,-18
139,50,30,1,75,2,12,0,-10,2,1,-17
140,38,32,1,80,2,-12,0,-22,2,-1,-18
141,50,34,1,75,2,12,0,-10,2,1,-17
142,38,36,1,80,2,-12,0,-22,2,-1,-18
143,50,38,1,75,2,12,0,-10,2,1,-17
144,38,40,1,80,2,-12,0,-22,2,-1,-18
145,50,42,1,75,2,12,0,-10,2,1,-17
146,38,44,1,80,2,-12,0,-22,2,-1,-18
147,50,46,1,75,2,12,0,-10,2,1,-17
148,38,48,1,80,2,-12,0,-22,2,-1,-18
149,50,50,1,75,2,12,0,-10,2,1,-17
150,38,52,1,80,2,-12,0,-22,2,-1,-18
151,50,54,1,75,2,12,0,-10,2,1,-17
152,38,56,1,80,2,-12,0,-22,2,-1,-18
153,50,58,1,75,2,12,0,-10,2,1,-17
154,38,60,1,80,2,-12,0,-22,2,-1,-18
155,50,62,1,75,2,12,0,-10,2,1,-17
156,38,64,1,80,2,-12,0,-22,2,-1,-18
157,50,66,1,75,2,12,0,-10,2,1,-17
158,38,68,1,80,2,-12,0,-22,2,-1,-18
159,50,70,1,75,2,12,0,-10,2,1,-17
160,38,72,1,80,2,-12,0,-22,2,-1,-18
161,50,74,1,75,2,12,0,-10,2,1,-17
162,38,76,1,80,2,-12,0,-22,2,-1,-18
163,50,78,1,75,2,12,0,-10,2,1,-17
164,38,80,1,80,2,-12,0,-22,2,-1,-18
165,50,82,1,75,2,12,0,-10,2,1,-17
166,38,84,1,80,2,-12,0,-22,2,-1,-18
167,50,86,1,75,2,12,0,-10,2,1,-17
168,38,88,1,80,2,-12,0,-22,2,-1,-18
169,50,90,1,75,2,12,0,-10,2,1,-17
170,38,92,1,80,2,-12,0,-22,2,-1,-18
171,50,94,1,75,2,12,0,-10,2,1,-17
172,38,96,1,80,2,-12,0,-22,2,-1,-18
173,50,98,1,75,2,12,0,-10,2,1,-17
174,38,100,1,80,2,-12,0,-22,2,-1,-18
175,50,102,1,75,2,12,0,-10,2,1,-17
176,38,104,1,80,2,-12,0,-22,2,-1,-18
177,50,106,1,75,2,12,0,-10,2,1,-17
178,38,108,1,80,2,-12,0,-22,2,-1,-18
179,50,110,1,75,2,12,0,-10,2,1,-17
180,38,112,1,80,2,-12,0,-22,2,-1,-18
181,50,114,1,75,2,12,0,-10,2,1,-17
182,38,116,1,80,2,-12,0,-22,2,-1,-18
183,50,118,1,75,2,12,0,-10,2,1,-17
184,38,120,1,80,2,-12,0,-22,2,-1,-18
185,50,122,1,75,2,12,0,-10,2,1,-17
186,38,124,1,80,2,-12,0,-22,2,-1,-18
187,50,126,1,75,2,12,0,-10,2,1,-17
188,38,128,1,80,2,-12,0,-22,2,-1,-18
189,50,130,1,75,2,12,0,-10,2,1,-17
190,38,132,1,80,2,-12,0,-22,2,-1,-18
191,50,134,1,75,2,12,0,-10,2,1,-17
