,midi_note,onset,duration,velocity,pitch_class,interval,root,relative_pitch,relative_pitch_class,parsons_code,parsons_cumsum
0,64,0,2,105,4,0,4,0,0,0,0
1,66,2,1,80,6,2,4,2,2,1,1
2,64,3,1,80,4,-2,4,0,0,-1,0
3,62,4,1,95,2,-2,4,-2,10,-1,-1
4,64,5,1,80,4,2,4,0,0,1,0
5,66,6,1,80,6,2,4,2,2,1,1
6,67,7,1,80,7,1,4,3,3,1,2
7,69,8,2,105,9,2,4,5,5,1,3
8,71,10,1,80,11,2,4,7,7,1,4
9,66,11,1,80,6,-5,4,2,2,-1,3
10,69,12,1,95,9,3,4,5,5,1,4
11,66,13,1,80,6,-3,4,2,2,-1,3
12,62,14,1,80,2,-4,4,-2,10,-1,2
13,66,15,1,80,6,4,4,2,2,1,3
14,64,16,2,105,4,-2,4,0,0,-1,2
15,66,18,1,80,6,2,4,2,2,1,3
16,64,19,1,80,4,-2,4,0,0,-1,2
17,62,20,1,95,2,-2,4,-2,10,-1,1
18,64,21,1,80,4,2,4,0,0,1,2
19,66,22,1,80,6,2,4,2,2,1,3
20,67,23,1,80,7,1,4,3,3,1,4
21,69,24,1,105,9,2,4,5,5,1,5
22,66,25,1,80,6,-3,4,2,2,-1,4
23,62,26,1,80,2,-4,4,-2,10,-1,3
24,66,27,1,80,6,4,4,2,2,1,4
25,64,28,0,95,4,-2,4,0,0,-1,3
26,66,28,0,80,6,2,4,2,2,1,4
27,64,29,0,80,4,-2,4,0,0,-1,3
28,74,30,1,80,2,10,4,10,10,1,4
29,64,32,2,105,4,-10,4,0,0,-1,3
30,66,34,1,80,6,2,4,2,2,1,4
31,64,35,1,80,4,-2,4,0,0,-1,3
32,62,36,1,95,2,-2,4,-2,10,-1,2
33,64,37,1,80,4,2,4,0,0,1,3
34,66,38,1,80,6,2,4,2,2,1,4
35,67,39,1,80,7,1,4,3,3,1,5
36,69,40,2,105,9,2,4,5,5,1,6
37,71,42,1,80,11,2,4,7,7,1,7
38,66,43,1,80,6,-5,4,2,2,-1,6
39,69,44,1,95,9,3,4,5,5,1,7
40,66,45,1,80,6,-3,4,2,2,-1,6
41,62,46,1,80,2,-4,4,-2,10,-1,5
42,66,47,1,80,6,4,4,2,2,1,6
43,64,48,2,105,4,-2,4,0,0,-1,5
44,66,50,1,80,6,2,4,2,2,1,6
45,64,51,1,80,4,-2,4,0,0,-1,5
46,62,52,1,95,2,-2,4,-2,10,-1,4
47,64,53,1,80,4,2,4,0,0,1,5
48,66,54,1,80,6,2,4,2,2,1,6
49,67,55,1,80,7,1,4,3,3,1,7
50,69,56,1,105,9,2,4,5,5,1,8
51,66,57,1,80,6,-3,4,2,2,-1,7
52,62,58,1,80,2,-4,4,-2,10,-1,6
53,66,59,1,80,6,4,4,2,2,1,7
54,64,60,0,95,4,-2,4,0,0,-1,6
55,66,60,0,80,6,2,4,2,2,1,7
56,64,61,0,80,4,-2,4,0,0,-1,6
57,74,62,1,80,2,10,4,10,10,1,7
58,74,64,2,105,2,0,4,10,10,0,7
59,76,66,1,80,4,2,4,12,0,1,8
60,74,67,1,80,2,-2,4,10,10,-1,7
61,73,68,1,95,1,-1,4,9,9,-1,6
62,69,69,1,80,9,-4,4,5,5,-1,5
63,69,70,2,80,9,0,4,5,5,0,5
64,71,72,1,105,11,2,4,7,7,1,6
65,69,73,1,80,9,-2,4,5,5,-1,5
66,67,74,1,80,7,-2,4,3,3,-1,4
67,71,75,1,80,11,4,4,7,7,1,5
68,69,76,2,95,9,-2,4,5,5,-1,4
69,71,78,1,80,11,2,4,7,7,1,5
70,73,79,1,80,1,2,4,9,9,1,6
71,74,80,2,105,2,1,4,10,10,1,7
72,76,82,1,80,4,2,4,12,0,1,8
73,74,83,1,80,2,-2,4,10,10,-1,7
74,73,84,0,95,1,-1,4,9,9,-1,6
75,71,84,0,80,11,-2,4,7,7,-1,5
76,69,85,0,80,9,-2,4,5,5,-1,4
77,71,86,1,80,11,2,4,7,7,1,5
78,73,87,1,80,1,2,4,9,9,1,6
79,74,88,1,105,2,1,4,10,10,1,7
80,71,89,1,80,11,-3,4,7,7,-1,6
81,69,90,1,80,9,-2,4,5,5,-1,5
82,66,91,1,80,6,-3,4,2,2,-1,4
83,64,92,0,95,4,-2,4,0,0,-1,3
84,66,92,0,80,6,2,4,2,2,1,4
85,64,93,0,80,4,-2,4,0,0,-1,3
86,62,94,1,80,2,-2,4,-2,10,-1,2
87,74,96,2,105,2,12,4,10,10,1,3
88,76,98,1,80,4,2,4,12,0,1,4
89,74,99,1,80,2,-2,4,10,10,-1,3
90,73,100,1,95,1,-1,4,9,9,-1,2
91,69,101,1,80,9,-4,4,5,5,-1,1
92,69,102,2,80,9,0,4,5,5,0,1
93,71,104,1,105,11,2,4,7,7,1,2
94,69,105,1,80,9,-2,4,5,5,-1,1
95,67,106,1,80,7,-2,4,3,3,-1,0
96,71,107,1,80,11,4,4,7,7,1,1
97,69,108,1,95,9,-2,4,5,5,-1,0
98,66,109,1,80,6,-3,4,2,2,-1,-1
99,62,110,1,80,2,-4,4,-2,10,-1,-2
100,66,111,1,80,6,4,4,2,2,1,-1
101,67,112,2,105,7,1,4,3,3,1,0
102,66,114,1,80,6,-1,4,2,2,-1,-1
103,64,115,1,80,4,-2,4,0,0,-1,-2
104,62,116,1,95,2,-2,4,-2,10,-1,-3
105,64,117,1,80,4,2,4,0,0,1,-2
106,66,118,1,80,6,2,4,2,2,1,-1
107,67,119,1,80,7,1,4,3,3,1,0
108,69,120,1,105,9,2,4,5,5,1,1
109,66,121,1,80,6,-3,4,2,2,-1,0
110,62,122,1,80,2,-4,4,-2,10,-1,-1
111,66,123,1,80,6,4,4,2,2,1,0
112,64,124,0,95,4,-2,4,0,0,-1,-1
113,66,124,0,80,6,2,4,2,2,1,0
114,64,125,0,80,4,-2,4,0,0,-1,-1
115,62,126,1,80,2,-2,4,-2,10,-1,-2
116,66,127,1,80,6,4,4,2,2,1,-1
