,midi_note,onset,duration,velocity,pitch_class,interval,root,relative_pitch,relative_pitch_class,parsons_code,parsons_cumsum
0,62,0,1,105,2,0,7,-5,7,0,0
1,67,1,2,105,7,5,7,0,0,1,1
2,71,3,1,80,11,4,7,4,4,1,2
3,74,4,1,80,2,3,7,7,7,1,3
4,79,5,2,95,7,5,7,12,0,1,4
5,78,7,1,80,6,-1,7,11,11,-1,3
6,79,8,1,80,7,1,7,12,0,1,4
7,76,9,2,105,4,-3,7,9,9,-1,3
8,74,11,1,80,2,-2,7,7,7,-1,2
9,72,12,1,80,0,-2,7,5,5,-1,1
10,71,13,1,95,11,-1,7,4,4,-1,0
11,67,14,1,80,7,-4,7,0,0,-1,-1
12,67,15,1,80,7,0,7,0,0,0,-1
13,71,16,0,80,11,4,7,4,4,1,0
14,72,17,2,105,0,1,7,5,5,1,1
15,69,19,1,80,9,-3,7,2,2,-1,0
16,72,20,1,80,0,3,7,5,5,1,1
17,71,21,2,95,11,-1,7,4,4,-1,0
18,67,23,1,80,7,-4,7,0,0,-1,-1
19,71,24,1,80,11,4,7,4,4,1,0
20,69,25,2,105,9,-2,7,2,2,-1,-1
21,66,27,1,80,6,-3,7,-1,11,-1,-2
22,62,28,1,80,2,-4,7,-5,7,-1,-3
23,67,29,1,95,7,5,7,0,0,1,-2
24,66,30,1,80,6,-1,7,-1,11,-1,-3
25,62,31,1,80,2,-4,7,-5,7,-1,-4
26,62,32,0,80,2,0,7,-5,7,0,-4
27,67,33,2,105,7,5,7,0,0,1,-3
28,71,35,1,80,11,4,7,4,4,1,-2
29,74,36,1,80,2,3,7,7,7,1,-1
30,79,37,2,95,7,5,7,12,0,1,0
31,78,39,1,80,6,-1,7,11,11,-1,-1
32,79,40,1,80,7,1,7,12,0,1,0
33,76,41,2,105,4,-3,7,9,9,-1,-1
34,74,43,1,80,2,-2,7,7,7,-1,-2
35,72,44,1,80,0,-2,7,5,5,-1,-3
36,71,45,1,95,11,-1,7,4,4,-1,-4
37,67,46,1,80,7,-4,7,0,0,-1,-5
38,67,47,1,80,7,0,7,0,0,0,-5
39,71,48,0,80,11,4,7,4,4,1,-4
40,72,49,2,105,0,1,7,5,5,1,-3
41,69,51,1,80,9,-3,7,2,2,-1,-4
42,72,52,1,80,0,3,7,5,5,1,-3
43,71,53,2,95,11,-1,7,4,4,-1,-4
44,67,55,1,80,7,-4,7,0,0,-1,-5
45,71,56,1,80,11,4,7,4,4,1,-4
46,69,57,2,105,9,-2,7,2,2,-1,-5
47,66,59,1,80,6,-3,7,-1,11,-1,-6
48,62,60,1,80,2,-4,7,-5,7,-1,-7
49,67,61,3,95,7,5,7,0,0,1,-6
50,62,64,1,80,2,-5,7,-5,7,-1,-7
51,67,65,2,105,7,5,7,0,0,1,-6
52,71,67,1,80,11,4,7,4,4,1,-5
53,74,68,1,80,2,3,7,7,7,1,-4
54,79,69,2,95,7,5,7,12,0,1,-3
55,78,71,1,80,6,-1,7,11,11,-1,-4
56,79,72,1,80,7,1,7,12,0,1,-3
57,76,73,2,105,4,-3,7,9,9,-1,-4
58,74,75,1,80,2,-2,7,7,7,-1,-5
59,72,76,1,80,0,-2,7,5,5,-1,-6
60,71,77,1,95,11,-1,7,4,4,-1,-7
61,67,78,1,80,7,-4,7,0,0,-1,-8
62,67,79,1,80,7,0,7,0,0,0,-8
63,71,80,0,80,11,4,7,4,4,1,-7
64,72,81,2,105,0,1,7,5,5,1,-6
65,69,83,1,80,9,-3,7,2,2,-1,-7
66,72,84,1,80,0,3,7,5,5,1,-6
67,71,85,2,95,11,-1,7,4,4,-1,-7
68,67,87,1,80,7,-4,7,0,0,-1,-8
69,71,88,1,80,11,4,7,4,4,1,-7
70,69,89,2,105,9,-2,7,2,2,-1,-8
71,66,91,1,80,6,-3,7,-1,11,-1,-9
72,62,92,1,80,2,-4,7,-5,7,-1,-10
73,67,93,1,95,7,5,7,0,0,1,-9
74,66,94,1,80,6,-1,7,-1,11,-1,-10
75,62,95,1,80,2,-4,7,-5,7,-1,-11
76,62,96,0,80,2,0,7,-5,7,0,-11
77,67,97,2,105,7,5,7,0,0,1,-10
78,71,99,1,80,11,4,7,4,4,1,-9
79,74,100,1,80,2,3,7,7,7,1,-8
80,79,101,2,95,7,5,7,12,0,1,-7
81,78,103,1,80,6,-1,7,11,11,-1,-8
82,79,104,1,80,7,1,7,12,0,1,-7
83,76,105,2,105,4,-3,7,9,9,-1,-8
84,74,107,1,80,2,-2,7,7,7,-1,-9
85,72,108,1,80,0,-2,7,5,5,-1,-10
86,71,109,1,95,11,-1,7,4,4,-1,-11
87,67,110,1,80,7,-4,7,0,0,-1,-12
88,67,111,1,80,7,0,7,0,0,0,-12
89,71,112,0,80,11,4,7,4,4,1,-11
90,72,113,2,105,0,1,7,5,5,1,-10
91,69,115,1,80,9,-3,7,2,2,-1,-11
92,72,116,1,80,0,3,7,5,5,1,-10
93,71,117,2,95,11,-1,7,4,4,-1,-11
94,67,119,1,80,7,-4,7,0,0,-1,-12
95,71,120,1,80,11,4,7,4,4,1,-11
96,69,121,2,105,9,-2,7,2,2,-1,-12
97,66,123,1,80,6,-3,7,-1,11,-1,-13
98,62,124,1,80,2,-4,7,-5,7,-1,-14
99,67,125,3,95,7,5,7,0,0,1,-13
100,62,128,1,80,2,-5,7,-5,7,-1,-14
101,67,129,2,105,7,5,7,0,0,1,-13
102,71,131,1,80,11,4,7,4,4,1,-12
103,74,132,1,80,2,3,7,7,7,1,-11
104,79,133,2,95,7,5,7,12,0,1,-10
105,78,135,1,80,6,-1,7,11,11,-1,-11
106,79,136,1,80,7,1,7,12,0,1,-10
107,81,137,2,105,9,2,7,14,2,1,-9
108,81,139,1,80,9,0,7,14,2,0,-9
109,81,140,1,80,9,0,7,14,2,0,-9
110,78,141,1,95,6,-3,7,11,11,-1,-10
111,79,142,1,80,7,1,7,12,0,1,-9
112,74,143,1,80,2,-5,7,7,7,-1,-10
113,79,144,0,80,7,5,7,12,0,1,-9
114,78,145,2,105,6,-1,7,11,11,-1,-10
115,78,147,1,80,6,0,7,11,11,0,-10
116,81,148,1,80,9,3,7,14,2,1,-9
117,79,149,2,95,7,-2,7,12,0,-1,-10
118,79,151,1,80,7,0,7,12,0,0,-10
119,81,152,1,80,9,2,7,14,2,1,-9
120,72,153,2,105,0,-9,7,5,5,-1,-10
121,72,155,1,80,0,0,7,5,5,0,-10
122,69,156,1,80,9,-3,7,2,2,-1,-11
123,71,157,1,95,11,2,7,4,4,1,-10
124,67,158,1,80,7,-4,7,0,0,-1,-11
125,67,159,2,80,7,0,7,0,0,0,-11
126,67,161,2,105,7,0,7,0,0,0,-11
127,71,163,1,80,11,4,7,4,4,1,-10
128,74,164,1,80,2,3,7,7,7,1,-9
129,79,165,2,95,7,5,7,12,0,1,-8
130,78,167,1,80,6,-1,7,11,11,-1,-9
131,79,168,1,80,7,1,7,12,0,1,-8
132,81,169,2,105,9,2,7,14,2,1,-7
133,81,171,1,80,9,0,7,14,2,0,-7
134,81,172,1,80,9,0,7,14,2,0,-7
135,78,173,1,95,6,-3,7,11,11,-1,-8
136,79,174,1,80,7,1,7,12,0,1,-7
137,74,175,1,80,2,-5,7,7,7,-1,-8
138,79,176,0,80,7,5,7,12,0,1,-7
139,78,177,2,105,6,-1,7,11,11,-1,-8
140,78,179,1,80,6,0,7,11,11,0,-8
141,81,180,1,80,9,3,7,14,2,1,-7
142,79,181,1,95,7,-2,7,12,0,-1,-8
143,78,182,1,80,6,-1,7,11,11,-1,-9
144,74,183,1,80,2,-4,7,7,7,-1,-10
145,72,184,1,80,0,-2,7,5,5,-1,-11
146,69,185,2,105,9,-3,7,2,2,-1,-12
147,66,187,1,80,6,-3,7,-1,11,-1,-13
148,62,188,1,80,2,-4,7,-5,7,-1,-14
149,67,189,3,95,7,5,7,0,0,1,-13
150,62,192,1,80,2,-5,7,-5,7,-1,-14
151,67,193,2,105,7,5,7,0,0,1,-13
152,71,195,1,80,11,4,7,4,4,1,-12
153,74,196,1,80,2,3,7,7,7,1,-11
154,79,197,2,95,7,5,7,12,0,1,-10
155,78,199,1,80,6,-1,7,11,11,-1,-11
156,79,200,1,80,7,1,7,12,0,1,-10
157,81,201,2,105,9,2,7,14,2,1,-9
158,81,203,1,80,9,0,7,14,2,0,-9
159,81,204,1,80,9,0,7,14,2,0,-9
160,78,205,1,95,6,-3,7,11,11,-1,-10
161,79,206,1,80,7,1,7,12,0,1,-9
162,74,207,1,80,2,-5,7,7,7,-1,-10
163,79,208,0,80,7,5,7,12,0,1,-9
164,78,209,2,105,6,-1,7,11,11,-1,-10
165,78,211,1,80,6,0,7,11,11,0,-10
166,81,212,1,80,9,3,7,14,2,1,-9
167,79,213,2,95,7,-2,7,12,0,-1,-10
168,79,215,1,80,7,0,7,12,0,0,-10
169,81,216,1,80,9,2,7,14,2,1,-9
170,72,217,2,105,0,-9,7,5,5,-1,-10
171,72,219,1,80,0,0,7,5,5,0,-10
172,69,220,1,80,9,-3,7,2,2,-1,-11
173,71,221,1,95,11,2,7,4,4,1,-10
174,67,222,1,80,7,-4,7,0,0,-1,-11
175,67,223,2,80,7,0,7,0,0,0,-11
176,67,225,2,105,7,0,7,0,0,0,-11
177,71,227,1,80,11,4,7,4,4,1,-10
178,74,228,1,80,2,3,7,7,7,1,-9
179,79,229,2,95,7,5,7,12,0,1,-8
180,78,231,1,80,6,-1,7,11,11,-1,-9
181,79,232,1,80,7,1,7,12,0,1,-8
182,81,233,2,105,9,2,7,14,2,1,-7
183,81,235,1,80,9,0,7,14,2,0,-7
184,81,236,1,80,9,0,7,14,2,0,-7
185,78,237,1,95,6,-3,7,11,11,-1,-8
186,79,238,1,80,7,1,7,12,0,1,-7
187,74,239,1,80,2,-5,7,7,7,-1,-8
188,79,240,0,80,7,5,7,12,0,1,-7
189,78,241,2,105,6,-1,7,11,11,-1,-8
190,78,243,1,80,6,0,7,11,11,0,-8
191,81,244,1,80,9,3,7,14,2,1,-7
192,79,245,1,95,7,-2,7,12,0,-1,-8
193,78,246,1,80,6,-1,7,11,11,-1,-9
194,74,247,1,80,2,-4,7,7,7,-1,-10
195,72,248,1,80,0,-2,7,5,5,-1,-11
196,69,249,2,105,9,-3,7,2,2,-1,-12
197,66,251,1,80,6,-3,7,-1,11,-1,-13
198,62,252,1,80,2,-4,7,-5,7,-1,-14
199,67,253,3,95,7,5,7,0,0,1,-13
