,midi_note,onset,duration,velocity,pitch_class,interval,root,relative_pitch,relative_pitch_class,parsons_code,parsons_cumsum
0,71,0,1,105,11,0,7,4,4,0,0
1,74,1,1,105,2,3,7,7,7,1,1
2,71,2,1,80,11,-3,7,4,4,-1,0
3,67,3,1,80,7,-4,7,0,0,-1,-1
4,67,4,1,95,7,0,7,0,0,0,-1
5,71,5,1,80,11,4,7,4,4,1,0
6,74,6,1,80,2,3,7,7,7,1,1
7,79,7,1,105,7,5,7,12,0,1,2
8,78,8,1,80,6,-1,7,11,11,-1,1
9,79,9,1,80,7,1,7,12,0,1,2
10,76,10,1,95,4,-3,7,9,9,-1,1
11,78,11,1,80,6,2,7,11,11,1,2
12,79,12,1,80,7,1,7,12,0,1,3
13,74,13,1,105,2,-5,7,7,7,-1,2
14,71,14,1,80,11,-3,7,4,4,-1,1
15,67,15,1,80,7,-4,7,0,0,-1,0
16,67,16,1,95,7,0,7,0,0,0,0
17,66,17,1,80,6,-1,7,-1,11,-1,-1
18,67,18,1,80,7,1,7,0,0,1,0
19,69,19,1,105,9,2,7,2,2,1,1
20,66,20,1,80,6,-3,7,-1,11,-1,0
21,62,21,1,80,2,-4,7,-5,7,-1,-1
22,72,22,1,95,0,10,7,5,5,1,0
23,71,23,1,80,11,-1,7,4,4,-1,-1
24,69,24,1,80,9,-2,7,2,2,-1,-2
25,74,25,1,105,2,5,7,7,7,1,-1
26,71,26,1,80,11,-3,7,4,4,-1,-2
27,67,27,1,80,7,-4,7,0,0,-1,-3
28,67,28,1,95,7,0,7,0,0,0,-3
29,71,29,1,80,11,4,7,4,4,1,-2
30,74,30,1,80,2,3,7,7,7,1,-1
31,79,31,1,105,7,5,7,12,0,1,0
32,78,32,1,80,6,-1,7,11,11,-1,-1
33,79,33,1,80,7,1,7,12,0,1,0
34,76,34,1,95,4,-3,7,9,9,-1,-1
35,78,35,1,80,6,2,7,11,11,1,0
36,79,36,1,80,7,1,7,12,0,1,1
37,74,37,1,105,2,-5,7,7,7,-1,0
38,71,38,1,80,11,-3,7,4,4,-1,-1
39,67,39,1,80,7,-4,7,0,0,-1,-2
40,66,40,1,95,6,-1,7,-1,11,-1,-3
41,67,41,1,80,7,1,7,0,0,1,-2
42,69,42,1,80,9,2,7,2,2,1,-1
43,71,43,1,105,11,2,7,4,4,1,0
44,67,44,1,80,7,-4,7,0,0,-1,-1
45,66,45,1,80,6,-1,7,-1,11,-1,-2
46,67,46,2,95,7,1,7,0,0,1,-1
47,71,48,1,80,11,4,7,4,4,1,0
48,74,49,1,105,2,3,7,7,7,1,1
49,71,50,1,80,11,-3,7,4,4,-1,0
50,67,51,1,80,7,-4,7,0,0,-1,-1
51,67,52,1,95,7,0,7,0,0,0,-1
52,71,53,1,80,11,4,7,4,4,1,0
53,74,54,1,80,2,3,7,7,7,1,1
54,79,55,1,105,7,5,7,12,0,1,2
55,78,56,1,80,6,-1,7,11,11,-1,1
56,79,57,1,80,7,1,7,12,0,1,2
57,76,58,1,95,4,-3,7,9,9,-1,1
58,78,59,1,80,6,2,7,11,11,1,2
59,79,60,1,80,7,1,7,12,0,1,3
60,74,61,1,105,2,-5,7,7,7,-1,2
61,71,62,1,80,11,-3,7,4,4,-1,1
62,67,63,1,80,7,-4,7,0,0,-1,0
63,67,64,1,95,7,0,7,0,0,0,0
64,66,65,1,80,6,-1,7,-1,11,-1,-1
65,67,66,1,80,7,1,7,0,0,1,0
66,69,67,1,105,9,2,7,2,2,1,1
67,66,68,1,80,6,-3,7,-1,11,-1,0
68,62,69,1,80,2,-4,7,-5,7,-1,-1
69,72,70,1,95,0,10,7,5,5,1,0
70,71,71,1,80,11,-1,7,4,4,-1,-1
71,69,72,1,80,9,-2,7,2,2,-1,-2
72,74,73,1,105,2,5,7,7,7,1,-1
73,71,74,1,80,11,-3,7,4,4,-1,-2
74,67,75,1,80,7,-4,7,0,0,-1,-3
75,67,76,1,95,7,0,7,0,0,0,-3
76,71,77,1,80,11,4,7,4,4,1,-2
77,74,78,1,80,2,3,7,7,7,1,-1
78,79,79,1,105,7,5,7,12,0,1,0
79,78,80,1,80,6,-1,7,11,11,-1,-1
80,79,81,1,80,7,1,7,12,0,1,0
81,76,82,1,95,4,-3,7,9,9,-1,-1
82,78,83,1,80,6,2,7,11,11,1,0
83,79,84,1,80,7,1,7,12,0,1,1
84,74,85,1,105,2,-5,7,7,7,-1,0
85,71,86,1,80,11,-3,7,4,4,-1,-1
86,67,87,1,80,7,-4,7,0,0,-1,-2
87,66,88,1,95,6,-1,7,-1,11,-1,-3
88,67,89,1,80,7,1,7,0,0,1,-2
89,69,90,1,80,9,2,7,2,2,1,-1
90,71,91,1,105,11,2,7,4,4,1,0
91,67,92,1,80,7,-4,7,0,0,-1,-1
92,66,93,1,80,6,-1,7,-1,11,-1,-2
93,67,94,2,95,7,1,7,0,0,1,-1
94,66,96,0,80,6,-1,7,-1,11,-1,-2
95,67,96,0,80,7,1,7,0,0,1,-1
96,69,97,3,105,9,2,7,2,2,1,0
97,69,100,1,95,9,0,7,2,2,0,0
98,66,101,1,80,6,-3,7,-1,11,-1,-1
99,69,102,1,80,9,3,7,2,2,1,0
100,78,103,1,105,6,9,7,11,11,1,1
101,81,104,1,80,9,3,7,14,2,1,2
102,78,105,1,80,6,-3,7,11,11,-1,1
103,78,106,2,95,6,0,7,11,11,0,1
104,76,108,1,80,4,-2,7,9,9,-1,0
105,74,109,1,105,2,-2,7,7,7,-1,-1
106,78,110,1,80,6,4,7,11,11,1,0
107,76,111,1,80,4,-2,7,9,9,-1,-1
108,74,112,1,95,2,-2,7,7,7,-1,-2
109,73,113,1,80,1,-1,7,6,6,-1,-3
110,71,114,1,80,11,-2,7,4,4,-1,-4
111,69,115,1,105,9,-2,7,2,2,-1,-5
112,66,116,1,80,6,-3,7,-1,11,-1,-6
113,66,117,1,80,6,0,7,-1,11,0,-6
114,66,118,2,95,6,0,7,-1,11,0,-6
115,67,120,1,80,7,1,7,0,0,1,-5
116,69,121,1,105,9,2,7,2,2,1,-4
117,66,122,1,80,6,-3,7,-1,11,-1,-5
118,69,123,1,80,9,3,7,2,2,1,-4
119,69,124,1,95,9,0,7,2,2,0,-4
120,66,125,1,80,6,-3,7,-1,11,-1,-5
121,69,126,1,80,9,3,7,2,2,1,-4
122,71,127,1,105,11,2,7,4,4,1,-3
123,67,128,1,80,7,-4,7,0,0,-1,-4
124,71,129,1,80,11,4,7,4,4,1,-3
125,71,130,1,95,11,0,7,4,4,0,-3
126,73,131,1,80,1,2,7,6,6,1,-2
127,74,132,1,80,2,1,7,7,7,1,-1
128,73,133,1,105,1,-1,7,6,6,-1,-2
129,76,134,1,80,4,3,7,9,9,1,-1
130,73,135,1,80,1,-3,7,6,6,-1,-2
131,69,136,1,95,9,-4,7,2,2,-1,-3
132,71,137,1,80,11,2,7,4,4,1,-2
133,73,138,1,80,1,2,7,6,6,1,-1
134,74,139,3,105,2,1,7,7,7,1,0
135,74,142,1,95,2,0,7,7,7,0,0
136,73,143,1,80,1,-1,7,6,6,-1,-1
137,71,144,1,80,11,-2,7,4,4,-1,-2
138,69,145,3,105,9,-2,7,2,2,-1,-3
139,69,148,1,95,9,0,7,2,2,0,-3
140,66,149,1,80,6,-3,7,-1,11,-1,-4
141,69,150,1,80,9,3,7,2,2,1,-3
142,78,151,1,105,6,9,7,11,11,1,-2
143,81,152,1,80,9,3,7,14,2,1,-1
144,78,153,1,80,6,-3,7,11,11,-1,-2
145,78,154,2,95,6,0,7,11,11,0,-2
146,76,156,1,80,4,-2,7,9,9,-1,-3
147,74,157,1,105,2,-2,7,7,7,-1,-4
148,78,158,1,80,6,4,7,11,11,1,-3
149,76,159,1,80,4,-2,7,9,9,-1,-4
150,74,160,1,95,2,-2,7,7,7,-1,-5
151,73,161,1,80,1,-1,7,6,6,-1,-6
152,71,162,1,80,11,-2,7,4,4,-1,-7
153,69,163,1,105,9,-2,7,2,2,-1,-8
154,66,164,1,80,6,-3,7,-1,11,-1,-9
155,66,165,1,80,6,0,7,-1,11,0,-9
156,66,166,2,95,6,0,7,-1,11,0,-9
157,67,168,1,80,7,1,7,0,0,1,-8
158,69,169,1,105,9,2,7,2,2,1,-7
159,66,170,1,80,6,-3,7,-1,11,-1,-8
160,69,171,1,80,9,3,7,2,2,1,-7
161,69,172,1,95,9,0,7,2,2,0,-7
162,66,173,1,80,6,-3,7,-1,11,-1,-8
163,69,174,1,80,9,3,7,2,2,1,-7
164,71,175,1,105,11,2,7,4,4,1,-6
165,67,176,1,80,7,-4,7,0,0,-1,-7
166,71,177,1,80,11,4,7,4,4,1,-6
167,71,178,1,95,11,0,7,4,4,0,-6
168,73,179,1,80,1,2,7,6,6,1,-5
169,74,180,1,80,2,1,7,7,7,1,-4
170,73,181,1,105,1,-1,7,6,6,-1,-5
171,76,182,1,80,4,3,7,9,9,1,-4
172,73,183,1,80,1,-3,7,6,6,-1,-5
173,69,184,1,95,9,-4,7,2,2,-1,-6
174,71,185,1,80,11,2,7,4,4,1,-5
175,73,186,1,80,1,2,7,6,6,1,-4
176,74,187,3,105,2,1,7,7,7,1,-3
177,74,190,6,95,2,0,7,7,7,0,-3
