,midi_note,onset,duration,velocity,pitch_class,interval,root,relative_pitch,relative_pitch_class,parsons_code,parsons_cumsum
0,69,0,1,105,9,0,0,9,9,0,0
1,71,1,2,105,11,2,0,11,11,1,1
2,72,3,1,80,0,1,0,12,0,1,2
3,69,4,1,80,9,-3,0,9,9,-1,1
4,74,5,1,95,2,5,0,14,2,1,2
5,72,6,1,80,0,-2,0,12,0,-1,1
6,69,7,1,80,9,-3,0,9,9,-1,0
7,65,8,1,80,5,-4,0,5,5,-1,-1
8,67,9,2,105,7,2,0,7,7,1,0
9,69,11,1,80,9,2,0,9,9,1,1
10,67,12,1,80,7,-2,0,7,7,-1,0
11,65,13,1,95,5,-2,0,5,5,-1,-1
12,64,14,1,80,4,-1,0,4,4,-1,-2
13,65,15,1,80,5,1,0,5,5,1,-1
14,67,16,1,80,7,2,0,7,7,1,0
15,71,17,0,105,11,4,0,11,11,1,1
16,72,17,0,80,0,1,0,12,0,1,2
17,74,18,0,80,2,2,0,14,2,1,3
18,71,19,1,80,11,-3,0,11,11,-1,2
19,67,20,1,80,7,-4,0,7,7,-1,1
20,69,21,1,95,9,2,0,9,9,1,2
21,71,22,1,80,11,2,0,11,11,1,3
22,72,23,1,80,0,1,0,12,0,1,4
23,74,24,1,80,2,2,0,14,2,1,5
24,77,25,2,105,5,3,0,17,5,1,6
25,74,27,1,80,2,-3,0,14,2,-1,5
26,72,28,1,80,0,-2,0,12,0,-1,4
27,69,29,1,95,9,-3,0,9,9,-1,3
28,67,30,1,80,7,-2,0,7,7,-1,2
29,67,31,1,80,7,0,0,7,7,0,2
30,69,32,1,80,9,2,0,9,9,1,3
31,74,33,1,105,2,5,0,14,2,1,4
32,72,34,1,80,0,-2,0,12,0,-1,3
33,69,35,1,80,9,-3,0,9,9,-1,2
34,65,36,1,80,5,-4,0,5,5,-1,1
35,67,37,2,95,7,2,0,7,7,1,2
36,69,39,1,80,9,2,0,9,9,1,3
37,67,40,1,80,7,-2,0,7,7,-1,2
38,65,41,1,105,5,-2,0,5,5,-1,1
39,64,42,1,80,4,-1,0,4,4,-1,0
40,65,43,1,80,5,1,0,5,5,1,1
41,67,44,1,80,7,2,0,7,7,1,2
42,65,45,1,95,5,-2,0,5,5,-1,1
43,62,46,1,80,2,-3,0,2,2,-1,0
44,60,47,1,80,0,-2,0,0,0,-1,-1
45,65,48,1,80,5,5,0,5,5,1,0
46,71,49,0,105,11,6,0,11,11,1,1
47,72,49,0,80,0,1,0,12,0,1,2
48,74,50,0,80,2,2,0,14,2,1,3
49,69,51,1,80,9,-5,0,9,9,-1,2
50,65,52,1,80,5,-4,0,5,5,-1,1
51,67,53,1,95,7,2,0,7,7,1,2
52,65,54,1,80,5,-2,0,5,5,-1,1
53,62,55,1,80,2,-3,0,2,2,-1,0
54,69,56,1,80,9,7,0,9,9,1,1
55,77,57,1,105,5,8,0,17,5,1,2
56,76,58,1,80,4,-1,0,16,4,-1,1
57,77,59,1,80,5,1,0,17,5,1,2
58,72,60,1,80,0,-5,0,12,0,-1,1
59,69,61,1,95,9,-3,0,9,9,-1,0
60,67,62,1,80,7,-2,0,7,7,-1,-1
61,67,63,1,80,7,0,0,7,7,0,-1
62,69,64,1,80,9,2,0,9,9,1,0
63,71,65,2,105,11,2,0,11,11,1,1
64,72,67,1,80,0,1,0,12,0,1,2
65,69,68,1,80,9,-3,0,9,9,-1,1
66,74,69,1,95,2,5,0,14,2,1,2
67,72,70,1,80,0,-2,0,12,0,-1,1
68,69,71,1,80,9,-3,0,9,9,-1,0
69,65,72,1,80,5,-4,0,5,5,-1,-1
70,67,73,2,105,7,2,0,7,7,1,0
71,69,75,1,80,9,2,0,9,9,1,1
72,67,76,1,80,7,-2,0,7,7,-1,0
73,65,77,1,95,5,-2,0,5,5,-1,-1
74,64,78,1,80,4,-1,0,4,4,-1,-2
75,65,79,1,80,5,1,0,5,5,1,-1
76,67,80,1,80,7,2,0,7,7,1,0
77,71,81,0,105,11,4,0,11,11,1,1
78,72,81,0,80,0,1,0,12,0,1,2
79,74,82,0,80,2,2,0,14,2,1,3
80,71,83,1,80,11,-3,0,11,11,-1,2
81,67,84,1,80,7,-4,0,7,7,-1,1
82,69,85,1,95,9,2,0,9,9,1,2
83,71,86,1,80,11,2,0,11,11,1,3
84,72,87,1,80,0,1,0,12,0,1,4
85,74,88,1,80,2,2,0,14,2,1,5
86,77,89,2,105,5,3,0,17,5,1,6
87,74,91,1,80,2,-3,0,14,2,-1,5
88,72,92,1,80,0,-2,0,12,0,-1,4
89,69,93,1,95,9,-3,0,9,9,-1,3
90,67,94,1,80,7,-2,0,7,7,-1,2
91,67,95,1,80,7,0,0,7,7,0,2
92,69,96,1,80,9,2,0,9,9,1,3
93,74,97,1,105,2,5,0,14,2,1,4
94,72,98,1,80,0,-2,0,12,0,-1,3
95,69,99,1,80,9,-3,0,9,9,-1,2
96,65,100,1,80,5,-4,0,5,5,-1,1
97,67,101,2,95,7,2,0,7,7,1,2
98,69,103,1,80,9,2,0,9,9,1,3
99,67,104,1,80,7,-2,0,7,7,-1,2
100,65,105,1,105,5,-2,0,5,5,-1,1
101,64,106,1,80,4,-1,0,4,4,-1,0
102,65,107,1,80,5,1,0,5,5,1,1
103,67,108,1,80,7,2,0,7,7,1,2
104,65,109,1,95,5,-2,0,5,5,-1,1
105,62,110,1,80,2,-3,0,2,2,-1,0
106,60,111,1,80,0,-2,0,0,0,-1,-1
107,65,112,1,80,5,5,0,5,5,1,0
108,71,113,0,105,11,6,0,11,11,1,1
109,72,113,0,80,0,1,0,12,0,1,2
110,74,114,0,80,2,2,0,14,2,1,3
111,69,115,1,80,9,-5,0,9,9,-1,2
112,65,116,1,80,5,-4,0,5,5,-1,1
113,67,117,1,95,7,2,0,7,7,1,2
114,65,118,1,80,5,-2,0,5,5,-1,1
115,62,119,1,80,2,-3,0,2,2,-1,0
116,69,120,1,80,9,7,0,9,9,1,1
117,77,121,1,105,5,8,0,17,5,1,2
118,76,122,1,80,4,-1,0,16,4,-1,1
119,77,123,1,80,5,1,0,17,5,1,2
120,72,124,1,80,0,-5,0,12,0,-1,1
121,69,125,1,95,9,-3,0,9,9,-1,0
122,67,126,1,80,7,-2,0,7,7,-1,-1
123,67,127,1,80,7,0,0,7,7,0,-1
124,69,128,1,80,9,2,0,9,9,1,0
125,74,129,1,105,2,5,0,14,2,1,1
126,79,130,1,80,7,5,0,19,7,1,2
127,79,131,1,80,7,0,0,19,7,0,2
128,76,132,1,80,4,-3,0,16,4,-1,1
129,77,133,3,95,5,1,0,17,5,1,2
130,79,136,1,80,7,2,0,19,7,1,3
131,81,137,1,105,9,2,0,21,9,1,4
132,79,138,1,80,7,-2,0,19,7,-1,3
133,77,139,1,80,5,-2,0,17,5,-1,2
134,74,140,1,80,2,-3,0,14,2,-1,1
135,72,141,1,95,0,-2,0,12,0,-1,0
136,69,142,1,80,9,-3,0,9,9,-1,-1
137,71,143,1,80,11,2,0,11,11,1,0
138,69,144,1,80,9,-2,0,9,9,-1,-1
139,67,145,1,105,7,-2,0,7,7,-1,-2
140,69,146,1,80,9,2,0,9,9,1,-1
141,77,147,1,80,5,8,0,17,5,1,0
142,79,148,1,80,7,2,0,19,7,1,1
143,77,149,1,95,5,-2,0,17,5,-1,0
144,79,150,1,80,7,2,0,19,7,1,1
145,81,151,1,80,9,2,0,21,9,1,2
146,79,152,1,80,7,-2,0,19,7,-1,1
147,77,153,1,105,5,-2,0,17,5,-1,0
148,74,154,1,80,2,-3,0,14,2,-1,-1
149,77,155,1,80,5,3,0,17,5,1,0
150,81,156,1,80,9,4,0,21,9,1,1
151,79,157,1,95,7,-2,0,19,7,-1,0
152,81,158,1,80,9,2,0,21,9,1,1
153,79,159,1,80,7,-2,0,19,7,-1,0
154,77,160,1,80,5,-2,0,17,5,-1,-1
155,74,161,1,105,2,-3,0,14,2,-1,-2
156,76,162,1,80,4,2,0,16,4,1,-1
157,77,163,1,80,5,1,0,17,5,1,0
158,79,164,1,80,7,2,0,19,7,1,1
159,81,165,1,95,9,2,0,21,9,1,2
160,77,166,1,80,5,-4,0,17,5,-1,1
161,83,167,1,80,11,6,0,23,11,1,2
162,79,168,1,80,7,-4,0,19,7,-1,1
163,77,169,1,105,5,-2,0,17,5,-1,0
164,76,170,1,80,4,-1,0,16,4,-1,-1
165,77,171,1,80,5,1,0,17,5,1,0
166,72,172,1,80,0,-5,0,12,0,-1,-1
167,69,173,1,95,9,-3,0,9,9,-1,-2
168,71,174,1,80,11,2,0,11,11,1,-1
169,72,175,1,80,0,1,0,12,0,1,0
170,69,176,1,80,9,-3,0,9,9,-1,-1
171,67,177,2,105,7,-2,0,7,7,-1,-2
172,67,179,1,80,7,0,0,7,7,0,-2
173,65,180,1,80,5,-2,0,5,5,-1,-3
174,69,181,1,95,9,4,0,9,9,1,-2
175,74,182,1,80,2,5,0,14,2,1,-1
176,74,183,1,80,2,0,0,14,2,0,-1
177,74,184,1,80,2,0,0,14,2,0,-1
178,77,185,1,105,5,3,0,17,5,1,0
179,76,186,1,80,4,-1,0,16,4,-1,-1
180,77,187,1,80,5,1,0,17,5,1,0
181,72,188,1,80,0,-5,0,12,0,-1,-1
182,69,189,1,95,9,-3,0,9,9,-1,-2
183,67,190,1,80,7,-2,0,7,7,-1,-3
184,67,191,1,80,7,0,0,7,7,0,-3
185,69,192,1,80,9,2,0,9,9,1,-2
186,74,193,1,105,2,5,0,14,2,1,-1
187,79,194,1,80,7,5,0,19,7,1,0
188,79,195,1,80,7,0,0,19,7,0,0
189,76,196,1,80,4,-3,0,16,4,-1,-1
190,77,197,3,95,5,1,0,17,5,1,0
191,79,200,1,80,7,2,0,19,7,1,1
192,81,201,1,105,9,2,0,21,9,1,2
193,79,202,1,80,7,-2,0,19,7,-1,1
194,77,203,1,80,5,-2,0,17,5,-1,0
195,74,204,1,80,2,-3,0,14,2,-1,-1
196,72,205,1,95,0,-2,0,12,0,-1,-2
197,69,206,1,80,9,-3,0,9,9,-1,-3
198,71,207,1,80,11,2,0,11,11,1,-2
199,69,208,1,80,9,-2,0,9,9,-1,-3
200,67,209,1,105,7,-2,0,7,7,-1,-4
201,69,210,1,80,9,2,0,9,9,1,-3
202,77,211,1,80,5,8,0,17,5,1,-2
203,79,212,1,80,7,2,0,19,7,1,-1
204,77,213,1,95,5,-2,0,17,5,-1,-2
205,79,214,1,80,7,2,0,19,7,1,-1
206,81,215,1,80,9,2,0,21,9,1,0
207,79,216,1,80,7,-2,0,19,7,-1,-1
208,77,217,1,105,5,-2,0,17,5,-1,-2
209,74,218,1,80,2,-3,0,14,2,-1,-3
210,77,219,1,80,5,3,0,17,5,1,-2
211,81,220,1,80,9,4,0,21,9,1,-1
212,79,221,1,95,7,-2,0,19,7,-1,-2
213,81,222,1,80,9,2,0,21,9,1,-1
214,79,223,1,80,7,-2,0,19,7,-1,-2
215,77,224,1,80,5,-2,0,17,5,-1,-3
216,74,225,1,105,2,-3,0,14,2,-1,-4
217,76,226,1,80,4,2,0,16,4,1,-3
218,77,227,1,80,5,1,0,17,5,1,-2
219,79,228,1,80,7,2,0,19,7,1,-1
220,81,229,1,95,9,2,0,21,9,1,0
221,77,230,1,80,5,-4,0,17,5,-1,-1
222,83,231,1,80,11,6,0,23,11,1,0
223,79,232,1,80,7,-4,0,19,7,-1,-1
224,77,233,1,105,5,-2,0,17,5,-1,-2
225,76,234,1,80,4,-1,0,16,4,-1,-3
226,77,235,1,80,5,1,0,17,5,1,-2
227,72,236,1,80,0,-5,0,12,0,-1,-3
228,69,237,1,95,9,-3,0,9,9,-1,-4
229,71,238,1,80,11,2,0,11,11,1,-3
230,72,239,1,80,0,1,0,12,0,1,-2
231,69,240,1,80,9,-3,0,9,9,-1,-3
232,67,241,2,105,7,-2,0,7,7,-1,-4
233,67,243,1,80,7,0,0,7,7,0,-4
234,65,244,1,80,5,-2,0,5,5,-1,-5
235,69,245,1,95,9,4,0,9,9,1,-4
236,74,246,1,80,2,5,0,14,2,1,-3
237,74,247,1,80,2,0,0,14,2,0,-3
238,74,248,1,80,2,0,0,14,2,0,-3
239,77,249,1,105,5,3,0,17,5,1,-2
240,76,250,1,80,4,-1,0,16,4,-1,-3
241,77,251,1,80,5,1,0,17,5,1,-2
242,72,252,1,80,0,-5,0,12,0,-1,-3
243,69,253,1,95,9,-3,0,9,9,-1,-4
244,67,254,1,80,7,-2,0,7,7,-1,-5
245,67,255,1,80,7,0,0,7,7,0,-5
246,43,0,1,80,7,-24,0,-17,7,-1,-6
247,43,1,1,80,7,0,0,-17,7,0,-6
248,55,3,1,75,7,12,0,-5,7,1,-5
249,43,5,1,80,7,-12,0,-17,7,-1,-6
250,55,7,1,75,7,12,0,-5,7,1,-5
251,43,9,1,80,7,-12,0,-17,7,-1,-6
252,55,11,1,75,7,12,0,-5,7,1,-5
253,43,13,1,80,7,-12,0,-17,7,-1,-6
254,55,15,1,75,7,12,0,-5,7,1,-5
255,43,17,1,80,7,-12,0,-17,7,-1,-6
256,55,19,1,75,7,12,0,-5,7,1,-5
257,43,21,1,80,7,-12,0,-17,7,-1,-6
258,55,23,1,75,7,12,0,-5,7,1,-5
259,43,25,1,80,7,-12,0,-17,7,-1,-6
260,55,27,1,75,7,12,0,-5,7,1,-5
261,43,29,1,80,7,-12,0,-17,7,-1,-6
262,55,31,1,75,7,12,0,-5,7,1,-5
263,43,33,1,80,7,-12,0,-17,7,-1,-6
264,55,35,1,75,7,12,0,-5,7,1,-5
265,43,37,1,80,7,-12,0,-17,7,-1,-6
266,55,39,1,75,7,12,0,-5,7,1,-5
267,43,41,1,80,7,-12,0,-17,7,-1,-6
268,55,43,1,75,7,12,0,-5,7,1,-5
269,43,45,1,80,7,-12,0,-17,7,-1,-6
270,55,47,1,75,7,12,0,-5,7,1,-5
271,43,49,1,80,7,-12,0,-17,7,-1,-6
272,55,51,1,75,7,12,0,-5,7,1,-5
273,43,53,1,80,7,-12,0,-17,7,-1,-6
274,55,55,1,75,7,12,0,-5,7,1,-5
275,43,57,1,80,7,-12,0,-17,7,-1,-6
276,55,59,1,75,7,12,0,-5,7,1,-5
277,43,61,1,80,7,-12,0,-17,7,-1,-6
278,55,63,1,75,7,12,0,-5,7,1,-5
279,43,65,1,80,7,-12,0,-17,7,-1,-6
280,55,67,1,75,7,12,0,-5,7,1,-5
281,43,69,1,80,7,-12,0,-17,7,-1,-6
282,55,71,1,75,7,12,0,-5,7,1,-5
283,43,73,1,80,7,-12,0,-17,7,-1,-6
284,55,75,1,75,7,12,0,-5,7,1,-5
285,43,77,1,80,7,-12,0,-17,7,-1,-6
286,55,79,1,75,7,12,0,-5,7,1,-5
287,43,81,1,80,7,-12,0,-17,7,-1,-6
288,55,83,1,75,7,12,0,-5,7,1,-5
289,43,85,1,80,7,-12,0,-17,7,-1,-6
290,55,87,1,75,7,12,0,-5,7,1,-5
291,43,89,1,80,7,-12,0,-17,7,-1,-6
292,55,91,1,75,7,12,0,-5,7,1,-5
293,43,93,1,80,7,-12,0,-17,7,-1,-6
294,55,95,1,75,7,12,0,-5,7,1,-5
295,43,97,1,80,7,-12,0,-17,7,-1,-6
296,55,99,1,75,7,12,0,-5,7,1,-5
297,43,101,1,80,7,-12,0,-17,7,-1,-6
298,55,103,1,75,7,12,0,-5,7,1,-5
299,43,105,1,80,7,-12,0,-17,7,-1,-6
300,55,107,1,75,7,12,0,-5,7,1,-5
301,43,109,1,80,7,-12,0,-17,7,-1,-6
302,55,111,1,75,7,12,0,-5,7,1,-5
303,43,113,1,80,7,-12,0,-17,7,-1,-6
304,55,115,1,75,7,12,0,-5,7,1,-5
305,43,117,1,80,7,-12,0,-17,7,-1,-6
306,55,119,1,75,7,12,0,-5,7,1,-5
307,43,121,1,80,7,-12,0,-17,7,-1,-6
308,55,123,1,75,7,12,0,-5,7,1,-5
309,43,125,1,80,7,-12,0,-17,7,-1,-6
310,55,127,1,75,7,12,0,-5,7,1,-5
311,43,129,1,80,7,-12,0,-17,7,-1,-6
312,55,131,1,75,7,12,0,-5,7,1,-5
313,43,133,1,80,7,-12,0,-17,7,-1,-6
314,55,135,1,75,7,12,0,-5,7,1,-5
315,43,137,1,80,7,-12,0,-17,7,-1,-6
316,55,139,1,75,7,12,0,-5,7,1,-5
317,43,141,1,80,7,-12,0,-17,7,-1,-6
318,55,143,1,75,7,12,0,-5,7,1,-5
319,43,145,1,80,7,-12,0,-17,7,-1,-6
320,55,147,1,75,7,12,0,-5,7,1,-5
321,43,149,1,80,7,-12,0,-17,7,-1,-6
322,55,151,1,75,7,12,0,-5,7,1,-5
323,43,153,1,80,7,-12,0,-17,7,-1,-6
324,55,155,1,75,7,12,0,-5,7,1,-5
325,43,157,1,80,7,-12,0,-17,7,-1,-6
326,55,159,1,75,7,12,0,-5,7,1,-5
327,43,161,1,80,7,-12,0,-17,7,-1,-6
328,55,163,1,75,7,12,0,-5,7,1,-5
329,43,165,1,80,7,-12,0,-17,7,-1,-6
330,55,167,1,75,7,12,0,-5,7,1,-5
331,43,169,1,80,7,-12,0,-17,7,-1,-6
332,55,171,1,75,7,12,0,-5,7,1,-5
333,43,173,1,80,7,-12,0,-17,7,-1,-6
334,55,175,1,75,7,12,0,-5,7,1,-5
335,43,177,1,80,7,-12,0,-17,7,-1,-6
336,55,179,1,75,7,12,0,-5,7,1,-5
337,43,181,1,80,7,-12,0,-17,7,-1,-6
338,55,183,1,75,7,12,0,-5,7,1,-5
339,43,185,1,80,7,-12,0,-17,7,-1,-6
340,55,187,1,75,7,12,0,-5,7,1,-5
341,43,189,1,80,7,-12,0,-17,7,-1,-6
342,55,191,1,75,7,12,0,-5,7,1,-5
343,43,193,1,80,7,-12,0,-17,7,-1,-6
344,55,195,1,75,7,12,0,-5,7,1,-5
345,43,197,1,80,7,-12,0,-17,7,-1,-6
346,55,199,1,75,7,12,0,-5,7,1,-5
347,43,201,1,80,7,-12,0,-17,7,-1,-6
348,55,203,1,75,7,12,0,-5,7,1,-5
349,43,205,1,80,7,-12,0,-17,7,-1,-6
350,55,207,1,75,7,12,0,-5,7,1,-5
351,43,209,1,80,7,-12,0,-17,7,-1,-6
352,55,211,1,75,7,12,0,-5,7,1,-5
353,43,213,1,80,7,-12,0,-17,7,-1,-6
354,55,215,1,75,7,12,0,-5,7,1,-5
355,43,217,1,80,7,-12,0,-17,7,-1,-6
356,55,219,1,75,7,12,0,-5,7,1,-5
357,43,221,1,80,7,-12,0,-17,7,-1,-6
358,55,223,1,75,7,12,0,-5,7,1,-5
359,43,225,1,80,7,-12,0,-17,7,-1,-6
360,55,227,1,75,7,12,0,-5,7,1,-5
361,43,229,1,80,7,-12,0,-17,7,-1,-6
362,55,231,1,75,7,12,0,-5,7,1,-5
363,43,233,1,80,7,-12,0,-17,7,-1,-6
364,55,235,1,75,7,12,0,-5,7,1,-5
365,43,237,1,80,7,-12,0,-17,7,-1,-6
366,55,239,1,75,7,12,0,-5,7,1,-5
367,43,241,1,80,7,-12,0,-17,7,-1,-6
368,55,243,1,75,7,12,0,-5,7,1,-5
369,43,245,1,80,7,-12,0,-17,7,-1,-6
370,55,247,1,75,7,12,0,-5,7,1,-5
371,43,249,1,80,7,-12,0,-17,7,-1,-6
372,55,251,1,75,7,12,0,-5,7,1,-5
373,43,253,1,80,7,-12,0,-17,7,-1,-6
374,55,255,1,75,7,12,0,-5,7,1,-5
