,midi_note,onset,duration,velocity,pitch_class,interval,root,relative_pitch,relative_pitch_class,parsons_code,parsons_cumsum
0,69,0,1,105,9,0,7,2,2,0,0
1,71,1,1,80,11,2,7,4,4,1,1
2,67,2,1,80,7,-4,7,0,0,-1,0
3,69,3,1,95,9,2,7,2,2,1,1
4,67,4,1,80,7,-2,7,0,0,-1,0
5,69,5,1,80,9,2,7,2,2,1,1
6,71,6,1,105,11,2,7,4,4,1,2
7,67,7,1,80,7,-4,7,0,0,-1,1
8,64,8,1,80,4,-3,7,-3,9,-1,0
9,67,9,3,95,7,3,7,0,0,1,1
10,69,12,1,105,9,2,7,2,2,1,2
11,71,13,1,80,11,2,7,4,4,1,3
12,69,14,1,80,9,-2,7,2,2,-1,2
13,67,15,1,95,7,-2,7,0,0,-1,1
14,71,16,1,80,11,4,7,4,4,1,2
15,74,17,1,80,2,3,7,7,7,1,3
16,76,18,1,105,4,2,7,9,9,1,4
17,79,19,1,80,7,3,7,12,0,1,5
18,74,20,1,80,2,-5,7,7,7,-1,4
19,76,21,1,95,4,2,7,9,9,1,5
20,74,22,1,80,2,-2,7,7,7,-1,4
21,71,23,1,80,11,-3,7,4,4,-1,3
22,69,24,1,105,9,-2,7,2,2,-1,2
23,71,25,1,80,11,2,7,4,4,1,3
24,67,26,1,80,7,-4,7,0,0,-1,2
25,69,27,1,95,9,2,7,2,2,1,3
26,67,28,1,80,7,-2,7,0,0,-1,2
27,69,29,1,80,9,2,7,2,2,1,3
28,71,30,1,105,11,2,7,4,4,1,4
29,67,31,1,80,7,-4,7,0,0,-1,3
30,64,32,1,80,4,-3,7,-3,9,-1,2
31,67,33,2,95,7,3,7,0,0,1,3
32,62,35,1,80,2,-5,7,-5,7,-1,2
33,69,36,1,105,9,7,7,2,2,1,3
34,71,37,1,80,11,2,7,4,4,1,4
35,69,38,1,80,9,-2,7,2,2,-1,3
36,67,39,2,95,7,-2,7,0,0,-1,2
37,71,41,1,80,11,4,7,4,4,1,3
38,74,42,1,105,2,3,7,7,7,1,4
39,71,43,1,80,11,-3,7,4,4,-1,3
40,67,44,1,80,7,-4,7,0,0,-1,2
41,71,45,1,95,11,4,7,4,4,1,3
42,74,46,1,80,2,3,7,7,7,1,4
43,71,47,1,80,11,-3,7,4,4,-1,3
44,69,48,1,105,9,-2,7,2,2,-1,2
45,71,49,1,80,11,2,7,4,4,1,3
46,67,50,1,80,7,-4,7,0,0,-1,2
47,69,51,1,95,9,2,7,2,2,1,3
48,67,52,1,80,7,-2,7,0,0,-1,2
49,69,53,1,80,9,2,7,2,2,1,3
50,71,54,1,105,11,2,7,4,4,1,4
51,67,55,1,80,7,-4,7,0,0,-1,3
52,64,56,1,80,4,-3,7,-3,9,-1,2
53,67,57,3,95,7,3,7,0,0,1,3
54,69,60,1,105,9,2,7,2,2,1,4
55,71,61,1,80,11,2,7,4,4,1,5
56,69,62,1,80,9,-2,7,2,2,-1,4
57,67,63,1,95,7,-2,7,0,0,-1,3
58,71,64,1,80,11,4,7,4,4,1,4
59,74,65,1,80,2,3,7,7,7,1,5
60,76,66,1,105,4,2,7,9,9,1,6
61,79,67,1,80,7,3,7,12,0,1,7
62,74,68,1,80,2,-5,7,7,7,-1,6
63,76,69,1,95,4,2,7,9,9,1,7
64,74,70,1,80,2,-2,7,7,7,-1,6
65,71,71,1,80,11,-3,7,4,4,-1,5
66,69,72,1,105,9,-2,7,2,2,-1,4
67,71,73,1,80,11,2,7,4,4,1,5
68,67,74,1,80,7,-4,7,0,0,-1,4
69,69,75,1,95,9,2,7,2,2,1,5
70,67,76,1,80,7,-2,7,0,0,-1,4
71,69,77,1,80,9,2,7,2,2,1,5
72,71,78,1,105,11,2,7,4,4,1,6
73,67,79,1,80,7,-4,7,0,0,-1,5
74,64,80,1,80,4,-3,7,-3,9,-1,4
75,67,81,2,95,7,3,7,0,0,1,5
76,62,83,1,80,2,-5,7,-5,7,-1,4
77,69,84,1,105,9,7,7,2,2,1,5
78,71,85,1,80,11,2,7,4,4,1,6
79,69,86,1,80,9,-2,7,2,2,-1,5
80,67,87,2,95,7,-2,7,0,0,-1,4
81,71,89,1,80,11,4,7,4,4,1,5
82,74,90,1,105,2,3,7,7,7,1,6
83,71,91,1,80,11,-3,7,4,4,-1,5
84,67,92,1,80,7,-4,7,0,0,-1,4
85,71,93,1,95,11,4,7,4,4,1,5
86,74,94,1,80,2,3,7,7,7,1,6
87,71,95,1,80,11,-3,7,4,4,-1,5
88,67,96,1,105,7,-4,7,0,0,-1,4
89,71,97,1,80,11,4,7,4,4,1,5
90,74,98,1,80,2,3,7,7,7,1,6
91,79,99,1,95,7,5,7,12,0,1,7
92,78,100,1,80,6,-1,7,11,11,-1,6
93,79,101,1,80,7,1,7,12,0,1,7
94,79,102,1,105,7,0,7,12,0,0,7
95,83,103,1,80,11,4,7,16,4,1,8
96,81,104,1,80,9,-2,7,14,2,-1,7
97,79,105,3,95,7,-2,7,12,0,-1,6
98,67,108,1,105,7,-12,7,0,0,-1,5
99,71,109,1,80,11,4,7,4,4,1,6
100,74,110,1,80,2,3,7,7,7,1,7
101,79,111,1,95,7,5,7,12,0,1,8
102,78,112,1,80,6,-1,7,11,11,-1,7
103,79,113,1,80,7,1,7,12,0,1,8
104,76,114,1,105,4,-3,7,9,9,-1,7
105,79,115,1,80,7,3,7,12,0,1,8
106,74,116,1,80,2,-5,7,7,7,-1,7
107,76,117,1,95,4,2,7,9,9,1,8
108,74,118,1,80,2,-2,7,7,7,-1,7
109,71,119,1,80,11,-3,7,4,4,-1,6
110,67,120,1,105,7,-4,7,0,0,-1,5
111,71,121,1,80,11,4,7,4,4,1,6
112,74,122,1,80,2,3,7,7,7,1,7
113,79,123,1,95,7,5,7,12,0,1,8
114,78,124,1,80,6,-1,7,11,11,-1,7
115,79,125,1,80,7,1,7,12,0,1,8
116,79,126,1,105,7,0,7,12,0,0,8
117,83,127,1,80,11,4,7,16,4,1,9
118,81,128,1,80,9,-2,7,14,2,-1,8
119,79,129,3,95,7,-2,7,12,0,-1,7
120,81,132,1,105,9,2,7,14,2,1,8
121,83,133,1,80,11,2,7,16,4,1,9
122,79,134,1,80,7,-4,7,12,0,-1,8
123,81,135,1,95,9,2,7,14,2,1,9
124,79,136,1,80,7,-2,7,12,0,-1,8
125,76,137,1,80,4,-3,7,9,9,-1,7
126,76,138,1,105,4,0,7,9,9,0,7
127,79,139,1,80,7,3,7,12,0,1,8
128,74,140,1,80,2,-5,7,7,7,-1,7
129,76,141,1,95,4,2,7,9,9,1,8
130,74,142,1,80,2,-2,7,7,7,-1,7
131,71,143,1,80,11,-3,7,4,4,-1,6
132,67,144,1,105,7,-4,7,0,0,-1,5
133,71,145,1,80,11,4,7,4,4,1,6
134,74,146,1,80,2,3,7,7,7,1,7
135,79,147,1,95,7,5,7,12,0,1,8
136,78,148,1,80,6,-1,7,11,11,-1,7
137,79,149,1,80,7,1,7,12,0,1,8
138,79,150,1,105,7,0,7,12,0,0,8
139,83,151,1,80,11,4,7,16,4,1,9
140,81,152,1,80,9,-2,7,14,2,-1,8
141,79,153,3,95,7,-2,7,12,0,-1,7
142,67,156,1,105,7,-12,7,0,0,-1,6
143,71,157,1,80,11,4,7,4,4,1,7
144,74,158,1,80,2,3,7,7,7,1,8
145,79,159,1,95,7,5,7,12,0,1,9
146,78,160,1,80,6,-1,7,11,11,-1,8
147,79,161,1,80,7,1,7,12,0,1,9
148,76,162,1,105,4,-3,7,9,9,-1,8
149,79,163,1,80,7,3,7,12,0,1,9
150,74,164,1,80,2,-5,7,7,7,-1,8
151,76,165,1,95,4,2,7,9,9,1,9
152,74,166,1,80,2,-2,7,7,7,-1,8
153,71,167,1,80,11,-3,7,4,4,-1,7
154,67,168,1,105,7,-4,7,0,0,-1,6
155,71,169,1,80,11,4,7,4,4,1,7
156,74,170,1,80,2,3,7,7,7,1,8
157,79,171,1,95,7,5,7,12,0,1,9
158,78,172,1,80,6,-1,7,11,11,-1,8
159,79,173,1,80,7,1,7,12,0,1,9
160,79,174,1,105,7,0,7,12,0,0,9
161,83,175,1,80,11,4,7,16,4,1,10
162,81,176,1,80,9,-2,7,14,2,-1,9
163,79,177,3,95,7,-2,7,12,0,-1,8
164,81,180,1,105,9,2,7,14,2,1,9
165,83,181,1,80,11,2,7,16,4,1,10
166,79,182,1,80,7,-4,7,12,0,-1,9
167,81,183,1,95,9,2,7,14,2,1,10
168,79,184,1,80,7,-2,7,12,0,-1,9
169,76,185,1,80,4,-3,7,9,9,-1,8
170,76,186,1,105,4,0,7,9,9,0,8
171,79,187,1,80,7,3,7,12,0,1,9
172,74,188,1,80,2,-5,7,7,7,-1,8
173,76,189,1,95,4,2,7,9,9,1,9
174,74,190,1,80,2,-2,7,7,7,-1,8
175,71,191,1,80,11,-3,7,4,4,-1,7
