,midi_note,onset,duration,velocity,pitch_class,interval,root,relative_pitch,relative_pitch_class,parsons_code,parsons_cumsum
0,62,0,2,105,2,0,2,0,0,0,0
1,69,2,1,80,9,7,2,7,7,1,1
2,67,3,1,80,7,-2,2,5,5,-1,0
3,64,4,1,95,4,-3,2,2,2,-1,-1
4,66,5,1,80,6,2,2,4,4,1,0
5,67,6,1,80,7,1,2,5,5,1,1
6,64,7,1,80,4,-3,2,2,2,-1,0
7,69,8,0,105,9,5,2,7,7,1,1
8,71,8,0,80,11,2,2,9,9,1,2
9,69,9,0,80,9,-2,2,7,7,-1,1
10,67,10,1,80,7,-2,2,5,5,-1,0
11,64,11,1,80,4,-3,2,2,2,-1,-1
12,72,12,1,95,0,8,2,10,10,1,0
13,69,13,1,80,9,-3,2,7,7,-1,-1
14,67,14,1,80,7,-2,2,5,5,-1,-2
15,64,15,1,80,4,-3,2,2,2,-1,-3
16,62,16,2,105,2,-2,2,0,0,-1,-4
17,69,18,1,80,9,7,2,7,7,1,-3
18,67,19,1,80,7,-2,2,5,5,-1,-4
19,64,20,1,95,4,-3,2,2,2,-1,-5
20,66,21,1,80,6,2,2,4,4,1,-4
21,67,22,1,80,7,1,2,5,5,1,-3
22,64,23,1,80,4,-3,2,2,2,-1,-4
23,69,24,0,105,9,5,2,7,7,1,-3
24,71,24,0,80,11,2,2,9,9,1,-2
25,69,25,0,80,9,-2,2,7,7,-1,-3
26,67,26,1,80,7,-2,2,5,5,-1,-4
27,64,27,1,80,4,-3,2,2,2,-1,-5
28,64,28,1,95,4,0,2,2,2,0,-5
29,62,29,1,80,2,-2,2,0,0,-1,-6
30,62,30,2,80,2,0,2,0,0,0,-6
31,62,32,2,105,2,0,2,0,0,0,-6
32,69,34,1,80,9,7,2,7,7,1,-5
33,67,35,1,80,7,-2,2,5,5,-1,-6
34,64,36,1,95,4,-3,2,2,2,-1,-7
35,66,37,1,80,6,2,2,4,4,1,-6
36,67,38,1,80,7,1,2,5,5,1,-5
37,64,39,1,80,4,-3,2,2,2,-1,-6
38,69,40,0,105,9,5,2,7,7,1,-5
39,71,40,0,80,11,2,2,9,9,1,-4
40,69,41,0,80,9,-2,2,7,7,-1,-5
41,67,42,1,80,7,-2,2,5,5,-1,-6
42,64,43,1,80,4,-3,2,2,2,-1,-7
43,72,44,1,95,0,8,2,10,10,1,-6
44,69,45,1,80,9,-3,2,7,7,-1,-7
45,67,46,1,80,7,-2,2,5,5,-1,-8
46,64,47,1,80,4,-3,2,2,2,-1,-9
47,62,48,2,105,2,-2,2,0,0,-1,-10
48,69,50,1,80,9,7,2,7,7,1,-9
49,67,51,1,80,7,-2,2,5,5,-1,-10
50,64,52,1,95,4,-3,2,2,2,-1,-11
51,66,53,1,80,6,2,2,4,4,1,-10
52,67,54,1,80,7,1,2,5,5,1,-9
53,64,55,1,80,4,-3,2,2,2,-1,-10
54,69,56,0,105,9,5,2,7,7,1,-9
55,71,56,0,80,11,2,2,9,9,1,-8
56,69,57,0,80,9,-2,2,7,7,-1,-9
57,67,58,1,80,7,-2,2,5,5,-1,-10
58,64,59,1,80,4,-3,2,2,2,-1,-11
59,64,60,1,95,4,0,2,2,2,0,-11
60,62,61,1,80,2,-2,2,0,0,-1,-12
61,62,62,2,80,2,0,2,0,0,0,-12
62,62,64,1,105,2,0,2,0,0,0,-12
63,66,65,1,80,6,4,2,4,4,1,-11
64,69,66,1,80,9,3,2,7,7,1,-10
65,71,67,1,80,11,2,2,9,9,1,-9
66,72,68,2,95,0,1,2,10,10,1,-8
67,69,70,1,80,9,-3,2,7,7,-1,-9
68,67,71,1,80,7,-2,2,5,5,-1,-10
69,69,72,1,105,9,2,2,7,7,1,-9
70,74,73,1,80,2,5,2,12,0,1,-8
71,74,74,1,80,2,0,2,12,0,0,-8
72,76,75,1,80,4,2,2,14,2,1,-7
73,78,76,2,95,6,2,2,16,4,1,-6
74,76,78,1,80,4,-2,2,14,2,-1,-7
75,74,79,1,80,2,-2,2,12,0,-1,-8
76,72,80,1,105,0,-2,2,10,10,-1,-9
77,69,81,1,80,9,-3,2,7,7,-1,-10
78,67,82,1,80,7,-2,2,5,5,-1,-11
79,64,83,1,80,4,-3,2,2,2,-1,-12
80,66,84,1,95,6,2,2,4,4,1,-11
81,64,85,1,80,4,-2,2,2,2,-1,-12
82,66,86,1,80,6,2,2,4,4,1,-11
83,67,87,1,80,7,1,2,5,5,1,-10
84,69,88,1,105,9,2,2,7,7,1,-9
85,66,89,1,80,6,-3,2,4,4,-1,-10
86,67,90,1,80,7,1,2,5,5,1,-9
87,64,91,1,80,4,-3,2,2,2,-1,-10
88,64,92,1,95,4,0,2,2,2,0,-10
89,62,93,1,80,2,-2,2,0,0,-1,-11
90,62,94,2,80,2,0,2,0,0,0,-11
91,62,96,1,105,2,0,2,0,0,0,-11
92,66,97,1,80,6,4,2,4,4,1,-10
93,69,98,1,80,9,3,2,7,7,1,-9
94,71,99,1,80,11,2,2,9,9,1,-8
95,72,100,2,95,0,1,2,10,10,1,-7
96,69,102,1,80,9,-3,2,7,7,-1,-8
97,67,103,1,80,7,-2,2,5,5,-1,-9
98,69,104,1,105,9,2,2,7,7,1,-8
99,74,105,1,80,2,5,2,12,0,1,-7
100,74,106,1,80,2,0,2,12,0,0,-7
101,76,107,1,80,4,2,2,14,2,1,-6
102,78,108,2,95,6,2,2,16,4,1,-5
103,76,110,1,80,4,-2,2,14,2,-1,-6
104,74,111,1,80,2,-2,2,12,0,-1,-7
105,72,112,1,105,0,-2,2,10,10,-1,-8
106,69,113,1,80,9,-3,2,7,7,-1,-9
107,67,114,1,80,7,-2,2,5,5,-1,-10
108,64,115,1,80,4,-3,2,2,2,-1,-11
109,66,116,1,95,6,2,2,4,4,1,-10
110,64,117,1,80,4,-2,2,2,2,-1,-11
111,66,118,1,80,6,2,2,4,4,1,-10
112,67,119,1,80,7,1,2,5,5,1,-9
113,69,120,1,105,9,2,2,7,7,1,-8
114,74,121,1,80,2,5,2,12,0,1,-7
115,74,122,1,80,2,0,2,12,0,0,-7
116,71,123,1,80,11,-3,2,9,9,-1,-8
117,72,124,1,95,0,1,2,10,10,1,-7
118,69,125,1,80,9,-3,2,7,7,-1,-8
119,67,126,1,80,7,-2,2,5,5,-1,-9
120,64,127,1,80,4,-3,2,2,2,-1,-10
