,midi_note,onset,duration,velocity,pitch_class,interval,root,relative_pitch,relative_pitch_class,parsons_code,parsons_cumsum
0,71,0,1,105,11,0,9,2,2,0,0
1,74,1,1,80,2,3,9,5,5,1,1
2,76,2,1,105,4,2,9,7,7,1,2
3,69,3,1,80,9,-7,9,0,0,-1,1
4,69,4,1,80,9,0,9,0,0,0,1
5,69,5,1,80,9,0,9,0,0,0,1
6,76,6,1,95,4,7,9,7,7,1,2
7,79,7,1,80,7,3,9,10,10,1,3
8,78,8,1,80,6,-1,9,9,9,-1,2
9,74,9,1,80,2,-4,9,5,5,-1,1
10,76,10,1,105,4,2,9,7,7,1,2
11,69,11,1,80,9,-7,9,0,0,-1,1
12,69,12,2,80,9,0,9,0,0,0,1
13,71,14,1,95,11,2,9,2,2,1,2
14,67,15,1,80,7,-4,9,-2,10,-1,1
15,71,16,1,80,11,4,9,2,2,1,2
16,74,17,1,80,2,3,9,5,5,1,3
17,76,18,1,105,4,2,9,7,7,1,4
18,69,19,1,80,9,-7,9,0,0,-1,3
19,71,20,0,80,11,2,9,2,2,1,4
20,69,20,1,80,9,-2,9,0,0,-1,3
21,76,22,1,95,4,7,9,7,7,1,4
22,79,23,1,80,7,3,9,10,10,1,5
23,79,24,2,80,7,0,9,10,10,0,5
24,81,26,1,105,9,2,9,12,0,1,6
25,79,27,1,80,7,-2,9,10,10,-1,5
26,79,28,1,80,7,0,9,10,10,0,5
27,76,29,1,80,4,-3,9,7,7,-1,4
28,74,30,2,95,2,-2,9,5,5,-1,3
29,71,32,0,80,11,-3,9,2,2,-1,2
30,72,32,0,80,0,1,9,3,3,1,3
31,74,33,0,80,2,2,9,5,5,1,4
32,76,34,1,105,4,2,9,7,7,1,5
33,69,35,1,80,9,-7,9,0,0,-1,4
34,69,36,1,80,9,0,9,0,0,0,4
35,69,37,1,80,9,0,9,0,0,0,4
36,76,38,1,95,4,7,9,7,7,1,5
37,79,39,1,80,7,3,9,10,10,1,6
38,78,40,1,80,6,-1,9,9,9,-1,5
39,74,41,1,80,2,-4,9,5,5,-1,4
40,76,42,1,105,4,2,9,7,7,1,5
41,69,43,1,80,9,-7,9,0,0,-1,4
42,69,44,2,80,9,0,9,0,0,0,4
43,71,46,1,95,11,2,9,2,2,1,5
44,67,47,1,80,7,-4,9,-2,10,-1,4
45,71,48,1,80,11,4,9,2,2,1,5
46,74,49,1,80,2,3,9,5,5,1,6
47,76,50,1,105,4,2,9,7,7,1,7
48,69,51,1,80,9,-7,9,0,0,-1,6
49,71,52,0,80,11,2,9,2,2,1,7
50,69,52,1,80,9,-2,9,0,0,-1,6
51,76,54,1,95,4,7,9,7,7,1,7
52,79,55,1,80,7,3,9,10,10,1,8
53,79,56,2,80,7,0,9,10,10,0,8
54,81,58,1,105,9,2,9,12,0,1,9
55,79,59,1,80,7,-2,9,10,10,-1,8
56,79,60,1,80,7,0,9,10,10,0,8
57,76,61,1,80,4,-3,9,7,7,-1,7
58,74,62,2,95,2,-2,9,5,5,-1,6
59,71,64,0,80,11,-3,9,2,2,-1,5
60,72,64,0,80,0,1,9,3,3,1,6
61,74,65,0,80,2,2,9,5,5,1,7
62,76,66,1,105,4,2,9,7,7,1,8
63,79,67,1,80,7,3,9,10,10,1,9
64,79,68,2,80,7,0,9,10,10,0,9
65,83,70,1,95,11,4,9,14,2,1,10
66,79,71,1,80,7,-4,9,10,10,-1,9
67,79,72,2,80,7,0,9,10,10,0,9
68,76,74,1,105,4,-3,9,7,7,-1,8
69,79,75,1,80,7,3,9,10,10,1,9
70,79,76,1,80,7,0,9,10,10,0,9
71,74,77,1,80,2,-5,9,5,5,-1,8
72,71,78,1,95,11,-3,9,2,2,-1,7
73,67,79,1,80,7,-4,9,-2,10,-1,6
74,71,80,1,80,11,4,9,2,2,1,7
75,74,81,1,80,2,3,9,5,5,1,8
76,76,82,1,105,4,2,9,7,7,1,9
77,79,83,1,80,7,3,9,10,10,1,10
78,79,84,2,80,7,0,9,10,10,0,10
79,83,86,1,95,11,4,9,14,2,1,11
80,79,87,1,80,7,-4,9,10,10,-1,10
81,79,88,2,80,7,0,9,10,10,0,10
82,81,90,1,105,9,2,9,12,0,1,11
83,79,91,1,80,7,-2,9,10,10,-1,10
84,79,92,1,80,7,0,9,10,10,0,10
85,76,93,1,80,4,-3,9,7,7,-1,9
86,74,94,2,95,2,-2,9,5,5,-1,8
87,71,96,0,80,11,-3,9,2,2,-1,7
88,72,96,0,80,0,1,9,3,3,1,8
89,74,97,0,80,2,2,9,5,5,1,9
90,76,98,1,105,4,2,9,7,7,1,10
91,79,99,1,80,7,3,9,10,10,1,11
92,79,100,2,80,7,0,9,10,10,0,11
93,83,102,1,95,11,4,9,14,2,1,12
94,79,103,1,80,7,-4,9,10,10,-1,11
95,79,104,2,80,7,0,9,10,10,0,11
96,76,106,1,105,4,-3,9,7,7,-1,10
97,79,107,1,80,7,3,9,10,10,1,11
98,79,108,1,80,7,0,9,10,10,0,11
99,74,109,1,80,2,-5,9,5,5,-1,10
100,71,110,1,95,11,-3,9,2,2,-1,9
101,67,111,1,80,7,-4,9,-2,10,-1,8
102,71,112,1,80,11,4,9,2,2,1,9
103,74,113,1,80,2,3,9,5,5,1,10
104,76,114,1,105,4,2,9,7,7,1,11
105,79,115,1,80,7,3,9,10,10,1,12
106,79,116,2,80,7,0,9,10,10,0,12
107,83,118,1,95,11,4,9,14,2,1,13
108,79,119,1,80,7,-4,9,10,10,-1,12
109,79,120,2,80,7,0,9,10,10,0,12
110,81,122,1,105,9,2,9,12,0,1,13
111,79,123,1,80,7,-2,9,10,10,-1,12
112,79,124,1,80,7,0,9,10,10,0,12
113,76,125,1,80,4,-3,9,7,7,-1,11
114,74,126,2,95,2,-2,9,5,5,-1,10
