,midi_note,onset,duration,velocity,pitch_class,interval,root,relative_pitch,relative_pitch_class,parsons_code,parsons_cumsum
0,62,0,0,105,2,0,7,-5,7,0,0
1,64,0,0,80,4,2,7,-3,9,1,1
2,66,1,0,80,6,2,7,-1,11,1,2
3,67,2,1,105,7,1,7,0,0,1,3
4,69,3,0,80,9,2,7,2,2,1,4
5,71,4,1,80,11,2,7,4,4,1,5
6,72,5,0,80,0,1,7,5,5,1,6
7,74,6,1,95,2,2,7,7,7,1,7
8,72,7,0,80,0,-2,7,5,5,-1,6
9,76,8,1,80,4,4,7,9,9,1,7
10,72,9,0,80,0,-4,7,5,5,-1,6
11,74,10,1,105,2,2,7,7,7,1,7
12,79,11,0,80,7,5,7,12,0,1,8
13,81,12,0,80,9,2,7,14,2,1,9
14,79,12,1,80,7,-2,7,12,0,-1,8
15,83,14,1,95,11,4,7,16,4,1,9
16,79,15,0,80,7,-4,7,12,0,-1,8
17,74,16,1,80,2,-5,7,7,7,-1,7
18,71,17,0,80,11,-3,7,4,4,-1,6
19,72,18,1,105,0,1,7,5,5,1,7
20,69,19,0,80,9,-3,7,2,2,-1,6
21,76,20,1,80,4,7,7,9,9,1,7
22,72,21,0,80,0,-4,7,5,5,-1,6
23,71,22,2,95,11,-1,7,4,4,-1,5
24,74,24,1,80,2,3,7,7,7,1,6
25,71,25,0,80,11,-3,7,4,4,-1,5
26,69,26,2,105,9,-2,7,2,2,-1,4
27,67,28,1,80,7,-2,7,0,0,-1,3
28,64,29,0,80,4,-3,7,-3,9,-1,2
29,62,30,1,95,2,-2,7,-5,7,-1,1
30,72,31,0,80,0,10,7,5,5,1,2
31,71,32,1,80,11,-1,7,4,4,-1,1
32,69,33,0,80,9,-2,7,2,2,-1,0
33,67,34,1,105,7,-2,7,0,0,-1,-1
34,69,35,0,80,9,2,7,2,2,1,0
35,71,36,1,80,11,2,7,4,4,1,1
36,72,37,0,80,0,1,7,5,5,1,2
37,74,38,1,95,2,2,7,7,7,1,3
38,72,39,0,80,0,-2,7,5,5,-1,2
39,76,40,1,80,4,4,7,9,9,1,3
40,72,41,0,80,0,-4,7,5,5,-1,2
41,74,42,1,105,2,2,7,7,7,1,3
42,79,43,0,80,7,5,7,12,0,1,4
43,81,44,0,80,9,2,7,14,2,1,5
44,79,44,1,80,7,-2,7,12,0,-1,4
45,83,46,1,95,11,4,7,16,4,1,5
46,79,47,0,80,7,-4,7,12,0,-1,4
47,74,48,1,80,2,-5,7,7,7,-1,3
48,71,49,0,80,11,-3,7,4,4,-1,2
49,72,50,1,105,0,1,7,5,5,1,3
50,76,51,0,80,4,4,7,9,9,1,4
51,74,52,1,80,2,-2,7,7,7,-1,3
52,72,53,0,80,0,-2,7,5,5,-1,2
53,71,54,1,95,11,-1,7,4,4,-1,1
54,67,55,0,80,7,-4,7,0,0,-1,0
55,69,56,1,80,9,2,7,2,2,1,1
56,66,57,0,80,6,-3,7,-1,11,-1,0
57,67,58,2,105,7,1,7,0,0,1,1
58,67,60,1,80,7,0,7,0,0,0,1
59,66,61,0,80,6,-1,7,-1,11,-1,0
60,67,62,2,95,7,1,7,0,0,1,1
61,62,64,0,80,2,-5,7,-5,7,-1,0
62,64,64,0,80,4,2,7,-3,9,1,1
63,66,65,0,80,6,2,7,-1,11,1,2
64,67,66,1,105,7,1,7,0,0,1,3
65,69,67,0,80,9,2,7,2,2,1,4
66,71,68,1,80,11,2,7,4,4,1,5
67,72,69,0,80,0,1,7,5,5,1,6
68,74,70,1,95,2,2,7,7,7,1,7
69,72,71,0,80,0,-2,7,5,5,-1,6
70,76,72,1,80,4,4,7,9,9,1,7
71,72,73,0,80,0,-4,7,5,5,-1,6
72,74,74,1,105,2,2,7,7,7,1,7
73,79,75,0,80,7,5,7,12,0,1,8
74,81,76,0,80,9,2,7,14,2,1,9
75,79,76,1,80,7,-2,7,12,0,-1,8
76,83,78,1,95,11,4,7,16,4,1,9
77,79,79,0,80,7,-4,7,12,0,-1,8
78,74,80,1,80,2,-5,7,7,7,-1,7
79,71,81,0,80,11,-3,7,4,4,-1,6
80,72,82,1,105,0,1,7,5,5,1,7
81,69,83,0,80,9,-3,7,2,2,-1,6
82,76,84,1,80,4,7,7,9,9,1,7
83,72,85,0,80,0,-4,7,5,5,-1,6
84,71,86,2,95,11,-1,7,4,4,-1,5
85,74,88,1,80,2,3,7,7,7,1,6
86,71,89,0,80,11,-3,7,4,4,-1,5
87,69,90,2,105,9,-2,7,2,2,-1,4
88,67,92,1,80,7,-2,7,0,0,-1,3
89,64,93,0,80,4,-3,7,-3,9,-1,2
90,62,94,1,95,2,-2,7,-5,7,-1,1
91,72,95,0,80,0,10,7,5,5,1,2
92,71,96,1,80,11,-1,7,4,4,-1,1
93,69,97,0,80,9,-2,7,2,2,-1,0
94,67,98,1,105,7,-2,7,0,0,-1,-1
95,69,99,0,80,9,2,7,2,2,1,0
96,71,100,1,80,11,2,7,4,4,1,1
97,72,101,0,80,0,1,7,5,5,1,2
98,74,102,1,95,2,2,7,7,7,1,3
99,72,103,0,80,0,-2,7,5,5,-1,2
100,76,104,1,80,4,4,7,9,9,1,3
101,72,105,0,80,0,-4,7,5,5,-1,2
102,74,106,1,105,2,2,7,7,7,1,3
103,79,107,0,80,7,5,7,12,0,1,4
104,81,108,0,80,9,2,7,14,2,1,5
105,79,108,1,80,7,-2,7,12,0,-1,4
106,83,110,1,95,11,4,7,16,4,1,5
107,79,111,0,80,7,-4,7,12,0,-1,4
108,74,112,1,80,2,-5,7,7,7,-1,3
109,71,113,0,80,11,-3,7,4,4,-1,2
110,72,114,1,105,0,1,7,5,5,1,3
111,76,115,0,80,4,4,7,9,9,1,4
112,74,116,1,80,2,-2,7,7,7,-1,3
113,72,117,0,80,0,-2,7,5,5,-1,2
114,71,118,1,95,11,-1,7,4,4,-1,1
115,67,119,0,80,7,-4,7,0,0,-1,0
116,69,120,1,80,9,2,7,2,2,1,1
117,66,121,0,80,6,-3,7,-1,11,-1,0
118,67,122,2,105,7,1,7,0,0,1,1
119,67,124,1,80,7,0,7,0,0,0,1
120,66,125,0,80,6,-1,7,-1,11,-1,0
121,67,126,2,95,7,1,7,0,0,1,1
122,83,128,1,80,11,16,7,16,4,1,2
123,79,129,0,80,7,-4,7,12,0,-1,1
124,81,130,1,105,9,2,7,14,2,1,2
125,78,131,0,80,6,-3,7,11,11,-1,1
126,76,132,1,80,4,-2,7,9,9,-1,0
127,72,133,0,80,0,-4,7,5,5,-1,-1
128,74,134,2,95,2,2,7,7,7,1,0
129,83,136,1,80,11,9,7,16,4,1,1
130,79,137,0,80,7,-4,7,12,0,-1,0
131,81,138,1,105,9,2,7,14,2,1,1
132,78,139,0,80,6,-3,7,11,11,-1,0
133,76,140,1,80,4,-2,7,9,9,-1,-1
134,72,141,0,80,0,-4,7,5,5,-1,-2
135,74,142,2,95,2,2,7,7,7,1,-1
136,83,144,1,80,11,9,7,16,4,1,0
137,79,145,0,80,7,-4,7,12,0,-1,-1
138,81,146,1,105,9,2,7,14,2,1,0
139,78,147,0,80,6,-3,7,11,11,-1,-1
140,79,148,1,80,7,1,7,12,0,1,0
141,76,149,0,80,4,-3,7,9,9,-1,-1
142,78,150,1,95,6,2,7,11,11,1,0
143,74,151,0,80,2,-4,7,7,7,-1,-1
144,76,152,1,80,4,2,7,9,9,1,0
145,72,153,0,80,0,-4,7,5,5,-1,-1
146,74,154,1,105,2,2,7,7,7,1,0
147,71,155,0,80,11,-3,7,4,4,-1,-1
148,72,156,1,80,0,1,7,5,5,1,0
149,69,157,0,80,9,-3,7,2,2,-1,-1
150,71,158,1,95,11,2,7,4,4,1,0
151,67,159,0,80,7,-4,7,0,0,-1,-1
152,69,160,1,80,9,2,7,2,2,1,0
153,66,161,0,80,6,-3,7,-1,11,-1,-1
154,67,162,1,105,7,1,7,0,0,1,0
155,69,163,0,80,9,2,7,2,2,1,1
156,71,164,1,80,11,2,7,4,4,1,2
157,72,165,0,80,0,1,7,5,5,1,3
158,74,166,1,95,2,2,7,7,7,1,4
159,72,167,0,80,0,-2,7,5,5,-1,3
160,76,168,1,80,4,4,7,9,9,1,4
161,72,169,0,80,0,-4,7,5,5,-1,3
162,74,170,1,105,2,2,7,7,7,1,4
163,79,171,0,80,7,5,7,12,0,1,5
164,81,172,0,80,9,2,7,14,2,1,6
165,79,172,1,80,7,-2,7,12,0,-1,5
166,83,174,1,95,11,4,7,16,4,1,6
167,79,175,0,80,7,-4,7,12,0,-1,5
168,74,176,1,80,2,-5,7,7,7,-1,4
169,71,177,0,80,11,-3,7,4,4,-1,3
170,72,178,1,105,0,1,7,5,5,1,4
171,76,179,0,80,4,4,7,9,9,1,5
172,74,180,1,80,2,-2,7,7,7,-1,4
173,72,181,0,80,0,-2,7,5,5,-1,3
174,71,182,1,95,11,-1,7,4,4,-1,2
175,67,183,0,80,7,-4,7,0,0,-1,1
176,69,184,1,80,9,2,7,2,2,1,2
177,66,185,0,80,6,-3,7,-1,11,-1,1
178,67,186,2,105,7,1,7,0,0,1,2
179,67,188,1,80,7,0,7,0,0,0,2
180,66,189,0,80,6,-1,7,-1,11,-1,1
181,67,190,2,95,7,1,7,0,0,1,2
182,83,192,1,80,11,16,7,16,4,1,3
183,79,193,0,80,7,-4,7,12,0,-1,2
184,81,194,1,105,9,2,7,14,2,1,3
185,78,195,0,80,6,-3,7,11,11,-1,2
186,76,196,1,80,4,-2,7,9,9,-1,1
187,72,197,0,80,0,-4,7,5,5,-1,0
188,74,198,2,95,2,2,7,7,7,1,1
189,83,200,1,80,11,9,7,16,4,1,2
190,79,201,0,80,7,-4,7,12,0,-1,1
191,81,202,1,105,9,2,7,14,2,1,2
192,78,203,0,80,6,-3,7,11,11,-1,1
193,76,204,1,80,4,-2,7,9,9,-1,0
194,72,205,0,80,0,-4,7,5,5,-1,-1
195,74,206,2,95,2,2,7,7,7,1,0
196,83,208,1,80,11,9,7,16,4,1,1
197,79,209,0,80,7,-4,7,12,0,-1,0
198,81,210,1,105,9,2,7,14,2,1,1
199,78,211,0,80,6,-3,7,11,11,-1,0
200,79,212,1,80,7,1,7,12,0,1,1
201,76,213,0,80,4,-3,7,9,9,-1,0
202,78,214,1,95,6,2,7,11,11,1,1
203,74,215,0,80,2,-4,7,7,7,-1,0
204,76,216,1,80,4,2,7,9,9,1,1
205,72,217,0,80,0,-4,7,5,5,-1,0
206,74,218,1,105,2,2,7,7,7,1,1
207,71,219,0,80,11,-3,7,4,4,-1,0
208,72,220,1,80,0,1,7,5,5,1,1
209,69,221,0,80,9,-3,7,2,2,-1,0
210,71,222,1,95,11,2,7,4,4,1,1
211,67,223,0,80,7,-4,7,0,0,-1,0
212,69,224,1,80,9,2,7,2,2,1,1
213,66,225,0,80,6,-3,7,-1,11,-1,0
214,67,226,1,105,7,1,7,0,0,1,1
215,69,227,0,80,9,2,7,2,2,1,2
216,71,228,1,80,11,2,7,4,4,1,3
217,72,229,0,80,0,1,7,5,5,1,4
218,74,230,1,95,2,2,7,7,7,1,5
219,72,231,0,80,0,-2,7,5,5,-1,4
220,76,232,1,80,4,4,7,9,9,1,5
221,72,233,0,80,0,-4,7,5,5,-1,4
222,74,234,1,105,2,2,7,7,7,1,5
223,79,235,0,80,7,5,7,12,0,1,6
224,81,236,0,80,9,2,7,14,2,1,7
225,79,236,1,80,7,-2,7,12,0,-1,6
226,83,238,1,95,11,4,7,16,4,1,7
227,79,239,0,80,7,-4,7,12,0,-1,6
228,74,240,1,80,2,-5,7,7,7,-1,5
229,71,241,0,80,11,-3,7,4,4,-1,4
230,72,242,1,105,0,1,7,5,5,1,5
231,76,243,0,80,4,4,7,9,9,1,6
232,74,244,1,80,2,-2,7,7,7,-1,5
233,72,245,0,80,0,-2,7,5,5,-1,4
234,71,246,1,95,11,-1,7,4,4,-1,3
235,67,247,0,80,7,-4,7,0,0,-1,2
236,69,248,1,80,9,2,7,2,2,1,3
237,66,249,0,80,6,-3,7,-1,11,-1,2
238,67,250,2,105,7,1,7,0,0,1,3
239,67,252,1,80,7,0,7,0,0,0,3
240,66,253,0,80,6,-1,7,-1,11,-1,2
241,67,254,2,95,7,1,7,0,0,1,3
