,midi_note,onset,duration,velocity,pitch_class,interval,root,relative_pitch,relative_pitch_class,parsons_code,parsons_cumsum
0,62,0,2,105,2,0,7,-5,7,0,0
1,66,2,1,80,6,4,7,-1,11,1,1
2,69,3,1,80,9,3,7,2,2,1,2
3,74,4,2,95,2,5,7,7,7,1,3
4,74,6,1,80,2,0,7,7,7,0,3
5,71,7,1,80,11,-3,7,4,4,-1,2
6,72,8,1,105,0,1,7,5,5,1,3
7,69,9,1,80,9,-3,7,2,2,-1,2
8,67,10,1,80,7,-2,7,0,0,-1,1
9,64,11,1,80,4,-3,7,-3,9,-1,0
10,60,12,1,95,0,-4,7,-7,5,-1,-1
11,64,13,1,80,4,4,7,-3,9,1,0
12,67,14,1,80,7,3,7,0,0,1,1
13,64,15,1,80,4,-3,7,-3,9,-1,0
14,62,16,1,105,2,-2,7,-5,7,-1,-1
15,64,17,1,80,4,2,7,-3,9,1,0
16,66,18,1,80,6,2,7,-1,11,1,1
17,69,19,1,80,9,3,7,2,2,1,2
18,74,20,1,95,2,5,7,7,7,1,3
19,78,21,1,80,6,4,7,11,11,1,4
20,76,22,1,80,4,-2,7,9,9,-1,3
21,74,23,1,80,2,-2,7,7,7,-1,2
22,72,24,1,105,0,-2,7,5,5,-1,1
23,69,25,1,80,9,-3,7,2,2,-1,0
24,67,26,1,80,7,-2,7,0,0,-1,-1
25,64,27,1,80,4,-3,7,-3,9,-1,-2
26,64,28,1,95,4,0,7,-3,9,0,-2
27,62,29,1,80,2,-2,7,-5,7,-1,-3
28,60,30,1,80,0,-2,7,-7,5,-1,-4
29,64,31,1,80,4,4,7,-3,9,1,-3
30,62,32,2,105,2,-2,7,-5,7,-1,-4
31,66,34,1,80,6,4,7,-1,11,1,-3
32,69,35,1,80,9,3,7,2,2,1,-2
33,74,36,3,95,2,5,7,7,7,1,-1
34,71,39,1,80,11,-3,7,4,4,-1,-2
35,72,40,1,105,0,1,7,5,5,1,-1
36,69,41,1,80,9,-3,7,2,2,-1,-2
37,69,42,2,80,9,0,7,2,2,0,-2
38,67,44,1,95,7,-2,7,0,0,-1,-3
39,72,45,1,80,0,5,7,5,5,1,-2
40,72,46,2,80,0,0,7,5,5,0,-2
41,69,48,1,105,9,-3,7,2,2,-1,-3
42,71,49,1,80,11,2,7,4,4,1,-2
43,72,50,1,80,0,1,7,5,5,1,-1
44,69,51,1,80,9,-3,7,2,2,-1,-2
45,74,52,1,95,2,5,7,7,7,1,-1
46,78,53,1,80,6,4,7,11,11,1,0
47,76,54,1,80,4,-2,7,9,9,-1,-1
48,74,55,1,80,2,-2,7,7,7,-1,-2
49,72,56,1,105,0,-2,7,5,5,-1,-3
50,69,57,1,80,9,-3,7,2,2,-1,-4
51,67,58,1,80,7,-2,7,0,0,-1,-5
52,64,59,1,80,4,-3,7,-3,9,-1,-6
53,64,60,1,95,4,0,7,-3,9,0,-6
54,62,61,1,80,2,-2,7,-5,7,-1,-7
55,62,62,2,80,2,0,7,-5,7,0,-7
56,74,64,1,105,2,12,7,7,7,1,-6
57,76,65,1,80,4,2,7,9,9,1,-5
58,78,66,1,80,6,2,7,11,11,1,-4
59,79,67,1,80,7,1,7,12,0,1,-3
60,81,68,1,95,9,2,7,14,2,1,-2
61,78,69,1,80,6,-3,7,11,11,-1,-3
62,74,70,1,80,2,-4,7,7,7,-1,-4
63,71,71,1,80,11,-3,7,4,4,-1,-5
64,72,72,1,105,0,1,7,5,5,1,-4
65,74,73,1,80,2,2,7,7,7,1,-3
66,76,74,1,80,4,2,7,9,9,1,-2
67,78,75,1,80,6,2,7,11,11,1,-1
68,79,76,1,95,7,1,7,12,0,1,0
69,76,77,1,80,4,-3,7,9,9,-1,-1
70,72,78,1,80,0,-4,7,5,5,-1,-2
71,76,79,1,80,4,4,7,9,9,1,-1
72,74,80,1,105,2,-2,7,7,7,-1,-2
73,76,81,1,80,4,2,7,9,9,1,-1
74,78,82,1,80,6,2,7,11,11,1,0
75,79,83,1,80,7,1,7,12,0,1,1
76,81,84,1,95,9,2,7,14,2,1,2
77,78,85,1,80,6,-3,7,11,11,-1,1
78,83,86,1,80,11,5,7,16,4,1,2
79,78,87,1,80,6,-5,7,11,11,-1,1
80,81,88,1,105,9,3,7,14,2,1,2
81,78,89,1,80,6,-3,7,11,11,-1,1
82,76,90,1,80,4,-2,7,9,9,-1,0
83,79,91,1,80,7,3,7,12,0,1,1
84,78,92,1,95,6,-1,7,11,11,-1,0
85,74,93,1,80,2,-4,7,7,7,-1,-1
86,74,94,1,80,2,0,7,7,7,0,-1
87,78,95,1,80,6,4,7,11,11,1,0
88,81,96,1,105,9,3,7,14,2,1,1
89,78,97,1,80,6,-3,7,11,11,-1,0
90,74,98,1,80,2,-4,7,7,7,-1,-1
91,78,99,1,80,6,4,7,11,11,1,0
92,81,100,1,95,9,3,7,14,2,1,1
93,78,101,1,80,6,-3,7,11,11,-1,0
94,74,102,1,80,2,-4,7,7,7,-1,-1
95,78,103,1,80,6,4,7,11,11,1,0
96,79,104,1,105,7,1,7,12,0,1,1
97,76,105,1,80,4,-3,7,9,9,-1,0
98,72,106,1,80,0,-4,7,5,5,-1,-1
99,76,107,1,80,4,4,7,9,9,1,0
100,79,108,2,95,7,3,7,12,0,1,1
101,78,110,1,80,6,-1,7,11,11,-1,0
102,76,111,1,80,4,-2,7,9,9,-1,-1
103,74,112,1,105,2,-2,7,7,7,-1,-2
104,76,113,1,80,4,2,7,9,9,1,-1
105,78,114,1,80,6,2,7,11,11,1,0
106,79,115,1,80,7,1,7,12,0,1,1
107,81,116,1,95,9,2,7,14,2,1,2
108,78,117,1,80,6,-3,7,11,11,-1,1
109,83,118,1,80,11,5,7,16,4,1,2
110,78,119,1,80,6,-5,7,11,11,-1,1
111,81,120,1,105,9,3,7,14,2,1,2
112,78,121,1,80,6,-3,7,11,11,-1,1
113,76,122,1,80,4,-2,7,9,9,-1,0
114,79,123,1,80,7,3,7,12,0,1,1
115,78,124,1,95,6,-1,7,11,11,-1,0
116,74,125,1,80,2,-4,7,7,7,-1,-1
117,74,126,1,80,2,0,7,7,7,0,-1
118,76,127,1,80,4,2,7,9,9,1,0
119,78,128,2,105,6,2,7,11,11,1,1
120,74,130,1,80,2,-4,7,7,7,-1,0
121,76,131,1,80,4,2,7,9,9,1,1
122,78,132,1,95,6,2,7,11,11,1,2
123,74,133,1,80,2,-4,7,7,7,-1,1
124,79,134,1,80,7,5,7,12,0,1,2
125,78,135,1,80,6,-1,7,11,11,-1,1
126,76,136,1,105,4,-2,7,9,9,-1,0
127,69,137,1,80,9,-7,7,2,2,-1,-1
128,73,138,1,80,1,4,7,6,6,1,0
129,76,139,1,80,4,3,7,9,9,1,1
130,79,140,1,95,7,3,7,12,0,1,2
131,83,141,1,80,11,4,7,16,4,1,3
132,81,142,1,80,9,-2,7,14,2,-1,2
133,79,143,1,80,7,-2,7,12,0,-1,1
134,78,144,2,105,6,-1,7,11,11,-1,0
135,74,146,1,80,2,-4,7,7,7,-1,-1
136,76,147,1,80,4,2,7,9,9,1,0
137,78,148,1,95,6,2,7,11,11,1,1
138,74,149,1,80,2,-4,7,7,7,-1,0
139,79,150,1,80,7,5,7,12,0,1,1
140,76,151,1,80,4,-3,7,9,9,-1,0
141,78,152,1,105,6,2,7,11,11,1,1
142,74,153,1,80,2,-4,7,7,7,-1,0
143,76,154,1,80,4,2,7,9,9,1,1
144,73,155,1,80,1,-3,7,6,6,-1,0
145,69,156,1,95,9,-4,7,2,2,-1,-1
146,74,157,1,80,2,5,7,7,7,1,0
147,74,158,1,80,2,0,7,7,7,0,0
148,76,159,1,80,4,2,7,9,9,1,1
149,78,160,2,105,6,2,7,11,11,1,2
150,74,162,1,80,2,-4,7,7,7,-1,1
151,76,163,1,80,4,2,7,9,9,1,2
152,78,164,1,95,6,2,7,11,11,1,3
153,74,165,1,80,2,-4,7,7,7,-1,2
154,79,166,1,80,7,5,7,12,0,1,3
155,78,167,1,80,6,-1,7,11,11,-1,2
156,76,168,1,105,4,-2,7,9,9,-1,1
157,69,169,1,80,9,-7,7,2,2,-1,0
158,73,170,1,80,1,4,7,6,6,1,1
159,76,171,1,80,4,3,7,9,9,1,2
160,79,172,2,95,7,3,7,12,0,1,3
161,78,174,1,80,6,-1,7,11,11,-1,2
162,79,175,1,80,7,1,7,12,0,1,3
163,81,176,0,105,9,2,7,14,2,1,4
164,79,176,0,80,7,-2,7,12,0,-1,3
165,78,177,0,80,6,-1,7,11,11,-1,2
166,79,178,1,80,7,1,7,12,0,1,3
167,76,179,1,80,4,-3,7,9,9,-1,2
168,74,180,1,95,2,-2,7,7,7,-1,1
169,78,181,1,80,6,4,7,11,11,1,2
170,76,182,1,80,4,-2,7,9,9,-1,1
171,74,183,1,80,2,-2,7,7,7,-1,0
172,72,184,1,105,0,-2,7,5,5,-1,-1
173,69,185,1,80,9,-3,7,2,2,-1,-2
174,67,186,1,80,7,-2,7,0,0,-1,-3
175,64,187,1,80,4,-3,7,-3,9,-1,-4
176,64,188,1,95,4,0,7,-3,9,0,-4
177,62,189,1,80,2,-2,7,-5,7,-1,-5
178,62,190,2,80,2,0,7,-5,7,0,-5
179,38,0,1,80,2,-24,7,-29,7,-1,-6
180,50,2,1,75,2,12,7,-17,7,1,-5
181,38,4,1,80,2,-12,7,-29,7,-1,-6
182,50,6,1,75,2,12,7,-17,7,1,-5
183,38,8,1,80,2,-12,7,-29,7,-1,-6
184,50,10,1,75,2,12,7,-17,7,1,-5
185,38,12,1,80,2,-12,7,-29,7,-1,-6
186,50,14,1,75,2,12,7,-17,7,1,-5
187,38,16,1,80,2,-12,7,-29,7,-1,-6
188,50,18,1,75,2,12,7,-17,7,1,-5
189,38,20,1,80,2,-12,7,-29,7,-1,-6
190,50,22,1,75,2,12,7,-17,7,1,-5
191,38,24,1,80,2,-12,7,-29,7,-1,-6
192,50,26,1,75,2,12,7,-17,7,1,-5
193,38,28,1,80,2,-12,7,-29,7,-1,-6
194,50,30,1,75,2,12,7,-17,7,1,-5
195,38,32,1,80,2,-12,7,-29,7,-1,-6
196,50,34,1,75,2,12,7,-17,7,1,-5
197,38,36,1,80,2,-12,7,-29,7,-1,-6
198,50,38,1,75,2,12,7,-17,7,1,-5
199,38,40,1,80,2,-12,7,-29,7,-1,-6
200,50,42,1,75,2,12,7,-17,7,1,-5
201,38,44,1,80,2,-12,7,-29,7,-1,-6
202,50,46,1,75,2,12,7,-17,7,1,-5
203,38,48,1,80,2,-12,7,-29,7,-1,-6
204,50,50,1,75,2,12,7,-17,7,1,-5
205,38,52,1,80,2,-12,7,-29,7,-1,-6
206,50,54,1,75,2,12,7,-17,7,1,-5
207,38,56,1,80,2,-12,7,-29,7,-1,-6
208,50,58,1,75,2,12,7,-17,7,1,-5
209,38,60,1,80,2,-12,7,-29,7,-1,-6
210,50,62,1,75,2,12,7,-17,7,1,-5
211,38,64,1,80,2,-12,7,-29,7,-1,-6
212,50,66,1,75,2,12,7,-17,7,1,-5
213,38,68,1,80,2,-12,7,-29,7,-1,-6
214,50,70,1,75,2,12,7,-17,7,1,-5
215,38,72,1,80,2,-12,7,-29,7,-1,-6
216,50,74,1,75,2,12,7,-17,7,1,-5
217,38,76,1,80,2,-12,7,-29,7,-1,-6
218,50,78,1,75,2,12,7,-17,7,1,-5
219,38,80,1,80,2,-12,7,-29,7,-1,-6
220,50,82,1,75,2,12,7,-17,7,1,-5
221,38,84,1,80,2,-12,7,-29,7,-1,-6
222,50,86,1,75,2,12,7,-17,7,1,-5
223,38,88,1,80,2,-12,7,-29,7,-1,-6
224,50,90,1,75,2,12,7,-17,7,1,-5
225,38,92,1,80,2,-12,7,-29,7,-1,-6
226,50,94,1,75,2,12,7,-17,7,1,-5
227,38,96,1,80,2,-12,7,-29,7,-1,-6
228,50,98,1,75,2,12,7,-17,7,1,-5
229,38,100,1,80,2,-12,7,-29,7,-1,-6
230,50,102,1,75,2,12,7,-17,7,1,-5
231,38,104,1,80,2,-12,7,-29,7,-1,-6
232,50,106,1,75,2,12,7,-17,7,1,-5
233,38,108,1,80,2,-12,7,-29,7,-1,-6
234,50,110,1,75,2,12,7,-17,7,1,-5
235,38,112,1,80,2,-12,7,-29,7,-1,-6
236,50,114,1,75,2,12,7,-17,7,1,-5
237,38,116,1,80,2,-12,7,-29,7,-1,-6
238,50,118,1,75,2,12,7,-17,7,1,-5
239,38,120,1,80,2,-12,7,-29,7,-1,-6
240,50,122,1,75,2,12,7,-17,7,1,-5
241,38,124,1,80,2,-12,7,-29,7,-1,-6
242,50,126,1,75,2,12,7,-17,7,1,-5
243,38,128,1,80,2,-12,7,-29,7,-1,-6
244,50,130,1,75,2,12,7,-17,7,1,-5
245,38,132,1,80,2,-12,7,-29,7,-1,-6
246,50,134,1,75,2,12,7,-17,7,1,-5
247,38,136,1,80,2,-12,7,-29,7,-1,-6
248,50,138,1,75,2,12,7,-17,7,1,-5
249,38,140,1,80,2,-12,7,-29,7,-1,-6
250,50,142,1,75,2,12,7,-17,7,1,-5
251,38,144,1,80,2,-12,7,-29,7,-1,-6
252,50,146,1,75,2,12,7,-17,7,1,-5
253,38,148,1,80,2,-12,7,-29,7,-1,-6
254,50,150,1,75,2,12,7,-17,7,1,-5
255,38,152,1,80,2,-12,7,-29,7,-1,-6
256,50,154,1,75,2,12,7,-17,7,1,-5
257,38,156,1,80,2,-12,7,-29,7,-1,-6
258,50,158,1,75,2,12,7,-17,7,1,-5
259,38,160,1,80,2,-12,7,-29,7,-1,-6
260,50,162,1,75,2,12,7,-17,7,1,-5
261,38,164,1,80,2,-12,7,-29,7,-1,-6
262,50,166,1,75,2,12,7,-17,7,1,-5
263,38,168,1,80,2,-12,7,-29,7,-1,-6
264,50,170,1,75,2,12,7,-17,7,1,-5
265,38,172,1,80,2,-12,7,-29,7,-1,-6
266,50,174,1,75,2,12,7,-17,7,1,-5
267,38,176,1,80,2,-12,7,-29,7,-1,-6
268,50,178,1,75,2,12,7,-17,7,1,-5
269,38,180,1,80,2,-12,7,-29,7,-1,-6
270,50,182,1,75,2,12,7,-17,7,1,-5
271,38,184,1,80,2,-12,7,-29,7,-1,-6
272,50,186,1,75,2,12,7,-17,7,1,-5
273,38,188,1,80,2,-12,7,-29,7,-1,-6
274,50,190,1,75,2,12,7,-17,7,1,-5
