,midi_note,onset,duration,velocity,pitch_class,interval,root,relative_pitch,relative_pitch_class,parsons_code,parsons_cumsum
0,78,0,1,105,6,0,2,16,4,0,0
1,76,1,0,80,4,-2,2,14,2,-1,-1
2,74,2,1,105,2,-2,2,12,0,-1,-2
3,69,3,0,80,9,-5,2,7,7,-1,-3
4,66,4,1,80,6,-3,2,4,4,-1,-4
5,69,5,0,80,9,3,2,7,7,1,-3
6,74,6,1,95,2,5,2,12,0,1,-2
7,69,7,0,80,9,-5,2,7,7,-1,-3
8,62,8,1,80,2,-7,2,0,0,-1,-4
9,69,9,0,80,9,7,2,7,7,1,-3
10,74,10,1,105,2,5,2,12,0,1,-2
11,73,11,0,80,1,-1,2,11,11,-1,-3
12,74,12,1,80,2,1,2,12,0,1,-2
13,76,13,0,80,4,2,2,14,2,1,-1
14,78,14,1,95,6,2,2,16,4,1,0
15,76,15,0,80,4,-2,2,14,2,-1,-1
16,78,16,1,80,6,2,2,16,4,1,0
17,79,17,0,80,7,1,2,17,5,1,1
18,81,18,2,105,9,2,2,19,7,1,2
19,79,20,1,80,7,-2,2,17,5,-1,1
20,78,21,0,80,6,-1,2,16,4,-1,0
21,79,22,2,95,7,1,2,17,5,1,1
22,78,24,1,80,6,-1,2,16,4,-1,0
23,76,25,0,80,4,-2,2,14,2,-1,-1
24,78,26,2,105,6,2,2,16,4,1,0
25,76,28,1,80,4,-2,2,14,2,-1,-1
26,74,29,0,80,2,-2,2,12,0,-1,-2
27,76,30,1,95,4,2,2,14,2,1,-1
28,79,31,0,80,7,3,2,17,5,1,0
29,78,32,1,80,6,-1,2,16,4,-1,-1
30,76,33,0,80,4,-2,2,14,2,-1,-2
31,74,34,1,105,2,-2,2,12,0,-1,-3
32,69,35,0,80,9,-5,2,7,7,-1,-4
33,66,36,1,80,6,-3,2,4,4,-1,-5
34,69,37,0,80,9,3,2,7,7,1,-4
35,74,38,1,95,2,5,2,12,0,1,-3
36,69,39,0,80,9,-5,2,7,7,-1,-4
37,62,40,1,80,2,-7,2,0,0,-1,-5
38,69,41,0,80,9,7,2,7,7,1,-4
39,74,42,1,105,2,5,2,12,0,1,-3
40,73,43,0,80,1,-1,2,11,11,-1,-4
41,74,44,1,80,2,1,2,12,0,1,-3
42,76,45,0,80,4,2,2,14,2,1,-2
43,78,46,1,95,6,2,2,16,4,1,-1
44,76,47,0,80,4,-2,2,14,2,-1,-2
45,78,48,1,80,6,2,2,16,4,1,-1
46,79,49,0,80,7,1,2,17,5,1,0
47,81,50,1,105,9,2,2,19,7,1,1
48,78,51,0,80,6,-3,2,16,4,-1,0
49,79,52,1,80,7,1,2,17,5,1,1
50,76,53,0,80,4,-3,2,14,2,-1,0
51,78,54,1,95,6,2,2,16,4,1,1
52,74,55,0,80,2,-4,2,12,0,-1,0
53,76,56,1,80,4,2,2,14,2,1,1
54,73,57,0,80,1,-3,2,11,11,-1,0
55,74,58,1,105,2,1,2,12,0,1,1
56,78,59,0,80,6,4,2,16,4,1,2
57,76,60,1,80,4,-2,2,14,2,-1,1
58,73,61,0,80,1,-3,2,11,11,-1,0
59,74,62,2,95,2,1,2,12,0,1,1
60,78,64,1,80,6,4,2,16,4,1,2
61,76,65,0,80,4,-2,2,14,2,-1,1
62,74,66,1,105,2,-2,2,12,0,-1,0
63,69,67,0,80,9,-5,2,7,7,-1,-1
64,66,68,1,80,6,-3,2,4,4,-1,-2
65,69,69,0,80,9,3,2,7,7,1,-1
66,74,70,1,95,2,5,2,12,0,1,0
67,69,71,0,80,9,-5,2,7,7,-1,-1
68,62,72,1,80,2,-7,2,0,0,-1,-2
69,69,73,0,80,9,7,2,7,7,1,-1
70,74,74,1,105,2,5,2,12,0,1,0
71,73,75,0,80,1,-1,2,11,11,-1,-1
72,74,76,1,80,2,1,2,12,0,1,0
73,76,77,0,80,4,2,2,14,2,1,1
74,78,78,1,95,6,2,2,16,4,1,2
75,76,79,0,80,4,-2,2,14,2,-1,1
76,78,80,1,80,6,2,2,16,4,1,2
77,79,81,0,80,7,1,2,17,5,1,3
78,81,82,2,105,9,2,2,19,7,1,4
79,79,84,1,80,7,-2,2,17,5,-1,3
80,78,85,0,80,6,-1,2,16,4,-1,2
81,79,86,2,95,7,1,2,17,5,1,3
82,78,88,1,80,6,-1,2,16,4,-1,2
83,76,89,0,80,4,-2,2,14,2,-1,1
84,78,90,2,105,6,2,2,16,4,1,2
85,76,92,1,80,4,-2,2,14,2,-1,1
86,74,93,0,80,2,-2,2,12,0,-1,0
87,76,94,1,95,4,2,2,14,2,1,1
88,79,95,0,80,7,3,2,17,5,1,2
89,78,96,1,80,6,-1,2,16,4,-1,1
90,76,97,0,80,4,-2,2,14,2,-1,0
91,74,98,1,105,2,-2,2,12,0,-1,-1
92,69,99,0,80,9,-5,2,7,7,-1,-2
93,66,100,1,80,6,-3,2,4,4,-1,-3
94,69,101,0,80,9,3,2,7,7,1,-2
95,74,102,1,95,2,5,2,12,0,1,-1
96,69,103,0,80,9,-5,2,7,7,-1,-2
97,62,104,1,80,2,-7,2,0,0,-1,-3
98,69,105,0,80,9,7,2,7,7,1,-2
99,74,106,1,105,2,5,2,12,0,1,-1
100,73,107,0,80,1,-1,2,11,11,-1,-2
101,74,108,1,80,2,1,2,12,0,1,-1
102,76,109,0,80,4,2,2,14,2,1,0
103,78,110,1,95,6,2,2,16,4,1,1
104,76,111,0,80,4,-2,2,14,2,-1,0
105,78,112,1,80,6,2,2,16,4,1,1
106,79,113,0,80,7,1,2,17,5,1,2
107,81,114,1,105,9,2,2,19,7,1,3
108,78,115,0,80,6,-3,2,16,4,-1,2
109,79,116,1,80,7,1,2,17,5,1,3
110,76,117,0,80,4,-3,2,14,2,-1,2
111,78,118,1,95,6,2,2,16,4,1,3
112,74,119,0,80,2,-4,2,12,0,-1,2
113,76,120,1,80,4,2,2,14,2,1,3
114,73,121,0,80,1,-3,2,11,11,-1,2
115,74,122,1,105,2,1,2,12,0,1,3
116,78,123,0,80,6,4,2,16,4,1,4
117,76,124,1,80,4,-2,2,14,2,-1,3
118,73,125,0,80,1,-3,2,11,11,-1,2
119,74,126,2,95,2,1,2,12,0,1,3
120,78,128,1,80,6,4,2,16,4,1,4
121,79,129,0,80,7,1,2,17,5,1,5
122,81,130,2,105,9,2,2,19,7,1,6
123,79,132,1,80,7,-2,2,17,5,-1,5
124,78,133,0,80,6,-1,2,16,4,-1,4
125,79,134,2,95,7,1,2,17,5,1,5
126,78,136,1,80,6,-1,2,16,4,-1,4
127,76,137,0,80,4,-2,2,14,2,-1,3
128,78,138,2,105,6,2,2,16,4,1,4
129,76,140,1,80,4,-2,2,14,2,-1,3
130,74,141,0,80,2,-2,2,12,0,-1,2
131,76,142,1,95,4,2,2,14,2,1,3
132,78,143,0,80,6,2,2,16,4,1,4
133,79,144,1,80,7,1,2,17,5,1,5
134,76,145,0,80,4,-3,2,14,2,-1,4
135,74,146,1,105,2,-2,2,12,0,-1,3
136,78,147,0,80,6,4,2,16,4,1,4
137,78,148,1,80,6,0,2,16,4,0,4
138,81,149,0,80,9,3,2,19,7,1,5
139,81,150,1,95,9,0,2,19,7,0,5
140,79,151,0,80,7,-2,2,17,5,-1,4
141,79,152,1,80,7,0,2,17,5,0,4
142,76,153,0,80,4,-3,2,14,2,-1,3
143,78,154,1,105,6,2,2,16,4,1,4
144,78,155,0,80,6,0,2,16,4,0,4
145,78,156,0,80,6,0,2,16,4,0,4
146,76,156,0,80,4,-2,2,14,2,-1,3
147,74,157,0,80,2,-2,2,12,0,-1,2
148,76,158,1,95,4,2,2,14,2,1,3
149,78,159,0,80,6,2,2,16,4,1,4
150,79,160,1,80,7,1,2,17,5,1,5
151,83,161,0,80,11,4,2,21,9,1,6
152,81,162,2,105,9,-2,2,19,7,-1,5
153,79,164,1,80,7,-2,2,17,5,-1,4
154,78,165,0,80,6,-1,2,16,4,-1,3
155,79,166,2,95,7,1,2,17,5,1,4
156,78,168,1,80,6,-1,2,16,4,-1,3
157,76,169,0,80,4,-2,2,14,2,-1,2
158,78,170,2,105,6,2,2,16,4,1,3
159,76,172,1,80,4,-2,2,14,2,-1,2
160,74,173,0,80,2,-2,2,12,0,-1,1
161,76,174,1,95,4,2,2,14,2,1,2
162,79,175,0,80,7,3,2,17,5,1,3
163,78,176,1,80,6,-1,2,16,4,-1,2
164,76,177,0,80,4,-2,2,14,2,-1,1
165,74,178,1,105,2,-2,2,12,0,-1,0
166,78,179,0,80,6,4,2,16,4,1,1
167,78,180,1,80,6,0,2,16,4,0,1
168,81,181,0,80,9,3,2,19,7,1,2
169,79,182,1,95,7,-2,2,17,5,-1,1
170,78,183,0,80,6,-1,2,16,4,-1,0
171,79,184,1,80,7,1,2,17,5,1,1
172,76,185,0,80,4,-3,2,14,2,-1,0
173,74,186,1,105,2,-2,2,12,0,-1,-1
174,78,187,0,80,6,4,2,16,4,1,0
175,76,188,1,80,4,-2,2,14,2,-1,-1
176,73,189,0,80,1,-3,2,11,11,-1,-2
177,74,190,2,95,2,1,2,12,0,1,-1
178,78,192,1,80,6,4,2,16,4,1,0
179,79,193,0,80,7,1,2,17,5,1,1
180,81,194,2,105,9,2,2,19,7,1,2
181,79,196,1,80,7,-2,2,17,5,-1,1
182,78,197,0,80,6,-1,2,16,4,-1,0
183,79,198,2,95,7,1,2,17,5,1,1
184,78,200,1,80,6,-1,2,16,4,-1,0
185,76,201,0,80,4,-2,2,14,2,-1,-1
186,78,202,2,105,6,2,2,16,4,1,0
187,76,204,1,80,4,-2,2,14,2,-1,-1
188,74,205,0,80,2,-2,2,12,0,-1,-2
189,76,206,1,95,4,2,2,14,2,1,-1
190,78,207,0,80,6,2,2,16,4,1,0
191,79,208,1,80,7,1,2,17,5,1,1
192,76,209,0,80,4,-3,2,14,2,-1,0
193,74,210,1,105,2,-2,2,12,0,-1,-1
194,78,211,0,80,6,4,2,16,4,1,0
195,78,212,1,80,6,0,2,16,4,0,0
196,81,213,0,80,9,3,2,19,7,1,1
197,81,214,1,95,9,0,2,19,7,0,1
198,79,215,0,80,7,-2,2,17,5,-1,0
199,79,216,1,80,7,0,2,17,5,0,0
200,76,217,0,80,4,-3,2,14,2,-1,-1
201,78,218,1,105,6,2,2,16,4,1,0
202,78,219,0,80,6,0,2,16,4,0,0
203,78,220,0,80,6,0,2,16,4,0,0
204,76,220,0,80,4,-2,2,14,2,-1,-1
205,74,221,0,80,2,-2,2,12,0,-1,-2
206,76,222,1,95,4,2,2,14,2,1,-1
207,78,223,0,80,6,2,2,16,4,1,0
208,79,224,1,80,7,1,2,17,5,1,1
209,83,225,0,80,11,4,2,21,9,1,2
210,81,226,2,105,9,-2,2,19,7,-1,1
211,79,228,1,80,7,-2,2,17,5,-1,0
212,78,229,0,80,6,-1,2,16,4,-1,-1
213,79,230,2,95,7,1,2,17,5,1,0
214,78,232,1,80,6,-1,2,16,4,-1,-1
215,76,233,0,80,4,-2,2,14,2,-1,-2
216,78,234,2,105,6,2,2,16,4,1,-1
217,76,236,1,80,4,-2,2,14,2,-1,-2
218,74,237,0,80,2,-2,2,12,0,-1,-3
219,76,238,1,95,4,2,2,14,2,1,-2
220,79,239,0,80,7,3,2,17,5,1,-1
221,78,240,1,80,6,-1,2,16,4,-1,-2
222,76,241,0,80,4,-2,2,14,2,-1,-3
223,74,242,1,105,2,-2,2,12,0,-1,-4
224,78,243,0,80,6,4,2,16,4,1,-3
225,78,244,1,80,6,0,2,16,4,0,-3
226,81,245,0,80,9,3,2,19,7,1,-2
227,79,246,1,95,7,-2,2,17,5,-1,-3
228,78,247,0,80,6,-1,2,16,4,-1,-4
229,79,248,1,80,7,1,2,17,5,1,-3
230,76,249,0,80,4,-3,2,14,2,-1,-4
231,74,250,1,105,2,-2,2,12,0,-1,-5
232,78,251,0,80,6,4,2,16,4,1,-4
233,76,252,1,80,4,-2,2,14,2,-1,-5
234,73,253,0,80,1,-3,2,11,11,-1,-6
235,74,254,2,95,2,1,2,12,0,1,-5
