,midi_note,onset,duration,velocity,pitch_class,interval,root,relative_pitch,relative_pitch_class,parsons_code,parsons_cumsum
0,69,0,1,105,9,0,7,2,2,0,0
1,71,1,1,80,11,2,7,4,4,1,1
2,72,2,1,80,0,1,7,5,5,1,2
3,69,3,1,80,9,-3,7,2,2,-1,1
4,74,4,2,95,2,5,7,7,7,1,2
5,72,6,1,80,0,-2,7,5,5,-1,1
6,69,7,1,80,9,-3,7,2,2,-1,0
7,71,8,1,105,11,2,7,4,4,1,1
8,67,9,1,80,7,-4,7,0,0,-1,0
9,67,10,2,80,7,0,7,0,0,0,0
10,74,12,1,95,2,7,7,7,7,1,1
11,72,13,1,80,0,-2,7,5,5,-1,0
12,69,14,2,80,9,-3,7,2,2,-1,-1
13,69,16,1,105,9,0,7,2,2,0,-1
14,71,17,1,80,11,2,7,4,4,1,0
15,72,18,1,80,0,1,7,5,5,1,1
16,69,19,1,80,9,-3,7,2,2,-1,0
17,74,20,1,95,2,5,7,7,7,1,1
18,72,21,1,80,0,-2,7,5,5,-1,0
19,69,22,2,80,9,-3,7,2,2,-1,-1
20,74,24,2,105,2,5,7,7,7,1,0
21,72,26,1,80,0,-2,7,5,5,-1,-1
22,69,27,1,80,9,-3,7,2,2,-1,-2
23,71,28,1,95,11,2,7,4,4,1,-1
24,67,29,1,80,7,-4,7,0,0,-1,-2
25,67,30,2,80,7,0,7,0,0,0,-2
26,69,32,1,105,9,2,7,2,2,1,-1
27,71,33,1,80,11,2,7,4,4,1,0
28,72,34,1,80,0,1,7,5,5,1,1
29,69,35,1,80,9,-3,7,2,2,-1,0
30,74,36,2,95,2,5,7,7,7,1,1
31,72,38,1,80,0,-2,7,5,5,-1,0
32,69,39,1,80,9,-3,7,2,2,-1,-1
33,71,40,1,105,11,2,7,4,4,1,0
34,67,41,1,80,7,-4,7,0,0,-1,-1
35,67,42,2,80,7,0,7,0,0,0,-1
36,74,44,2,95,2,7,7,7,7,1,0
37,72,46,1,80,0,-2,7,5,5,-1,-1
38,69,47,1,80,9,-3,7,2,2,-1,-2
39,67,48,1,105,7,-2,7,0,0,-1,-3
40,71,49,1,80,11,4,7,4,4,1,-2
41,72,50,0,80,0,1,7,5,5,1,-1
42,71,50,1,80,11,-1,7,4,4,-1,-2
43,67,52,1,95,7,-4,7,0,0,-1,-3
44,72,53,1,80,0,5,7,5,5,1,-2
45,74,54,0,80,2,2,7,7,7,1,-1
46,72,54,1,80,0,-2,7,5,5,-1,-2
47,72,56,1,105,0,0,7,5,5,0,-2
48,71,57,1,80,11,-1,7,4,4,-1,-3
49,69,58,1,80,9,-2,7,2,2,-1,-4
50,72,59,1,80,0,3,7,5,5,1,-3
51,71,60,1,95,11,-1,7,4,4,-1,-4
52,67,61,1,80,7,-4,7,0,0,-1,-5
53,67,62,2,80,7,0,7,0,0,0,-5
54,69,64,1,105,9,2,7,2,2,1,-4
55,71,65,1,80,11,2,7,4,4,1,-3
56,72,66,1,80,0,1,7,5,5,1,-2
57,69,67,1,80,9,-3,7,2,2,-1,-3
58,74,68,2,95,2,5,7,7,7,1,-2
59,72,70,1,80,0,-2,7,5,5,-1,-3
60,69,71,1,80,9,-3,7,2,2,-1,-4
61,71,72,1,105,11,2,7,4,4,1,-3
62,67,73,1,80,7,-4,7,0,0,-1,-4
63,67,74,2,80,7,0,7,0,0,0,-4
64,74,76,1,95,2,7,7,7,7,1,-3
65,72,77,1,80,0,-2,7,5,5,-1,-4
66,69,78,2,80,9,-3,7,2,2,-1,-5
67,69,80,1,105,9,0,7,2,2,0,-5
68,71,81,1,80,11,2,7,4,4,1,-4
69,72,82,1,80,0,1,7,5,5,1,-3
70,69,83,1,80,9,-3,7,2,2,-1,-4
71,74,84,1,95,2,5,7,7,7,1,-3
72,72,85,1,80,0,-2,7,5,5,-1,-4
73,69,86,2,80,9,-3,7,2,2,-1,-5
74,74,88,2,105,2,5,7,7,7,1,-4
75,72,90,1,80,0,-2,7,5,5,-1,-5
76,69,91,1,80,9,-3,7,2,2,-1,-6
77,71,92,1,95,11,2,7,4,4,1,-5
78,67,93,1,80,7,-4,7,0,0,-1,-6
79,67,94,2,80,7,0,7,0,0,0,-6
80,69,96,1,105,9,2,7,2,2,1,-5
81,71,97,1,80,11,2,7,4,4,1,-4
82,72,98,1,80,0,1,7,5,5,1,-3
83,69,99,1,80,9,-3,7,2,2,-1,-4
84,74,100,2,95,2,5,7,7,7,1,-3
85,72,102,1,80,0,-2,7,5,5,-1,-4
86,69,103,1,80,9,-3,7,2,2,-1,-5
87,71,104,1,105,11,2,7,4,4,1,-4
88,67,105,1,80,7,-4,7,0,0,-1,-5
89,67,106,2,80,7,0,7,0,0,0,-5
90,74,108,2,95,2,7,7,7,7,1,-4
91,72,110,1,80,0,-2,7,5,5,-1,-5
92,69,111,1,80,9,-3,7,2,2,-1,-6
93,67,112,1,105,7,-2,7,0,0,-1,-7
94,71,113,1,80,11,4,7,4,4,1,-6
95,72,114,0,80,0,1,7,5,5,1,-5
96,71,114,1,80,11,-1,7,4,4,-1,-6
97,67,116,1,95,7,-4,7,0,0,-1,-7
98,72,117,1,80,0,5,7,5,5,1,-6
99,74,118,0,80,2,2,7,7,7,1,-5
100,72,118,1,80,0,-2,7,5,5,-1,-6
101,72,120,1,105,0,0,7,5,5,0,-6
102,71,121,1,80,11,-1,7,4,4,-1,-7
103,69,122,1,80,9,-2,7,2,2,-1,-8
104,72,123,1,80,0,3,7,5,5,1,-7
105,71,124,1,95,11,-1,7,4,4,-1,-8
106,67,125,1,80,7,-4,7,0,0,-1,-9
107,67,126,2,80,7,0,7,0,0,0,-9
108,78,128,1,105,6,11,7,11,11,1,-8
109,79,129,1,80,7,1,7,12,0,1,-7
110,81,130,1,80,9,2,7,14,2,1,-6
111,78,131,1,80,6,-3,7,11,11,-1,-7
112,79,132,2,95,7,1,7,12,0,1,-6
113,78,134,1,80,6,-1,7,11,11,-1,-7
114,76,135,1,80,4,-2,7,9,9,-1,-8
115,74,136,1,105,2,-2,7,7,7,-1,-9
116,72,137,1,80,0,-2,7,5,5,-1,-10
117,69,138,1,80,9,-3,7,2,2,-1,-11
118,72,139,1,80,0,3,7,5,5,1,-10
119,74,140,2,95,2,2,7,7,7,1,-9
120,74,142,1,80,2,0,7,7,7,0,-9
121,76,143,1,80,4,2,7,9,9,1,-8
122,78,144,1,105,6,2,7,11,11,1,-7
123,79,145,1,80,7,1,7,12,0,1,-6
124,81,146,1,80,9,2,7,14,2,1,-5
125,78,147,1,80,6,-3,7,11,11,-1,-6
126,79,148,2,95,7,1,7,12,0,1,-5
127,78,150,1,80,6,-1,7,11,11,-1,-6
128,76,151,1,80,4,-2,7,9,9,-1,-7
129,74,152,1,105,2,-2,7,7,7,-1,-8
130,72,153,1,80,0,-2,7,5,5,-1,-9
131,69,154,1,80,9,-3,7,2,2,-1,-10
132,72,155,1,80,0,3,7,5,5,1,-9
133,71,156,1,95,11,-1,7,4,4,-1,-10
134,67,157,1,80,7,-4,7,0,0,-1,-11
135,67,158,2,80,7,0,7,0,0,0,-11
136,78,160,1,105,6,11,7,11,11,1,-10
137,79,161,1,80,7,1,7,12,0,1,-9
138,81,162,1,80,9,2,7,14,2,1,-8
139,78,163,1,80,6,-3,7,11,11,-1,-9
140,79,164,2,95,7,1,7,12,0,1,-8
141,78,166,1,80,6,-1,7,11,11,-1,-9
142,76,167,1,80,4,-2,7,9,9,-1,-10
143,74,168,1,105,2,-2,7,7,7,-1,-11
144,72,169,1,80,0,-2,7,5,5,-1,-12
145,69,170,1,80,9,-3,7,2,2,-1,-13
146,72,171,1,80,0,3,7,5,5,1,-12
147,74,172,2,95,2,2,7,7,7,1,-11
148,74,174,1,80,2,0,7,7,7,0,-11
149,76,175,1,80,4,2,7,9,9,1,-10
150,78,176,2,105,6,2,7,11,11,1,-9
151,79,178,0,80,7,1,7,12,0,1,-8
152,78,178,1,80,6,-1,7,11,11,-1,-9
153,79,180,2,95,7,1,7,12,0,1,-8
154,81,182,0,80,9,2,7,14,2,1,-7
155,79,182,1,80,7,-2,7,12,0,-1,-8
156,81,184,2,105,9,2,7,14,2,1,-7
157,81,186,1,80,9,0,7,14,2,0,-7
158,79,187,1,80,7,-2,7,12,0,-1,-8
159,78,188,1,95,6,-1,7,11,11,-1,-9
160,74,189,1,80,2,-4,7,7,7,-1,-10
161,72,190,1,80,0,-2,7,5,5,-1,-11
162,69,191,1,80,9,-3,7,2,2,-1,-12
163,78,192,1,105,6,9,7,11,11,1,-11
164,79,193,1,80,7,1,7,12,0,1,-10
165,81,194,1,80,9,2,7,14,2,1,-9
166,78,195,1,80,6,-3,7,11,11,-1,-10
167,79,196,2,95,7,1,7,12,0,1,-9
168,78,198,1,80,6,-1,7,11,11,-1,-10
169,76,199,1,80,4,-2,7,9,9,-1,-11
170,74,200,1,105,2,-2,7,7,7,-1,-12
171,72,201,1,80,0,-2,7,5,5,-1,-13
172,69,202,1,80,9,-3,7,2,2,-1,-14
173,72,203,1,80,0,3,7,5,5,1,-13
174,74,204,2,95,2,2,7,7,7,1,-12
175,74,206,1,80,2,0,7,7,7,0,-12
176,76,207,1,80,4,2,7,9,9,1,-11
177,78,208,1,105,6,2,7,11,11,1,-10
178,79,209,1,80,7,1,7,12,0,1,-9
179,81,210,1,80,9,2,7,14,2,1,-8
180,78,211,1,80,6,-3,7,11,11,-1,-9
181,79,212,2,95,7,1,7,12,0,1,-8
182,78,214,1,80,6,-1,7,11,11,-1,-9
183,76,215,1,80,4,-2,7,9,9,-1,-10
184,74,216,1,105,2,-2,7,7,7,-1,-11
185,72,217,1,80,0,-2,7,5,5,-1,-12
186,69,218,1,80,9,-3,7,2,2,-1,-13
187,72,219,1,80,0,3,7,5,5,1,-12
188,71,220,1,95,11,-1,7,4,4,-1,-13
189,67,221,1,80,7,-4,7,0,0,-1,-14
190,67,222,2,80,7,0,7,0,0,0,-14
191,78,224,1,105,6,11,7,11,11,1,-13
192,79,225,1,80,7,1,7,12,0,1,-12
193,81,226,1,80,9,2,7,14,2,1,-11
194,78,227,1,80,6,-3,7,11,11,-1,-12
195,79,228,2,95,7,1,7,12,0,1,-11
196,78,230,1,80,6,-1,7,11,11,-1,-12
197,76,231,1,80,4,-2,7,9,9,-1,-13
198,74,232,1,105,2,-2,7,7,7,-1,-14
199,72,233,1,80,0,-2,7,5,5,-1,-15
200,69,234,1,80,9,-3,7,2,2,-1,-16
201,72,235,1,80,0,3,7,5,5,1,-15
202,74,236,2,95,2,2,7,7,7,1,-14
203,74,238,1,80,2,0,7,7,7,0,-14
204,76,239,1,80,4,2,7,9,9,1,-13
205,78,240,2,105,6,2,7,11,11,1,-12
206,79,242,0,80,7,1,7,12,0,1,-11
207,78,242,1,80,6,-1,7,11,11,-1,-12
208,79,244,2,95,7,1,7,12,0,1,-11
209,81,246,0,80,9,2,7,14,2,1,-10
210,79,246,1,80,7,-2,7,12,0,-1,-11
211,81,248,2,105,9,2,7,14,2,1,-10
212,81,250,1,80,9,0,7,14,2,0,-10
213,79,251,1,80,7,-2,7,12,0,-1,-11
214,78,252,1,95,6,-1,7,11,11,-1,-12
215,74,253,1,80,2,-4,7,7,7,-1,-13
216,72,254,1,80,0,-2,7,5,5,-1,-14
217,69,255,1,80,9,-3,7,2,2,-1,-15
218,67,256,8,105,7,-2,7,0,0,-1,-16
