,midi_note,onset,duration,velocity,pitch_class,interval,root,relative_pitch,relative_pitch_class,parsons_code,parsons_cumsum
0,62,0,2,105,2,0,7,-5,7,0,0
1,66,2,0,80,6,4,7,-1,11,1,1
2,64,2,0,80,4,-2,7,-3,9,-1,0
3,62,3,0,80,2,-2,7,-5,7,-1,-1
4,69,4,1,95,9,7,7,2,2,1,0
5,62,5,1,80,2,-7,7,-5,7,-1,-1
6,66,6,0,80,6,4,7,-1,11,1,0
7,64,6,0,80,4,-2,7,-3,9,-1,-1
8,62,7,0,80,2,-2,7,-5,7,-1,-2
9,69,8,1,105,9,7,7,2,2,1,-1
10,71,9,1,80,11,2,7,4,4,1,0
11,71,10,1,80,11,0,7,4,4,0,0
12,69,11,1,80,9,-2,7,2,2,-1,-1
13,67,12,1,95,7,-2,7,0,0,-1,-2
14,64,13,1,80,4,-3,7,-3,9,-1,-3
15,72,14,1,80,0,8,7,5,5,1,-2
16,64,15,1,80,4,-8,7,-3,9,-1,-3
17,62,16,2,105,2,-2,7,-5,7,-1,-4
18,66,18,0,80,6,4,7,-1,11,1,-3
19,64,18,0,80,4,-2,7,-3,9,-1,-4
20,62,19,0,80,2,-2,7,-5,7,-1,-5
21,69,20,1,95,9,7,7,2,2,1,-4
22,62,21,1,80,2,-7,7,-5,7,-1,-5
23,66,22,1,80,6,4,7,-1,11,1,-4
24,69,23,1,80,9,3,7,2,2,1,-3
25,74,24,2,105,2,5,7,7,7,1,-2
26,76,26,1,80,4,2,7,9,9,1,-1
27,74,27,1,80,2,-2,7,7,7,-1,-2
28,72,28,1,95,0,-2,7,5,5,-1,-3
29,69,29,1,80,9,-3,7,2,2,-1,-4
30,67,30,1,80,7,-2,7,0,0,-1,-5
31,64,31,1,80,4,-3,7,-3,9,-1,-6
32,62,32,2,105,2,-2,7,-5,7,-1,-7
33,66,34,0,80,6,4,7,-1,11,1,-6
34,64,34,0,80,4,-2,7,-3,9,-1,-7
35,62,35,0,80,2,-2,7,-5,7,-1,-8
36,69,36,1,95,9,7,7,2,2,1,-7
37,62,37,1,80,2,-7,7,-5,7,-1,-8
38,66,38,0,80,6,4,7,-1,11,1,-7
39,64,38,0,80,4,-2,7,-3,9,-1,-8
40,62,39,0,80,2,-2,7,-5,7,-1,-9
41,69,40,2,105,9,7,7,2,2,1,-8
42,71,42,1,80,11,2,7,4,4,1,-7
43,69,43,1,80,9,-2,7,2,2,-1,-8
44,67,44,1,95,7,-2,7,0,0,-1,-9
45,64,45,1,80,4,-3,7,-3,9,-1,-10
46,62,46,1,80,2,-2,7,-5,7,-1,-11
47,69,47,1,80,9,7,7,2,2,1,-10
48,72,48,1,105,0,3,7,5,5,1,-9
49,69,49,1,80,9,-3,7,2,2,-1,-10
50,71,50,1,80,11,2,7,4,4,1,-9
51,67,51,1,80,7,-4,7,0,0,-1,-10
52,69,52,3,95,9,2,7,2,2,1,-9
53,71,55,1,80,11,2,7,4,4,1,-8
54,74,56,2,105,2,3,7,7,7,1,-7
55,76,58,1,80,4,2,7,9,9,1,-6
56,74,59,1,80,2,-2,7,7,7,-1,-7
57,72,60,1,95,0,-2,7,5,5,-1,-8
58,69,61,1,80,9,-3,7,2,2,-1,-9
59,67,62,1,80,7,-2,7,0,0,-1,-10
60,64,63,1,80,4,-3,7,-3,9,-1,-11
61,62,64,2,105,2,-2,7,-5,7,-1,-12
62,66,66,0,80,6,4,7,-1,11,1,-11
63,64,66,0,80,4,-2,7,-3,9,-1,-12
64,62,67,0,80,2,-2,7,-5,7,-1,-13
65,69,68,1,95,9,7,7,2,2,1,-12
66,62,69,1,80,2,-7,7,-5,7,-1,-13
67,66,70,0,80,6,4,7,-1,11,1,-12
68,64,70,0,80,4,-2,7,-3,9,-1,-13
69,62,71,0,80,2,-2,7,-5,7,-1,-14
70,69,72,1,105,9,7,7,2,2,1,-13
71,71,73,1,80,11,2,7,4,4,1,-12
72,71,74,1,80,11,0,7,4,4,0,-12
73,69,75,1,80,9,-2,7,2,2,-1,-13
74,67,76,1,95,7,-2,7,0,0,-1,-14
75,64,77,1,80,4,-3,7,-3,9,-1,-15
76,72,78,1,80,0,8,7,5,5,1,-14
77,64,79,1,80,4,-8,7,-3,9,-1,-15
78,62,80,2,105,2,-2,7,-5,7,-1,-16
79,66,82,0,80,6,4,7,-1,11,1,-15
80,64,82,0,80,4,-2,7,-3,9,-1,-16
81,62,83,0,80,2,-2,7,-5,7,-1,-17
82,69,84,1,95,9,7,7,2,2,1,-16
83,62,85,1,80,2,-7,7,-5,7,-1,-17
84,66,86,1,80,6,4,7,-1,11,1,-16
85,69,87,1,80,9,3,7,2,2,1,-15
86,74,88,2,105,2,5,7,7,7,1,-14
87,76,90,1,80,4,2,7,9,9,1,-13
88,74,91,1,80,2,-2,7,7,7,-1,-14
89,72,92,1,95,0,-2,7,5,5,-1,-15
90,69,93,1,80,9,-3,7,2,2,-1,-16
91,67,94,1,80,7,-2,7,0,0,-1,-17
92,64,95,1,80,4,-3,7,-3,9,-1,-18
93,62,96,2,105,2,-2,7,-5,7,-1,-19
94,66,98,0,80,6,4,7,-1,11,1,-18
95,64,98,0,80,4,-2,7,-3,9,-1,-19
96,62,99,0,80,2,-2,7,-5,7,-1,-20
97,69,100,1,95,9,7,7,2,2,1,-19
98,62,101,1,80,2,-7,7,-5,7,-1,-20
99,66,102,0,80,6,4,7,-1,11,1,-19
100,64,102,0,80,4,-2,7,-3,9,-1,-20
101,62,103,0,80,2,-2,7,-5,7,-1,-21
102,69,104,2,105,9,7,7,2,2,1,-20
103,71,106,1,80,11,2,7,4,4,1,-19
104,69,107,1,80,9,-2,7,2,2,-1,-20
105,67,108,1,95,7,-2,7,0,0,-1,-21
106,64,109,1,80,4,-3,7,-3,9,-1,-22
107,62,110,1,80,2,-2,7,-5,7,-1,-23
108,69,111,1,80,9,7,7,2,2,1,-22
109,72,112,1,105,0,3,7,5,5,1,-21
110,69,113,1,80,9,-3,7,2,2,-1,-22
111,71,114,1,80,11,2,7,4,4,1,-21
112,67,115,1,80,7,-4,7,0,0,-1,-22
113,69,116,3,95,9,2,7,2,2,1,-21
114,71,119,1,80,11,2,7,4,4,1,-20
115,74,120,2,105,2,3,7,7,7,1,-19
116,76,122,1,80,4,2,7,9,9,1,-18
117,74,123,1,80,2,-2,7,7,7,-1,-19
118,72,124,1,95,0,-2,7,5,5,-1,-20
119,69,125,1,80,9,-3,7,2,2,-1,-21
120,67,126,1,80,7,-2,7,0,0,-1,-22
121,64,127,1,80,4,-3,7,-3,9,-1,-23
122,69,128,1,105,9,5,7,2,2,1,-22
123,74,129,1,80,2,5,7,7,7,1,-21
124,76,130,0,80,4,2,7,9,9,1,-20
125,74,130,1,80,2,-2,7,7,7,-1,-21
126,69,132,1,95,9,-5,7,2,2,-1,-22
127,74,133,1,80,2,5,7,7,7,1,-21
128,76,134,0,80,4,2,7,9,9,1,-20
129,74,134,1,80,2,-2,7,7,7,-1,-21
130,69,136,1,105,9,-5,7,2,2,-1,-22
131,74,137,1,80,2,5,7,7,7,1,-21
132,76,138,0,80,4,2,7,9,9,1,-20
133,74,138,1,80,2,-2,7,7,7,-1,-21
134,76,140,1,95,4,2,7,9,9,1,-20
135,74,141,1,80,2,-2,7,7,7,-1,-21
136,71,142,0,80,11,-3,7,4,4,-1,-22
137,72,142,0,80,0,1,7,5,5,1,-21
138,74,143,1,80,2,2,7,7,7,1,-20
139,76,144,1,105,4,2,7,9,9,1,-19
140,81,145,1,80,9,5,7,14,2,1,-18
141,81,146,1,80,9,0,7,14,2,0,-18
142,79,147,1,80,7,-2,7,12,0,-1,-19
143,81,148,3,95,9,2,7,14,2,1,-18
144,81,152,3,105,9,0,7,14,2,0,-18
145,79,155,1,80,7,-2,7,12,0,-1,-19
146,76,156,1,95,4,-3,7,9,9,-1,-20
147,74,157,1,80,2,-2,7,7,7,-1,-21
148,71,158,0,80,11,-3,7,4,4,-1,-22
149,73,158,0,80,1,2,7,6,6,1,-21
150,74,159,1,80,2,1,7,7,7,1,-20
151,76,160,1,105,4,2,7,9,9,1,-19
152,78,161,1,80,6,2,7,11,11,1,-18
153,79,162,1,80,7,1,7,12,0,1,-17
154,76,163,1,80,4,-3,7,9,9,-1,-18
155,81,164,2,95,9,5,7,14,2,1,-17
156,79,166,1,80,7,-2,7,12,0,-1,-18
157,76,167,1,80,4,-3,7,9,9,-1,-19
158,78,168,2,105,6,2,7,11,11,1,-18
159,76,170,1,80,4,-2,7,9,9,-1,-19
160,74,171,1,80,2,-2,7,7,7,-1,-20
161,72,172,1,95,0,-2,7,5,5,-1,-21
162,69,173,1,80,9,-3,7,2,2,-1,-22
163,69,174,2,80,9,0,7,2,2,0,-22
164,72,176,1,105,0,3,7,5,5,1,-21
165,69,177,1,80,9,-3,7,2,2,-1,-22
166,71,178,1,80,11,2,7,4,4,1,-21
167,67,179,1,80,7,-4,7,0,0,-1,-22
168,69,180,3,95,9,2,7,2,2,1,-21
169,71,183,1,80,11,2,7,4,4,1,-20
170,74,184,2,105,2,3,7,7,7,1,-19
171,76,186,1,80,4,2,7,9,9,1,-18
172,74,187,1,80,2,-2,7,7,7,-1,-19
173,72,188,1,95,0,-2,7,5,5,-1,-20
174,69,189,1,80,9,-3,7,2,2,-1,-21
175,74,190,1,80,2,5,7,7,7,1,-20
176,71,191,1,80,11,-3,7,4,4,-1,-21
177,69,192,1,105,9,-2,7,2,2,-1,-22
178,74,193,1,80,2,5,7,7,7,1,-21
179,76,194,0,80,4,2,7,9,9,1,-20
180,74,194,1,80,2,-2,7,7,7,-1,-21
181,69,196,1,95,9,-5,7,2,2,-1,-22
182,74,197,1,80,2,5,7,7,7,1,-21
183,76,198,0,80,4,2,7,9,9,1,-20
184,74,198,1,80,2,-2,7,7,7,-1,-21
185,69,200,1,105,9,-5,7,2,2,-1,-22
186,74,201,1,80,2,5,7,7,7,1,-21
187,76,202,0,80,4,2,7,9,9,1,-20
188,74,202,1,80,2,-2,7,7,7,-1,-21
189,76,204,1,95,4,2,7,9,9,1,-20
190,74,205,1,80,2,-2,7,7,7,-1,-21
191,71,206,0,80,11,-3,7,4,4,-1,-22
192,72,206,0,80,0,1,7,5,5,1,-21
193,74,207,1,80,2,2,7,7,7,1,-20
194,76,208,1,105,4,2,7,9,9,1,-19
195,81,209,1,80,9,5,7,14,2,1,-18
196,81,210,1,80,9,0,7,14,2,0,-18
197,79,211,1,80,7,-2,7,12,0,-1,-19
198,81,212,3,95,9,2,7,14,2,1,-18
199,81,216,3,105,9,0,7,14,2,0,-18
200,79,219,1,80,7,-2,7,12,0,-1,-19
201,76,220,1,95,4,-3,7,9,9,-1,-20
202,74,221,1,80,2,-2,7,7,7,-1,-21
203,71,222,0,80,11,-3,7,4,4,-1,-22
204,73,222,0,80,1,2,7,6,6,1,-21
205,74,223,1,80,2,1,7,7,7,1,-20
206,76,224,1,105,4,2,7,9,9,1,-19
207,78,225,1,80,6,2,7,11,11,1,-18
208,79,226,1,80,7,1,7,12,0,1,-17
209,76,227,1,80,4,-3,7,9,9,-1,-18
210,81,228,2,95,9,5,7,14,2,1,-17
211,79,230,1,80,7,-2,7,12,0,-1,-18
212,76,231,1,80,4,-3,7,9,9,-1,-19
213,78,232,2,105,6,2,7,11,11,1,-18
214,76,234,1,80,4,-2,7,9,9,-1,-19
215,74,235,1,80,2,-2,7,7,7,-1,-20
216,72,236,1,95,0,-2,7,5,5,-1,-21
217,69,237,1,80,9,-3,7,2,2,-1,-22
218,69,238,2,80,9,0,7,2,2,0,-22
219,72,240,1,105,0,3,7,5,5,1,-21
220,69,241,1,80,9,-3,7,2,2,-1,-22
221,71,242,1,80,11,2,7,4,4,1,-21
222,67,243,1,80,7,-4,7,0,0,-1,-22
223,69,244,3,95,9,2,7,2,2,1,-21
224,71,247,1,80,11,2,7,4,4,1,-20
225,74,248,2,105,2,3,7,7,7,1,-19
226,76,250,1,80,4,2,7,9,9,1,-18
227,74,251,1,80,2,-2,7,7,7,-1,-19
228,72,252,1,95,0,-2,7,5,5,-1,-20
229,69,253,1,80,9,-3,7,2,2,-1,-21
230,67,254,1,80,7,-2,7,0,0,-1,-22
231,64,255,1,80,4,-3,7,-3,9,-1,-23
232,62,256,8,105,2,-2,7,-5,7,-1,-24
233,38,0,1,80,2,-24,7,-29,7,-1,-25
234,50,2,1,75,2,12,7,-17,7,1,-24
235,38,4,1,80,2,-12,7,-29,7,-1,-25
236,50,6,1,75,2,12,7,-17,7,1,-24
237,38,8,1,80,2,-12,7,-29,7,-1,-25
238,50,10,1,75,2,12,7,-17,7,1,-24
239,38,12,1,80,2,-12,7,-29,7,-1,-25
240,50,14,1,75,2,12,7,-17,7,1,-24
241,38,16,1,80,2,-12,7,-29,7,-1,-25
242,50,18,1,75,2,12,7,-17,7,1,-24
243,38,20,1,80,2,-12,7,-29,7,-1,-25
244,50,22,1,75,2,12,7,-17,7,1,-24
245,38,24,1,80,2,-12,7,-29,7,-1,-25
246,50,26,1,75,2,12,7,-17,7,1,-24
247,38,28,1,80,2,-12,7,-29,7,-1,-25
248,50,30,1,75,2,12,7,-17,7,1,-24
249,38,32,1,80,2,-12,7,-29,7,-1,-25
250,50,34,1,75,2,12,7,-17,7,1,-24
251,38,36,1,80,2,-12,7,-29,7,-1,-25
252,50,38,1,75,2,12,7,-17,7,1,-24
253,38,40,1,80,2,-12,7,-29,7,-1,-25
254,50,42,1,75,2,12,7,-17,7,1,-24
255,38,44,1,80,2,-12,7,-29,7,-1,-25
256,50,46,1,75,2,12,7,-17,7,1,-24
257,38,48,1,80,2,-12,7,-29,7,-1,-25
258,50,50,1,75,2,12,7,-17,7,1,-24
259,38,52,1,80,2,-12,7,-29,7,-1,-25
260,50,54,1,75,2,12,7,-17,7,1,-24
261,38,56,1,80,2,-12,7,-29,7,-1,-25
262,50,58,1,75,2,12,7,-17,7,1,-24
263,38,60,1,80,2,-12,7,-29,7,-1,-25
264,50,62,1,75,2,12,7,-17,7,1,-24
265,38,64,1,80,2,-12,7,-29,7,-1,-25
266,50,66,1,75,2,12,7,-17,7,1,-24
267,38,68,1,80,2,-12,7,-29,7,-1,-25
268,50,70,1,75,2,12,7,-17,7,1,-24
269,38,72,1,80,2,-12,7,-29,7,-1,-25
270,50,74,1,75,2,12,7,-17,7,1,-24
271,38,76,1,80,2,-12,7,-29,7,-1,-25
272,50,78,1,75,2,12,7,-17,7,1,-24
273,38,80,1,80,2,-12,7,-29,7,-1,-25
274,50,82,1,75,2,12,7,-17,7,1,-24
275,38,84,1,80,2,-12,7,-29,7,-1,-25
276,50,86,1,75,2,12,7,-17,7,1,-24
277,38,88,1,80,2,-12,7,-29,7,-1,-25
278,50,90,1,75,2,12,7,-17,7,1,-24
279,38,92,1,80,2,-12,7,-29,7,-1,-25
280,50,94,1,75,2,12,7,-17,7,1,-24
281,38,96,1,80,2,-12,7,-29,7,-1,-25
282,50,98,1,75,2,12,7,-17,7,1,-24
283,38,100,1,80,2,-12,7,-29,7,-1,-25
284,50,102,1,75,2,12,7,-17,7,1,-24
285,38,104,1,80,2,-12,7,-29,7,-1,-25
286,50,106,1,75,2,12,7,-17,7,1,-24
287,38,108,1,80,2,-12,7,-29,7,-1,-25
288,50,110,1,75,2,12,7,-17,7,1,-24
289,38,112,1,80,2,-12,7,-29,7,-1,-25
290,50,114,1,75,2,12,7,-17,7,1,-24
291,38,116,1,80,2,-12,7,-29,7,-1,-25
292,50,118,1,75,2,12,7,-17,7,1,-24
293,38,120,1,80,2,-12,7,-29,7,-1,-25
294,50,122,1,75,2,12,7,-17,7,1,-24
295,38,124,1,80,2,-12,7,-29,7,-1,-25
296,50,126,1,75,2,12,7,-17,7,1,-24
297,38,128,1,80,2,-12,7,-29,7,-1,-25
298,50,130,1,75,2,12,7,-17,7,1,-24
299,38,132,1,80,2,-12,7,-29,7,-1,-25
300,50,134,1,75,2,12,7,-17,7,1,-24
301,38,136,1,80,2,-12,7,-29,7,-1,-25
302,50,138,1,75,2,12,7,-17,7,1,-24
303,38,140,1,80,2,-12,7,-29,7,-1,-25
304,50,142,1,75,2,12,7,-17,7,1,-24
305,38,144,1,80,2,-12,7,-29,7,-1,-25
306,50,146,1,75,2,12,7,-17,7,1,-24
307,38,148,1,80,2,-12,7,-29,7,-1,-25
308,50,150,1,75,2,12,7,-17,7,1,-24
309,38,152,1,80,2,-12,7,-29,7,-1,-25
310,50,154,1,75,2,12,7,-17,7,1,-24
311,38,156,1,80,2,-12,7,-29,7,-1,-25
312,50,158,1,75,2,12,7,-17,7,1,-24
313,38,160,1,80,2,-12,7,-29,7,-1,-25
314,50,162,1,75,2,12,7,-17,7,1,-24
315,38,164,1,80,2,-12,7,-29,7,-1,-25
316,50,166,1,75,2,12,7,-17,7,1,-24
317,38,168,1,80,2,-12,7,-29,7,-1,-25
318,50,170,1,75,2,12,7,-17,7,1,-24
319,38,172,1,80,2,-12,7,-29,7,-1,-25
320,50,174,1,75,2,12,7,-17,7,1,-24
321,38,176,1,80,2,-12,7,-29,7,-1,-25
322,50,178,1,75,2,12,7,-17,7,1,-24
323,38,180,1,80,2,-12,7,-29,7,-1,-25
324,50,182,1,75,2,12,7,-17,7,1,-24
325,38,184,1,80,2,-12,7,-29,7,-1,-25
326,50,186,1,75,2,12,7,-17,7,1,-24
327,38,188,1,80,2,-12,7,-29,7,-1,-25
328,50,190,1,75,2,12,7,-17,7,1,-24
329,38,192,1,80,2,-12,7,-29,7,-1,-25
330,50,194,1,75,2,12,7,-17,7,1,-24
331,38,196,1,80,2,-12,7,-29,7,-1,-25
332,50,198,1,75,2,12,7,-17,7,1,-24
333,38,200,1,80,2,-12,7,-29,7,-1,-25
334,50,202,1,75,2,12,7,-17,7,1,-24
335,38,204,1,80,2,-12,7,-29,7,-1,-25
336,50,206,1,75,2,12,7,-17,7,1,-24
337,38,208,1,80,2,-12,7,-29,7,-1,-25
338,50,210,1,75,2,12,7,-17,7,1,-24
339,38,212,1,80,2,-12,7,-29,7,-1,-25
340,50,214,1,75,2,12,7,-17,7,1,-24
341,38,216,1,80,2,-12,7,-29,7,-1,-25
342,50,218,1,75,2,12,7,-17,7,1,-24
343,38,220,1,80,2,-12,7,-29,7,-1,-25
344,50,222,1,75,2,12,7,-17,7,1,-24
345,38,224,1,80,2,-12,7,-29,7,-1,-25
346,50,226,1,75,2,12,7,-17,7,1,-24
347,38,228,1,80,2,-12,7,-29,7,-1,-25
348,50,230,1,75,2,12,7,-17,7,1,-24
349,38,232,1,80,2,-12,7,-29,7,-1,-25
350,50,234,1,75,2,12,7,-17,7,1,-24
351,38,236,1,80,2,-12,7,-29,7,-1,-25
352,50,238,1,75,2,12,7,-17,7,1,-24
353,38,240,1,80,2,-12,7,-29,7,-1,-25
354,50,242,1,75,2,12,7,-17,7,1,-24
355,38,244,1,80,2,-12,7,-29,7,-1,-25
356,50,246,1,75,2,12,7,-17,7,1,-24
357,38,248,1,80,2,-12,7,-29,7,-1,-25
358,50,250,1,75,2,12,7,-17,7,1,-24
359,38,252,1,80,2,-12,7,-29,7,-1,-25
360,50,254,1,75,2,12,7,-17,7,1,-24
361,41,256,1,80,5,-9,7,-26,10,-1,-25
362,41,258,1,80,5,0,7,-26,10,0,-25
363,41,260,1,80,5,0,7,-26,10,0,-25
364,41,262,1,80,5,0,7,-26,10,0,-25
