,midi_note,onset,duration,velocity,pitch_class,interval,root,relative_pitch,relative_pitch_class,parsons_code,parsons_cumsum
0,74,0,1,105,2,0,9,5,5,0,0
2,69,2,2,105,9,-2,9,0,0,-1,-1
6,69,6,2,95,9,0,9,0,0,0,-1
9,76,10,1,105,4,2,9,7,7,1,0
13,69,14,1,95,9,-5,9,0,0,-1,-1
17,62,18,1,105,2,-5,9,-7,5,-1,-2
20,67,22,3,95,7,0,9,-2,10,1,-1
22,71,26,1,105,11,2,9,2,2,1,0
26,74,30,1,95,2,3,9,5,5,1,1
30,69,34,0,105,9,-2,9,0,0,-1,0
35,69,38,2,95,9,-2,9,0,0,0,0
39,76,42,1,105,4,2,9,7,7,1,1
43,71,46,3,95,11,-3,9,2,2,-1,0
45,76,50,1,105,4,2,9,7,7,1,1
49,79,54,1,95,7,-2,9,10,10,1,2
53,71,58,2,105,11,0,9,2,2,-1,1
55,69,62,2,95,9,0,9,0,0,-1,0
58,69,66,2,105,9,-2,9,0,0,0,0
62,69,70,2,95,9,0,9,0,0,0,0
65,76,74,1,105,4,2,9,7,7,1,1
69,69,78,1,95,9,-5,9,0,0,-1,0
73,62,82,1,105,2,-5,9,-7,5,-1,-1
76,67,86,3,95,7,0,9,-2,10,1,0
78,71,90,1,105,11,2,9,2,2,1,1
82,74,94,1,95,2,3,9,5,5,1,2
86,69,98,0,105,9,-2,9,0,0,-1,1
91,69,102,2,95,9,-2,9,0,0,0,1
95,76,106,1,105,4,2,9,7,7,1,2
99,71,110,3,95,11,-3,9,2,2,-1,1
101,76,114,1,105,4,2,9,7,7,1,2
105,79,118,1,95,7,-2,9,10,10,1,3
109,71,122,2,105,11,0,9,2,2,-1,2
111,69,126,2,95,9,0,9,0,0,-1,1
114,72,130,2,105,0,1,9,3,3,1,2
117,72,134,2,95,0,-2,9,3,3,0,2
119,72,138,3,105,0,5,9,3,3,0,2
121,79,142,1,95,7,3,9,10,10,1,3
125,72,146,1,105,0,1,9,3,3,-1,2
129,76,150,1,95,4,5,9,7,7,1,3
133,71,154,2,105,11,0,9,2,2,-1,2
136,74,158,1,95,2,3,9,5,5,1,3
140,72,162,1,105,0,1,9,3,3,-1,2
144,72,166,2,95,0,-2,9,3,3,0,2
146,72,170,3,105,0,5,9,3,3,0,2
148,79,174,1,95,7,3,9,10,10,1,3
152,76,178,1,105,4,-3,9,7,7,-1,2
156,76,182,0,95,4,-1,9,7,7,0,2
161,71,186,2,105,11,-3,9,2,2,-1,1
164,69,190,2,95,9,-2,9,0,0,-1,0
167,72,194,2,105,0,1,9,3,3,1,1
170,72,198,2,95,0,-2,9,3,3,0,1
172,72,202,3,105,0,5,9,3,3,0,1
174,79,206,1,95,7,3,9,10,10,1,2
178,72,210,1,105,0,1,9,3,3,-1,1
182,76,214,1,95,4,5,9,7,7,1,2
186,71,218,2,105,11,0,9,2,2,-1,1
189,74,222,1,95,2,3,9,5,5,1,2
193,72,226,1,105,0,1,9,3,3,-1,1
197,72,230,2,95,0,-2,9,3,3,0,1
199,72,234,3,105,0,5,9,3,3,0,1
201,79,238,1,95,7,3,9,10,10,1,2
205,76,242,1,105,4,-3,9,7,7,-1,1
209,76,246,0,95,4,-1,9,7,7,0,1
214,71,250,2,105,11,-3,9,2,2,-1,0
217,69,254,3,95,9,-2,9,0,0,-1,-1
219,72,258,2,105,0,1,9,3,3,1,0
222,69,262,1,95,9,-2,9,0,0,-1,-1
226,69,266,1,105,9,2,9,0,0,0,-1
230,76,270,1,95,4,2,9,7,7,1,0
234,71,274,1,105,11,-1,9,2,2,-1,-1
238,62,278,1,95,2,-5,9,-7,5,-1,-2
242,72,282,1,105,0,5,9,3,3,1,-1
246,74,286,1,95,2,2,9,5,5,1,0
250,72,290,1,105,0,1,9,3,3,-1,-1
254,69,294,1,95,9,-2,9,0,0,-1,-2
258,69,298,1,105,9,2,9,0,0,0,-2
262,76,302,1,95,4,2,9,7,7,1,-1
265,76,306,0,105,4,2,9,7,7,0,-1
270,79,310,1,95,7,-2,9,10,10,1,0
274,71,314,2,105,11,-1,9,2,2,-1,-1
277,69,318,3,95,9,-2,9,0,0,-1,-2
279,72,322,2,105,0,1,9,3,3,1,-1
282,69,326,1,95,9,-2,9,0,0,-1,-2
286,69,330,1,105,9,2,9,0,0,0,-2
290,76,334,1,95,4,2,9,7,7,1,-1
294,71,338,1,105,11,-1,9,2,2,-1,-2
298,62,342,1,95,2,-5,9,-7,5,-1,-3
302,72,346,1,105,0,5,9,3,3,1,-2
306,74,350,1,95,2,2,9,5,5,1,-1
310,72,354,1,105,0,1,9,3,3,-1,-2
314,69,358,1,95,9,-2,9,0,0,-1,-3
318,69,362,1,105,9,2,9,0,0,0,-3
322,76,366,1,95,4,2,9,7,7,1,-2
325,76,370,0,105,4,2,9,7,7,0,-2
330,79,374,1,95,7,-2,9,10,10,1,-1
334,71,378,2,105,11,-1,9,2,2,-1,-2
337,69,382,2,95,9,-2,9,0,0,-1,-3
341,76,386,2,105,4,2,9,7,7,1,-2
344,81,390,2,95,9,2,9,12,0,1,-1
347,83,394,1,105,11,2,9,14,2,1,0
351,79,398,1,95,7,1,9,10,10,-1,-1
355,74,402,3,105,2,3,9,5,5,-1,-2
357,79,406,3,95,7,3,9,10,10,1,-1
359,83,410,1,105,11,2,9,14,2,1,0
363,79,414,1,95,7,1,9,10,10,-1,-1
367,76,418,1,105,4,-3,9,7,7,-1,-2
371,76,422,1,95,4,-3,9,7,7,0,-2
374,83,426,1,105,11,2,9,14,2,1,-1
378,79,430,1,95,7,1,9,10,10,-1,-2
382,74,434,2,105,2,3,9,5,5,-1,-3
386,78,438,1,95,6,-1,9,9,9,1,-2
390,71,442,0,105,11,-3,9,2,2,-1,-3
394,69,446,2,95,9,0,9,0,0,-1,-4
398,76,450,2,105,4,2,9,7,7,1,-3
401,81,454,2,95,9,2,9,12,0,1,-2
404,83,458,1,105,11,2,9,14,2,1,-1
408,79,462,1,95,7,1,9,10,10,-1,-2
412,74,466,3,105,2,3,9,5,5,-1,-3
414,79,470,3,95,7,3,9,10,10,1,-2
416,83,474,1,105,11,2,9,14,2,1,-1
420,79,478,1,95,7,1,9,10,10,-1,-2
424,76,482,1,105,4,-3,9,7,7,-1,-3
428,76,486,1,95,4,-3,9,7,7,0,-3
431,83,490,1,105,11,2,9,14,2,1,-2
435,79,494,1,95,7,1,9,10,10,-1,-3
439,74,498,2,105,2,3,9,5,5,-1,-4
443,78,502,1,95,6,-1,9,9,9,1,-3
447,71,506,0,105,11,-3,9,2,2,-1,-4
451,69,510,2,95,9,0,9,0,0,-1,-5
455,76,514,2,105,4,2,9,7,7,1,-4
458,78,518,1,95,6,-1,9,9,9,1,-3
462,76,522,1,105,4,-2,9,7,7,-1,-4
466,78,526,1,95,6,2,9,9,9,1,-3
470,74,530,2,105,2,3,9,5,5,-1,-4
474,74,534,1,95,2,0,9,5,5,0,-4
478,74,538,2,105,2,3,9,5,5,0,-4
481,76,542,1,95,4,2,9,7,7,1,-3
486,76,546,2,105,4,2,9,7,7,0,-3
489,78,550,1,95,6,-1,9,9,9,1,-2
493,76,554,1,105,4,-2,9,7,7,-1,-3
497,78,558,1,95,6,2,9,9,9,1,-2
501,69,562,2,105,9,-2,9,0,0,-1,-3
505,76,566,1,95,4,2,9,7,7,1,-2
509,71,570,2,105,11,-3,9,2,2,-1,-3
511,69,574,2,95,9,0,9,0,0,-1,-4
515,76,578,2,105,4,2,9,7,7,1,-3
518,78,582,1,95,6,-1,9,9,9,1,-2
522,76,586,1,105,4,-2,9,7,7,-1,-3
526,78,590,1,95,6,2,9,9,9,1,-2
530,74,594,2,105,2,3,9,5,5,-1,-3
534,74,598,1,95,2,0,9,5,5,0,-3
538,74,602,2,105,2,3,9,5,5,0,-3
541,76,606,1,95,4,2,9,7,7,1,-2
546,76,610,2,105,4,2,9,7,7,0,-2
549,78,614,1,95,6,-1,9,9,9,1,-1
553,76,618,1,105,4,-2,9,7,7,-1,-2
557,78,622,1,95,6,2,9,9,9,1,-1
561,69,626,2,105,9,-2,9,0,0,-1,-2
565,76,630,1,95,4,2,9,7,7,1,-1
569,71,634,2,105,11,-3,9,2,2,-1,-2
571,69,638,2,95,9,0,9,0,0,-1,-3
575,81,642,2,105,9,2,9,12,0,1,-2
577,76,646,1,95,4,0,9,7,7,-1,-3
581,81,650,2,105,9,5,9,12,0,1,-2
584,76,654,2,95,4,2,9,7,7,-1,-3
587,78,658,2,105,6,-1,9,9,9,1,-2
589,74,662,3,95,2,0,9,5,5,-1,-3
591,78,666,2,105,6,2,9,9,9,1,-2
594,74,670,1,95,2,1,9,5,5,-1,-3
598,81,674,2,105,9,7,9,12,0,1,-2
600,78,678,1,95,6,2,9,9,9,-1,-3
604,76,682,1,105,4,-2,9,7,7,-1,-4
608,78,686,1,95,6,2,9,9,9,1,-3
612,69,690,2,105,9,-2,9,0,0,-1,-4
616,76,694,1,95,4,2,9,7,7,1,-3
620,71,698,2,105,11,-3,9,2,2,-1,-4
622,69,702,2,95,9,0,9,0,0,-1,-5
626,81,706,2,105,9,2,9,12,0,1,-4
628,76,710,1,95,4,0,9,7,7,-1,-5
632,81,714,2,105,9,5,9,12,0,1,-4
635,76,718,2,95,4,2,9,7,7,-1,-5
638,78,722,2,105,6,-1,9,9,9,1,-4
640,74,726,3,95,2,0,9,5,5,-1,-5
642,78,730,2,105,6,2,9,9,9,1,-4
645,74,734,1,95,2,1,9,5,5,-1,-5
649,81,738,2,105,9,7,9,12,0,1,-4
651,78,742,1,95,6,2,9,9,9,-1,-5
655,76,746,1,105,4,-2,9,7,7,-1,-6
659,78,750,1,95,6,2,9,9,9,1,-5
663,69,754,2,105,9,-2,9,0,0,-1,-6
667,76,758,1,95,4,2,9,7,7,1,-5
671,71,762,2,105,11,-3,9,2,2,-1,-6
673,69,766,2,95,9,0,9,0,0,-1,-7
