,midi_note,onset,duration,velocity,pitch_class,interval,root,relative_pitch,relative_pitch_class,parsons_code,parsons_cumsum
0,69,0,0,105,9,0,2,7,7,0,0
3,74,2,2,105,2,1,2,12,0,1,1
6,74,6,2,95,2,8,2,12,0,0,1
9,74,10,1,105,2,8,2,12,0,0,1
13,76,14,1,95,4,-2,2,14,2,1,2
17,78,18,2,105,6,-1,2,16,4,1,3
20,79,22,1,95,7,1,2,17,5,1,4
24,73,26,2,105,1,-1,2,11,11,-1,3
26,69,30,2,95,9,0,2,7,7,-1,2
30,74,34,2,105,2,1,2,12,0,1,3
33,74,38,2,95,2,8,2,12,0,0,3
36,74,42,1,105,2,8,2,12,0,0,3
40,76,46,1,95,4,-2,2,14,2,1,4
44,78,50,2,105,6,-1,2,16,4,1,5
47,79,54,1,95,7,1,2,17,5,1,6
51,74,58,1,105,2,1,2,12,0,-1,5
56,74,62,2,95,2,1,2,12,0,0,5
60,74,66,2,105,2,1,2,12,0,0,5
63,74,70,2,95,2,8,2,12,0,0,5
66,74,74,1,105,2,8,2,12,0,0,5
70,76,78,1,95,4,-2,2,14,2,1,6
74,78,82,2,105,6,-1,2,16,4,1,7
77,79,86,1,95,7,1,2,17,5,1,8
81,73,90,2,105,1,-1,2,11,11,-1,7
83,69,94,2,95,9,0,2,7,7,-1,6
87,74,98,2,105,2,1,2,12,0,1,7
90,74,102,2,95,2,8,2,12,0,0,7
93,74,106,1,105,2,8,2,12,0,0,7
97,76,110,1,95,4,-2,2,14,2,1,8
101,78,114,2,105,6,-1,2,16,4,1,9
104,79,118,1,95,7,1,2,17,5,1,10
108,74,122,1,105,2,1,2,12,0,-1,9
113,74,126,2,95,2,1,2,12,0,0,9
116,81,130,1,105,9,2,2,19,7,1,10
120,78,134,1,95,6,-1,2,16,4,-1,9
124,83,138,1,105,11,2,2,21,9,1,10
128,73,142,1,95,1,-1,2,11,11,-1,9
132,78,146,1,105,6,-1,2,16,4,1,10
135,83,150,1,95,11,2,2,21,9,1,11
139,73,154,2,105,1,-1,2,11,11,-1,10
141,69,158,2,95,9,0,2,7,7,-1,9
144,81,162,1,105,9,2,2,19,7,1,10
148,78,166,1,95,6,-1,2,16,4,-1,9
152,83,170,1,105,11,2,2,21,9,1,10
156,73,174,1,95,1,-1,2,11,11,-1,9
160,78,178,1,105,6,-1,2,16,4,1,10
163,83,182,1,95,11,2,2,21,9,1,11
167,74,186,1,105,2,1,2,12,0,-1,10
172,74,190,2,95,2,1,2,12,0,0,10
175,81,194,1,105,9,2,2,19,7,1,11
179,78,198,1,95,6,-1,2,16,4,-1,10
183,83,202,1,105,11,2,2,21,9,1,11
187,73,206,1,95,1,-1,2,11,11,-1,10
191,78,210,1,105,6,-1,2,16,4,1,11
194,83,214,1,95,11,2,2,21,9,1,12
198,73,218,2,105,1,-1,2,11,11,-1,11
200,69,222,2,95,9,0,2,7,7,-1,10
203,81,226,1,105,9,2,2,19,7,1,11
207,78,230,1,95,6,-1,2,16,4,-1,10
211,83,234,1,105,11,2,2,21,9,1,11
215,73,238,1,95,1,-1,2,11,11,-1,10
219,78,242,1,105,6,-1,2,16,4,1,11
222,83,246,1,95,11,2,2,21,9,1,12
226,74,250,1,105,2,1,2,12,0,-1,11
231,74,254,2,95,2,1,2,12,0,0,11
234,66,258,2,105,6,-1,2,4,4,-1,10
237,78,262,2,95,6,-1,2,16,4,1,11
240,74,266,1,105,2,1,2,12,0,-1,10
244,76,270,1,95,4,-2,2,14,2,1,11
248,78,274,2,105,6,11,2,16,4,1,12
251,78,278,2,95,6,-1,2,16,4,0,12
254,78,282,1,105,6,5,2,16,4,0,12
259,74,286,2,95,2,1,2,12,0,-1,11
262,66,290,2,105,6,-1,2,4,4,-1,10
265,78,294,2,95,6,-1,2,16,4,1,11
268,74,298,1,105,2,1,2,12,0,-1,10
272,76,302,1,95,4,-2,2,14,2,1,11
276,78,306,1,105,6,11,2,16,4,1,12
279,83,310,1,95,11,2,2,21,9,1,13
283,74,314,1,105,2,1,2,12,0,-1,12
288,74,318,2,95,2,1,2,12,0,0,12
291,66,322,2,105,6,-1,2,4,4,-1,11
294,78,326,2,95,6,-1,2,16,4,1,12
297,74,330,1,105,2,1,2,12,0,-1,11
301,76,334,1,95,4,-2,2,14,2,1,12
305,78,338,2,105,6,11,2,16,4,1,13
308,78,342,2,95,6,-1,2,16,4,0,13
311,78,346,1,105,6,5,2,16,4,0,13
316,74,350,2,95,2,1,2,12,0,-1,12
319,66,354,2,105,6,-1,2,4,4,-1,11
322,78,358,2,95,6,-1,2,16,4,1,12
325,74,362,1,105,2,1,2,12,0,-1,11
329,76,366,1,95,4,-2,2,14,2,1,12
333,78,370,1,105,6,11,2,16,4,1,13
336,83,374,1,95,11,2,2,21,9,1,14
340,74,378,1,105,2,1,2,12,0,-1,13
345,74,382,2,95,2,1,2,12,0,0,13
348,78,386,1,105,6,-1,2,16,4,1,14
352,79,390,1,95,7,-2,2,17,5,1,15
356,78,394,1,105,6,2,2,16,4,-1,14
360,76,398,1,95,4,2,2,14,2,-1,13
364,78,402,2,105,6,-1,2,16,4,1,14
367,79,406,1,95,7,1,2,17,5,1,15
371,73,410,2,105,1,-1,2,11,11,-1,14
374,69,414,3,95,9,2,2,7,7,-1,13
376,66,418,0,105,6,-1,2,4,4,-1,12
381,71,422,1,95,11,9,2,9,9,1,13
385,74,426,1,105,2,12,2,12,0,1,14
389,76,430,1,95,4,-2,2,14,2,1,15
393,78,434,1,105,6,-1,2,16,4,1,16
396,83,438,1,95,11,2,2,21,9,1,17
400,74,442,1,105,2,1,2,12,0,-1,16
405,74,446,2,95,2,1,2,12,0,0,16
408,78,450,1,105,6,-1,2,16,4,1,17
412,79,454,1,95,7,-2,2,17,5,1,18
416,78,458,1,105,6,2,2,16,4,-1,17
420,76,462,1,95,4,2,2,14,2,-1,16
424,78,466,2,105,6,-1,2,16,4,1,17
427,79,470,1,95,7,1,2,17,5,1,18
431,73,474,2,105,1,-1,2,11,11,-1,17
433,69,478,2,95,9,0,2,7,7,-1,16
436,74,482,1,105,2,1,2,12,0,1,17
440,76,486,1,95,4,-2,2,14,2,1,18
444,78,490,1,105,6,-1,2,16,4,1,19
448,79,494,1,95,7,-2,2,17,5,1,20
452,81,498,1,105,9,-2,2,19,7,1,21
456,79,502,1,95,7,-2,2,17,5,-1,20
460,74,506,1,105,2,1,2,12,0,-1,19
465,74,510,4,95,2,1,2,12,0,0,19
