,midi_note,onset,duration,velocity,pitch_class,interval,root,relative_pitch,relative_pitch_class,parsons_code,parsons_cumsum
0,69,0,1,105,9,0,2,7,7,0,0
2,66,2,1,105,6,-1,2,4,4,-1,-1
6,66,6,1,95,6,4,2,4,4,0,-1
10,66,10,1,105,6,4,2,4,4,0,-1
14,67,14,1,95,7,1,2,5,5,1,0
18,57,18,2,105,9,-5,2,-5,7,-1,-1
21,61,22,1,95,1,4,2,-1,11,1,0
25,61,26,1,105,1,4,2,-1,11,0,0
29,61,30,1,95,1,-10,2,-1,11,0,0
33,66,34,1,105,6,-1,2,4,4,1,1
37,66,38,1,95,6,4,2,4,4,0,1
41,66,42,1,105,6,4,2,4,4,0,1
45,67,46,1,95,7,1,2,5,5,1,2
49,71,50,0,105,11,2,2,9,9,1,3
54,78,54,0,95,6,-1,2,16,4,1,4
59,74,58,1,105,2,1,2,12,0,-1,3
63,74,62,1,95,2,-2,2,12,0,0,3
67,66,66,1,105,6,-1,2,4,4,-1,2
71,66,70,1,95,6,4,2,4,4,0,2
75,66,74,1,105,6,4,2,4,4,0,2
79,67,78,1,95,7,1,2,5,5,1,3
83,57,82,2,105,9,-5,2,-5,7,-1,2
86,67,86,0,95,7,1,2,5,5,1,3
92,64,90,2,105,4,2,2,2,2,-1,2
96,67,94,1,95,7,3,2,5,5,1,3
100,62,98,2,105,2,-2,2,0,0,-1,2
103,66,102,1,95,6,2,2,4,4,1,3
108,66,106,1,105,6,4,2,4,4,0,3
112,67,110,1,95,7,1,2,5,5,1,4
116,71,114,0,105,11,2,2,9,9,1,5
121,78,118,0,95,6,-1,2,16,4,1,6
126,74,122,1,105,2,1,2,12,0,-1,5
130,74,126,1,95,2,-2,2,12,0,0,5
134,62,130,1,95,2,-7,2,0,0,-1,4
138,62,134,1,95,2,-7,2,0,0,0,4
139,66,135,1,105,6,4,2,4,4,1,5
143,67,139,1,95,7,1,2,5,5,1,6
147,57,143,2,105,9,-5,2,-5,7,-1,5
150,61,147,1,95,1,4,2,-1,11,1,6
154,61,151,1,105,1,4,2,-1,11,0,6
158,61,155,1,95,1,-10,2,-1,11,0,6
162,66,159,1,105,6,-1,2,4,4,1,7
166,66,163,1,95,6,4,2,4,4,0,7
170,66,167,1,105,6,4,2,4,4,0,7
174,67,171,1,95,7,1,2,5,5,1,8
178,71,175,0,105,11,2,2,9,9,1,9
183,78,179,0,95,6,-1,2,16,4,1,10
188,74,183,1,105,2,1,2,12,0,-1,9
192,74,187,1,95,2,-2,2,12,0,0,9
196,66,191,1,105,6,-1,2,4,4,-1,8
200,66,195,1,95,6,4,2,4,4,0,8
204,66,199,1,105,6,4,2,4,4,0,8
208,67,203,1,95,7,1,2,5,5,1,9
212,57,207,2,105,9,-5,2,-5,7,-1,8
215,67,211,0,95,7,1,2,5,5,1,9
221,64,215,2,105,4,2,2,2,2,-1,8
225,67,219,1,95,7,3,2,5,5,1,9
229,62,223,2,105,2,-2,2,0,0,-1,8
232,66,227,1,95,6,2,2,4,4,1,9
237,66,231,1,105,6,4,2,4,4,0,9
241,67,235,1,95,7,1,2,5,5,1,10
245,71,239,0,105,11,2,2,9,9,1,11
250,78,243,0,95,6,-1,2,16,4,1,12
255,74,247,1,105,2,1,2,12,0,-1,11
259,74,251,1,95,2,-2,2,12,0,0,11
263,78,255,1,105,6,-1,2,16,4,1,12
268,78,259,1,95,6,7,2,16,4,0,12
272,78,263,1,105,6,2,2,16,4,0,12
276,78,267,0,95,6,2,2,16,4,0,12
281,73,271,1,105,1,-1,2,11,11,-1,11
286,78,275,1,95,6,9,2,16,4,1,12
290,73,279,1,105,1,4,2,11,11,-1,11
294,78,283,1,95,6,-3,2,16,4,1,12
298,78,287,1,105,6,2,2,16,4,0,12
303,78,291,1,95,6,7,2,16,4,0,12
307,78,295,1,105,6,2,2,16,4,0,12
311,78,299,0,95,6,2,2,16,4,0,12
316,69,303,1,105,9,-4,2,7,7,-1,11
321,81,307,1,95,9,2,2,19,7,1,12
325,78,311,0,105,6,2,2,16,4,-1,11
330,74,315,1,95,2,1,2,12,0,-1,10
334,78,319,1,105,6,-1,2,16,4,1,11
339,78,323,1,95,6,7,2,16,4,0,11
343,78,327,1,105,6,2,2,16,4,0,11
347,78,331,0,95,6,2,2,16,4,0,11
352,73,335,1,105,1,-1,2,11,11,-1,10
357,78,339,1,95,6,9,2,16,4,1,11
361,73,343,1,105,1,4,2,11,11,-1,10
365,78,347,1,95,6,-3,2,16,4,1,11
369,78,351,1,105,6,2,2,16,4,0,11
374,78,355,1,95,6,7,2,16,4,0,11
378,78,359,1,105,6,2,2,16,4,0,11
382,78,363,0,95,6,2,2,16,4,0,11
387,69,367,1,105,9,-4,2,7,7,-1,10
392,81,371,1,95,9,2,2,19,7,1,11
396,78,375,0,105,6,2,2,16,4,-1,10
401,74,379,1,95,2,1,2,12,0,-1,9
405,74,383,0,105,2,1,2,12,0,0,9
410,74,387,0,95,2,0,2,12,0,0,9
415,73,391,0,105,1,-1,2,11,11,-1,8
420,73,395,0,95,1,0,2,11,11,0,8
425,74,399,2,105,2,1,2,12,0,1,9
428,74,403,2,95,2,0,2,12,0,0,9
431,81,407,1,105,9,2,2,19,7,1,10
435,74,411,1,95,2,-2,2,12,0,-1,9
439,74,415,2,105,2,1,2,12,0,0,9
442,69,419,1,95,9,-5,2,7,7,-1,8
446,73,423,2,105,1,-1,2,11,11,1,9
449,69,427,1,95,9,-4,2,7,7,-1,8
453,74,431,2,105,2,1,2,12,0,1,9
456,69,435,1,95,9,-5,2,7,7,-1,8
460,81,439,1,105,9,2,2,19,7,1,9
464,74,443,1,95,2,-2,2,12,0,-1,8
