,midi_note,onset,duration,velocity,pitch_class,interval,root,relative_pitch,relative_pitch_class,parsons_code,parsons_cumsum
0,69,0,1,105,9,0,2,7,7,0,0
3,74,2,1,105,2,1,2,12,0,1,1
6,73,5,1,95,1,-5,2,11,11,-1,0
9,74,8,1,105,2,-2,2,12,0,1,1
12,79,11,1,95,7,1,2,17,5,1,2
15,74,14,1,105,2,-2,2,12,0,-1,1
18,73,17,1,95,1,-5,2,11,11,-1,0
21,74,20,1,105,2,-2,2,12,0,1,1
24,74,23,1,95,2,-2,2,12,0,0,1
27,74,26,1,105,2,5,2,12,0,0,1
30,73,29,1,95,1,-5,2,11,11,-1,0
33,74,32,1,105,2,-2,2,12,0,1,1
36,79,35,1,95,7,1,2,17,5,1,2
39,81,38,1,105,9,2,2,19,7,1,3
42,79,41,1,95,7,5,2,17,5,-1,2
46,74,44,1,105,2,0,2,12,0,-1,1
49,74,47,1,95,2,-2,2,12,0,0,1
52,74,50,1,105,2,5,2,12,0,0,1
55,73,53,1,95,1,-5,2,11,11,-1,0
58,74,56,1,105,2,-2,2,12,0,1,1
61,79,59,1,95,7,1,2,17,5,1,2
64,74,62,1,105,2,-2,2,12,0,-1,1
67,73,65,1,95,1,-5,2,11,11,-1,0
70,74,68,1,105,2,-2,2,12,0,1,1
73,74,71,1,95,2,-2,2,12,0,0,1
76,74,74,1,105,2,5,2,12,0,0,1
79,73,77,1,95,1,-5,2,11,11,-1,0
82,74,80,1,105,2,-2,2,12,0,1,1
85,79,83,1,95,7,1,2,17,5,1,2
88,81,86,1,105,9,2,2,19,7,1,3
91,79,89,1,95,7,5,2,17,5,-1,2
95,74,92,1,105,2,0,2,12,0,-1,1
98,74,95,1,95,2,-2,2,12,0,0,1
101,69,98,1,105,9,-2,2,7,7,-1,0
104,69,101,1,95,9,0,2,7,7,0,0
107,79,104,1,105,7,1,2,17,5,1,1
110,78,107,1,95,6,2,2,16,4,-1,0
113,69,110,1,105,9,-2,2,7,7,-1,-1
116,69,113,1,95,9,0,2,7,7,0,-1
119,74,116,1,105,2,5,2,12,0,1,0
122,74,119,1,95,2,-2,2,12,0,0,0
125,69,122,1,105,9,-2,2,7,7,-1,-1
128,71,125,1,95,11,2,2,9,9,1,0
131,76,128,1,105,4,5,2,14,2,1,1
134,76,131,1,95,4,0,2,14,2,0,1
137,78,134,1,105,6,-1,2,16,4,1,2
140,79,137,1,95,7,1,2,17,5,1,3
143,74,140,1,105,2,1,2,12,0,-1,2
146,74,143,1,95,2,-2,2,12,0,0,2
149,69,146,1,105,9,-2,2,7,7,-1,1
152,69,149,1,95,9,0,2,7,7,0,1
155,79,152,1,105,7,1,2,17,5,1,2
158,78,155,1,95,6,2,2,16,4,-1,1
161,69,158,1,105,9,-2,2,7,7,-1,0
164,69,161,1,95,9,0,2,7,7,0,0
167,74,164,1,105,2,5,2,12,0,1,1
170,74,167,1,95,2,-2,2,12,0,0,1
173,69,170,1,105,9,-2,2,7,7,-1,0
176,71,173,1,95,11,2,2,9,9,1,1
179,76,176,1,105,4,5,2,14,2,1,2
182,76,179,1,95,4,0,2,14,2,0,2
185,78,182,1,105,6,-1,2,16,4,1,3
188,79,185,1,95,7,1,2,17,5,1,4
191,74,188,1,105,2,1,2,12,0,-1,3
194,74,191,1,95,2,-2,2,12,0,0,3
197,78,194,1,105,6,9,2,16,4,1,4
200,76,197,1,95,4,7,2,14,2,-1,3
203,78,200,1,105,6,9,2,16,4,1,4
207,79,203,1,95,7,1,2,17,5,1,5
210,78,206,1,105,6,2,2,16,4,-1,4
213,76,209,1,95,4,7,2,14,2,-1,3
216,74,212,1,105,2,5,2,12,0,-1,2
219,74,215,1,95,2,-2,2,12,0,0,2
222,78,218,1,105,6,9,2,16,4,1,3
225,76,221,1,95,4,7,2,14,2,-1,2
228,78,224,1,105,6,9,2,16,4,1,3
232,79,227,1,95,7,1,2,17,5,1,4
235,81,230,1,105,9,2,2,19,7,1,5
238,79,233,1,95,7,5,2,17,5,-1,4
242,74,236,1,105,2,0,2,12,0,-1,3
245,74,239,1,95,2,-2,2,12,0,0,3
248,78,242,1,105,6,9,2,16,4,1,4
251,76,245,1,95,4,7,2,14,2,-1,3
254,78,248,1,105,6,9,2,16,4,1,4
258,79,251,1,95,7,1,2,17,5,1,5
261,78,254,1,105,6,2,2,16,4,-1,4
264,76,257,1,95,4,7,2,14,2,-1,3
267,74,260,1,105,2,5,2,12,0,-1,2
270,74,263,1,95,2,-2,2,12,0,0,2
273,78,266,1,105,6,9,2,16,4,1,3
276,76,269,1,95,4,7,2,14,2,-1,2
279,78,272,1,105,6,9,2,16,4,1,3
283,79,275,1,95,7,1,2,17,5,1,4
286,81,278,1,105,9,2,2,19,7,1,5
289,79,281,1,95,7,5,2,17,5,-1,4
293,74,284,1,105,2,0,2,12,0,-1,3
296,74,287,1,95,2,-2,2,12,0,0,3
299,69,290,1,105,9,-2,2,7,7,-1,2
302,69,293,1,95,9,-2,2,7,7,0,2
305,79,296,1,105,7,1,2,17,5,1,3
308,78,299,1,95,6,2,2,16,4,-1,2
311,69,302,1,105,9,-2,2,7,7,-1,1
314,69,305,1,95,9,0,2,7,7,0,1
317,74,308,1,105,2,5,2,12,0,1,2
320,74,311,1,95,2,-2,2,12,0,0,2
323,69,314,1,105,9,-2,2,7,7,-1,1
326,71,317,1,95,11,2,2,9,9,1,2
329,76,320,1,105,4,5,2,14,2,1,3
332,76,323,1,95,4,0,2,14,2,0,3
335,78,326,0,105,6,-1,2,16,4,1,4
339,79,329,1,95,7,1,2,17,5,1,5
342,74,332,1,105,2,1,2,12,0,-1,4
345,74,335,1,95,2,-2,2,12,0,0,4
348,69,338,1,105,9,-2,2,7,7,-1,3
351,69,341,1,95,9,-2,2,7,7,0,3
354,79,344,1,105,7,1,2,17,5,1,4
357,78,347,1,95,6,2,2,16,4,-1,3
360,69,350,1,105,9,-2,2,7,7,-1,2
363,69,353,1,95,9,0,2,7,7,0,2
366,74,356,1,105,2,5,2,12,0,1,3
369,74,359,1,95,2,-2,2,12,0,0,3
372,69,362,1,105,9,-2,2,7,7,-1,2
375,71,365,1,95,11,2,2,9,9,1,3
378,76,368,1,105,4,5,2,14,2,1,4
381,76,371,1,95,4,0,2,14,2,0,4
384,78,374,0,105,6,-1,2,16,4,1,5
388,79,377,1,95,7,1,2,17,5,1,6
391,74,380,1,105,2,1,2,12,0,-1,5
394,74,383,1,95,2,-2,2,12,0,0,5
397,62,386,12,105,2,-7,2,0,0,-1,4
