,midi_note,onset,duration,velocity,pitch_class,interval,root,relative_pitch,relative_pitch_class,parsons_code,parsons_cumsum
1,69.0,2.0,2.0,105.0,9.0,5.0,9.0,0.0,0.0,-1.0,-1
5,73.0,6.0,1.0,95.0,1.0,4.0,9.0,4.0,4.0,1.0,0
9,74.0,10.0,1.0,105.0,2.0,1.0,9.0,5.0,5.0,1.0,1
13,71.0,14.0,1.0,95.0,11.0,2.0,9.0,2.0,2.0,-1.0,0
17,69.0,18.0,2.0,105.0,9.0,-2.0,9.0,0.0,0.0,-1.0,-1
21,73.0,22.0,1.0,95.0,1.0,4.0,9.0,4.0,4.0,1.0,0
25,73.0,26.0,1.0,105.0,1.0,-1.0,9.0,4.0,4.0,0.0,0
29,76.0,30.0,1.0,95.0,4.0,-2.0,9.0,7.0,7.0,1.0,1
33,69.0,34.0,2.0,105.0,9.0,-2.0,9.0,0.0,0.0,-1.0,0
37,73.0,38.0,1.0,95.0,1.0,4.0,9.0,4.0,4.0,1.0,1
41,74.0,42.0,1.0,105.0,2.0,1.0,9.0,5.0,5.0,1.0,2
45,71.0,46.0,1.0,95.0,11.0,2.0,9.0,2.0,2.0,-1.0,1
49,69.0,50.0,1.0,105.0,9.0,-2.0,9.0,0.0,0.0,-1.0,0
54,69.0,54.0,1.0,95.0,9.0,-12.0,9.0,0.0,0.0,0.0,0
59,76.0,58.0,1.0,105.0,4.0,-2.0,9.0,7.0,7.0,1.0,1
63,69.0,62.0,2.0,95.0,9.0,-2.0,9.0,0.0,0.0,-1.0,0
65,69.0,66.0,2.0,105.0,9.0,5.0,9.0,0.0,0.0,0.0,0
69,73.0,70.0,1.0,95.0,1.0,4.0,9.0,4.0,4.0,1.0,1
73,74.0,74.0,1.0,105.0,2.0,1.0,9.0,5.0,5.0,1.0,2
77,71.0,78.0,1.0,95.0,11.0,2.0,9.0,2.0,2.0,-1.0,1
81,69.0,82.0,2.0,105.0,9.0,-2.0,9.0,0.0,0.0,-1.0,0
85,73.0,86.0,1.0,95.0,1.0,4.0,9.0,4.0,4.0,1.0,1
89,73.0,90.0,1.0,105.0,1.0,-1.0,9.0,4.0,4.0,0.0,1
93,76.0,94.0,1.0,95.0,4.0,-2.0,9.0,7.0,7.0,1.0,2
97,69.0,98.0,2.0,105.0,9.0,-2.0,9.0,0.0,0.0,-1.0,1
101,73.0,102.0,1.0,95.0,1.0,4.0,9.0,4.0,4.0,1.0,2
105,74.0,106.0,1.0,105.0,2.0,1.0,9.0,5.0,5.0,1.0,3
109,71.0,110.0,1.0,95.0,11.0,2.0,9.0,2.0,2.0,-1.0,2
113,69.0,114.0,1.0,105.0,9.0,-2.0,9.0,0.0,0.0,-1.0,1
118,69.0,118.0,1.0,95.0,9.0,-12.0,9.0,0.0,0.0,0.0,1
123,76.0,122.0,1.0,105.0,4.0,-2.0,9.0,7.0,7.0,1.0,2
127,69.0,126.0,2.0,95.0,9.0,-2.0,9.0,0.0,0.0,-1.0,1
130,81.0,130.0,1.0,105.0,9.0,1.0,9.0,12.0,0.0,1.0,2
134,78.0,134.0,1.0,95.0,6.0,2.0,9.0,9.0,9.0,-1.0,1
138,74.0,138.0,1.0,105.0,2.0,1.0,9.0,5.0,5.0,-1.0,0
142,71.0,142.0,1.0,95.0,11.0,2.0,9.0,2.0,2.0,-1.0,-1
146,69.0,146.0,2.0,105.0,9.0,-2.0,9.0,0.0,0.0,-1.0,-2
149,78.0,150.0,1.0,95.0,6.0,2.0,9.0,9.0,9.0,1.0,-1
153,74.0,154.0,1.0,105.0,2.0,1.0,9.0,5.0,5.0,-1.0,-2
157,81.0,158.0,1.0,95.0,9.0,1.0,9.0,12.0,0.0,1.0,-1
161,81.0,162.0,1.0,105.0,9.0,3.0,9.0,12.0,0.0,0.0,-1
165,78.0,166.0,1.0,95.0,6.0,2.0,9.0,9.0,9.0,-1.0,-2
169,74.0,170.0,1.0,105.0,2.0,1.0,9.0,5.0,5.0,-1.0,-3
173,71.0,174.0,1.0,95.0,11.0,2.0,9.0,2.0,2.0,-1.0,-4
177,69.0,178.0,1.0,105.0,9.0,-2.0,9.0,0.0,0.0,-1.0,-5
182,69.0,182.0,1.0,95.0,9.0,-12.0,9.0,0.0,0.0,0.0,-5
187,76.0,186.0,1.0,105.0,4.0,-2.0,9.0,7.0,7.0,1.0,-4
191,69.0,190.0,2.0,95.0,9.0,-2.0,9.0,0.0,0.0,-1.0,-5
194,81.0,194.0,1.0,105.0,9.0,1.0,9.0,12.0,0.0,1.0,-4
198,78.0,198.0,1.0,95.0,6.0,2.0,9.0,9.0,9.0,-1.0,-5
202,74.0,202.0,1.0,105.0,2.0,1.0,9.0,5.0,5.0,-1.0,-6
206,71.0,206.0,1.0,95.0,11.0,2.0,9.0,2.0,2.0,-1.0,-7
210,69.0,210.0,2.0,105.0,9.0,-2.0,9.0,0.0,0.0,-1.0,-8
213,78.0,214.0,1.0,95.0,6.0,2.0,9.0,9.0,9.0,1.0,-7
217,74.0,218.0,1.0,105.0,2.0,1.0,9.0,5.0,5.0,-1.0,-8
221,81.0,222.0,1.0,95.0,9.0,1.0,9.0,12.0,0.0,1.0,-7
225,81.0,226.0,1.0,105.0,9.0,3.0,9.0,12.0,0.0,0.0,-7
229,78.0,230.0,1.0,95.0,6.0,2.0,9.0,9.0,9.0,-1.0,-8
233,74.0,234.0,1.0,105.0,2.0,1.0,9.0,5.0,5.0,-1.0,-9
237,71.0,238.0,1.0,95.0,11.0,2.0,9.0,2.0,2.0,-1.0,-10
241,69.0,242.0,1.0,105.0,9.0,-2.0,9.0,0.0,0.0,-1.0,-11
246,69.0,246.0,1.0,95.0,9.0,-12.0,9.0,0.0,0.0,0.0,-11
251,76.0,250.0,1.0,105.0,4.0,-2.0,9.0,7.0,7.0,1.0,-10
255,69.0,254.0,2.0,95.0,9.0,-2.0,9.0,0.0,0.0,-1.0,-11
0,,,,,,,,,,0.0,-11
